<svg width="4579" height="400" viewBox="0 0 4579 400" fill="none" xmlns="http://www.w3.org/2000/svg">
<g clip-path="url(#clip0_455_288)">
<rect width="241" height="400" fill="white"/>
<path d="M0 400H241V0H0V400Z" fill="black"/>
<path d="M155.49 33.7812H106.996L93.7591 79.6354H141.716L155.49 33.7812ZM100.508 216.906H54.1731L41.0352 262.422H86.8381L100.508 216.906ZM121.464 147.161H74.3051L54.1731 216.906H100.513L121.464 147.161ZM177.975 171.448H143.954V185.339H132.177V199.974H177.975V171.448ZM141.747 79.6354H93.7956L87.2501 102.302H134.941L141.747 79.6354ZM134.691 102.302H87.005L74.0548 147.156H121.214L134.691 102.302ZM177.975 210.823H132.177V233.844H177.975V210.823ZM177.975 199.974H132.177V210.823H177.975V199.974ZM157.723 353.057H177.975V332.833H157.723V353.057ZM132.198 282.646V262.422H132.151V262.474H111.946V282.646H132.198Z" fill="white"/>
<path d="M143.927 171.516H132.203V185.339H143.927V171.516ZM177.975 262.479V233.844H132.177V262.422H132.224V239.651V322.083V282.651H111.972V262.479H86.8225L86.8381 262.422H41.0352L41.0195 262.479V282.323H58.5803V305.521H132.177V353.057H157.723V332.833H177.975V305.521H199.979V262.479H177.975Z" fill="white"/>
<path d="M41.0195 305.516H58.5803V281.849H41.0195V305.516Z" fill="white"/>
</g>
<rect width="241" height="400" transform="translate(241)" fill="white"/>
<path d="M241 400H482V0H241V400Z" fill="black"/>
<path d="M396.49 33.7812H347.996L334.759 79.6354H382.716L396.49 33.7812ZM341.508 216.906H295.173L282.035 262.422H327.838L341.508 216.906ZM362.464 147.161H315.305L295.173 216.906H341.513L362.464 147.161ZM418.975 171.448H384.954V185.339H373.177V199.974H418.975V171.448ZM382.747 79.6354H334.796L328.25 102.302H375.941L382.747 79.6354ZM375.691 102.302H328.005L315.055 147.156H362.214L375.691 102.302ZM418.975 210.823H373.177V233.844H418.975V210.823ZM418.975 199.974H373.177V210.823H418.975V199.974ZM402.358 358.141H422.61V337.917H402.358V358.141ZM373.198 282.646V262.422H373.151V262.474H352.946V282.646H373.198Z" fill="white"/>
<path d="M384.927 171.516H373.203V185.339H384.927V171.516ZM418.975 262.479V233.844H373.177V262.422H373.224V239.651V322.083V282.651H352.972V262.479H327.822L327.838 262.422H282.035L282.02 262.479V282.323H299.58V305.521H373.177V353.057H398.723V332.833H418.975V305.521H440.979V262.479H418.975Z" fill="white"/>
<path d="M282.02 305.516H299.58V281.849H282.02V305.516Z" fill="white"/>
<rect width="241" height="400" transform="translate(482)" fill="white"/>
<path d="M482 400H723V0H482V400Z" fill="black"/>
<path d="M637.49 33.7812H588.996L575.759 79.6354H623.716L637.49 33.7812ZM582.508 216.906H536.173L523.035 262.422H568.838L582.508 216.906ZM603.464 147.161H556.305L536.173 216.906H582.513L603.464 147.161ZM659.975 171.448H625.954V185.339H614.177V199.974H659.975V171.448ZM623.747 79.6354H575.796L569.25 102.302H616.941L623.747 79.6354ZM616.691 102.302H569.005L556.055 147.156H603.214L616.691 102.302ZM659.975 210.823H614.177V233.844H659.975V210.823ZM659.975 199.974H614.177V210.823H659.975V199.974ZM643.358 358.141H663.61V337.917H643.358V358.141ZM614.198 278.646V258.422H614.151V258.474H593.946V278.646H614.198Z" fill="white"/>
<path d="M625.927 171.516H614.203V185.339H625.927V171.516ZM659.975 262.479V233.844H614.177V262.422H614.224V239.651V322.083V282.651H593.972V262.479H568.822L568.838 262.422H523.035L523.02 262.479V282.323H540.58V305.521H614.177V353.057H639.723V332.833H659.975V305.521H681.979V262.479H659.975Z" fill="white"/>
<path d="M520.35 305.516H537.91V281.849H520.35V305.516Z" fill="white"/>
<rect width="241" height="400" transform="translate(723)" fill="white"/>
<path d="M723 400H964V0H723V400Z" fill="black"/>
<path d="M878.49 33.7812H829.996L816.759 79.6354H864.716L878.49 33.7812ZM823.508 216.906H777.173L764.035 262.422H809.838L823.508 216.906ZM844.464 147.161H797.305L777.173 216.906H823.513L844.464 147.161ZM900.975 171.448H866.954V185.339H855.177V199.974H900.975V171.448ZM862.077 79.6354H814.125L807.58 102.302H855.271L862.077 79.6354ZM857.691 102.302H810.005L797.055 147.156H844.214L857.691 102.302ZM900.975 210.823H855.177V233.844H900.975V210.823ZM904.98 199.974H859.182V210.823H904.98V199.974ZM888.363 362.141H908.615V341.917H888.363V362.141ZM855.198 274.646V254.422H855.151V254.474H834.946V274.646H855.198Z" fill="white"/>
<path d="M866.927 171.516H855.203V185.339H866.927V171.516ZM900.975 262.479V233.844H855.177V262.422H855.224V239.651V322.083V282.651H834.972V262.479H809.822L809.838 262.422H764.035L764.02 262.479V282.323H781.58V305.521H855.177V353.057H880.723V332.833H900.975V305.521H922.979V262.479H900.975Z" fill="white"/>
<path d="M757.344 309.516H774.904V285.849H757.344V309.516Z" fill="white"/>
<g clip-path="url(#clip1_455_288)">
<rect width="241" height="400" transform="translate(964)" fill="white"/>
<path d="M964 400H1205V0H964V400Z" fill="black"/>
<path d="M1126.17 33.7812H1077.67L1064.44 79.6354H1112.39L1126.17 33.7812ZM1064.51 216.906H1018.17L1005.04 262.422H1050.84L1064.51 216.906ZM1085.46 147.161H1038.31L1018.17 216.906H1064.51L1085.46 147.161ZM1141.97 171.448H1107.95V185.339H1096.18V199.974H1141.97V171.448ZM1099.07 79.6354H1051.11L1044.57 102.302H1092.27L1099.07 79.6354ZM1094.69 102.302H1047L1034.05 147.156H1081.21L1094.69 102.302ZM1141.97 210.823H1096.18V233.844H1141.97V210.823ZM1148.65 199.974H1102.85V210.823H1148.65V199.974ZM1133.37 366.141H1153.62V345.917H1133.37V366.141ZM1096.2 270.646V250.422H1096.15V250.474H1075.95V270.646H1096.2Z" fill="white"/>
<path d="M1105.26 168.849H1093.53V182.672H1105.26V168.849ZM1141.97 262.479V233.844H1096.18V262.422H1096.22V239.651V322.083V282.651H1075.97V262.479H1050.82L1050.84 262.422H1005.04L1005.02 262.479V282.323H1022.58V305.521H1096.18V353.057H1121.72V332.833H1141.97V305.521H1163.98V262.479H1141.97Z" fill="white"/>
<path d="M998.344 313.516H1015.9V289.849H998.344V313.516Z" fill="white"/>
</g>
<g clip-path="url(#clip2_455_288)">
<rect width="241" height="400" transform="translate(1205)" fill="white"/>
<path d="M1205 400H1446V0H1205V400Z" fill="black"/>
<path d="M1367.17 33.7812H1318.67L1305.44 79.6354H1353.39L1367.17 33.7812ZM1305.51 216.906H1259.17L1246.04 262.422H1291.84L1305.51 216.906ZM1326.46 147.161H1279.31L1259.17 216.906H1305.51L1326.46 147.161ZM1386.98 171.448H1352.96V185.339H1341.18V199.974H1386.98V171.448ZM1336.07 79.6354H1288.11L1281.57 102.302H1329.26L1336.07 79.6354ZM1331.68 102.302H1283.99L1271.04 147.156H1318.2L1331.68 102.302ZM1382.97 210.823H1337.18V233.844H1382.97V210.823ZM1403 199.974H1357.2V210.823H1403V199.974ZM1379.71 371.474H1399.97V351.25H1379.71V371.474ZM1337.2 270.646V250.422H1337.15V250.474H1316.95V270.646H1337.2ZM1343.59 162.182H1331.86V176.005H1343.59V162.182Z" fill="white"/>
<path d="M1382.97 266.479V237.844H1337.18V266.422H1337.22V243.651V326.083V286.651H1316.97V266.479H1291.82L1291.84 266.422H1246.04L1246.02 266.479V286.323H1263.58V309.526H1337.18V357.057H1362.72V336.833H1382.97V309.526H1404.98V266.479H1382.97Z" fill="white"/>
<path d="M1239.34 320.182H1256.9V296.516H1239.34V320.182Z" fill="white"/>
</g>
<g clip-path="url(#clip3_455_288)">
<rect width="241" height="400" transform="translate(1446)" fill="white"/>
<path d="M1446 400H1687V0H1446V400Z" fill="black"/>
<path d="M1608.17 33.7812H1559.67L1546.44 79.6354H1594.39L1608.17 33.7812ZM1546.51 216.906H1500.17L1487.04 262.422H1532.84L1546.51 216.906ZM1567.46 147.161H1520.31L1500.17 216.906H1546.51L1567.46 147.161ZM1641.33 171.448H1607.32V185.339H1595.53V199.974H1641.33V171.448ZM1577.07 79.6354H1529.11L1522.57 102.302H1570.26L1577.07 79.6354ZM1559.33 102.302H1511.64L1498.69 147.156H1545.85L1559.33 102.302ZM1623.97 210.823H1578.18V233.844H1623.97V210.823ZM1653.35 199.974H1607.55V210.823H1653.35V199.974ZM1623.39 378.141H1643.64V357.917H1623.39V378.141ZM1572.86 265.313V245.089H1572.81V245.141H1552.61V265.313H1572.86ZM1584.59 162.182H1572.86V176.005H1584.59V162.182Z" fill="white"/>
<path d="M1623.97 273.146V244.51H1578.18V273.089H1578.22V250.318V332.75V293.318H1557.97V273.146H1532.82L1532.84 273.089H1487.03L1487.02 273.146V292.99H1504.58V316.193H1578.18V363.724H1603.72V343.5H1623.97V316.193H1645.98V273.146H1623.97ZM1476.34 329.521H1493.9V305.849H1476.34V329.521Z" fill="white"/>
</g>
<g clip-path="url(#clip4_455_288)">
<rect width="241" height="400" transform="translate(1687)" fill="white"/>
<path d="M1687 400H1928V0H1687V400Z" fill="black"/>
<path d="M1849.17 27.1146H1800.67L1787.44 72.9687H1835.39L1849.17 27.1146ZM1784.84 216.906H1738.5L1725.37 262.422H1771.17L1784.84 216.906ZM1793.78 147.161H1746.62L1726.49 216.906H1772.82L1793.78 147.161ZM1886.34 164.781H1852.32V178.672H1840.54V193.307H1886.34V164.781ZM1794.03 79.6354H1746.08L1739.54 102.302H1787.22L1794.03 79.6354ZM1765.61 102.302H1717.92L1704.98 147.156H1752.14L1765.61 102.302ZM1864.98 210.823H1819.18V233.844H1864.98V210.823ZM1907.71 199.974H1861.9V210.823H1907.71V199.974ZM1868.39 387.479H1888.64V367.255H1868.39V387.479ZM1809.85 263.979V243.755H1809.81V243.807H1789.6V263.979H1809.85ZM1825.59 151.516H1813.86V165.333H1825.59V151.516Z" fill="white"/>
<path d="M1864.98 278.479V249.844H1819.18V278.422H1819.23V255.656V338.083V298.651H1798.97V278.479H1773.82L1773.84 278.422H1728.04L1728.02 278.479V298.323H1745.58V321.526H1819.18V369.057H1844.72V348.833H1864.98V321.526H1886.98V278.479H1864.98ZM1713.33 333.521H1730.89V309.849H1713.33V333.521Z" fill="white"/>
</g>
<g clip-path="url(#clip5_455_288)">
<rect width="241" height="400" transform="translate(1928)" fill="white"/>
<path d="M1928 400H2169V0H1928V400Z" fill="black"/>
<path d="M2095.51 21.7812H2047.01L2033.78 67.6354H2081.73L2095.51 21.7812ZM2020.5 219.573H1974.16L1961.02 265.094H2006.83L2020.5 219.573ZM2022.76 147.161H1975.6L1955.46 216.906H2001.8L2022.76 147.161ZM2131.34 160.781H2097.33V174.672H2085.55V189.307H2131.34V160.781ZM2029.69 75.6354H1981.74L1975.2 98.3021H2022.88L2029.69 75.6354ZM1995.93 102.302H1948.24L1935.29 147.156H1982.46L1995.93 102.302ZM2113.99 208.156H2068.19V231.177H2113.99V208.156ZM2156.72 197.307H2110.91V208.156H2156.72V197.307ZM2114.73 394.146H2134.98V373.922H2114.73V394.146ZM2050.85 263.979V243.755H2050.8V243.807H2030.6V263.979H2050.85ZM2066.59 151.516H2054.86V165.333H2066.59V151.516ZM2054.88 298.651H2034.63V278.479H2009.48L2009.5 278.427H1963.69L1963.68 278.479V298.323H1981.24V321.526H2054.84M2064.18 326.859V374.391H2089.73V354.167H2109.98V326.859H2131.98V283.813H2109.98V255.177H2064.18V283.76H2064.23V260.99V303.984M1948.99 345.521H1966.55V321.849H1948.99V345.521Z" fill="white"/>
</g>
<rect width="241" height="400" transform="translate(2169)" fill="white"/>
<path d="M2169 400H2410V0H2169V400Z" fill="black"/>
<path d="M2341.85 7.11456H2293.35L2280.12 52.9635H2328.07L2341.85 7.11456ZM2253.49 219.573H2207.15L2194.01 265.094H2239.82L2253.49 219.573ZM2249.07 147.161H2201.91L2181.78 216.906H2228.12L2249.07 147.161ZM2379.02 152.781H2345V166.672H2333.22V181.307H2379.02V152.781ZM2261.35 68.9687H2213.39L2206.85 91.6354H2254.54L2261.35 68.9687ZM2231.59 96.9687H2183.9L2170.95 141.823H2218.11L2231.59 96.9687ZM2369.67 208.156H2323.88V231.177H2369.67V208.156ZM2408.4 197.307H2362.6V208.156H2408.4V197.307ZM2358.4 400H2378.66V379.776H2358.4V400ZM2287.85 255.979V235.755H2287.8V235.807H2267.6V255.979H2287.85ZM2315.6 144.849H2303.87V158.667H2315.6V144.849ZM2285.2 298.651H2264.95V278.479H2239.8L2239.82 278.427H2194.01L2194 278.479V298.323H2211.56V321.526H2285.15M2310.52 336.193V383.724H2336.07V363.5H2356.32V336.193H2378.33V293.146H2356.32V264.51H2310.52V293.094H2310.57V270.323V313.318M2189.99 360.187H2207.55V336.516H2189.99V360.187Z" fill="white"/>
<g clip-path="url(#clip6_455_288)">
<rect width="241" height="400" transform="translate(2410)" fill="white"/>
<path d="M2410 400H2651V0H2410V400Z" fill="black"/>
<path d="M2582.85 7.11456H2534.35L2521.12 52.9635H2569.07L2582.85 7.11456ZM2494.49 219.573H2448.15L2435.01 265.094H2480.82L2494.49 219.573ZM2490.07 147.161H2442.91L2422.78 216.906H2469.12L2490.07 147.161ZM2620.02 152.781H2586V166.672H2574.22V181.307H2620.02V152.781ZM2502.35 68.9687H2454.39L2447.85 91.6354H2495.53L2502.35 68.9687ZM2472.59 96.9687H2424.9L2411.95 141.823H2459.11L2472.59 96.9687ZM2610.67 208.156H2564.88V231.177H2610.67V208.156ZM2649.4 197.307H2603.6V208.156H2649.4V197.307ZM2599.4 400H2619.65V379.776H2599.4V400ZM2528.85 255.979V235.755H2528.8V235.807H2508.59V255.979H2528.85ZM2556.6 144.849H2544.87V158.667H2556.6V144.849ZM2526.2 298.651H2505.95V278.479H2480.8L2480.82 278.427H2435.01L2435 278.479V298.323H2452.56V321.526H2526.15M2551.52 336.193V383.724H2577.07V363.5H2597.32V336.193H2619.33V293.146H2597.32V264.51H2551.52V293.094H2551.57V270.323V313.318M2430.99 360.187H2448.55V336.516H2430.99V360.187Z" fill="white"/>
</g>
<rect width="241" height="400" transform="translate(2651)" fill="white"/>
<path d="M2651 400H2892V0H2651V400Z" fill="black"/>
<path d="M2818.51 21.7812H2770.01L2756.78 67.6354H2804.73L2818.51 21.7812ZM2743.5 219.573H2697.16L2684.02 265.094H2729.83L2743.5 219.573ZM2745.76 147.161H2698.6L2678.46 216.906H2724.8L2745.76 147.161ZM2854.34 160.781H2820.33V174.672H2808.55V189.307H2854.34V160.781ZM2752.69 75.6354H2704.74L2698.2 98.3021H2745.88L2752.69 75.6354ZM2718.93 102.302H2671.24L2658.29 147.156H2705.46L2718.93 102.302ZM2836.99 208.156H2791.19V231.177H2836.99V208.156ZM2879.72 197.307H2833.91V208.156H2879.72V197.307ZM2837.73 394.146H2857.98V373.922H2837.73V394.146ZM2773.85 263.979V243.755H2773.8V243.807H2753.6V263.979H2773.85ZM2789.59 151.516H2777.86V165.333H2789.59V151.516ZM2777.88 298.651H2757.63V278.479H2732.48L2732.5 278.427H2686.69L2686.68 278.479V298.323H2704.24V321.526H2777.84M2787.18 326.859V374.391H2812.73V354.167H2832.98V326.859H2854.98V283.813H2832.98V255.177H2787.18V283.76H2787.23V260.99V303.984M2671.99 345.521H2689.55V321.849H2671.99V345.521Z" fill="white"/>
<g clip-path="url(#clip7_455_288)">
<rect width="241" height="400" transform="translate(2892)" fill="white"/>
<path d="M2892 400H3133V0H2892V400Z" fill="black"/>
<path d="M3054.17 27.1146H3005.67L2992.44 72.9687H3040.39L3054.17 27.1146ZM2989.84 216.906H2943.5L2930.37 262.422H2976.17L2989.84 216.906ZM2998.78 147.161H2951.62L2931.49 216.906H2977.82L2998.78 147.161ZM3091.34 164.781H3057.32V178.672H3045.54V193.307H3091.34V164.781ZM2999.03 79.6354H2951.08L2944.54 102.302H2992.22L2999.03 79.6354ZM2970.61 102.302H2922.92L2909.98 147.156H2957.14L2970.61 102.302ZM3069.97 210.823H3024.18V233.844H3069.97V210.823ZM3112.71 199.974H3066.9V210.823H3112.71V199.974ZM3073.39 387.479H3093.64V367.255H3073.39V387.479ZM3014.85 263.979V243.755H3014.8V243.807H2994.6V263.979H3014.85ZM3030.59 151.516H3018.86V165.333H3030.59V151.516Z" fill="white"/>
<path d="M3069.98 278.479V249.844H3024.18V278.422H3024.22V255.656V338.083V298.651H3003.97V278.479H2978.82L2978.84 278.422H2933.04L2933.02 278.479V298.323H2950.58V321.526H3024.18V369.057H3049.72V348.833H3069.98V321.526H3091.98V278.479H3069.98ZM2918.33 333.521H2935.89V309.849H2918.33V333.521Z" fill="white"/>
</g>
<g clip-path="url(#clip8_455_288)">
<rect width="241" height="400" transform="translate(3133)" fill="white"/>
<path d="M3133 400H3374V0H3133V400Z" fill="black"/>
<path d="M3295.17 33.7812H3246.67L3233.44 79.6354H3281.39L3295.17 33.7812ZM3233.51 216.906H3187.17L3174.04 262.422H3219.84L3233.51 216.906ZM3254.47 147.161H3207.31L3187.17 216.906H3233.51L3254.47 147.161ZM3328.33 171.448H3294.32V185.339H3282.54V199.974H3328.33V171.448ZM3264.07 79.6354H3216.11L3209.57 102.302H3257.26L3264.07 79.6354ZM3246.33 102.302H3198.64L3185.69 147.156H3232.85L3246.33 102.302ZM3310.98 210.823H3265.18V233.844H3310.98V210.823ZM3340.35 199.974H3294.55V210.823H3340.35V199.974ZM3310.39 378.141H3330.64V357.917H3310.39V378.141ZM3259.86 265.313V245.089H3259.81V245.141H3239.61V265.313H3259.86ZM3271.59 162.182H3259.86V176.005H3271.59V162.182Z" fill="white"/>
<path d="M3310.98 273.146V244.51H3265.18V273.089H3265.22V250.318V332.75V293.318H3244.97V273.146H3219.82L3219.84 273.089H3174.04L3174.02 273.146V292.99H3191.58V316.193H3265.18V363.724H3290.72V343.5H3310.98V316.193H3332.98V273.146H3310.98ZM3163.34 329.521H3180.9V305.849H3163.34V329.521Z" fill="white"/>
</g>
<g clip-path="url(#clip9_455_288)">
<rect width="241" height="400" transform="translate(3374)" fill="white"/>
<path d="M3374 400H3615V0H3374V400Z" fill="black"/>
<path d="M3536.17 33.7812H3487.67L3474.44 79.6354H3522.39L3536.17 33.7812ZM3474.51 216.906H3428.17L3415.04 262.422H3460.84L3474.51 216.906ZM3495.47 147.161H3448.31L3428.17 216.906H3474.51L3495.47 147.161ZM3555.98 171.448H3521.96V185.339H3510.18V199.974H3555.98V171.448ZM3505.07 79.6354H3457.11L3450.57 102.302H3498.26L3505.07 79.6354ZM3500.68 102.302H3452.99L3440.04 147.156H3487.2L3500.68 102.302ZM3551.98 210.823H3506.18V233.844H3551.98V210.823ZM3572 199.974H3526.21V210.823H3572V199.974ZM3548.72 371.474H3568.97V351.25H3548.72V371.474ZM3506.2 270.646V250.422H3506.15V250.474H3485.95V270.646H3506.2ZM3512.59 162.182H3500.86V176.005H3512.59V162.182Z" fill="white"/>
<path d="M3551.98 266.479V237.844H3506.18V266.422H3506.22V243.651V326.083V286.651H3485.97V266.479H3460.82L3460.84 266.422H3415.04L3415.02 266.479V286.323H3432.58V309.526H3506.18V357.057H3531.72V336.833H3551.98V309.526H3573.98V266.479H3551.98Z" fill="white"/>
<path d="M3408.34 320.182H3425.91V296.516H3408.34V320.182Z" fill="white"/>
</g>
<rect width="241" height="400" transform="translate(3615)" fill="white"/>
<path d="M3615 400H3856V0H3615V400Z" fill="black"/>
<path d="M3777.17 33.7812H3728.67L3715.44 79.6354H3763.39L3777.17 33.7812ZM3715.51 216.906H3669.17L3656.04 262.422H3701.84L3715.51 216.906ZM3736.47 147.161H3689.31L3669.17 216.906H3715.51L3736.47 147.161ZM3792.98 171.448H3758.95V185.339H3747.18V199.974H3792.98V171.448ZM3750.07 79.6354H3702.12L3695.58 102.302H3743.27L3750.07 79.6354ZM3745.69 102.302H3698L3685.05 147.156H3732.21L3745.69 102.302ZM3792.98 210.823H3747.18V233.844H3792.98V210.823ZM3799.65 199.974H3753.85V210.823H3799.65V199.974ZM3784.37 366.141H3804.62V345.917H3784.37V366.141ZM3747.2 270.646V250.422H3747.15V250.474H3726.95V270.646H3747.2Z" fill="white"/>
<path d="M3756.26 168.849H3744.53V182.672H3756.26V168.849ZM3792.98 262.479V233.844H3747.18V262.422H3747.22V239.651V322.083V282.651H3726.97V262.479H3701.82L3701.84 262.422H3656.04L3656.02 262.479V282.323H3673.58V305.521H3747.18V353.057H3772.72V332.833H3792.98V305.521H3814.98V262.479H3792.98Z" fill="white"/>
<path d="M3649.34 313.516H3666.91V289.849H3649.34V313.516Z" fill="white"/>
<g clip-path="url(#clip10_455_288)">
<rect width="241" height="400" transform="translate(3856)" fill="white"/>
<path d="M3856 400H4097V0H3856V400Z" fill="black"/>
<path d="M4011.49 33.7812H3963L3949.76 79.6354H3997.72L4011.49 33.7812ZM3956.51 216.906H3910.17L3897.04 262.422H3942.84L3956.51 216.906ZM3977.47 147.161H3930.31L3910.17 216.906H3956.51L3977.47 147.161ZM4033.98 171.448H3999.95V185.339H3988.18V199.974H4033.98V171.448ZM3995.08 79.6354H3947.13L3940.58 102.302H3988.27L3995.08 79.6354ZM3990.69 102.302H3943.01L3930.06 147.156H3977.21L3990.69 102.302ZM4033.98 210.823H3988.18V233.844H4033.98V210.823ZM4037.98 199.974H3992.18V210.823H4037.98V199.974ZM4021.36 362.141H4041.62V341.917H4021.36V362.141ZM3988.2 274.646V254.422H3988.15V254.474H3967.95V274.646H3988.2Z" fill="white"/>
<path d="M3999.93 171.516H3988.2V185.339H3999.93V171.516ZM4033.98 262.479V233.844H3988.18V262.422H3988.22V239.651V322.083V282.651H3967.97V262.479H3942.82L3942.84 262.422H3897.04L3897.02 262.479V282.323H3914.58V305.521H3988.18V353.057H4013.72V332.833H4033.98V305.521H4055.98V262.479H4033.98Z" fill="white"/>
<path d="M3890.34 309.516H3907.91V285.849H3890.34V309.516Z" fill="white"/>
</g>
<g clip-path="url(#clip11_455_288)">
<rect width="241" height="400" transform="translate(4097)" fill="white"/>
<path d="M4097 400H4338V0H4097V400Z" fill="black"/>
<path d="M4252.49 33.7812H4204L4190.76 79.6354H4238.72L4252.49 33.7812ZM4197.51 216.906H4151.17L4138.04 262.422H4183.84L4197.51 216.906ZM4218.47 147.161H4171.31L4151.17 216.906H4197.51L4218.47 147.161ZM4274.98 171.448H4240.95V185.339H4229.18V199.974H4274.98V171.448ZM4238.75 79.6354H4190.8L4184.25 102.302H4231.94L4238.75 79.6354ZM4231.69 102.302H4184.01L4171.06 147.156H4218.21L4231.69 102.302ZM4274.98 210.823H4229.18V233.844H4274.98V210.823ZM4274.98 199.974H4229.18V210.823H4274.98V199.974ZM4258.36 358.141H4278.61V337.917H4258.36V358.141ZM4229.2 278.646V258.422H4229.15V258.474H4208.95V278.646H4229.2Z" fill="white"/>
<path d="M4240.93 171.516H4229.2V185.339H4240.93V171.516ZM4274.98 262.479V233.844H4229.18V262.422H4229.22V239.651V322.083V282.651H4208.97V262.479H4183.82L4183.84 262.422H4138.04L4138.02 262.479V282.323H4155.58V305.521H4229.18V353.057H4254.72V332.833H4274.98V305.521H4296.98V262.479H4274.98Z" fill="white"/>
<path d="M4135.35 305.516H4152.91V281.849H4135.35V305.516Z" fill="white"/>
</g>
<g clip-path="url(#clip12_455_288)">
<rect width="241" height="400" transform="translate(4338)" fill="white"/>
<path d="M4338 400H4579V0H4338V400Z" fill="black"/>
<path d="M4493.49 33.7812H4445L4431.76 79.6354H4479.72L4493.49 33.7812ZM4438.51 216.906H4392.17L4379.04 262.422H4424.84L4438.51 216.906ZM4459.47 147.161H4412.31L4392.17 216.906H4438.51L4459.47 147.161ZM4515.98 171.448H4481.95V185.339H4470.18V199.974H4515.98V171.448ZM4479.75 79.6354H4431.8L4425.25 102.302H4472.94L4479.75 79.6354ZM4472.69 102.302H4425.01L4412.06 147.156H4459.21L4472.69 102.302ZM4515.98 210.823H4470.18V233.844H4515.98V210.823ZM4515.98 199.974H4470.18V210.823H4515.98V199.974ZM4499.36 358.141H4519.61V337.917H4499.36V358.141ZM4470.2 282.646V262.422H4470.15V262.474H4449.95V282.646H4470.2Z" fill="white"/>
<path d="M4481.93 171.516H4470.2V185.339H4481.93V171.516ZM4515.98 262.479V233.844H4470.18V262.422H4470.22V239.651V322.083V282.651H4449.97V262.479H4424.82L4424.84 262.422H4379.04L4379.02 262.479V282.323H4396.58V305.521H4470.18V353.057H4495.72V332.833H4515.98V305.521H4537.98V262.479H4515.98Z" fill="white"/>
<path d="M4379.02 305.516H4396.58V281.849H4379.02V305.516Z" fill="white"/>
</g>
<defs>
<clipPath id="clip0_455_288">
<rect width="241" height="400" fill="white"/>
</clipPath>
<clipPath id="clip1_455_288">
<rect width="241" height="400" fill="white" transform="translate(964)"/>
</clipPath>
<clipPath id="clip2_455_288">
<rect width="241" height="400" fill="white" transform="translate(1205)"/>
</clipPath>
<clipPath id="clip3_455_288">
<rect width="241" height="400" fill="white" transform="translate(1446)"/>
</clipPath>
<clipPath id="clip4_455_288">
<rect width="241" height="400" fill="white" transform="translate(1687)"/>
</clipPath>
<clipPath id="clip5_455_288">
<rect width="241" height="400" fill="white" transform="translate(1928)"/>
</clipPath>
<clipPath id="clip6_455_288">
<rect width="241" height="400" fill="white" transform="translate(2410)"/>
</clipPath>
<clipPath id="clip7_455_288">
<rect width="241" height="400" fill="white" transform="translate(2892)"/>
</clipPath>
<clipPath id="clip8_455_288">
<rect width="241" height="400" fill="white" transform="translate(3133)"/>
</clipPath>
<clipPath id="clip9_455_288">
<rect width="241" height="400" fill="white" transform="translate(3374)"/>
</clipPath>
<clipPath id="clip10_455_288">
<rect width="241" height="400" fill="white" transform="translate(3856)"/>
</clipPath>
<clipPath id="clip11_455_288">
<rect width="241" height="400" fill="white" transform="translate(4097)"/>
</clipPath>
<clipPath id="clip12_455_288">
<rect width="241" height="400" fill="white" transform="translate(4338)"/>
</clipPath>
</defs>
</svg>
