<svg width="4814" height="400" viewBox="0 0 4814 400" fill="none" xmlns="http://www.w3.org/2000/svg">
<g clip-path="url(#clip0_450_133)">
<rect width="240.667" height="400" fill="white"/>
<path d="M0 400H240.667V0H0V400Z" fill="black"/>
<path d="M155.275 33.7812H106.848L93.6296 79.6354H141.52L155.275 33.7812ZM100.369 216.906H54.0983L40.9785 262.422H86.7181L100.369 216.906ZM121.296 147.161H74.2025L54.0983 216.906H100.374L121.296 147.161ZM177.729 171.448H143.755V185.339H131.994V199.974H177.729V171.448ZM141.551 79.6354H93.666L87.1296 102.302H134.755L141.551 79.6354ZM134.505 102.302H86.8848L73.9525 147.156H121.046L134.505 102.302ZM177.729 210.823H131.994V233.844H177.729V210.823ZM177.729 199.974H131.994V210.823H177.729V199.974ZM157.505 353.057H177.729V332.833H157.505V353.057ZM132.015 282.646V262.422H131.968V262.474H111.791V282.646H132.015Z" fill="white"/>
<path d="M143.729 171.516H132.02V185.339H143.729V171.516ZM177.729 262.479V233.844H131.994V262.422H132.041V239.651V322.083V282.651H111.817V262.479H86.7025L86.7181 262.422H40.9785L40.9629 262.479V282.323H58.4993V305.521H131.994V353.057H157.505V332.833H177.729V305.521H199.702V262.479H177.729Z" fill="white"/>
<path d="M40.9629 305.516H58.4993V281.849H40.9629V305.516Z" fill="white"/>
</g>
<g clip-path="url(#clip1_450_133)">
<rect width="240.667" height="400" transform="translate(240.666)" fill="white"/>
<path d="M240.666 400H481.333V0H240.666V400Z" fill="black"/>
<path d="M395.941 33.7812H347.514L334.296 79.6354H382.186L395.941 33.7812ZM341.035 216.906H294.764L281.645 262.422H327.384L341.035 216.906ZM361.962 147.161H314.868L294.764 216.906H341.04L361.962 147.161ZM418.395 171.448H384.421V185.339H372.66V199.974H418.395V171.448ZM382.217 79.6354H334.332L327.796 102.302H375.421L382.217 79.6354ZM375.171 102.302H327.551L314.618 147.156H361.712L375.171 102.302ZM418.395 210.823H372.66V233.844H418.395V210.823ZM418.395 199.974H372.66V210.823H418.395V199.974ZM401.801 358.141H422.025V337.917H401.801V358.141ZM372.681 282.646V262.422H372.634V262.474H352.457V282.646H372.681Z" fill="white"/>
<path d="M384.395 171.516H372.686V185.339H384.395V171.516ZM418.395 262.479V233.844H372.66V262.422H372.707V239.651V322.083V282.651H352.483V262.479H327.368L327.384 262.422H281.645L281.629 262.479V282.323H299.165V305.521H372.66V353.057H398.171V332.833H418.395V305.521H440.368V262.479H418.395Z" fill="white"/>
<path d="M281.629 305.516H299.165V281.849H281.629V305.516Z" fill="white"/>
</g>
<g clip-path="url(#clip2_450_133)">
<rect width="240.667" height="400" transform="translate(481.332)" fill="white"/>
<path d="M481.332 400H721.999V0H481.332V400Z" fill="black"/>
<path d="M636.607 33.7812H588.18L574.962 79.6354H622.852L636.607 33.7812ZM581.701 216.906H535.43L522.311 262.422H568.05L581.701 216.906ZM602.628 147.161H555.535L535.43 216.906H581.706L602.628 147.161ZM659.061 171.448H625.087V185.339H613.326V199.974H659.061V171.448ZM622.883 79.6354H574.998L568.462 102.302H616.087L622.883 79.6354ZM615.837 102.302H568.217L555.285 147.156H602.378L615.837 102.302ZM659.061 210.823H613.326V233.844H659.061V210.823ZM659.061 199.974H613.326V210.823H659.061V199.974ZM642.467 358.141H662.691V337.917H642.467V358.141ZM613.347 278.646V258.422H613.3V258.474H593.123V278.646H613.347Z" fill="white"/>
<path d="M625.061 171.516H613.352V185.339H625.061V171.516ZM659.061 262.479V233.844H613.326V262.422H613.373V239.651V322.083V282.651H593.149V262.479H568.035L568.05 262.422H522.311L522.295 262.479V282.323H539.831V305.521H613.326V353.057H638.837V332.833H659.061V305.521H681.035V262.479H659.061Z" fill="white"/>
<path d="M519.629 305.516H537.165V281.849H519.629V305.516Z" fill="white"/>
</g>
<g clip-path="url(#clip3_450_133)">
<rect width="240.667" height="400" transform="translate(721.998)" fill="white"/>
<path d="M721.998 400H962.665V0H721.998V400Z" fill="black"/>
<path d="M877.273 33.7812H828.846L815.628 79.6354H863.518L877.273 33.7812ZM822.367 216.906H776.096L762.977 262.422H808.716L822.367 216.906ZM843.294 147.161H796.201L776.096 216.906H822.372L843.294 147.161ZM899.727 171.448H865.753V185.339H853.992V199.974H899.727V171.448ZM860.883 79.6354H812.997L806.461 102.302H854.086L860.883 79.6354ZM856.503 102.302H808.883L795.951 147.156H843.044L856.503 102.302ZM899.727 210.823H853.992V233.844H899.727V210.823ZM903.727 199.974H857.992V210.823H903.727V199.974ZM887.133 362.141H907.357V341.917H887.133V362.141ZM854.013 274.646V254.422H853.966V254.474H833.789V274.646H854.013Z" fill="white"/>
<path d="M865.727 171.516H854.018V185.339H865.727V171.516ZM899.727 262.479V233.844H853.992V262.422H854.039V239.651V322.083V282.651H833.815V262.479H808.701L808.716 262.422H762.977L762.961 262.479V282.323H780.497V305.521H853.992V353.057H879.503V332.833H899.727V305.521H921.701V262.479H899.727Z" fill="white"/>
<path d="M756.295 309.516H773.831V285.849H756.295V309.516Z" fill="white"/>
</g>
<g clip-path="url(#clip4_450_133)">
<rect width="240.667" height="400" transform="translate(962)" fill="white"/>
<path d="M962 400H1202.67V0H962V400Z" fill="black"/>
<path d="M1123.94 33.7812H1075.51L1062.3 79.6354H1110.19L1123.94 33.7812ZM1062.37 216.906H1016.1L1002.98 262.422H1048.72L1062.37 216.906ZM1083.3 147.161H1036.2L1016.1 216.906H1062.37L1083.3 147.161ZM1139.73 171.448H1105.75V185.339H1093.99V199.974H1139.73V171.448ZM1096.88 79.6354H1048.99L1042.46 102.302H1090.09L1096.88 79.6354ZM1092.5 102.302H1044.88L1031.95 147.156H1079.05L1092.5 102.302ZM1139.73 210.823H1093.99V233.844H1139.73V210.823ZM1146.4 199.974H1100.66V210.823H1146.4V199.974ZM1131.13 366.141H1151.36V345.917H1131.13V366.141ZM1094.01 270.646V250.422H1093.97V250.474H1073.79V270.646H1094.01Z" fill="white"/>
<path d="M1103.06 168.849H1091.35V182.672H1103.06V168.849ZM1139.73 262.479V233.844H1093.99V262.422H1094.04V239.651V322.083V282.651H1073.82V262.479H1048.7L1048.72 262.422H1002.98L1002.96 262.479V282.323H1020.5V305.521H1093.99V353.057H1119.5V332.833H1139.73V305.521H1161.7V262.479H1139.73Z" fill="white"/>
<path d="M996.297 313.516H1013.83V289.849H996.297V313.516Z" fill="white"/>
</g>
<g clip-path="url(#clip5_450_133)">
<rect width="240.667" height="400" transform="translate(1202)" fill="white"/>
<path d="M1202 400H1442.67V0H1202V400Z" fill="black"/>
<path d="M1363.94 33.7812H1315.51L1302.3 79.6354H1350.19L1363.94 33.7812ZM1302.37 216.906H1256.1L1242.98 262.422H1288.72L1302.37 216.906ZM1323.3 147.161H1276.2L1256.1 216.906H1302.37L1323.3 147.161ZM1383.73 171.448H1349.75V185.339H1337.99V199.974H1383.73V171.448ZM1332.88 79.6354H1284.99L1278.46 102.302H1326.09L1332.88 79.6354ZM1328.5 102.302H1280.88L1267.95 147.156H1315.05L1328.5 102.302ZM1379.73 210.823H1333.99V233.844H1379.73V210.823ZM1399.73 199.974H1353.99V210.823H1399.73V199.974ZM1376.47 371.474H1396.7V351.25H1376.47V371.474ZM1334.01 270.646V250.422H1333.97V250.474H1313.79V270.646H1334.01ZM1340.4 162.182H1328.69V176.005H1340.4V162.182Z" fill="white"/>
<path d="M1379.73 266.479V237.844H1333.99V266.422H1334.04V243.651V326.083V286.651H1313.82V266.479H1288.7L1288.72 266.422H1242.98L1242.96 266.479V286.323H1260.5V309.526H1333.99V357.057H1359.5V336.833H1379.73V309.526H1401.7V266.479H1379.73Z" fill="white"/>
<path d="M1236.3 320.182H1253.83V296.516H1236.3V320.182Z" fill="white"/>
</g>
<g clip-path="url(#clip6_450_133)">
<rect width="240.667" height="400" transform="translate(1442.67)" fill="white"/>
<path d="M1442.67 400H1683.33V0H1442.67V400Z" fill="black"/>
<path d="M1604.61 33.7812H1556.18L1542.96 79.6354H1590.85L1604.61 33.7812ZM1543.04 216.906H1496.76L1483.64 262.422H1529.38L1543.04 216.906ZM1563.96 147.161H1516.87L1496.76 216.906H1543.04L1563.96 147.161ZM1637.73 171.448H1603.76V185.339H1591.99V199.974H1637.73V171.448ZM1573.55 79.6354H1525.66L1519.13 102.302H1566.75L1573.55 79.6354ZM1555.84 102.302H1508.21L1495.29 147.156H1542.38L1555.84 102.302ZM1620.39 210.823H1574.66V233.844H1620.39V210.823ZM1649.73 199.974H1603.99V210.823H1649.73V199.974ZM1619.81 378.141H1640.03V357.917H1619.81V378.141ZM1569.35 265.313V245.089H1569.3V245.141H1549.12V265.313H1569.35ZM1581.06 162.182H1569.35V176.005H1581.06V162.182Z" fill="white"/>
<path d="M1620.4 273.146V244.51H1574.66V273.089H1574.71V250.318V332.75V293.318H1554.48V273.146H1529.37L1529.38 273.089H1483.65L1483.63 273.146V292.99H1501.17V316.193H1574.66V363.724H1600.17V343.5H1620.4V316.193H1642.37V273.146H1620.4ZM1472.96 329.521H1490.5V305.849H1472.96V329.521Z" fill="white"/>
</g>
<g clip-path="url(#clip7_450_133)">
<rect width="240.667" height="400" transform="translate(1683.33)" fill="white"/>
<path d="M1683.33 400H1924V0H1683.33V400Z" fill="black"/>
<path d="M1845.27 27.1146H1796.85L1783.63 72.9687H1831.52L1845.27 27.1146ZM1781.04 216.906H1734.76L1721.64 262.422H1767.38L1781.04 216.906ZM1789.96 147.161H1742.87L1722.76 216.906H1769.04L1789.96 147.161ZM1882.39 164.781H1848.43V178.672H1836.66V193.307H1882.39V164.781ZM1790.22 79.6354H1742.33L1735.8 102.302H1783.42L1790.22 79.6354ZM1761.83 102.302H1714.21L1701.29 147.156H1748.38L1761.83 102.302ZM1861.06 210.823H1815.33V233.844H1861.06V210.823ZM1903.73 199.974H1857.99V210.823H1903.73V199.974ZM1864.47 387.479H1884.7V367.255H1864.47V387.479ZM1806.01 263.979V243.755H1805.97V243.807H1785.79V263.979H1806.01ZM1821.73 151.516H1810.02V165.333H1821.73V151.516Z" fill="white"/>
<path d="M1861.06 278.479V249.844H1815.33V278.422H1815.37V255.656V338.083V298.651H1795.15V278.479H1770.04L1770.05 278.422H1724.31L1724.3 278.479V298.323H1741.83V321.526H1815.33V369.057H1840.84V348.833H1861.06V321.526H1883.04V278.479H1861.06ZM1709.63 333.521H1727.17V309.849H1709.63V333.521Z" fill="white"/>
</g>
<g clip-path="url(#clip8_450_133)">
<rect width="240.667" height="400" transform="translate(1924)" fill="white"/>
<path d="M1924 400H2164.66V0H1924V400Z" fill="black"/>
<path d="M2091.27 21.7812H2042.85L2029.63 67.6354H2077.52L2091.27 21.7812ZM2016.37 219.573H1970.1L1956.98 265.094H2002.72L2016.37 219.573ZM2018.63 147.161H1971.53L1951.43 216.906H1997.7L2018.63 147.161ZM2127.06 160.781H2093.09V174.672H2081.33V189.307H2127.06V160.781ZM2025.55 75.6354H1977.66L1971.13 98.3021H2018.75L2025.55 75.6354ZM1991.83 102.302H1944.21L1931.28 147.156H1978.38L1991.83 102.302ZM2109.73 208.156H2063.99V231.177H2109.73V208.156ZM2152.4 197.307H2106.66V208.156H2152.4V197.307ZM2110.47 394.146H2130.7V373.922H2110.47V394.146ZM2046.68 263.979V243.755H2046.63V243.807H2026.46V263.979H2046.68ZM2062.39 151.516H2050.69V165.333H2062.39V151.516ZM2050.71 298.651H2030.48V278.479H2005.37L2005.38 278.427H1959.64L1959.63 278.479V298.323H1977.16V321.526H2050.66M2059.99 326.859V374.391H2085.5V354.167H2105.73V326.859H2127.7V283.813H2105.73V255.177H2059.99V283.76H2060.04V260.99V303.984M1944.96 345.521H1962.5V321.849H1944.96V345.521Z" fill="white"/>
</g>
<g clip-path="url(#clip9_450_133)">
<rect width="240.667" height="400" transform="translate(2164.66)" fill="white"/>
<path d="M2164.66 400H2405.33V0H2164.66V400Z" fill="black"/>
<path d="M2337.27 7.11456H2288.85L2275.63 52.9635H2323.52L2337.27 7.11456ZM2249.03 219.573H2202.76L2189.64 265.094H2235.38L2249.03 219.573ZM2244.62 147.161H2197.53L2177.42 216.906H2223.7L2244.62 147.161ZM2374.39 152.781H2340.42V166.672H2328.66V181.307H2374.39V152.781ZM2256.88 68.9687H2208.99L2202.46 91.6354H2250.08L2256.88 68.9687ZM2227.16 96.9687H2179.54L2166.61 141.823H2213.71L2227.16 96.9687ZM2365.06 208.156H2319.32V231.177H2365.06V208.156ZM2403.73 197.307H2357.99V208.156H2403.73V197.307ZM2353.8 400H2374.03V379.776H2353.8V400ZM2283.35 255.979V235.755H2283.3V235.807H2263.12V255.979H2283.35ZM2311.06 144.849H2299.35V158.667H2311.06V144.849ZM2280.71 298.651H2260.48V278.479H2235.37L2235.38 278.427H2189.64L2189.63 278.479V298.323H2207.16V321.526H2280.65M2305.99 336.193V383.724H2331.5V363.5H2351.73V336.193H2373.7V293.146H2351.73V264.51H2305.99V293.094H2306.04V270.323V313.318M2185.63 360.187H2203.16V336.516H2185.63V360.187Z" fill="white"/>
</g>
<g clip-path="url(#clip10_450_133)">
<rect width="240.667" height="400" transform="translate(2405.67)" fill="white"/>
<path d="M2405.67 400H2646.34V0H2405.67V400Z" fill="black"/>
<path d="M2578.28 7.11456H2529.85L2516.63 52.9635H2564.52L2578.28 7.11456ZM2490.04 219.573H2443.76L2430.65 265.094H2476.39L2490.04 219.573ZM2485.63 147.161H2438.53L2418.43 216.906H2464.71L2485.63 147.161ZM2615.4 152.781H2581.43V166.672H2569.67V181.307H2615.4V152.781ZM2497.89 68.9687H2450L2443.47 91.6354H2491.09L2497.89 68.9687ZM2468.17 96.9687H2420.55L2407.62 141.823H2454.71L2468.17 96.9687ZM2606.07 208.156H2560.33V231.177H2606.07V208.156ZM2644.74 197.307H2599V208.156H2644.74V197.307ZM2594.81 400H2615.03V379.776H2594.81V400ZM2524.35 255.979V235.755H2524.31V235.807H2504.13V255.979H2524.35ZM2552.07 144.849H2540.36V158.667H2552.07V144.849ZM2521.71 298.651H2501.49V278.479H2476.37L2476.39 278.427H2430.65L2430.63 278.479V298.323H2448.17V321.526H2521.66M2547 336.193V383.724H2572.51V363.5H2592.73V336.193H2614.71V293.146H2592.73V264.51H2547V293.094H2547.05V270.323V313.318M2426.63 360.187H2444.17V336.516H2426.63V360.187Z" fill="white"/>
</g>
<g clip-path="url(#clip11_450_133)">
<rect width="240.667" height="400" transform="translate(2646.34)" fill="white"/>
<path d="M2646.34 400H2887V0H2646.34V400Z" fill="black"/>
<path d="M2813.61 21.7812H2765.18L2751.97 67.6354H2799.86L2813.61 21.7812ZM2738.71 219.573H2692.43L2679.32 265.094H2725.05L2738.71 219.573ZM2740.97 147.161H2693.87L2673.76 216.906H2720.04L2740.97 147.161ZM2849.4 160.781H2815.43V174.672H2803.66V189.307H2849.4V160.781ZM2747.89 75.6354H2700L2693.47 98.3021H2741.09L2747.89 75.6354ZM2714.17 102.302H2666.55L2653.62 147.156H2700.72L2714.17 102.302ZM2832.07 208.156H2786.33V231.177H2832.07V208.156ZM2874.74 197.307H2829V208.156H2874.74V197.307ZM2832.81 394.146H2853.03V373.922H2832.81V394.146ZM2769.02 263.979V243.755H2768.97V243.807H2748.79V263.979H2769.02ZM2784.73 151.516H2773.02V165.333H2784.73V151.516ZM2773.04 298.651H2752.82V278.479H2727.71L2727.72 278.427H2681.98L2681.97 278.479V298.323H2699.5V321.526H2773M2782.33 326.859V374.391H2807.84V354.167H2828.07V326.859H2850.04V283.813H2828.07V255.177H2782.33V283.76H2782.38V260.99V303.984M2667.3 345.521H2684.84V321.849H2667.3V345.521Z" fill="white"/>
</g>
<g clip-path="url(#clip12_450_133)">
<rect width="240.667" height="400" transform="translate(2887)" fill="white"/>
<path d="M2887 400H3127.67V0H2887V400Z" fill="black"/>
<path d="M3048.94 27.1146H3000.52L2987.3 72.9687H3035.19L3048.94 27.1146ZM2984.71 216.906H2938.43L2925.31 262.422H2971.05L2984.71 216.906ZM2993.63 147.161H2946.54L2926.43 216.906H2972.71L2993.63 147.161ZM3086.06 164.781H3052.1V178.672H3040.33V193.307H3086.06V164.781ZM2993.89 79.6354H2946L2939.47 102.302H2987.09L2993.89 79.6354ZM2965.5 102.302H2917.88L2904.96 147.156H2952.05L2965.5 102.302ZM3064.73 210.823H3019V233.844H3064.73V210.823ZM3107.4 199.974H3061.66V210.823H3107.4V199.974ZM3068.14 387.479H3088.37V367.255H3068.14V387.479ZM3009.68 263.979V243.755H3009.64V243.807H2989.46V263.979H3009.68ZM3025.4 151.516H3013.69V165.333H3025.4V151.516Z" fill="white"/>
<path d="M3064.73 278.479V249.844H3019V278.422H3019.04V255.656V338.083V298.651H2998.82V278.479H2973.71L2973.72 278.422H2927.98L2927.97 278.479V298.323H2945.5V321.526H3019V369.057H3044.51V348.833H3064.73V321.526H3086.71V278.479H3064.73ZM2913.3 333.521H2930.84V309.849H2913.3V333.521Z" fill="white"/>
</g>
<g clip-path="url(#clip13_450_133)">
<rect width="240.667" height="400" transform="translate(3127.67)" fill="white"/>
<path d="M3127.67 400H3368.33V0H3127.67V400Z" fill="black"/>
<path d="M3289.61 33.7812H3241.18L3227.97 79.6354H3275.86L3289.61 33.7812ZM3228.04 216.906H3181.77L3168.65 262.422H3214.39L3228.04 216.906ZM3248.97 147.161H3201.87L3181.77 216.906H3228.04L3248.97 147.161ZM3322.73 171.448H3288.76V185.339H3277V199.974H3322.73V171.448ZM3258.55 79.6354H3210.66L3204.13 102.302H3251.76L3258.55 79.6354ZM3240.84 102.302H3193.22L3180.29 147.156H3227.38L3240.84 102.302ZM3305.4 210.823H3259.66V233.844H3305.4V210.823ZM3334.73 199.974H3289V210.823H3334.73V199.974ZM3304.81 378.141H3325.03V357.917H3304.81V378.141ZM3254.35 265.313V245.089H3254.3V245.141H3234.13V265.313H3254.35ZM3266.06 162.182H3254.36V176.005H3266.06V162.182Z" fill="white"/>
<path d="M3305.4 273.146V244.51H3259.66V273.089H3259.71V250.318V332.75V293.318H3239.49V273.146H3214.37L3214.39 273.089H3168.65L3168.63 273.146V292.99H3186.17V316.193H3259.66V363.724H3285.17V343.5H3305.4V316.193H3327.37V273.146H3305.4ZM3157.96 329.521H3175.5V305.849H3157.96V329.521Z" fill="white"/>
</g>
<g clip-path="url(#clip14_450_133)">
<rect width="240.667" height="400" transform="translate(3368.33)" fill="white"/>
<path d="M3368.33 400H3609V0H3368.33V400Z" fill="black"/>
<path d="M3530.28 33.7812H3481.85L3468.63 79.6354H3516.52L3530.28 33.7812ZM3468.7 216.906H3422.43L3409.31 262.422H3455.05L3468.7 216.906ZM3489.63 147.161H3442.54L3422.43 216.906H3468.71L3489.63 147.161ZM3550.06 171.448H3516.09V185.339H3504.33V199.974H3550.06V171.448ZM3499.22 79.6354H3451.33L3444.8 102.302H3492.42L3499.22 79.6354ZM3494.84 102.302H3447.22L3434.29 147.156H3481.38L3494.84 102.302ZM3546.06 210.823H3500.33V233.844H3546.06V210.823ZM3566.06 199.974H3520.33V210.823H3566.06V199.974ZM3542.81 371.474H3563.03V351.25H3542.81V371.474ZM3500.35 270.646V250.422H3500.3V250.474H3480.13V270.646H3500.35ZM3506.73 162.182H3495.02V176.005H3506.73V162.182Z" fill="white"/>
<path d="M3546.06 266.479V237.844H3500.33V266.422H3500.38V243.651V326.083V286.651H3480.15V266.479H3455.04L3455.05 266.422H3409.31L3409.3 266.479V286.323H3426.83V309.526H3500.33V357.057H3525.84V336.833H3546.06V309.526H3568.04V266.479H3546.06Z" fill="white"/>
<path d="M3402.63 320.182H3420.17V296.516H3402.63V320.182Z" fill="white"/>
</g>
<g clip-path="url(#clip15_450_133)">
<rect width="240.667" height="400" transform="translate(3608.67)" fill="white"/>
<path d="M3608.67 400H3849.34V0H3608.67V400Z" fill="black"/>
<path d="M3770.61 33.7812H3722.19L3708.97 79.6354H3756.86L3770.61 33.7812ZM3709.04 216.906H3662.77L3649.65 262.422H3695.39L3709.04 216.906ZM3729.97 147.161H3682.87L3662.77 216.906H3709.05L3729.97 147.161ZM3786.4 171.448H3752.43V185.339H3740.67V199.974H3786.4V171.448ZM3743.56 79.6354H3695.67L3689.13 102.302H3736.76L3743.56 79.6354ZM3739.18 102.302H3691.56L3678.62 147.156H3725.72L3739.18 102.302ZM3786.4 210.823H3740.67V233.844H3786.4V210.823ZM3793.07 199.974H3747.33V210.823H3793.07V199.974ZM3777.81 366.141H3798.03V345.917H3777.81V366.141ZM3740.69 270.646V250.422H3740.64V250.474H3720.46V270.646H3740.69Z" fill="white"/>
<path d="M3749.73 168.849H3738.02V182.672H3749.73V168.849ZM3786.4 262.479V233.844H3740.67V262.422H3740.71V239.651V322.083V282.651H3720.49V262.479H3695.37L3695.39 262.422H3649.65L3649.63 262.479V282.323H3667.17V305.521H3740.67V353.057H3766.18V332.833H3786.4V305.521H3808.37V262.479H3786.4Z" fill="white"/>
<path d="M3642.97 313.516H3660.5V289.849H3642.97V313.516Z" fill="white"/>
</g>
<g clip-path="url(#clip16_450_133)">
<rect width="240.667" height="400" transform="translate(3849.34)" fill="white"/>
<path d="M3849.34 400H4090V0H3849.34V400Z" fill="black"/>
<path d="M4004.61 33.7812H3956.19L3942.97 79.6354H3990.86L4004.61 33.7812ZM3949.71 216.906H3903.44L3890.32 262.422H3936.06L3949.71 216.906ZM3970.63 147.161H3923.54L3903.44 216.906H3949.71L3970.63 147.161ZM4027.07 171.448H3993.09V185.339H3981.33V199.974H4027.07V171.448ZM3988.22 79.6354H3940.34L3933.8 102.302H3981.42L3988.22 79.6354ZM3983.84 102.302H3936.22L3923.29 147.156H3970.38L3983.84 102.302ZM4027.07 210.823H3981.33V233.844H4027.07V210.823ZM4031.07 199.974H3985.33V210.823H4031.07V199.974ZM4014.47 362.141H4034.7V341.917H4014.47V362.141ZM3981.35 274.646V254.422H3981.31V254.474H3961.13V274.646H3981.35Z" fill="white"/>
<path d="M3993.07 171.516H3981.36V185.339H3993.07V171.516ZM4027.07 262.479V233.844H3981.33V262.422H3981.38V239.651V322.083V282.651H3961.15V262.479H3936.04L3936.06 262.422H3890.32L3890.3 262.479V282.323H3907.84V305.521H3981.33V353.057H4006.84V332.833H4027.07V305.521H4049.04V262.479H4027.07Z" fill="white"/>
<path d="M3883.63 309.516H3901.17V285.849H3883.63V309.516Z" fill="white"/>
</g>
<g clip-path="url(#clip17_450_133)">
<rect width="240.667" height="400" transform="translate(4090)" fill="white"/>
<path d="M4090 400H4330.67V0H4090V400Z" fill="black"/>
<path d="M4245.28 33.7812H4196.85L4183.63 79.6354H4231.52L4245.28 33.7812ZM4190.37 216.906H4144.1L4130.98 262.422H4176.72L4190.37 216.906ZM4211.3 147.161H4164.21L4144.1 216.906H4190.38L4211.3 147.161ZM4267.73 171.448H4233.76V185.339H4222V199.974H4267.73V171.448ZM4231.55 79.6354H4183.67L4177.13 102.302H4224.76L4231.55 79.6354ZM4224.51 102.302H4176.89L4163.96 147.156H4211.05L4224.51 102.302ZM4267.73 210.823H4222V233.844H4267.73V210.823ZM4267.73 199.974H4222V210.823H4267.73V199.974ZM4251.14 358.141H4271.36V337.917H4251.14V358.141ZM4222.02 278.646V258.422H4221.97V258.474H4201.79V278.646H4222.02Z" fill="white"/>
<path d="M4233.73 171.516H4222.02V185.339H4233.73V171.516ZM4267.73 262.479V233.844H4222V262.422H4222.04V239.651V322.083V282.651H4201.82V262.479H4176.71L4176.72 262.422H4130.98L4130.97 262.479V282.323H4148.5V305.521H4222V353.057H4247.51V332.833H4267.73V305.521H4289.71V262.479H4267.73Z" fill="white"/>
<path d="M4128.3 305.516H4145.84V281.849H4128.3V305.516Z" fill="white"/>
</g>
<g clip-path="url(#clip18_450_133)">
<rect width="240.667" height="400" transform="translate(4330.67)" fill="white"/>
<path d="M4330.67 400H4571.33V0H4330.67V400Z" fill="black"/>
<path d="M4485.94 33.7812H4437.52L4424.3 79.6354H4472.19L4485.94 33.7812ZM4431.04 216.906H4384.77L4371.65 262.422H4417.39L4431.04 216.906ZM4451.97 147.161H4404.87L4384.77 216.906H4431.04L4451.97 147.161ZM4508.4 171.448H4474.42V185.339H4462.66V199.974H4508.4V171.448ZM4472.22 79.6354H4424.33L4417.8 102.302H4465.42L4472.22 79.6354ZM4465.17 102.302H4417.55L4404.62 147.156H4451.72L4465.17 102.302ZM4508.4 210.823H4462.66V233.844H4508.4V210.823ZM4508.4 199.974H4462.66V210.823H4508.4V199.974ZM4491.8 358.141H4512.03V337.917H4491.8V358.141ZM4462.68 282.646V262.422H4462.64V262.474H4442.46V282.646H4462.68Z" fill="white"/>
<path d="M4474.4 171.516H4462.69V185.339H4474.4V171.516ZM4508.4 262.479V233.844H4462.66V262.422H4462.71V239.651V322.083V282.651H4442.49V262.479H4417.37L4417.39 262.422H4371.65L4371.63 262.479V282.323H4389.17V305.521H4462.66V353.057H4488.17V332.833H4508.4V305.521H4530.37V262.479H4508.4Z" fill="white"/>
<path d="M4371.63 305.516H4389.17V281.849H4371.63V305.516Z" fill="white"/>
</g>
<g clip-path="url(#clip19_450_133)">
<rect width="240.667" height="400" transform="translate(4571.33)" fill="white"/>
<path d="M4571.33 400H4812V0H4571.33V400Z" fill="black"/>
<path d="M4726.61 33.7812H4678.18L4664.96 79.6354H4712.86L4726.61 33.7812ZM4671.7 216.906H4625.43L4612.31 262.422H4658.05L4671.7 216.906ZM4692.63 147.161H4645.54L4625.43 216.906H4671.71L4692.63 147.161ZM4749.06 171.448H4715.09V185.339H4703.33V199.974H4749.06V171.448ZM4712.89 79.6354H4665L4658.46 102.302H4706.09L4712.89 79.6354ZM4705.84 102.302H4658.22L4645.29 147.156H4692.38L4705.84 102.302ZM4749.06 210.823H4703.33V233.844H4749.06V210.823ZM4749.06 199.974H4703.33V210.823H4749.06V199.974ZM4728.84 353.057H4749.06V332.833H4728.84V353.057ZM4703.35 282.646V262.422H4703.3V262.474H4683.13V282.646H4703.35Z" fill="white"/>
<path d="M4715.06 171.516H4703.36V185.339H4715.06V171.516ZM4749.06 262.479V233.844H4703.33V262.422H4703.38V239.651V322.083V282.651H4683.15V262.479H4658.04L4658.05 262.422H4612.31L4612.3 262.479V282.323H4629.83V305.521H4703.33V353.057H4728.84V332.833H4749.06V305.521H4771.04V262.479H4749.06Z" fill="white"/>
<path d="M4612.3 305.516H4629.83V281.849H4612.3V305.516Z" fill="white"/>
</g>
<defs>
<clipPath id="clip0_450_133">
<rect width="240.667" height="400" fill="white"/>
</clipPath>
<clipPath id="clip1_450_133">
<rect width="240.667" height="400" fill="white" transform="translate(240.666)"/>
</clipPath>
<clipPath id="clip2_450_133">
<rect width="240.667" height="400" fill="white" transform="translate(481.332)"/>
</clipPath>
<clipPath id="clip3_450_133">
<rect width="240.667" height="400" fill="white" transform="translate(721.998)"/>
</clipPath>
<clipPath id="clip4_450_133">
<rect width="240.667" height="400" fill="white" transform="translate(962)"/>
</clipPath>
<clipPath id="clip5_450_133">
<rect width="240.667" height="400" fill="white" transform="translate(1202)"/>
</clipPath>
<clipPath id="clip6_450_133">
<rect width="240.667" height="400" fill="white" transform="translate(1442.67)"/>
</clipPath>
<clipPath id="clip7_450_133">
<rect width="240.667" height="400" fill="white" transform="translate(1683.33)"/>
</clipPath>
<clipPath id="clip8_450_133">
<rect width="240.667" height="400" fill="white" transform="translate(1924)"/>
</clipPath>
<clipPath id="clip9_450_133">
<rect width="240.667" height="400" fill="white" transform="translate(2164.66)"/>
</clipPath>
<clipPath id="clip10_450_133">
<rect width="240.667" height="400" fill="white" transform="translate(2405.67)"/>
</clipPath>
<clipPath id="clip11_450_133">
<rect width="240.667" height="400" fill="white" transform="translate(2646.34)"/>
</clipPath>
<clipPath id="clip12_450_133">
<rect width="240.667" height="400" fill="white" transform="translate(2887)"/>
</clipPath>
<clipPath id="clip13_450_133">
<rect width="240.667" height="400" fill="white" transform="translate(3127.67)"/>
</clipPath>
<clipPath id="clip14_450_133">
<rect width="240.667" height="400" fill="white" transform="translate(3368.33)"/>
</clipPath>
<clipPath id="clip15_450_133">
<rect width="240.667" height="400" fill="white" transform="translate(3608.67)"/>
</clipPath>
<clipPath id="clip16_450_133">
<rect width="240.667" height="400" fill="white" transform="translate(3849.34)"/>
</clipPath>
<clipPath id="clip17_450_133">
<rect width="240.667" height="400" fill="white" transform="translate(4090)"/>
</clipPath>
<clipPath id="clip18_450_133">
<rect width="240.667" height="400" fill="white" transform="translate(4330.67)"/>
</clipPath>
<clipPath id="clip19_450_133">
<rect width="240.667" height="400" fill="white" transform="translate(4571.33)"/>
</clipPath>
</defs>
</svg>
