<svg width="6689" height="586" viewBox="0 0 6689 586" fill="none" xmlns="http://www.w3.org/2000/svg">
<g clip-path="url(#clip0_461_2)">
<rect width="352.32" height="584.94" fill="white"/>
<path d="M0 584.94H352.32V0H0V584.94Z" fill="black"/>
<path d="M227.313 49.3999H156.419L137.068 116.455H207.177L227.313 49.3999ZM146.934 317.193H79.1967L59.9902 383.753H126.95L146.934 317.193ZM177.57 215.201H108.628L79.1967 317.193H146.942L177.57 215.201ZM260.183 250.717H210.448V271.03H193.231V292.432H260.183V250.717ZM207.222 116.455H137.121L127.552 149.601H197.272L207.222 116.455ZM196.906 149.601H127.194L108.262 215.194H177.204L196.906 149.601ZM260.183 308.297H193.231V341.961H260.183V308.297ZM260.183 292.432H193.231V308.297H260.183V292.432ZM230.577 516.293H260.183V486.719H230.577V516.293ZM193.262 413.327V383.753H193.193V383.829H163.655V413.327H193.262Z" fill="white"/>
<path d="M210.409 250.816H193.269V271.03H210.409V250.816ZM260.183 383.836V341.961H193.231V383.752H193.299V350.453V470.998V413.335H163.693V383.836H126.927L126.949 383.752H59.9897L59.9668 383.836V412.855H85.639V446.778H193.231V516.293H230.576V486.719H260.183V446.778H292.351V383.836H260.183Z" fill="white"/>
<path d="M59.9668 446.771H85.639V412.162H59.9668V446.771Z" fill="white"/>
</g>
<rect width="352.32" height="584.94" transform="translate(352 0.172119)" fill="white"/>
<path d="M352 585.112H704.32V0.172119H352V585.112Z" fill="black"/>
<path d="M579.313 49.572H508.419L489.068 116.627H559.177L579.313 49.572ZM498.934 317.365H431.197L411.99 383.925H478.95L498.934 317.365ZM529.57 215.374H460.628L431.197 317.365H498.942L529.57 215.374ZM612.183 250.889H562.448V271.202H545.231V292.604H612.183V250.889ZM559.222 116.627H489.121L479.552 149.773H549.272L559.222 116.627ZM548.906 149.773H479.194L460.262 215.366H529.204L548.906 149.773ZM612.183 308.469H545.231V342.133H612.183V308.469ZM612.183 292.604H545.231V308.469H612.183V292.604ZM587.891 523.899H617.498V494.324H587.891V523.899ZM545.262 413.499V383.925H545.193V384.001H515.655V413.499H545.262Z" fill="white"/>
<path d="M562.409 250.988H545.269V271.202H562.409V250.988ZM612.183 384.008V342.133H545.231V383.925H545.299V350.626V471.17V413.507H515.693V384.008H478.927L478.949 383.925H411.99L411.967 384.008V413.027H437.639V446.95H545.231V516.465H582.576V486.891H612.183V446.95H644.351V384.008H612.183Z" fill="white"/>
<path d="M411.967 446.943H437.639V412.334H411.967V446.943Z" fill="white"/>
<rect width="352.32" height="584.763" transform="translate(704 0.172119)" fill="white"/>
<path d="M704.002 584.936H1056.32V0.172119H704.002V584.936Z" fill="black"/>
<path d="M931.315 49.5571H860.421L841.07 116.592H911.179L931.315 49.5571ZM850.936 317.269H783.199L763.992 383.809H830.952L850.936 317.269ZM881.572 215.309H812.63L783.199 317.269H850.944L881.572 215.309ZM964.185 250.813H914.449V271.12H897.233V292.516H964.185V250.813ZM911.224 116.592H841.123L831.554 149.728H901.274L911.224 116.592ZM900.908 149.728H831.196L812.264 215.301H881.206L900.908 149.728ZM964.185 308.376H897.233V342.03H964.185V308.376ZM964.185 292.516H897.233V308.376H964.185V292.516ZM939.893 523.741H969.499V494.175H939.893V523.741ZM897.264 407.527V377.961H897.195V378.037H867.657V407.527H897.264Z" fill="white"/>
<path d="M914.411 250.912H897.271V271.12H914.411V250.912ZM964.185 383.893V342.03H897.232V383.809H897.301V350.52V471.028V413.382H867.695V383.893H830.928L830.951 383.809H763.992L763.969 383.893V412.902H789.641V446.815H897.232V516.309H934.578V486.744H964.185V446.815H996.353V383.893H964.185Z" fill="white"/>
<path d="M760.066 446.808H785.739V412.209H760.066V446.808Z" fill="white"/>
<rect width="352.32" height="584.94" transform="translate(1056 0.172119)" fill="white"/>
<path d="M1056 585.112H1408.32V0.172119H1056V585.112Z" fill="black"/>
<path d="M1283.32 49.572H1212.42L1193.07 116.627H1263.18L1283.32 49.572ZM1202.94 317.365H1135.2L1115.99 383.925H1182.95L1202.94 317.365ZM1233.57 215.374H1164.63L1135.2 317.365H1202.94L1233.57 215.374ZM1316.19 250.889H1266.45V271.202H1249.23V292.604H1316.19V250.889ZM1259.32 116.627H1189.22L1179.65 149.773H1249.37L1259.32 116.627ZM1252.91 149.773H1183.2L1164.26 215.366H1233.21L1252.91 149.773ZM1316.19 308.469H1249.23V342.133H1316.19V308.469ZM1322.04 292.604H1255.09V308.469H1322.04V292.604ZM1297.75 529.748H1327.36V500.174H1297.75V529.748ZM1249.26 401.8V372.226H1249.19V372.302H1219.66V401.8H1249.26Z" fill="white"/>
<path d="M1266.41 250.988H1249.27V271.202H1266.41V250.988ZM1316.19 384.008V342.133H1249.24V383.925H1249.3V350.626V471.17V413.507H1219.7V384.008H1182.93L1182.96 383.925H1116L1115.97 384.008V413.027H1141.64V446.95H1249.24V516.465H1286.58V486.891H1316.19V446.95H1348.36V384.008H1316.19Z" fill="white"/>
<path d="M1106.21 452.792H1131.89V418.183H1106.21V452.792Z" fill="white"/>
<g clip-path="url(#clip1_461_2)">
<rect width="352.32" height="584.94" transform="translate(1408 0.172119)" fill="white"/>
<path d="M1408 585.112H1760.32V0.172119H1408V585.112Z" fill="black"/>
<path d="M1645.07 49.572H1574.18L1554.83 116.627H1624.93L1645.07 49.572ZM1554.93 317.365H1487.19L1467.99 383.925H1534.95L1554.93 317.365ZM1585.57 215.374H1516.63L1487.19 317.365H1554.94L1585.57 215.374ZM1668.18 250.889H1618.45V271.202H1601.23V292.604H1668.18V250.889ZM1605.46 116.627H1535.35L1525.79 149.773H1595.51L1605.46 116.627ZM1599.05 149.773H1529.34L1510.4 215.366H1579.35L1599.05 149.773ZM1668.18 308.469H1601.23V342.133H1668.18V308.469ZM1677.94 292.604H1610.99V308.469H1677.94V292.604ZM1655.6 535.598H1685.21V506.023H1655.6V535.598ZM1601.26 395.951V366.376H1601.19V366.453H1571.65V395.951H1601.26Z" fill="white"/>
<path d="M1614.51 247.089H1597.36V267.302H1614.51V247.089ZM1668.18 384.009V342.134H1601.23V383.925H1601.3V350.626V471.171V413.507H1571.69V384.009H1534.93L1534.95 383.925H1467.99L1467.97 384.009V413.027H1493.64V446.951H1601.23V516.466H1638.58V486.891H1668.18V446.951H1700.35V384.009H1668.18Z" fill="white"/>
<path d="M1458.21 458.642H1483.88V424.033H1458.21V458.642Z" fill="white"/>
</g>
<g clip-path="url(#clip2_461_2)">
<rect width="352.32" height="584.94" transform="translate(1760 0.172119)" fill="white"/>
<path d="M1760 585.112H2112.32V0.172119H1760V585.112Z" fill="black"/>
<path d="M1997.07 49.572H1926.17L1906.82 116.627H1976.93L1997.07 49.572ZM1906.93 317.365H1839.19L1819.99 383.925H1886.95L1906.93 317.365ZM1937.57 215.374H1868.62L1839.19 317.365H1906.94L1937.57 215.374ZM2026.03 250.889H1976.3V271.202H1959.08V292.604H2026.03V250.889ZM1951.6 116.627H1881.49L1871.93 149.773H1941.65L1951.6 116.627ZM1945.19 149.773H1875.48L1856.55 215.366H1925.49L1945.19 149.773ZM2020.18 308.469H1953.23V342.133H2020.18V308.469ZM2049.46 292.604H1982.51V308.469H2049.46V292.604ZM2015.41 543.397H2045.02V513.822H2015.41V543.397ZM1953.26 395.951V366.376H1953.19V366.453H1923.65V395.951H1953.26ZM1962.6 237.339H1945.46V257.553H1962.6V237.339Z" fill="white"/>
<path d="M2020.18 389.858V347.983H1953.23V389.774H1953.3V356.475V477.02V419.356H1923.69V389.858H1886.92L1886.95 389.774H1819.99L1819.96 389.858V418.876H1845.64V452.808H1953.23V522.315H1990.57V492.74H2020.18V452.808H2052.35V389.858H2020.18Z" fill="white"/>
<path d="M1810.21 468.391H1835.88V433.782H1810.21V468.391Z" fill="white"/>
</g>
<g clip-path="url(#clip3_461_2)">
<rect width="352.32" height="584.94" transform="translate(2112 0.172119)" fill="white"/>
<path d="M2112 585.112H2464.32V0.172119H2112V585.112Z" fill="black"/>
<path d="M2349.07 49.572H2278.18L2258.83 116.627H2328.94L2349.07 49.572ZM2258.93 317.365H2191.2L2171.99 383.925H2238.95L2258.93 317.365ZM2289.57 215.374H2220.63L2191.2 317.365H2258.94L2289.57 215.374ZM2397.56 250.889H2347.83V271.202H2330.61V292.604H2397.56V250.889ZM2303.61 116.627H2233.5L2223.94 149.773H2293.66L2303.61 116.627ZM2277.68 149.773H2207.96L2189.03 215.366H2257.97L2277.68 149.773ZM2372.18 308.469H2305.23V342.133H2372.18V308.469ZM2415.13 292.604H2348.17V308.469H2415.13V292.604ZM2371.32 553.146H2400.93V523.571H2371.32V553.146ZM2297.45 388.152V358.577H2297.39V358.653H2267.85V388.152H2297.45ZM2314.6 237.339H2297.46V257.553H2314.6V237.339Z" fill="white"/>
<path d="M2372.18 399.607V357.732H2305.23V399.523H2305.3V366.224V486.769V429.105H2275.69V399.607H2238.93L2238.95 399.523H2171.99L2171.97 399.607V428.625H2197.64V462.556H2305.23V532.064H2342.58V502.489H2372.18V462.556H2404.35V399.607H2372.18ZM2156.35 482.047H2182.02V447.43H2156.35V482.047Z" fill="white"/>
</g>
<g clip-path="url(#clip4_461_2)">
<rect width="352.32" height="584.94" transform="translate(2464 0.172119)" fill="white"/>
<path d="M2464 585.112H2816.32V0.172119H2464V585.112Z" fill="black"/>
<path d="M2701.07 39.8231H2630.18L2610.83 106.878H2680.94L2701.07 39.8231ZM2607.03 317.365H2539.29L2520.09 383.925H2587.05L2607.03 317.365ZM2620.1 215.374H2551.16L2521.73 317.365H2589.46L2620.1 215.374ZM2755.41 241.14H2705.69V261.453H2688.46V282.855H2755.41V241.14ZM2620.47 116.627H2550.36L2540.8 149.774H2610.52L2620.47 116.627ZM2578.92 149.774H2509.21L2490.28 215.366H2559.22L2578.92 149.774ZM2724.18 308.469H2657.23V342.134H2724.18V308.469ZM2786.65 292.604H2719.69V308.469H2786.65V292.604ZM2729.18 566.802H2758.78V537.228H2729.18V566.802ZM2643.6 386.202V356.628H2643.53V356.704H2613.99V386.202H2643.6ZM2666.6 221.741H2649.46V241.947H2666.6V221.741Z" fill="white"/>
<path d="M2724.18 407.406V365.531H2657.23V407.322H2657.3V374.031V494.568V436.904H2627.69V407.406H2590.93L2590.95 407.322H2523.99L2523.97 407.406V436.424H2549.64V470.355H2657.23V539.863H2694.58V510.288H2724.18V470.355H2756.35V407.406H2724.18ZM2502.5 487.896H2528.17V453.28H2502.5V487.896Z" fill="white"/>
</g>
<g clip-path="url(#clip5_461_2)">
<rect width="352.32" height="584.94" transform="translate(2816 0.172119)" fill="white"/>
<path d="M2816 585.112H3168.32V0.172119H2816V585.112Z" fill="black"/>
<path d="M3060.88 32.0239H2989.99L2970.64 99.0788H3040.74L3060.88 32.0239ZM2951.22 321.265H2883.49L2864.28 387.832H2931.24L2951.22 321.265ZM2954.53 215.374H2885.58L2856.15 317.365H2923.9L2954.53 215.374ZM3113.27 235.291H3063.54V255.604H3046.32V277.006H3113.27V235.291ZM2964.67 110.778H2894.56L2885 143.924H2954.71L2964.67 110.778ZM2915.3 149.774H2845.59L2826.66 215.366H2895.61L2915.3 149.774ZM3087.9 304.569H3020.94V338.234H3087.9V304.569ZM3150.36 288.704H3083.4V304.569H3150.36V288.704ZM3088.99 576.551H3118.59V546.977H3088.99V576.551ZM2995.6 386.202V356.628H2995.53V356.704H2965.99V386.202H2995.6ZM3018.6 221.741H3001.46V241.947H3018.6V221.741ZM3001.49 436.904H2971.89V407.406H2935.12L2935.14 407.33H2868.18L2868.16 407.406V436.425H2893.83V470.356H3001.42M3015.09 478.155V547.662H3052.43V518.088H3082.04V478.155H3114.21V415.205H3082.04V373.33H3015.09V415.129H3015.16V381.83V444.704M2846.69 505.445H2872.36V470.828H2846.69V505.445Z" fill="white"/>
</g>
<rect width="352.32" height="584.94" transform="translate(3168 0.172119)" fill="white"/>
<path d="M3168 585.112H3520.32V0.172119H3168V585.112Z" fill="black"/>
<path d="M3420.69 10.5762H3349.8L3330.45 77.6234H3400.55L3420.69 10.5762ZM3291.51 321.265H3223.77L3204.57 387.832H3271.53L3291.51 321.265ZM3285.06 215.374H3216.11L3186.68 317.365H3254.43L3285.06 215.374ZM3475.03 223.592H3425.3V243.905H3408.08V265.307H3475.03V223.592ZM3303 101.029H3232.9L3223.33 134.175H3293.05L3303 101.029ZM3259.5 141.974H3189.79L3170.85 207.567H3239.8L3259.5 141.974ZM3461.37 304.569H3394.42V338.234H3461.37V304.569ZM3517.98 288.705H3451.02V304.569H3517.98V288.705ZM3444.89 585.112H3474.5V555.538H3444.89V585.112ZM3341.74 374.503V344.929H3341.68V345.005H3312.14V374.503H3341.74ZM3382.32 211.992H3365.18V232.198H3382.32V211.992ZM3337.88 436.905H3308.27V407.406H3271.51L3271.53 407.33H3204.57L3204.55 407.406V436.425H3230.22V470.356H3337.8M3374.9 491.804V561.311H3412.24V531.736H3441.85V491.804H3474.02V428.854H3441.85V386.979H3374.9V428.778H3374.97V395.479V458.352M3198.69 526.892H3224.36V492.276H3198.69V526.892Z" fill="white"/>
<g clip-path="url(#clip6_461_2)">
<rect width="352.32" height="584.94" transform="translate(3520 0.172119)" fill="white"/>
<path d="M3520 585.112H3872.32V0.172119H3520V585.112Z" fill="black"/>
<path d="M3772.69 10.5762H3701.79L3682.44 77.6234H3752.55L3772.69 10.5762ZM3643.51 321.265H3575.77L3556.57 387.832H3623.53L3643.51 321.265ZM3637.05 215.374H3568.11L3538.68 317.365H3606.43L3637.05 215.374ZM3827.03 223.592H3777.3V243.905H3760.08V265.307H3827.03V223.592ZM3655 101.029H3584.89L3575.33 134.175H3645.04L3655 101.029ZM3611.5 141.974H3541.78L3522.85 207.567H3591.79L3611.5 141.974ZM3813.37 304.569H3746.41V338.234H3813.37V304.569ZM3869.98 288.705H3803.02V304.569H3869.98V288.705ZM3796.89 585.112H3826.5V555.538H3796.89V585.112ZM3693.74 374.503V344.929H3693.67V345.005H3664.14V374.503H3693.74ZM3734.31 211.992H3717.17V232.198H3734.31V211.992ZM3689.88 436.905H3660.27V407.406H3623.5L3623.53 407.33H3556.57L3556.54 407.406V436.425H3582.22V470.356H3689.8M3726.89 491.804V561.311H3764.24V531.736H3793.85V491.804H3826.02V428.854H3793.85V386.979H3726.89V428.778H3726.96V395.479V458.352M3550.69 526.892H3576.36V492.276H3550.69V526.892Z" fill="white"/>
</g>
<g clip-path="url(#clip7_461_2)">
<rect width="352.32" height="584.94" transform="translate(3872 0.172119)" fill="white"/>
<path d="M3872 585.112H4224.32V0.172119H3872V585.112Z" fill="black"/>
<path d="M4116.88 32.0239H4045.99L4026.63 99.0788H4096.74L4116.88 32.0239ZM4007.22 321.265H3939.48L3920.28 387.832H3987.24L4007.22 321.265ZM4010.53 215.374H3941.58L3912.15 317.365H3979.9L4010.53 215.374ZM4169.27 235.291H4119.54V255.604H4102.32V277.006H4169.27V235.291ZM4020.66 110.778H3950.56L3940.99 143.924H4010.71L4020.66 110.778ZM3971.3 149.774H3901.59L3882.66 215.366H3951.61L3971.3 149.774ZM4143.89 304.569H4076.94V338.234H4143.89V304.569ZM4206.36 288.704H4139.4V304.569H4206.36V288.704ZM4144.98 576.551H4174.59V546.977H4144.98V576.551ZM4051.6 386.202V356.628H4051.53V356.704H4021.99V386.202H4051.6ZM4074.6 221.741H4057.46V241.947H4074.6V221.741ZM4057.49 436.904H4027.88V407.406H3991.12L3991.14 407.33H3924.18L3924.16 407.406V436.425H3949.83V470.356H4057.42M4071.09 478.155V547.662H4108.43V518.088H4138.04V478.155H4170.21V415.205H4138.04V373.33H4071.09V415.129H4071.15V381.83V444.704M3902.69 505.445H3928.36V470.828H3902.69V505.445Z" fill="white"/>
</g>
<g clip-path="url(#clip8_461_2)">
<rect width="352.32" height="584.94" transform="translate(4224 0.172119)" fill="white"/>
<path d="M4224 585.112H4576.32V0.172119H4224V585.112Z" fill="black"/>
<path d="M4461.07 39.8231H4390.18L4370.83 106.878H4440.94L4461.07 39.8231ZM4367.03 317.365H4299.29L4280.09 383.925H4347.05L4367.03 317.365ZM4380.1 215.374H4311.16L4281.73 317.365H4349.46L4380.1 215.374ZM4515.41 241.14H4465.69V261.453H4448.46V282.855H4515.41V241.14ZM4380.47 116.627H4310.36L4300.8 149.774H4370.52L4380.47 116.627ZM4338.92 149.774H4269.21L4250.28 215.366H4319.22L4338.92 149.774ZM4484.18 308.469H4417.23V342.134H4484.18V308.469ZM4546.65 292.604H4479.69V308.469H4546.65V292.604ZM4489.18 566.802H4518.78V537.228H4489.18V566.802ZM4403.6 386.202V356.628H4403.53V356.704H4373.99V386.202H4403.6ZM4426.6 221.741H4409.46V241.947H4426.6V221.741Z" fill="white"/>
<path d="M4484.18 407.406V365.531H4417.23V407.322H4417.3V374.031V494.568V436.904H4387.69V407.406H4350.93L4350.95 407.322H4283.99L4283.97 407.406V436.424H4309.64V470.355H4417.23V539.863H4454.58V510.288H4484.18V470.355H4516.35V407.406H4484.18ZM4262.5 487.896H4288.17V453.28H4262.5V487.896Z" fill="white"/>
</g>
<g clip-path="url(#clip9_461_2)">
<rect width="352.32" height="584.94" transform="translate(4576 0.172119)" fill="white"/>
<path d="M4576 585.112H4928.32V0.172119H4576V585.112Z" fill="black"/>
<path d="M4813.07 49.572H4742.18L4722.83 116.627H4792.94L4813.07 49.572ZM4722.93 317.365H4655.2L4635.99 383.925H4702.95L4722.93 317.365ZM4753.57 215.374H4684.63L4655.2 317.365H4722.94L4753.57 215.374ZM4861.56 250.889H4811.83V271.202H4794.61V292.604H4861.56V250.889ZM4767.61 116.627H4697.5L4687.94 149.773H4757.66L4767.61 116.627ZM4741.68 149.773H4671.96L4653.03 215.366H4721.97L4741.68 149.773ZM4836.18 308.469H4769.23V342.133H4836.18V308.469ZM4879.13 292.604H4812.17V308.469H4879.13V292.604ZM4835.32 553.146H4864.93V523.571H4835.32V553.146ZM4761.45 388.152V358.577H4761.39V358.653H4731.85V388.152H4761.45ZM4778.6 237.339H4761.46V257.553H4778.6V237.339Z" fill="white"/>
<path d="M4836.18 399.607V357.732H4769.23V399.523H4769.3V366.224V486.769V429.105H4739.69V399.607H4702.93L4702.95 399.523H4635.99L4635.97 399.607V428.625H4661.64V462.556H4769.23V532.064H4806.58V502.489H4836.18V462.556H4868.35V399.607H4836.18ZM4620.35 482.047H4646.03V447.43H4620.35V482.047Z" fill="white"/>
</g>
<g clip-path="url(#clip10_461_2)">
<rect width="352.32" height="584.94" transform="translate(4928 0.172119)" fill="white"/>
<path d="M4928 585.112H5280.32V0.172119H4928V585.112Z" fill="black"/>
<path d="M5165.07 49.572H5094.18L5074.83 116.627H5144.94L5165.07 49.572ZM5074.94 317.365H5007.2L4987.99 383.925H5054.95L5074.94 317.365ZM5105.57 215.374H5036.63L5007.2 317.365H5074.94L5105.57 215.374ZM5194.04 250.889H5144.31V271.202H5127.09V292.604H5194.04V250.889ZM5119.61 116.627H5049.5L5039.94 149.773H5109.66L5119.61 116.627ZM5113.2 149.773H5043.48L5024.55 215.366H5093.49L5113.2 149.773ZM5188.19 308.469H5121.23V342.133H5188.19V308.469ZM5217.46 292.604H5150.51V308.469H5217.46V292.604ZM5183.42 543.397H5213.03V513.822H5183.42V543.397ZM5121.26 395.951V366.376H5121.19V366.453H5091.66V395.951H5121.26ZM5130.6 237.339H5113.46V257.553H5130.6V237.339Z" fill="white"/>
<path d="M5188.18 389.858V347.983H5121.23V389.774H5121.3V356.475V477.02V419.356H5091.69V389.858H5054.93L5054.95 389.774H4987.99L4987.97 389.858V418.876H5013.64V452.808H5121.23V522.315H5158.58V492.74H5188.18V452.808H5220.35V389.858H5188.18Z" fill="white"/>
<path d="M4978.21 468.391H5003.88V433.782H4978.21V468.391Z" fill="white"/>
</g>
<rect width="352.32" height="584.94" transform="translate(5280 0.172119)" fill="white"/>
<path d="M5280 585.112H5632.32V0.172119H5280V585.112Z" fill="black"/>
<path d="M5517.07 49.572H5446.18L5426.83 116.627H5496.93L5517.07 49.572ZM5426.93 317.365H5359.19L5339.99 383.925H5406.95L5426.93 317.365ZM5457.57 215.374H5388.63L5359.19 317.365H5426.94L5457.57 215.374ZM5540.18 250.889H5490.45V271.202H5473.23V292.604H5540.18V250.889ZM5477.46 116.627H5407.35L5397.79 149.773H5467.51L5477.46 116.627ZM5471.05 149.773H5401.34L5382.4 215.366H5451.35L5471.05 149.773ZM5540.18 308.469H5473.23V342.133H5540.18V308.469ZM5549.94 292.604H5482.99V308.469H5549.94V292.604ZM5527.6 535.598H5557.21V506.023H5527.6V535.598ZM5473.26 395.951V366.376H5473.19V366.453H5443.65V395.951H5473.26Z" fill="white"/>
<path d="M5486.51 247.089H5469.36V267.302H5486.51V247.089ZM5540.18 384.009V342.134H5473.23V383.925H5473.3V350.626V471.171V413.507H5443.69V384.009H5406.93L5406.95 383.925H5339.99L5339.97 384.009V413.027H5365.64V446.951H5473.23V516.466H5510.58V486.891H5540.18V446.951H5572.35V384.009H5540.18Z" fill="white"/>
<path d="M5330.21 458.642H5355.88V424.033H5330.21V458.642Z" fill="white"/>
<g clip-path="url(#clip11_461_2)">
<rect width="352.32" height="584.94" transform="translate(5632 0.172119)" fill="white"/>
<path d="M5632 585.112H5984.32V0.172119H5632V585.112Z" fill="black"/>
<path d="M5859.31 49.572H5788.42L5769.07 116.627H5839.18L5859.31 49.572ZM5778.93 317.365H5711.2L5691.99 383.925H5758.95L5778.93 317.365ZM5809.57 215.374H5740.63L5711.2 317.365H5778.94L5809.57 215.374ZM5892.18 250.889H5842.45V271.202H5825.23V292.604H5892.18V250.889ZM5835.32 116.627H5765.22L5755.65 149.773H5825.37L5835.32 116.627ZM5828.91 149.773H5759.19L5740.26 215.366H5809.2L5828.91 149.773ZM5892.18 308.469H5825.23V342.133H5892.18V308.469ZM5898.04 292.604H5831.09V308.469H5898.04V292.604ZM5873.75 529.748H5903.35V500.174H5873.75V529.748ZM5825.26 401.8V372.226H5825.19V372.302H5795.65V401.8H5825.26Z" fill="white"/>
<path d="M5842.41 250.988H5825.27V271.202H5842.41V250.988ZM5892.18 384.008V342.133H5825.23V383.925H5825.3V350.626V471.17V413.507H5795.69V384.008H5758.93L5758.95 383.925H5691.99L5691.97 384.008V413.027H5717.64V446.95H5825.23V516.465H5862.58V486.891H5892.18V446.95H5924.35V384.008H5892.18Z" fill="white"/>
<path d="M5682.21 452.792H5707.88V418.183H5682.21V452.792Z" fill="white"/>
</g>
<g clip-path="url(#clip12_461_2)">
<rect width="352.32" height="584.94" transform="translate(5984 0.172119)" fill="white"/>
<path d="M5984 585.112H6336.32V0.172119H5984V585.112Z" fill="black"/>
<path d="M6211.31 49.572H6140.42L6121.07 116.627H6191.18L6211.31 49.572ZM6130.93 317.365H6063.2L6043.99 383.925H6110.95L6130.93 317.365ZM6161.57 215.374H6092.63L6063.2 317.365H6130.94L6161.57 215.374ZM6244.18 250.889H6194.45V271.202H6177.23V292.604H6244.18V250.889ZM6191.22 116.627H6121.12L6111.55 149.773H6181.27L6191.22 116.627ZM6180.91 149.773H6111.19L6092.26 215.366H6161.2L6180.91 149.773ZM6244.18 308.469H6177.23V342.133H6244.18V308.469ZM6244.18 292.604H6177.23V308.469H6244.18V292.604ZM6219.89 523.899H6249.5V494.324H6219.89V523.899ZM6177.26 407.65V378.075H6177.19V378.151H6147.65V407.65H6177.26Z" fill="white"/>
<path d="M6194.41 250.988H6177.27V271.202H6194.41V250.988ZM6244.18 384.008V342.133H6177.23V383.925H6177.3V350.626V471.17V413.507H6147.69V384.008H6110.93L6110.95 383.925H6043.99L6043.97 384.008V413.027H6069.64V446.95H6177.23V516.465H6214.58V486.891H6244.18V446.95H6276.35V384.008H6244.18Z" fill="white"/>
<path d="M6040.06 446.943H6065.73V412.334H6040.06V446.943Z" fill="white"/>
</g>
<g clip-path="url(#clip13_461_2)">
<rect width="352.32" height="584.94" transform="translate(6336 0.172119)" fill="white"/>
<path d="M6336 585.112H6688.32V0.172119H6336V585.112Z" fill="black"/>
<path d="M6563.32 49.572H6492.42L6473.07 116.627H6543.18L6563.32 49.572ZM6482.94 317.365H6415.2L6395.99 383.925H6462.95L6482.94 317.365ZM6513.57 215.374H6444.63L6415.2 317.365H6482.94L6513.57 215.374ZM6596.19 250.889H6546.45V271.202H6529.23V292.604H6596.19V250.889ZM6543.23 116.627H6473.12L6463.56 149.773H6533.28L6543.23 116.627ZM6532.91 149.773H6463.2L6444.26 215.366H6513.21L6532.91 149.773ZM6596.19 308.469H6529.23V342.133H6596.19V308.469ZM6596.19 292.604H6529.23V308.469H6596.19V292.604ZM6571.89 523.899H6601.5V494.324H6571.89V523.899ZM6529.26 413.499V383.925H6529.2V384.001H6499.66V413.499H6529.26Z" fill="white"/>
<path d="M6546.41 250.988H6529.27V271.202H6546.41V250.988ZM6596.18 384.008V342.133H6529.23V383.925H6529.3V350.626V471.17V413.507H6499.69V384.008H6462.93L6462.95 383.925H6395.99L6395.97 384.008V413.027H6421.64V446.95H6529.23V516.465H6566.58V486.891H6596.18V446.95H6628.35V384.008H6596.18Z" fill="white"/>
<path d="M6395.97 446.943H6421.64V412.334H6395.97V446.943Z" fill="white"/>
</g>
<defs>
<clipPath id="clip0_461_2">
<rect width="352.32" height="584.94" fill="white"/>
</clipPath>
<clipPath id="clip1_461_2">
<rect width="352.32" height="584.94" fill="white" transform="translate(1408 0.172119)"/>
</clipPath>
<clipPath id="clip2_461_2">
<rect width="352.32" height="584.94" fill="white" transform="translate(1760 0.172119)"/>
</clipPath>
<clipPath id="clip3_461_2">
<rect width="352.32" height="584.94" fill="white" transform="translate(2112 0.172119)"/>
</clipPath>
<clipPath id="clip4_461_2">
<rect width="352.32" height="584.94" fill="white" transform="translate(2464 0.172119)"/>
</clipPath>
<clipPath id="clip5_461_2">
<rect width="352.32" height="584.94" fill="white" transform="translate(2816 0.172119)"/>
</clipPath>
<clipPath id="clip6_461_2">
<rect width="352.32" height="584.94" fill="white" transform="translate(3520 0.172119)"/>
</clipPath>
<clipPath id="clip7_461_2">
<rect width="352.32" height="584.94" fill="white" transform="translate(3872 0.172119)"/>
</clipPath>
<clipPath id="clip8_461_2">
<rect width="352.32" height="584.94" fill="white" transform="translate(4224 0.172119)"/>
</clipPath>
<clipPath id="clip9_461_2">
<rect width="352.32" height="584.94" fill="white" transform="translate(4576 0.172119)"/>
</clipPath>
<clipPath id="clip10_461_2">
<rect width="352.32" height="584.94" fill="white" transform="translate(4928 0.172119)"/>
</clipPath>
<clipPath id="clip11_461_2">
<rect width="352.32" height="584.94" fill="white" transform="translate(5632 0.172119)"/>
</clipPath>
<clipPath id="clip12_461_2">
<rect width="352.32" height="584.94" fill="white" transform="translate(5984 0.172119)"/>
</clipPath>
<clipPath id="clip13_461_2">
<rect width="352.32" height="584.94" fill="white" transform="translate(6336 0.172119)"/>
</clipPath>
</defs>
</svg>
