<svg width="147" height="243" viewBox="0 0 147 243" fill="none" xmlns="http://www.w3.org/2000/svg">
<path fill-rule="evenodd" clip-rule="evenodd" d="M98.6694 215.43V239.698H146.271V181.668H97.3034C96.1526 185.978 94.2744 189.61 91.6691 192.563C87.3133 197.852 81.0908 200.496 73.0016 200.496C65.2235 200.496 59.1565 197.696 54.8008 192.096C52.4763 189.107 50.7721 185.632 49.6881 181.668H0.679688C0.844115 193.757 2.39486 203.767 5.33193 211.697C8.75431 219.786 13.1101 226.009 18.3992 230.364C23.6883 235.031 29.133 238.143 34.7332 239.698C40.6446 241.565 46.4004 242.498 52.0007 242.498C63.5123 242.498 72.3793 240.165 78.6018 235.498C85.1355 230.831 91.5135 224.142 97.736 215.43H98.6694ZM14.7063 120.472H146.271V74.9576C146.271 62.5126 144.405 51.6232 140.671 42.2895C136.938 32.9557 131.96 25.1776 125.737 18.9551C119.204 12.7326 111.581 8.06571 102.87 4.95447C94.1581 1.84322 84.8243 0.287598 74.8683 0.287598C63.979 0.287598 54.1785 2.15434 45.467 5.88783C36.7555 9.31021 29.2885 14.1327 23.0661 20.3551C9.99881 33.4224 2.84294 50.5343 1.59844 71.6908H47.8005C49.3561 63.9126 52.6229 58.0013 57.6009 53.9566C62.89 49.912 68.6458 47.8897 74.8683 47.8897C83.891 47.8897 90.1135 50.5343 93.5358 55.8234C96.9582 61.1125 98.6694 67.8017 98.6694 75.8909V100.625C96.1804 100.314 93.847 100.159 91.6691 100.159C89.4912 100.159 87.6245 100.003 86.0688 99.692C84.5132 99.3809 82.802 99.2253 80.9353 99.2253H75.8017C60.8677 99.2253 48.5783 100.936 38.9334 104.359C29.2885 107.47 21.666 112.293 16.0657 118.826C15.601 119.364 15.1479 119.913 14.7063 120.472Z" fill="#0202E0"/>
</svg>
