<svg width="1822" height="528" viewBox="0 0 1822 528" fill="none" xmlns="http://www.w3.org/2000/svg">
<path fill-rule="evenodd" clip-rule="evenodd" d="M49.4343 1.66191C38.8554 5.31334 33.4595 29.7856 27.606 100.664C26.5422 113.546 25.4498 128.195 25.1797 133.216C24.4353 147.057 24.5648 146.714 20.0626 146.714H16.2755L15.775 155.249C15.5001 159.944 14.7462 172.537 14.0995 183.236C12.3835 211.629 8.87598 274.685 8.87995 277.078C8.88154 278.12 9.73398 278.479 12.648 278.666L16.4129 278.908L16.1857 285.26C16.0602 288.753 15.6272 296.078 15.2228 301.536C14.8185 306.995 14.117 317.535 13.6641 324.958C12.6027 342.361 8.66148 399.137 6.47197 428.57C6.03343 434.465 5.14047 446.791 4.48743 455.962C3.83519 465.132 2.59187 482.281 1.72512 494.072C-0.338863 522.141 -0.332506 522.648 2.09375 525.072C4.86638 527.843 10.2591 527.811 13.0651 525.007C14.1734 523.898 15.2657 522.202 15.4914 521.236C16.1818 518.286 18.3029 501.249 19.9618 485.338C21.3441 472.078 22.33 461.5 25.5873 424.997C26.0163 420.194 26.9251 408.063 27.6083 398.039C28.2908 388.016 29.0256 379.53 29.2409 379.182C29.8304 378.23 77.8057 378.388 78.3968 379.344C78.6669 379.782 79.3867 387.374 79.9968 396.216C84.1645 456.679 88.6913 494.116 93.8576 510.831C95.9097 517.472 97.9888 521.366 101.018 524.242C103.266 526.376 104.052 526.624 108.58 526.624C114.98 526.624 117.227 525.081 120.62 518.356C124.858 509.954 128.103 494.169 131.163 467.077C133.881 443.003 137.614 397.349 139.179 369.023C139.625 360.944 140.328 349.511 140.741 343.616C141.489 332.95 141.64 330.258 143.156 300.742C143.593 292.227 144.149 283.741 144.391 281.886L144.831 278.511H140.81H136.789L136.797 273.946C136.801 271.435 137.151 264.379 137.576 258.265C138 252.152 138.708 239.647 139.151 230.477C139.882 215.333 140.968 196.941 143.159 162.593C143.591 155.825 143.943 149.304 143.941 148.103C143.939 146.019 144.115 145.92 147.82 145.92H151.701L152.177 141.752C152.439 139.459 153.028 132.224 153.485 125.674C156.308 85.2604 161.709 35.0027 163.412 33.3005C164.556 32.158 168.641 64.8922 171.324 96.6943C172.356 108.93 174.914 144.079 174.921 146.118C174.922 146.445 173.132 146.714 170.943 146.714H166.965L167.372 150.882C168.266 160.023 172.701 237.148 173.729 261.441C173.988 267.555 174.394 273.897 174.631 275.534L175.062 278.511H178.965H182.867L182.884 282.283C182.893 284.357 183.234 291.235 183.642 297.566C184.05 303.898 184.757 316.046 185.213 324.561C189.525 405.076 194.858 467.753 199.636 494.072C203.871 517.389 208.394 526.013 216.816 526.821C226.971 527.797 231.664 520.935 236.223 498.438C240.006 479.777 245.367 426.591 248.027 381.329C248.463 373.906 249.169 363.009 249.595 357.113C250.021 351.218 250.766 338.892 251.25 329.722C251.734 320.552 252.55 305.278 253.063 295.78L253.996 278.511H250.093H246.19L246.702 269.579C246.984 264.667 247.572 253.144 248.009 243.974C248.446 234.804 249.163 222.12 249.601 215.788C250.04 209.457 250.748 197.666 251.176 189.588C251.603 181.509 252.375 168.379 252.892 160.41L253.831 145.92H257.612C262.106 145.92 261.979 146.255 262.716 132.423C264.338 101.969 271.225 35.121 272.914 33.4331C273.611 32.7367 275.072 41.4576 276.984 57.7219C280.258 85.5725 285.055 144.472 284.166 145.91C283.893 146.352 282.059 146.714 280.092 146.714H276.515L276.955 150.088C277.197 151.944 277.938 163.109 278.603 174.899C279.267 186.69 280.16 201.874 280.588 208.643C281.014 215.411 281.724 228.452 282.163 237.622C283.04 255.93 283.577 265 284.265 273.152L284.718 278.511H288.609H292.501V281.266C292.501 284.661 294.581 322.925 295.674 339.646C296.116 346.415 296.839 358.384 297.28 366.244C298.934 395.735 302.736 442.743 305.274 465.092C310.443 510.61 315.507 525.613 326.104 526.807C328.056 527.027 330.97 526.772 332.579 526.241C342.316 523.03 347.841 499.795 353.216 439.458C353.791 433.001 354.42 427.56 354.614 427.366C354.808 427.172 355.59 434.777 356.352 444.267C359.037 477.692 363.303 505.997 367.204 516.257C368.19 518.853 370.319 522.392 371.933 524.122C374.526 526.899 375.371 527.304 379.167 527.585C386.423 528.122 390.553 524.217 394.035 513.524C399.953 495.344 405.055 445.286 407.669 379.741C408.631 355.614 410.08 300.078 410.08 287.338V278.511H406.108H402.136L402.118 248.936C402.1 219.51 401.08 173.041 400.061 155.249L399.528 145.92H403.689H407.849L407.351 137.782C407.077 133.305 406.328 120.533 405.686 109.398C404.384 86.7888 402.855 69.3328 400.471 49.8506C397.266 23.6665 393.785 10.2018 388.759 4.54161C386.168 1.6238 385.307 1.17204 381.668 0.822697C379.281 0.593242 376.597 0.828253 375.333 1.37767C368.022 4.55193 363.711 18.3629 359.704 51.4385C356.923 74.4014 355.541 90.6054 352.864 131.629C352.394 138.834 351.859 145.176 351.675 145.721C351.475 146.315 349.929 146.714 347.823 146.714H344.306L343.812 152.867C343.539 156.251 342.966 167.595 342.537 178.075C341.767 196.859 341.303 206.461 338.968 251.935C338.317 264.611 337.785 275.776 337.785 276.746C337.785 278.337 338.181 278.511 341.806 278.511H345.826L345.375 283.871C345.128 286.818 344.385 298.698 343.725 310.27C339.751 379.975 337.226 416.63 334.209 448.419C331.998 471.729 328.681 495.957 327.82 495.096C327.296 494.572 324.326 473.719 323.096 461.916C321.972 451.137 321.517 446.267 319.52 423.608C317.657 402.469 312.643 322.79 311.127 290.222L310.582 278.511H306.741C303.019 278.511 302.889 278.432 302.508 275.931C302.291 274.511 301.913 268.706 301.666 263.029C301.421 257.352 300.869 246.991 300.443 240.004C300.015 233.017 299.303 220.512 298.859 212.216C296.781 173.396 295.693 154.68 295.268 150.485L294.806 145.92H298.886H302.965L302.487 140.164C302.224 136.997 301.285 124.761 300.4 112.97C296.725 64.0045 292.389 30.3946 288.01 16.9012C283.83 4.02712 277.987 -0.874794 269.532 1.3999C262.515 3.28874 258.302 12.3891 254.453 33.9714C251.499 50.535 247.888 84.0774 245.607 116.146C244.028 138.33 243.418 144.999 242.886 145.858C242.596 146.329 240.77 146.714 238.829 146.714C235.627 146.714 235.301 146.891 235.301 148.635C235.301 149.693 234.953 155.855 234.527 162.331C234.101 168.807 233.019 187.504 232.122 203.879C231.225 220.254 229.965 242.668 229.321 253.687C227.701 281.423 227.364 278.511 232.198 278.511H236.245L235.793 282.283C235.544 284.357 234.959 293.378 234.491 302.33C229.937 389.571 225.251 450.254 220.513 483.353C219.294 491.873 218.679 494.794 218.205 494.321C217.021 493.139 212.879 458.61 210.316 428.57C208.32 405.174 207.158 387.981 203.555 328.531C203.144 321.762 202.41 308.186 201.923 298.36C201.436 288.535 200.893 280.05 200.716 279.504C200.522 278.905 198.981 278.511 196.831 278.511C192.409 278.511 192.841 280.836 191.222 248.341C189.34 210.515 186.349 159.47 185.513 150.882L185.031 145.92H189.113C191.852 145.92 193.193 145.594 193.189 144.927C193.185 144.382 192.308 132.502 191.239 118.528C184.476 30.1064 179.178 4.70199 166.806 1.37291C151.734 -2.68343 145.754 13.4737 139.604 74.8604C138.553 85.3406 137.484 96.7737 137.228 100.267C136.97 103.761 136.233 112.871 135.588 120.513C134.943 128.155 134.413 136.748 134.41 139.608C134.407 142.588 133.999 145.215 133.452 145.761C132.928 146.285 130.962 146.714 129.083 146.714C125.804 146.714 125.667 146.811 125.667 149.135C125.667 150.466 124.963 162.882 124.102 176.725C123.242 190.568 122.165 209.04 121.708 217.773C121.252 226.507 120.545 239.548 120.137 246.753C119.73 253.958 119.173 264.052 118.899 269.182L118.402 278.511H122.447C126.22 278.511 126.467 278.631 126.127 280.298C125.927 281.281 125.55 287.265 125.289 293.597C124.171 320.783 119.354 397.061 116.916 426.188C114.401 456.242 110.542 490.104 109.226 493.675C107.148 499.314 100.73 438.453 97.0855 378.55C96.6207 370.909 95.8946 360.011 95.472 354.335C95.0493 348.658 94.1317 333.473 93.4318 320.591C92.7327 307.709 91.9231 293.061 91.634 288.039L91.108 278.908L87.3749 278.668C84.677 278.495 83.5361 278.054 83.2636 277.08C83.0555 276.339 82.6583 270.016 82.3794 263.029C82.1006 256.042 81.5397 244.788 81.1321 238.019C80.7246 231.251 79.8562 215.709 79.2032 203.482C78.1227 183.262 77.2147 169.048 75.9205 152.073L75.451 145.92H79.5861H83.722L83.2327 140.561C82.9633 137.613 82.3874 129.663 81.9512 122.895C80.9963 108.051 79.3192 88.9762 77.136 68.1117C72.3129 22.0175 67.0346 4.0954 57.5036 1.44993C53.8721 0.441596 52.8957 0.467796 49.4343 1.66191ZM458.06 1.40149C455.079 2.60593 451.592 7.8032 449.479 14.1898C444.183 30.2056 438.808 77.6527 436.386 129.775C435.998 138.145 435.44 145.379 435.147 145.853C434.854 146.326 433.083 146.714 431.21 146.714H427.806L427.296 160.807C426.302 188.276 425.072 253.679 425.32 265.808L425.572 278.114L429.244 278.353L432.915 278.59L433.467 309.317C434.827 384.924 439.047 455.073 444.32 489.705C448.53 517.355 453.542 527.815 462.58 527.815C472.681 527.815 477.253 519.365 481.482 492.881C483.442 480.612 486.034 456.702 487.12 440.876C487.569 434.326 488.124 427.359 488.353 425.394C489.502 415.495 492.013 348.318 492.455 315.629L492.956 278.511H488.984H485.011L484.492 227.102C484.206 198.827 483.737 168.995 483.449 160.807L482.925 145.92H486.719H490.513L489.969 132.621C489.671 125.306 489.097 114.677 488.695 109.001C488.293 103.324 487.593 93.4986 487.14 87.1667C486.013 71.3963 483.395 47.514 481.484 35.5593C478.154 14.7257 474.371 4.65911 468.791 1.77545C466.367 0.522577 460.723 0.325674 458.06 1.40149ZM539.887 2.08907C529.563 8.57652 523.86 45.3258 519.047 136.392L518.523 146.317L514.836 146.555L511.149 146.794L510.651 150.922C509.827 157.761 508.619 214.919 508.605 247.745L508.592 278.511H512.564H516.537V294.668C516.537 340.37 519.371 409.539 522.934 450.801C526.81 495.699 531.138 516.798 537.973 524.122C540.555 526.887 541.428 527.308 545.208 527.611C551.105 528.085 554.203 525.963 557.661 519.081C567.182 500.13 573.291 427.479 575.77 303.72L576.275 278.511H572.225H568.176L568.154 251.715C568.132 225.05 567.157 180.246 566.107 157.73L565.557 145.92H569.647C572.391 145.92 573.736 145.594 573.733 144.927C573.713 139.502 570.195 86.8063 568.95 73.2724C564.848 28.7138 560.487 9.21407 553.155 2.65833C550.598 0.372518 543.129 0.0517617 539.887 2.08907ZM624.12 1.39435C621.952 2.27088 618.485 6.436 616.917 10.0501C610.946 23.8063 605.058 71.991 602.374 129.063C601.959 137.915 601.401 145.507 601.136 145.935C600.872 146.364 599.113 146.714 597.228 146.714H593.801L593.266 161.601C592.107 193.808 591.237 233.942 591.226 255.685L591.215 278.511H595.187H599.16L599.169 285.855C599.174 289.894 599.532 308.563 599.964 327.34C602.442 434.948 608.859 503.334 618.065 520.247C621.13 525.877 624.635 528.048 629.97 527.62C639.522 526.854 643.493 518.264 647.961 488.704C653.468 452.27 657.432 386.364 658.49 313.644L659.001 278.511H655.026H651.052L650.529 225.911C650.241 196.982 649.773 167.149 649.487 159.616L648.968 145.92H652.771H656.573L656.023 133.415C655.052 111.307 652.869 81.401 650.763 61.363C646.811 23.7285 642.317 6.54318 635.298 2.20736C632.624 0.555922 627.175 0.158946 624.12 1.39435ZM705.943 2.07954C698.349 6.85283 693.981 24.7432 689.726 68.5087C688.032 85.9377 684.963 131.539 684.961 139.305C684.96 146.169 684.635 146.714 680.542 146.714C677.261 146.714 677.067 146.843 676.668 149.294C675.873 154.182 674.629 213.076 674.631 245.76L674.633 278.511H678.475H682.319L682.844 314.041C684.109 399.59 688.499 465.617 695.315 501.614C697.541 513.379 699.852 519.497 703.647 523.687C706.458 526.791 707.336 527.266 710.867 527.605C722.238 528.698 727.188 518.16 731.838 482.956C737.184 442.475 739.983 390.669 741.712 300.147L742.125 278.511H738.171H734.216L734.193 255.288C734.17 231.509 733.134 182.972 732.142 159.219L731.587 145.92H735.765H739.943L739.449 139.767C739.176 136.383 738.423 124.145 737.775 112.573C735.862 78.4284 732.449 45.0908 729.044 27.3132C726.614 14.6194 723.545 6.74644 719.587 3.05691C716.711 0.376493 709.477 -0.141966 705.943 2.07954ZM787.534 3.41815C782.928 7.57613 780.07 15.688 777.187 32.7804C773.65 53.7616 770.262 90.9873 768.424 129.073C767.996 137.929 767.433 145.52 767.171 145.944C766.91 146.368 765.151 146.714 763.263 146.714H759.832L759.306 159.616C758.133 188.4 757.279 227.187 757.267 252.112L757.255 278.511H761.228H765.2L765.208 289.428C765.246 343.866 769.635 435.262 774.005 472.635C778.965 515.058 783.817 527.815 794.992 527.815C804.674 527.815 809.479 518.406 813.642 491.293C819.246 454.804 823.329 387.414 824.518 311.823L825.043 278.511H820.941H816.839V248.902C816.839 218.389 815.544 151.974 814.874 148.103C814.502 145.957 814.565 145.92 818.555 145.92H822.614L822.063 134.209C819.607 82.0806 814.998 37.8316 810.072 19.0957C806.421 5.20854 802.635 0.625 794.817 0.625C791.14 0.625 790.248 0.967195 787.534 3.41815ZM871.918 2.11924C867.568 4.85046 864.309 11.9771 861.709 24.4438C858.01 42.1809 854.248 78.4141 852.187 116.146C851.471 129.247 850.711 141.483 850.497 143.339L850.108 146.714H846.305H842.502L841.989 160.807C841.707 168.557 841.238 198.213 840.948 226.705L840.419 278.511H844.037H847.655L848.116 290.619C848.369 297.278 848.778 313.803 849.023 327.34C850.444 405.447 855.321 473.364 861.709 503.996C865.272 521.081 870.032 527.821 878.529 527.812C888.998 527.802 893.961 515.142 898.605 476.605C903.639 434.822 907.35 360.962 907.391 301.735L907.407 278.511H903.832H900.257L900.234 260.449C900.208 239.329 898.976 178.405 898.187 159.219L897.64 145.92H901.734H905.829L905.4 140.561C905.164 137.613 904.439 125.59 903.79 113.845C900.682 57.6409 895.552 20.2946 889.253 8.01757C886.621 2.88779 884.155 1.16013 878.994 0.829844C875.458 0.602772 873.872 0.891774 871.918 2.11924ZM953.863 3.12995C948.891 7.49356 946.216 14.829 943.2 32.3834C939.716 52.658 936.183 91.2326 934.411 128.349C933.965 137.68 933.406 145.629 933.168 146.014C932.93 146.399 931.191 146.714 929.303 146.714H925.87L925.345 157.234C924.442 175.272 923.323 228.564 923.308 254.097L923.296 278.511H927.175H931.054L931.577 310.071C932.718 378.883 935.472 431.974 940.007 472.635C943.005 499.51 946.96 516.778 951.473 522.692C958.225 531.538 968.827 528.87 973.713 517.097C979.779 502.481 985.86 447.919 988.447 384.902C989.544 358.164 990.807 308.763 990.816 292.207L990.824 278.511H986.852H982.88V252.276C982.88 232.142 981.688 167 980.985 148.699C980.897 146.395 981.022 146.309 984.783 146.07L988.673 145.823L988.133 134.557C986.46 99.6359 982.693 56.4587 979.633 37.1472C976.399 16.7313 973.368 7.66346 968.286 3.20379C965.742 0.971962 964.766 0.625 961.032 0.625C957.324 0.625 956.317 0.976724 953.863 3.12995ZM1038.01 2.13432C1027.63 8.45822 1022.17 42.4453 1017.1 132.2C1016.7 139.283 1016.14 145.446 1015.86 145.896C1015.59 146.345 1013.82 146.714 1011.95 146.714H1008.54L1008.03 158.425C1007.75 164.866 1007.28 194.52 1006.99 224.324L1006.46 278.511H1010.06H1013.65L1014.15 282.195C1014.43 284.221 1014.66 294.85 1014.66 305.816C1014.65 352.756 1017.89 423.163 1021.84 461.916C1026.17 504.332 1030.53 521.744 1037.96 526.274C1040.97 528.107 1046.4 528.287 1049.55 526.657C1054.56 524.066 1058.54 514.514 1061.5 497.916C1068.11 460.985 1073.36 373.73 1073.43 299.75L1073.45 278.511H1069.87H1066.3L1066.27 266.403C1066.24 248.581 1064.89 178.876 1064.24 161.204L1063.67 145.92H1067.8H1071.93L1071.52 143.339C1071.29 141.921 1070.72 132.363 1070.25 122.101C1069.78 111.839 1069.04 99.3342 1068.62 94.3124C1068.19 89.2906 1067.48 80.7158 1067.04 75.2573C1065.89 60.9176 1063.38 40.4898 1061.53 30.3707C1057.43 8.00566 1053.1 0.630561 1044.05 0.630561C1041.94 0.630561 1039.47 1.24747 1038.01 2.13432ZM1119.9 3.12995C1116.48 6.13112 1114.69 9.4737 1112.52 16.9012C1107.78 33.0853 1103.35 72.6087 1100.84 121.202C1100.17 134.142 1099.47 145.176 1099.27 145.721C1099.06 146.31 1097.5 146.714 1095.44 146.714H1091.95L1091.42 156.44C1090.41 174.737 1089.38 221.725 1089.36 250.127L1089.34 278.511H1093.31H1097.28L1097.29 291.016C1097.38 365.987 1102.72 457.93 1109.21 496.057C1113.22 519.609 1117.84 527.815 1127.07 527.815C1136.82 527.815 1141.46 518.484 1145.73 490.273C1151.28 453.661 1155.23 387.804 1156.59 309.277L1157.12 278.511H1153.02H1148.92L1148.91 254.097C1148.89 225.36 1147.61 160.897 1146.88 152.073L1146.37 145.92H1150.53H1154.69L1154.14 135.4C1152.11 96.6744 1148.72 57.1971 1145.77 37.9412C1142.59 17.2863 1139.38 7.64282 1134.16 3.06087C1131.79 0.982283 1130.75 0.625 1127.07 0.625C1123.36 0.625 1122.36 0.976724 1119.9 3.12995ZM1204.93 1.38244C1194.91 5.52612 1188.75 38.2953 1184.63 109.398C1183.73 124.9 1182.75 139.548 1182.44 141.95L1181.89 146.317L1178.23 146.554L1174.57 146.792L1174.06 156.876C1173.78 162.422 1173.31 192.059 1173.03 222.736L1172.51 278.511H1176.08H1179.65L1180.18 291.739C1180.46 299.014 1180.7 310.714 1180.7 317.741C1180.7 352.004 1184.56 430.24 1187.85 462.48C1192.85 511.5 1198.22 527.815 1209.36 527.815C1218.97 527.815 1223.39 520.46 1227.52 497.645C1233.9 462.44 1239.43 371.395 1239.47 300.941L1239.49 278.511H1235.91H1232.34L1232.32 262.434C1232.3 246.115 1231.28 196.868 1230.28 163.982L1229.73 145.92H1233.42H1237.1L1237.1 141.752C1237.08 126.796 1233.2 72.6762 1230.7 52.3928C1226.69 19.9929 1222.68 6.12556 1216.19 2.16608C1213.56 0.566248 1207.86 0.169268 1204.93 1.38244ZM1287.42 1.59998C1283.82 3.7143 1280.27 9.89052 1278.19 17.6952C1273.57 34.9837 1269.31 73.6837 1266.85 120.838C1266.17 133.978 1265.46 145.176 1265.28 145.721C1265.09 146.316 1263.56 146.714 1261.46 146.714H1257.96L1257.44 154.455C1256.46 168.969 1255.41 216.914 1255.39 247.745L1255.38 278.511H1259.35H1263.32L1263.33 293.795C1263.35 320.479 1264.87 372.392 1266.51 402.369C1270.29 471.267 1275.68 511.259 1282.59 521.498C1287.91 529.386 1297.11 529.975 1302.61 522.778C1313.11 509.019 1320.21 432.521 1322.61 307.292L1323.16 278.511H1319.06H1314.96L1314.95 251.715C1314.94 224.212 1313.84 171.853 1312.92 155.249L1312.4 145.92H1316.56H1320.71L1320.18 136.591C1316.13 65.729 1311.89 28.339 1306.07 12.3058C1305.15 9.77857 1303.09 6.23275 1301.48 4.42728C1298.77 1.37609 1298.23 1.1244 1293.85 0.867158C1290.98 0.698839 1288.47 0.985456 1287.42 1.59998ZM1370.9 1.39435C1368.73 2.27485 1365.26 6.4495 1363.72 10.0501C1357.89 23.6467 1352.84 63.8005 1349.88 120.116C1349.4 129.286 1348.77 138.933 1348.47 141.553L1347.93 146.317L1344.28 146.554L1340.62 146.791L1340.13 156.082C1339.34 171.009 1337.71 275.832 1338.25 277.234C1338.6 278.148 1339.77 278.511 1342.34 278.511H1345.94L1345.97 285.458C1346.01 298.229 1347.47 355.668 1348.31 377.359C1350.04 422.173 1353.32 463.951 1357.12 489.471C1360.37 511.349 1364.14 522.254 1369.78 526.072C1372.06 527.622 1373.3 527.897 1376.75 527.621C1385.96 526.881 1390.23 518.329 1394.3 492.484C1396.67 477.449 1398.24 463.565 1399.57 446.037C1400.21 437.522 1400.92 428.947 1401.14 426.982C1402.62 414.165 1405.51 329.578 1405.52 298.956L1405.53 278.511H1402.05H1398.56L1398.06 246.951C1397.78 229.593 1397.2 202.529 1396.77 186.809C1396.34 171.088 1395.99 155.457 1395.99 152.073V145.92H1399.67H1403.35L1402.8 132.224C1400.93 85.7765 1395.88 37.6387 1390.8 17.9349C1389.05 11.1593 1385.07 3.89771 1382.12 2.09939C1379.59 0.558309 1373.86 0.19785 1370.9 1.39435ZM1452.8 2.03666C1450.11 3.72701 1446.54 9.77381 1444.83 15.5427C1439.84 32.3453 1435.36 71.4503 1432.89 119.719C1432.19 133.475 1431.48 145.176 1431.31 145.721C1431.12 146.319 1429.61 146.714 1427.49 146.714H1423.99L1423.47 153.264C1422.46 166.129 1421.44 211.979 1421.43 244.966L1421.42 278.511H1425.39H1429.36V296.372C1429.36 352.944 1433.32 433.117 1438.14 474.223C1442.88 514.636 1447.42 526.761 1458.14 527.621C1463.88 528.08 1467.03 525.889 1470.48 519.053C1480.05 500.084 1485.97 429.945 1488.65 303.72L1489.19 278.511H1485.09H1481L1480.97 254.891C1480.94 227.647 1479.76 169.909 1478.94 155.646L1478.38 145.92H1482.53H1486.69L1486.2 137.782C1484.5 109.666 1484.04 102.247 1483.32 91.9305C1482.33 77.671 1479.86 53.1304 1478.24 41.514C1475.38 20.9845 1472.1 9.58564 1467.59 4.5035C1464.81 1.37768 1464.28 1.12282 1459.89 0.84096C1456.27 0.607535 1454.63 0.882243 1452.8 2.03666ZM1536.94 1.39435C1534.77 2.27485 1531.3 6.4495 1529.76 10.0501C1523.89 23.7372 1518.61 65.9283 1515.93 120.513C1515.47 129.902 1514.84 139.548 1514.53 141.95L1513.97 146.317L1510.31 146.554L1506.65 146.792L1506.15 159.258C1505.34 179.077 1503.89 260.606 1504.18 269.778L1504.44 278.114L1508.11 278.353L1511.79 278.591L1512.32 307.729C1512.87 337.367 1515.63 413.982 1516.34 419.042C1516.55 420.571 1517.1 427.716 1517.56 434.922C1520.18 476.378 1525.56 510.638 1530.94 520.223C1534.17 525.975 1537.49 528.045 1542.79 527.621C1551.99 526.882 1556.23 518.421 1560.37 492.484C1566.01 457.117 1570.38 386.82 1571.32 316.423L1571.82 278.511H1567.84H1563.86L1563.34 228.293C1563.06 200.673 1562.6 170.84 1562.32 161.998L1561.8 145.92H1565.49H1569.18L1569.18 142.149C1569.15 127.451 1565.43 75.9425 1562.8 53.8204C1558.73 19.6642 1554.57 5.34907 1547.66 1.77545C1545.24 0.525753 1539.59 0.324884 1536.94 1.39435ZM1618.84 2.03666C1616.15 3.72701 1612.58 9.77381 1610.87 15.5427C1605.9 32.2628 1601.38 71.6861 1598.93 119.719C1598.23 133.475 1597.52 145.176 1597.35 145.721C1597.16 146.319 1595.65 146.714 1593.53 146.714H1590.03L1589.51 153.264C1588.51 165.854 1587.48 212.486 1587.47 245.363L1587.46 278.511H1591.31H1595.17L1595.71 313.644C1596.82 384.484 1599.64 436.44 1604.59 477.002C1608.09 505.617 1611.37 518.266 1616.84 524.122C1619.43 526.899 1620.28 527.304 1624.07 527.585C1629.27 527.97 1632.48 526.273 1635.44 521.592C1640.4 513.745 1644.44 492.147 1647.79 455.565C1649.25 439.567 1649.92 429.966 1651.81 397.605C1652.61 383.829 1653.77 346.048 1654.68 303.72L1655.23 278.511H1651.13H1647.04L1647.02 249.333C1647.01 220.42 1646.02 175.546 1644.98 156.043L1644.43 145.92H1648.52C1652.23 145.92 1652.6 145.757 1652.58 144.133C1652.57 143.151 1652.23 136.988 1651.82 130.438C1651.42 123.887 1650.7 112.097 1650.22 104.237C1649.06 85.0874 1646.6 58.3992 1644.69 44.2929C1641.56 21.1965 1638.42 9.90244 1633.63 4.5035C1630.85 1.37768 1630.32 1.12282 1625.93 0.84096C1622.31 0.607535 1620.67 0.882243 1618.84 2.03666ZM1702.98 1.39435C1700.8 2.27644 1697.34 6.45744 1695.81 10.0501C1689.84 24.0627 1683.77 74.4149 1681.28 130.522C1680.93 138.428 1680.39 145.305 1680.08 145.806C1679.77 146.305 1677.98 146.714 1676.11 146.714H1672.69L1672.18 159.616C1671.36 180.62 1669.94 259.921 1670.22 269.381L1670.48 278.114L1674.16 278.353L1677.84 278.591L1678.38 308.126C1680.12 403.224 1685.58 479.045 1692.78 508.314C1696.02 521.454 1700.81 527.815 1707.49 527.815C1717.64 527.815 1722.22 519.282 1726.43 492.484C1732.1 456.449 1736.43 386.763 1737.35 316.82L1737.86 278.511H1733.89H1729.91L1729.39 226.308C1729.1 197.596 1728.64 167.763 1728.35 160.013L1727.83 145.92H1731.53H1735.22L1735.22 141.752C1735.2 134.055 1733.61 106.787 1732.03 87.1667C1727.36 29.179 1722.44 6.29547 1713.7 1.77545C1711.28 0.525753 1705.63 0.324884 1702.98 1.39435ZM1785.49 1.61745C1781.13 4.15098 1777.54 11.7079 1774.82 24.0468C1771.31 40.0039 1767.41 76.638 1765.35 112.97C1764.85 121.704 1764.22 132.78 1763.94 137.583L1763.43 146.317L1759.74 146.555L1756.06 146.793L1755.55 153.304C1754.55 165.86 1753.52 212.532 1753.51 245.363L1753.5 278.511H1757.47H1761.44V291.867C1761.44 353.584 1765.97 442.638 1771.05 480.917C1774.46 506.596 1777.75 518.629 1782.88 524.122C1785.47 526.899 1786.32 527.304 1790.11 527.585C1801.32 528.415 1805.87 518.812 1810.69 484.193C1813.97 460.667 1816.93 421.528 1818.61 379.741C1819.54 356.533 1821.03 299.506 1821.03 286.826V278.511H1817.05H1813.08L1813.06 249.333C1813.05 220.42 1812.06 175.546 1811.02 156.043L1810.47 145.92H1814.56C1817.31 145.92 1818.64 145.594 1818.64 144.919C1818.64 138.957 1815.09 84.9341 1813.86 72.0743C1809.82 30.15 1805.92 11.538 1799.67 4.5035C1796.89 1.36736 1796.37 1.12599 1791.98 0.867158C1789.08 0.697251 1786.58 0.985458 1785.49 1.61745ZM52.6963 38.0364C50.5012 50.4802 47.2273 81.0397 45.0092 109.795C44.3355 118.528 43.4465 129.961 43.035 135.201C42.6227 140.442 42.2771 144.997 42.2676 145.324C42.2572 145.651 40.4967 145.92 38.3557 145.92H34.4613L33.9377 155.249C33.6501 160.379 32.9113 172.26 32.2964 181.648C31.6815 191.037 30.7997 206.4 30.3365 215.788C29.8725 225.177 29.1631 237.682 28.7595 243.577C28.3559 249.472 27.7791 259.744 27.4788 266.403L26.9331 278.511H30.7202H34.5081L33.9512 292.207C33.6454 299.74 32.7095 316.621 31.8714 329.722C31.034 342.822 30.3444 355.238 30.3405 357.312L30.3325 361.083H53.8888H77.4451L76.9001 348.578C76.5998 341.7 75.8546 328.035 75.2437 318.209C74.6319 308.384 73.8931 295.433 73.6015 289.428L73.07 278.511H69.2153C65.4711 278.511 65.3496 278.438 64.9928 275.931C64.7903 274.511 63.86 257.987 62.9249 239.21C61.9898 220.433 60.7274 197.388 60.1189 188C59.5103 178.611 58.7874 166.106 58.5117 160.211C58.236 154.316 57.8372 148.867 57.6243 148.103C57.2962 146.928 57.7895 146.714 60.8188 146.714C62.7882 146.714 64.5837 146.418 64.8077 146.055C65.4989 144.938 61.9994 96.9468 59.3562 71.2875C57.7872 56.0609 54.92 35.4394 54.1804 34.0666C53.8229 33.4037 53.2381 34.9694 52.6963 38.0364ZM379.566 39.9221C377.373 48.6533 371.216 124.41 371.16 143.339C371.152 145.899 371.12 145.92 367.254 145.92H363.356L362.864 153.264C361.929 167.221 360.829 218.673 360.827 248.539L360.824 278.511H364.668H368.511L369.029 314.438C369.869 372.798 373.212 434.957 377.566 473.16C379.411 489.356 380.156 492.568 380.928 487.672C385.519 458.575 389.714 391.217 391.01 325.769C391.434 304.363 391.787 284.972 391.794 282.68L391.808 278.511H387.836H383.863L383.854 252.509C383.843 225.711 382.72 172.511 381.816 156.043L381.304 146.714H384.92C386.909 146.714 388.703 146.445 388.907 146.115C389.48 145.188 387.236 104.03 385.453 82.8C383.858 63.7902 381.034 38.8193 380.411 38.196C380.23 38.015 379.85 38.7923 379.566 39.9221ZM461.476 47.6005C459.403 63.2558 457.113 89.5216 455.382 117.514C454.498 131.803 453.775 144.041 453.775 144.707C453.775 145.628 452.848 145.92 449.924 145.92H446.071L445.514 157.631C444.934 169.782 443.52 245.192 443.473 266.403L443.447 278.511H447.325H451.202L451.716 304.117C453.329 384.511 456.699 445.555 461.427 480.011C462.164 485.379 463.015 489.487 463.319 489.142C463.623 488.797 464.466 483.512 465.192 477.398C470.299 434.429 473.153 382.372 474.168 313.693L474.687 278.609L470.785 278.361L466.884 278.114L466.399 227.698C465.941 180.101 465.314 155.1 464.435 149.339C464.049 146.812 464.061 146.802 467.849 146.56L471.65 146.317L471.548 135.598C471.322 112.022 465.45 42.9201 463.328 38.8669C463.022 38.2842 462.19 42.2143 461.476 47.6005ZM545.647 39.5291C543.518 47.764 538.923 100.942 537.535 133.415L537 145.92H533.187H529.374L528.944 150.882C528.047 161.243 526.841 216.659 526.853 246.951L526.865 278.511H530.71H534.555L535.059 316.026C535.604 356.464 537.8 407.699 540.347 439.383C542.196 462.38 545.038 488.026 545.917 489.627C546.56 490.801 547.438 485.155 549.487 466.68C552.717 437.541 555.887 381.309 556.65 339.646C556.878 327.201 557.25 308.355 557.477 297.765L557.891 278.511H553.897H549.904L549.901 256.876C549.899 233.336 548.662 171.019 547.899 156.043L547.425 146.714H551.001C552.967 146.714 554.756 146.424 554.975 146.069C556.489 143.621 549.401 52.2245 546.773 40.323C546.192 37.6863 546.134 37.6458 545.647 39.5291ZM627.506 47.2654C625.587 61.0041 623.249 87.1382 621.84 110.589C621.158 121.942 620.39 134.536 620.133 138.576L619.667 145.92H615.881H612.096L611.559 155.249C610.898 166.761 609.536 236.842 609.508 260.846L609.488 278.511H613.299H617.11L618.095 319.599C619.655 384.604 621.305 418.82 624.615 454.771C626.071 470.575 628.362 488.961 628.952 489.566C630.206 490.854 634.133 453.878 636.103 422.218C638.68 380.838 640.471 328.582 640.471 294.827V278.599L636.698 278.357L632.924 278.114L632.442 230.08C631.974 183.246 631.271 154.513 630.468 149.294L630.071 146.714H633.707C636.404 146.714 637.478 146.363 637.864 145.357C639.505 141.085 631.291 40.4112 629.126 38.2468C628.952 38.0738 628.223 42.1325 627.506 47.2654ZM711.736 38.7351C709.903 43.3734 704.771 102.16 703.574 132.224L703.029 145.92H699.227H695.424L694.973 151.676C693.924 165.078 692.891 210.736 692.898 243.379L692.905 278.511H696.748H700.59L701.125 317.614C701.668 357.241 703.764 408.283 706.009 436.51C707.664 457.338 711.195 489.156 711.938 489.948C712.624 490.681 712.874 489.057 715.098 469.451C719.45 431.069 722.689 365.504 723.256 304.315L723.491 278.908L719.718 278.666L715.944 278.424L715.938 261.199C715.929 239.895 714.592 171.485 713.905 157.234L713.398 146.714H717.008C718.992 146.714 720.771 146.445 720.96 146.118C721.965 144.372 717.867 83.6368 715.053 58.5841C713.13 41.456 712.396 37.0646 711.736 38.7351ZM793.87 44.0634C791.519 59.7497 788.538 95.7169 786.199 136.591L785.665 145.92H781.867H778.068L777.572 154.852C776.834 168.13 775.529 233.78 775.529 257.67L775.528 278.511H779.372H783.216L783.758 308.086C784.89 369.894 787.747 427.897 791.406 463.395C792.963 478.502 794.4 488.982 794.997 489.577C796.276 490.856 800.107 454.104 802.142 421.027C804.596 381.141 806.511 324.425 806.511 291.633V278.599L802.738 278.357L798.964 278.114L798.484 230.08C798.036 185.229 797.5 163.632 796.539 151.676L796.139 146.714H799.762C802.376 146.714 803.522 146.354 803.88 145.421C805.477 141.261 797.261 40.3413 795.153 38.2349C794.958 38.0388 794.38 40.6621 793.87 44.0634ZM875.761 52.4667C874.814 60.4166 873.686 71.5654 873.256 77.2422C872.825 82.9191 872.29 88.9929 872.066 90.7396C871.455 95.5129 869.274 134.419 869.274 140.561L869.273 145.92H865.349H861.426L861.003 149.294C859.842 158.553 857.73 271.447 858.633 275.96C859.124 278.414 859.292 278.511 863.017 278.511H866.89L866.902 301.735C866.929 354.987 870.885 435.839 875.188 471.047C875.828 476.287 876.587 482.628 876.876 485.14C877.496 490.54 878.408 491.036 879.054 486.323C884.461 446.896 888.67 372.887 889.369 304.911L889.64 278.511H885.812H881.984L881.975 267.197C881.961 249.197 880.51 172.118 879.935 158.869L879.413 146.808L883.241 146.563L887.07 146.317L886.865 137.98C886.466 121.724 883.329 78.7579 881.163 59.8553C879.007 41.0614 878.671 38.7454 878.041 38.3556C877.735 38.1666 876.709 44.5168 875.761 52.4667ZM960.63 38.404C960.628 38.805 960.27 41.2758 959.836 43.8959C957.871 55.7489 953.849 104.202 952.207 135.797L951.681 145.92H947.918H944.156L943.631 154.455C942.94 165.686 941.602 233.903 941.583 258.861L941.568 278.511H945.412H949.255L949.784 310.071C950.758 368.096 953.01 415.593 956.699 455.962C958.326 473.766 960.559 490.84 961.178 490.221C962.354 489.046 966.395 448.748 968.155 420.63C970.469 383.674 972.552 321.014 972.552 288.314V278.599L968.778 278.357L965.004 278.114L964.52 231.668C964.071 188.694 963.681 173.249 962.557 154.058L962.128 146.714H965.776C968.299 146.714 969.566 146.344 969.885 145.513C971.478 141.364 963.184 40.2238 961.078 38.1198C960.834 37.8761 960.633 38.0039 960.63 38.404ZM1041.77 52.4627C1039.39 72.2816 1037.15 99.7923 1036.1 122.101C1034.91 147.463 1035.24 145.92 1030.92 145.92C1027.91 145.92 1027.35 146.177 1027.04 147.706C1026.13 152.14 1024.97 203.86 1024.98 239.409L1024.99 278.511H1028.96H1032.93L1032.95 300.544C1032.99 360.358 1036.74 434.789 1041.82 476.452C1044.05 494.77 1044.44 494.121 1047.25 467.542C1051.3 429.195 1054.77 359.29 1055.31 305.109L1055.57 278.908L1051.6 278.511L1047.63 278.114L1047.14 225.713C1046.88 196.892 1046.38 167.327 1046.03 160.013L1045.4 146.714H1049.22H1053.04L1052.53 132.621C1051.4 101.214 1045.85 39.4489 1044.06 38.3445C1043.76 38.1571 1042.73 44.5104 1041.77 52.4627ZM1125.96 43.2488C1123.37 59.1502 1118.04 124.771 1117.96 141.752L1117.94 145.92H1114.04H1110.14L1109.67 153.264C1108.92 164.792 1107.6 230.47 1107.61 255.685L1107.61 278.511H1111.46H1115.3L1115.81 311.659C1116.39 349.61 1118.13 396.192 1119.94 422.218C1122.13 453.581 1126.12 491.317 1127.15 490.289C1127.76 489.675 1130.65 464.794 1132.19 446.831C1135.42 409.17 1138.59 331.326 1138.59 289.643V278.511H1134.62H1130.65L1130.64 246.157C1130.64 216.423 1129.83 180.529 1128.63 156.486L1128.15 146.806L1131.98 146.561L1135.81 146.317L1135.58 137.186C1135.28 125.014 1133.37 94.1504 1131.83 76.4483C1130.57 62.0149 1127.72 38.7208 1127.15 38.1476C1126.98 37.9769 1126.44 40.2722 1125.96 43.2488ZM1209.31 39.1321C1209.28 40.0055 1208.74 44.6501 1208.09 49.4536C1206.22 63.3781 1203.91 90.5419 1202.59 114.161C1201.91 126.17 1201.16 138.21 1200.9 140.916L1200.44 145.837L1196.73 146.077L1193.01 146.317L1192.54 156.241C1191.77 172.658 1190.05 276.099 1190.53 277.35C1190.83 278.125 1192.14 278.511 1194.46 278.511H1197.95L1198.46 282.68C1198.73 284.972 1198.96 295.78 1198.98 306.697C1199.03 361.551 1203.32 442.637 1208.11 479.125C1208.76 484.115 1209.31 488.805 1209.32 489.547C1209.38 492.702 1210.72 488.265 1211.56 482.162C1216.11 448.982 1220.09 379.882 1220.85 320.988C1221.07 304.394 1221.38 288.048 1221.55 284.665L1221.86 278.511H1217.96H1214.06L1214.05 270.77C1214.01 253.598 1212.51 172.442 1212 160.013L1211.46 146.714H1215.27H1219.08L1218.57 133.415C1217.64 109.572 1213.94 63.4884 1211.57 46.2778C1210.69 39.9261 1209.39 35.8157 1209.31 39.1321ZM1292.43 39.6958C1290.62 46.3937 1285.67 103.956 1284.3 134.209L1283.76 145.92H1279.97H1276.17L1275.71 151.676C1274.93 161.466 1273.64 224.322 1273.65 252.112L1273.65 278.511H1277.62H1281.59L1281.6 296.971C1281.64 357.641 1286.92 454.259 1291.91 485.244C1292.57 489.326 1293.51 492.14 1293.51 490.036C1293.51 489.635 1294.22 483.77 1295.09 477.002C1299.13 445.407 1302.52 388.249 1303.82 329.731C1304.27 309.648 1304.63 289.909 1304.63 285.864V278.511H1300.66H1296.69L1296.68 248.936C1296.68 221.543 1295.87 185.25 1294.65 158.028L1294.14 146.714H1297.75C1299.74 146.714 1301.55 146.407 1301.78 146.033C1303.4 143.409 1295.21 40.1643 1293.22 38.177C1293.05 38.0126 1292.7 38.6962 1292.43 39.6958ZM1374.25 48.0499C1372.2 63.7862 1369.94 89.6979 1368.62 112.674C1367.96 124.191 1367.19 136.383 1366.92 139.767L1366.43 145.92H1362.67H1358.9L1358.32 158.822C1357.62 174.164 1356.5 266.428 1356.92 273.549L1357.21 278.511H1360.62H1364.04L1364.51 296.177C1364.77 305.893 1365.19 324.918 1365.44 338.455C1366.37 389.065 1370.03 448.203 1374.17 479.56C1374.81 484.429 1375.34 488.942 1375.34 489.588C1375.34 491.842 1376.13 489.95 1376.91 485.815C1381.35 462.435 1386.04 382.257 1387.01 313.247L1387.5 278.511H1383.52H1379.54L1378.98 222.339C1378.68 191.443 1378.18 161.805 1377.88 156.474L1377.32 146.782L1380.9 146.549L1384.47 146.317L1384.35 135.201C1384.07 109.541 1378.04 40.3794 1375.9 38.2405C1375.72 38.0603 1374.98 42.4747 1374.25 48.0499ZM1458.47 39.125C1456.85 43.3353 1451.5 105.174 1450.33 133.018L1449.8 145.92H1445.98H1442.17L1441.75 149.294C1441.01 155.3 1439.67 220.136 1439.68 249.73L1439.69 278.511H1443.66H1447.63L1447.65 299.353C1447.67 335.642 1449.73 391.625 1452.43 429.364C1454.77 462.182 1458.04 491.479 1459.22 490.298C1459.79 489.726 1462.79 462.889 1464.32 444.643C1467.43 407.435 1470.49 329.06 1470.66 282.283L1470.67 278.511H1466.7H1462.73L1462.73 252.906C1462.73 228.652 1461.78 184.09 1460.71 158.425L1460.23 146.714H1463.81C1465.79 146.714 1467.57 146.439 1467.78 146.104C1468.36 145.17 1466.13 104.995 1464.31 83.5939C1462.74 65.1804 1459.78 38.7026 1459.22 38.1452C1459.07 37.9952 1458.74 38.4366 1458.47 39.125ZM1540.29 47.9006C1538.43 61.8529 1536.01 88.2854 1535.02 105.545C1534.57 113.559 1533.84 125.118 1533.42 131.232C1533 137.345 1532.65 143.151 1532.65 144.133C1532.64 145.739 1532.25 145.92 1528.79 145.92H1524.94L1524.38 158.028C1523.86 169.136 1522.41 248.634 1522.34 269.579L1522.31 278.511H1526.19H1530.08L1530.57 301.338C1532.27 378.764 1534.01 417.416 1537.44 453.977C1539.16 472.285 1541.44 490.706 1541.92 490.224C1542.58 489.561 1544.54 474.795 1546.09 458.74C1549.88 419.428 1552.2 371.351 1553.02 314.883L1553.55 278.609L1549.65 278.361L1545.75 278.114L1545.27 226.904C1544.81 179.099 1544.16 152.671 1543.31 148.544C1542.99 146.968 1543.32 146.778 1546.74 146.559L1550.52 146.317L1550.77 141.553C1551.5 127.705 1544 40.2953 1541.89 38.1897C1541.74 38.042 1541.02 42.4112 1540.29 47.9006ZM1624.5 39.2711C1622.42 46.1976 1616.12 123.816 1616.07 143.339C1616.06 145.899 1616.03 145.92 1612.16 145.92H1608.26L1607.78 152.47C1606.87 164.973 1605.73 218.227 1605.73 248.288V278.511H1609.57H1613.42L1613.93 314.438C1614.74 371.787 1618.18 436.276 1622.38 472.8C1623.91 486.111 1624.7 490.863 1625.27 490.294C1625.86 489.705 1628.84 463.05 1630.36 444.846C1633.5 407.163 1636.47 331.182 1636.69 282.68L1636.71 278.511H1632.74H1628.77L1628.76 252.906C1628.75 226.204 1627.61 172.134 1626.72 156.043L1626.21 146.714H1629.83C1631.81 146.714 1633.61 146.439 1633.82 146.104C1635.4 143.544 1627.22 40.1031 1625.29 38.1659C1625.1 37.9769 1624.74 38.4739 1624.5 39.2711ZM1706.41 47.6545C1704.29 63.1978 1702 89.4541 1700.28 118.131C1699.4 132.76 1698.68 144.997 1698.68 145.324C1698.68 145.651 1696.95 145.92 1694.83 145.92H1690.98L1690.43 157.631C1689.93 168.145 1688.44 249.989 1688.38 270.373L1688.35 278.511H1692.23H1696.12L1696.61 301.338C1698.64 395.726 1701.81 450.806 1707.29 486.926C1708.03 491.866 1708.39 490.689 1710.12 477.398C1714.95 440.512 1718.9 364.788 1719.44 298.757L1719.6 278.908L1715.7 278.511L1711.79 278.114L1711.31 226.904C1710.85 178.882 1710.2 152.656 1709.34 148.5C1709 146.831 1709.25 146.714 1713.09 146.714H1717.19L1716.7 134.606C1715.33 100.385 1710.24 42.7542 1708.26 38.9209C1707.97 38.3683 1707.14 42.2984 1706.41 47.6545ZM1790.57 39.6903C1788.33 48.6461 1782.16 124.174 1782.11 143.339C1782.1 145.899 1782.07 145.92 1778.2 145.92H1774.3L1773.82 152.47C1772.91 164.973 1771.77 218.227 1771.77 248.288V278.511H1775.61H1779.46L1779.97 314.438C1780.79 372.414 1784.1 433.939 1788.49 472.887C1790.35 489.318 1791.1 492.597 1791.87 487.672C1792.99 480.625 1795.62 455.797 1796.76 441.67C1799.58 406.596 1802.52 328.193 1802.73 282.68L1802.75 278.511H1798.78H1794.81L1794.81 253.303C1794.81 227.26 1793.61 168.08 1792.81 154.455L1792.35 146.714H1795.92C1797.88 146.714 1799.65 146.441 1799.86 146.106C1801.47 143.493 1793.35 40.1857 1791.37 38.2095C1791.18 38.0214 1790.82 38.6875 1790.57 39.6903Z" fill="#FC6749"/>
</svg>
