<svg width="1822" height="528" viewBox="0 0 1822 528" fill="none" xmlns="http://www.w3.org/2000/svg">
<path fill-rule="evenodd" clip-rule="evenodd" d="M1771.79 1.42656C1782.37 5.07799 1787.77 29.5502 1793.63 100.429C1794.69 113.311 1795.78 127.959 1796.05 132.981C1796.8 146.821 1796.67 146.478 1801.17 146.478H1804.96L1805.46 155.014C1805.73 159.708 1806.49 172.302 1807.13 183.001C1808.85 211.393 1812.36 274.45 1812.35 276.843C1812.35 277.885 1811.5 278.243 1808.58 278.431L1804.82 278.673L1805.05 285.025C1805.17 288.518 1805.61 295.842 1806.01 301.301C1806.41 306.759 1807.12 317.299 1807.57 324.723C1808.63 342.126 1812.57 398.902 1814.76 428.335C1815.2 434.23 1816.09 446.556 1816.75 455.726C1817.4 464.896 1818.64 482.046 1819.51 493.836C1821.57 521.906 1821.57 522.413 1819.14 524.837C1816.37 527.607 1810.97 527.576 1808.17 524.771C1807.06 523.663 1805.97 521.966 1805.74 521C1805.05 518.051 1802.93 501.014 1801.27 485.103C1799.89 471.843 1798.9 461.265 1795.64 424.762C1795.22 419.958 1794.31 407.827 1793.62 397.804C1792.94 387.781 1792.21 379.295 1791.99 378.947C1791.4 377.994 1743.42 378.153 1742.83 379.109C1742.56 379.547 1741.84 387.138 1741.23 395.981C1737.06 456.444 1732.53 493.881 1727.37 510.596C1725.31 517.237 1723.23 521.13 1720.2 524.007C1717.96 526.141 1717.17 526.389 1712.64 526.389C1706.24 526.389 1703.99 524.845 1700.6 518.12C1696.36 509.719 1693.12 493.934 1690.06 466.842C1687.34 442.768 1683.61 397.114 1682.04 368.788C1681.59 360.709 1680.89 349.276 1680.48 343.381C1679.73 332.715 1679.58 330.022 1678.06 300.507C1677.63 291.992 1677.07 283.506 1676.83 281.65L1676.39 278.276H1680.41H1684.43L1684.42 273.711C1684.42 271.199 1684.07 264.143 1683.64 258.03C1683.22 251.916 1682.51 239.412 1682.07 230.241C1681.34 215.097 1680.25 196.705 1678.06 162.358C1677.63 155.589 1677.27 149.068 1677.28 147.868C1677.28 145.784 1677.1 145.684 1673.4 145.684H1669.52L1669.04 141.516C1668.78 139.224 1668.19 131.989 1667.73 125.438C1664.91 85.0251 1659.51 34.7674 1657.8 33.0651C1656.66 31.9226 1652.57 64.6568 1649.89 96.4589C1648.86 108.695 1646.3 143.843 1646.29 145.883C1646.29 146.21 1648.08 146.478 1650.27 146.478H1654.25L1653.84 150.647C1652.95 159.788 1648.51 236.912 1647.49 261.206C1647.23 267.319 1646.82 273.661 1646.58 275.299L1646.15 278.276H1642.25H1638.35L1638.33 282.047C1638.32 284.122 1637.98 290.999 1637.57 297.331C1637.16 303.663 1636.46 315.81 1636 324.326C1631.69 404.841 1626.35 467.517 1621.58 493.836C1617.34 517.153 1612.82 525.777 1604.39 526.586C1594.24 527.561 1589.54 520.699 1584.98 498.203C1581.2 479.542 1575.84 426.355 1573.18 381.094C1572.74 373.67 1572.04 362.773 1571.61 356.878C1571.18 350.983 1570.44 338.657 1569.96 329.486C1569.47 320.316 1568.66 305.043 1568.14 295.545L1567.21 278.276H1571.11H1575.02L1574.5 269.344C1574.22 264.432 1573.63 252.909 1573.2 243.739C1572.76 234.568 1572.04 221.885 1571.6 215.553C1571.17 209.221 1570.46 197.431 1570.03 189.352C1569.6 181.274 1568.83 168.144 1568.31 160.174L1567.37 145.684H1563.59C1559.1 145.684 1559.23 146.02 1558.49 132.187C1556.87 101.734 1549.98 34.8857 1548.29 33.1977C1547.59 32.5014 1546.13 41.2223 1544.22 57.4866C1540.94 85.3371 1536.15 144.237 1537.04 145.675C1537.31 146.116 1539.14 146.478 1541.11 146.478H1544.69L1544.25 149.853C1544.01 151.708 1543.26 162.874 1542.6 174.664C1541.93 186.454 1541.04 201.639 1540.61 208.407C1540.19 215.176 1539.48 228.217 1539.04 237.387C1538.16 255.695 1537.63 264.765 1536.94 272.917L1536.48 278.276H1532.59H1528.7V281.03C1528.7 284.426 1526.62 322.689 1525.53 339.411C1525.08 346.18 1524.36 358.148 1523.92 366.009C1522.27 395.5 1518.46 442.508 1515.93 464.857C1510.76 510.375 1505.69 525.377 1495.09 526.571C1493.14 526.791 1490.23 526.536 1488.62 526.005C1478.88 522.794 1473.35 499.559 1467.98 439.223C1467.4 432.766 1466.77 427.325 1466.58 427.131C1466.39 426.936 1465.6 434.542 1464.84 444.031C1462.16 477.457 1457.89 505.762 1453.99 516.022C1453 518.617 1450.87 522.156 1449.26 523.886C1446.67 526.663 1445.82 527.068 1442.02 527.349C1434.77 527.887 1430.64 523.981 1427.15 513.288C1421.24 495.108 1416.13 445.051 1413.52 379.506C1412.56 355.379 1411.11 299.843 1411.11 287.102V278.276H1415.08H1419.05L1419.07 248.701C1419.09 219.274 1420.11 172.805 1421.13 155.014L1421.66 145.684H1417.5H1413.34L1413.84 137.546C1414.11 133.07 1414.86 120.298 1415.5 109.162C1416.8 86.5535 1418.33 69.0974 1420.72 49.6152C1423.92 23.4312 1427.4 9.9664 1432.43 4.30626C1435.02 1.38845 1435.88 0.936688 1439.52 0.587345C1441.91 0.35789 1444.59 0.592901 1445.86 1.14232C1453.17 4.31658 1457.48 18.1275 1461.49 51.2032C1464.27 74.1661 1465.65 90.37 1468.33 131.393C1468.8 138.598 1469.34 144.941 1469.52 145.486C1469.72 146.08 1471.27 146.478 1473.37 146.478H1476.89L1477.38 152.632C1477.66 156.016 1478.23 167.36 1478.66 177.84C1479.43 196.623 1479.89 206.226 1482.23 251.7C1482.88 264.375 1483.41 275.541 1483.41 276.511C1483.41 278.102 1483.01 278.276 1479.39 278.276H1475.37L1475.82 283.635C1476.07 286.582 1476.81 298.462 1477.47 310.034C1481.44 379.739 1483.97 416.395 1486.99 448.184C1489.2 471.493 1492.52 495.721 1493.38 494.861C1493.9 494.337 1496.87 473.484 1498.1 461.681C1499.23 450.902 1499.68 446.031 1501.68 423.372C1503.54 402.234 1508.56 322.554 1510.07 289.987L1510.62 278.276H1514.46C1518.18 278.276 1518.31 278.197 1518.69 275.696C1518.91 274.276 1519.29 268.471 1519.53 262.794C1519.78 257.117 1520.33 246.756 1520.76 239.769C1521.18 232.782 1521.9 220.277 1522.34 211.98C1524.42 173.161 1525.51 154.445 1525.93 150.25L1526.39 145.684H1522.31H1518.23L1518.71 139.928C1518.98 136.762 1519.92 124.525 1520.8 112.735C1524.48 63.7692 1528.81 30.1592 1533.19 16.6658C1537.37 3.79177 1543.22 -1.11015 1551.67 1.16455C1558.69 3.05339 1562.9 12.1538 1566.75 33.736C1569.71 50.2996 1573.32 83.8421 1575.6 115.911C1577.18 138.094 1577.79 144.764 1578.32 145.623C1578.61 146.093 1580.44 146.478 1582.38 146.478C1585.58 146.478 1585.91 146.656 1585.91 148.4C1585.91 149.457 1586.25 155.62 1586.68 162.096C1587.11 168.572 1588.19 187.268 1589.09 203.644C1589.98 220.019 1591.24 242.433 1591.89 253.452C1593.51 281.187 1593.84 278.276 1589.01 278.276H1584.96L1585.41 282.047C1585.66 284.122 1586.25 293.143 1586.72 302.095C1591.27 389.335 1595.96 450.018 1600.7 483.118C1601.92 491.638 1602.53 494.559 1603 494.086C1604.19 492.903 1608.33 458.375 1610.89 428.335C1612.89 404.939 1614.05 387.746 1617.66 328.296C1618.07 321.527 1618.8 307.95 1619.29 298.125C1619.78 288.3 1620.32 279.815 1620.5 279.268C1620.69 278.67 1622.23 278.276 1624.38 278.276C1628.8 278.276 1628.37 280.601 1629.99 248.105C1631.87 210.28 1634.86 159.234 1635.7 150.647L1636.18 145.684H1632.1C1629.36 145.684 1628.02 145.358 1628.02 144.692C1628.03 144.147 1628.9 132.267 1629.97 118.293C1636.74 29.871 1642.04 4.46664 1654.41 1.13756C1669.48 -2.91879 1675.46 13.2383 1681.61 74.625C1682.67 85.1053 1683.73 96.5383 1683.99 100.032C1684.25 103.525 1684.99 112.636 1685.63 120.278C1686.28 127.92 1686.81 136.513 1686.81 139.373C1686.81 142.353 1687.22 144.979 1687.77 145.526C1688.29 146.05 1690.26 146.478 1692.14 146.478C1695.42 146.478 1695.55 146.576 1695.55 148.899C1695.55 150.231 1696.26 162.647 1697.12 176.489C1697.98 190.333 1699.06 208.804 1699.51 217.538C1699.97 226.272 1700.68 239.312 1701.08 246.518C1701.49 253.723 1702.05 263.816 1702.32 268.947L1702.82 278.276H1698.77C1695 278.276 1694.75 278.396 1695.09 280.062C1695.29 281.045 1695.67 287.029 1695.93 293.361C1697.05 320.548 1701.87 396.825 1704.31 425.953C1706.82 456.007 1710.68 489.869 1712 493.439C1714.07 499.079 1720.49 438.218 1724.14 378.315C1724.6 370.673 1725.33 359.776 1725.75 354.099C1726.17 348.422 1727.09 333.238 1727.79 320.356C1728.49 307.474 1729.3 292.825 1729.59 287.804L1730.12 278.673L1733.85 278.432C1736.55 278.259 1737.69 277.819 1737.96 276.844C1738.17 276.104 1738.57 269.781 1738.85 262.794C1739.12 255.807 1739.69 244.553 1740.09 237.784C1740.5 231.015 1741.37 215.474 1742.02 203.247C1743.1 183.027 1744.01 168.813 1745.31 151.838L1745.77 145.684H1741.64H1737.5L1737.99 140.325C1738.26 137.377 1738.84 129.428 1739.27 122.66C1740.23 107.816 1741.91 88.7408 1744.09 67.8763C1748.91 21.7821 1754.19 3.86005 1763.72 1.21458C1767.36 0.206245 1768.33 0.232444 1771.79 1.42656ZM1363.12 1.16614C1366.1 2.37058 1369.59 7.56785 1371.7 13.9545C1377 29.9703 1382.38 77.4174 1384.8 129.54C1385.19 137.909 1385.74 145.144 1386.04 145.618C1386.33 146.091 1388.1 146.478 1389.97 146.478H1393.38L1393.89 160.571C1394.88 188.041 1396.11 253.443 1395.87 265.573L1395.61 277.879L1391.94 278.117L1388.27 278.355L1387.72 309.082C1386.36 384.688 1382.14 454.838 1376.86 489.47C1372.65 517.119 1367.64 527.58 1358.6 527.58C1348.5 527.58 1343.93 519.13 1339.7 492.645C1337.74 480.376 1335.15 456.467 1334.06 440.641C1333.61 434.091 1333.05 427.124 1332.83 425.159C1331.68 415.26 1329.17 348.083 1328.72 315.394L1328.22 278.276H1332.19H1336.17L1336.69 226.867C1336.97 198.592 1337.44 168.759 1337.73 160.571L1338.25 145.684H1334.46H1330.67L1331.21 132.386C1331.51 125.071 1332.08 114.442 1332.48 108.765C1332.89 103.088 1333.59 93.2632 1334.04 86.9314C1335.17 71.1609 1337.78 47.2786 1339.7 35.3239C1343.03 14.4904 1346.81 4.42376 1352.39 1.5401C1354.81 0.287226 1360.46 0.0903227 1363.12 1.16614ZM1281.29 1.85371C1291.61 8.34117 1297.31 45.0904 1302.13 136.157L1302.65 146.081L1306.34 146.32L1310.03 146.559L1310.52 150.686C1311.35 157.526 1312.56 214.684 1312.57 247.51L1312.58 278.276H1308.61H1304.64V294.432C1304.64 340.134 1301.8 409.304 1298.24 450.565C1294.36 495.463 1290.04 516.563 1283.2 523.886C1280.62 526.652 1279.74 527.072 1275.96 527.376C1270.07 527.85 1266.97 525.727 1263.51 518.846C1253.99 499.894 1247.88 427.244 1245.4 303.484L1244.89 278.276H1248.94H1252.99L1253.02 251.48C1253.04 224.815 1254.01 180.011 1255.06 157.495L1255.61 145.684H1251.52C1248.78 145.684 1247.43 145.358 1247.44 144.692C1247.46 139.267 1250.97 86.5709 1252.22 73.0371C1256.32 28.4784 1260.68 8.97871 1268.02 2.42298C1270.57 0.137167 1278.04 -0.18359 1281.29 1.85371ZM1197.04 1.159C1199.21 2.03553 1202.68 6.20065 1204.25 9.81476C1210.22 23.5709 1216.11 71.7556 1218.79 128.828C1219.21 137.68 1219.76 145.272 1220.03 145.7C1220.29 146.128 1222.05 146.478 1223.94 146.478H1227.37L1227.9 161.365C1229.06 193.573 1229.93 233.706 1229.94 255.45L1229.95 278.276H1225.98H1222.01L1222 285.62C1221.99 289.659 1221.63 308.327 1221.2 327.105C1218.72 434.712 1212.31 503.099 1203.1 520.012C1200.03 525.642 1196.53 527.812 1191.19 527.384C1181.64 526.618 1177.67 518.028 1173.2 488.468C1167.69 452.035 1163.73 386.128 1162.67 313.409L1162.16 278.276H1166.13H1170.11L1170.63 225.676C1170.92 196.747 1171.39 166.913 1171.67 159.38L1172.19 145.684H1168.39H1164.59L1165.14 133.18C1166.11 111.072 1168.29 81.1656 1170.4 61.1277C1174.35 23.4931 1178.84 6.30783 1185.86 1.97201C1188.54 0.320571 1193.99 -0.0764051 1197.04 1.159ZM1115.21 1.84419C1122.81 6.61748 1127.17 24.5078 1131.43 68.2733C1133.12 85.7023 1136.19 131.303 1136.2 139.069C1136.2 145.934 1136.52 146.478 1140.61 146.478C1143.9 146.478 1144.09 146.608 1144.49 149.059C1145.28 153.946 1146.53 212.841 1146.53 245.525L1146.52 278.276H1142.68H1138.84L1138.31 313.806C1137.05 399.354 1132.66 465.382 1125.84 501.379C1123.61 513.144 1121.3 519.262 1117.51 523.452C1114.7 526.555 1113.82 527.031 1110.29 527.37C1098.91 528.463 1093.96 517.924 1089.31 482.721C1083.97 442.239 1081.17 390.433 1079.44 299.911L1079.02 278.276H1082.98H1086.93L1086.96 255.053C1086.98 231.274 1088.02 182.737 1089.01 158.983L1089.56 145.684H1085.39H1081.21L1081.7 139.531C1081.97 136.147 1082.73 123.91 1083.38 112.338C1085.29 78.193 1088.7 44.8554 1092.11 27.0779C1094.54 14.384 1097.61 6.51109 1101.57 2.82155C1104.44 0.141142 1111.68 -0.377317 1115.21 1.84419ZM1033.61 3.1828C1038.22 7.34077 1041.08 15.4527 1043.96 32.5451C1047.5 53.5263 1050.88 90.7519 1052.72 128.837C1053.15 137.693 1053.71 145.285 1053.98 145.709C1054.24 146.132 1056 146.478 1057.88 146.478H1061.32L1061.84 159.38C1063.01 188.165 1063.87 226.952 1063.88 251.877L1063.89 278.276H1059.92H1055.95L1055.94 289.193C1055.9 343.631 1051.51 435.027 1047.14 472.399C1042.18 514.822 1037.33 527.58 1026.15 527.58C1016.47 527.58 1011.66 518.17 1007.5 491.057C1001.9 454.569 997.811 387.179 996.622 311.587L996.097 278.276H1000.2H1004.3V248.667C1004.3 218.153 1005.6 151.738 1006.27 147.868C1006.64 145.722 1006.58 145.684 1002.59 145.684H998.526L999.078 133.974C1001.53 81.8453 1006.14 37.5962 1011.07 18.8604C1014.72 4.97319 1018.51 0.389648 1026.33 0.389648C1030 0.389648 1030.9 0.731844 1033.61 3.1828ZM949.217 1.88389C953.567 4.61511 956.826 11.7417 959.427 24.2085C963.126 41.9456 966.889 78.1788 968.95 115.911C969.666 129.011 970.427 141.248 970.64 143.104L971.029 146.478H974.832H978.636L979.149 160.571C979.431 168.322 979.9 197.977 980.191 226.47L980.719 278.276H977.101H973.482L973.021 290.384C972.769 297.043 972.36 313.568 972.114 327.105C970.693 405.212 965.816 473.128 959.427 503.761C955.863 520.845 951.102 527.585 942.605 527.577C932.135 527.566 927.171 514.906 922.527 476.369C917.492 434.587 913.78 360.726 913.74 301.499L913.724 278.276H917.299H920.875L920.897 260.213C920.923 239.094 922.156 178.169 922.945 158.983L923.492 145.684H919.397H915.302L915.731 140.325C915.967 137.377 916.692 125.355 917.342 113.609C920.45 57.4056 925.58 20.0592 931.88 7.78222C934.512 2.65243 936.978 0.924781 942.14 0.594493C945.677 0.36742 947.263 0.656422 949.217 1.88389ZM867.262 2.89459C872.235 7.2582 874.91 14.5936 877.927 32.1481C881.411 52.4227 884.944 90.9973 886.717 128.113C887.163 137.445 887.722 145.394 887.959 145.779C888.198 146.164 889.937 146.478 891.825 146.478H895.258L895.784 156.998C896.687 175.036 897.806 228.329 897.82 253.862L897.833 278.276H893.953H890.074L889.551 309.836C888.41 378.648 885.656 431.739 881.12 472.399C878.122 499.275 874.166 516.543 869.652 522.456C862.9 531.303 852.296 528.635 847.41 516.861C841.344 502.246 835.261 447.683 832.674 384.667C831.577 357.929 830.314 308.527 830.305 291.972L830.297 278.276H834.27H838.242V252.04C838.242 231.906 839.434 166.764 840.137 148.463C840.226 146.16 840.1 146.074 836.339 145.835L832.449 145.588L832.988 134.322C834.661 99.4005 838.429 56.2234 841.489 36.9119C844.724 16.4959 847.756 7.42811 852.838 2.96843C855.382 0.73661 856.358 0.389648 860.092 0.389648C863.801 0.389648 864.808 0.741372 867.262 2.89459ZM783.105 1.89897C793.484 8.22287 798.949 42.2099 804.021 131.965C804.42 139.048 804.976 145.211 805.254 145.661C805.532 146.11 807.295 146.478 809.172 146.478H812.584L813.092 158.189C813.372 164.631 813.838 194.284 814.128 224.088L814.657 278.276H811.064H807.471L806.966 281.96C806.688 283.985 806.462 294.615 806.462 305.58C806.466 352.521 803.224 422.928 799.275 461.681C794.952 504.097 790.591 521.509 783.158 526.039C780.149 527.872 774.72 528.052 771.566 526.422C766.551 523.831 762.578 514.278 759.609 497.681C753.003 460.75 747.753 373.495 747.685 299.514L747.665 278.276H751.24H754.816L754.839 266.168C754.874 248.345 756.224 178.64 756.877 160.968L757.44 145.684H753.311H749.182L749.596 143.104C749.823 141.685 750.396 132.128 750.866 121.866C751.337 111.604 752.071 99.0988 752.497 94.077C752.924 89.0552 753.631 80.4805 754.069 75.022C755.219 60.6823 757.728 40.2544 759.581 30.1354C763.679 7.77031 768.013 0.395209 777.063 0.395209C779.172 0.395209 781.65 1.01211 783.105 1.89897ZM701.203 2.89459C704.624 5.89577 706.417 9.23834 708.592 16.6658C713.329 32.8499 717.753 72.3733 720.265 120.967C720.934 133.907 721.64 144.941 721.835 145.486C722.045 146.075 723.605 146.478 725.673 146.478H729.158L729.694 156.204C730.701 174.502 731.734 221.49 731.754 249.892L731.774 278.276H727.801H723.828L723.814 290.781C723.728 365.751 718.384 457.694 711.895 495.821C707.887 519.373 703.271 527.58 694.033 527.58C684.284 527.58 679.646 518.248 675.371 490.038C669.823 453.425 665.872 387.569 664.513 309.042L663.98 278.276H668.082H672.183L672.198 253.862C672.213 225.124 673.494 160.662 674.224 151.838L674.732 145.684H670.575H666.417L666.967 135.165C668.988 96.4391 672.38 56.9617 675.338 37.7058C678.512 17.0509 681.72 7.40747 686.942 2.82552C689.312 0.746931 690.35 0.389648 694.033 0.389648C697.741 0.389648 698.749 0.741372 701.203 2.89459ZM616.168 1.14709C626.192 5.29077 632.35 38.0599 636.467 109.162C637.365 124.664 638.349 139.313 638.654 141.715L639.21 146.081L642.87 146.319L646.53 146.556L647.042 156.64C647.324 162.187 647.788 191.823 648.074 222.5L648.592 278.276H645.019H641.446L640.923 291.503C640.637 298.778 640.402 310.479 640.402 317.506C640.401 351.768 636.535 430.005 633.248 462.245C628.251 511.265 622.879 527.58 611.732 527.58C602.129 527.58 597.702 520.224 593.57 497.409C587.197 462.204 581.665 371.16 581.62 300.705L581.605 278.276H585.181H588.756L588.776 262.198C588.796 245.88 589.818 196.633 590.818 163.747L591.368 145.684H587.678H583.989L583.994 141.516C584.013 126.56 587.892 72.4408 590.399 52.1575C594.404 19.7575 598.41 5.89021 604.909 1.93073C607.535 0.330897 613.234 -0.0660832 616.168 1.14709ZM533.667 1.36463C537.271 3.47895 540.814 9.65517 542.901 17.4598C547.523 34.7483 551.777 73.4483 554.238 120.602C554.925 133.743 555.63 144.941 555.808 145.486C556.001 146.081 557.532 146.478 559.628 146.478H563.126L563.649 154.22C564.629 168.734 565.683 216.679 565.699 247.51L565.715 278.276H561.742H557.769L557.76 293.56C557.744 320.244 556.223 372.157 554.58 402.134C550.803 471.031 545.406 511.024 538.501 521.262C533.182 529.15 523.973 529.739 518.48 522.543C507.978 508.783 500.877 432.285 498.477 307.057L497.926 278.276H502.025H506.124L506.133 251.48C506.143 223.977 507.247 171.618 508.167 155.014L508.683 145.684H504.528H500.371L500.905 136.355C504.953 65.4937 509.199 28.1036 515.02 12.0704C515.937 9.54322 518 5.9974 519.603 4.19193C522.313 1.14074 522.851 0.88905 527.233 0.631807C530.102 0.463487 532.62 0.750104 533.667 1.36463ZM450.174 1.159C452.352 2.0395 455.818 6.21415 457.361 9.81476C463.189 23.4113 468.236 63.5651 471.196 119.881C471.678 129.051 472.315 138.698 472.612 141.318L473.15 146.081L476.805 146.319L480.459 146.555L480.951 155.846C481.743 170.774 483.367 275.596 482.828 276.998C482.477 277.912 481.313 278.276 478.737 278.276H475.137L475.115 285.223C475.075 297.994 473.61 355.433 472.771 377.124C471.039 421.938 467.756 463.716 463.96 489.236C460.706 511.114 456.935 522.019 451.301 525.837C449.013 527.387 447.776 527.661 444.331 527.385C435.117 526.646 430.843 518.093 426.771 492.248C424.403 477.213 422.83 463.33 421.508 445.802C420.866 437.286 420.155 428.712 419.93 426.747C418.457 413.93 415.567 329.343 415.554 298.72L415.546 278.276H419.029H422.511L423.02 246.716C423.299 229.358 423.878 202.294 424.304 186.573C424.732 170.853 425.081 155.222 425.081 151.838V145.684H421.403H417.726L418.276 131.989C420.139 85.5412 425.195 37.4033 430.279 17.6996C432.028 10.9239 436.009 3.66236 438.96 1.86404C441.489 0.322958 447.214 -0.0375011 450.174 1.159ZM368.271 1.80131C370.958 3.49165 374.526 9.53846 376.24 15.3074C381.234 32.11 385.715 71.2149 388.179 119.484C388.881 133.239 389.594 144.941 389.763 145.486C389.948 146.084 391.466 146.478 393.577 146.478H397.083L397.6 153.029C398.613 165.894 399.636 211.744 399.646 244.731L399.655 278.276H395.683H391.71V296.137C391.71 352.709 387.751 432.882 382.929 473.987C378.187 514.401 373.644 526.525 362.925 527.385C357.191 527.845 354.035 525.654 350.585 518.818C341.013 499.849 335.094 429.71 332.414 303.484L331.878 278.276H335.972H340.065L340.092 254.656C340.123 227.412 341.307 169.674 342.127 155.411L342.687 145.684H338.531H334.376L334.867 137.546C336.563 109.431 337.029 102.012 337.745 91.6952C338.735 77.4356 341.208 52.8951 342.825 41.2786C345.683 20.7492 348.964 9.35029 353.477 4.26815C356.253 1.14233 356.787 0.887464 361.173 0.605608C364.803 0.372184 366.436 0.646892 368.271 1.80131ZM284.115 1.159C286.292 2.0395 289.759 6.21415 291.302 9.81476C297.169 23.5019 302.452 65.6929 305.135 120.278C305.596 129.666 306.225 139.313 306.533 141.715L307.091 146.081L310.75 146.319L314.408 146.556L314.914 159.022C315.72 178.842 317.175 260.371 316.887 269.542L316.626 277.879L312.948 278.117L309.272 278.355L308.737 307.494C308.192 337.132 305.428 413.747 304.72 418.807C304.506 420.335 303.959 427.481 303.503 434.686C300.88 476.142 295.504 510.402 290.118 519.988C286.887 525.74 283.571 527.81 278.272 527.385C269.064 526.647 264.831 518.186 260.691 492.248C255.045 456.881 250.671 386.584 249.736 316.188L249.233 278.276H253.213H257.192L257.711 228.058C257.997 200.438 258.46 170.605 258.741 161.762L259.251 145.684H255.561H251.87L251.878 141.913C251.908 127.215 255.629 75.7072 258.26 53.585C262.322 19.4288 266.486 5.11371 273.402 1.5401C275.82 0.290401 281.47 0.0895327 284.115 1.159ZM202.212 1.80131C204.899 3.49165 208.466 9.53846 210.181 15.3074C215.15 32.0274 219.668 71.4507 222.12 119.484C222.822 133.239 223.535 144.941 223.704 145.486C223.889 146.084 225.407 146.478 227.518 146.478H231.024L231.543 153.029C232.539 165.618 233.573 212.251 233.584 245.128L233.596 278.276H229.741H225.886L225.338 313.409C224.232 384.249 221.408 436.205 216.457 476.766C212.964 505.382 209.677 518.031 204.212 523.886C201.618 526.663 200.773 527.068 196.976 527.349C191.783 527.735 188.565 526.038 185.608 521.357C180.65 513.51 176.611 491.912 173.26 455.329C171.794 439.332 171.128 429.731 169.238 397.37C168.434 383.593 167.277 345.813 166.364 303.484L165.819 278.276H169.913H174.005L174.024 249.098C174.041 220.184 175.026 175.311 176.071 155.807L176.613 145.684H172.528C168.816 145.684 168.445 145.522 168.464 143.898C168.475 142.915 168.816 136.752 169.221 130.202C169.625 123.652 170.347 111.862 170.824 104.002C171.986 84.852 174.449 58.1638 176.359 44.0575C179.484 20.9612 182.623 9.66708 187.417 4.26815C190.193 1.14233 190.728 0.887464 195.114 0.605608C198.743 0.372184 200.377 0.646892 202.212 1.80131ZM118.055 1.159C120.238 2.04109 123.705 6.22209 125.234 9.81476C131.198 23.8274 137.269 74.1796 139.76 130.286C140.112 138.193 140.652 145.07 140.961 145.57C141.27 146.07 143.06 146.478 144.938 146.478H148.352L148.861 159.38C149.688 180.385 151.107 259.685 150.826 269.145L150.566 277.879L146.887 278.117L143.207 278.355L142.666 307.891C140.922 402.989 135.466 478.81 128.26 508.078C125.025 521.219 120.228 527.58 113.554 527.58C103.398 527.58 98.8219 519.047 94.6077 492.248C88.941 456.214 84.606 386.528 83.681 316.585L83.1741 278.276H87.1486H91.1221L91.6448 226.073C91.9325 197.361 92.4003 167.528 92.6847 159.777L93.2029 145.684H89.5065H85.8112L85.8191 141.516C85.8325 133.82 87.4257 106.552 89.0068 86.9314C93.6819 28.9437 98.5953 6.06012 107.343 1.5401C109.76 0.290401 115.41 0.0895327 118.055 1.159ZM35.5366 1.3821C39.8978 3.91563 43.4938 11.4725 46.2103 23.8115C49.7229 39.7685 53.626 76.4027 55.6838 112.735C56.178 121.469 56.8127 132.544 57.094 137.348L57.605 146.081L61.2883 146.32L64.9719 146.558L65.4868 153.068C66.48 165.625 67.5137 212.297 67.5248 245.128L67.5367 278.276H63.564H59.5913V291.632C59.5913 353.349 55.0656 442.403 49.9836 480.681C46.5743 506.361 43.2794 518.394 38.1522 523.886C35.5588 526.663 34.7141 527.068 30.917 527.349C19.7101 528.18 15.1549 518.576 10.3361 483.958C7.06091 460.431 4.09253 421.292 2.41443 379.506C1.48169 356.298 0.000610352 299.271 0.000610352 286.59V278.276H3.97339H7.94604L7.96436 249.098C7.98181 220.184 8.96716 175.311 10.012 155.807L10.5537 145.684H6.46912C3.71362 145.684 2.38416 145.359 2.38416 144.684C2.38416 138.721 5.9342 84.6988 7.17053 71.839C11.2028 29.9147 15.1104 11.3026 21.3579 4.26815C24.1427 1.132 24.6544 0.890638 29.0546 0.631807C31.9546 0.461899 34.4489 0.750107 35.5366 1.3821ZM1768.53 37.8011C1770.73 50.2448 1774 80.8044 1776.22 109.559C1776.89 118.293 1777.78 129.726 1778.19 134.966C1778.61 140.206 1778.95 144.762 1778.96 145.089C1778.97 145.416 1780.73 145.684 1782.87 145.684H1786.77L1787.29 155.014C1787.58 160.144 1788.32 172.024 1788.93 181.413C1789.55 190.801 1790.43 206.164 1790.89 215.553C1791.36 224.942 1792.07 237.447 1792.47 243.342C1792.88 249.237 1793.45 259.509 1793.75 266.168L1794.3 278.276H1790.51H1786.72L1787.28 291.972C1787.59 299.505 1788.52 316.386 1789.36 329.486C1790.2 342.587 1790.89 355.003 1790.89 357.077L1790.9 360.848H1767.34H1743.78L1744.33 348.343C1744.63 341.465 1745.37 327.799 1745.98 317.974C1746.59 308.149 1747.33 295.198 1747.62 289.193L1748.16 278.276H1752.01C1755.76 278.276 1755.88 278.202 1756.23 275.696C1756.44 274.276 1757.37 257.752 1758.3 238.975C1759.24 220.198 1760.5 197.153 1761.11 187.764C1761.72 178.376 1762.44 165.871 1762.72 159.976C1762.99 154.081 1763.39 148.632 1763.6 147.868C1763.93 146.693 1763.44 146.478 1760.41 146.478C1758.44 146.478 1756.64 146.182 1756.42 145.819C1755.73 144.702 1759.23 96.7114 1761.87 71.0522C1763.44 55.8256 1766.31 35.204 1767.05 33.8313C1767.41 33.1683 1767.99 34.734 1768.53 37.8011ZM1441.62 39.6867C1443.82 48.4179 1449.98 124.175 1450.03 143.104C1450.04 145.664 1450.07 145.684 1453.94 145.684H1457.84L1458.33 153.029C1459.26 166.986 1460.36 218.438 1460.37 248.304L1460.37 278.276H1456.52H1452.68L1452.16 314.203C1451.32 372.563 1447.98 434.722 1443.63 472.924C1441.78 489.12 1441.04 492.333 1440.26 487.436C1435.67 458.34 1431.48 390.982 1430.18 325.533C1429.76 304.127 1429.4 284.736 1429.4 282.444L1429.38 278.276H1433.35H1437.33L1437.34 252.274C1437.35 225.475 1438.47 172.276 1439.37 155.807L1439.89 146.478H1436.27C1434.28 146.478 1432.49 146.209 1432.28 145.88C1431.71 144.952 1433.95 103.794 1435.74 82.5646C1437.33 63.5548 1440.16 38.5839 1440.78 37.9607C1440.96 37.7797 1441.34 38.5569 1441.62 39.6867ZM1359.71 47.3651C1361.78 63.0205 1364.07 89.2863 1365.8 117.279C1366.68 131.568 1367.41 143.805 1367.41 144.472C1367.41 145.392 1368.33 145.684 1371.26 145.684H1375.11L1375.67 157.395C1376.25 169.547 1377.66 244.957 1377.71 266.168L1377.74 278.276H1373.86H1369.98L1369.47 303.881C1367.85 384.276 1364.48 445.32 1359.75 479.776C1359.02 485.143 1358.17 489.252 1357.86 488.907C1357.56 488.561 1356.72 483.277 1355.99 477.163C1350.88 434.194 1348.03 382.136 1347.01 313.457L1346.49 278.374L1350.4 278.126L1354.3 277.879L1354.78 227.462C1355.24 179.865 1355.87 154.865 1356.75 149.103C1357.13 146.577 1357.12 146.567 1353.33 146.324L1349.53 146.081L1349.63 135.363C1349.86 111.787 1355.73 42.6847 1357.85 38.6316C1358.16 38.0488 1358.99 41.9789 1359.71 47.3651ZM1275.53 39.2937C1277.65 47.5287 1282.25 100.707 1283.64 133.18L1284.17 145.684H1287.99H1291.8L1292.23 150.647C1293.13 161.007 1294.33 216.423 1294.32 246.716L1294.31 278.276H1290.46H1286.62L1286.11 315.791C1285.57 356.229 1283.37 407.464 1280.83 439.148C1278.98 462.145 1276.13 487.791 1275.25 489.392C1274.61 490.565 1273.73 484.919 1271.69 466.445C1268.45 437.306 1265.28 381.074 1264.52 339.411C1264.29 326.966 1263.92 308.119 1263.69 297.53L1263.28 278.276H1267.27H1271.27L1271.27 256.641C1271.27 233.1 1272.51 170.784 1273.27 155.807L1273.75 146.478H1270.17C1268.2 146.478 1266.41 146.189 1266.2 145.834C1264.68 143.386 1271.77 51.9892 1274.4 40.0877C1274.98 37.451 1275.04 37.4105 1275.53 39.2937ZM1193.66 47.0301C1195.58 60.7688 1197.91 86.9028 1199.32 110.353C1200.01 121.707 1200.77 134.301 1201.03 138.34L1201.5 145.684H1205.28H1209.07L1209.61 155.014C1210.27 166.525 1211.63 236.607 1211.66 260.61L1211.68 278.276H1207.87H1204.05L1203.07 319.363C1201.51 384.368 1199.86 418.585 1196.55 454.535C1195.09 470.34 1192.8 488.726 1192.21 489.331C1190.96 490.618 1187.03 453.643 1185.06 421.983C1182.48 380.602 1180.69 328.347 1180.69 294.592V278.363L1184.46 278.121L1188.24 277.879L1188.72 229.844C1189.19 183.011 1189.89 154.278 1190.69 149.059L1191.09 146.478H1187.45C1184.76 146.478 1183.68 146.128 1183.3 145.122C1181.66 140.849 1189.87 40.1758 1192.04 38.0115C1192.21 37.8384 1192.94 41.8971 1193.66 47.0301ZM1109.42 38.4998C1111.25 43.1381 1116.38 101.925 1117.58 131.989L1118.12 145.684H1121.93H1125.73L1126.18 151.441C1127.23 164.843 1128.26 210.501 1128.26 243.143L1128.25 278.276H1124.41H1120.56L1120.03 317.379C1119.49 357.005 1117.39 408.048 1115.15 436.274C1113.49 457.103 1109.96 488.92 1109.22 489.713C1108.53 490.445 1108.28 488.822 1106.05 469.216C1101.7 430.833 1098.46 365.269 1097.9 304.08L1097.66 278.673L1101.43 278.431L1105.21 278.189L1105.21 260.964C1105.22 239.66 1106.56 171.25 1107.25 156.998L1107.76 146.478H1104.14C1102.16 146.478 1100.38 146.21 1100.19 145.883C1099.19 144.137 1103.28 83.4014 1106.1 58.3488C1108.02 41.2207 1108.76 36.8293 1109.42 38.4998ZM1027.27 43.828C1029.62 59.5143 1032.61 95.4816 1034.95 136.355L1035.48 145.684H1039.28H1043.08L1043.57 154.617C1044.31 167.895 1045.62 233.544 1045.62 257.435L1045.62 278.276H1041.77H1037.93L1037.39 307.851C1036.25 369.659 1033.4 427.662 1029.74 463.159C1028.18 478.267 1026.74 488.746 1026.15 489.342C1024.87 490.621 1021.04 453.868 1019 420.792C1016.55 380.906 1014.63 324.189 1014.63 291.398V278.363L1018.4 278.121L1022.18 277.879L1022.66 229.844C1023.11 184.994 1023.64 163.397 1024.6 151.441L1025 146.478H1021.38C1018.77 146.478 1017.62 146.119 1017.26 145.186C1015.67 141.026 1023.88 40.106 1025.99 37.9996C1026.19 37.8035 1026.76 40.4267 1027.27 43.828ZM945.373 52.2313C946.321 60.1813 947.448 71.3301 947.879 77.0069C948.31 82.6837 948.844 88.7575 949.068 90.5042C949.679 95.2775 951.861 134.183 951.861 140.325L951.862 145.684H955.786H959.71L960.133 149.059C961.294 158.317 963.407 271.211 962.503 275.725C962.012 278.178 961.845 278.276 958.119 278.276H954.246L954.234 301.499C954.207 354.752 950.25 435.603 945.947 470.811C945.306 476.052 944.547 482.393 944.258 484.904C943.638 490.305 942.726 490.8 942.08 486.087C936.672 446.661 932.463 372.652 931.764 304.675L931.493 278.276H935.321H939.149L939.158 266.962C939.172 248.961 940.624 171.883 941.198 158.634L941.721 146.573L937.892 146.328L934.064 146.081L934.269 137.745C934.667 121.489 937.804 78.5226 939.971 59.6199C942.127 40.8261 942.463 38.5101 943.093 38.1203C943.399 37.9313 944.425 44.2814 945.373 52.2313ZM860.494 38.1687C860.497 38.5696 860.854 41.0404 861.289 43.6605C863.254 55.5136 867.277 103.967 868.919 135.561L869.445 145.684H873.208H876.971L877.495 154.22C878.187 165.45 879.524 233.668 879.544 258.625L879.559 278.276H875.715H871.871L871.342 309.836C870.367 367.861 868.116 415.358 864.426 455.726C862.799 473.531 860.566 490.605 859.947 489.986C858.77 488.811 854.729 448.512 852.969 420.395C850.654 383.438 848.572 320.779 848.572 288.079V278.363L852.346 278.121L856.12 277.879L856.604 231.432C857.053 188.458 857.443 173.013 858.567 153.823L858.997 146.478H855.348C852.825 146.478 851.557 146.108 851.239 145.278C849.646 141.129 857.94 39.9884 860.046 37.8845C860.29 37.6407 860.492 37.7685 860.494 38.1687ZM779.342 52.2274C781.726 72.0462 783.968 99.557 785.018 121.866C786.211 147.227 785.877 145.684 790.193 145.684C793.211 145.684 793.771 145.942 794.082 147.471C794.986 151.904 796.146 203.625 796.139 239.173L796.132 278.276H792.159H788.186L788.17 300.308C788.128 360.122 784.373 434.554 779.298 476.217C777.066 494.535 776.67 493.886 773.864 467.307C769.815 428.959 766.347 359.054 765.804 304.874L765.542 278.673L769.515 278.276L773.487 277.879L773.971 225.478C774.238 196.657 774.739 167.091 775.084 159.777L775.713 146.478H771.893H768.073L768.581 132.386C769.714 100.979 775.264 39.2135 777.052 38.1091C777.355 37.9218 778.386 44.275 779.342 52.2274ZM695.15 43.0134C697.736 58.9149 703.065 124.536 703.15 141.516L703.17 145.684H707.069H710.967L711.441 153.029C712.184 164.556 713.505 230.234 713.502 255.45L713.499 278.276H709.652H705.805L705.298 311.424C704.718 349.374 702.976 395.957 701.164 421.983C698.98 453.345 694.984 491.081 693.955 490.054C693.341 489.439 690.455 464.558 688.913 446.596C685.682 408.935 682.512 331.09 682.512 289.407V278.276H686.485H690.458L690.464 245.922C690.47 216.187 691.274 180.293 692.475 156.251L692.958 146.571L689.125 146.326L685.293 146.081L685.52 136.951C685.824 124.779 687.734 93.9151 689.279 76.2129C690.54 61.7795 693.386 38.4855 693.958 37.9122C694.129 37.7415 694.666 40.0369 695.15 43.0134ZM611.789 38.8968C611.812 39.7701 612.357 44.4148 613.003 49.2182C614.874 63.1427 617.186 90.3065 618.511 113.926C619.184 125.935 619.942 137.974 620.195 140.681L620.656 145.602L624.371 145.842L628.086 146.081L628.554 156.006C629.328 172.423 631.049 275.864 630.568 277.114C630.27 277.89 628.963 278.276 626.633 278.276H623.143L622.642 282.444C622.366 284.736 622.133 295.545 622.122 306.462C622.071 361.316 617.775 442.401 612.988 478.889C612.334 483.88 611.787 488.57 611.774 489.312C611.717 492.467 610.373 488.029 609.537 481.927C604.987 448.747 601.003 379.647 600.242 320.753C600.028 304.159 599.714 287.813 599.544 284.429L599.235 278.276H603.134H607.031L607.048 270.535C607.088 253.362 608.585 172.207 609.093 159.777L609.635 146.478H605.824H602.013L602.529 133.18C603.452 109.337 607.156 63.2531 609.53 46.0424C610.407 39.6907 611.707 35.5804 611.789 38.8968ZM528.659 39.4605C530.463 46.1583 535.416 103.72 536.792 133.974L537.325 145.684H541.123H544.921L545.378 151.441C546.155 161.23 547.447 224.087 547.443 251.877L547.44 278.276H543.467H539.495L539.485 296.736C539.453 357.405 534.163 454.023 529.177 485.009C528.521 489.091 527.58 491.905 527.575 489.801C527.574 489.4 526.865 483.535 526 476.766C521.958 445.172 518.569 388.013 517.266 329.495C516.818 309.413 516.453 289.673 516.453 285.629V278.276H520.426H524.398L524.402 248.701C524.406 221.308 525.218 185.015 526.44 157.792L526.947 146.478H523.336C521.35 146.478 519.536 146.172 519.304 145.798C517.681 143.174 525.881 39.9289 527.87 37.9416C528.034 37.7773 528.39 38.4609 528.659 39.4605ZM446.825 47.8145C448.879 63.5508 451.138 89.4625 452.459 112.439C453.122 123.955 453.884 136.147 454.154 139.531L454.644 145.684H458.412H462.18L462.763 158.586C463.457 173.929 464.584 266.193 464.164 273.314L463.872 278.276H460.455H457.04L456.565 295.942C456.304 305.658 455.887 324.683 455.637 338.22C454.705 388.829 451.046 447.968 446.907 479.324C446.265 484.194 445.739 488.707 445.739 489.353C445.739 491.607 444.95 489.715 444.165 485.579C439.727 462.199 435.036 382.022 434.068 313.012L433.581 278.276H437.557H441.535L442.093 222.103C442.4 191.208 442.899 161.569 443.202 156.239L443.752 146.547L440.177 146.314L436.602 146.081L436.724 134.966C437.006 109.306 443.034 40.1441 445.174 38.0051C445.354 37.8249 446.097 42.2393 446.825 47.8145ZM362.596 38.8896C364.213 43.1 369.573 104.938 370.735 132.783L371.273 145.684H375.087H378.899L379.318 149.059C380.064 155.064 381.401 219.901 381.391 249.495L381.381 278.276H377.408H373.435L373.421 299.117C373.397 335.407 371.337 391.39 368.64 429.129C366.294 461.947 363.028 491.243 361.846 490.063C361.273 489.49 358.278 462.654 356.75 444.408C353.634 407.199 350.573 328.824 350.407 282.047L350.394 278.276H354.366H358.339L358.34 252.671C358.341 228.417 359.291 183.854 360.355 158.189L360.841 146.478H357.253C355.28 146.478 353.496 146.204 353.288 145.869C352.711 144.935 354.942 104.76 356.76 83.3586C358.323 64.945 361.284 38.4672 361.843 37.9099C361.993 37.7598 362.332 38.2012 362.596 38.8896ZM280.767 47.6653C282.63 61.6175 285.044 88.0501 286.034 105.309C286.494 113.323 287.215 124.883 287.637 130.996C288.059 137.11 288.407 142.915 288.411 143.898C288.419 145.503 288.809 145.684 292.27 145.684H296.12L296.683 157.792C297.198 168.901 298.65 248.398 298.719 269.344L298.748 278.276H294.866H290.984L290.485 301.102C288.791 378.529 287.052 417.181 283.618 453.741C281.898 472.049 279.622 490.471 279.14 489.989C278.476 489.326 276.521 474.56 274.971 458.505C271.176 419.193 268.857 371.115 268.034 314.648L267.505 278.374L271.407 278.126L275.309 277.879L275.793 226.669C276.244 178.863 276.902 152.436 277.743 148.309C278.065 146.733 277.737 146.543 274.32 146.324L270.542 146.081L270.289 141.318C269.552 127.469 277.059 40.0599 279.165 37.9543C279.314 37.8066 280.035 42.1758 280.767 47.6653ZM196.544 39.0357C198.632 45.9622 204.927 123.581 204.984 143.104C204.993 145.664 205.023 145.684 208.894 145.684H212.795L213.272 152.235C214.182 164.738 215.321 217.991 215.321 248.052V278.276H211.477H207.633L207.124 314.203C206.313 371.551 202.869 436.041 198.667 472.565C197.135 485.875 196.351 490.627 195.783 490.059C195.193 489.47 192.204 462.815 190.686 444.611C187.544 406.928 184.578 330.947 184.354 282.444L184.334 278.276H188.307H192.28L192.291 252.671C192.303 225.968 193.438 171.899 194.325 155.807L194.839 146.478H191.223C189.234 146.478 187.436 146.204 187.229 145.869C185.646 143.309 193.824 39.8678 195.762 37.9305C195.952 37.7415 196.304 38.2386 196.544 39.0357ZM114.63 47.4191C116.753 62.9625 119.037 89.2188 120.76 117.896C121.64 132.525 122.359 144.762 122.359 145.089C122.36 145.416 124.092 145.684 126.21 145.684H130.058L130.611 157.395C131.107 167.91 132.597 249.754 132.663 270.138L132.689 278.276H128.807H124.925L124.434 301.102C122.403 395.491 119.234 450.571 113.754 486.691C113.004 491.631 112.653 490.454 110.914 477.163C106.088 440.277 102.138 364.553 101.598 298.522L101.435 278.673L105.343 278.276L109.25 277.879L109.733 226.669C110.186 178.647 110.842 152.42 111.695 148.265C112.037 146.595 111.793 146.478 107.953 146.478H103.846L104.334 134.371C105.711 100.149 110.798 42.5188 112.781 38.6856C113.067 38.133 113.898 42.0631 114.63 47.4191ZM30.4586 39.4549C32.6992 48.4108 38.8688 123.939 38.9252 143.104C38.9331 145.664 38.9641 145.684 42.8344 145.684H46.7356L47.213 152.235C48.1228 164.738 49.2623 217.991 49.2623 248.052V278.276H45.4174H41.5735L41.0651 314.203C40.2451 372.179 36.9342 433.704 32.538 472.652C30.6835 489.083 29.9335 492.362 29.1564 487.436C28.0439 480.39 25.4087 455.562 24.2725 441.435C21.4526 406.361 18.5046 327.957 18.2941 282.444L18.275 278.276H22.2478H26.2205L26.2213 253.068C26.2222 227.024 27.4196 167.845 28.2212 154.22L28.6772 146.478H25.1122C23.1512 146.478 21.3779 146.205 21.1713 145.871C19.5552 143.258 27.6825 39.9503 29.6593 37.9742C29.8484 37.786 30.2076 38.4521 30.4586 39.4549Z" fill="#0202E0"/>
</svg>
