<svg width="125" height="126" viewBox="0 0 125 126" fill="none" xmlns="http://www.w3.org/2000/svg">
<rect width="125" height="126" fill="#FC6749"/>
<path fill-rule="evenodd" clip-rule="evenodd" d="M59.8943 21.521C58.0209 22.0171 56.7819 23.3437 55.908 25.7898C55.3315 27.4027 54.728 30.6251 54.0325 35.8019C53.887 36.8846 53.7332 37.9285 53.6907 38.1215L53.6135 38.4725L53.4143 38.1215C53.3049 37.9285 52.3727 36.0715 51.3429 33.9951C48.6688 28.6032 47.2295 26.4035 45.5677 25.17C43.7241 23.8014 41.6289 23.6311 39.552 24.6812C38.6909 25.1164 37.6357 26.2188 37.2768 27.0583C37.006 27.6917 36.9817 27.9302 36.9802 29.9557C36.9783 32.7865 37.1661 33.6615 39.5286 41.827C40.0602 43.6644 40.4792 45.2665 40.4598 45.3873C40.4312 45.5644 39.7675 45.2019 37.0394 43.5193C28.1193 38.0177 25.7028 36.9024 22.9473 37.0154C21.9646 37.0557 21.6364 37.1242 20.9143 37.44C18.7996 38.3649 17.585 40.498 17.9936 42.5695C18.506 45.1667 20.5273 46.9164 29.3419 52.3927C31.6067 53.7998 33.4603 55.0075 33.4612 55.0763C33.4622 55.1502 32.0065 55.388 29.9183 55.6552C25.0241 56.2814 19.9557 57.0843 18.5821 57.4512C15.8646 58.1768 13.8261 59.4993 12.9953 61.0755C12.6078 61.8105 12.5789 61.9493 12.5823 63.0615C12.5866 64.5426 12.8676 65.2821 13.7958 66.2548C14.9504 67.4648 16.3956 68.0892 18.8375 68.4329C20.0409 68.6023 25.0836 68.8248 29.0526 68.8838L30.8373 68.9103L28.0308 70.5664C24.0344 72.9247 23.9859 72.9546 22.2224 74.1464C20.09 75.5875 18.9328 76.6894 18.3045 77.8767C17.8348 78.7644 17.8158 78.8476 17.8187 79.9999C17.8214 81.0455 17.8655 81.2871 18.1631 81.8855C18.5549 82.6732 19.6189 83.7802 20.3686 84.18C21.1869 84.6164 22.1008 84.7586 23.6142 84.685C25.7129 84.583 26.7737 84.2007 32.9725 81.3136C35.3146 80.2226 37.4178 79.2228 37.6461 79.0915C38.0472 78.8612 38.0612 78.8607 38.0612 79.0776C38.0612 79.2011 38.0078 79.3531 37.9427 79.4155C37.8774 79.4777 37.4841 80.1462 37.0685 80.9009C36.653 81.6555 35.5894 83.5883 34.7049 85.196C31.9834 90.1434 31.3119 92.3077 31.8716 94.328C32.278 95.7949 33.1793 96.7861 34.7291 97.4707C36.637 98.3135 38.3864 97.9977 40.6506 96.4014C41.8842 95.5317 44.2062 92.8018 47.2334 88.6615C47.9575 87.6711 48.5913 86.8846 48.6418 86.9138C48.6922 86.9429 48.6276 88.1925 48.498 89.6905C48.3683 91.1899 48.2519 93.7818 48.2391 95.4566C48.2132 98.8438 48.3098 99.4842 49.064 100.93C49.5686 101.897 50.2668 102.548 51.2622 102.98C54.073 104.2 56.7582 103.251 58.5431 100.408C59.5821 98.7527 61.2123 94.4642 62.559 89.8432C62.8899 88.7079 63.218 87.7669 63.2883 87.7521C63.3586 87.7373 64.0345 88.8877 64.7906 90.3083C68.3181 96.938 72.0885 101.119 76.317 103.091C78.0152 103.883 79.2463 104.174 81.2347 104.252C83.7626 104.351 85.3161 103.853 86.9909 102.404C89.407 100.315 90.83 98.1641 95.2186 89.9684C97.3288 86.0276 98.7368 83.6338 99.9553 81.915C100.988 80.4581 101.099 80.3467 101.336 80.5301C101.901 80.9678 104.504 85.2978 106.508 89.132C110.386 96.5518 113.162 100.56 115.757 102.489C117.462 103.756 119.418 104.366 121.405 104.25C123.553 104.125 125.073 103.467 126.9 101.871C129.137 99.9167 130.845 97.3577 134.846 89.9684C136.533 86.8514 138.245 83.7643 138.649 83.1081C139.454 81.8018 140.461 80.4236 140.61 80.4236C140.663 80.4236 140.911 80.6787 141.163 80.9904C142.331 82.439 143.745 84.8457 147.331 91.4893C151.217 98.689 153.512 101.682 156.396 103.315C157.833 104.129 160.329 104.394 162.247 103.936C164.046 103.506 165.239 102.789 167.106 101.018C169.227 99.0045 171.042 96.2937 174.262 90.3263C177.731 83.8992 178.677 82.2241 179.538 80.9904C179.984 80.3506 180.39 79.8271 180.441 79.8271C180.704 79.8271 181.584 80.5494 182.098 81.1885C183.224 82.5877 184.121 84.5046 185.617 88.7073C187.518 94.0526 189.174 97.6656 190.549 99.469C193.044 102.742 195.714 104.129 199.323 104.027C200.581 103.991 200.806 103.95 201.476 103.633C202.347 103.221 203.072 102.501 203.567 101.556C203.879 100.961 203.919 100.751 203.92 99.6921C203.921 98.6459 203.879 98.415 203.579 97.8168C202.86 96.3844 201.461 95.4114 199.9 95.259C198.887 95.1601 198.564 94.852 197.668 93.1308C196.741 91.3498 196.234 90.1095 194.885 86.3295C193.519 82.5036 192.479 80.1656 191.143 77.9178C188.252 73.0532 184.615 70.7596 179.792 70.7596C178.303 70.7596 177.518 70.9352 176.256 71.5511C174.587 72.3657 173.255 73.6597 171.487 76.1819C170.118 78.1364 169.669 78.9133 166.587 84.6591C163.802 89.8508 162.312 92.3521 161.049 93.9555L160.398 94.781L160.155 94.4924C159.23 93.3952 156.482 88.68 153.347 82.8098C150.97 78.3602 149.062 75.6398 146.896 73.6151C145.573 72.3781 145.294 72.1783 144.207 71.6868C142.756 71.0314 141.932 70.838 140.566 70.8328C138.045 70.8232 135.849 71.8845 133.721 74.1413C131.751 76.2316 130.196 78.6728 126.758 85.0767C125.401 87.6031 123.85 90.4218 123.312 91.3405C122.309 93.0522 121.136 94.7408 120.951 94.7408C120.648 94.7408 118.087 90.7023 116.45 87.6419C114.177 83.3931 111.612 78.8433 110.77 77.5663C109.449 75.5648 107.84 73.662 106.76 72.8254C105.236 71.6448 103.621 71.0163 101.863 70.9188C99.7891 70.804 97.7816 71.4399 95.86 72.8206C93.257 74.6911 90.2511 79.0336 86.3129 86.6131C84.9085 89.3159 82.8095 92.9393 81.7945 94.4127C81.4286 94.9441 81.157 95.218 80.9963 95.218C80.5913 95.218 79.2729 94.3141 78.361 93.4112C75.5831 90.6606 72.903 86.1152 69.9292 79.1112C67.3667 73.0758 66.6828 71.9772 65.0408 71.2584C64.3937 70.975 64.1569 70.9385 62.969 70.9385C61.7351 70.9385 61.5612 70.968 60.7952 71.3071C60.326 71.5147 59.6635 71.9478 59.2772 72.2993C58.9002 72.6422 58.5515 72.879 58.5023 72.8255C58.4531 72.772 58.3112 72.4702 58.1869 72.1549C57.9034 71.4356 56.808 70.3156 55.9724 69.8909C55.0098 69.4015 53.8923 69.1737 52.8945 69.2633L52.0479 69.3394L51.7415 68.6706C51.3609 67.8401 50.4818 66.9116 49.6612 66.4739L49.038 66.1415L49.0022 65.1185C48.9707 64.216 48.9109 63.9905 48.4942 63.2031C48.1721 62.5943 47.8051 62.1254 47.3397 61.7281L46.6575 61.1457L47.1419 60.6358C47.7627 59.9823 48.2371 59.0897 48.4167 58.2368C48.5448 57.6288 48.6124 57.5315 49.1117 57.2364C50.1375 56.6302 50.9522 55.5711 51.3512 54.3247C51.5285 53.7706 51.7014 53.6986 52.0327 54.0406C52.1515 54.1633 52.6316 54.4451 53.0996 54.667C53.9208 55.0563 54.0022 55.0704 55.4288 55.0704C56.8401 55.0704 56.9455 55.0527 57.755 54.6805C59.3362 53.9534 60.7777 52.0406 61.3896 49.8577C61.5126 49.4188 61.6518 49.0819 61.6988 49.1091C61.7458 49.1362 61.8601 49.4149 61.9527 49.7282C62.6705 52.1579 64.2533 54.3319 65.9707 55.2465C67.2912 55.9498 69.1944 56.1874 70.5052 55.8126C71.6002 55.4995 73.2133 54.3055 74.0322 53.2016C74.3402 52.7866 74.4016 52.7509 74.4819 52.9411C74.5328 53.0623 74.5796 53.403 74.5854 53.6983C74.6139 55.1028 75.366 56.8257 76.3346 57.705C76.6513 57.9924 77.3488 58.4299 77.8848 58.6772C78.8342 59.1153 78.895 59.1268 80.2395 59.1208L81.6198 59.1146L81.5402 59.8398C81.4013 61.1054 82.1121 62.9601 83.0641 63.8168C83.7338 64.4195 84.9084 65.0071 85.8382 65.2046C87.4829 65.5541 90.9694 65.3951 97.5844 64.6689C105.336 63.818 111.882 62.4404 115.172 60.9671C116.404 60.4159 117.62 59.4236 118.027 58.6392C118.258 58.1943 118.29 57.9888 118.216 57.437C118.094 56.5221 117.847 55.9214 117.318 55.2478C115.776 53.2866 112.713 53.0079 104.929 54.1209C103.418 54.3369 96.3705 55.4733 95.9558 55.5677C95.4206 55.6896 95.6514 55.3292 97.153 53.6983C101.537 48.937 104.079 45.9851 105.27 44.2729C107.484 41.0892 107.516 38.5354 105.366 36.5273C103.118 34.4278 100.372 34.5358 96.5916 36.8722C94.921 37.9047 92.1117 40.0605 88.2163 43.2992C85.4308 45.6153 85.3221 45.6941 85.3221 45.3974C85.3221 45.2875 85.6645 43.5534 86.0831 41.5438C86.5018 39.534 86.9294 37.4066 87.0332 36.816C87.9297 31.7212 87.856 28.7193 86.7929 27.0249C85.8165 25.4687 83.3472 24.4523 81.3753 24.7949C79.7299 25.0807 78.3541 25.9879 77.0162 27.6689C75.7052 29.3166 74.7995 30.8989 72.5432 35.4838C71.4574 37.6901 70.5403 39.4964 70.5052 39.4979C70.47 39.4992 70.2791 38.4938 70.0808 37.2633C69.8826 36.033 69.5209 34.0331 69.2769 32.8192C67.8651 25.7934 66.5086 23.0851 63.7999 21.8835C62.9409 21.5024 62.6837 21.4456 61.6512 21.4085C60.9378 21.383 60.2494 21.427 59.8943 21.521Z" fill="#0202E0"/>
</svg>
