<svg width="241" height="400" viewBox="0 0 241 400" fill="none" xmlns="http://www.w3.org/2000/svg">
<g clip-path="url(#clip0_547_357895)">
<rect width="241" height="400" fill="white"/>
<path d="M0 400H241V0H0V400Z" fill="black"/>
<path d="M162.167 33.7812H113.673L100.436 79.6354H148.393L162.167 33.7812ZM100.509 216.906H54.1741L41.0361 262.422H86.8391L100.509 216.906ZM121.465 147.161H74.3061L54.1741 216.906H100.514L121.465 147.161ZM195.333 171.448H161.317V185.339H149.535V199.974H195.333V171.448ZM131.067 79.6354H83.11L76.5697 102.302H124.261L131.067 79.6354ZM113.329 102.302H65.6379L52.6929 147.156H99.8519L113.329 102.302ZM177.976 210.823H132.178V233.844H177.976V210.823ZM207.349 199.974H161.552V210.823H207.349V199.974ZM177.386 378.141H197.638V357.917H177.386V378.141ZM126.858 265.313V245.089H126.811V245.141H106.606V265.313H126.858ZM138.588 162.182H126.863V176.005H138.588V162.182Z" fill="white"/>
<path d="M177.975 273.146V244.51H132.178V273.089H132.225V250.318V332.75V293.318H111.973V273.146H86.8232L86.8389 273.089H41.036L41.0203 273.146V292.99H58.5811V316.193H132.178V363.724H157.723V343.5H177.975V316.193H199.98V273.146H177.975ZM30.3389 329.521H47.8996V305.849H30.3389V329.521Z" fill="white"/>
</g>
<defs>
<clipPath id="clip0_547_357895">
<rect width="241" height="400" fill="white"/>
</clipPath>
</defs>
</svg>
