<svg width="241" height="400" viewBox="0 0 241 400" fill="none" xmlns="http://www.w3.org/2000/svg">
<rect width="241" height="400" fill="white"/>
<path d="M0 400H241V0H0V400Z" fill="black"/>
<path d="M155.49 33.7812H106.996L93.7591 79.6354H141.716L155.49 33.7812ZM100.508 216.906H54.1731L41.0352 262.422H86.8381L100.508 216.906ZM121.464 147.161H74.3051L54.1731 216.906H100.513L121.464 147.161ZM177.975 171.448H143.954V185.339H132.177V199.974H177.975V171.448ZM139.077 79.6354H91.1253L84.5798 102.302H132.271L139.077 79.6354ZM134.691 102.302H87.005L74.0548 147.156H121.214L134.691 102.302ZM177.975 210.823H132.177V233.844H177.975V210.823ZM181.98 199.974H136.182V210.823H181.98V199.974ZM165.363 362.141H185.615V341.917H165.363V362.141ZM132.198 274.646V254.422H132.151V254.474H111.946V274.646H132.198Z" fill="white"/>
<path d="M143.927 171.516H132.203V185.339H143.927V171.516ZM177.975 262.479V233.844H132.177V262.422H132.224V239.651V322.083V282.651H111.972V262.479H86.8225L86.8381 262.422H41.0352L41.0195 262.479V282.323H58.5803V305.521H132.177V353.057H157.723V332.833H177.975V305.521H199.979V262.479H177.975Z" fill="white"/>
<path d="M34.3438 309.516H51.9045V285.849H34.3438V309.516Z" fill="white"/>
</svg>
