<svg width="241" height="400" viewBox="0 0 241 400" fill="none" xmlns="http://www.w3.org/2000/svg">
<g clip-path="url(#clip0_547_357861)">
<rect width="241" height="400" fill="white"/>
<path d="M0 400H241V0H0V400Z" fill="black"/>
<path d="M162.166 33.7812H113.672L100.435 79.6354H148.392L162.166 33.7812ZM100.508 216.906H54.1731L41.0352 262.422H86.8381L100.508 216.906ZM121.464 147.161H74.3051L54.1731 216.906H100.513L121.464 147.161ZM177.975 171.448H143.954V185.339H132.177V199.974H177.975V171.448ZM135.071 79.6354H87.1145L80.5742 102.302H128.265L135.071 79.6354ZM130.685 102.302H82.9994L70.0492 147.156H117.208L130.685 102.302ZM177.975 210.823H132.177V233.844H177.975V210.823ZM184.65 199.974H138.853V210.823H184.65V199.974ZM169.369 366.141H189.621V345.917H169.369V366.141ZM132.198 270.646V250.422H132.151V250.474H111.946V270.646H132.198Z" fill="white"/>
<path d="M141.257 168.849H129.533V182.672H141.257V168.849ZM177.975 262.479V233.844H132.177V262.422H132.224V239.651V322.083V282.651H111.972V262.479H86.8225L86.8381 262.422H41.0352L41.0195 262.479V282.323H58.5803V305.521H132.177V353.057H157.723V332.833H177.975V305.521H199.979V262.479H177.975Z" fill="white"/>
<path d="M34.3438 313.516H51.9045V289.849H34.3438V313.516Z" fill="white"/>
</g>
<defs>
<clipPath id="clip0_547_357861">
<rect width="241" height="400" fill="white"/>
</clipPath>
</defs>
</svg>
