<svg width="241" height="400" viewBox="0 0 241 400" fill="none" xmlns="http://www.w3.org/2000/svg">
<g clip-path="url(#clip0_547_357899)">
<rect width="241" height="400" fill="white"/>
<path d="M0 400H241V0H0V400Z" fill="black"/>
<path d="M162.167 33.7812H113.673L100.436 79.6354H148.393L162.167 33.7812ZM100.509 216.906H54.1741L41.0361 262.422H86.8391L100.509 216.906ZM121.465 147.161H74.3061L54.1741 216.906H100.514L121.465 147.161ZM181.981 171.448H147.96V185.339H136.183V199.974H181.981V171.448ZM131.067 79.6354H83.11L76.5697 102.302H124.261L131.067 79.6354ZM126.681 102.302H78.9949L66.0447 147.156H113.204L126.681 102.302ZM177.976 210.823H132.178V233.844H177.976V210.823ZM198.003 199.974H152.206V210.823H198.003V199.974ZM174.716 371.474H194.968V351.25H174.716V371.474ZM132.199 270.646V250.422H132.152V250.474H111.947V270.646H132.199ZM138.588 162.182H126.863V176.005H138.588V162.182Z" fill="white"/>
<path d="M177.976 266.479V237.844H132.178V266.422H132.225V243.651V326.083V286.651H111.973V266.479H86.8234L86.8391 266.422H41.0362L41.0205 266.479V286.323H58.5813V309.526H132.178V357.057H157.724V336.833H177.976V309.526H199.98V266.479H177.976Z" fill="white"/>
<path d="M34.3447 320.182H51.9055V296.516H34.3447V320.182Z" fill="white"/>
</g>
<defs>
<clipPath id="clip0_547_357899">
<rect width="241" height="400" fill="white"/>
</clipPath>
</defs>
</svg>
