<svg width="241" height="400" viewBox="0 0 241 400" fill="none" xmlns="http://www.w3.org/2000/svg">
<g clip-path="url(#clip0_547_357866)">
<rect width="241" height="400" fill="white"/>
<path d="M0 400H241V0H0V400Z" fill="black"/>
<path d="M162.166 33.7812H113.672L100.435 79.6354H148.392L162.166 33.7812ZM100.508 216.906H54.1731L41.0352 262.422H86.8381L100.508 216.906ZM121.464 147.161H74.3051L54.1731 216.906H100.513L121.464 147.161ZM181.98 171.448H147.959V185.339H136.182V199.974H181.98V171.448ZM131.066 79.6354H83.109L76.5687 102.302H124.26L131.066 79.6354ZM126.68 102.302H78.9939L66.0437 147.156H113.203L126.68 102.302ZM177.975 210.823H132.177V233.844H177.975V210.823ZM198.002 199.974H152.205V210.823H198.002V199.974ZM174.715 371.474H194.967V351.25H174.715V371.474ZM132.198 270.646V250.422H132.151V250.474H111.946V270.646H132.198ZM138.587 162.182H126.862V176.005H138.587V162.182Z" fill="white"/>
<path d="M177.975 266.479V237.844H132.177V266.422H132.224V243.651V326.083V286.651H111.972V266.479H86.8225L86.8381 266.422H41.0352L41.0195 266.479V286.323H58.5803V309.526H132.177V357.057H157.723V336.833H177.975V309.526H199.979V266.479H177.975Z" fill="white"/>
<path d="M34.3438 320.182H51.9045V296.516H34.3438V320.182Z" fill="white"/>
</g>
<defs>
<clipPath id="clip0_547_357866">
<rect width="241" height="400" fill="white"/>
</clipPath>
</defs>
</svg>
