<svg width="241" height="400" viewBox="0 0 241 400" fill="none" xmlns="http://www.w3.org/2000/svg">
<g clip-path="url(#clip0_547_357891)">
<rect width="241" height="400" fill="white"/>
<path d="M0 400H241V0H0V400Z" fill="black"/>
<path d="M162.167 27.1145H113.672L100.435 72.9687H148.392L162.167 27.1145ZM97.838 216.906H51.5031L38.3651 262.422H84.168L97.838 216.906ZM106.777 147.161H59.6185L39.4865 216.906H85.8214L106.777 147.161ZM199.338 164.781H165.322V178.672H153.54V193.307H199.338V164.781ZM107.033 79.6353H59.076L52.5358 102.302H100.222L107.033 79.6353ZM78.6083 102.302H30.9225L17.9775 147.156H65.1365L78.6083 102.302ZM177.975 210.823H132.177V233.844H177.975V210.823ZM220.706 199.974H174.903V210.823H220.706V199.974ZM181.391 387.479H201.643V367.255H181.391V387.479ZM122.852 263.979V243.755H122.805V243.807H102.6V263.979H122.852ZM138.587 151.516H126.863V165.333H138.587V151.516Z" fill="white"/>
<path d="M177.975 278.479V249.844H132.177V278.422H132.224V255.656V338.083V298.651H111.972V278.479H86.8229L86.8386 278.422H41.0356L41.02 278.479V298.323H58.5807V321.526H132.177V369.057H157.723V348.833H177.975V321.526H199.979V278.479H177.975ZM26.333 333.521H43.8938V309.849H26.333V333.521Z" fill="white"/>
</g>
<defs>
<clipPath id="clip0_547_357891">
<rect width="241" height="400" fill="white"/>
</clipPath>
</defs>
</svg>
