<svg width="241" height="400" viewBox="0 0 241 400" fill="none" xmlns="http://www.w3.org/2000/svg">
<rect width="241" height="400" fill="white"/>
<path d="M0 400H241V0H0V400Z" fill="black"/>
<path d="M162.167 33.7812H113.673L100.436 79.6354H148.393L162.167 33.7812ZM100.509 216.906H54.1741L41.0361 262.422H86.8391L100.509 216.906ZM121.465 147.161H74.3061L54.1741 216.906H100.514L121.465 147.161ZM177.976 171.448H143.955V185.339H132.178V199.974H177.976V171.448ZM135.072 79.6354H87.1155L80.5752 102.302H128.266L135.072 79.6354ZM130.686 102.302H83.0004L70.0502 147.156H117.209L130.686 102.302ZM177.976 210.823H132.178V233.844H177.976V210.823ZM184.651 199.974H138.854V210.823H184.651V199.974ZM169.37 366.141H189.622V345.917H169.37V366.141ZM132.199 270.646V250.422H132.152V250.474H111.947V270.646H132.199Z" fill="white"/>
<path d="M141.258 168.849H129.534V182.672H141.258V168.849ZM177.976 262.479V233.844H132.178V262.422H132.225V239.651V322.083V282.651H111.973V262.479H86.8234L86.8391 262.422H41.0362L41.0205 262.479V282.323H58.5813V305.521H132.178V353.057H157.724V332.833H177.976V305.521H199.98V262.479H177.976Z" fill="white"/>
<path d="M34.3447 313.516H51.9055V289.849H34.3447V313.516Z" fill="white"/>
</svg>
