<svg width="241" height="400" viewBox="0 0 241 400" fill="none" xmlns="http://www.w3.org/2000/svg">
<rect width="241" height="400" fill="white"/>
<path d="M0 400H241V0H0V400Z" fill="black"/>
<path d="M167.507 21.7812H119.013L105.776 67.6354H153.733L167.507 21.7812ZM92.4974 219.573H46.1625L33.0245 265.094H78.8275L92.4974 219.573ZM94.761 147.161H47.5968L27.4648 216.906H73.8049L94.761 147.161ZM203.343 160.781H169.328V174.672H157.546V189.307H203.343V160.781ZM101.692 75.6354H53.7355L47.1952 98.3021H94.8809L101.692 75.6354ZM67.927 102.302H20.2412L7.29102 147.156H54.4552L67.927 102.302ZM185.986 208.156H140.188V231.177H185.986V208.156ZM228.717 197.307H182.914V208.156H228.717V197.307ZM186.732 394.146H206.984V373.922H186.732V394.146ZM122.852 263.979V243.755H122.805V243.807H102.6V263.979H122.852ZM138.587 151.516H126.863V165.333H138.587V151.516ZM126.884 298.651H106.632V278.479H81.4822L81.4978 278.427H35.6949L35.6792 278.479V298.323H53.24V321.526H126.837M136.183 326.859V374.391H161.729V354.167H181.981V326.859H203.985V283.813H181.981V255.177H136.183V283.76H136.23V260.99V303.984M20.9923 345.521H38.553V321.849H20.9923V345.521Z" fill="white"/>
</svg>
