<svg width="241" height="400" viewBox="0 0 241 400" fill="none" xmlns="http://www.w3.org/2000/svg">
<g clip-path="url(#clip0_547_357885)">
<rect width="241" height="400" fill="white"/>
<path d="M0 400H241V0H0V400Z" fill="black"/>
<path d="M172.848 7.1145H124.354L111.117 52.9635H159.074L172.848 7.1145ZM84.4862 219.573H38.1461L25.0133 265.094H70.8163L84.4862 219.573ZM80.0687 147.161H32.9097L12.7777 216.906H59.1178L80.0687 147.161ZM210.019 152.781H176.003V166.672H164.222V181.307H210.019V152.781ZM92.3461 68.9687H44.3891L37.8488 91.6353H85.5346L92.3461 68.9687ZM62.5861 96.9687H14.9004L1.9502 141.823H49.1092L62.5861 96.9687ZM200.673 208.156H154.875V231.177H200.673V208.156ZM239.398 197.307H193.595V208.156H239.398V197.307ZM189.402 400H209.654V379.776H189.402V400ZM118.846 255.979V235.755H118.799V235.807H98.5943V255.979H118.846ZM146.598 144.849H134.874V158.667H146.598V144.849ZM116.202 298.651H95.95V278.479H70.8006L70.8163 278.427H25.0133L24.9977 278.479V298.323H42.5584V321.526H116.15M141.523 336.193V383.724H167.069V363.5H187.321V336.193H209.326V293.146H187.321V264.51H141.523V293.094H141.57V270.323V313.318M20.9922 360.187H38.5529V336.516H20.9922V360.187Z" fill="white"/>
</g>
<defs>
<clipPath id="clip0_547_357885">
<rect width="241" height="400" fill="white"/>
</clipPath>
</defs>
</svg>
