<svg width="241" height="400" viewBox="0 0 241 400" fill="none" xmlns="http://www.w3.org/2000/svg">
<g clip-path="url(#clip0_547_357875)">
<rect width="241" height="400" fill="white"/>
<path d="M0 400H241V0H0V400Z" fill="black"/>
<path d="M162.168 27.1145H113.673L100.436 72.9687H148.393L162.168 27.1145ZM97.839 216.906H51.5041L38.3661 262.422H84.169L97.839 216.906ZM106.778 147.161H59.6194L39.4874 216.906H85.8224L106.778 147.161ZM199.339 164.781H165.323V178.672H153.541V193.307H199.339V164.781ZM107.034 79.6353H59.077L52.5367 102.302H100.222L107.034 79.6353ZM78.6093 102.302H30.9235L17.9785 147.156H65.1375L78.6093 102.302ZM177.976 210.823H132.178V233.844H177.976V210.823ZM220.707 199.974H174.904V210.823H220.707V199.974ZM181.392 387.479H201.644V367.255H181.392V387.479ZM122.853 263.979V243.755H122.806V243.807H102.601V263.979H122.853ZM138.588 151.516H126.863V165.333H138.588V151.516Z" fill="white"/>
<path d="M177.976 278.479V249.844H132.178V278.422H132.225V255.656V338.083V298.651H111.973V278.479H86.8239L86.8395 278.422H41.0366L41.021 278.479V298.323H58.5817V321.526H132.178V369.057H157.724V348.833H177.976V321.526H199.98V278.479H177.976ZM26.334 333.521H43.8947V309.849H26.334V333.521Z" fill="white"/>
</g>
<defs>
<clipPath id="clip0_547_357875">
<rect width="241" height="400" fill="white"/>
</clipPath>
</defs>
</svg>
