<svg width="241" height="400" viewBox="0 0 241 400" fill="none" xmlns="http://www.w3.org/2000/svg">
<rect width="241" height="400" fill="white"/>
<path d="M0 400H241V0H0V400Z" fill="black"/>
<path d="M172.849 7.1145H124.355L111.118 52.9635H159.075L172.849 7.1145ZM84.4872 219.573H38.1471L25.0143 265.094H70.8173L84.4872 219.573ZM80.0696 147.161H32.9107L12.7786 216.906H59.1188L80.0696 147.161ZM210.02 152.781H176.004V166.672H164.222V181.307H210.02V152.781ZM92.347 68.9687H44.3901L37.8498 91.6353H85.5355L92.347 68.9687ZM62.5871 96.9687H14.9014L1.95117 141.823H49.1101L62.5871 96.9687ZM200.674 208.156H154.876V231.177H200.674V208.156ZM239.399 197.307H193.596V208.156H239.399V197.307ZM189.403 400H209.655V379.776H189.403V400ZM118.847 255.979V235.755H118.8V235.807H98.5953V255.979H118.847ZM146.599 144.849H134.875V158.667H146.599V144.849ZM116.203 298.651H95.951V278.479H70.8016L70.8173 278.427H25.0143L24.9987 278.479V298.323H42.5594V321.526H116.151M141.524 336.193V383.724H167.07V363.5H187.322V336.193H209.327V293.146H187.322V264.51H141.524V293.094H141.571V270.323V313.318M20.9931 360.187H38.5539V336.516H20.9931V360.187Z" fill="white"/>
</svg>
