<svg width="241" height="400" viewBox="0 0 241 400" fill="none" xmlns="http://www.w3.org/2000/svg">
<g clip-path="url(#clip0_547_357871)">
<rect width="241" height="400" fill="white"/>
<path d="M0 400H241V0H0V400Z" fill="black"/>
<path d="M162.166 33.7812H113.672L100.435 79.6354H148.392L162.166 33.7812ZM100.508 216.906H54.1731L41.0352 262.422H86.8381L100.508 216.906ZM121.464 147.161H74.3051L54.1731 216.906H100.513L121.464 147.161ZM195.332 171.448H161.316V185.339H149.534V199.974H195.332V171.448ZM131.066 79.6354H83.109L76.5687 102.302H124.26L131.066 79.6354ZM113.328 102.302H65.6369L52.6919 147.156H99.8509L113.328 102.302ZM177.975 210.823H132.177V233.844H177.975V210.823ZM207.349 199.974H161.551V210.823H207.349V199.974ZM177.385 378.141H197.637V357.917H177.385V378.141ZM126.857 265.313V245.089H126.81V245.141H106.605V265.313H126.857ZM138.587 162.182H126.862V176.005H138.587V162.182Z" fill="white"/>
<path d="M177.974 273.146V244.51H132.177V273.089H132.224V250.318V332.75V293.318H111.972V273.146H86.8223L86.8379 273.089H41.035L41.0193 273.146V292.99H58.5801V316.193H132.177V363.724H157.722V343.5H177.974V316.193H199.979V273.146H177.974ZM30.3379 329.521H47.8986V305.849H30.3379V329.521Z" fill="white"/>
</g>
<defs>
<clipPath id="clip0_547_357871">
<rect width="241" height="400" fill="white"/>
</clipPath>
</defs>
</svg>
