<svg width="241" height="400" viewBox="0 0 241 400" fill="none" xmlns="http://www.w3.org/2000/svg">
<g clip-path="url(#clip0_547_357919)">
<rect width="241" height="400" fill="white"/>
<path d="M0 400H241V0H0V400Z" fill="black"/>
<path d="M155.491 33.7812H106.997L93.7601 79.6354H141.717L155.491 33.7812ZM100.509 216.906H54.1741L41.0361 262.422H86.8391L100.509 216.906ZM121.465 147.161H74.3061L54.1741 216.906H100.514L121.465 147.161ZM177.976 171.448H143.955V185.339H132.178V199.974H177.976V171.448ZM141.748 79.6354H93.7966L87.2511 102.302H134.942L141.748 79.6354ZM134.692 102.302H87.006L74.0558 147.156H121.215L134.692 102.302ZM177.976 210.823H132.178V233.844H177.976V210.823ZM177.976 199.974H132.178V210.823H177.976V199.974ZM161.359 358.141H181.611V337.917H161.359V358.141ZM132.199 282.646V262.422H132.152V262.474H111.947V282.646H132.199Z" fill="white"/>
<path d="M143.928 171.516H132.204V185.339H143.928V171.516ZM177.976 262.479V233.844H132.178V262.422H132.225V239.651V322.083V282.651H111.973V262.479H86.8234L86.8391 262.422H41.0362L41.0205 262.479V282.323H58.5813V305.521H132.178V353.057H157.724V332.833H177.976V305.521H199.98V262.479H177.976Z" fill="white"/>
<path d="M41.0205 305.516H58.5813V281.849H41.0205V305.516Z" fill="white"/>
</g>
<defs>
<clipPath id="clip0_547_357919">
<rect width="241" height="400" fill="white"/>
</clipPath>
</defs>
</svg>
