<svg width="480" height="510" viewBox="0 0 480 510" fill="none" xmlns="http://www.w3.org/2000/svg">
<g filter="url(#filter0_i_485_65)">
<path d="M479.945 139.009C479.945 159.444 463.387 176.019 442.973 176.019C422.55 176.019 406 159.444 406 139.009C406 118.566 422.55 102 442.973 102C463.387 102 479.945 118.566 479.945 139.009Z" fill="white"/>
</g>
<path d="M440.632 164.427V122.201L433.484 127.418V119.875L440.632 114.623H447.745V164.427H440.632Z" fill="#0202E0"/>
<g filter="url(#filter1_i_485_65)">
<path d="M411.945 69.0094C411.945 89.4526 395.396 106.019 374.973 106.019C354.55 106.019 338 89.4526 338 69.0094C338 48.5661 354.55 32 374.973 32C395.396 32 411.945 48.5661 411.945 69.0094Z" fill="white"/>
</g>
<path d="M364.18 94.4467V87.7498L377.067 63.4646C377.701 62.2662 378.062 61.2088 378.159 60.2924C378.247 59.3759 378.3 58.248 378.3 56.9087C378.3 56.3006 378.282 55.6574 378.265 54.9701C378.238 54.2916 378.106 53.6924 377.877 53.1725C377.639 52.679 377.287 52.256 376.821 51.9036C376.372 51.5511 375.703 51.3749 374.814 51.3749C373.731 51.3749 372.877 51.6833 372.243 52.2913C371.627 52.8817 371.328 53.7629 371.328 54.9348V58.9882H364.18V55.0758C364.18 53.5954 364.461 52.2032 365.025 50.8814C365.588 49.5685 366.363 48.4317 367.349 47.4625C368.264 46.4755 369.373 45.6913 370.694 45.1009C372.006 44.5193 373.405 44.2197 374.884 44.2197C376.733 44.2197 378.317 44.5634 379.638 45.2419C380.976 45.9292 382.085 46.8544 382.983 48.0264C383.828 49.1807 384.444 50.5113 384.849 52.0093C385.245 53.4897 385.448 55.0758 385.448 56.7677C385.448 57.9661 385.421 58.9794 385.377 59.7989C385.325 60.6272 385.236 61.4027 385.096 62.1252C384.955 62.883 384.717 63.632 384.391 64.381C384.057 65.1388 383.617 66.0376 383.053 67.095L372.595 87.3268H385.448V94.4467H364.18Z" fill="#0202E0"/>
<g filter="url(#filter2_i_485_65)">
<path d="M322.945 37.0094C322.945 57.4438 306.396 74.0187 285.973 74.0187C265.55 74.0187 249 57.4438 249 37.0094C249 16.5661 265.55 0 285.973 0C306.396 0 322.945 16.5661 322.945 37.0094Z" fill="white"/>
</g>
<path d="M283.642 32.6353C285.773 32.6353 287.243 32.3797 288.044 31.8598C288.863 31.3487 289.276 30.1592 289.276 28.2999V21.8497C289.276 20.8187 288.959 19.9816 288.326 19.3471C287.709 18.6951 286.864 18.3602 285.79 18.3602C284.523 18.3602 283.616 18.7656 283.079 19.5586C282.56 20.3341 282.304 21.1007 282.304 21.8497V25.9031H275.156V21.7792C275.156 20.3517 275.438 18.977 276.001 17.6553C276.565 16.3423 277.339 15.2232 278.325 14.3068C279.285 13.3728 280.42 12.615 281.741 12.051C283.053 11.4871 284.452 11.2051 285.931 11.2051C287.877 11.2051 289.488 11.5928 290.755 12.3682C292.04 13.1437 293.018 13.9367 293.678 14.7298C294.144 15.2937 294.558 15.8577 294.91 16.4216C295.262 16.968 295.553 17.6377 295.791 18.4307C296.213 19.964 296.424 22.2374 296.424 25.2686C296.424 27.0134 296.389 28.4232 296.319 29.4983C296.248 30.5557 296.072 31.4369 295.791 32.1418C295.456 32.8732 294.998 33.4988 294.417 34.0099C293.827 34.5298 293.026 35.0937 292.023 35.7018C293.123 36.4067 293.968 37.0676 294.558 37.6756C295.139 38.266 295.579 38.9621 295.861 39.7552C296.143 40.6011 296.301 41.6056 296.354 42.7512C296.398 43.8791 296.424 45.3242 296.424 47.0865C296.424 48.7343 296.389 50.1002 296.319 51.1752C296.248 52.2326 296.143 53.1138 296.002 53.8187C295.861 54.5501 295.667 55.1757 295.438 55.6868C295.201 56.2067 294.893 56.7442 294.523 57.3082C293.625 58.6035 292.489 59.6873 291.107 60.5509C289.743 61.4233 287.947 61.855 285.72 61.855C284.593 61.855 283.396 61.6612 282.128 61.2911C280.878 60.921 279.751 60.3042 278.748 59.4582C277.709 58.6387 276.855 57.5549 276.177 56.2155C275.491 54.8585 275.156 53.1843 275.156 51.2104V47.157H282.304V50.858C282.304 51.9859 282.604 52.9199 283.22 53.6425C283.854 54.3739 284.708 54.7351 285.79 54.7351C286.864 54.7351 287.709 54.3739 288.326 53.6425C288.959 52.9199 289.276 51.9418 289.276 50.717V43.5971C289.276 41.6497 288.898 40.372 288.149 39.7552C287.745 39.3851 287.181 39.1471 286.459 39.0502C285.729 38.9621 284.787 38.9092 283.642 38.9092V32.6353Z" fill="#0202E0"/>
<g filter="url(#filter3_i_485_65)">
<path d="M225.936 45.0094C225.936 65.4438 209.387 82.0187 188.964 82.0187C168.55 82.0187 152 65.4438 152 45.0094C152 24.5661 168.55 8 188.964 8C209.387 8 225.936 24.5661 225.936 45.0094Z" fill="white"/>
</g>
<path d="M190.647 69.4378V62.036H176.457V55.3038L186.739 19.6338H194.274L183.57 55.3038H190.647V41.0992H197.76V55.3038H201.176V62.036H197.76V69.4378H190.647Z" fill="#0202E0"/>
<g filter="url(#filter4_i_485_65)">
<path d="M142.936 93.0006C142.936 113.444 126.387 130.01 105.964 130.01C85.5497 130.01 69 113.444 69 93.0006C69 72.5661 85.5497 56 105.964 56C126.387 56 142.936 72.5661 142.936 93.0006Z" fill="white"/>
</g>
<path d="M116.424 69.6191V76.3513H102.304V89.7804C102.956 89.1284 103.792 88.5732 104.804 88.1238C105.834 87.6832 106.97 87.4541 108.22 87.4541C110.658 87.4541 112.63 88.1943 114.136 89.6747C115.658 91.1375 116.424 93.3316 116.424 96.2659V109.131C116.424 110.823 116.125 112.33 115.544 113.643C114.954 114.938 114.171 116.057 113.185 116.991C112.216 117.908 111.09 118.613 109.804 119.106C108.537 119.599 107.199 119.846 105.79 119.846C104.399 119.846 103.061 119.599 101.776 119.106C100.482 118.613 99.3553 117.908 98.3958 116.991C97.4098 116.057 96.6175 114.938 96.0366 113.643C95.4467 112.33 95.1562 110.823 95.1562 109.131V107.051H102.304V108.849C102.304 110.074 102.63 111.026 103.29 111.704C103.968 112.391 104.848 112.726 105.931 112.726C107.005 112.726 107.833 112.4 108.396 111.739C108.977 111.087 109.276 110.171 109.276 108.99V97.3233C109.276 96.3364 108.959 95.5081 108.326 94.8208C107.709 94.1158 106.917 93.7634 105.931 93.7634C105.315 93.7634 104.804 93.8691 104.382 94.0806C103.959 94.2921 103.616 94.5388 103.361 94.8208C103.079 95.1027 102.868 95.4023 102.727 95.7019C102.489 96.1249 102.348 96.3893 102.304 96.4774H96.0013V69.6191H116.424Z" fill="#0202E0"/>
<g filter="url(#filter5_i_485_65)">
<path d="M88.9453 175.009C88.9453 195.453 72.3956 212.019 51.9727 212.019C31.5585 212.019 15 195.453 15 175.009C15 154.575 31.5585 138 51.9727 138C72.3956 138 88.9453 154.575 88.9453 175.009Z" fill="white"/>
</g>
<path d="M59.8733 148.627L51.7746 169.564L51.9154 169.705C52.1443 169.52 52.514 169.37 53.007 169.246C53.4999 169.132 54.1338 169.07 54.9084 169.07C56.1761 169.07 57.3381 169.379 58.3944 169.987C59.4684 170.577 60.3135 171.344 60.9297 172.278C61.2554 172.798 61.5107 173.317 61.7044 173.829C61.8892 174.322 62.0565 174.992 62.1973 175.838C62.2854 176.684 62.3558 177.759 62.4086 179.045C62.4526 180.314 62.479 181.927 62.479 183.874C62.479 185.522 62.4526 186.87 62.4086 187.927C62.3558 188.967 62.2854 189.831 62.1973 190.536C62.0565 191.293 61.8804 191.928 61.6691 192.439C61.4579 192.932 61.185 193.461 60.8593 194.025C59.9173 195.558 58.6585 196.739 57.0916 197.585C55.5422 198.431 53.7904 198.854 51.845 198.854C49.8907 198.854 48.1477 198.422 46.5984 197.55C45.0667 196.686 43.8342 195.506 42.9011 194.025C42.5226 193.461 42.2321 192.932 42.0208 192.439C41.8095 191.928 41.6511 191.293 41.5631 190.536C41.4222 189.831 41.3254 188.967 41.2814 187.927C41.2285 186.87 41.2109 185.522 41.2109 183.874C41.2109 182.35 41.2285 181.089 41.2814 180.103C41.3254 179.098 41.3958 178.217 41.4926 177.459C41.5807 176.754 41.7215 176.111 41.9152 175.52C42.1 174.939 42.3113 174.322 42.549 173.688L51.9154 148.627H59.8733ZM55.331 178.904C55.331 177.847 54.9788 176.992 54.2746 176.331C53.588 175.679 52.7781 175.344 51.845 175.344C50.9031 175.344 50.0844 175.679 49.3801 176.331C48.6935 176.992 48.359 177.847 48.359 178.904V188.139C48.359 189.223 48.6935 190.095 49.3801 190.747C50.0844 191.408 50.9031 191.734 51.845 191.734C52.7781 191.734 53.588 191.408 54.2746 190.747C54.9788 190.095 55.331 189.223 55.331 188.139V178.904Z" fill="#0202E0"/>
<g filter="url(#filter6_i_485_65)">
<path d="M73.9453 271.009C73.9453 291.444 57.3956 308.019 36.9727 308.019C16.5497 308.019 0 291.444 0 271.009C0 250.566 16.5497 234 36.9727 234C57.3956 234 73.9453 250.566 73.9453 271.009Z" fill="white"/>
</g>
<path d="M27.776 298.599L40.2763 255.527H32.4592V261.272H26.1562V248.795H47.4243V255.95L35.3114 298.599H27.776Z" fill="#0202E0"/>
<g filter="url(#filter7_i_485_65)">
<path d="M102.945 362.009C102.945 382.444 86.3956 399.019 65.9727 399.019C45.5585 399.019 29 382.444 29 362.009C29 341.566 45.5585 325 65.9727 325C86.3956 325 102.945 341.566 102.945 362.009Z" fill="white"/>
</g>
<path d="M69.3153 350.006C69.3153 349.019 68.9632 348.2 68.259 347.539C67.5723 346.86 66.7625 346.516 65.8294 346.516C64.8874 346.516 64.0687 346.86 63.3645 347.539C62.6779 348.2 62.3434 349.019 62.3434 350.006V357.267C62.3434 358.254 62.6779 359.091 63.3645 359.769C64.0687 360.457 64.8874 360.792 65.8294 360.792C66.7625 360.792 67.5723 360.457 68.259 359.769C68.9632 359.091 69.3153 358.254 69.3153 357.267V350.006ZM55.1953 352.79C55.1953 351.451 55.2393 350.314 55.3362 349.371C55.4242 348.411 55.5914 347.574 55.8291 346.869C56.058 346.164 56.3309 345.53 56.639 344.966C56.9383 344.402 57.3256 343.829 57.801 343.238C58.7341 342.022 59.8961 341.071 61.287 340.383C62.6955 339.705 64.2096 339.361 65.8294 339.361C67.4491 339.361 68.9632 339.705 70.3717 340.383C71.7802 341.071 72.9422 342.022 73.8577 343.238C74.3243 343.829 74.7204 344.402 75.0549 344.966C75.3806 345.53 75.6623 346.164 75.9 346.869C76.1289 347.574 76.2873 348.411 76.3578 349.371C76.4282 350.314 76.4634 351.451 76.4634 352.79C76.4634 354.297 76.437 355.566 76.393 356.597C76.3402 357.61 76.1993 358.518 75.9704 359.311C75.7327 360.113 75.3718 360.827 74.8788 361.461C74.3859 362.078 73.7169 362.73 72.8718 363.435C73.7169 364.096 74.3859 364.757 74.8788 365.409C75.3718 366.043 75.7327 366.81 75.9704 367.7C76.1993 368.599 76.3402 369.691 76.393 370.978C76.437 372.247 76.4634 373.815 76.4634 375.666C76.4634 377.217 76.4282 378.503 76.3578 379.508C76.2873 380.495 76.1817 381.367 76.0408 382.116C75.9 382.847 75.6975 383.473 75.4422 383.984C75.1782 384.504 74.8612 385.041 74.4915 385.605C73.6904 386.804 72.5637 387.844 71.1112 388.707C69.6763 389.58 67.9157 390.011 65.8294 390.011C63.7342 390.011 61.9648 389.58 60.5123 388.707C59.0774 387.844 57.9595 386.804 57.1672 385.605C56.7887 385.041 56.4717 384.504 56.2165 383.984C55.9524 383.473 55.7587 382.847 55.6179 382.116C55.477 381.367 55.3714 380.495 55.3009 379.508C55.2305 378.503 55.1953 377.217 55.1953 375.666C55.1953 373.815 55.2129 372.247 55.2657 370.978C55.3098 369.691 55.4506 368.599 55.6883 367.7C55.9172 366.81 56.2869 366.043 56.7799 365.409C57.2728 364.757 57.9419 364.096 58.7869 363.435C57.9419 362.73 57.2728 362.078 56.7799 361.461C56.2869 360.827 55.9172 360.113 55.6883 359.311C55.4506 358.518 55.3098 357.61 55.2657 356.597C55.2129 355.566 55.1953 354.297 55.1953 352.79ZM69.3153 369.603C69.3153 368.616 68.9632 367.788 68.259 367.101C67.5723 366.422 66.7625 366.079 65.8294 366.079C64.8874 366.079 64.0687 366.422 63.3645 367.101C62.6779 367.788 62.3434 368.616 62.3434 369.603V379.367C62.3434 380.354 62.6779 381.191 63.3645 381.869C64.0687 382.557 64.8874 382.891 65.8294 382.891C66.7625 382.891 67.5723 382.557 68.259 381.869C68.9632 381.191 69.3153 380.354 69.3153 379.367V369.603Z" fill="#0202E0"/>
<g filter="url(#filter8_i_485_65)">
<path d="M166.945 435.009C166.945 455.453 150.396 472.019 129.973 472.019C109.55 472.019 93 455.453 93 435.009C93 414.566 109.55 398 129.973 398C150.396 398 166.945 414.566 166.945 435.009Z" fill="white"/>
</g>
<path d="M121.797 462.596L129.896 441.695L129.755 441.554C129.517 441.748 129.156 441.897 128.663 442.012C128.17 442.135 127.537 442.188 126.762 442.188C125.494 442.188 124.315 441.889 123.241 441.272C122.184 440.664 121.348 439.888 120.741 438.945C120.406 438.505 120.151 438.011 119.966 437.465C119.772 436.928 119.632 436.231 119.544 435.385C119.403 434.566 119.306 433.509 119.262 432.213C119.209 430.927 119.191 429.305 119.191 427.349C119.191 425.728 119.209 424.388 119.262 423.331C119.306 422.274 119.403 421.384 119.544 420.652C119.632 419.947 119.79 419.339 120.001 418.819C120.213 418.308 120.477 417.762 120.811 417.198C121.744 415.674 122.994 414.484 124.544 413.638C126.111 412.792 127.871 412.369 129.825 412.369C131.771 412.369 133.505 412.81 135.037 413.673C136.586 414.546 137.827 415.718 138.769 417.198C139.095 417.762 139.377 418.308 139.614 418.819C139.843 419.339 140.037 419.947 140.178 420.652C140.266 421.384 140.336 422.274 140.389 423.331C140.433 424.388 140.459 425.728 140.459 427.349C140.459 428.9 140.433 430.187 140.389 431.191C140.336 432.178 140.266 433.024 140.178 433.729C140.037 434.46 139.878 435.121 139.72 435.703C139.553 436.293 139.35 436.919 139.121 437.571L129.755 462.596H121.797ZM126.339 432.319C126.339 433.403 126.674 434.275 127.361 434.927C128.065 435.562 128.884 435.879 129.825 435.879C130.759 435.879 131.568 435.562 132.255 434.927C132.959 434.275 133.311 433.403 133.311 432.319V423.084C133.311 422.009 132.959 421.146 132.255 420.511C131.568 419.859 130.759 419.524 129.825 419.524C128.884 419.524 128.065 419.859 127.361 420.511C126.674 421.146 126.339 422.009 126.339 423.084V432.319Z" fill="#0202E0"/>
<g filter="url(#filter9_i_485_65)">
<path d="M255.945 472.009C255.945 492.453 239.396 509.019 218.973 509.019C198.558 509.019 182 492.453 182 472.009C182 451.566 198.558 435 218.973 435C239.396 435 255.945 451.566 255.945 472.009Z" fill="white"/>
</g>
<path d="M208.148 457.919C208.148 456.254 208.439 454.773 209.029 453.478C209.61 452.165 210.402 451.037 211.388 450.094C212.347 449.16 213.474 448.438 214.768 447.944C216.054 447.451 217.392 447.204 218.782 447.204C220.191 447.204 221.529 447.451 222.797 447.944C224.082 448.438 225.209 449.16 226.177 450.094C227.163 451.037 227.946 452.165 228.536 453.478C229.117 454.773 229.417 456.254 229.417 457.919V487.139C229.417 488.831 229.117 490.338 228.536 491.651C227.946 492.946 227.163 494.065 226.177 494.999C225.209 495.915 224.082 496.62 222.797 497.114C221.529 497.607 220.191 497.854 218.782 497.854C217.392 497.854 216.054 497.607 214.768 497.114C213.474 496.62 212.347 495.915 211.388 494.999C210.402 494.065 209.61 492.946 209.029 491.651C208.439 490.338 208.148 488.831 208.148 487.139V457.919ZM215.296 487.139C215.296 488.179 215.613 489.033 216.247 489.712C216.899 490.399 217.744 490.734 218.782 490.734C219.812 490.734 220.649 490.399 221.283 489.712C221.934 489.033 222.268 488.179 222.268 487.139V457.919C222.268 456.888 221.934 456.042 221.283 455.381C220.649 454.703 219.812 454.359 218.782 454.359C217.744 454.359 216.899 454.703 216.247 455.381C215.613 456.042 215.296 456.888 215.296 457.919V487.139Z" fill="#0202E0"/>
<g filter="url(#filter10_i_485_65)">
<path d="M353.945 465.009C353.945 485.453 337.396 502.019 316.973 502.019C296.55 502.019 280 485.453 280 465.009C280 444.566 296.55 428 316.973 428C337.396 428 353.945 444.566 353.945 465.009Z" fill="white"/>
</g>
<path d="M316.34 492.597L318.382 477.547H312.501L310.459 492.597H305.741L307.748 477.547H304.191V473.352H308.311L309.861 462.038H306.339V457.843H310.389L312.431 442.793H317.185L315.142 457.843H321.023L323.065 442.793H327.783L325.776 457.843H329.333V462.038H325.213L323.664 473.352H327.185V477.547H323.135L321.093 492.597H316.34ZM318.945 473.352L320.459 462.038H314.614L313.065 473.352H318.945Z" fill="#0202E0"/>
<g filter="url(#filter11_i_485_65)">
<path d="M439.945 416.009C439.945 436.453 423.387 453.019 402.973 453.019C382.55 453.019 366 436.453 366 416.009C366 395.575 382.55 379 402.973 379C423.387 379 439.945 395.575 439.945 416.009Z" fill="white"/>
</g>
<path d="M392.062 413.343L393.999 409.712L400.83 413.907L400.584 405.765H405.056L404.774 413.907L411.605 409.712L413.577 413.343L406.57 417.255L413.577 421.097L411.605 424.798L404.774 420.604L405.056 428.71H400.584L400.83 420.604L393.999 424.798L392.062 421.097L399.034 417.255L392.062 413.343Z" fill="#0202E0"/>
<defs>
<filter id="filter0_i_485_65" x="399.6" y="98" width="80.3453" height="78.0186" filterUnits="userSpaceOnUse" color-interpolation-filters="sRGB">
<feFlood flood-opacity="0" result="BackgroundImageFix"/>
<feBlend mode="normal" in="SourceGraphic" in2="BackgroundImageFix" result="shape"/>
<feColorMatrix in="SourceAlpha" type="matrix" values="0 0 0 0 0 0 0 0 0 0 0 0 0 0 0 0 0 0 127 0" result="hardAlpha"/>
<feOffset dx="-8" dy="-4"/>
<feGaussianBlur stdDeviation="3.2"/>
<feComposite in2="hardAlpha" operator="arithmetic" k2="-1" k3="1"/>
<feColorMatrix type="matrix" values="0 0 0 0 0 0 0 0 0 0 0 0 0 0 0 0 0 0 0.25 0"/>
<feBlend mode="normal" in2="shape" result="effect1_innerShadow_485_65"/>
</filter>
<filter id="filter1_i_485_65" x="331.6" y="28" width="80.3453" height="78.0186" filterUnits="userSpaceOnUse" color-interpolation-filters="sRGB">
<feFlood flood-opacity="0" result="BackgroundImageFix"/>
<feBlend mode="normal" in="SourceGraphic" in2="BackgroundImageFix" result="shape"/>
<feColorMatrix in="SourceAlpha" type="matrix" values="0 0 0 0 0 0 0 0 0 0 0 0 0 0 0 0 0 0 127 0" result="hardAlpha"/>
<feOffset dx="-8" dy="-4"/>
<feGaussianBlur stdDeviation="3.2"/>
<feComposite in2="hardAlpha" operator="arithmetic" k2="-1" k3="1"/>
<feColorMatrix type="matrix" values="0 0 0 0 0 0 0 0 0 0 0 0 0 0 0 0 0 0 0.25 0"/>
<feBlend mode="normal" in2="shape" result="effect1_innerShadow_485_65"/>
</filter>
<filter id="filter2_i_485_65" x="242.6" y="-4" width="80.3453" height="78.0186" filterUnits="userSpaceOnUse" color-interpolation-filters="sRGB">
<feFlood flood-opacity="0" result="BackgroundImageFix"/>
<feBlend mode="normal" in="SourceGraphic" in2="BackgroundImageFix" result="shape"/>
<feColorMatrix in="SourceAlpha" type="matrix" values="0 0 0 0 0 0 0 0 0 0 0 0 0 0 0 0 0 0 127 0" result="hardAlpha"/>
<feOffset dx="-8" dy="-4"/>
<feGaussianBlur stdDeviation="3.2"/>
<feComposite in2="hardAlpha" operator="arithmetic" k2="-1" k3="1"/>
<feColorMatrix type="matrix" values="0 0 0 0 0 0 0 0 0 0 0 0 0 0 0 0 0 0 0.25 0"/>
<feBlend mode="normal" in2="shape" result="effect1_innerShadow_485_65"/>
</filter>
<filter id="filter3_i_485_65" x="145.6" y="4" width="80.3375" height="78.0186" filterUnits="userSpaceOnUse" color-interpolation-filters="sRGB">
<feFlood flood-opacity="0" result="BackgroundImageFix"/>
<feBlend mode="normal" in="SourceGraphic" in2="BackgroundImageFix" result="shape"/>
<feColorMatrix in="SourceAlpha" type="matrix" values="0 0 0 0 0 0 0 0 0 0 0 0 0 0 0 0 0 0 127 0" result="hardAlpha"/>
<feOffset dx="-8" dy="-4"/>
<feGaussianBlur stdDeviation="3.2"/>
<feComposite in2="hardAlpha" operator="arithmetic" k2="-1" k3="1"/>
<feColorMatrix type="matrix" values="0 0 0 0 0 0 0 0 0 0 0 0 0 0 0 0 0 0 0.25 0"/>
<feBlend mode="normal" in2="shape" result="effect1_innerShadow_485_65"/>
</filter>
<filter id="filter4_i_485_65" x="62.6" y="52" width="80.3375" height="78.0098" filterUnits="userSpaceOnUse" color-interpolation-filters="sRGB">
<feFlood flood-opacity="0" result="BackgroundImageFix"/>
<feBlend mode="normal" in="SourceGraphic" in2="BackgroundImageFix" result="shape"/>
<feColorMatrix in="SourceAlpha" type="matrix" values="0 0 0 0 0 0 0 0 0 0 0 0 0 0 0 0 0 0 127 0" result="hardAlpha"/>
<feOffset dx="-8" dy="-4"/>
<feGaussianBlur stdDeviation="3.2"/>
<feComposite in2="hardAlpha" operator="arithmetic" k2="-1" k3="1"/>
<feColorMatrix type="matrix" values="0 0 0 0 0 0 0 0 0 0 0 0 0 0 0 0 0 0 0.25 0"/>
<feBlend mode="normal" in2="shape" result="effect1_innerShadow_485_65"/>
</filter>
<filter id="filter5_i_485_65" x="8.6" y="134" width="80.3453" height="78.0186" filterUnits="userSpaceOnUse" color-interpolation-filters="sRGB">
<feFlood flood-opacity="0" result="BackgroundImageFix"/>
<feBlend mode="normal" in="SourceGraphic" in2="BackgroundImageFix" result="shape"/>
<feColorMatrix in="SourceAlpha" type="matrix" values="0 0 0 0 0 0 0 0 0 0 0 0 0 0 0 0 0 0 127 0" result="hardAlpha"/>
<feOffset dx="-8" dy="-4"/>
<feGaussianBlur stdDeviation="3.2"/>
<feComposite in2="hardAlpha" operator="arithmetic" k2="-1" k3="1"/>
<feColorMatrix type="matrix" values="0 0 0 0 0 0 0 0 0 0 0 0 0 0 0 0 0 0 0.25 0"/>
<feBlend mode="normal" in2="shape" result="effect1_innerShadow_485_65"/>
</filter>
<filter id="filter6_i_485_65" x="-6.4" y="230" width="80.3453" height="78.0186" filterUnits="userSpaceOnUse" color-interpolation-filters="sRGB">
<feFlood flood-opacity="0" result="BackgroundImageFix"/>
<feBlend mode="normal" in="SourceGraphic" in2="BackgroundImageFix" result="shape"/>
<feColorMatrix in="SourceAlpha" type="matrix" values="0 0 0 0 0 0 0 0 0 0 0 0 0 0 0 0 0 0 127 0" result="hardAlpha"/>
<feOffset dx="-8" dy="-4"/>
<feGaussianBlur stdDeviation="3.2"/>
<feComposite in2="hardAlpha" operator="arithmetic" k2="-1" k3="1"/>
<feColorMatrix type="matrix" values="0 0 0 0 0 0 0 0 0 0 0 0 0 0 0 0 0 0 0.25 0"/>
<feBlend mode="normal" in2="shape" result="effect1_innerShadow_485_65"/>
</filter>
<filter id="filter7_i_485_65" x="22.6" y="321" width="80.3453" height="78.0186" filterUnits="userSpaceOnUse" color-interpolation-filters="sRGB">
<feFlood flood-opacity="0" result="BackgroundImageFix"/>
<feBlend mode="normal" in="SourceGraphic" in2="BackgroundImageFix" result="shape"/>
<feColorMatrix in="SourceAlpha" type="matrix" values="0 0 0 0 0 0 0 0 0 0 0 0 0 0 0 0 0 0 127 0" result="hardAlpha"/>
<feOffset dx="-8" dy="-4"/>
<feGaussianBlur stdDeviation="3.2"/>
<feComposite in2="hardAlpha" operator="arithmetic" k2="-1" k3="1"/>
<feColorMatrix type="matrix" values="0 0 0 0 0 0 0 0 0 0 0 0 0 0 0 0 0 0 0.25 0"/>
<feBlend mode="normal" in2="shape" result="effect1_innerShadow_485_65"/>
</filter>
<filter id="filter8_i_485_65" x="86.6" y="394" width="80.3453" height="78.0186" filterUnits="userSpaceOnUse" color-interpolation-filters="sRGB">
<feFlood flood-opacity="0" result="BackgroundImageFix"/>
<feBlend mode="normal" in="SourceGraphic" in2="BackgroundImageFix" result="shape"/>
<feColorMatrix in="SourceAlpha" type="matrix" values="0 0 0 0 0 0 0 0 0 0 0 0 0 0 0 0 0 0 127 0" result="hardAlpha"/>
<feOffset dx="-8" dy="-4"/>
<feGaussianBlur stdDeviation="3.2"/>
<feComposite in2="hardAlpha" operator="arithmetic" k2="-1" k3="1"/>
<feColorMatrix type="matrix" values="0 0 0 0 0 0 0 0 0 0 0 0 0 0 0 0 0 0 0.25 0"/>
<feBlend mode="normal" in2="shape" result="effect1_innerShadow_485_65"/>
</filter>
<filter id="filter9_i_485_65" x="175.6" y="431" width="80.3453" height="78.0186" filterUnits="userSpaceOnUse" color-interpolation-filters="sRGB">
<feFlood flood-opacity="0" result="BackgroundImageFix"/>
<feBlend mode="normal" in="SourceGraphic" in2="BackgroundImageFix" result="shape"/>
<feColorMatrix in="SourceAlpha" type="matrix" values="0 0 0 0 0 0 0 0 0 0 0 0 0 0 0 0 0 0 127 0" result="hardAlpha"/>
<feOffset dx="-8" dy="-4"/>
<feGaussianBlur stdDeviation="3.2"/>
<feComposite in2="hardAlpha" operator="arithmetic" k2="-1" k3="1"/>
<feColorMatrix type="matrix" values="0 0 0 0 0 0 0 0 0 0 0 0 0 0 0 0 0 0 0.25 0"/>
<feBlend mode="normal" in2="shape" result="effect1_innerShadow_485_65"/>
</filter>
<filter id="filter10_i_485_65" x="273.6" y="424" width="80.3453" height="78.0186" filterUnits="userSpaceOnUse" color-interpolation-filters="sRGB">
<feFlood flood-opacity="0" result="BackgroundImageFix"/>
<feBlend mode="normal" in="SourceGraphic" in2="BackgroundImageFix" result="shape"/>
<feColorMatrix in="SourceAlpha" type="matrix" values="0 0 0 0 0 0 0 0 0 0 0 0 0 0 0 0 0 0 127 0" result="hardAlpha"/>
<feOffset dx="-8" dy="-4"/>
<feGaussianBlur stdDeviation="3.2"/>
<feComposite in2="hardAlpha" operator="arithmetic" k2="-1" k3="1"/>
<feColorMatrix type="matrix" values="0 0 0 0 0 0 0 0 0 0 0 0 0 0 0 0 0 0 0.25 0"/>
<feBlend mode="normal" in2="shape" result="effect1_innerShadow_485_65"/>
</filter>
<filter id="filter11_i_485_65" x="359.6" y="375" width="80.3453" height="78.0186" filterUnits="userSpaceOnUse" color-interpolation-filters="sRGB">
<feFlood flood-opacity="0" result="BackgroundImageFix"/>
<feBlend mode="normal" in="SourceGraphic" in2="BackgroundImageFix" result="shape"/>
<feColorMatrix in="SourceAlpha" type="matrix" values="0 0 0 0 0 0 0 0 0 0 0 0 0 0 0 0 0 0 127 0" result="hardAlpha"/>
<feOffset dx="-8" dy="-4"/>
<feGaussianBlur stdDeviation="3.2"/>
<feComposite in2="hardAlpha" operator="arithmetic" k2="-1" k3="1"/>
<feColorMatrix type="matrix" values="0 0 0 0 0 0 0 0 0 0 0 0 0 0 0 0 0 0 0.25 0"/>
<feBlend mode="normal" in2="shape" result="effect1_innerShadow_485_65"/>
</filter>
</defs>
</svg>
