<svg width="324" height="604" viewBox="0 0 324 604" fill="none" xmlns="http://www.w3.org/2000/svg">
<mask id="mask0_194_4687" style="mask-type:alpha" maskUnits="userSpaceOnUse" x="0" y="0" width="324" height="604">
<rect x="323.508" y="603.73" width="323.508" height="603.73" transform="rotate(180 323.508 603.73)" fill="#FC6749"/>
</mask>
<g mask="url(#mask0_194_4687)">
<path fill-rule="evenodd" clip-rule="evenodd" d="M-274.684 -284.71C-283.941 -278.484 -292.446 -268.67 -301.056 -254.275C-303.82 -249.654 -310.4 -236.984 -311.675 -233.828C-314.45 -226.955 -316.184 -216.376 -315.891 -208.092C-315.319 -191.868 -310.699 -175.346 -300.51 -153.08L-298.825 -149.399L-286.985 -143.281C-274.739 -136.953 -264.713 -131.986 -254.613 -127.243C-106.853 -57.8565 42.7416 -34.3106 195.598 -56.3805C203.292 -57.4915 215.592 -59.4453 216.46 -59.6944C217.353 -59.9508 224.165 -69.8257 228.177 -76.6804C229.185 -78.4033 230.9 -81.5452 231.988 -83.6622C233.499 -86.6041 234.114 -87.5494 234.599 -87.6733C235.707 -87.9567 237.307 -87.8235 241.788 -87.0754C244.19 -86.6746 246.307 -86.3428 246.492 -86.3387C246.677 -86.3342 247.07 -85.8412 247.365 -85.2428C247.943 -84.0729 249.175 -82.9664 250.486 -82.4405C251.38 -82.0824 261.109 -81.8403 262.555 -82.1405C263.167 -82.2675 263.661 -82.1578 264.341 -81.7441C264.859 -81.4295 265.887 -81.0865 266.627 -80.9823C267.57 -80.8491 268.215 -80.5582 268.783 -80.0087C269.229 -79.5775 270.16 -78.9657 270.852 -78.6492C271.725 -78.2499 272.212 -77.8188 272.442 -77.2429C272.754 -76.4617 274.383 -74.7493 274.819 -74.744C274.929 -74.7427 275.16 -74.1061 275.335 -73.3296C275.509 -72.553 275.954 -71.5092 276.324 -71.0098C276.777 -70.3997 276.991 -69.7571 276.978 -69.0494C276.855 -62.2811 276.919 -47.3491 277.072 -47.1036C277.181 -46.9284 276.956 -46.1286 276.572 -45.3265C276.188 -44.5243 275.867 -43.4549 275.86 -42.95C275.85 -42.2747 275.558 -41.7117 274.755 -40.8188C274.154 -40.1515 273.581 -39.2515 273.481 -38.8184C273.353 -38.268 272.934 -37.8231 272.087 -37.3388C271.421 -36.9578 270.565 -36.248 270.185 -35.761C269.726 -35.1726 269.099 -34.7747 268.312 -34.5741C267.662 -34.4081 266.66 -33.9607 266.086 -33.5803C265.271 -33.0398 264.705 -32.8925 263.5 -32.9071C261.618 -32.9299 259.958 -32.2109 258.729 -30.8401C257.106 -29.0315 256.572 -27.0112 255.749 -19.5673C255.474 -17.086 255.198 -15.0054 255.135 -14.9436C255.072 -14.8818 253.88 -15.1105 252.488 -15.4522C247.814 -16.5979 245.365 -17.9993 236.247 -24.7418C227.407 -31.2788 218.211 -33.9988 207.315 -33.2998C197.94 -32.6984 192.063 -30.405 182.682 -23.6872C177.962 -20.3071 174.933 -18.5014 172.396 -17.5554C168.502 -16.1033 166.794 -15.8631 160.916 -15.9416C156.009 -16.0071 155.365 -16.0742 152.857 -16.7802C148.947 -17.8807 145.954 -19.5477 139.951 -23.9681C132.452 -29.4899 129.379 -31.199 124.059 -32.8071C120.136 -33.9928 116.841 -34.4648 112.041 -34.529C100.926 -34.6772 94.4276 -32.4739 83.8484 -24.9702C74.3439 -18.2287 70.9464 -17.0032 62.0453 -17.1055C56.6006 -17.1681 54.4576 -17.5413 50.7172 -19.0782C48.0604 -20.1699 46.3892 -21.2197 40.8083 -25.3033C35.0778 -29.4963 34.5077 -29.8741 31.7342 -31.315C25.3502 -34.632 17.3374 -36.2143 9.48556 -35.7085C-0.594867 -35.0597 -5.6111 -32.9575 -17.87 -24.2448C-24.6644 -19.4155 -30.2874 -17.803 -38.7134 -18.2666C-45.8831 -18.6609 -49.819 -20.3395 -58.3341 -26.6345C-68.8805 -34.431 -75.2569 -36.791 -86.1108 -36.915C-97.5963 -37.0464 -103.556 -34.8744 -116.059 -26.0011C-119.774 -23.365 -123.155 -21.5225 -125.923 -20.6272C-129.884 -19.3459 -136.683 -18.9978 -141.436 -19.8328C-146.467 -20.7168 -149.742 -22.2941 -155.714 -26.7095C-163.463 -32.4387 -166.507 -34.2511 -171.063 -35.8464C-179.409 -38.7693 -189.91 -38.9845 -198.406 -36.4068C-203.145 -34.9688 -207.239 -32.732 -214.136 -27.812C-219.099 -24.2714 -222.915 -22.2892 -226.572 -21.353C-229.001 -20.7308 -229.696 -20.6767 -234.566 -20.7296C-240.436 -20.7933 -242.148 -21.0754 -245.98 -22.611C-248.718 -23.7088 -250.881 -25.0634 -256.135 -28.9716C-258.478 -30.7145 -261.525 -32.8287 -262.905 -33.6695C-267.924 -36.7267 -273.832 -38.5981 -280.38 -39.2055C-285.152 -39.6479 -286.859 -39.2678 -288.7 -37.3524C-289.178 -36.855 -289.776 -36.0486 -290.029 -35.5606L-290.489 -34.6732L-291.467 -35.6784C-294.109 -38.3937 -297.947 -38.4808 -300.61 -35.8862C-301.793 -34.7327 -302.205 -33.9536 -302.659 -32.0096L-302.835 -31.2554L-304.121 -31.9211C-306.002 -32.8953 -307.232 -33.0611 -308.976 -32.5758C-311.954 -31.7463 -313.628 -29.5079 -313.681 -26.2845L-313.712 -24.3341L-314.474 -24.6108C-314.892 -24.7629 -316.017 -24.8468 -316.973 -24.7974C-319.328 -24.6756 -321.018 -23.6541 -322.171 -21.6544C-323.151 -19.9552 -323.313 -17.8088 -322.596 -16.026C-322.361 -15.4427 -322.169 -14.9191 -322.17 -14.862C-322.171 -14.805 -322.694 -14.7619 -323.334 -14.7664C-324.706 -14.7759 -326.656 -13.9787 -327.758 -12.958C-330.287 -10.6131 -330.435 -7.08335 -328.137 -3.92561C-327.612 -3.20377 -327.568 -3.02711 -327.916 -3.03132C-328.577 -3.03933 -330.87 -1.83008 -331.552 -1.11352C-332.303 -0.324005 -333.299 1.76892 -333.317 2.59585C-333.324 2.93511 -333.454 3.21146 -333.604 3.20964C-334.076 3.20393 -334.028 10.0413 -333.545 11.5187C-333.029 13.1021 -331.532 14.7241 -329.817 15.5577L-328.516 16.191L-329.77 17.3341C-334.26 21.4269 -332.162 27.9816 -326.044 28.9777L-324.871 29.1686L-325.355 29.8845C-326.447 31.5006 -326.848 32.6521 -326.861 34.2099C-326.878 36.2011 -326.243 37.6938 -324.816 39.0156C-323.36 40.3643 -322.118 40.7546 -319.686 40.6277L-317.698 40.5239L-318.094 41.608C-319.075 44.292 -318.374 47.2765 -316.343 49.0629C-314.118 51.021 -311.286 51.1323 -307.837 49.3972C-307.725 49.3409 -307.71 49.6577 -307.804 50.1013C-308.069 51.349 -307.464 53.8474 -306.6 55.074C-306.171 55.6835 -305.235 56.5374 -304.519 56.971C-303.444 57.6224 -302.908 57.7617 -301.44 57.7709C-299.476 57.7835 -298.072 57.2285 -296.552 55.8387L-295.68 55.0416L-295.285 56.4685C-293.911 61.434 -288.451 63.2644 -284.686 60.0212C-282.848 58.4372 -281.864 56.0848 -279.406 47.3969L-278.492 44.1642L-277.098 44.3706C-272.775 45.0109 -268.614 46.9191 -263.874 50.4356C-254.513 57.3805 -251.504 59.1735 -246.546 60.7636C-241.807 62.2834 -239.519 62.6258 -233.661 62.6915C-227.723 62.7585 -225.028 62.421 -220.53 61.0472C-215.792 59.6007 -211.918 57.5094 -205.894 53.1468C-196.734 46.5131 -193.056 45.1585 -184.486 45.2622C-175.729 45.3683 -172.713 46.5965 -162.582 54.1845C-160.201 55.968 -157.271 57.994 -156.071 58.6867C-149.654 62.3931 -142.328 64.1756 -134.381 63.9642C-124.185 63.6932 -117.715 61.3343 -108.191 54.4158C-101.013 49.2008 -97.5909 47.5051 -92.7314 46.7544C-83.5399 45.3343 -75.7432 47.2097 -68.5933 52.5603C-61.3068 58.0132 -59.764 59.0706 -56.8779 60.5899C-50.8266 63.7759 -45.8946 64.9609 -38.2449 65.0672C-27.1438 65.2216 -20.7757 63.0459 -10.3652 55.5412C-1.02596 48.8089 2.45068 47.5254 11.0668 47.6297C19.8246 47.7357 22.8397 48.964 32.9712 56.5519C35.3523 58.3354 38.2821 60.361 39.4816 61.0528C45.9473 64.7837 53.4745 66.5955 61.4454 66.3394C71.4595 66.0182 77.7997 63.6851 87.2732 56.8363C93.6169 52.2498 97.045 50.3885 100.765 49.5099C103.945 48.7594 108.669 48.5055 112.128 48.8993C117.974 49.5654 121.841 51.1707 127.232 55.1706C136.594 62.1155 139.602 63.9085 144.561 65.4985C149.225 66.9945 151.603 67.3555 157.308 67.4347C168.409 67.5891 174.777 65.4134 185.188 57.9087C190.229 54.2749 193.037 52.5849 195.656 51.6098C199.768 50.0788 205.013 49.5267 210.051 50.0944C215.956 50.7599 219.712 52.3713 225.549 56.745C234.922 63.7679 238.025 65.5226 244.093 67.2347C248.639 68.5174 255.234 69.1168 257.275 68.4329C258.158 68.1372 258.342 68.1773 259.518 68.9232C260.502 69.5466 261.157 69.7476 262.332 69.7865C263.774 69.8345 263.939 69.9138 265.144 71.1432C266.044 72.0621 266.809 72.5573 267.724 72.815C268.817 73.1223 269.087 73.3357 269.415 74.1512C269.871 75.2867 271.217 76.802 272.28 77.377C272.88 77.7014 273.025 77.972 273.016 78.7477C273.004 79.7607 273.47 80.9158 274.453 82.311C274.969 83.0434 275.04 83.535 275.051 86.4884C275.059 88.5527 275.209 90.277 275.443 90.9872C275.803 92.0776 275.789 92.1899 275.167 93.1231C274.378 94.3094 273.8 96.279 273.998 97.1107C274.107 97.5708 273.824 98.0386 272.814 99.0637C271.931 99.9602 271.364 100.832 271.12 101.666C270.811 102.723 270.584 102.994 269.675 103.392C268.645 103.844 266.395 105.937 266.389 106.451C266.387 106.585 265.647 106.832 264.745 106.998C263.639 107.203 262.699 107.604 261.862 108.229C260.742 109.065 260.498 109.138 259.391 108.972C257.655 108.712 255.899 109.264 254.426 110.533C252.216 112.437 251.699 113.986 250.62 121.927C250.283 124.402 250.006 126.58 250.004 126.768C249.995 127.501 244.523 125.98 241.474 124.396C239.19 123.21 238.491 122.735 232.87 118.553C228.006 114.935 224.841 113.004 221.478 111.607C213.515 108.298 203.704 107.609 194.816 109.734C191.206 110.597 188.487 111.66 185.175 113.502C182.896 114.771 181.692 115.576 174.995 120.309C168.145 125.151 161.48 126.899 153.248 126.011C147.178 125.357 143.447 123.775 137.532 119.35C127.379 111.755 123.586 109.78 116.064 108.175C111.735 107.251 103.717 107.154 99.3672 107.973C92.1153 109.338 87.6083 111.472 79.3067 117.472C73.0922 121.964 69.6418 123.678 65.2552 124.453C58.0095 125.732 50.7773 124.828 45.238 121.95C44.083 121.35 41.7359 119.819 40.0223 118.548C30.8892 111.772 28.1858 110.124 23.566 108.515C15.923 105.852 6.69778 105.426 -1.28191 107.365C-6.87614 108.725 -11.0818 110.822 -17.6564 115.53C-22.4566 118.968 -24.1198 120.038 -26.3406 121.116C-30.5153 123.144 -33.7841 123.794 -39.5022 123.733C-47.4711 123.647 -51.4731 122.21 -58.7033 116.836C-67.2791 110.461 -70.1492 108.773 -75.3463 107.046C-79.8242 105.558 -82.4179 105.171 -88.3772 105.101C-92.7921 105.049 -94.2424 105.138 -96.7984 105.615C-103.862 106.933 -108.625 109.222 -117.224 115.43C-124.563 120.728 -128.473 122.255 -135.638 122.622C-138.96 122.792 -143.143 122.342 -146.066 121.501C-149.28 120.576 -152.688 118.686 -157.156 115.35C-165.023 109.477 -167.913 107.753 -172.695 106.081C-182.082 102.801 -194.065 103.074 -202.904 106.771C-206.152 108.13 -209.06 109.845 -213.369 112.944C-223.351 120.121 -227.017 121.502 -235.739 121.369C-243.478 121.251 -247.744 119.698 -254.803 114.427C-263.789 107.717 -267.044 105.879 -272.924 104.194C-275.868 103.351 -280.526 102.627 -283.279 102.587C-286.662 102.536 -288.797 103.658 -290.166 106.205L-290.962 107.686L-292.18 106.457C-293.677 104.946 -294.976 104.36 -296.881 104.337C-298.7 104.315 -300.853 105.296 -301.883 106.617C-302.696 107.661 -303.433 109.475 -303.445 110.465C-303.45 110.823 -303.502 111.115 -303.562 111.114C-303.622 111.114 -304.369 110.734 -305.221 110.271C-308.61 108.431 -312.356 109.585 -314.22 113.043C-314.671 113.879 -314.808 114.602 -314.81 116.147C-314.812 118.084 -314.835 118.152 -315.396 117.966C-315.717 117.86 -316.664 117.7 -317.501 117.613C-320.169 117.332 -322.911 118.962 -323.992 121.469C-324.557 122.781 -324.503 125.316 -323.878 126.741C-323.589 127.403 -323.352 127.961 -323.353 127.982C-323.353 128.004 -323.955 128.023 -324.69 128.024C-327.379 128.031 -329.918 129.67 -330.951 132.066C-331.832 134.111 -331.3 136.988 -329.675 138.966C-328.885 139.928 -328.872 139.906 -330.531 140.407C-331.164 140.598 -332.141 141.124 -332.701 141.576C-333.815 142.474 -335.037 144.727 -335.055 145.917C-335.062 146.332 -335.202 146.67 -335.367 146.668C-335.574 146.665 -335.649 147.866 -335.613 150.574C-335.567 153.936 -335.479 154.643 -334.98 155.615C-334.3 156.941 -332.762 158.403 -331.446 158.973L-330.514 159.378L-331.64 160.395C-333.11 161.724 -333.89 163.421 -333.914 165.341C-333.937 167.251 -333.282 168.76 -331.854 170.082C-330.872 170.992 -328.626 171.989 -327.528 172.002C-327.073 172.007 -327.035 171.872 -328.013 173.749C-329.447 176.501 -329.091 179.206 -327.014 181.35C-325.58 182.829 -324.03 183.394 -321.72 183.279L-320.177 183.202L-320.399 184.022C-320.522 184.473 -320.628 185.66 -320.636 186.659C-320.648 188.192 -320.524 188.687 -319.846 189.817C-318.299 192.395 -315.092 193.604 -312.373 192.633C-310.14 191.835 -310.291 191.778 -310.273 193.421C-310.242 196.169 -308.519 198.629 -305.961 199.58C-303.946 200.329 -302.084 200.005 -299.876 198.521C-298.626 197.681 -298.454 197.631 -298.316 198.067C-297.802 199.695 -296.747 201.497 -295.936 202.134C-292.192 205.07 -287.727 203.712 -285.462 198.948C-284.952 197.874 -283.86 194.569 -283.035 191.603L-281.536 186.21L-279.999 186.39C-278.061 186.617 -274.38 187.822 -272.254 188.926C-270.594 189.787 -267.873 191.664 -261.81 196.129C-256.319 200.174 -251.116 202.648 -245.628 203.827C-241.926 204.622 -237.025 204.957 -233.075 204.685C-223.596 204.033 -217.904 201.742 -208.09 194.633C-203.47 191.286 -200.722 189.695 -197.788 188.671C-194.27 187.442 -190.71 187.017 -185.932 187.254C-178.242 187.635 -174.662 189.126 -166.449 195.369C-156.052 203.27 -149.409 205.779 -138.561 205.902C-127.89 206.023 -120.794 203.608 -111.094 196.556C-102.073 189.997 -98.5107 188.578 -90.6167 188.4C-85.7851 188.29 -82.4844 188.773 -78.9467 190.105C-75.9027 191.252 -73.5835 192.691 -67.744 197.057C-58.8288 203.722 -52.9205 206.197 -44.0402 206.985C-40.0582 207.339 -34.6199 207.065 -31.0686 206.333C-24.7239 205.024 -20.0586 202.785 -12.9059 197.616C-6.81139 193.212 -4.32156 191.806 -0.649499 190.696C4.0378 189.279 11.5473 189.163 16.45 190.433C19.6816 191.269 23.657 193.326 27.3235 196.058C33.897 200.955 36.0342 202.428 38.3946 203.687C47.7057 208.654 60.1517 209.749 70.8185 206.539C75.3709 205.169 79.5345 202.864 86.163 198.043C91.7531 193.978 95.4064 192.152 99.786 191.236C102.749 190.616 110.649 190.704 113.564 191.389C118.338 192.511 120.739 193.797 127.55 198.878C130.23 200.877 133.392 203.107 134.577 203.834C141.272 207.939 150.173 210.007 158.735 209.448C168.713 208.796 174.111 206.582 184.988 198.682C189.219 195.61 193.608 193.382 196.961 192.608C199.964 191.914 206.06 191.712 209.375 192.197C214.716 192.979 218.446 194.733 224.634 199.375C230.18 203.533 232.738 205.218 235.702 206.663C240.363 208.936 244.314 210.006 249.996 210.536C252.933 210.809 253.772 210.798 255.121 210.463C256.548 210.108 256.784 210.11 257.178 210.475C257.96 211.203 259.586 211.756 260.992 211.773C262.086 211.787 262.417 211.902 262.65 212.351C263.07 213.163 264.995 214.521 266.214 214.866C267.017 215.093 267.348 215.375 267.627 216.068C268.13 217.318 269.512 218.874 270.492 219.295C271.175 219.588 271.308 219.801 271.299 220.582C271.285 221.73 271.906 223.334 272.724 224.261C273.282 224.893 273.336 225.244 273.34 228.257C273.344 230.253 273.5 232.097 273.734 232.915C274.06 234.051 274.063 234.336 273.75 234.687C272.956 235.577 272.406 237.024 272.327 238.427C272.254 239.721 272.123 240.007 271.198 240.886C270.196 241.839 269.141 243.65 269.084 244.518C269.069 244.744 268.414 245.233 267.629 245.605C266.604 246.09 265.964 246.64 265.365 247.552C264.685 248.585 264.375 248.824 263.708 248.833C262.701 248.847 260.632 249.731 259.784 250.511C259.258 250.995 258.81 251.086 257.021 251.077C255.135 251.068 254.727 251.163 253.529 251.884C250.971 253.423 249.99 255.816 249.058 262.793C248.797 264.752 248.501 266.953 248.402 267.686L248.222 269.019L246.884 268.824C243.013 268.261 238.884 266.275 233.998 262.626C223.802 255.011 219.786 252.903 212.463 251.32C209.033 250.578 199.063 250.461 195.603 251.121C188.367 252.501 183.764 254.742 174.656 261.317C170.577 264.262 166.058 266.596 162.82 267.431C160.909 267.923 159.879 267.99 154.881 267.942C149.701 267.892 148.909 267.821 146.82 267.223C142.451 265.973 140.269 264.694 131.862 258.46C125.842 253.994 121.256 251.773 114.988 250.285C112.474 249.689 111.467 249.606 106.003 249.548C100.698 249.492 99.4666 249.562 97.0781 250.055C93.0492 250.886 90.379 251.806 86.8059 253.595C83.9275 255.036 82.1492 256.194 74.9502 261.32C71.8535 263.524 67.6842 265.516 64.6327 266.248C62.4671 266.768 61.4912 266.831 56.6937 266.766C50.7997 266.685 49.2867 266.437 45.6775 264.954C43.0168 263.862 40.8971 262.514 35.4582 258.456C29.8303 254.257 26.8188 252.453 22.8206 250.887C18.378 249.147 15.3237 248.559 9.45776 248.316C-2.25048 247.83 -9.0525 250.059 -20.0592 257.987C-27.0073 262.991 -30.2619 264.578 -35.2428 265.387C-38.3051 265.884 -44.498 265.81 -47.2749 265.242C-52.4427 264.185 -55.2456 262.753 -61.9675 257.735C-67.8602 253.335 -68.4526 252.94 -71.4751 251.391C-77.8908 248.104 -83.3492 246.938 -91.5999 247.091C-102.183 247.288 -107.896 249.444 -118.943 257.41C-124.301 261.275 -127.228 262.816 -131.194 263.862C-133.143 264.376 -134.047 264.433 -139.269 264.37C-144.455 264.307 -145.4 264.226 -147.271 263.681C-151.527 262.441 -153.725 261.136 -162.946 254.374C-168.551 250.266 -173.113 248.099 -179.078 246.714C-181.509 246.15 -182.644 246.06 -188.147 245.998C-193.574 245.937 -194.803 246.005 -197.094 246.487C-203.963 247.933 -208.449 250.105 -216.318 255.793C-224.676 261.835 -228.206 263.166 -236.227 263.297C-245.123 263.443 -249.347 261.911 -257.849 255.456C-265.892 249.348 -270.827 246.833 -277.502 245.438C-280.768 244.755 -286.383 244.48 -288.033 244.921C-289.619 245.346 -291.733 247.281 -292.246 248.779L-292.59 249.783L-293.886 248.417C-297.771 244.317 -304.229 246.368 -305.064 251.965C-305.165 252.645 -305.295 253.201 -305.353 253.201C-305.411 253.2 -305.914 252.891 -306.47 252.515C-309.686 250.338 -314.03 251.414 -315.838 254.836C-316.42 255.937 -316.544 256.533 -316.539 258.204C-316.533 259.99 -316.586 260.21 -316.98 260.033C-317.849 259.643 -320.791 259.539 -321.812 259.863C-323.164 260.292 -324.937 261.885 -325.574 263.244C-326.239 264.662 -326.261 266.856 -325.628 268.59L-325.124 269.97L-326.148 269.958C-328.814 269.926 -331.213 271.306 -332.35 273.526C-333.548 275.865 -333.304 278.187 -331.607 280.602L-330.724 281.858L-332.098 282.329C-334.55 283.169 -336.728 285.687 -336.769 287.73C-336.777 288.145 -336.907 288.483 -337.058 288.481C-337.425 288.476 -337.495 295.16 -337.142 296.498C-336.74 298.021 -335.319 299.742 -333.785 300.565C-333.037 300.966 -332.382 301.318 -332.329 301.347C-332.276 301.376 -332.701 301.802 -333.273 302.293C-336.035 304.666 -336.421 308.785 -334.144 311.567C-333.268 312.637 -331.024 313.787 -329.774 313.806C-328.757 313.821 -328.676 314.119 -329.41 315.142C-331.525 318.091 -330.646 322.401 -327.522 324.391C-326.338 325.145 -325.96 325.24 -324.039 325.263C-322.013 325.287 -321.893 325.322 -322.048 325.836C-322.828 328.429 -322.452 330.801 -320.98 332.568C-319.075 334.856 -315.999 335.585 -313.255 334.397L-312.005 333.856L-311.989 335.305C-311.948 338.951 -309.172 341.858 -305.7 341.891C-303.923 341.908 -302.608 341.419 -301.217 340.224C-300.502 339.609 -300.168 339.461 -300.089 339.723C-300.027 339.927 -299.845 340.541 -299.685 341.087C-299.338 342.273 -297.767 344.232 -296.71 344.797C-293.553 346.483 -289.934 345.48 -287.901 342.355C-286.985 340.946 -285.719 337.28 -284.227 331.711L-283.256 328.086L-282.292 328.252C-278.488 328.906 -274.519 330.371 -271.853 332.107C-271.078 332.612 -268.918 334.165 -267.054 335.559C-258.165 342.206 -254.267 344.227 -247.242 345.83C-243.462 346.692 -236.076 346.984 -232.002 346.433C-223.876 345.333 -218.942 343.18 -210.317 336.967C-203.381 331.971 -200.274 330.453 -195.143 329.553C-191.669 328.943 -184.041 329.246 -180.96 330.115C-177.099 331.205 -173.292 333.367 -168.055 337.447C-161.15 342.826 -155.876 345.514 -149.212 347.05C-146.805 347.604 -145.608 347.7 -140.279 347.765C-134.95 347.829 -133.751 347.762 -131.331 347.266C-124.174 345.798 -120.28 343.86 -110.468 336.884C-108.495 335.481 -105.643 333.734 -104.13 333C-100.074 331.035 -97.9132 330.572 -92.3367 330.474C-86.9088 330.378 -84.7134 330.676 -80.9318 332.022C-77.7331 333.16 -75.4976 334.524 -69.5985 338.938C-64.5788 342.693 -61.5914 344.542 -58.1952 345.993C-48.7479 350.031 -35.4961 350.183 -26.1954 346.361C-22.842 344.983 -20.4745 343.645 -16.5546 340.91C-7.43518 334.549 -5.0731 333.256 -0.584289 332.17C1.13257 331.755 2.42422 331.688 7.21658 331.762C12.208 331.839 13.2376 331.932 15.0817 332.465C19.3703 333.708 21.3567 334.88 29.9615 341.248C36.0005 345.718 40.7126 347.995 46.8883 349.428C49.3091 349.99 50.4602 350.081 55.8211 350.141C61.1301 350.201 62.3586 350.132 64.7687 349.639C71.9124 348.177 76.0552 346.098 85.8679 339.054C89.6259 336.356 93.7551 334.272 96.9172 333.478C100.252 332.64 108.007 332.575 111.555 333.356C116.576 334.46 119.004 335.754 126.366 341.246C133.502 346.57 137.321 348.603 143.051 350.125C146.98 351.169 150.516 351.54 155.496 351.43C166.042 351.198 171.831 348.939 183.545 340.483C187.638 337.529 191.586 335.51 194.968 334.642C197.047 334.108 197.922 334.051 203.043 334.113C208.179 334.175 209.032 334.252 211.104 334.841C214.373 335.771 217.853 337.595 221.453 340.266C228.565 345.542 230.385 346.78 233.099 348.189C236.285 349.842 239.967 351.157 243.449 351.883C246.605 352.543 252.34 352.853 253.651 352.437C254.579 352.142 254.798 352.187 256.336 352.981C257.481 353.572 258.41 353.85 259.274 353.86C260.367 353.874 260.66 354.009 261.439 354.858C262.4 355.905 264.111 356.934 264.918 356.951C265.232 356.957 265.7 357.527 266.224 358.544C266.8 359.662 267.41 360.374 268.3 360.965C269.354 361.667 269.56 361.946 269.564 362.677C269.569 363.827 269.97 364.881 270.855 366.071C271.534 366.984 271.578 367.234 271.602 370.333C271.616 372.144 271.786 374.183 271.979 374.864C272.316 376.052 272.297 376.161 271.512 377.536C270.943 378.532 270.669 379.415 270.611 380.43C270.539 381.723 270.412 381.996 269.508 382.814C268.914 383.352 268.207 384.411 267.817 385.349C267.318 386.546 266.945 387.042 266.365 387.279C265.266 387.728 263.923 388.889 263.223 389.995C262.748 390.745 262.45 390.936 261.76 390.932C260.65 390.927 258.873 391.723 258.056 392.592C257.472 393.214 257.317 393.248 256.21 392.997C253.858 392.464 250.941 393.817 249.486 396.116C248.615 397.491 247.886 400.6 247.168 406.005C246.809 408.7 246.474 410.947 246.423 410.998C246.208 411.212 242.061 410.12 240.096 409.333C237.429 408.264 235.183 406.841 229.773 402.791C224.885 399.132 222.32 397.51 219.109 396.047C213.901 393.675 209.016 392.67 202.335 392.596C191.73 392.478 184.87 394.765 175.411 401.573C165.8 408.49 162.358 409.897 154.527 410.109C146.385 410.33 141.316 408.691 134.498 403.633C125.028 396.607 123.051 395.422 117.75 393.59C113.039 391.963 109.97 391.464 104.285 391.4C93.3508 391.276 86.7437 393.58 76.2434 401.18C67.2179 407.713 63.6336 408.986 54.7003 408.833C50.2824 408.757 49.4981 408.67 47.0514 407.985C43.1366 406.888 40.1122 405.202 34.417 400.942C28.6735 396.645 26.2349 395.089 22.9974 393.65C17.6282 391.266 12.8847 390.295 6.23528 390.222C-0.986297 390.142 -5.94138 391.125 -11.6072 393.764C-15.2678 395.468 -16.8174 396.413 -21.4871 399.788C-30.0699 405.991 -33.7634 407.473 -41.3228 407.751C-47.1851 407.965 -52.0923 406.933 -56.5617 404.545C-57.7481 403.911 -60.5563 402.018 -62.8022 400.337C-70.0657 394.904 -73.3633 392.919 -77.72 391.36C-86.5221 388.21 -97.3889 388.128 -106.201 391.144C-110.41 392.585 -113.413 394.26 -119.42 398.519C-124.762 402.305 -125.453 402.746 -128.017 403.998C-132.242 406.061 -137.052 406.874 -142.885 406.51C-150.182 406.055 -153.564 404.609 -161.818 398.418C-168.685 393.267 -171.98 391.394 -177.062 389.755C-181.411 388.352 -184.353 387.908 -189.728 387.844C-200.624 387.714 -208.027 390.301 -218.011 397.728C-224.517 402.567 -228.293 404.342 -233.703 405.103C-238.126 405.725 -243.158 405.454 -247.181 404.377C-251.134 403.319 -254.141 401.535 -262.579 395.241C-270.069 389.655 -277.696 386.895 -286.274 386.668C-289.033 386.596 -289.555 386.657 -290.538 387.169C-291.874 387.865 -293.427 389.483 -293.962 390.734L-294.347 391.636L-295.456 390.522C-298.171 387.795 -301.827 387.485 -304.404 389.764C-305.728 390.935 -306.535 392.386 -306.782 394.039L-306.963 395.254L-308.409 394.413C-310.423 393.24 -312.328 393.049 -314.202 393.83C-316.994 394.995 -318.625 397.807 -318.287 400.873C-318.13 402.288 -318.145 402.332 -318.674 402.04C-320.438 401.065 -323.553 401.451 -325.471 402.881C-327.573 404.449 -328.436 408.082 -327.315 410.641C-327.026 411.303 -326.79 411.892 -326.79 411.951C-326.791 412.01 -327.438 412.051 -328.227 412.043C-333.024 411.994 -336.165 416.799 -334.187 421.159C-333.842 421.917 -333.3 422.776 -332.982 423.068C-332.663 423.359 -332.403 423.676 -332.404 423.772C-332.405 423.868 -332.932 424.081 -333.574 424.245C-335.348 424.698 -336.905 425.947 -337.748 427.592C-338.154 428.384 -338.49 429.379 -338.495 429.802C-338.5 430.225 -338.628 430.57 -338.778 430.568C-339.242 430.562 -339.203 437.397 -338.73 438.844C-338.247 440.325 -336.607 442.115 -335.082 442.827L-333.985 443.34L-335.23 444.581C-336.755 446.101 -337.342 447.403 -337.357 449.3C-337.383 452.541 -335.067 455.205 -331.723 455.783C-331.108 455.889 -330.606 456.031 -330.607 456.098C-330.608 456.165 -330.931 456.757 -331.325 457.413C-332.769 459.816 -332.536 463.001 -330.769 465.017C-329.374 466.609 -327.775 467.292 -325.452 467.29C-323.654 467.289 -323.587 467.312 -323.774 467.879C-323.881 468.203 -324.04 469.155 -324.128 469.994C-324.629 474.79 -319.53 478.374 -315.026 476.39C-314.367 476.099 -313.804 475.862 -313.776 475.862C-313.749 475.863 -313.718 476.545 -313.709 477.379C-313.645 483.096 -307.305 485.893 -302.817 482.186C-301.995 481.507 -301.907 481.487 -301.765 481.951C-300.942 484.65 -299.915 486.017 -298.03 486.926C-296.103 487.854 -294.267 487.838 -292.374 486.875C-289.659 485.495 -288.548 483.254 -286.077 474.185L-284.972 470.128L-283.53 470.326C-282.736 470.436 -281.321 470.758 -280.386 471.043C-276.28 472.293 -273.884 473.649 -268.234 477.92C-261.49 483.017 -258.487 484.777 -253.57 486.511C-249.17 488.063 -245.819 488.595 -240.049 488.658C-229.153 488.776 -222.443 486.505 -212.582 479.365C-206.042 474.628 -202.681 472.802 -198.876 471.918C-192.683 470.478 -185.228 470.948 -179.801 473.12C-177.208 474.157 -174.882 475.597 -170.587 478.823C-161.549 485.613 -157.18 487.786 -149.515 489.304C-146.053 489.99 -137.917 490.063 -134.198 489.442C-127.094 488.255 -121.793 485.793 -113.704 479.921C-105.196 473.746 -101.254 472.326 -92.824 472.401C-84.9644 472.472 -81.0398 473.822 -74.2908 478.776C-65.0474 485.562 -62.0849 487.34 -57.3274 488.958C-49.0968 491.757 -38.814 491.881 -30.4564 489.281C-25.895 487.862 -21.7398 485.502 -14.011 479.938C-9.88485 476.968 -5.55732 474.86 -2.14378 474.158C2.95731 473.108 9.18986 473.296 13.8867 474.642C16.8672 475.496 20.3618 477.412 24.292 480.347C32.7687 486.677 35.666 488.401 40.7308 490.13C45.2869 491.685 48.2913 492.154 54.101 492.219C59.5528 492.28 62.1302 491.976 66.5649 490.751C71.4593 489.398 75.8561 486.989 83.6162 481.408C91.0416 476.068 95.2235 474.665 103.413 474.768C111.727 474.872 115.365 476.299 124.24 482.939C129.809 487.106 131.998 488.481 135.71 490.146C144.187 493.949 155.862 494.586 165.164 491.754C170.111 490.247 173.878 488.19 180.71 483.26C185.178 480.037 187.473 478.678 190.276 477.597C195.721 475.496 203.899 475.258 209.987 477.023C213.07 477.917 216.509 479.838 220.798 483.063C228.494 488.849 231.588 490.698 236.424 492.403C241.468 494.181 249.288 495.208 251.875 494.431C253.042 494.08 253.19 494.091 253.788 494.569C254.639 495.252 257.167 496.031 258.028 495.877C258.563 495.781 258.98 496.034 259.972 497.054C260.849 497.954 261.636 498.47 262.542 498.736C263.643 499.059 263.912 499.277 264.248 500.114C264.713 501.271 266.052 502.785 267.123 503.364C267.723 503.688 267.868 503.959 267.859 504.735C267.846 505.748 268.312 506.903 269.296 508.298C269.812 509.03 269.883 509.522 269.894 512.475C269.901 514.539 270.052 516.264 270.286 516.974C270.646 518.064 270.631 518.177 270.01 519.11C269.217 520.302 268.643 522.267 268.843 523.108C268.956 523.585 268.683 524.022 267.627 525.056C266.639 526.024 266.173 526.74 265.928 527.669C265.691 528.568 265.417 529.001 265.006 529.126C263.895 529.465 262.456 530.578 261.781 531.621C261.188 532.537 260.906 532.706 259.53 532.974C258.508 533.173 257.515 533.611 256.691 534.226C255.613 535.031 255.284 535.143 254.482 534.983C251.186 534.321 247.945 536.584 246.762 540.374C246.405 541.517 244.863 551.437 244.848 552.686C244.837 553.552 239.149 551.91 235.716 550.05C234.67 549.483 232.472 548.025 230.831 546.808C221.601 539.965 218.574 538.164 213.637 536.581C208.837 535.041 206.617 534.711 200.616 534.643C194.4 534.573 191.71 534.921 187.152 536.382C182.148 537.986 178.502 540.035 170.942 545.492C166.842 548.451 162.826 550.514 159.68 551.275C154.928 552.424 147.9 552.408 143.635 551.238C139.23 550.031 136.791 548.671 130.344 543.827C127.886 541.98 124.895 539.868 123.699 539.135C115.968 534.392 106.361 532.451 96.4911 533.638C88.5085 534.597 83.0908 536.944 74.5472 543.144C66.752 548.801 63.1437 550.334 56.3545 550.874C52.6649 551.168 48.4416 550.798 45.0145 549.881C41.8253 549.027 37.9225 546.874 33.5113 543.533C24.5407 536.74 19.6921 534.265 12.578 532.848C8.56336 532.048 0.0498329 532.015 -4.04235 532.784C-10.0597 533.913 -15.2994 536.199 -20.8821 540.13C-22.6271 541.359 -25.1097 543.11 -26.399 544.021C-31.4879 547.617 -35.7238 549.2 -41.492 549.662C-50.0143 550.344 -56.2904 548.47 -63.4657 543.098C-68.9643 538.982 -73.2027 536.143 -75.5284 535.019C-80.6454 532.545 -85.388 531.363 -91.4824 531.042C-99.3567 530.629 -105.66 531.791 -111.907 534.81C-115.163 536.383 -116.904 537.464 -121.302 540.641C-126.018 544.047 -129.196 545.957 -131.713 546.896C-138.524 549.435 -148.504 549.097 -154.866 546.11C-157.006 545.106 -159.492 543.457 -164.351 539.819C-171.979 534.107 -176.612 531.856 -183.621 530.456C-187.143 529.752 -196.089 529.657 -199.522 530.286C-206.676 531.598 -212.194 534.159 -219.455 539.538C-226.779 544.964 -230.901 546.733 -237.514 547.293C-243.434 547.793 -249.337 546.763 -253.797 544.452C-255.865 543.38 -257.342 542.366 -263.835 537.561C-272.003 531.516 -279.114 528.888 -287.72 528.735C-291.281 528.672 -291.458 528.695 -292.712 529.414C-293.989 530.147 -295.421 531.838 -295.832 533.101C-296.037 533.731 -296.061 533.721 -297.134 532.573C-298.577 531.031 -300.053 530.361 -302.082 530.329C-304.068 530.298 -305.738 531.015 -306.905 532.4C-307.771 533.429 -308.59 535.388 -308.603 536.466C-308.607 536.816 -308.659 537.102 -308.719 537.101C-308.78 537.101 -309.526 536.721 -310.378 536.258C-313.786 534.407 -317.529 535.558 -319.381 539.026C-319.827 539.861 -319.965 540.596 -319.967 542.127C-319.969 543.882 -320.026 544.111 -320.417 543.951C-321.405 543.546 -323.779 543.445 -324.948 543.758C-326.511 544.176 -328.197 545.582 -328.949 547.094C-329.717 548.637 -329.755 551.086 -329.036 552.728C-328.746 553.39 -328.509 553.957 -328.51 553.99C-328.51 554.023 -328.867 553.993 -329.303 553.924C-329.739 553.854 -330.792 553.991 -331.643 554.228C-336.442 555.564 -338.065 561.017 -334.835 564.95L-334.115 565.827L-335.545 566.284C-338.036 567.08 -340.189 569.749 -340.218 572.073C-340.221 572.395 -340.359 572.657 -340.524 572.655C-340.731 572.652 -340.807 573.853 -340.77 576.561C-340.725 579.907 -340.635 580.63 -340.146 581.575C-339.44 582.942 -338.387 583.966 -336.892 584.741L-335.745 585.335L-336.94 586.505C-340.855 590.337 -339.121 596.531 -333.806 597.705C-332.992 597.885 -332.327 598.054 -332.33 598.081C-332.332 598.108 -332.71 598.853 -333.17 599.736C-335.635 604.468 -332.318 609.574 -326.989 609.252L-325.327 609.152L-325.553 609.991C-325.945 611.445 -325.828 614.325 -325.338 615.28C-323.83 618.222 -320.348 619.669 -317.393 618.582C-315.326 617.822 -315.439 617.781 -315.434 619.305C-315.432 620.228 -315.186 621.212 -314.703 622.232C-312.779 626.3 -307.799 627.148 -304.393 623.987C-303.87 623.501 -303.598 623.39 -303.531 623.636C-302.429 627.617 -300.349 629.499 -297.01 629.536C-294.159 629.566 -292.043 628.02 -290.578 624.835C-289.797 623.14 -289.24 621.379 -287.463 614.997L-286.664 612.126L-285.305 612.233C-283.348 612.388 -279.043 613.404 -277.056 614.181C-274.145 615.319 -271.143 617.013 -266.03 620.403C-254.089 628.32 -247.331 630.578 -235.169 630.714C-222.967 630.849 -215.927 628.691 -204.179 621.211C-194.476 615.034 -190.068 613.552 -180.833 613.362C-174.889 613.24 -171.096 613.75 -166.768 615.254C-163.279 616.466 -160.864 617.773 -155.066 621.586C-147.392 626.632 -144.904 627.957 -139.886 629.67C-134.645 631.458 -132.029 631.83 -124.024 631.927C-117.521 632.006 -116.453 631.953 -113.623 631.415C-106.606 630.079 -101.219 627.803 -93.5523 622.935C-84.4079 617.129 -80.5233 615.546 -73.6207 614.814C-70.2425 614.456 -62.3431 614.788 -59.6788 615.401C-54.1629 616.669 -51.2816 618.065 -43.1217 623.426C-31.7991 630.865 -25.795 632.934 -14.3972 633.324C-0.94512 633.785 5.86219 631.777 18.819 623.527C27.9852 617.691 32.5248 616.203 41.6603 616.04C51.7852 615.86 57.342 617.615 66.8836 624.009C71.4316 627.056 75.1246 629.292 77.1854 630.246C83.9603 633.381 89.8338 634.64 98.2007 634.749C110.548 634.912 117.419 632.81 129.598 625.148C140.218 618.467 145.477 616.938 156.12 617.436C165.008 617.852 168.864 619.274 178.599 625.721C187.102 631.352 192.115 633.66 199.125 635.172C203.3 636.072 212.704 636.396 217.39 635.801C225.697 634.746 231.037 632.641 240.383 626.737C250.675 620.235 254.618 618.9 264.017 618.732C269.646 618.632 273.532 619.14 277.652 620.517C281.185 621.697 283.75 623.068 289.359 626.774C295.597 630.897 297.983 632.27 301.514 633.77C306.613 635.936 313.027 637.34 318.157 637.412L320.686 637.448L320.761 631.276L320.836 625.105L318.58 625.076C316.002 625.044 312.345 624.451 309.366 623.584C306.22 622.668 302.247 620.572 296.806 616.958C284.14 608.546 276.706 606.168 263.76 606.385C252.573 606.572 245.763 608.782 234.663 615.828C224.443 622.316 220.704 623.566 211.163 623.687C204.554 623.771 201.458 623.364 197.098 621.842C193.614 620.626 192.064 619.818 187.584 616.886C177.338 610.179 173.855 608.376 168.098 606.799C159.653 604.485 149.083 604.354 140.598 606.459C134.973 607.855 130.905 609.778 123.051 614.753C117.507 618.265 114.806 619.65 111.31 620.775C106.812 622.222 103.747 622.551 97.1133 622.303C87.6189 621.947 83.8303 620.577 73.8275 613.881C62.5834 606.354 55.0167 603.8 43.5094 603.646C31.3787 603.484 23.8884 605.761 12.2898 613.137C2.01144 619.674 -2.72929 621.189 -12.5203 621.067C-22.1519 620.947 -27.2302 619.299 -35.9231 613.473C-42.7082 608.926 -45.0677 607.561 -48.9797 605.924C-60.0096 601.306 -75.5068 601.035 -86.6367 605.266C-90.1261 606.592 -93.6136 608.457 -99.0262 611.888C-109.696 618.653 -114.336 620.02 -125.243 619.611C-134.737 619.255 -138.526 617.885 -148.529 611.189C-159.849 603.612 -167.401 601.087 -179.178 600.945C-190.98 600.802 -198.568 603.136 -210.066 610.447C-220.316 616.965 -225.133 618.492 -235.055 618.372C-240.558 618.306 -243.717 617.818 -247.75 616.411C-251.246 615.192 -253.693 613.864 -259.192 610.201C-267.2 604.866 -270.995 602.965 -276.776 601.392C-282.3 599.888 -289.892 599.157 -292.423 599.884C-293.323 600.142 -293.562 600.109 -294.23 599.63C-295.309 598.856 -296.651 598.425 -298.035 598.408C-299.005 598.397 -299.301 598.265 -299.672 597.683C-300.196 596.859 -302.627 595.341 -303.446 595.328C-303.85 595.321 -304.203 594.898 -304.726 593.795C-305.218 592.759 -305.837 591.99 -306.667 591.389C-307.922 590.478 -307.994 590.352 -308.264 588.62C-308.352 588.057 -308.815 587.064 -309.293 586.413C-310.151 585.246 -310.163 585.186 -310.181 581.927C-310.191 580.064 -310.359 578.065 -310.566 577.344C-310.915 576.129 -310.901 576.017 -310.282 575.127C-309.512 574.02 -308.904 571.912 -309.112 571.072C-309.224 570.619 -308.995 570.243 -308.157 569.505C-307.462 568.892 -306.808 567.938 -306.387 566.922C-305.89 565.723 -305.52 565.23 -304.938 564.992C-303.84 564.543 -302.497 563.382 -301.796 562.276C-301.321 561.526 -301.024 561.335 -300.333 561.339C-299.227 561.344 -297.469 560.563 -296.559 559.662C-295.907 559.016 -295.763 558.985 -294.733 559.26C-292.937 559.741 -290.732 559 -289.127 557.378C-287.196 555.425 -286.601 553.284 -285.435 544.105C-285.244 542.598 -285.046 541.324 -284.996 541.273C-284.781 541.058 -280.625 542.155 -278.633 542.953C-275.989 544.013 -273.274 545.754 -267.599 550.032C-260.71 555.225 -254.816 557.989 -248.291 559.087C-238.947 560.659 -229.839 559.515 -222.302 555.822C-219.252 554.327 -216.987 552.899 -212.242 549.477C-204.319 543.763 -200.641 542.367 -192.964 542.159C-184.968 541.943 -179.848 543.611 -173.072 548.638C-163.601 555.664 -161.624 556.849 -156.323 558.681C-151.745 560.262 -148.539 560.792 -143.132 560.862C-132.008 561.006 -125.312 558.7 -114.889 551.137C-105.867 544.591 -102.2 543.285 -93.2737 543.438C-88.8559 543.514 -88.0716 543.601 -85.6249 544.287C-81.7101 545.383 -78.6857 547.069 -72.9905 551.33C-67.2589 555.617 -64.6161 557.304 -61.4835 558.675C-56.1326 561.016 -51.3994 561.975 -44.8088 562.053C-37.6584 562.136 -32.5934 561.131 -26.9858 558.513C-23.4558 556.866 -21.4186 555.613 -16.5433 552.092C-10.74 547.901 -7.63893 546.253 -3.81565 545.328C1.86026 543.955 9.22359 544.257 14.3018 546.071C17.2975 547.142 19.9786 548.74 24.6523 552.241C29.7891 556.089 32.0025 557.564 34.8283 559.022C45.5204 564.539 60.1595 564.79 71.2512 559.647C73.763 558.482 77.1588 556.331 83.7435 551.734C87.9327 548.81 90.894 547.343 94.4176 546.448C96.8193 545.838 97.5956 545.775 102.279 545.814C106.783 545.85 107.795 545.941 109.868 546.493C114.341 547.682 117.184 549.248 123.268 553.872C131.361 560.022 136.334 562.437 143.912 563.897C147.363 564.562 155.037 564.633 158.682 564.034C166.3 562.78 170.844 560.677 179.947 554.187C181.873 552.814 183.954 551.373 184.571 550.984C189.519 547.868 195.289 546.531 202.075 546.929C205.927 547.155 208.502 547.691 211.451 548.881C214.165 549.976 215.573 550.823 219.396 553.664C225.546 558.232 228.416 560.131 231.416 561.618C236.472 564.123 241.836 565.436 247.669 565.598C250.461 565.675 250.978 565.615 251.946 565.106C253.269 564.409 254.609 563.063 255.273 561.761C255.541 561.237 255.799 560.764 255.847 560.711C255.894 560.658 256.334 561.084 256.824 561.658C258.494 563.612 261.16 564.431 263.676 563.764C265.829 563.192 268.273 560.081 268.307 557.87L268.32 556.977L269.801 557.838C270.714 558.37 271.839 558.765 272.74 558.869C276.698 559.327 280.181 555.633 279.721 551.465L279.566 550.061L281.217 550.514C282.606 550.895 283.078 550.915 284.183 550.64C288.251 549.629 290.392 545.397 288.742 541.63C288.452 540.968 288.216 540.379 288.217 540.32C288.218 540.261 288.864 540.22 289.654 540.228C292.261 540.254 294.814 538.617 295.83 536.268C296.702 534.249 295.975 530.635 294.408 529.203C294.089 528.912 293.83 528.595 293.831 528.499C293.832 528.403 294.358 528.19 295 528.026C296.775 527.573 298.332 526.324 299.174 524.68C299.58 523.887 299.917 522.892 299.922 522.469C299.927 522.046 300.054 521.701 300.204 521.703C300.654 521.709 300.632 514.846 300.178 513.503C299.597 511.786 298.566 510.577 296.927 509.691L295.451 508.893L296.676 507.671C298.183 506.17 298.767 504.866 298.79 502.956C298.827 499.892 296.751 497.344 293.62 496.609C292.822 496.421 292.136 496.246 292.096 496.219C292.055 496.192 292.402 495.465 292.867 494.604C294.709 491.193 293.564 487.439 290.111 485.567C289.277 485.115 288.556 484.977 287.016 484.975C285.085 484.973 285.016 484.951 285.202 484.388C285.308 484.066 285.467 483.116 285.554 482.277C285.837 479.573 284.252 476.904 281.706 475.801C280.331 475.205 277.903 475.242 276.453 475.881C275.793 476.172 275.236 476.409 275.215 476.409C275.194 476.408 275.175 475.805 275.174 475.068C275.167 472.37 273.533 469.824 271.145 468.789C269.106 467.905 266.237 468.439 264.264 470.068C263.305 470.861 263.327 470.874 262.828 469.21C261.709 465.484 257.412 463.633 253.868 465.351C251.156 466.665 250.128 468.658 247.791 477.133L246.408 482.151L245.143 481.967C240.376 481.274 236.714 479.544 230.977 475.274C222.97 469.316 219.56 467.288 214.854 465.687C206.608 462.883 196.313 462.761 187.983 465.368C183.34 466.822 179.608 468.932 171.663 474.598C167.879 477.296 163.193 479.688 160.379 480.356C157.148 481.124 152.476 481.375 148.929 480.973C142.851 480.284 139.133 478.703 133.235 474.298C124.902 468.076 121.76 466.21 116.722 464.49C112.241 462.961 109.212 462.491 103.426 462.426C92.2116 462.3 85.9412 464.544 74.5788 472.748C66.5306 478.558 62.5746 479.944 54.2506 479.87C51.5819 479.846 49.0687 479.678 48.1008 479.46C43.7789 478.486 39.8882 476.645 35.9976 473.734C27.0941 467.073 26.0725 466.408 21.7598 464.473C13.3073 460.681 1.68389 460.056 -7.63769 462.892C-12.5288 464.38 -16.432 466.502 -22.941 471.21C-31.5876 477.465 -35.2514 478.776 -43.7994 478.672C-52.3427 478.569 -55.8389 477.239 -64.2209 470.907C-72.8642 464.377 -76.9484 462.314 -84.3334 460.748C-88.2167 459.925 -96.347 459.754 -100.201 460.415C-106.556 461.504 -112.325 463.938 -117.935 467.897C-119.68 469.128 -122.163 470.881 -123.452 471.792C-127.551 474.688 -131.713 476.528 -135.628 477.174C-138.581 477.661 -142.743 477.74 -145.653 477.365C-151.648 476.593 -155.352 474.918 -161.752 470.088C-170.953 463.144 -175.374 460.93 -183.072 459.409C-186.558 458.72 -194.692 458.642 -198.389 459.263C-205.935 460.53 -210.362 462.661 -220.675 469.992C-224.713 472.863 -228.234 474.687 -231.273 475.484C-234.558 476.346 -239.404 476.644 -243.223 476.219C-249.765 475.492 -253.078 473.992 -260.453 468.417C-267.192 463.323 -270.2 461.56 -275.107 459.83C-280.044 458.089 -287.888 457.071 -290.448 457.84C-291.615 458.191 -291.764 458.18 -292.361 457.702C-293.198 457.031 -295.736 456.239 -296.57 456.388C-297.064 456.477 -297.542 456.184 -298.574 455.162C-299.514 454.231 -300.308 453.719 -301.165 453.492C-302.236 453.207 -302.465 453.012 -302.888 452.025C-303.353 450.939 -305.338 448.805 -305.889 448.798C-306.032 448.796 -306.221 448.331 -306.309 447.764C-306.559 446.159 -306.636 445.958 -307.542 444.506C-308.362 443.193 -308.395 443.022 -308.439 439.79C-308.465 437.82 -308.64 435.963 -308.862 435.291C-309.219 434.207 -309.204 434.094 -308.579 433.161C-307.821 432.03 -307.182 429.834 -307.378 429.04C-307.474 428.653 -307.131 428.125 -306.176 427.19C-305.211 426.246 -304.745 425.525 -304.501 424.602C-304.263 423.698 -303.991 423.271 -303.576 423.147C-302.471 422.815 -300.76 421.479 -300.244 420.546C-299.797 419.737 -299.521 419.572 -298.158 419.307C-297.216 419.124 -296.101 418.655 -295.376 418.138C-294.278 417.353 -293.978 417.275 -292.115 417.282C-288.007 417.299 -285.786 414.914 -284.787 409.412C-284.385 407.203 -283.439 400.326 -283.423 399.501C-283.414 399.085 -282.11 399.294 -279.11 400.193C-275.173 401.372 -273.066 402.645 -264.796 408.838C-258.984 413.19 -253.605 415.69 -247.115 417.053C-243.306 417.853 -234.737 417.884 -230.631 417.113C-223.395 415.755 -218.909 413.559 -209.515 406.779C-203.487 402.428 -199.402 400.784 -193.216 400.221C-186.712 399.628 -180.188 400.986 -175.251 403.959C-174.224 404.576 -171.677 406.372 -169.591 407.948C-162.752 413.114 -159.404 415.084 -154.682 416.72C-145.574 419.877 -133.704 419.655 -125.092 416.168C-121.575 414.744 -118.203 412.755 -112.983 409.022C-106.614 404.469 -103.983 403.081 -99.7683 402.053C-96.9051 401.354 -92.0799 401.104 -88.7289 401.481C-82.5211 402.179 -78.8395 403.733 -72.8984 408.161C-64.4015 414.494 -61.5877 416.172 -56.507 417.938C-52.0315 419.493 -49.2925 419.919 -43.2259 420.006C-37.1874 420.092 -34.3294 419.724 -29.6412 418.255C-24.9914 416.798 -21.5776 414.942 -15.3462 410.482C-10.8832 407.288 -9.11982 406.164 -6.74449 404.999C-2.59817 402.966 3.5923 402.064 9.27964 402.664C15.2934 403.299 19.2786 404.997 25.2867 409.483C35.0834 416.798 38.8347 418.764 46.2166 420.45C50.0043 421.315 58.8526 421.51 62.8227 420.816C69.8964 419.58 75.2072 417.094 83.256 411.252C87.3745 408.263 90.7001 406.285 93.139 405.376C99.95 402.836 109.931 403.174 116.293 406.161C118.433 407.165 120.918 408.814 125.777 412.452C133.404 418.163 138.028 420.41 145.048 421.817C148.944 422.598 157.819 422.612 161.634 421.843C168.612 420.436 173.856 417.953 180.881 412.727C183.971 410.429 186.853 408.593 189.083 407.504C193.551 405.321 199.517 404.42 205.394 405.04C211.442 405.678 215.397 407.377 221.522 411.967C231.208 419.224 235.201 421.308 242.289 422.808C245.719 423.534 251.095 423.888 252.623 423.489C254.298 423.051 255.977 421.67 256.839 420.021L257.584 418.596L258.77 419.837C260.318 421.458 261.758 422.025 264.031 421.907C265.369 421.838 266.065 421.639 266.939 421.073C268.411 420.122 269.672 418.18 269.917 416.49C270.022 415.763 270.141 415.17 270.181 415.17C270.222 415.171 270.952 415.55 271.805 416.013C275.189 417.851 278.948 416.73 280.756 413.344C281.252 412.415 281.397 411.708 281.409 410.15C281.423 408.43 281.486 408.174 281.858 408.326C282.833 408.726 285.212 408.824 286.375 408.513C287.932 408.096 289.762 406.576 290.432 405.143C291.132 403.645 291.146 401.104 290.462 399.543C290.173 398.881 289.936 398.314 289.936 398.281C289.937 398.248 290.294 398.278 290.73 398.347C291.165 398.417 292.219 398.28 293.07 398.043C297.868 396.707 299.491 391.254 296.262 387.321L295.542 386.445L296.88 386.016C299.398 385.211 301.615 382.637 301.641 380.486C301.646 380.006 301.786 379.614 301.95 379.616C302.157 379.619 302.233 378.419 302.197 375.71C302.151 372.348 302.063 371.642 301.564 370.67C300.882 369.34 299.345 367.881 298.02 367.307L297.078 366.898L298.059 366.107C300.956 363.771 301.326 359.244 298.839 356.579C297.762 355.426 296.888 354.947 295.13 354.546C294.372 354.374 293.754 354.212 293.756 354.187C293.759 354.161 294.137 353.418 294.597 352.535C297.056 347.814 293.805 342.745 288.495 343.02L286.755 343.11L286.981 342.276C287.104 341.817 287.212 340.624 287.22 339.625C287.232 338.093 287.108 337.598 286.43 336.468C284.883 333.889 281.675 332.68 278.957 333.652C278.277 333.895 277.535 334.151 277.309 334.221C276.98 334.322 276.89 334.044 276.863 332.85C276.734 327.046 270.123 324.286 265.854 328.254L265.124 328.932L264.561 327.324C262.848 322.426 257.242 321.099 253.723 324.758C252.175 326.367 251.327 328.513 249.235 336.113L248.163 340.009L247.314 339.997C245.589 339.972 241.751 338.78 239.097 337.444C237.47 336.625 234.67 334.799 232.176 332.928C224.579 327.232 221.717 325.533 216.888 323.857C211.848 322.108 210.183 321.854 203.193 321.772C198.279 321.715 196.381 321.798 194.522 322.153C187.732 323.447 182.925 325.768 174.486 331.824C168.607 336.043 165.86 337.464 161.632 338.473C159.567 338.965 158.465 339.04 154.021 338.988C144.863 338.881 142.233 337.811 131.564 329.854C125.183 325.095 120.989 322.972 115.01 321.476C112.582 320.868 111.214 320.718 106.511 320.542C101.638 320.361 100.464 320.403 97.527 320.869C90.1406 322.041 85.242 324.299 76.7752 330.434C68.5107 336.423 63.9992 338.054 55.9686 337.956C52.1331 337.91 49.3231 337.473 46.2762 336.449C43.0304 335.358 40.4935 333.828 34.4634 329.324C26.7187 323.541 21.6958 321.128 14.748 319.852C11.918 319.333 10.7062 319.261 5.86265 319.327C-0.270863 319.411 -1.98602 319.663 -6.74266 321.181C-11.4298 322.677 -14.6626 324.507 -22.2997 329.984C-26.7856 333.201 -30.4222 335.073 -33.9256 335.967C-36.3655 336.59 -37.0933 336.648 -41.9427 336.609C-46.6222 336.571 -47.5772 336.486 -49.7302 335.914C-53.5707 334.895 -57.4692 332.73 -63.18 328.443C-70.2624 323.127 -73.4482 321.35 -78.795 319.734C-82.6948 318.555 -85.7334 318.137 -90.8602 318.074C-101.025 317.948 -108.179 320.216 -116.768 326.288C-118.665 327.629 -121.001 329.281 -121.959 329.959C-127.783 334.078 -132.924 335.67 -140.131 335.582C-144.132 335.534 -146.864 335.093 -149.968 333.996C-153.413 332.777 -155.2 331.71 -160.833 327.503C-166.31 323.413 -169.507 321.408 -172.8 319.995C-175.549 318.816 -179.42 317.715 -182.409 317.261C-185.141 316.846 -192.59 316.755 -195.329 317.103C-202.465 318.011 -208.41 320.507 -215.427 325.54C-224.302 331.906 -226.864 333.179 -232.59 334.068C-236.296 334.644 -242.607 334.372 -245.966 333.492C-249.449 332.58 -253.181 330.556 -257.928 327.005C-263.176 323.079 -265.913 321.237 -268.462 319.917C-270.779 318.718 -275.105 317.171 -278.038 316.494C-280.802 315.856 -287.727 315.507 -289.083 315.938C-289.95 316.213 -290.177 316.197 -290.572 315.829C-291.375 315.082 -292.988 314.528 -294.409 314.511C-295.502 314.498 -295.833 314.382 -296.066 313.934C-296.486 313.122 -298.411 311.763 -299.63 311.418C-300.426 311.193 -300.765 310.908 -301.036 310.236C-301.514 309.052 -302.713 307.623 -303.647 307.124C-304.242 306.806 -304.467 306.416 -304.688 305.318C-305.013 303.704 -305.338 302.975 -306.137 302.075C-306.645 301.502 -306.709 301.057 -306.73 297.905C-306.746 295.671 -306.898 293.942 -307.145 293.194C-307.471 292.204 -307.474 291.943 -307.164 291.595C-306.376 290.711 -305.822 289.262 -305.744 287.879C-305.673 286.615 -305.539 286.323 -304.656 285.508C-303.682 284.609 -302.54 282.612 -302.515 281.766C-302.509 281.54 -301.946 281.133 -301.265 280.862C-300.039 280.373 -298.094 278.496 -298.086 277.793C-298.083 277.584 -297.775 277.434 -297.361 277.439C-296.133 277.454 -294.594 276.884 -293.516 276.013C-292.556 275.24 -292.351 275.188 -290.664 275.286C-288.411 275.418 -286.716 274.729 -285.295 273.105C-283.76 271.35 -283.109 268.786 -281.994 260.105L-281.629 257.267L-280.295 257.461C-276.59 258 -272.216 260.09 -267.55 263.552C-260.302 268.929 -258.586 270.084 -255.747 271.5C-252.531 273.104 -249.759 274.092 -246.078 274.945C-244.194 275.381 -242.58 275.496 -237.469 275.558C-231.883 275.626 -230.86 275.567 -228.332 275.031C-221.153 273.51 -217.046 271.475 -208.088 265C-200.659 259.63 -196.153 258.093 -188.126 258.187C-184.068 258.235 -180.827 258.786 -177.77 259.947C-174.727 261.103 -172.785 262.275 -168.104 265.78C-162.312 270.118 -160.977 271.013 -158.025 272.54C-152.4 275.449 -148.213 276.488 -140.924 276.782C-128.846 277.271 -122.362 275.072 -110.436 266.444C-102.303 260.56 -97.5874 259.041 -88.7808 259.468C-81.4282 259.825 -77.5875 261.348 -70.3524 266.773C-61.3826 273.5 -58.0111 275.295 -51.069 277.04C-47.1321 278.03 -39.2835 278.376 -34.7295 277.761C-27.1836 276.742 -21.7444 274.379 -14.015 268.764C-9.2938 265.334 -7.65424 264.301 -4.8675 262.997C-1.03426 261.204 1.25418 260.729 6.57334 260.624C15.5837 260.447 19.775 261.956 28.3477 268.466C34.8854 273.43 38.3673 275.464 43.248 277.17C50.0166 279.536 59.985 279.983 67.2229 278.246C73.6218 276.71 77.0636 274.918 86.4922 268.215C90.7562 265.183 94.6689 263.22 98.0511 262.415C100.19 261.906 101.234 261.836 105.853 261.892C110.476 261.948 111.509 262.043 113.607 262.602C118.06 263.788 120.054 264.946 128.727 271.381C134.65 275.775 139.736 278.232 145.849 279.651C148.595 280.289 157.211 280.648 160.479 280.26C168.529 279.306 173.661 277.101 182.573 270.767C188.142 266.81 190.964 265.194 193.992 264.233C197.149 263.23 199.868 262.884 204.163 262.936C211.628 263.026 215.997 264.601 222.73 269.627C228.554 273.974 231.798 276.153 234.366 277.442C239.841 280.189 246.024 281.662 251.698 281.571C254.778 281.522 254.978 281.482 256.119 280.702C257.151 279.996 258.86 277.946 259.175 277.036C259.23 276.875 259.84 277.298 260.528 277.975C264.548 281.933 270.82 279.871 271.647 274.319C271.749 273.639 271.879 273.083 271.937 273.084C271.995 273.084 272.498 273.394 273.054 273.772C273.61 274.15 274.707 274.606 275.491 274.783C279.722 275.744 283.733 271.911 283.175 267.441L283.005 266.078L283.78 266.393C284.206 266.565 285.298 266.719 286.207 266.734C290.937 266.811 293.907 262.339 292.212 257.695L291.708 256.314L292.878 256.328C295.484 256.36 297.778 255.015 298.919 252.789C300.184 250.316 299.891 247.721 298.11 245.636C297.646 245.093 297.268 244.593 297.269 244.523C297.27 244.454 297.795 244.248 298.437 244.067C299.574 243.745 301.169 242.75 301.897 241.909C302.541 241.165 303.337 239.329 303.353 238.554C303.361 238.139 303.491 237.801 303.642 237.803C304.009 237.808 304.079 231.124 303.726 229.787C303.201 227.798 301.943 226.531 298.918 224.942C298.867 224.915 299.327 224.45 299.94 223.908C301.648 222.398 302.288 220.88 302.187 218.582C302.117 217.018 301.961 216.476 301.296 215.503C300.279 214.014 298.318 212.751 296.71 212.549C296.028 212.464 295.47 212.36 295.47 212.318C295.471 212.276 295.811 211.605 296.225 210.826C297.343 208.727 297.454 206.608 296.546 204.688C295.33 202.116 292.91 200.742 290.037 200.991C288.468 201.127 288.435 201.116 288.626 200.516C289.053 199.18 289.141 197.235 288.827 196.057C288.403 194.464 286.742 192.528 285.259 191.9C283.657 191.221 281.33 191.241 279.908 191.947C279.284 192.257 278.737 192.51 278.693 192.509C278.649 192.509 278.611 191.922 278.608 191.205C278.6 189.37 278.079 187.944 276.942 186.649C274.51 183.877 270.347 183.711 267.551 186.276C266.981 186.798 266.769 186.872 266.679 186.578C266.613 186.365 266.426 185.736 266.264 185.181C265.834 183.716 264.046 181.759 262.619 181.192C260.829 180.482 258.231 180.676 256.755 181.63C254.371 183.171 253.547 184.879 251.298 192.945L249.827 198.221L248.733 198.04C243.698 197.206 239.54 195.226 233.945 190.997C226.652 185.485 223.709 183.715 218.888 181.943C214.188 180.215 211.583 179.793 205.05 179.702C198.567 179.612 196.477 179.87 191.636 181.358C186.969 182.793 182.866 185.045 176.421 189.71C168.945 195.121 165.336 196.62 158.658 197.087C154.983 197.344 150.668 196.975 147.535 196.136C143.756 195.124 139.922 192.953 134.628 188.829C127.509 183.283 122.096 180.607 114.925 179.09C111.391 178.342 102.59 178.245 98.7885 178.912C91.4571 180.199 86.7489 182.455 77.6029 189.066C73.3562 192.136 69.6893 194.07 66.3759 194.99C61.8506 196.245 54.4465 196.28 49.8512 195.067C45.6456 193.957 42.9544 192.428 35.9383 187.162C31.2023 183.607 28.2263 181.774 24.9164 180.371C19.4812 178.067 13.8091 177.063 7.17265 177.23C0.21027 177.406 -4.86799 178.627 -10.5058 181.482C-13.1502 182.82 -15.0045 184.037 -22.103 189.091C-25.1034 191.227 -29.3452 193.285 -32.1463 193.964C-36.9045 195.117 -43.8187 195.037 -48.5061 193.774C-52.66 192.655 -54.7149 191.447 -63.3778 185.036C-71.6391 178.922 -77.9464 176.553 -87.1852 176.097C-92.1511 175.852 -95.7018 176.133 -99.9346 177.107C-105.512 178.39 -110.071 180.686 -117.112 185.758C-125.237 191.61 -128.503 193.001 -135.329 193.516C-140.985 193.942 -146.891 192.95 -151.116 190.864C-153.117 189.877 -155.439 188.299 -161.138 184.059C-167.536 179.297 -171.912 177.176 -178.406 175.692C-182.235 174.817 -191.294 174.629 -195.362 175.342C-202.584 176.606 -206.948 178.726 -216.962 185.838C-223.256 190.307 -227.328 191.904 -233.542 192.338C-241.912 192.923 -247.99 191.123 -254.869 186.019C-261.717 180.938 -263.618 179.637 -266.166 178.29C-269.504 176.525 -272.833 175.3 -276.405 174.522C-279.904 173.76 -285.646 173.396 -287.063 173.846C-287.997 174.143 -288.212 174.099 -289.752 173.304C-290.875 172.724 -291.831 172.434 -292.654 172.424C-293.73 172.411 -294.04 172.257 -295.179 171.162C-295.995 170.378 -296.92 169.79 -297.671 169.579C-298.723 169.283 -298.955 169.066 -299.618 167.758C-300.082 166.841 -300.821 165.94 -301.547 165.404C-302.758 164.509 -302.837 164.369 -303.107 162.633C-303.195 162.07 -303.658 161.077 -304.136 160.426C-304.994 159.259 -305.006 159.199 -305.024 155.94C-305.034 154.107 -305.202 152.076 -305.403 151.379C-305.732 150.231 -305.718 150.064 -305.246 149.471C-304.566 148.618 -303.788 146.081 -303.942 145.218C-304.037 144.682 -303.786 144.264 -302.769 143.268C-301.871 142.389 -301.357 141.6 -301.091 140.691C-300.769 139.587 -300.552 139.317 -299.717 138.98C-298.564 138.514 -297.054 137.171 -296.476 136.097C-296.153 135.495 -295.883 135.349 -295.11 135.359C-294.117 135.371 -293.002 134.92 -291.557 133.925C-290.91 133.479 -290.31 133.357 -288.815 133.366C-286.634 133.378 -285.27 132.825 -283.812 131.336C-282.077 129.564 -281.443 127.313 -280.436 119.35C-280.16 117.166 -279.899 115.343 -279.855 115.301C-279.673 115.122 -275.373 116.215 -273.731 116.858C-271.076 117.897 -269.041 119.157 -264.435 122.61C-256.784 128.347 -253.694 130.134 -248.585 131.775C-244.08 133.223 -241.262 133.647 -235.752 133.706C-224.534 133.828 -218.131 131.542 -206.99 123.44C-198.959 117.599 -194.871 116.158 -186.577 116.243C-178.211 116.328 -174.525 117.715 -166.29 123.876C-159.155 129.214 -156.115 131.017 -151.488 132.656C-143.513 135.48 -133.698 135.77 -125.23 133.431C-120.345 132.081 -115.944 129.669 -108.187 124.091C-100.779 118.763 -96.5832 117.343 -88.5266 117.436C-80.0631 117.534 -76.4603 118.898 -68.1534 125.151C-61.0464 130.501 -58.1793 132.178 -53.1987 133.898C-48.4769 135.529 -45.4574 136.015 -39.6517 136.081C-34.1368 136.142 -31.2512 135.779 -26.7757 134.461C-21.9063 133.027 -18.054 130.931 -11.0822 125.925C-2.45685 119.732 1.13091 118.489 9.9335 118.645C14.1749 118.719 15.0256 118.814 17.4107 119.48C22.0286 120.768 23.6897 121.75 33.334 128.887C36.9875 131.591 42.4608 134.461 45.9734 135.513C50.4144 136.844 52.966 137.208 58.2615 137.267C69.2939 137.389 75.9569 135.079 86.3685 127.524C94.5439 121.592 98.4376 120.027 105.778 119.723C111.337 119.493 116.502 120.539 120.804 122.765C122.818 123.807 124.309 124.833 130.825 129.654C136.543 133.886 141.143 136.131 146.75 137.429C156.017 139.574 166.155 138.667 174.116 134.981C177.639 133.35 179.603 132.155 184.079 128.918C192.745 122.652 196.54 121.158 204.394 120.92C210.286 120.742 215.665 121.998 220.002 124.563C221.089 125.206 223.991 127.242 226.451 129.087C233.91 134.681 237.76 136.741 243.723 138.33C247.064 139.22 252.797 139.945 254.803 139.732C257.221 139.474 259.432 137.915 260.431 135.764L260.926 134.698L262.339 136.025C263.859 137.452 265.232 138.031 267.132 138.044C270.136 138.066 272.926 135.518 273.392 132.326C273.566 131.134 273.768 131.057 274.793 131.791C277.142 133.473 280.254 133.332 282.51 131.442C284.207 130.02 284.827 128.64 284.846 126.242C284.862 124.333 284.891 124.241 285.432 124.404C290.137 125.822 294.344 123.049 294.404 118.491C294.418 117.434 294.237 116.415 293.899 115.643C293.61 114.982 293.373 114.392 293.374 114.333C293.375 114.275 293.946 114.233 294.643 114.242C299.655 114.302 302.807 109.614 300.771 105.125C300.426 104.367 299.884 103.508 299.565 103.216C299.247 102.925 298.987 102.608 298.988 102.512C298.989 102.416 299.515 102.203 300.157 102.039C302.689 101.393 305.041 98.7285 305.076 96.4673C305.083 96.0523 305.211 95.7145 305.362 95.7163C305.827 95.7219 305.787 88.8536 305.314 87.4515C304.824 86.0023 303.109 84.1308 301.644 83.4464L300.576 82.9482L301.723 81.8694C303.213 80.4677 303.912 78.9443 303.935 77.0439C303.974 73.7767 301.654 71.0796 298.307 70.5011C297.692 70.3949 297.19 70.2747 297.19 70.2338C297.191 70.1929 297.569 69.4601 298.031 68.6051C299.491 65.9016 299.09 62.8977 296.995 60.8564C295.668 59.562 294.22 59.0265 292.032 59.0206C290.224 59.0157 290.165 58.9944 290.353 58.4154C291.495 54.8982 290.214 51.5145 287.188 50.0566C285.487 49.2365 283.708 49.1821 281.78 49.8902C280.984 50.1823 280.334 50.4211 280.334 50.4211C280.373 47.1747 279.784 45.504 278.065 43.9919C275.656 41.873 272.342 41.8628 269.628 43.9657C268.616 44.7496 268.489 44.7864 268.359 44.3328C268.28 44.055 267.898 43.1596 267.51 42.3426C266.338 39.875 263.979 38.506 261.319 38.749C257.295 39.1164 255.598 41.5773 253.07 50.7088C251.375 56.8288 251.805 56.3696 248.464 55.6353C243.968 54.6467 241.342 53.2016 233.73 47.5241C227.165 42.6273 223.246 40.5176 218.11 39.1166C214.037 38.0053 211.521 37.68 206.633 37.6326C199.125 37.5595 194.246 38.5849 188.259 41.4953C185.002 43.0784 183.047 44.3364 175.991 49.3915C173.259 51.3482 168.308 53.7969 165.946 54.3587C162.158 55.2601 157.353 55.4727 153.329 54.917C147.243 54.0765 143.825 52.3441 135.005 45.6299C131.576 43.0192 128.079 40.8979 125.094 39.6165C115.101 35.3278 102.244 35.2531 92.271 39.4257C89.3322 40.6554 85.7841 42.7764 81.5251 45.8499C72.036 52.6977 68.6797 53.9588 60.0915 53.902C54.8965 53.868 52.3684 53.4401 48.8957 52.0077C46.2158 50.9023 44.021 49.5085 38.7196 45.5456C33.5733 41.6986 30.9655 40.0623 27.5415 38.5326C22.6086 36.3284 17.6662 35.3374 11.2165 35.2593C0.592407 35.1307 -6.36886 37.4985 -16.1133 44.5556C-21.1065 48.1715 -22.705 49.1782 -25.4513 50.4366C-29.6793 52.3735 -34.1319 53.1072 -39.6005 52.7683C-43.3263 52.5373 -45.9282 51.9911 -48.8072 50.8356C-51.6279 49.7035 -53.3591 48.614 -58.6567 44.6372C-63.9349 40.6752 -67.1153 38.6843 -70.4595 37.249C-81.086 32.6878 -94.7223 32.9082 -104.835 37.8037C-108.166 39.416 -109.812 40.4378 -114.283 43.6691C-123.447 50.2927 -126.943 51.5908 -135.462 51.5345C-140.657 51.5005 -143.185 51.0726 -146.657 49.6402C-149.337 48.5348 -151.532 47.141 -156.833 43.1781C-161.98 39.3311 -164.588 37.6949 -168.012 36.1651C-172.997 33.9375 -177.915 32.9614 -184.473 32.8976C-194.477 32.8001 -201.635 35.0857 -210.011 41.0524C-220.133 48.2618 -222.909 49.5867 -229.408 50.3072C-232.454 50.6448 -237.461 50.3962 -240.206 49.771C-244.967 48.687 -248.216 46.9531 -254.203 42.3003C-263.093 35.3923 -269.369 32.689 -278.569 31.8053C-282.023 31.4736 -282.55 31.4825 -283.867 31.897L-285.329 32.3569L-286.364 31.6517C-287.601 30.8093 -289.6 30.2334 -290.64 30.42C-291.261 30.5313 -291.548 30.3662 -292.3 29.4625C-293.251 28.3207 -294.622 27.4652 -296.008 27.1474C-296.655 26.9994 -296.93 26.7006 -297.318 25.7253C-297.799 24.5157 -299.926 22.2724 -300.6 22.2643C-300.796 22.2619 -300.993 21.7007 -301.077 20.9055C-301.243 19.3364 -301.976 17.721 -302.943 16.7941C-303.52 16.2404 -303.583 16.0218 -303.368 15.3037C-303.085 14.3598 -303.224 10.1289 -303.598 8.23667C-303.813 7.15291 -303.756 6.83262 -303.139 5.65824C-302.691 4.80663 -302.428 3.86224 -302.419 3.07088C-302.406 1.98521 -302.26 1.68189 -301.289 0.712897C-300.676 0.101411 -299.949 -0.971539 -299.675 -1.6716C-299.274 -2.69335 -298.934 -3.06725 -297.949 -3.57054C-297.275 -3.91518 -296.286 -4.77039 -295.751 -5.47116C-295.088 -6.33939 -294.579 -6.7428 -294.154 -6.73765C-293.339 -6.72778 -291.732 -7.38621 -290.672 -8.16457C-290.01 -8.65037 -289.576 -8.75458 -288.65 -8.64956C-286.945 -8.45636 -285.207 -9.01857 -283.824 -10.2097C-281.694 -12.0442 -281.003 -14.2391 -280.058 -22.1673L-279.523 -26.6504L-278.108 -26.4662C-276.075 -26.2015 -273.268 -25.251 -270.843 -24.006C-268.763 -22.9381 -267.185 -21.8619 -260.597 -17.0194C-254.802 -12.7598 -249.437 -10.2908 -243.052 -8.94575C-239.203 -8.13512 -229.825 -8.10634 -225.956 -8.89324C-218.599 -10.3901 -214.628 -12.3499 -204.767 -19.3529C-200.759 -22.1987 -196.728 -24.2366 -193.62 -24.9879C-188.861 -26.1385 -181.651 -26.0608 -176.936 -24.8082C-173.912 -24.0048 -169.809 -21.8413 -166.163 -19.1279C-156.041 -11.5929 -151.421 -9.20153 -144.181 -7.74876C-140.605 -7.03113 -131.461 -6.91661 -127.847 -7.54417C-120.722 -8.78131 -115.568 -11.1866 -107.186 -17.1864C-99.6038 -22.6133 -96.0646 -24.0683 -89.3146 -24.5322C-83.3196 -24.9444 -77.9654 -24.0555 -73.5402 -21.9131C-71.1221 -20.7423 -69.7037 -19.8022 -64.2061 -15.7276C-56.8236 -10.2557 -52.2966 -8.06101 -45.3005 -6.56236C-41.8659 -5.82642 -32.4788 -5.70893 -28.7637 -6.35556C-21.5612 -7.6088 -16.7626 -9.94651 -6.51476 -17.1948C-2.80579 -19.8181 1.35377 -21.8837 4.3948 -22.6123C9.21406 -23.7671 16.165 -23.6717 21.0515 -22.3832C24.1616 -21.5631 28.1331 -19.4386 32.085 -16.4803C41.6849 -9.29433 45.6934 -7.20085 53.1229 -5.49396C55.462 -4.95645 56.7688 -4.84791 61.7592 -4.77678C66.826 -4.70448 68.0665 -4.77422 70.7273 -5.27998C78.0036 -6.66346 82.6887 -8.98087 92.5325 -16.0661C95.7668 -18.3943 100.488 -20.7173 103.402 -21.4145C108.444 -22.6212 115.718 -22.4579 120.437 -21.0324C124.142 -19.9135 126.778 -18.4347 132.31 -14.3728C138.481 -9.84145 140.788 -8.3801 144.15 -6.87138C149.633 -4.41194 155.734 -3.30741 162.817 -3.4916C173.337 -3.76533 178.975 -5.9516 190.706 -14.3059C198.056 -19.5405 202.679 -21.0915 210.625 -20.9893C215.101 -20.9316 217.337 -20.5783 220.787 -19.3849C223.966 -18.2847 225.998 -17.0491 232.403 -12.3248C237.797 -8.34662 242.234 -5.80796 246.122 -4.4745C251.443 -2.64992 259.626 -1.68118 262.076 -2.58564C263.363 -3.06058 265.404 -4.8369 265.702 -5.74107C265.925 -6.41847 266.18 -6.40196 266.815 -5.66836C267.098 -5.34176 267.941 -4.77741 268.689 -4.4139C271.021 -3.28063 273.562 -3.59883 275.44 -5.25945C276.6 -6.2857 277.621 -7.94048 277.632 -8.81163C277.642 -9.63536 277.882 -9.67278 279.22 -9.05964C283.383 -7.15167 287.816 -9.82331 288.299 -14.532L288.461 -16.1099L289.784 -15.9367C293.147 -15.4958 296.385 -17.8663 297.062 -21.2657C297.235 -22.1338 297.016 -23.7685 296.581 -24.855C296.436 -25.2169 296.709 -25.3552 298.058 -25.6047C302.532 -26.4311 304.674 -30.8097 302.62 -34.9275L301.799 -36.5714L303.017 -37.1275C304.381 -37.7502 305.779 -39.1689 306.361 -40.521C306.876 -41.715 306.885 -44.2818 306.379 -45.294C306 -46.0508 306.016 -46.1872 306.607 -47.2667C307.225 -48.395 307.246 -48.6606 307.399 -57.0662C307.577 -66.9388 307.493 -67.5448 305.671 -69.417C305.068 -70.0363 304.497 -70.5459 304.402 -70.5492C304.307 -70.5528 304.057 -70.6678 303.847 -70.8047C303.538 -71.0063 303.633 -71.2616 304.345 -72.1413C306.536 -74.8472 306.612 -77.9535 304.549 -80.431C303.663 -81.4952 301.926 -82.6413 301.172 -82.6592C300.236 -82.6818 300.115 -83.0992 300.689 -84.3281C302.694 -88.6203 299.62 -93.3732 294.801 -93.4315L293.639 -93.4456L293.843 -94.7048C294.161 -96.6685 293.628 -98.4428 292.246 -100.023C290.435 -102.092 287.969 -102.776 285.461 -101.904C284.856 -101.694 284.331 -101.52 284.293 -101.519C284.256 -101.517 284.23 -101.978 284.235 -102.544C284.25 -104.105 283.139 -106.301 281.848 -107.263C279.573 -108.958 276.777 -109.045 274.356 -107.497C273.774 -107.124 273.269 -106.859 273.234 -106.909C273.199 -106.958 273.006 -107.426 272.806 -107.949C272.298 -109.271 271.051 -110.655 269.736 -111.356C268.477 -112.026 265.741 -112.203 264.745 -111.68C264.261 -111.425 263.927 -111.471 262.97 -111.92C261.949 -112.4 261.173 -112.482 257.201 -112.536C253.663 -112.583 252.377 -112.503 251.589 -112.184C250.396 -111.702 248.899 -110.37 248.302 -109.258C247.918 -108.543 247.79 -108.493 246.809 -108.662C245.365 -108.912 243.639 -109.65 243.478 -110.086C243.406 -110.281 243.794 -111.841 244.339 -113.552C247.608 -123.8 251.01 -139.28 252.579 -151.035C252.887 -153.345 252.873 -153.914 252.466 -155.7C250.385 -164.822 244.468 -176.65 233.772 -193.07C227.898 -202.088 225.55 -205.402 224.833 -205.685C223.949 -206.034 209.206 -206.191 202.304 -205.924C159.455 -204.27 122.326 -192.55 90.4457 -170.617L86.5923 -167.966L85.6505 -165.783C81.7456 -156.731 81.6339 -144.927 85.3066 -129.437C85.9346 -126.789 87.0501 -122.661 87.7854 -120.265C88.5209 -117.868 89.0835 -115.807 89.0358 -115.686C88.9881 -115.564 87.3913 -113.741 85.4874 -111.633L82.0258 -107.802L79.9723 -107.976C78.8429 -108.072 73.2455 -108.512 67.5339 -108.955C-10.5323 -115.002 -78.9812 -125.848 -139.481 -141.755C-151.517 -144.92 -151.259 -144.808 -156.146 -148.977C-161.332 -153.4 -163.701 -157.747 -163.641 -162.727C-163.617 -164.701 -163.448 -165.425 -162.19 -168.922C-155.949 -186.276 -151.561 -205.976 -148.629 -229.797C-147.577 -238.344 -147.555 -238.684 -148.009 -239.06C-148.233 -239.245 -150.535 -241.042 -153.126 -243.054C-179.536 -263.559 -206.571 -276.693 -234.677 -282.67C-245.049 -284.876 -252.712 -285.78 -263.768 -286.103L-272.245 -286.351L-274.684 -284.71Z" fill="#FC6749"/>
</g>
</svg>
