<svg width="1046" height="86" viewBox="0 0 1046 86" fill="none" xmlns="http://www.w3.org/2000/svg">
<path d="M-1000.07 10.4673C-955.612 10.4673 -955.612 76.2051 -911.149 76.2051C-866.686 76.2051 -866.686 10.4673 -822.224 10.4673C-777.761 10.4673 -777.761 76.2051 -733.298 76.2051C-688.836 76.2051 -688.866 10.4673 -644.403 10.4673C-599.94 10.4673 -599.94 76.2051 -555.478 76.2051C-511.015 76.2051 -511.015 10.4673 -466.552 10.4673C-422.09 10.4673 -422.09 76.2051 -377.627 76.2051C-333.165 76.2051 -333.165 10.4673 -288.702 10.4673C-244.239 10.4673 -244.239 76.2051 -199.777 76.2051C-155.314 76.2051 -155.314 10.4673 -110.851 10.4673C-66.3888 10.4673 -66.3888 76.2051 -21.9261 76.2051C22.5365 76.2051 22.5364 10.4673 66.9991 10.4673C111.462 10.4673 111.462 76.2051 155.924 76.2051C200.387 76.2051 200.387 10.4673 244.85 10.4673C289.312 10.4673 289.312 76.2051 333.775 76.2051C378.238 76.2051 378.238 10.4673 422.7 10.4673C467.163 10.4673 467.163 76.2051 511.625 76.2051C556.088 76.2051 556.088 10.4673 600.551 10.4673C645.013 10.4673 645.013 76.2051 689.476 76.2051C733.939 76.2051 733.939 10.4673 778.431 10.4673C822.924 10.4673 822.894 76.2051 867.356 76.2051C911.819 76.2051 911.819 10.4673 956.312 10.4673C1000.8 10.4673 1000.77 76.2051 1045.27 76.2051" stroke="#FC6649" stroke-width="19" stroke-miterlimit="10"/>
</svg>
