<svg width="645" height="643" viewBox="0 0 645 643" fill="none" xmlns="http://www.w3.org/2000/svg">
<ellipse cx="322.043" cy="321.244" rx="322.043" ry="321.244" fill="black"/>
<path d="M602.162 321.363C602.162 476.204 476.763 601.727 322.077 601.727C167.39 601.727 42 476.204 42 321.363C42 166.523 167.39 41 322.077 41C476.763 41 602.162 166.523 602.162 321.363Z" fill="#FC6649"/>
<path d="M441.136 321.686C441.136 387.236 388.053 440.371 322.568 440.371C257.091 440.371 204 387.236 204 321.686C204 256.144 257.091 203 322.568 203C388.053 203 441.136 256.144 441.136 321.686Z" fill="white"/>
<path d="M414.59 321.382C414.59 372.411 373.26 413.774 322.291 413.774C271.321 413.774 230 372.411 230 321.382C230 270.362 271.321 229 322.291 229C373.26 229 414.59 270.362 414.59 321.382Z" stroke="#FC6649" stroke-width="2.73256" stroke-miterlimit="10"/>
<g filter="url(#filter0_i_485_15)">
<path d="M544.945 206.009C544.945 226.444 528.387 243.019 507.973 243.019C487.55 243.019 471 226.444 471 206.009C471 185.566 487.55 169 507.973 169C528.387 169 544.945 185.566 544.945 206.009Z" fill="white"/>
</g>
<path d="M505.632 231.427V189.201L498.484 194.418V186.875L505.632 181.623H512.745V231.427H505.632Z" fill="#0202E0"/>
<g filter="url(#filter1_i_485_15)">
<path d="M476.945 136.009C476.945 156.453 460.396 173.019 439.973 173.019C419.55 173.019 403 156.453 403 136.009C403 115.566 419.55 99 439.973 99C460.396 99 476.945 115.566 476.945 136.009Z" fill="white"/>
</g>
<path d="M429.18 161.447V154.75L442.067 130.465C442.701 129.266 443.062 128.209 443.159 127.292C443.247 126.376 443.3 125.248 443.3 123.909C443.3 123.301 443.282 122.657 443.265 121.97C443.238 121.292 443.106 120.692 442.877 120.172C442.639 119.679 442.287 119.256 441.821 118.904C441.372 118.551 440.703 118.375 439.814 118.375C438.731 118.375 437.877 118.683 437.243 119.291C436.627 119.882 436.328 120.763 436.328 121.935V125.988H429.18V122.076C429.18 120.595 429.461 119.203 430.025 117.881C430.588 116.568 431.363 115.432 432.349 114.462C433.264 113.476 434.373 112.691 435.694 112.101C437.006 111.519 438.405 111.22 439.884 111.22C441.733 111.22 443.317 111.563 444.638 112.242C445.976 112.929 447.085 113.854 447.983 115.026C448.828 116.181 449.444 117.511 449.849 119.009C450.245 120.49 450.448 122.076 450.448 123.768C450.448 124.966 450.421 125.979 450.377 126.799C450.325 127.627 450.236 128.403 450.096 129.125C449.955 129.883 449.717 130.632 449.391 131.381C449.057 132.139 448.617 133.038 448.053 134.095L437.595 154.327H450.448V161.447H429.18Z" fill="#0202E0"/>
<g filter="url(#filter2_i_485_15)">
<path d="M387.945 104.009C387.945 124.444 371.396 141.019 350.973 141.019C330.55 141.019 314 124.444 314 104.009C314 83.5661 330.55 67 350.973 67C371.396 67 387.945 83.5661 387.945 104.009Z" fill="white"/>
</g>
<path d="M348.642 99.6353C350.773 99.6353 352.243 99.3797 353.044 98.8598C353.863 98.3487 354.276 97.1592 354.276 95.2999V88.8497C354.276 87.8187 353.959 86.9816 353.326 86.3471C352.709 85.6951 351.864 85.3602 350.79 85.3602C349.523 85.3602 348.616 85.7656 348.079 86.5586C347.56 87.3341 347.304 88.1007 347.304 88.8497V92.9031H340.156V88.7792C340.156 87.3517 340.438 85.977 341.001 84.6553C341.565 83.3423 342.339 82.2232 343.325 81.3068C344.285 80.3728 345.42 79.615 346.741 79.051C348.053 78.4871 349.452 78.2051 350.931 78.2051C352.877 78.2051 354.488 78.5928 355.755 79.3682C357.04 80.1437 358.018 80.9367 358.678 81.7298C359.144 82.2937 359.558 82.8577 359.91 83.4216C360.262 83.968 360.553 84.6377 360.791 85.4307C361.213 86.964 361.424 89.2374 361.424 92.2686C361.424 94.0134 361.389 95.4232 361.319 96.4983C361.248 97.5557 361.072 98.4369 360.791 99.1418C360.456 99.8732 359.998 100.499 359.417 101.01C358.827 101.53 358.026 102.094 357.023 102.702C358.123 103.407 358.968 104.068 359.558 104.676C360.139 105.266 360.579 105.962 360.861 106.755C361.143 107.601 361.301 108.606 361.354 109.751C361.398 110.879 361.424 112.324 361.424 114.087C361.424 115.734 361.389 117.1 361.319 118.175C361.248 119.233 361.143 120.114 361.002 120.819C360.861 121.55 360.667 122.176 360.438 122.687C360.201 123.207 359.893 123.744 359.523 124.308C358.625 125.603 357.489 126.687 356.107 127.551C354.743 128.423 352.947 128.855 350.72 128.855C349.593 128.855 348.396 128.661 347.128 128.291C345.878 127.921 344.751 127.304 343.748 126.458C342.709 125.639 341.855 124.555 341.177 123.216C340.491 121.859 340.156 120.184 340.156 118.21V114.157H347.304V117.858C347.304 118.986 347.604 119.92 348.22 120.642C348.854 121.374 349.708 121.735 350.79 121.735C351.864 121.735 352.709 121.374 353.326 120.642C353.959 119.92 354.276 118.942 354.276 117.717V110.597C354.276 108.65 353.898 107.372 353.149 106.755C352.745 106.385 352.181 106.147 351.459 106.05C350.729 105.962 349.787 105.909 348.642 105.909V99.6353Z" fill="#0202E0"/>
<g filter="url(#filter3_i_485_15)">
<path d="M290.936 112.009C290.936 132.444 274.387 149.019 253.964 149.019C233.55 149.019 217 132.444 217 112.009C217 91.5661 233.55 75 253.964 75C274.387 75 290.936 91.5661 290.936 112.009Z" fill="white"/>
</g>
<path d="M255.647 136.438V129.036H241.457V122.304L251.739 86.6338H259.274L248.57 122.304H255.647V108.099H262.76V122.304H266.176V129.036H262.76V136.438H255.647Z" fill="#0202E0"/>
<g filter="url(#filter4_i_485_15)">
<path d="M207.936 160.001C207.936 180.444 191.387 197.01 170.964 197.01C150.55 197.01 134 180.444 134 160.001C134 139.566 150.55 123 170.964 123C191.387 123 207.936 139.566 207.936 160.001Z" fill="white"/>
</g>
<path d="M181.424 136.619V143.351H167.304V156.78C167.956 156.128 168.792 155.573 169.804 155.124C170.834 154.683 171.97 154.454 173.22 154.454C175.658 154.454 177.63 155.194 179.136 156.675C180.658 158.137 181.424 160.332 181.424 163.266V176.131C181.424 177.823 181.125 179.33 180.544 180.643C179.954 181.938 179.171 183.057 178.185 183.991C177.216 184.908 176.09 185.613 174.804 186.106C173.537 186.599 172.199 186.846 170.79 186.846C169.399 186.846 168.061 186.599 166.776 186.106C165.482 185.613 164.355 184.908 163.396 183.991C162.41 183.057 161.618 181.938 161.037 180.643C160.447 179.33 160.156 177.823 160.156 176.131V174.051H167.304V175.849C167.304 177.074 167.63 178.026 168.29 178.704C168.968 179.391 169.848 179.726 170.931 179.726C172.005 179.726 172.833 179.4 173.396 178.739C173.977 178.087 174.276 177.171 174.276 175.99V164.323C174.276 163.336 173.959 162.508 173.326 161.821C172.709 161.116 171.917 160.763 170.931 160.763C170.315 160.763 169.804 160.869 169.382 161.081C168.959 161.292 168.616 161.539 168.361 161.821C168.079 162.103 167.868 162.402 167.727 162.702C167.489 163.125 167.348 163.389 167.304 163.477H161.001V136.619H181.424Z" fill="#0202E0"/>
<g filter="url(#filter5_i_485_15)">
<path d="M153.945 242.009C153.945 262.453 137.396 279.019 116.973 279.019C96.5585 279.019 80 262.453 80 242.009C80 221.575 96.5585 205 116.973 205C137.396 205 153.945 221.575 153.945 242.009Z" fill="white"/>
</g>
<path d="M124.873 215.627L116.775 236.564L116.915 236.705C117.144 236.52 117.514 236.37 118.007 236.246C118.5 236.132 119.134 236.07 119.908 236.07C121.176 236.07 122.338 236.379 123.394 236.987C124.468 237.577 125.313 238.344 125.93 239.278C126.255 239.798 126.511 240.317 126.704 240.829C126.889 241.322 127.056 241.992 127.197 242.838C127.285 243.684 127.356 244.759 127.409 246.045C127.453 247.314 127.479 248.927 127.479 250.874C127.479 252.522 127.453 253.87 127.409 254.927C127.356 255.967 127.285 256.831 127.197 257.536C127.056 258.293 126.88 258.928 126.669 259.439C126.458 259.932 126.185 260.461 125.859 261.025C124.917 262.558 123.659 263.739 122.092 264.585C120.542 265.431 118.79 265.854 116.845 265.854C114.891 265.854 113.148 265.422 111.598 264.55C110.067 263.686 108.834 262.506 107.901 261.025C107.523 260.461 107.232 259.932 107.021 259.439C106.81 258.928 106.651 258.293 106.563 257.536C106.422 256.831 106.325 255.967 106.281 254.927C106.229 253.87 106.211 252.522 106.211 250.874C106.211 249.35 106.229 248.089 106.281 247.103C106.325 246.098 106.396 245.217 106.493 244.459C106.581 243.754 106.722 243.111 106.915 242.52C107.1 241.939 107.311 241.322 107.549 240.688L116.915 215.627H124.873ZM120.331 245.904C120.331 244.847 119.979 243.992 119.275 243.331C118.588 242.679 117.778 242.344 116.845 242.344C115.903 242.344 115.084 242.679 114.38 243.331C113.693 243.992 113.359 244.847 113.359 245.904V255.139C113.359 256.223 113.693 257.095 114.38 257.747C115.084 258.408 115.903 258.734 116.845 258.734C117.778 258.734 118.588 258.408 119.275 257.747C119.979 257.095 120.331 256.223 120.331 255.139V245.904Z" fill="#0202E0"/>
<g filter="url(#filter6_i_485_15)">
<path d="M138.945 338.009C138.945 358.444 122.396 375.019 101.973 375.019C81.5497 375.019 65 358.444 65 338.009C65 317.566 81.5497 301 101.973 301C122.396 301 138.945 317.566 138.945 338.009Z" fill="white"/>
</g>
<path d="M92.776 365.599L105.276 322.527H97.4592V328.272H91.1562V315.795H112.424V322.95L100.311 365.599H92.776Z" fill="#0202E0"/>
<g filter="url(#filter7_i_485_15)">
<path d="M167.945 429.009C167.945 449.444 151.396 466.019 130.973 466.019C110.558 466.019 94 449.444 94 429.009C94 408.566 110.558 392 130.973 392C151.396 392 167.945 408.566 167.945 429.009Z" fill="white"/>
</g>
<path d="M134.315 417.006C134.315 416.019 133.963 415.2 133.259 414.539C132.572 413.86 131.762 413.516 130.829 413.516C129.887 413.516 129.069 413.86 128.365 414.539C127.678 415.2 127.343 416.019 127.343 417.006V424.267C127.343 425.254 127.678 426.091 128.365 426.769C129.069 427.457 129.887 427.792 130.829 427.792C131.762 427.792 132.572 427.457 133.259 426.769C133.963 426.091 134.315 425.254 134.315 424.267V417.006ZM120.195 419.79C120.195 418.451 120.239 417.314 120.336 416.371C120.424 415.411 120.591 414.574 120.829 413.869C121.058 413.164 121.331 412.53 121.639 411.966C121.938 411.402 122.326 410.829 122.801 410.238C123.734 409.022 124.896 408.071 126.287 407.383C127.695 406.705 129.21 406.361 130.829 406.361C132.449 406.361 133.963 406.705 135.372 407.383C136.78 408.071 137.942 409.022 138.858 410.238C139.324 410.829 139.72 411.402 140.055 411.966C140.381 412.53 140.662 413.164 140.9 413.869C141.129 414.574 141.287 415.411 141.358 416.371C141.428 417.314 141.463 418.451 141.463 419.79C141.463 421.297 141.437 422.566 141.393 423.597C141.34 424.61 141.199 425.518 140.97 426.311C140.733 427.113 140.372 427.827 139.879 428.461C139.386 429.078 138.717 429.73 137.872 430.435C138.717 431.096 139.386 431.757 139.879 432.409C140.372 433.043 140.733 433.81 140.97 434.7C141.199 435.599 141.34 436.691 141.393 437.978C141.437 439.247 141.463 440.815 141.463 442.666C141.463 444.217 141.428 445.503 141.358 446.508C141.287 447.495 141.182 448.367 141.041 449.116C140.9 449.847 140.698 450.473 140.442 450.984C140.178 451.504 139.861 452.041 139.492 452.605C138.69 453.804 137.564 454.844 136.111 455.707C134.676 456.58 132.916 457.011 130.829 457.011C128.734 457.011 126.965 456.58 125.512 455.707C124.077 454.844 122.959 453.804 122.167 452.605C121.789 452.041 121.472 451.504 121.216 450.984C120.952 450.473 120.759 449.847 120.618 449.116C120.477 448.367 120.371 447.495 120.301 446.508C120.231 445.503 120.195 444.217 120.195 442.666C120.195 440.815 120.213 439.247 120.266 437.978C120.31 436.691 120.451 435.599 120.688 434.7C120.917 433.81 121.287 433.043 121.78 432.409C122.273 431.757 122.942 431.096 123.787 430.435C122.942 429.73 122.273 429.078 121.78 428.461C121.287 427.827 120.917 427.113 120.688 426.311C120.451 425.518 120.31 424.61 120.266 423.597C120.213 422.566 120.195 421.297 120.195 419.79ZM134.315 436.603C134.315 435.616 133.963 434.788 133.259 434.101C132.572 433.422 131.762 433.079 130.829 433.079C129.887 433.079 129.069 433.422 128.365 434.101C127.678 434.788 127.343 435.616 127.343 436.603V446.367C127.343 447.354 127.678 448.191 128.365 448.869C129.069 449.557 129.887 449.891 130.829 449.891C131.762 449.891 132.572 449.557 133.259 448.869C133.963 448.191 134.315 447.354 134.315 446.367V436.603Z" fill="#0202E0"/>
<g filter="url(#filter8_i_485_15)">
<path d="M231.945 502.009C231.945 522.453 215.396 539.019 194.973 539.019C174.55 539.019 158 522.453 158 502.009C158 481.566 174.55 465 194.973 465C215.396 465 231.945 481.566 231.945 502.009Z" fill="white"/>
</g>
<path d="M186.797 529.596L194.896 508.695L194.755 508.554C194.517 508.748 194.156 508.897 193.663 509.012C193.17 509.135 192.537 509.188 191.762 509.188C190.494 509.188 189.315 508.889 188.241 508.272C187.184 507.664 186.348 506.888 185.741 505.945C185.406 505.505 185.151 505.011 184.966 504.465C184.772 503.928 184.632 503.231 184.544 502.385C184.403 501.566 184.306 500.509 184.262 499.213C184.209 497.927 184.191 496.305 184.191 494.349C184.191 492.728 184.209 491.388 184.262 490.331C184.306 489.274 184.403 488.384 184.544 487.652C184.632 486.947 184.79 486.339 185.001 485.819C185.213 485.308 185.477 484.762 185.811 484.198C186.744 482.674 187.994 481.484 189.544 480.638C191.111 479.792 192.871 479.369 194.825 479.369C196.771 479.369 198.505 479.81 200.037 480.673C201.586 481.546 202.827 482.718 203.769 484.198C204.095 484.762 204.377 485.308 204.614 485.819C204.843 486.339 205.037 486.947 205.178 487.652C205.266 488.384 205.336 489.274 205.389 490.331C205.433 491.388 205.459 492.728 205.459 494.349C205.459 495.9 205.433 497.187 205.389 498.191C205.336 499.178 205.266 500.024 205.178 500.729C205.037 501.46 204.878 502.121 204.72 502.703C204.553 503.293 204.35 503.919 204.121 504.571L194.755 529.596H186.797ZM191.339 499.319C191.339 500.403 191.674 501.275 192.361 501.927C193.065 502.562 193.884 502.879 194.825 502.879C195.759 502.879 196.568 502.562 197.255 501.927C197.959 501.275 198.311 500.403 198.311 499.319V490.084C198.311 489.009 197.959 488.146 197.255 487.511C196.568 486.859 195.759 486.524 194.825 486.524C193.884 486.524 193.065 486.859 192.361 487.511C191.674 488.146 191.339 489.009 191.339 490.084V499.319Z" fill="#0202E0"/>
<g filter="url(#filter9_i_485_15)">
<path d="M320.945 539.009C320.945 559.453 304.396 576.019 283.973 576.019C263.558 576.019 247 559.453 247 539.009C247 518.566 263.558 502 283.973 502C304.396 502 320.945 518.566 320.945 539.009Z" fill="white"/>
</g>
<path d="M273.148 524.919C273.148 523.254 273.439 521.773 274.029 520.478C274.61 519.165 275.402 518.037 276.388 517.094C277.347 516.16 278.474 515.438 279.768 514.944C281.054 514.451 282.392 514.204 283.782 514.204C285.191 514.204 286.529 514.451 287.797 514.944C289.082 515.438 290.209 516.16 291.177 517.094C292.163 518.037 292.946 519.165 293.536 520.478C294.117 521.773 294.417 523.254 294.417 524.919V554.139C294.417 555.831 294.117 557.338 293.536 558.651C292.946 559.946 292.163 561.065 291.177 561.999C290.209 562.915 289.082 563.62 287.797 564.114C286.529 564.607 285.191 564.854 283.782 564.854C282.392 564.854 281.054 564.607 279.768 564.114C278.474 563.62 277.347 562.915 276.388 561.999C275.402 561.065 274.61 559.946 274.029 558.651C273.439 557.338 273.148 555.831 273.148 554.139V524.919ZM280.296 554.139C280.296 555.179 280.613 556.033 281.247 556.712C281.899 557.399 282.744 557.734 283.782 557.734C284.812 557.734 285.649 557.399 286.283 556.712C286.934 556.033 287.268 555.179 287.268 554.139V524.919C287.268 523.888 286.934 523.042 286.283 522.381C285.649 521.703 284.812 521.359 283.782 521.359C282.744 521.359 281.899 521.703 281.247 522.381C280.613 523.042 280.296 523.888 280.296 524.919V554.139Z" fill="#0202E0"/>
<g filter="url(#filter10_i_485_15)">
<path d="M418.945 532.009C418.945 552.453 402.396 569.019 381.973 569.019C361.55 569.019 345 552.453 345 532.009C345 511.566 361.55 495 381.973 495C402.396 495 418.945 511.566 418.945 532.009Z" fill="white"/>
</g>
<path d="M381.34 559.597L383.382 544.547H377.501L375.459 559.597H370.741L372.748 544.547H369.191V540.352H373.311L374.861 529.038H371.339V524.843H375.389L377.431 509.793H382.185L380.142 524.843H386.023L388.065 509.793H392.783L390.776 524.843H394.333V529.038H390.213L388.664 540.352H392.185V544.547H388.135L386.093 559.597H381.34ZM383.945 540.352L385.459 529.038H379.614L378.065 540.352H383.945Z" fill="#0202E0"/>
<g filter="url(#filter11_i_485_15)">
<path d="M504.945 483.009C504.945 503.453 488.387 520.019 467.973 520.019C447.55 520.019 431 503.453 431 483.009C431 462.575 447.55 446 467.973 446C488.387 446 504.945 462.575 504.945 483.009Z" fill="white"/>
</g>
<path d="M457.062 480.343L458.999 476.712L465.83 480.907L465.584 472.765H470.056L469.774 480.907L476.605 476.712L478.577 480.343L471.57 484.255L478.577 488.097L476.605 491.798L469.774 487.604L470.056 495.71H465.584L465.83 487.604L458.999 491.798L457.062 488.097L464.034 484.255L457.062 480.343Z" fill="#0202E0"/>
<defs>
<filter id="filter0_i_485_15" x="464.6" y="165" width="80.3453" height="78.0186" filterUnits="userSpaceOnUse" color-interpolation-filters="sRGB">
<feFlood flood-opacity="0" result="BackgroundImageFix"/>
<feBlend mode="normal" in="SourceGraphic" in2="BackgroundImageFix" result="shape"/>
<feColorMatrix in="SourceAlpha" type="matrix" values="0 0 0 0 0 0 0 0 0 0 0 0 0 0 0 0 0 0 127 0" result="hardAlpha"/>
<feOffset dx="-8" dy="-4"/>
<feGaussianBlur stdDeviation="3.2"/>
<feComposite in2="hardAlpha" operator="arithmetic" k2="-1" k3="1"/>
<feColorMatrix type="matrix" values="0 0 0 0 0 0 0 0 0 0 0 0 0 0 0 0 0 0 0.25 0"/>
<feBlend mode="normal" in2="shape" result="effect1_innerShadow_485_15"/>
</filter>
<filter id="filter1_i_485_15" x="396.6" y="95" width="80.3453" height="78.0186" filterUnits="userSpaceOnUse" color-interpolation-filters="sRGB">
<feFlood flood-opacity="0" result="BackgroundImageFix"/>
<feBlend mode="normal" in="SourceGraphic" in2="BackgroundImageFix" result="shape"/>
<feColorMatrix in="SourceAlpha" type="matrix" values="0 0 0 0 0 0 0 0 0 0 0 0 0 0 0 0 0 0 127 0" result="hardAlpha"/>
<feOffset dx="-8" dy="-4"/>
<feGaussianBlur stdDeviation="3.2"/>
<feComposite in2="hardAlpha" operator="arithmetic" k2="-1" k3="1"/>
<feColorMatrix type="matrix" values="0 0 0 0 0 0 0 0 0 0 0 0 0 0 0 0 0 0 0.25 0"/>
<feBlend mode="normal" in2="shape" result="effect1_innerShadow_485_15"/>
</filter>
<filter id="filter2_i_485_15" x="307.6" y="63" width="80.3453" height="78.0186" filterUnits="userSpaceOnUse" color-interpolation-filters="sRGB">
<feFlood flood-opacity="0" result="BackgroundImageFix"/>
<feBlend mode="normal" in="SourceGraphic" in2="BackgroundImageFix" result="shape"/>
<feColorMatrix in="SourceAlpha" type="matrix" values="0 0 0 0 0 0 0 0 0 0 0 0 0 0 0 0 0 0 127 0" result="hardAlpha"/>
<feOffset dx="-8" dy="-4"/>
<feGaussianBlur stdDeviation="3.2"/>
<feComposite in2="hardAlpha" operator="arithmetic" k2="-1" k3="1"/>
<feColorMatrix type="matrix" values="0 0 0 0 0 0 0 0 0 0 0 0 0 0 0 0 0 0 0.25 0"/>
<feBlend mode="normal" in2="shape" result="effect1_innerShadow_485_15"/>
</filter>
<filter id="filter3_i_485_15" x="210.6" y="71" width="80.3375" height="78.0186" filterUnits="userSpaceOnUse" color-interpolation-filters="sRGB">
<feFlood flood-opacity="0" result="BackgroundImageFix"/>
<feBlend mode="normal" in="SourceGraphic" in2="BackgroundImageFix" result="shape"/>
<feColorMatrix in="SourceAlpha" type="matrix" values="0 0 0 0 0 0 0 0 0 0 0 0 0 0 0 0 0 0 127 0" result="hardAlpha"/>
<feOffset dx="-8" dy="-4"/>
<feGaussianBlur stdDeviation="3.2"/>
<feComposite in2="hardAlpha" operator="arithmetic" k2="-1" k3="1"/>
<feColorMatrix type="matrix" values="0 0 0 0 0 0 0 0 0 0 0 0 0 0 0 0 0 0 0.25 0"/>
<feBlend mode="normal" in2="shape" result="effect1_innerShadow_485_15"/>
</filter>
<filter id="filter4_i_485_15" x="127.6" y="119" width="80.3375" height="78.0098" filterUnits="userSpaceOnUse" color-interpolation-filters="sRGB">
<feFlood flood-opacity="0" result="BackgroundImageFix"/>
<feBlend mode="normal" in="SourceGraphic" in2="BackgroundImageFix" result="shape"/>
<feColorMatrix in="SourceAlpha" type="matrix" values="0 0 0 0 0 0 0 0 0 0 0 0 0 0 0 0 0 0 127 0" result="hardAlpha"/>
<feOffset dx="-8" dy="-4"/>
<feGaussianBlur stdDeviation="3.2"/>
<feComposite in2="hardAlpha" operator="arithmetic" k2="-1" k3="1"/>
<feColorMatrix type="matrix" values="0 0 0 0 0 0 0 0 0 0 0 0 0 0 0 0 0 0 0.25 0"/>
<feBlend mode="normal" in2="shape" result="effect1_innerShadow_485_15"/>
</filter>
<filter id="filter5_i_485_15" x="73.6" y="201" width="80.3453" height="78.0186" filterUnits="userSpaceOnUse" color-interpolation-filters="sRGB">
<feFlood flood-opacity="0" result="BackgroundImageFix"/>
<feBlend mode="normal" in="SourceGraphic" in2="BackgroundImageFix" result="shape"/>
<feColorMatrix in="SourceAlpha" type="matrix" values="0 0 0 0 0 0 0 0 0 0 0 0 0 0 0 0 0 0 127 0" result="hardAlpha"/>
<feOffset dx="-8" dy="-4"/>
<feGaussianBlur stdDeviation="3.2"/>
<feComposite in2="hardAlpha" operator="arithmetic" k2="-1" k3="1"/>
<feColorMatrix type="matrix" values="0 0 0 0 0 0 0 0 0 0 0 0 0 0 0 0 0 0 0.25 0"/>
<feBlend mode="normal" in2="shape" result="effect1_innerShadow_485_15"/>
</filter>
<filter id="filter6_i_485_15" x="58.6" y="297" width="80.3453" height="78.0186" filterUnits="userSpaceOnUse" color-interpolation-filters="sRGB">
<feFlood flood-opacity="0" result="BackgroundImageFix"/>
<feBlend mode="normal" in="SourceGraphic" in2="BackgroundImageFix" result="shape"/>
<feColorMatrix in="SourceAlpha" type="matrix" values="0 0 0 0 0 0 0 0 0 0 0 0 0 0 0 0 0 0 127 0" result="hardAlpha"/>
<feOffset dx="-8" dy="-4"/>
<feGaussianBlur stdDeviation="3.2"/>
<feComposite in2="hardAlpha" operator="arithmetic" k2="-1" k3="1"/>
<feColorMatrix type="matrix" values="0 0 0 0 0 0 0 0 0 0 0 0 0 0 0 0 0 0 0.25 0"/>
<feBlend mode="normal" in2="shape" result="effect1_innerShadow_485_15"/>
</filter>
<filter id="filter7_i_485_15" x="87.6" y="388" width="80.3453" height="78.0186" filterUnits="userSpaceOnUse" color-interpolation-filters="sRGB">
<feFlood flood-opacity="0" result="BackgroundImageFix"/>
<feBlend mode="normal" in="SourceGraphic" in2="BackgroundImageFix" result="shape"/>
<feColorMatrix in="SourceAlpha" type="matrix" values="0 0 0 0 0 0 0 0 0 0 0 0 0 0 0 0 0 0 127 0" result="hardAlpha"/>
<feOffset dx="-8" dy="-4"/>
<feGaussianBlur stdDeviation="3.2"/>
<feComposite in2="hardAlpha" operator="arithmetic" k2="-1" k3="1"/>
<feColorMatrix type="matrix" values="0 0 0 0 0 0 0 0 0 0 0 0 0 0 0 0 0 0 0.25 0"/>
<feBlend mode="normal" in2="shape" result="effect1_innerShadow_485_15"/>
</filter>
<filter id="filter8_i_485_15" x="151.6" y="461" width="80.3453" height="78.0186" filterUnits="userSpaceOnUse" color-interpolation-filters="sRGB">
<feFlood flood-opacity="0" result="BackgroundImageFix"/>
<feBlend mode="normal" in="SourceGraphic" in2="BackgroundImageFix" result="shape"/>
<feColorMatrix in="SourceAlpha" type="matrix" values="0 0 0 0 0 0 0 0 0 0 0 0 0 0 0 0 0 0 127 0" result="hardAlpha"/>
<feOffset dx="-8" dy="-4"/>
<feGaussianBlur stdDeviation="3.2"/>
<feComposite in2="hardAlpha" operator="arithmetic" k2="-1" k3="1"/>
<feColorMatrix type="matrix" values="0 0 0 0 0 0 0 0 0 0 0 0 0 0 0 0 0 0 0.25 0"/>
<feBlend mode="normal" in2="shape" result="effect1_innerShadow_485_15"/>
</filter>
<filter id="filter9_i_485_15" x="240.6" y="498" width="80.3453" height="78.0186" filterUnits="userSpaceOnUse" color-interpolation-filters="sRGB">
<feFlood flood-opacity="0" result="BackgroundImageFix"/>
<feBlend mode="normal" in="SourceGraphic" in2="BackgroundImageFix" result="shape"/>
<feColorMatrix in="SourceAlpha" type="matrix" values="0 0 0 0 0 0 0 0 0 0 0 0 0 0 0 0 0 0 127 0" result="hardAlpha"/>
<feOffset dx="-8" dy="-4"/>
<feGaussianBlur stdDeviation="3.2"/>
<feComposite in2="hardAlpha" operator="arithmetic" k2="-1" k3="1"/>
<feColorMatrix type="matrix" values="0 0 0 0 0 0 0 0 0 0 0 0 0 0 0 0 0 0 0.25 0"/>
<feBlend mode="normal" in2="shape" result="effect1_innerShadow_485_15"/>
</filter>
<filter id="filter10_i_485_15" x="338.6" y="491" width="80.3453" height="78.0186" filterUnits="userSpaceOnUse" color-interpolation-filters="sRGB">
<feFlood flood-opacity="0" result="BackgroundImageFix"/>
<feBlend mode="normal" in="SourceGraphic" in2="BackgroundImageFix" result="shape"/>
<feColorMatrix in="SourceAlpha" type="matrix" values="0 0 0 0 0 0 0 0 0 0 0 0 0 0 0 0 0 0 127 0" result="hardAlpha"/>
<feOffset dx="-8" dy="-4"/>
<feGaussianBlur stdDeviation="3.2"/>
<feComposite in2="hardAlpha" operator="arithmetic" k2="-1" k3="1"/>
<feColorMatrix type="matrix" values="0 0 0 0 0 0 0 0 0 0 0 0 0 0 0 0 0 0 0.25 0"/>
<feBlend mode="normal" in2="shape" result="effect1_innerShadow_485_15"/>
</filter>
<filter id="filter11_i_485_15" x="424.6" y="442" width="80.3453" height="78.0186" filterUnits="userSpaceOnUse" color-interpolation-filters="sRGB">
<feFlood flood-opacity="0" result="BackgroundImageFix"/>
<feBlend mode="normal" in="SourceGraphic" in2="BackgroundImageFix" result="shape"/>
<feColorMatrix in="SourceAlpha" type="matrix" values="0 0 0 0 0 0 0 0 0 0 0 0 0 0 0 0 0 0 127 0" result="hardAlpha"/>
<feOffset dx="-8" dy="-4"/>
<feGaussianBlur stdDeviation="3.2"/>
<feComposite in2="hardAlpha" operator="arithmetic" k2="-1" k3="1"/>
<feColorMatrix type="matrix" values="0 0 0 0 0 0 0 0 0 0 0 0 0 0 0 0 0 0 0.25 0"/>
<feBlend mode="normal" in2="shape" result="effect1_innerShadow_485_15"/>
</filter>
</defs>
</svg>
