<svg width="645" height="643" viewBox="0 0 645 643" fill="none" xmlns="http://www.w3.org/2000/svg">
<ellipse cx="322.043" cy="321.244" rx="322.043" ry="321.244" fill="black"/>
<path d="M602.162 321.363C602.162 476.204 476.763 601.727 322.077 601.727C167.39 601.727 42 476.204 42 321.363C42 166.523 167.39 41 322.077 41C476.763 41 602.162 166.523 602.162 321.363Z" fill="#FC6649"/>
<path d="M441.136 321.686C441.136 387.236 388.053 440.371 322.568 440.371C257.091 440.371 204 387.236 204 321.686C204 256.144 257.091 203 322.568 203C388.053 203 441.136 256.144 441.136 321.686Z" fill="white"/>
<path d="M414.59 321.382C414.59 372.411 373.26 413.774 322.291 413.774C271.321 413.774 230 372.411 230 321.382C230 270.362 271.321 229 322.291 229C373.26 229 414.59 270.362 414.59 321.382Z" stroke="#FC6649" stroke-width="2.73256" stroke-miterlimit="10"/>
<path d="M491.295 422.201L570.029 486.932C583.903 498.334 604.432 485.099 599.502 467.819C597.389 460.4 592.741 454.24 589.449 450.584C587.363 448.257 584.334 447.032 581.218 447.235C552.864 454.822 523.972 440.979 494.614 416.2C490.952 414.966 488.302 419.742 491.295 422.201Z" fill="white"/>
</svg>
