<svg width="436" height="279" viewBox="0 0 436 279" fill="none" xmlns="http://www.w3.org/2000/svg">
<path d="M436 21C436 9.40202 426.598 0 415 0H21C9.40202 0 0 9.40201 0 21V231.623H19.4643H415C426.598 231.623 436 222.221 436 210.623V21Z" fill="white"/>
<path d="M19.4643 231.623H0V275.712C0 279.164 4.87256 279.884 5.87161 276.58L19.4643 231.623Z" fill="white"/>
<path d="M336.41 68.8363C336.41 60.9552 337.588 53.9906 339.945 47.9423C342.301 41.894 345.443 36.8538 349.371 32.8216C353.141 28.9727 357.382 26.0402 362.095 24.0241C366.965 22.008 371.835 21 376.705 21C381.575 21 386.366 22.008 391.079 24.0241C395.949 26.0402 400.348 28.9727 404.275 32.8216C408.046 36.8538 411.109 41.894 413.465 47.9423C415.822 53.9906 417 60.9552 417 68.8363V172.207C417 180.454 415.822 187.511 413.465 193.376C411.109 199.241 408.046 204.098 404.275 207.947C400.348 211.979 395.949 215.003 391.079 217.019C386.366 219.035 381.575 220.043 376.705 220.043C371.835 220.043 366.965 219.035 362.095 217.019C357.382 215.003 353.141 211.979 349.371 207.947C345.443 204.098 342.301 199.241 339.945 193.376C337.588 187.511 336.41 180.454 336.41 172.207V68.8363ZM360.446 172.207C360.446 178.988 362.017 184.028 365.159 187.327C368.458 190.443 372.306 192.001 376.705 192.001C381.104 192.001 384.874 190.443 388.016 187.327C391.315 184.028 392.965 178.988 392.965 172.207V68.8363C392.965 62.0549 391.315 57.1063 388.016 53.9906C384.874 50.6915 381.104 49.042 376.705 49.042C372.306 49.042 368.458 50.6915 365.159 53.9906C362.017 57.1063 360.446 62.0549 360.446 68.8363V172.207Z" fill="#0202E0"/>
<path d="M267.543 47.3904V104.299C267.543 107.232 267.464 112.272 267.307 119.42C267.15 126.384 266.757 134.082 266.129 142.513C265.501 150.944 264.558 159.283 263.301 167.531C262.044 175.779 260.316 182.652 258.117 188.15C254.347 197.497 249.555 204.92 243.743 210.419C237.93 215.734 230.861 218.391 222.535 218.391H221.121V190.349C225.834 189.983 229.526 188.333 232.196 185.401C234.867 182.468 237.066 178.803 238.794 174.404C240.208 170.555 241.308 165.882 242.093 160.383C243.036 154.885 243.743 149.02 244.214 142.788C244.685 136.557 245 130.142 245.157 123.544C245.314 116.945 245.392 110.622 245.392 104.574V22.6475H315.143V218.391H291.107V47.3904H267.543Z" fill="#0202E0"/>
<path d="M161.676 47.3904V104.299C161.676 107.232 161.597 112.272 161.44 119.42C161.283 126.384 160.89 134.082 160.262 142.513C159.633 150.944 158.691 159.283 157.434 167.531C156.177 175.779 154.449 182.652 152.25 188.15C148.48 197.497 143.688 204.92 137.876 210.419C132.063 215.734 124.994 218.391 116.668 218.391H115.254V190.349C119.967 189.983 123.659 188.333 126.329 185.401C129 182.468 131.199 178.803 132.927 174.404C134.341 170.555 135.441 165.882 136.226 160.383C137.169 154.885 137.876 149.02 138.347 142.788C138.818 136.557 139.132 130.142 139.29 123.544C139.447 116.945 139.525 110.622 139.525 104.574V22.6475H209.276V218.391H185.24V47.3904H161.676Z" fill="#0202E0"/>
<path d="M76.3821 149.936L64.5999 79.0063H64.1286L52.3465 149.936H76.3821ZM17 218.391L54.4673 22.6475H74.4969L111.964 218.391H87.9286L80.8593 176.329H48.1049L41.0356 218.391H17Z" fill="#0202E0"/>
</svg>
