<svg width="400" height="200" viewBox="0 0 400 200" fill="none" xmlns="http://www.w3.org/2000/svg">
<path d="M319.41 47.8363C319.41 39.9552 320.588 32.9906 322.945 26.9423C325.301 20.894 328.443 15.8538 332.371 11.8216C336.141 7.97272 340.382 5.04023 345.095 3.02414C349.965 1.00805 354.835 0 359.705 0C364.575 0 369.366 1.00805 374.079 3.02414C378.949 5.04023 383.348 7.97272 387.275 11.8216C391.046 15.8538 394.109 20.894 396.465 26.9423C398.822 32.9906 400 39.9552 400 47.8363V151.207C400 159.454 398.822 166.511 396.465 172.376C394.109 178.241 391.046 183.098 387.275 186.947C383.348 190.979 378.949 194.003 374.079 196.019C369.366 198.035 364.575 199.043 359.705 199.043C354.835 199.043 349.965 198.035 345.095 196.019C340.382 194.003 336.141 190.979 332.371 186.947C328.443 183.098 325.301 178.241 322.945 172.376C320.588 166.511 319.41 159.454 319.41 151.207V47.8363ZM343.446 151.207C343.446 157.988 345.017 163.028 348.159 166.327C351.458 169.443 355.306 171.001 359.705 171.001C364.104 171.001 367.874 169.443 371.016 166.327C374.315 163.028 375.965 157.988 375.965 151.207V47.8363C375.965 41.0549 374.315 36.1063 371.016 32.9906C367.874 29.6915 364.104 28.042 359.705 28.042C355.306 28.042 351.458 29.6915 348.159 32.9906C345.017 36.1063 343.446 41.0549 343.446 47.8363V151.207Z" fill="#0202E0"/>
<path d="M250.543 26.3904V83.2991C250.543 86.2316 250.464 91.2718 250.307 98.4198C250.15 105.384 249.757 113.082 249.129 121.513C248.501 129.944 247.558 138.283 246.301 146.531C245.044 154.779 243.316 161.652 241.117 167.15C237.347 176.497 232.555 183.92 226.743 189.419C220.93 194.734 213.861 197.391 205.535 197.391H204.121V169.349C208.834 168.983 212.526 167.333 215.196 164.401C217.867 161.468 220.066 157.803 221.794 153.404C223.208 149.555 224.308 144.881 225.093 139.383C226.036 133.885 226.743 128.02 227.214 121.788C227.685 115.557 228 109.142 228.157 102.544C228.314 95.9455 228.392 89.6223 228.392 83.574V1.64746H298.143V197.391H274.107V26.3904H250.543Z" fill="#0202E0"/>
<path d="M144.676 26.3904V83.2991C144.676 86.2316 144.597 91.2718 144.44 98.4198C144.283 105.384 143.89 113.082 143.262 121.513C142.633 129.944 141.691 138.283 140.434 146.531C139.177 154.779 137.449 161.652 135.25 167.15C131.48 176.497 126.688 183.92 120.876 189.419C115.063 194.734 107.994 197.391 99.6678 197.391H98.2539V169.349C102.967 168.983 106.659 167.333 109.329 164.401C112 161.468 114.199 157.803 115.927 153.404C117.341 149.555 118.441 144.881 119.226 139.383C120.169 133.885 120.876 128.02 121.347 121.788C121.818 115.557 122.132 109.142 122.29 102.544C122.447 95.9455 122.525 89.6223 122.525 83.574V1.64746H192.276V197.391H168.24V26.3904H144.676Z" fill="#0202E0"/>
<path d="M59.3821 128.936L47.5999 58.0063H47.1286L35.3465 128.936H59.3821ZM0 197.391L37.4673 1.64746H57.4969L94.9642 197.391H70.9286L63.8593 155.329H31.1049L24.0356 197.391H0Z" fill="#0202E0"/>
</svg>
