<svg width="866" height="544" viewBox="0 0 866 544" fill="none" xmlns="http://www.w3.org/2000/svg">
<g clip-path="url(#clip0_549_375931)">
<rect width="865.333" height="543.023" transform="translate(-0.000244141)" fill="white"/>
<mask id="mask0_549_375931" style="mask-type:luminance" maskUnits="userSpaceOnUse" x="-1" y="0" width="867" height="544">
<path d="M-0.000244141 0H865.333V543.021H-0.000244141V0Z" fill="white"/>
</mask>
<g mask="url(#mask0_549_375931)">
<path d="M-0.000244141 543.021H865.333V0H-0.000244141V543.021Z" fill="#FC6649"/>
<g filter="url(#filter0_i_549_375931)">
<path d="M-0.000244141 51.9896H746.536C768.599 51.9896 786.479 69.8698 786.479 91.9323V100.198C786.479 122.255 768.599 140.141 746.536 140.141H67.1456C45.0883 140.141 27.2029 158.021 27.2029 180.083C27.2029 202.146 45.0883 220.026 67.1456 220.026H746.536C768.599 220.026 786.479 237.911 786.479 259.969V270.99C786.479 293.052 768.599 310.932 746.536 310.932H67.1456C45.0883 310.932 27.2029 328.818 27.2029 350.875V361.896C27.2029 383.958 45.0883 401.844 67.1456 401.844H746.536C768.599 401.844 786.479 419.724 786.479 441.786V451.089C786.479 473.151 768.599 491.036 746.536 491.036H-0.000244141" stroke="#0202E0" stroke-width="55.6133" stroke-miterlimit="10"/>
</g>
</g>
<path d="M656.514 402.926V404.572C656.514 405.395 656.352 406.171 656.034 406.905C655.727 407.645 655.295 408.296 654.743 408.864C654.201 409.437 653.56 409.895 652.826 410.239C652.086 410.572 651.295 410.739 650.451 410.739C649.727 410.739 648.993 410.64 648.243 410.447C647.503 410.239 646.836 409.885 646.243 409.385C645.644 408.885 645.149 408.249 644.764 407.468C644.373 406.692 644.18 405.692 644.18 404.468V389.822C644.18 388.963 644.326 388.155 644.618 387.405C644.92 386.655 645.352 386.01 645.909 385.468C646.451 384.916 647.097 384.484 647.847 384.176C648.607 383.859 649.456 383.697 650.389 383.697C652.18 383.697 653.628 384.291 654.743 385.468C655.295 386.041 655.727 386.718 656.034 387.51C656.352 388.291 656.514 389.135 656.514 390.051V391.551H652.701V390.28C652.701 389.53 652.482 388.885 652.055 388.343C651.639 387.791 651.066 387.51 650.347 387.51C649.399 387.51 648.769 387.801 648.451 388.385C648.144 388.968 647.993 389.713 647.993 390.614V404.197C647.993 404.978 648.159 405.629 648.493 406.155C648.826 406.671 649.43 406.926 650.305 406.926C650.555 406.926 650.816 406.885 651.097 406.801C651.389 406.708 651.659 406.562 651.909 406.364C652.128 406.171 652.316 405.9 652.472 405.551C652.623 405.208 652.701 404.77 652.701 404.239V402.926H656.514Z" fill="white"/>
<path d="M659.367 410.51V391.572H664.304C665.054 391.572 665.825 391.65 666.617 391.801C667.409 391.958 668.127 392.301 668.784 392.843C669.377 393.343 669.794 393.937 670.034 394.614C670.268 395.28 670.388 396.01 670.388 396.801C670.388 397.083 670.357 397.4 670.304 397.76C670.263 398.124 670.164 398.489 670.013 398.864C669.857 399.239 669.638 399.609 669.346 399.968C669.065 400.333 668.69 400.635 668.221 400.885C668.747 401.083 669.169 401.333 669.492 401.635C669.81 401.926 670.06 402.26 670.242 402.635C670.435 403.01 670.56 403.405 670.617 403.822C670.685 404.228 670.721 404.629 670.721 405.03C670.721 405.822 670.617 406.562 670.409 407.239C670.2 407.905 669.846 408.499 669.346 409.01C668.747 409.635 668.013 410.046 667.138 410.239C666.263 410.421 665.414 410.51 664.596 410.51H659.367ZM663.179 407.343H664.721C664.982 407.343 665.247 407.317 665.513 407.26C665.773 407.192 666.013 407.072 666.221 406.905C666.429 406.728 666.596 406.489 666.721 406.197C666.846 405.895 666.909 405.504 666.909 405.03C666.909 404.254 666.763 403.624 666.471 403.135C666.19 402.65 665.607 402.405 664.721 402.405H663.179V407.343ZM663.179 399.426H664.679C665.44 399.426 665.971 399.192 666.263 398.718C666.565 398.249 666.721 397.609 666.721 396.801C666.721 396.234 666.544 395.754 666.2 395.364C665.851 394.963 665.367 394.76 664.742 394.76H663.179V399.426Z" fill="white"/>
<path d="M680.414 410.51V402.968H678.789L676.393 410.51H672.497L675.351 402.405C674.768 402.155 674.31 401.812 673.976 401.364C673.643 400.921 673.393 400.447 673.226 399.947C673.07 399.447 672.976 398.963 672.935 398.489C672.893 398.02 672.872 397.645 672.872 397.364C672.872 396.572 673.007 395.739 673.289 394.864C673.565 393.989 674.023 393.296 674.664 392.78C675.315 392.228 676.007 391.885 676.747 391.76C677.481 391.635 678.216 391.572 678.955 391.572H684.226V410.51H680.414ZM680.414 394.76H678.56C677.81 394.76 677.31 395.041 677.06 395.593C676.81 396.135 676.685 396.775 676.685 397.51C676.685 399.135 677.382 399.947 678.789 399.947H680.414V394.76Z" fill="white"/>
<path d="M694.311 391.572H698.103V399.301H699.498C700.066 399.301 700.446 399.109 700.644 398.718C700.853 398.317 701.004 397.864 701.103 397.364L701.478 395.51C701.603 394.926 701.811 394.333 702.103 393.718C702.405 393.093 702.816 392.609 703.332 392.26C703.832 391.926 704.311 391.734 704.769 391.676C705.228 391.609 705.717 391.572 706.248 391.572H706.332V394.947H706.29C705.915 394.947 705.571 395.03 705.269 395.197C704.978 395.353 704.769 395.754 704.644 396.405L704.311 398.385C704.28 398.458 704.248 398.603 704.207 398.822C704.176 399.046 704.108 399.291 703.998 399.551C703.899 399.817 703.769 400.072 703.603 400.322C703.446 400.572 703.248 400.76 702.998 400.885L706.207 410.51H702.332L699.894 402.489H698.103V410.51H694.311V402.489H692.519L690.082 410.51H686.207L689.415 400.885C689.134 400.76 688.915 400.572 688.748 400.322C688.592 400.072 688.467 399.817 688.373 399.551C688.29 399.291 688.228 399.046 688.186 398.822C688.155 398.603 688.129 398.458 688.103 398.385L687.769 396.405C687.644 395.754 687.426 395.353 687.123 395.197C686.832 395.03 686.498 394.947 686.123 394.947H686.082V391.572H686.165C686.691 391.572 687.186 391.614 687.644 391.697C688.103 391.77 688.582 391.958 689.082 392.26C689.649 392.609 690.066 393.093 690.332 393.718C690.608 394.333 690.811 394.926 690.936 395.51L691.311 397.364C691.405 397.864 691.551 398.317 691.748 398.718C691.957 399.109 692.342 399.301 692.915 399.301H694.311V391.572Z" fill="white"/>
<path d="M716.362 410.51V398.489H716.278L712.07 410.51H708.174V391.572H711.757V403.593H711.841L716.028 391.572H719.945V410.51H716.362Z" fill="white"/>
<path d="M725.267 410.51V394.947H721.537V391.572H732.808V394.947H729.079V410.51H725.267Z" fill="white"/>
<path d="M745.352 402.489H737.811V405.051C737.811 405.65 737.977 406.114 738.311 406.447C738.644 406.77 739.102 406.926 739.686 406.926C740.394 406.926 740.863 406.718 741.102 406.301C741.352 405.874 741.498 405.447 741.54 405.03H745.352C745.352 406.697 744.837 408.041 743.811 409.051C743.321 409.583 742.727 409.999 742.019 410.301C741.321 410.593 740.545 410.739 739.686 410.739C738.488 410.739 737.467 410.489 736.623 409.989C735.79 409.489 735.149 408.833 734.706 408.01C734.425 407.51 734.238 406.942 734.144 406.301C734.045 405.65 733.998 404.937 733.998 404.155V397.926C733.998 397.166 734.045 396.458 734.144 395.801C734.238 395.15 734.425 394.583 734.706 394.093C735.149 393.26 735.79 392.603 736.623 392.114C737.467 391.614 738.488 391.364 739.686 391.364C740.545 391.364 741.331 391.52 742.04 391.822C742.748 392.114 743.352 392.52 743.852 393.03C744.852 394.155 745.352 395.567 745.352 397.26V402.489ZM737.811 399.489H741.54V397.322C741.54 396.603 741.373 396.062 741.04 395.697C740.706 395.338 740.253 395.155 739.686 395.155C739.102 395.155 738.644 395.338 738.311 395.697C737.977 396.062 737.811 396.603 737.811 397.322V399.489Z" fill="white"/>
<path d="M758.675 406.765C758.477 407.322 758.487 407.807 758.696 408.223C758.904 408.64 759.279 408.942 759.821 409.119C760.513 409.359 761.034 409.317 761.383 408.994C761.742 408.661 762.019 408.307 762.216 407.932L765.821 409.14C765.289 410.708 764.373 411.817 763.071 412.473C762.43 412.807 761.727 412.999 760.966 413.057C760.216 413.109 759.425 412.999 758.591 412.723C757.466 412.348 756.581 411.786 755.946 411.036C755.321 410.296 754.93 409.473 754.779 408.557C754.68 408.004 754.685 407.405 754.8 406.765C754.909 406.114 755.091 405.421 755.341 404.682L757.341 398.786C757.576 398.051 757.841 397.39 758.133 396.807C758.435 396.223 758.8 395.744 759.216 395.369C759.894 394.718 760.706 394.296 761.654 394.098C762.612 393.905 763.654 393.994 764.779 394.369C765.612 394.65 766.31 395.046 766.883 395.557C767.466 396.072 767.914 396.65 768.237 397.286C768.821 398.676 768.826 400.218 768.258 401.911L764.654 400.702C764.888 399.968 764.904 399.379 764.696 398.932C764.498 398.473 764.123 398.15 763.571 397.952C763.029 397.775 762.539 397.807 762.112 398.057C761.68 398.296 761.352 398.754 761.133 399.432L758.675 406.765Z" fill="white"/>
<path d="M763.153 422.82L783.194 405.361L785.715 408.215L784.423 409.34C785.142 409.34 785.804 409.413 786.403 409.549C787.012 409.674 787.632 410.101 788.257 410.82C789.283 412.002 789.554 413.231 789.069 414.507C788.903 414.939 788.616 415.403 788.215 415.903C787.824 416.392 787.236 416.971 786.444 417.653L781.007 422.382C779.965 423.299 779.179 423.924 778.653 424.257C777.611 424.991 776.533 425.179 775.423 424.82C774.84 424.653 774.241 424.215 773.632 423.507C773.132 422.934 772.819 422.32 772.694 421.653C772.569 420.997 772.595 420.32 772.778 419.611L772.736 419.528L765.673 425.674L763.153 422.82ZM783.528 415.111C784.111 414.611 784.486 414.101 784.653 413.57C784.819 413.028 784.684 412.507 784.257 412.007C783.882 411.58 783.413 411.377 782.861 411.403C782.304 411.418 781.762 411.653 781.236 412.111L775.694 416.945C775.246 417.33 774.996 417.788 774.944 418.32C774.887 418.861 775.033 419.33 775.382 419.736C775.851 420.278 776.345 420.497 776.861 420.403C777.371 420.304 777.851 420.059 778.298 419.674L783.528 415.111Z" fill="white"/>
<path d="M780.782 437.73L790.803 431.084L790.762 431.021L778.407 434.146L776.241 430.896L792.012 420.417L794.012 423.417L784.012 430.063L784.053 430.125L796.366 426.98L798.532 430.23L782.762 440.709L780.782 437.73Z" fill="white"/>
<path d="M784.75 447.774L801.875 455.857L800.208 459.378L789.396 458.503L789.354 458.587L796.916 466.378L795.25 469.92L778.125 461.837L779.687 458.503L790.041 463.399L790.062 463.357L783.833 457.024L784.666 455.253L793.521 456.045L793.541 455.982L783.187 451.087L784.75 447.774Z" fill="white"/>
<path d="M780.966 471.313C780.466 470.964 779.987 470.839 779.529 470.938C779.07 471.032 778.685 471.313 778.362 471.771C777.945 472.365 777.851 472.881 778.07 473.313C778.279 473.756 778.539 474.115 778.841 474.396L776.654 477.521C775.279 476.563 774.476 475.365 774.237 473.938C774.086 473.23 774.091 472.506 774.258 471.771C774.414 471.032 774.737 470.303 775.237 469.584C775.919 468.61 776.706 467.922 777.591 467.521C778.482 467.131 779.383 466.985 780.299 467.084C780.883 467.136 781.466 467.313 782.049 467.605C782.633 467.896 783.242 468.261 783.883 468.709L788.987 472.271C789.612 472.714 790.159 473.157 790.633 473.605C791.117 474.063 791.476 474.547 791.716 475.063C792.143 475.907 792.32 476.813 792.237 477.771C792.164 478.74 791.789 479.714 791.112 480.688C790.612 481.407 790.034 481.969 789.383 482.376C788.726 482.792 788.055 483.053 787.362 483.167C785.846 483.334 784.351 482.902 782.883 481.876L785.07 478.751C785.706 479.209 786.268 479.402 786.758 479.334C787.258 479.261 787.674 478.985 788.008 478.501C788.325 478.042 788.43 477.568 788.32 477.084C788.221 476.61 787.883 476.167 787.299 475.751L780.966 471.313Z" fill="white"/>
<path d="M773.229 474.964L783.5 490.881L780.292 492.943L776.104 486.443L774.875 487.235C774.406 487.537 774.198 487.912 774.25 488.36C774.292 488.803 774.417 489.308 774.625 489.881L775.458 491.902C775.651 492.469 775.771 493.006 775.812 493.506C775.854 494.016 775.781 494.506 775.604 494.964C775.422 495.448 775.13 495.891 774.729 496.297C774.328 496.714 773.823 497.12 773.208 497.527L773.146 497.568L771.312 494.735L771.417 494.652C771.792 494.412 772.062 494.141 772.229 493.839C772.396 493.547 772.37 493.131 772.146 492.589L771.333 490.61C771.323 490.537 771.271 490.402 771.187 490.193C771.094 489.985 771.015 489.74 770.958 489.464C770.89 489.198 770.854 488.912 770.854 488.61C770.854 488.318 770.932 488.047 771.083 487.797L762.667 481.777L765.917 479.672L772.812 484.777L774.375 483.756L770.021 477.027L773.229 474.964Z" fill="white"/>
<path d="M765.901 493.478C766.068 494.228 766.177 494.926 766.234 495.583C766.286 496.249 766.234 496.843 766.068 497.374C765.818 498.291 765.338 499.083 764.63 499.749C763.922 500.426 762.995 500.906 761.838 501.187C760.672 501.447 759.63 501.437 758.713 501.145C757.786 500.864 757.015 500.364 756.401 499.645C756.026 499.228 755.713 498.713 755.463 498.103C755.213 497.504 755.005 496.833 754.838 496.083L753.401 490.02C753.234 489.254 753.13 488.546 753.088 487.895C753.036 487.239 753.078 486.645 753.213 486.103C753.463 485.197 753.937 484.406 754.63 483.728C755.328 483.046 756.255 482.572 757.422 482.312C758.578 482.031 759.625 482.041 760.568 482.333C761.5 482.624 762.271 483.124 762.88 483.833C763.286 484.26 763.609 484.775 763.859 485.374C764.099 485.968 764.297 486.65 764.463 487.416L765.901 493.478ZM760.609 487.708C760.443 486.999 760.161 486.504 759.755 486.228C759.354 485.947 758.87 485.879 758.297 486.02C757.745 486.145 757.349 486.421 757.109 486.853C756.859 487.281 756.818 487.853 756.984 488.562L758.672 495.791C758.838 496.499 759.13 496.989 759.547 497.27C759.953 497.546 760.432 497.624 760.984 497.499C761.557 497.359 761.958 497.072 762.193 496.645C762.432 496.213 762.463 495.645 762.297 494.937L760.609 487.708Z" fill="white"/>
<path d="M742.407 483.702V495.723H742.49L746.698 483.702H750.594V502.64H747.011V490.619H746.927L742.74 502.64H738.823V483.702H742.407ZM746.552 509.64C746.526 509.499 746.506 509.317 746.49 509.098C746.479 508.89 746.417 508.682 746.302 508.473C746.193 508.265 746.011 508.083 745.761 507.932C745.511 507.775 745.151 507.702 744.677 507.702C744.209 507.702 743.844 507.775 743.594 507.932C743.344 508.083 743.167 508.265 743.052 508.473C742.943 508.682 742.886 508.89 742.886 509.098C742.875 509.317 742.854 509.499 742.823 509.64H739.636C739.761 508.249 740.219 507.182 741.011 506.432C741.792 505.692 743.011 505.327 744.677 505.327C746.344 505.327 747.573 505.702 748.365 506.452C749.146 507.213 749.594 508.275 749.719 509.64H746.552Z" fill="white"/>
<path d="M728.728 483.702V502.64H723.79C723.04 502.64 722.27 502.562 721.478 502.411C720.686 502.254 719.968 501.911 719.311 501.369C718.718 500.869 718.301 500.275 718.061 499.598C717.827 498.932 717.707 498.202 717.707 497.411C717.707 497.129 717.738 496.812 717.79 496.452C717.832 496.088 717.931 495.723 718.082 495.348C718.238 494.973 718.457 494.603 718.749 494.244C719.03 493.879 719.405 493.577 719.874 493.327C719.348 493.129 718.926 492.879 718.603 492.577C718.285 492.286 718.035 491.952 717.853 491.577C717.66 491.202 717.535 490.807 717.478 490.39C717.41 489.984 717.374 489.583 717.374 489.182C717.374 488.39 717.478 487.65 717.686 486.973C717.895 486.307 718.249 485.713 718.749 485.202C719.348 484.577 720.082 484.166 720.957 483.973C721.832 483.791 722.681 483.702 723.499 483.702H728.728ZM724.915 486.869H723.374C723.113 486.869 722.848 486.895 722.582 486.952C722.322 487.02 722.082 487.14 721.874 487.307C721.665 487.484 721.499 487.723 721.374 488.015C721.249 488.317 721.186 488.708 721.186 489.182C721.186 489.958 721.332 490.588 721.624 491.077C721.905 491.562 722.488 491.807 723.374 491.807H724.915V486.869ZM724.915 494.786H723.415C722.655 494.786 722.124 495.02 721.832 495.494C721.53 495.963 721.374 496.603 721.374 497.411C721.374 497.978 721.551 498.458 721.895 498.848C722.244 499.249 722.728 499.452 723.353 499.452H724.915V494.786Z" fill="white"/>
<path d="M707.49 483.702V485.64H707.552C708.052 484.942 708.562 484.411 709.073 484.036C709.588 483.661 710.302 483.473 711.219 483.473C711.667 483.473 712.125 483.546 712.594 483.682C713.052 483.817 713.49 484.077 713.906 484.452C714.338 484.796 714.687 485.296 714.948 485.952C715.198 486.619 715.323 487.473 715.323 488.515C715.323 489.583 715.24 490.52 715.073 491.327C714.896 492.145 714.568 492.827 714.094 493.369C713.651 493.895 713.047 494.286 712.281 494.536C711.505 494.796 710.521 494.932 709.323 494.932H708.906C708.755 494.932 708.615 494.921 708.49 494.911C708.365 494.879 708.219 494.869 708.052 494.869C707.875 494.869 707.687 494.853 707.49 494.827V496.807C707.49 497.458 707.63 497.994 707.906 498.411C708.172 498.838 708.667 499.057 709.385 499.057C709.885 499.057 710.344 498.89 710.76 498.557C711.167 498.234 711.427 497.765 711.552 497.14H715.26C715.151 498.833 714.573 500.202 713.531 501.244C713.031 501.744 712.437 502.129 711.74 502.411C711.047 502.702 710.26 502.848 709.385 502.848C708.594 502.848 707.854 502.723 707.156 502.473C706.463 502.223 705.854 501.853 705.323 501.369C704.823 500.869 704.427 500.244 704.135 499.494C703.833 498.744 703.677 497.874 703.677 496.89V483.702H707.49ZM707.49 491.848C707.906 491.916 708.255 491.952 708.531 491.952C709.354 491.952 710.052 491.754 710.635 491.369C711.219 490.978 711.51 490.275 711.51 489.265C711.51 488.541 711.338 487.958 710.99 487.515C710.646 487.067 710.156 486.848 709.531 486.848C708.896 486.848 708.396 487.057 708.031 487.473C707.672 487.89 707.49 488.484 707.49 489.265V491.848Z" fill="white"/>
<path d="M700.892 483.702V502.64H697.079V494.911H695.621C695.053 494.911 694.673 495.103 694.475 495.494C694.267 495.895 694.1 496.395 693.975 496.994L693.579 499.161C693.428 499.728 693.235 500.244 692.996 500.702C692.761 501.161 692.444 501.525 692.038 501.807C691.621 502.109 691.136 502.327 690.579 502.452C690.011 502.577 689.366 502.64 688.642 502.64H688.558V499.265H688.683C689.131 499.265 689.506 499.182 689.808 499.015C690.1 498.859 690.308 498.499 690.433 497.932L690.808 495.827C690.84 495.754 690.871 495.609 690.913 495.39C690.944 495.166 691.006 494.921 691.1 494.661C691.199 494.395 691.329 494.14 691.496 493.89C691.663 493.64 691.871 493.452 692.121 493.327L688.308 483.702H692.183L695.204 491.723H697.079V483.702H700.892Z" fill="white"/>
<path d="M688.43 483.702L683.763 493.369L688.201 502.64H684.159L681.826 497.244L679.472 502.64H675.43L679.951 493.369L675.201 483.702H679.243L681.826 489.494L684.388 483.702H688.43Z" fill="white"/>
<path d="M666.854 483.702V485.64H666.917C667.417 484.942 667.927 484.411 668.438 484.036C668.953 483.661 669.667 483.473 670.583 483.473C671.031 483.473 671.49 483.546 671.958 483.682C672.417 483.817 672.854 484.077 673.271 484.452C673.703 484.796 674.052 485.296 674.313 485.952C674.563 486.619 674.688 487.473 674.688 488.515C674.688 489.583 674.604 490.52 674.438 491.327C674.26 492.145 673.932 492.827 673.458 493.369C673.016 493.895 672.412 494.286 671.646 494.536C670.87 494.796 669.885 494.932 668.688 494.932H668.271C668.12 494.932 667.979 494.921 667.854 494.911C667.729 494.879 667.583 494.869 667.417 494.869C667.24 494.869 667.052 494.853 666.854 494.827V496.807C666.854 497.458 666.995 497.994 667.271 498.411C667.537 498.838 668.031 499.057 668.75 499.057C669.25 499.057 669.708 498.89 670.125 498.557C670.531 498.234 670.792 497.765 670.917 497.14H674.625C674.516 498.833 673.938 500.202 672.896 501.244C672.396 501.744 671.802 502.129 671.104 502.411C670.412 502.702 669.625 502.848 668.75 502.848C667.958 502.848 667.219 502.723 666.521 502.473C665.828 502.223 665.219 501.853 664.688 501.369C664.188 500.869 663.792 500.244 663.5 499.494C663.198 498.744 663.042 497.874 663.042 496.89V483.702H666.854ZM666.854 491.848C667.271 491.916 667.62 491.952 667.896 491.952C668.719 491.952 669.417 491.754 670 491.369C670.583 490.978 670.875 490.275 670.875 489.265C670.875 488.541 670.703 487.958 670.354 487.515C670.01 487.067 669.521 486.848 668.896 486.848C668.26 486.848 667.76 487.057 667.396 487.473C667.037 487.89 666.854 488.484 666.854 489.265V491.848Z" fill="white"/>
<path d="M660.219 483.702V502.64H656.407V494.911H652.552V502.64H648.761V483.702H652.552V491.723H656.407V483.702H660.219Z" fill="white"/>
<path d="M638.421 483.702V485.64H638.483C638.983 484.942 639.494 484.411 640.004 484.036C640.52 483.661 641.233 483.473 642.15 483.473C642.598 483.473 643.056 483.546 643.525 483.682C643.983 483.817 644.421 484.077 644.838 484.452C645.27 484.796 645.619 485.296 645.879 485.952C646.129 486.619 646.254 487.473 646.254 488.515C646.254 489.583 646.171 490.52 646.004 491.327C645.827 492.145 645.499 492.827 645.025 493.369C644.582 493.895 643.978 494.286 643.213 494.536C642.437 494.796 641.452 494.932 640.254 494.932H639.838C639.687 494.932 639.546 494.921 639.421 494.911C639.296 494.879 639.15 494.869 638.983 494.869C638.806 494.869 638.619 494.853 638.421 494.827V496.807C638.421 497.458 638.562 497.994 638.838 498.411C639.103 498.838 639.598 499.057 640.317 499.057C640.817 499.057 641.275 498.89 641.692 498.557C642.098 498.234 642.358 497.765 642.483 497.14H646.192C646.082 498.833 645.504 500.202 644.463 501.244C643.963 501.744 643.369 502.129 642.671 502.411C641.978 502.702 641.192 502.848 640.317 502.848C639.525 502.848 638.785 502.723 638.088 502.473C637.395 502.223 636.785 501.853 636.254 501.369C635.754 500.869 635.358 500.244 635.067 499.494C634.765 498.744 634.608 497.874 634.608 496.89V483.702H638.421ZM638.421 491.848C638.838 491.916 639.187 491.952 639.463 491.952C640.285 491.952 640.983 491.754 641.567 491.369C642.15 490.978 642.442 490.275 642.442 489.265C642.442 488.541 642.27 487.958 641.921 487.515C641.577 487.067 641.088 486.848 640.463 486.848C639.827 486.848 639.327 487.057 638.963 487.473C638.603 487.89 638.421 488.484 638.421 489.265V491.848Z" fill="white"/>
<path d="M633.115 487.286C632.854 487.286 632.583 487.359 632.302 487.515C632.01 487.666 631.714 487.921 631.406 488.286C631.156 488.588 630.964 489.02 630.823 489.577C630.672 490.145 630.562 490.728 630.49 491.327C630.406 491.937 630.354 492.52 630.323 493.077C630.297 493.645 630.281 494.083 630.281 494.39V502.64H619.844V483.702H623.635V499.452H626.698V495.952C626.698 495.077 626.729 494.192 626.781 493.307C626.823 492.432 626.906 491.583 627.031 490.765C627.146 489.958 627.292 489.208 627.469 488.515C627.635 487.817 627.854 487.223 628.115 486.723C628.646 485.749 629.333 484.999 630.177 484.473C631.026 483.958 631.984 483.702 633.052 483.702H633.302V487.286H633.115Z" fill="white"/>
<path d="M608.523 483.702V495.723H608.606L612.815 483.702H616.711V502.64H613.127V490.619H613.044L608.856 502.64H604.94V483.702H608.523Z" fill="white"/>
<path d="M590.801 491.723H598.343V489.161C598.343 488.562 598.176 488.098 597.843 487.765C597.51 487.442 597.051 487.286 596.468 487.286C595.76 487.286 595.291 487.494 595.051 487.911C594.801 488.338 594.655 488.765 594.614 489.182H590.801C590.801 487.515 591.317 486.171 592.343 485.161C592.833 484.629 593.426 484.213 594.135 483.911C594.833 483.619 595.609 483.473 596.468 483.473C597.666 483.473 598.687 483.723 599.53 484.223C600.364 484.723 601.004 485.379 601.447 486.202C601.728 486.702 601.916 487.27 602.01 487.911C602.109 488.562 602.155 489.275 602.155 490.057V496.286C602.155 497.046 602.109 497.754 602.01 498.411C601.916 499.062 601.728 499.629 601.447 500.119C601.004 500.952 600.364 501.609 599.53 502.098C598.687 502.598 597.666 502.848 596.468 502.848C595.609 502.848 594.822 502.692 594.114 502.39C593.405 502.098 592.801 501.692 592.301 501.182C591.301 500.057 590.801 498.645 590.801 496.952V491.723ZM598.343 494.723H594.614V496.89C594.614 497.609 594.78 498.15 595.114 498.515C595.447 498.874 595.9 499.057 596.468 499.057C597.051 499.057 597.51 498.874 597.843 498.515C598.176 498.15 598.343 497.609 598.343 496.89V494.723Z" fill="white"/>
<path d="M579.828 483.702V495.723H579.912L584.12 483.702H588.016V502.64H584.433V490.619H584.349L580.162 502.64H576.245V483.702H579.828ZM583.974 509.64C583.948 509.499 583.927 509.317 583.912 509.098C583.901 508.89 583.839 508.682 583.724 508.473C583.615 508.265 583.433 508.083 583.183 507.932C582.933 507.775 582.573 507.702 582.099 507.702C581.631 507.702 581.266 507.775 581.016 507.932C580.766 508.083 580.589 508.265 580.474 508.473C580.365 508.682 580.308 508.89 580.308 509.098C580.297 509.317 580.276 509.499 580.245 509.64H577.058C577.183 508.249 577.641 507.182 578.433 506.432C579.214 505.692 580.433 505.327 582.099 505.327C583.766 505.327 584.995 505.702 585.787 506.452C586.568 507.213 587.016 508.275 587.141 509.64H583.974Z" fill="white"/>
<path d="M573.127 483.702V487.515H569.315V483.702H573.127Z" fill="white"/>
<path d="M559.017 483.702V510.286H548.413V506.702H555.205V483.702H559.017Z" fill="white"/>
<path d="M550.214 496.286C550.214 497.046 550.167 497.754 550.068 498.411C549.974 499.062 549.787 499.629 549.506 500.119C549.063 500.952 548.422 501.609 547.589 502.098C546.745 502.598 545.724 502.848 544.527 502.848C543.334 502.848 542.318 502.598 541.485 502.098C540.652 501.609 540.016 500.952 539.568 500.119C539.292 499.629 539.105 499.062 539.006 498.411C538.912 497.754 538.86 497.046 538.86 496.286V490.057C538.86 489.275 538.912 488.562 539.006 487.911C539.105 487.27 539.292 486.702 539.568 486.202C540.016 485.379 540.652 484.723 541.485 484.223C542.318 483.723 543.334 483.473 544.527 483.473C545.724 483.473 546.745 483.723 547.589 484.223C548.422 484.723 549.063 485.379 549.506 486.202C549.787 486.702 549.974 487.27 550.068 487.911C550.167 488.562 550.214 489.275 550.214 490.057V496.286ZM546.402 489.452C546.402 488.728 546.235 488.187 545.902 487.827C545.568 487.463 545.11 487.286 544.527 487.286C543.959 487.286 543.506 487.463 543.172 487.827C542.839 488.187 542.672 488.728 542.672 489.452V496.89C542.672 497.609 542.839 498.15 543.172 498.515C543.506 498.874 543.959 499.057 544.527 499.057C545.11 499.057 545.568 498.874 545.902 498.515C546.235 498.15 546.402 497.609 546.402 496.89V489.452Z" fill="white"/>
<path d="M536.075 476.057V502.64H532.262V500.911C531.793 501.463 531.304 501.921 530.804 502.286C530.304 502.661 529.585 502.848 528.637 502.848C527.069 502.848 525.965 502.249 525.325 501.057C525.106 500.64 524.944 500.119 524.845 499.494C524.736 498.869 524.679 498.036 524.679 496.994V489.786C524.679 488.395 524.72 487.39 524.804 486.765C524.944 485.515 525.512 484.583 526.512 483.973C527.012 483.64 527.736 483.473 528.679 483.473C529.429 483.473 530.095 483.64 530.679 483.973C531.262 484.317 531.762 484.796 532.179 485.411H532.262V476.057H536.075ZM528.491 496.473C528.491 497.234 528.647 497.853 528.95 498.327C529.241 498.812 529.715 499.057 530.366 499.057C530.939 499.057 531.397 498.833 531.741 498.39C532.09 497.958 532.262 497.395 532.262 496.702V489.348C532.262 488.749 532.085 488.254 531.72 487.869C531.361 487.478 530.908 487.286 530.366 487.286C529.647 487.286 529.153 487.504 528.887 487.952C528.627 488.411 528.491 488.937 528.491 489.536V496.473Z" fill="white"/>
<path d="M514.351 483.702V485.64H514.413C514.913 484.942 515.424 484.411 515.934 484.036C516.45 483.661 517.163 483.473 518.08 483.473C518.528 483.473 518.986 483.546 519.455 483.682C519.913 483.817 520.351 484.077 520.767 484.452C521.2 484.796 521.549 485.296 521.809 485.952C522.059 486.619 522.184 487.473 522.184 488.515C522.184 489.583 522.101 490.52 521.934 491.327C521.757 492.145 521.429 492.827 520.955 493.369C520.512 493.895 519.908 494.286 519.142 494.536C518.366 494.796 517.382 494.932 516.184 494.932H515.767C515.616 494.932 515.476 494.921 515.351 494.911C515.226 494.879 515.08 494.869 514.913 494.869C514.736 494.869 514.549 494.853 514.351 494.827V496.807C514.351 497.458 514.491 497.994 514.767 498.411C515.033 498.838 515.528 499.057 516.247 499.057C516.747 499.057 517.205 498.89 517.622 498.557C518.028 498.234 518.288 497.765 518.413 497.14H522.122C522.012 498.833 521.434 500.202 520.392 501.244C519.892 501.744 519.299 502.129 518.601 502.411C517.908 502.702 517.122 502.848 516.247 502.848C515.455 502.848 514.715 502.723 514.017 502.473C513.325 502.223 512.715 501.853 512.184 501.369C511.684 500.869 511.288 500.244 510.997 499.494C510.695 498.744 510.538 497.874 510.538 496.89V483.702H514.351ZM514.351 491.848C514.767 491.916 515.116 491.952 515.392 491.952C516.215 491.952 516.913 491.754 517.497 491.369C518.08 490.978 518.372 490.275 518.372 489.265C518.372 488.541 518.2 487.958 517.851 487.515C517.507 487.067 517.017 486.848 516.392 486.848C515.757 486.848 515.257 487.057 514.892 487.473C514.533 487.89 514.351 488.484 514.351 489.265V491.848Z" fill="white"/>
<path d="M507.753 483.702V502.64H503.94V486.869H500.17V502.64H496.357V486.869H494.336V479.973H497.565V483.702H507.753Z" fill="white"/>
<path d="M484.453 483.702V495.723H484.537L488.745 483.702H492.641V502.64H489.057V490.619H488.974L484.787 502.64H480.87V483.702H484.453Z" fill="white"/>
<path d="M469.565 483.702V495.723H469.648L473.856 483.702H477.752V502.64H474.169V490.619H474.086L469.898 502.64H465.981V483.702H469.565ZM473.711 509.64C473.685 509.499 473.664 509.317 473.648 509.098C473.638 508.89 473.575 508.682 473.461 508.473C473.351 508.265 473.169 508.083 472.919 507.932C472.669 507.775 472.31 507.702 471.836 507.702C471.367 507.702 471.002 507.775 470.752 507.932C470.502 508.083 470.325 508.265 470.211 508.473C470.101 508.682 470.044 508.89 470.044 509.098C470.034 509.317 470.013 509.499 469.981 509.64H466.794C466.919 508.249 467.377 507.182 468.169 506.432C468.95 505.692 470.169 505.327 471.836 505.327C473.502 505.327 474.731 505.702 475.523 506.452C476.304 507.213 476.752 508.275 476.877 509.64H473.711Z" fill="white"/>
<path d="M455.923 483.702V502.64H444.528V483.702H448.34V499.452H452.111V483.702H455.923Z" fill="white"/>
<path d="M441.891 496.286C441.891 497.046 441.844 497.754 441.745 498.411C441.651 499.062 441.464 499.629 441.182 500.119C440.74 500.952 440.099 501.609 439.266 502.098C438.422 502.598 437.401 502.848 436.203 502.848C435.011 502.848 433.995 502.598 433.162 502.098C432.328 501.609 431.693 500.952 431.245 500.119C430.969 499.629 430.781 499.062 430.682 498.411C430.589 497.754 430.537 497.046 430.537 496.286V490.057C430.537 489.275 430.589 488.562 430.682 487.911C430.781 487.27 430.969 486.702 431.245 486.202C431.693 485.379 432.328 484.723 433.162 484.223C433.995 483.723 435.011 483.473 436.203 483.473C437.401 483.473 438.422 483.723 439.266 484.223C440.099 484.723 440.74 485.379 441.182 486.202C441.464 486.702 441.651 487.27 441.745 487.911C441.844 488.562 441.891 489.275 441.891 490.057V496.286ZM438.078 489.452C438.078 488.728 437.912 488.187 437.578 487.827C437.245 487.463 436.787 487.286 436.203 487.286C435.636 487.286 435.182 487.463 434.849 487.827C434.516 488.187 434.349 488.728 434.349 489.452V496.89C434.349 497.609 434.516 498.15 434.849 498.515C435.182 498.874 435.636 499.057 436.203 499.057C436.787 499.057 437.245 498.874 437.578 498.515C437.912 498.15 438.078 497.609 438.078 496.89V489.452Z" fill="white"/>
<path d="M427.751 483.702V502.64H423.855L420.022 492.473H419.939L416.105 502.64H412.209V483.702H415.876V495.161H415.939L419.001 486.807H420.959L424.022 495.161H424.084V483.702H427.751Z" fill="white"/>
<path d="M409.39 496.286C409.39 497.046 409.343 497.754 409.244 498.411C409.15 499.062 408.963 499.629 408.682 500.119C408.239 500.952 407.598 501.609 406.765 502.098C405.921 502.598 404.9 502.848 403.703 502.848C402.51 502.848 401.494 502.598 400.661 502.098C399.828 501.609 399.192 500.952 398.744 500.119C398.468 499.629 398.281 499.062 398.182 498.411C398.088 497.754 398.036 497.046 398.036 496.286V490.057C398.036 489.275 398.088 488.562 398.182 487.911C398.281 487.27 398.468 486.702 398.744 486.202C399.192 485.379 399.828 484.723 400.661 484.223C401.494 483.723 402.51 483.473 403.703 483.473C404.9 483.473 405.921 483.723 406.765 484.223C407.598 484.723 408.239 485.379 408.682 486.202C408.963 486.702 409.15 487.27 409.244 487.911C409.343 488.562 409.39 489.275 409.39 490.057V496.286ZM405.578 489.452C405.578 488.728 405.411 488.187 405.078 487.827C404.744 487.463 404.286 487.286 403.703 487.286C403.135 487.286 402.682 487.463 402.348 487.827C402.015 488.187 401.848 488.728 401.848 489.452V496.89C401.848 497.609 402.015 498.15 402.348 498.515C402.682 498.874 403.135 499.057 403.703 499.057C404.286 499.057 404.744 498.874 405.078 498.515C405.411 498.15 405.578 497.609 405.578 496.89V489.452Z" fill="white"/>
<path d="M388.292 502.64H384.5V494.911H383.105C382.537 494.911 382.157 495.103 381.959 495.494C381.75 495.895 381.599 496.348 381.5 496.848L381.125 498.702C381 499.286 380.792 499.879 380.5 500.494C380.198 501.119 379.787 501.603 379.271 501.952C378.771 502.286 378.292 502.478 377.834 502.536C377.375 502.603 376.886 502.64 376.355 502.64H376.271V499.265H376.313C376.688 499.265 377.032 499.182 377.334 499.015C377.625 498.859 377.834 498.458 377.959 497.807L378.292 495.827C378.323 495.754 378.355 495.609 378.396 495.39C378.427 495.166 378.495 494.921 378.605 494.661C378.704 494.395 378.834 494.14 379 493.89C379.157 493.64 379.355 493.452 379.605 493.327L376.396 483.702H380.271L382.709 491.723H384.5V483.702H388.292V491.723H390.084L392.521 483.702H396.396L393.188 493.327C393.469 493.452 393.688 493.64 393.855 493.89C394.011 494.14 394.136 494.395 394.23 494.661C394.313 494.921 394.375 495.166 394.417 495.39C394.448 495.609 394.474 495.754 394.5 495.827L394.834 497.807C394.959 498.458 395.177 498.859 395.48 499.015C395.771 499.182 396.105 499.265 396.48 499.265H396.521V502.64H396.438C395.912 502.64 395.417 502.598 394.959 502.515C394.5 502.442 394.021 502.254 393.521 501.952C392.954 501.603 392.537 501.119 392.271 500.494C391.995 499.879 391.792 499.286 391.667 498.702L391.292 496.848C391.198 496.348 391.052 495.895 390.855 495.494C390.646 495.103 390.261 494.911 389.688 494.911H388.292V502.64Z" fill="white"/>
<path d="M363.408 491.723H370.95V489.161C370.95 488.562 370.783 488.098 370.45 487.765C370.117 487.442 369.658 487.286 369.075 487.286C368.367 487.286 367.898 487.494 367.658 487.911C367.408 488.338 367.262 488.765 367.221 489.182H363.408C363.408 487.515 363.924 486.171 364.95 485.161C365.439 484.629 366.033 484.213 366.742 483.911C367.439 483.619 368.215 483.473 369.075 483.473C370.273 483.473 371.294 483.723 372.137 484.223C372.971 484.723 373.611 485.379 374.054 486.202C374.335 486.702 374.523 487.27 374.617 487.911C374.715 488.562 374.762 489.275 374.762 490.057V496.286C374.762 497.046 374.715 497.754 374.617 498.411C374.523 499.062 374.335 499.629 374.054 500.119C373.611 500.952 372.971 501.609 372.137 502.098C371.294 502.598 370.273 502.848 369.075 502.848C368.215 502.848 367.429 502.692 366.721 502.39C366.012 502.098 365.408 501.692 364.908 501.182C363.908 500.057 363.408 498.645 363.408 496.952V491.723ZM370.95 494.723H367.221V496.89C367.221 497.609 367.387 498.15 367.721 498.515C368.054 498.874 368.507 499.057 369.075 499.057C369.658 499.057 370.117 498.874 370.45 498.515C370.783 498.15 370.95 497.609 370.95 496.89V494.723Z" fill="white"/>
<path d="M358.456 483.702V499.265H362.185V502.64H350.915V499.265H354.644V483.702H358.456Z" fill="white"/>
<path d="M350.473 483.702V487.515H346.661V483.702H350.473Z" fill="white"/>
<path d="M330.717 506.932V499.202C330.717 498.796 330.733 498.119 330.759 497.161C330.79 496.202 330.853 495.145 330.947 493.994C331.046 492.853 331.197 491.723 331.405 490.598C331.603 489.484 331.874 488.557 332.217 487.807C332.816 486.541 333.582 485.541 334.509 484.807C335.426 484.067 336.546 483.702 337.863 483.702H338.072V487.515C337.337 487.557 336.759 487.775 336.342 488.182C335.915 488.583 335.561 489.083 335.28 489.682C335.061 490.192 334.879 490.827 334.738 491.577C334.603 492.327 334.499 493.124 334.426 493.973C334.342 494.817 334.296 495.687 334.28 496.577C334.254 497.478 334.238 498.338 334.238 499.161V510.286H323.176V483.702H326.988V506.932H330.717Z" fill="white"/>
<path d="M308.817 491.723H316.359V489.161C316.359 488.562 316.192 488.098 315.859 487.765C315.526 487.442 315.067 487.286 314.484 487.286C313.776 487.286 313.307 487.494 313.067 487.911C312.817 488.338 312.672 488.765 312.63 489.182H308.817C308.817 487.515 309.333 486.171 310.359 485.161C310.849 484.629 311.442 484.213 312.151 483.911C312.849 483.619 313.625 483.473 314.484 483.473C315.682 483.473 316.703 483.723 317.547 484.223C318.38 484.723 319.021 485.379 319.463 486.202C319.744 486.702 319.932 487.27 320.026 487.911C320.125 488.562 320.172 489.275 320.172 490.057V496.286C320.172 497.046 320.125 497.754 320.026 498.411C319.932 499.062 319.744 499.629 319.463 500.119C319.021 500.952 318.38 501.609 317.547 502.098C316.703 502.598 315.682 502.848 314.484 502.848C313.625 502.848 312.838 502.692 312.13 502.39C311.422 502.098 310.817 501.692 310.317 501.182C309.317 500.057 308.817 498.645 308.817 496.952V491.723ZM316.359 494.723H312.63V496.89C312.63 497.609 312.797 498.15 313.13 498.515C313.463 498.874 313.916 499.057 314.484 499.057C315.067 499.057 315.526 498.874 315.859 498.515C316.192 498.15 316.359 497.609 316.359 496.89V494.723Z" fill="white"/>
<path d="M306.365 496.286C306.365 497.046 306.319 497.754 306.22 498.411C306.126 499.062 305.938 499.629 305.657 500.119C305.214 500.952 304.574 501.609 303.74 502.098C302.897 502.598 301.876 502.848 300.678 502.848C299.485 502.848 298.47 502.598 297.636 502.098C296.803 501.609 296.167 500.952 295.72 500.119C295.444 499.629 295.256 499.062 295.157 498.411C295.063 497.754 295.011 497.046 295.011 496.286V490.057C295.011 489.275 295.063 488.562 295.157 487.911C295.256 487.27 295.444 486.702 295.72 486.202C296.167 485.379 296.803 484.723 297.636 484.223C298.47 483.723 299.485 483.473 300.678 483.473C301.876 483.473 302.897 483.723 303.74 484.223C304.574 484.723 305.214 485.379 305.657 486.202C305.938 486.702 306.126 487.27 306.22 487.911C306.319 488.562 306.365 489.275 306.365 490.057V496.286ZM302.553 489.452C302.553 488.728 302.386 488.187 302.053 487.827C301.72 487.463 301.261 487.286 300.678 487.286C300.11 487.286 299.657 487.463 299.324 487.827C298.99 488.187 298.824 488.728 298.824 489.452V496.89C298.824 497.609 298.99 498.15 299.324 498.515C299.657 498.874 300.11 499.057 300.678 499.057C301.261 499.057 301.72 498.874 302.053 498.515C302.386 498.15 302.553 497.609 302.553 496.89V489.452Z" fill="white"/>
<path d="M292.226 483.702V502.64H288.413V494.911H284.559V502.64H280.767V483.702H284.559V491.723H288.413V483.702H292.226Z" fill="white"/>
<path d="M270.427 483.702V485.64H270.49C270.99 484.942 271.5 484.411 272.011 484.036C272.526 483.661 273.24 483.473 274.157 483.473C274.605 483.473 275.063 483.546 275.532 483.682C275.99 483.817 276.427 484.077 276.844 484.452C277.276 484.796 277.625 485.296 277.886 485.952C278.136 486.619 278.261 487.473 278.261 488.515C278.261 489.583 278.177 490.52 278.011 491.327C277.834 492.145 277.506 492.827 277.032 493.369C276.589 493.895 275.985 494.286 275.219 494.536C274.443 494.796 273.459 494.932 272.261 494.932H271.844C271.693 494.932 271.552 494.921 271.427 494.911C271.302 494.879 271.157 494.869 270.99 494.869C270.813 494.869 270.625 494.853 270.427 494.827V496.807C270.427 497.458 270.568 497.994 270.844 498.411C271.11 498.838 271.605 499.057 272.323 499.057C272.823 499.057 273.282 498.89 273.698 498.557C274.105 498.234 274.365 497.765 274.49 497.14H278.198C278.089 498.833 277.511 500.202 276.469 501.244C275.969 501.744 275.375 502.129 274.677 502.411C273.985 502.702 273.198 502.848 272.323 502.848C271.532 502.848 270.792 502.723 270.094 502.473C269.401 502.223 268.792 501.853 268.261 501.369C267.761 500.869 267.365 500.244 267.073 499.494C266.771 498.744 266.615 497.874 266.615 496.89V483.702H270.427ZM270.427 491.848C270.844 491.916 271.193 491.952 271.469 491.952C272.292 491.952 272.99 491.754 273.573 491.369C274.157 490.978 274.448 490.275 274.448 489.265C274.448 488.541 274.276 487.958 273.927 487.515C273.584 487.067 273.094 486.848 272.469 486.848C271.834 486.848 271.334 487.057 270.969 487.473C270.61 487.89 270.427 488.484 270.427 489.265V491.848Z" fill="white"/>
<path d="M263.83 476.057V502.64H260.017V500.911C259.548 501.463 259.059 501.921 258.559 502.286C258.059 502.661 257.34 502.848 256.392 502.848C254.824 502.848 253.72 502.249 253.08 501.057C252.861 500.64 252.699 500.119 252.601 499.494C252.491 498.869 252.434 498.036 252.434 496.994V489.786C252.434 488.395 252.476 487.39 252.559 486.765C252.699 485.515 253.267 484.583 254.267 483.973C254.767 483.64 255.491 483.473 256.434 483.473C257.184 483.473 257.851 483.64 258.434 483.973C259.017 484.317 259.517 484.796 259.934 485.411H260.017V476.057H263.83ZM256.246 496.473C256.246 497.234 256.403 497.853 256.705 498.327C256.996 498.812 257.47 499.057 258.121 499.057C258.694 499.057 259.153 498.833 259.496 498.39C259.845 497.958 260.017 497.395 260.017 496.702V489.348C260.017 488.749 259.84 488.254 259.476 487.869C259.116 487.478 258.663 487.286 258.121 487.286C257.403 487.286 256.908 487.504 256.642 487.952C256.382 488.411 256.246 488.937 256.246 489.536V496.473Z" fill="white"/>
<path d="M247.921 483.702V479.973H251.129V486.869H249.421C249.145 487.395 248.9 488.088 248.692 488.952C248.483 489.827 248.317 490.749 248.192 491.723C248.098 492.525 248.036 493.348 248.004 494.182C247.978 495.025 247.963 495.807 247.963 496.515V502.64H237.504V486.869H235.713V479.973H238.921V483.702H247.921ZM244.379 499.452V496.619C244.379 496.296 244.395 495.9 244.421 495.432C244.452 494.973 244.483 494.499 244.525 494.015C244.556 493.541 244.588 493.067 244.629 492.598C244.661 492.14 244.702 491.749 244.754 491.432C244.853 490.775 245.015 490.004 245.233 489.119C245.442 488.244 245.681 487.494 245.942 486.869H241.317V499.452H244.379Z" fill="white"/>
<path d="M234.386 496.286C234.386 497.046 234.339 497.754 234.24 498.411C234.147 499.062 233.959 499.629 233.678 500.119C233.235 500.952 232.594 501.609 231.761 502.098C230.917 502.598 229.897 502.848 228.699 502.848C227.506 502.848 226.49 502.598 225.657 502.098C224.824 501.609 224.188 500.952 223.74 500.119C223.464 499.629 223.277 499.062 223.178 498.411C223.084 497.754 223.032 497.046 223.032 496.286V490.057C223.032 489.275 223.084 488.562 223.178 487.911C223.277 487.27 223.464 486.702 223.74 486.202C224.188 485.379 224.824 484.723 225.657 484.223C226.49 483.723 227.506 483.473 228.699 483.473C229.897 483.473 230.917 483.723 231.761 484.223C232.594 484.723 233.235 485.379 233.678 486.202C233.959 486.702 234.147 487.27 234.24 487.911C234.339 488.562 234.386 489.275 234.386 490.057V496.286ZM230.574 489.452C230.574 488.728 230.407 488.187 230.074 487.827C229.74 487.463 229.282 487.286 228.699 487.286C228.131 487.286 227.678 487.463 227.344 487.827C227.011 488.187 226.844 488.728 226.844 489.452V496.89C226.844 497.609 227.011 498.15 227.344 498.515C227.678 498.874 228.131 499.057 228.699 499.057C229.282 499.057 229.74 498.874 230.074 498.515C230.407 498.15 230.574 497.609 230.574 496.89V489.452Z" fill="white"/>
<path d="M213.269 483.702V502.64H209.456V494.911H205.602V502.64H201.811V483.702H205.602V491.723H209.456V483.702H213.269Z" fill="white"/>
<path d="M191.47 483.702V485.64H191.533C192.033 484.942 192.543 484.411 193.054 484.036C193.569 483.661 194.283 483.473 195.2 483.473C195.648 483.473 196.106 483.546 196.575 483.682C197.033 483.817 197.47 484.077 197.887 484.452C198.319 484.796 198.668 485.296 198.929 485.952C199.179 486.619 199.304 487.473 199.304 488.515C199.304 489.583 199.22 490.52 199.054 491.327C198.877 492.145 198.549 492.827 198.075 493.369C197.632 493.895 197.028 494.286 196.262 494.536C195.486 494.796 194.502 494.932 193.304 494.932H192.887C192.736 494.932 192.595 494.921 192.47 494.911C192.345 494.879 192.2 494.869 192.033 494.869C191.856 494.869 191.668 494.853 191.47 494.827V496.807C191.47 497.458 191.611 497.994 191.887 498.411C192.153 498.838 192.648 499.057 193.366 499.057C193.866 499.057 194.325 498.89 194.741 498.557C195.148 498.234 195.408 497.765 195.533 497.14H199.241C199.132 498.833 198.554 500.202 197.512 501.244C197.012 501.744 196.418 502.129 195.72 502.411C195.028 502.702 194.241 502.848 193.366 502.848C192.575 502.848 191.835 502.723 191.137 502.473C190.444 502.223 189.835 501.853 189.304 501.369C188.804 500.869 188.408 500.244 188.116 499.494C187.814 498.744 187.658 497.874 187.658 496.89V483.702H191.47ZM191.47 491.848C191.887 491.916 192.236 491.952 192.512 491.952C193.335 491.952 194.033 491.754 194.616 491.369C195.2 490.978 195.491 490.275 195.491 489.265C195.491 488.541 195.319 487.958 194.97 487.515C194.627 487.067 194.137 486.848 193.512 486.848C192.877 486.848 192.377 487.057 192.012 487.473C191.653 487.89 191.47 488.484 191.47 489.265V491.848Z" fill="white"/>
<path d="M173.891 489.161C173.891 488.562 173.724 488.098 173.391 487.765C173.057 487.442 172.609 487.286 172.036 487.286C171.318 487.286 170.838 487.494 170.599 487.911C170.365 488.338 170.219 488.765 170.161 489.182H166.349C166.349 487.515 166.865 486.171 167.891 485.161C168.391 484.629 168.99 484.213 169.682 483.911C170.38 483.619 171.161 483.473 172.036 483.473C173.234 483.473 174.245 483.723 175.078 484.223C175.911 484.723 176.552 485.379 176.995 486.202C177.276 486.702 177.463 487.27 177.557 487.911C177.656 488.562 177.703 489.275 177.703 490.057V496.286C177.703 497.046 177.656 497.754 177.557 498.411C177.463 499.062 177.276 499.629 176.995 500.119C176.552 500.952 175.911 501.609 175.078 502.098C174.245 502.598 173.234 502.848 172.036 502.848C171.161 502.848 170.37 502.692 169.661 502.39C168.953 502.098 168.349 501.692 167.849 501.182C166.849 500.057 166.349 498.598 166.349 496.807H170.161C170.161 497.583 170.328 498.15 170.661 498.515C170.995 498.874 171.453 499.057 172.036 499.057C172.609 499.057 173.057 498.874 173.391 498.515C173.724 498.15 173.891 497.609 173.891 496.89V489.161Z" fill="white"/>
<path d="M164.126 483.702V502.64H159.188C158.438 502.64 157.668 502.562 156.876 502.411C156.084 502.254 155.365 501.911 154.709 501.369C154.115 500.869 153.699 500.275 153.459 499.598C153.225 498.932 153.105 498.202 153.105 497.411C153.105 497.129 153.136 496.812 153.188 496.452C153.23 496.088 153.329 495.723 153.48 495.348C153.636 494.973 153.855 494.603 154.147 494.244C154.428 493.879 154.803 493.577 155.272 493.327C154.746 493.129 154.324 492.879 154.001 492.577C153.683 492.286 153.433 491.952 153.251 491.577C153.058 491.202 152.933 490.807 152.876 490.39C152.808 489.984 152.772 489.583 152.772 489.182C152.772 488.39 152.876 487.65 153.084 486.973C153.293 486.307 153.647 485.713 154.147 485.202C154.746 484.577 155.48 484.166 156.355 483.973C157.23 483.791 158.079 483.702 158.897 483.702H164.126ZM160.313 486.869H158.772C158.511 486.869 158.246 486.895 157.98 486.952C157.72 487.02 157.48 487.14 157.272 487.307C157.063 487.484 156.897 487.723 156.772 488.015C156.647 488.317 156.584 488.708 156.584 489.182C156.584 489.958 156.73 490.588 157.022 491.077C157.303 491.562 157.886 491.807 158.772 491.807H160.313V486.869ZM160.313 494.786H158.813C158.053 494.786 157.522 495.02 157.23 495.494C156.928 495.963 156.772 496.603 156.772 497.411C156.772 497.978 156.949 498.458 157.293 498.848C157.642 499.249 158.126 499.452 158.751 499.452H160.313V494.786Z" fill="white"/>
<path d="M143.079 483.702V491.244H144.704L147.1 483.702H150.996L148.142 491.807C148.725 492.057 149.183 492.4 149.517 492.848C149.85 493.291 150.1 493.765 150.267 494.265C150.423 494.765 150.517 495.249 150.558 495.723C150.6 496.192 150.621 496.567 150.621 496.848C150.621 497.64 150.485 498.473 150.204 499.348C149.928 500.223 149.47 500.916 148.829 501.432C148.178 501.984 147.485 502.327 146.746 502.452C146.011 502.577 145.277 502.64 144.537 502.64H139.267V483.702H143.079ZM143.079 499.452H144.933C145.683 499.452 146.183 499.171 146.433 498.619C146.683 498.077 146.808 497.437 146.808 496.702C146.808 495.077 146.11 494.265 144.704 494.265H143.079V499.452Z" fill="white"/>
<path d="M136.957 497.327C136.905 498.077 136.738 498.775 136.457 499.432C136.165 500.098 135.78 500.682 135.29 501.182C134.806 501.692 134.228 502.098 133.561 502.39C132.884 502.692 132.144 502.848 131.353 502.848C130.561 502.848 129.801 502.713 129.061 502.452C128.327 502.202 127.697 501.827 127.165 501.327C126.681 500.853 126.29 500.286 125.999 499.619C125.707 498.963 125.561 498.228 125.561 497.411C125.561 497.129 125.592 496.812 125.644 496.452C125.702 496.088 125.811 495.723 125.978 495.348C126.134 494.973 126.368 494.603 126.686 494.244C126.993 493.879 127.405 493.577 127.915 493.327C127.374 493.129 126.926 492.879 126.561 492.577C126.202 492.286 125.931 491.952 125.749 491.577C125.556 491.202 125.426 490.807 125.353 490.39C125.269 489.984 125.228 489.583 125.228 489.182C125.228 488.416 125.353 487.723 125.603 487.098C125.853 486.473 126.228 485.89 126.728 485.348C127.269 484.749 127.936 484.286 128.728 483.952C129.509 483.635 130.363 483.473 131.29 483.473C133.056 483.473 134.488 484.057 135.582 485.223C136.556 486.275 137.077 487.598 137.144 489.182H133.561C133.509 488.515 133.301 487.994 132.936 487.619C132.577 487.244 132.035 487.057 131.311 487.057C130.676 487.057 130.16 487.249 129.769 487.64C129.384 488.025 129.186 488.598 129.186 489.348C129.186 490.067 129.348 490.645 129.665 491.077C129.973 491.504 130.535 491.723 131.353 491.723H132.54V494.911H131.499C130.764 494.911 130.228 495.088 129.894 495.452C129.551 495.827 129.374 496.437 129.374 497.286C129.374 497.838 129.551 498.307 129.894 498.682C130.243 499.067 130.728 499.265 131.353 499.265C131.853 499.265 132.306 499.119 132.707 498.827C133.098 498.546 133.322 498.046 133.374 497.327H136.957Z" fill="white"/>
<path d="M114.296 483.702V495.723H114.379L118.587 483.702H122.483V502.64H118.9V490.619H118.817L114.629 502.64H110.712V483.702H114.296Z" fill="white"/>
<path d="M107.595 483.702V487.515H103.782V483.702H107.595Z" fill="white"/>
<path d="M85.7598 492.994L87.614 502.64H87.6973L89.5723 492.994H85.7598ZM95.1557 483.702L89.2182 510.286H86.0515L80.114 483.702H83.9265L85.0515 489.411H90.239L91.364 483.702H95.1557Z" fill="white"/>
<path d="M79.408 487.286C79.1476 487.286 78.8768 487.359 78.5955 487.515C78.3039 487.666 78.007 487.921 77.6997 488.286C77.4497 488.588 77.257 489.02 77.1164 489.577C76.9653 490.145 76.856 490.728 76.783 491.327C76.6997 491.937 76.6476 492.52 76.6164 493.077C76.5903 493.645 76.5747 494.083 76.5747 494.39V502.64H66.1372V483.702H69.9289V499.452H72.9914V495.952C72.9914 495.077 73.0226 494.192 73.0747 493.307C73.1164 492.432 73.1997 491.583 73.3247 490.765C73.4393 489.958 73.5851 489.208 73.7622 488.515C73.9289 487.817 74.1476 487.223 74.408 486.723C74.9393 485.749 75.6268 484.999 76.4705 484.473C77.3195 483.958 78.2778 483.702 79.3455 483.702H79.5955V487.286H79.408Z" fill="white"/>
<path d="M64.2957 487.286C64.0353 487.286 63.7645 487.359 63.4832 487.515C63.1916 487.666 62.8947 487.921 62.5874 488.286C62.3374 488.588 62.1447 489.02 62.0041 489.577C61.853 490.145 61.7437 490.728 61.6707 491.327C61.5874 491.937 61.5353 492.52 61.5041 493.077C61.478 493.645 61.4624 494.083 61.4624 494.39V502.64H51.0249V483.702H54.8166V499.452H57.8791V495.952C57.8791 495.077 57.9103 494.192 57.9624 493.307C58.0041 492.432 58.0874 491.583 58.2124 490.765C58.327 489.958 58.4728 489.208 58.6499 488.515C58.8166 487.817 59.0353 487.223 59.2957 486.723C59.827 485.749 60.5145 484.999 61.3582 484.473C62.2072 483.958 63.1655 483.702 64.2332 483.702H64.4832V487.286H64.2957Z" fill="white"/>
<path d="M48.2253 496.286C48.2253 497.046 48.1784 497.754 48.0794 498.411C47.9857 499.062 47.7982 499.629 47.5169 500.119C47.0742 500.952 46.4336 501.609 45.6003 502.098C44.7565 502.598 43.7357 502.848 42.5378 502.848C41.3451 502.848 40.3294 502.598 39.4961 502.098C38.6628 501.609 38.0273 500.952 37.5794 500.119C37.3034 499.629 37.1159 499.062 37.0169 498.411C36.9232 497.754 36.8711 497.046 36.8711 496.286V490.057C36.8711 489.275 36.9232 488.562 37.0169 487.911C37.1159 487.27 37.3034 486.702 37.5794 486.202C38.0273 485.379 38.6628 484.723 39.4961 484.223C40.3294 483.723 41.3451 483.473 42.5378 483.473C43.7357 483.473 44.7565 483.723 45.6003 484.223C46.4336 484.723 47.0742 485.379 47.5169 486.202C47.7982 486.702 47.9857 487.27 48.0794 487.911C48.1784 488.562 48.2253 489.275 48.2253 490.057V496.286ZM44.4128 489.452C44.4128 488.728 44.2461 488.187 43.9128 487.827C43.5794 487.463 43.1211 487.286 42.5378 487.286C41.9701 487.286 41.5169 487.463 41.1836 487.827C40.8503 488.187 40.6836 488.728 40.6836 489.452V496.89C40.6836 497.609 40.8503 498.15 41.1836 498.515C41.5169 498.874 41.9701 499.057 42.5378 499.057C43.1211 499.057 43.5794 498.874 43.9128 498.515C44.2461 498.15 44.4128 497.609 44.4128 496.89V489.452Z" fill="white"/>
<path d="M34.4607 502.64V504.827C34.4607 505.603 34.3149 506.338 34.0232 507.036C33.7211 507.728 33.3044 508.338 32.7732 508.869C32.2472 509.369 31.6378 509.765 30.9399 510.057C30.2472 510.359 29.5024 510.515 28.7107 510.515C27.7836 510.515 26.9399 510.327 26.1899 509.952C25.4294 509.577 24.794 509.057 24.294 508.39C24.044 508.025 23.8461 507.702 23.6899 507.411C23.5232 507.129 23.393 506.817 23.294 506.473C23.1169 505.848 23.0232 504.963 23.0232 503.827C23.0232 503.171 23.0336 502.629 23.044 502.202C23.0597 501.77 23.0961 501.39 23.1482 501.057C23.1899 500.734 23.2524 500.458 23.3357 500.223C23.4086 499.984 23.5024 499.77 23.6274 499.577L26.2107 495.161C26.3774 494.869 26.5232 494.562 26.6482 494.244C26.7732 493.937 26.8357 493.609 26.8357 493.265V490.265H30.6482V493.744C30.6482 494.286 30.5649 494.807 30.3982 495.307C30.2211 495.807 29.9919 496.291 29.7107 496.765L27.3149 500.661C27.1222 500.978 26.9972 501.327 26.9399 501.702C26.8722 502.077 26.8357 502.452 26.8357 502.827V504.786C26.8357 505.312 27.018 505.765 27.3774 506.14C27.7419 506.515 28.1847 506.702 28.7107 506.702C29.1586 506.702 29.5961 506.536 30.0232 506.202C30.4399 505.879 30.6482 505.411 30.6482 504.786V502.64H34.4607ZM30.6482 483.702V487.515H26.8357V483.702H30.6482Z" fill="white"/>
</g>
<defs>
<filter id="filter0_i_549_375931" x="-0.60376" y="24.1829" width="822.489" height="502.26" filterUnits="userSpaceOnUse" color-interpolation-filters="sRGB">
<feFlood flood-opacity="0" result="BackgroundImageFix"/>
<feBlend mode="normal" in="SourceGraphic" in2="BackgroundImageFix" result="shape"/>
<feColorMatrix in="SourceAlpha" type="matrix" values="0 0 0 0 0 0 0 0 0 0 0 0 0 0 0 0 0 0 127 0" result="hardAlpha"/>
<feOffset dx="9" dy="13"/>
<feGaussianBlur stdDeviation="3.8"/>
<feComposite in2="hardAlpha" operator="arithmetic" k2="-1" k3="1"/>
<feColorMatrix type="matrix" values="0 0 0 0 0 0 0 0 0 0 0 0 0 0 0 0 0 0 0.25 0"/>
<feBlend mode="normal" in2="shape" result="effect1_innerShadow_549_375931"/>
</filter>
<clipPath id="clip0_549_375931">
<rect width="865.333" height="543.023" fill="white" transform="translate(-0.000244141)"/>
</clipPath>
</defs>
</svg>
