<svg width="866" height="544" viewBox="0 0 866 544" fill="none" xmlns="http://www.w3.org/2000/svg">
<g clip-path="url(#clip0_549_375736)">
<rect width="865.333" height="543.023" transform="translate(0.666504)" fill="white"/>
<mask id="mask0_549_375736" style="mask-type:luminance" maskUnits="userSpaceOnUse" x="0" y="0" width="866" height="544">
<path d="M0.666504 0H866V543.021H0.666504V0Z" fill="white"/>
</mask>
<g mask="url(#mask0_549_375736)">
<path d="M0.666504 543.021H866V0H0.666504V543.021Z" fill="#FC6649"/>
<g filter="url(#filter0_i_549_375736)">
<path d="M0.666504 51.9896H747.203C769.265 51.9896 787.146 69.8698 787.146 91.9323V100.198C787.146 122.255 769.265 140.141 747.203 140.141H67.8123C45.755 140.141 27.8696 158.021 27.8696 180.083C27.8696 202.146 45.755 220.026 67.8123 220.026H747.203C769.265 220.026 787.146 237.911 787.146 259.969V270.99C787.146 293.052 769.265 310.932 747.203 310.932H67.8123C45.755 310.932 27.8696 328.818 27.8696 350.875V361.896C27.8696 383.958 45.755 401.844 67.8123 401.844H747.203C769.265 401.844 787.146 419.724 787.146 441.786V451.089C787.146 473.151 769.265 491.036 747.203 491.036H0.666504" stroke="#0202E0" stroke-width="55.6133" stroke-miterlimit="10"/>
</g>
</g>
<path d="M199.766 402.928V404.573C199.766 405.396 199.604 406.172 199.287 406.907C198.979 407.646 198.547 408.297 197.995 408.865C197.453 409.438 196.813 409.896 196.078 410.24C195.339 410.573 194.547 410.74 193.703 410.74C192.979 410.74 192.245 410.641 191.495 410.448C190.756 410.24 190.089 409.886 189.495 409.386C188.896 408.886 188.401 408.251 188.016 407.469C187.625 406.693 187.433 405.693 187.433 404.469V389.823C187.433 388.964 187.578 388.157 187.87 387.407C188.172 386.657 188.604 386.011 189.162 385.469C189.703 384.917 190.349 384.485 191.099 384.178C191.86 383.86 192.709 383.698 193.641 383.698C195.433 383.698 196.881 384.292 197.995 385.469C198.547 386.042 198.979 386.719 199.287 387.511C199.604 388.292 199.766 389.136 199.766 390.053V391.553H195.953V390.282C195.953 389.532 195.735 388.886 195.308 388.344C194.891 387.792 194.318 387.511 193.599 387.511C192.651 387.511 192.021 387.803 191.703 388.386C191.396 388.969 191.245 389.714 191.245 390.615V404.198C191.245 404.98 191.412 405.631 191.745 406.157C192.078 406.672 192.683 406.928 193.558 406.928C193.808 406.928 194.068 406.886 194.349 406.803C194.641 406.709 194.912 406.563 195.162 406.365C195.381 406.172 195.568 405.902 195.724 405.553C195.875 405.209 195.953 404.771 195.953 404.24V402.928H199.766Z" fill="white"/>
<path d="M202.62 410.511V391.573H207.557C208.307 391.573 209.078 391.652 209.87 391.803C210.661 391.959 211.38 392.303 212.036 392.844C212.63 393.344 213.047 393.938 213.286 394.615C213.521 395.282 213.64 396.011 213.64 396.803C213.64 397.084 213.609 397.402 213.557 397.761C213.515 398.126 213.417 398.49 213.265 398.865C213.109 399.24 212.89 399.61 212.599 399.969C212.318 400.334 211.943 400.636 211.474 400.886C212 401.084 212.422 401.334 212.745 401.636C213.062 401.928 213.312 402.261 213.495 402.636C213.687 403.011 213.812 403.407 213.87 403.823C213.937 404.23 213.974 404.631 213.974 405.032C213.974 405.823 213.87 406.563 213.661 407.24C213.453 407.907 213.099 408.501 212.599 409.011C212 409.636 211.265 410.047 210.39 410.24C209.515 410.422 208.667 410.511 207.849 410.511H202.62ZM206.432 407.344H207.974C208.234 407.344 208.5 407.318 208.765 407.261C209.026 407.193 209.265 407.073 209.474 406.907C209.682 406.73 209.849 406.49 209.974 406.198C210.099 405.896 210.161 405.506 210.161 405.032C210.161 404.256 210.015 403.626 209.724 403.136C209.443 402.652 208.859 402.407 207.974 402.407H206.432V407.344ZM206.432 399.428H207.932C208.693 399.428 209.224 399.193 209.515 398.719C209.818 398.251 209.974 397.61 209.974 396.803C209.974 396.235 209.797 395.756 209.453 395.365C209.104 394.964 208.62 394.761 207.995 394.761H206.432V399.428Z" fill="white"/>
<path d="M223.666 410.511V402.969H222.041L219.645 410.511H215.75L218.604 402.407C218.02 402.157 217.562 401.813 217.229 401.365C216.895 400.922 216.645 400.448 216.479 399.948C216.322 399.448 216.229 398.964 216.187 398.49C216.145 398.021 216.125 397.646 216.125 397.365C216.125 396.573 216.26 395.74 216.541 394.865C216.817 393.99 217.276 393.297 217.916 392.782C218.567 392.23 219.26 391.886 220 391.761C220.734 391.636 221.468 391.573 222.208 391.573H227.479V410.511H223.666ZM223.666 394.761H221.812C221.062 394.761 220.562 395.042 220.312 395.594C220.062 396.136 219.937 396.777 219.937 397.511C219.937 399.136 220.635 399.948 222.041 399.948H223.666V394.761Z" fill="white"/>
<path d="M237.564 391.573H241.355V399.303H242.751C243.319 399.303 243.699 399.11 243.897 398.719C244.105 398.318 244.256 397.865 244.355 397.365L244.73 395.511C244.855 394.928 245.064 394.334 245.355 393.719C245.657 393.094 246.069 392.61 246.584 392.261C247.084 391.928 247.564 391.735 248.022 391.678C248.48 391.61 248.97 391.573 249.501 391.573H249.584V394.948H249.543C249.168 394.948 248.824 395.032 248.522 395.198C248.23 395.355 248.022 395.756 247.897 396.407L247.564 398.386C247.532 398.459 247.501 398.605 247.459 398.823C247.428 399.047 247.361 399.292 247.251 399.553C247.152 399.818 247.022 400.073 246.855 400.323C246.699 400.573 246.501 400.761 246.251 400.886L249.459 410.511H245.584L243.147 402.49H241.355V410.511H237.564V402.49H235.772L233.334 410.511H229.459L232.668 400.886C232.387 400.761 232.168 400.573 232.001 400.323C231.845 400.073 231.72 399.818 231.626 399.553C231.543 399.292 231.48 399.047 231.439 398.823C231.407 398.605 231.381 398.459 231.355 398.386L231.022 396.407C230.897 395.756 230.678 395.355 230.376 395.198C230.084 395.032 229.751 394.948 229.376 394.948H229.334V391.573H229.418C229.944 391.573 230.439 391.615 230.897 391.698C231.355 391.771 231.834 391.959 232.334 392.261C232.902 392.61 233.319 393.094 233.584 393.719C233.861 394.334 234.064 394.928 234.189 395.511L234.564 397.365C234.657 397.865 234.803 398.318 235.001 398.719C235.209 399.11 235.595 399.303 236.168 399.303H237.564V391.573Z" fill="white"/>
<path d="M259.614 410.511V398.49H259.531L255.323 410.511H251.427V391.573H255.01V403.594H255.093L259.281 391.573H263.198V410.511H259.614Z" fill="white"/>
<path d="M268.482 410.511V394.948H264.752V391.573H276.023V394.948H272.294V410.511H268.482Z" fill="white"/>
<path d="M288.642 402.49H281.101V405.053C281.101 405.652 281.267 406.115 281.601 406.448C281.934 406.771 282.392 406.928 282.976 406.928C283.684 406.928 284.153 406.719 284.392 406.303C284.642 405.876 284.788 405.448 284.83 405.032H288.642C288.642 406.698 288.127 408.042 287.101 409.053C286.611 409.584 286.017 410.001 285.309 410.303C284.611 410.594 283.835 410.74 282.976 410.74C281.778 410.74 280.757 410.49 279.913 409.99C279.08 409.49 278.439 408.834 277.996 408.011C277.715 407.511 277.528 406.943 277.434 406.303C277.335 405.652 277.288 404.938 277.288 404.157V397.928C277.288 397.167 277.335 396.459 277.434 395.803C277.528 395.152 277.715 394.584 277.996 394.094C278.439 393.261 279.08 392.605 279.913 392.115C280.757 391.615 281.778 391.365 282.976 391.365C283.835 391.365 284.621 391.521 285.33 391.823C286.038 392.115 286.642 392.521 287.142 393.032C288.142 394.157 288.642 395.568 288.642 397.261V402.49ZM281.101 399.49H284.83V397.323C284.83 396.605 284.663 396.063 284.33 395.698C283.996 395.339 283.543 395.157 282.976 395.157C282.392 395.157 281.934 395.339 281.601 395.698C281.267 396.063 281.101 396.605 281.101 397.323V399.49Z" fill="white"/>
<path d="M302.373 405.053C302.373 405.652 302.539 406.115 302.873 406.448C303.206 406.771 303.654 406.928 304.227 406.928C304.945 406.928 305.425 406.719 305.664 406.303C305.899 405.876 306.044 405.448 306.102 405.032H309.914C309.914 406.698 309.399 408.042 308.373 409.053C307.873 409.584 307.274 410.001 306.581 410.303C305.883 410.594 305.102 410.74 304.227 410.74C303.029 410.74 302.018 410.49 301.185 409.99C300.352 409.49 299.711 408.834 299.268 408.011C298.987 407.511 298.8 406.943 298.706 406.303C298.607 405.652 298.56 404.938 298.56 404.157V397.928C298.56 397.167 298.607 396.459 298.706 395.803C298.8 395.152 298.987 394.584 299.268 394.094C299.711 393.261 300.352 392.605 301.185 392.115C302.018 391.615 303.029 391.365 304.227 391.365C305.102 391.365 305.893 391.521 306.602 391.823C307.31 392.115 307.914 392.521 308.414 393.032C309.414 394.157 309.914 395.615 309.914 397.407H306.102C306.102 396.631 305.935 396.063 305.602 395.698C305.268 395.339 304.81 395.157 304.227 395.157C303.654 395.157 303.206 395.339 302.873 395.698C302.539 396.063 302.373 396.605 302.373 397.323V405.053Z" fill="white"/>
<path d="M319.078 418.157V391.573H322.89V393.303C323.359 392.751 323.848 392.292 324.348 391.928C324.848 391.553 325.567 391.365 326.515 391.365C328.083 391.365 329.187 391.964 329.828 393.157C330.046 393.573 330.208 394.094 330.307 394.719C330.416 395.344 330.473 396.178 330.473 397.219V404.428C330.473 405.818 330.432 406.823 330.348 407.448C330.208 408.698 329.64 409.631 328.64 410.24C328.14 410.573 327.416 410.74 326.473 410.74C325.723 410.74 325.057 410.573 324.473 410.24C323.89 409.896 323.39 409.417 322.973 408.803H322.89V418.157H319.078ZM326.661 397.74C326.661 396.98 326.505 396.36 326.203 395.886C325.911 395.402 325.437 395.157 324.786 395.157C324.213 395.157 323.755 395.381 323.411 395.823C323.062 396.256 322.89 396.818 322.89 397.511V404.865C322.89 405.464 323.067 405.959 323.432 406.344C323.791 406.735 324.244 406.928 324.786 406.928C325.505 406.928 326 406.709 326.265 406.261C326.526 405.803 326.661 405.277 326.661 404.678V397.74Z" fill="white"/>
<path d="M341.78 410.511V398.49H341.697L337.489 410.511H333.593V391.573H337.176V403.594H337.259L341.447 391.573H345.364V410.511H341.78Z" fill="white"/>
<path d="M348.481 410.511V391.573H352.377L356.21 401.74H356.293L360.127 391.573H364.023V410.511H360.356V399.053H360.293L357.231 407.407H355.273L352.21 399.053H352.148V410.511H348.481Z" fill="white"/>
<path d="M371.18 405.053C371.18 405.652 371.346 406.115 371.68 406.448C372.013 406.771 372.461 406.928 373.034 406.928C373.753 406.928 374.232 406.719 374.471 406.303C374.706 405.876 374.852 405.448 374.909 405.032H378.721C378.721 406.698 378.206 408.042 377.18 409.053C376.68 409.584 376.081 410.001 375.388 410.303C374.69 410.594 373.909 410.74 373.034 410.74C371.836 410.74 370.826 410.49 369.992 409.99C369.159 409.49 368.518 408.834 368.076 408.011C367.794 407.511 367.607 406.943 367.513 406.303C367.414 405.652 367.367 404.938 367.367 404.157V397.928C367.367 397.167 367.414 396.459 367.513 395.803C367.607 395.152 367.794 394.584 368.076 394.094C368.518 393.261 369.159 392.605 369.992 392.115C370.826 391.615 371.836 391.365 373.034 391.365C373.909 391.365 374.701 391.521 375.409 391.823C376.117 392.115 376.721 392.521 377.221 393.032C378.221 394.157 378.721 395.615 378.721 397.407H374.909C374.909 396.631 374.742 396.063 374.409 395.698C374.076 395.339 373.617 395.157 373.034 395.157C372.461 395.157 372.013 395.339 371.68 395.698C371.346 396.063 371.18 396.605 371.18 397.323V405.053Z" fill="white"/>
<path d="M380.944 410.511V391.573H384.757V399.303H386.215C386.783 399.303 387.163 399.11 387.361 398.719C387.569 398.318 387.736 397.818 387.861 397.219L388.257 395.053C388.408 394.485 388.601 393.969 388.84 393.511C389.075 393.053 389.392 392.688 389.799 392.407C390.215 392.105 390.7 391.886 391.257 391.761C391.825 391.636 392.47 391.573 393.194 391.573H393.278V394.948H393.153C392.705 394.948 392.33 395.032 392.028 395.198C391.736 395.355 391.528 395.714 391.403 396.282L391.028 398.386C390.996 398.459 390.965 398.605 390.924 398.823C390.892 399.047 390.83 399.292 390.736 399.553C390.637 399.818 390.507 400.073 390.34 400.323C390.174 400.573 389.965 400.761 389.715 400.886L393.528 410.511H389.653L386.632 402.49H384.757V410.511H380.944Z" fill="white"/>
<path d="M395.052 397.928C395.052 397.167 395.099 396.459 395.198 395.803C395.291 395.152 395.479 394.584 395.76 394.094C396.203 393.261 396.843 392.605 397.677 392.115C398.521 391.615 399.541 391.365 400.739 391.365C401.932 391.365 402.948 391.615 403.781 392.115C404.614 392.605 405.25 393.261 405.698 394.094C405.974 394.584 406.161 395.152 406.26 395.803C406.354 396.459 406.406 397.167 406.406 397.928V404.157C406.406 404.938 406.354 405.652 406.26 406.303C406.161 406.943 405.974 407.511 405.698 408.011C405.25 408.834 404.614 409.49 403.781 409.99C402.948 410.49 401.932 410.74 400.739 410.74C399.541 410.74 398.521 410.49 397.677 409.99C396.843 409.49 396.203 408.834 395.76 408.011C395.479 407.511 395.291 406.943 395.198 406.303C395.099 405.652 395.052 404.938 395.052 404.157V397.928ZM398.864 404.761C398.864 405.485 399.031 406.027 399.364 406.386C399.698 406.751 400.156 406.928 400.739 406.928C401.307 406.928 401.76 406.751 402.093 406.386C402.427 406.027 402.593 405.485 402.593 404.761V397.323C402.593 396.605 402.427 396.063 402.093 395.698C401.76 395.339 401.307 395.157 400.739 395.157C400.156 395.157 399.698 395.339 399.364 395.698C399.031 396.063 398.864 396.605 398.864 397.323V404.761Z" fill="white"/>
<path d="M417.379 410.511V398.49H417.296L413.087 410.511H409.191V391.573H412.775V403.594H412.858L417.046 391.573H420.962V410.511H417.379ZM413.233 384.573C413.259 384.714 413.28 384.896 413.296 385.115C413.306 385.323 413.368 385.532 413.483 385.74C413.592 385.948 413.775 386.131 414.025 386.282C414.275 386.438 414.634 386.511 415.108 386.511C415.577 386.511 415.941 386.438 416.191 386.282C416.441 386.131 416.618 385.948 416.733 385.74C416.842 385.532 416.9 385.323 416.9 385.115C416.91 384.896 416.931 384.714 416.962 384.573H420.15C420.025 385.964 419.566 387.032 418.775 387.782C417.993 388.521 416.775 388.886 415.108 388.886C413.441 388.886 412.212 388.511 411.421 387.761C410.639 387.001 410.191 385.938 410.066 384.573H413.233Z" fill="white"/>
<path d="M431.021 410.511V391.573H435.958C436.708 391.573 437.479 391.652 438.271 391.803C439.062 391.959 439.781 392.303 440.437 392.844C441.031 393.344 441.448 393.938 441.687 394.615C441.922 395.282 442.041 396.011 442.041 396.803C442.041 397.084 442.01 397.402 441.958 397.761C441.916 398.126 441.817 398.49 441.666 398.865C441.51 399.24 441.291 399.61 441 399.969C440.718 400.334 440.343 400.636 439.875 400.886C440.401 401.084 440.823 401.334 441.146 401.636C441.463 401.928 441.713 402.261 441.896 402.636C442.088 403.011 442.213 403.407 442.271 403.823C442.338 404.23 442.375 404.631 442.375 405.032C442.375 405.823 442.271 406.563 442.062 407.24C441.854 407.907 441.5 408.501 441 409.011C440.401 409.636 439.666 410.047 438.791 410.24C437.916 410.422 437.067 410.511 436.25 410.511H431.021ZM434.833 407.344H436.375C436.635 407.344 436.901 407.318 437.166 407.261C437.427 407.193 437.666 407.073 437.875 406.907C438.083 406.73 438.25 406.49 438.375 406.198C438.5 405.896 438.562 405.506 438.562 405.032C438.562 404.256 438.416 403.626 438.125 403.136C437.843 402.652 437.26 402.407 436.375 402.407H434.833V407.344ZM434.833 399.428H436.333C437.093 399.428 437.625 399.193 437.916 398.719C438.218 398.251 438.375 397.61 438.375 396.803C438.375 396.235 438.198 395.756 437.854 395.365C437.505 394.964 437.021 394.761 436.396 394.761H434.833V399.428Z" fill="white"/>
<path d="M452.296 410.511V408.573H452.234C451.734 409.271 451.223 409.803 450.713 410.178C450.197 410.553 449.484 410.74 448.567 410.74C448.119 410.74 447.661 410.667 447.192 410.532C446.734 410.396 446.296 410.136 445.88 409.761C445.447 409.417 445.098 408.917 444.838 408.261C444.588 407.594 444.463 406.74 444.463 405.698C444.463 404.631 444.546 403.693 444.713 402.886C444.89 402.068 445.218 401.386 445.692 400.844C446.135 400.318 446.739 399.928 447.505 399.678C448.281 399.417 449.265 399.282 450.463 399.282H450.88C451.031 399.282 451.171 399.292 451.296 399.303C451.421 399.334 451.567 399.344 451.734 399.344C451.911 399.344 452.098 399.36 452.296 399.386V397.407C452.296 396.756 452.156 396.219 451.88 395.803C451.614 395.376 451.119 395.157 450.4 395.157C449.9 395.157 449.442 395.323 449.025 395.657C448.619 395.98 448.359 396.448 448.234 397.073H444.525C444.635 395.381 445.213 394.011 446.255 392.969C446.755 392.469 447.348 392.084 448.046 391.803C448.739 391.511 449.525 391.365 450.4 391.365C451.192 391.365 451.932 391.49 452.63 391.74C453.322 391.99 453.932 392.36 454.463 392.844C454.963 393.344 455.359 393.969 455.65 394.719C455.952 395.469 456.109 396.339 456.109 397.323V410.511H452.296ZM452.296 402.365C451.88 402.297 451.531 402.261 451.255 402.261C450.432 402.261 449.734 402.459 449.15 402.844C448.567 403.235 448.275 403.938 448.275 404.948C448.275 405.672 448.447 406.256 448.796 406.698C449.14 407.146 449.63 407.365 450.255 407.365C450.89 407.365 451.39 407.157 451.755 406.74C452.114 406.323 452.296 405.73 452.296 404.948V402.365Z" fill="white"/>
<path d="M458.894 410.511V391.573H462.707V399.303H464.165C464.733 399.303 465.113 399.11 465.311 398.719C465.519 398.318 465.686 397.818 465.811 397.219L466.207 395.053C466.358 394.485 466.55 393.969 466.79 393.511C467.024 393.053 467.342 392.688 467.748 392.407C468.165 392.105 468.649 391.886 469.207 391.761C469.774 391.636 470.42 391.573 471.144 391.573H471.227V394.948H471.102C470.654 394.948 470.279 395.032 469.977 395.198C469.686 395.355 469.477 395.714 469.352 396.282L468.977 398.386C468.946 398.459 468.915 398.605 468.873 398.823C468.842 399.047 468.779 399.292 468.686 399.553C468.587 399.818 468.457 400.073 468.29 400.323C468.123 400.573 467.915 400.761 467.665 400.886L471.477 410.511H467.602L464.582 402.49H462.707V410.511H458.894Z" fill="white"/>
<path d="M471.355 410.511L476.022 400.844L471.585 391.573H475.626L477.96 396.969L480.314 391.573H484.355L479.835 400.844L484.585 410.511H480.543L477.96 404.719L475.397 410.511H471.355Z" fill="white"/>
<path d="M492.931 410.511V408.573H492.869C492.369 409.271 491.858 409.803 491.348 410.178C490.832 410.553 490.119 410.74 489.202 410.74C488.754 410.74 488.296 410.667 487.827 410.532C487.369 410.396 486.931 410.136 486.515 409.761C486.082 409.417 485.733 408.917 485.473 408.261C485.223 407.594 485.098 406.74 485.098 405.698C485.098 404.631 485.181 403.693 485.348 402.886C485.525 402.068 485.853 401.386 486.327 400.844C486.77 400.318 487.374 399.928 488.14 399.678C488.916 399.417 489.9 399.282 491.098 399.282H491.515C491.666 399.282 491.806 399.292 491.931 399.303C492.056 399.334 492.202 399.344 492.369 399.344C492.546 399.344 492.733 399.36 492.931 399.386V397.407C492.931 396.756 492.791 396.219 492.515 395.803C492.249 395.376 491.754 395.157 491.035 395.157C490.535 395.157 490.077 395.323 489.66 395.657C489.254 395.98 488.994 396.448 488.869 397.073H485.16C485.27 395.381 485.848 394.011 486.89 392.969C487.39 392.469 487.983 392.084 488.681 391.803C489.374 391.511 490.16 391.365 491.035 391.365C491.827 391.365 492.567 391.49 493.265 391.74C493.957 391.99 494.567 392.36 495.098 392.844C495.598 393.344 495.994 393.969 496.285 394.719C496.587 395.469 496.744 396.339 496.744 397.323V410.511H492.931ZM492.931 402.365C492.515 402.297 492.166 402.261 491.89 402.261C491.067 402.261 490.369 402.459 489.785 402.844C489.202 403.235 488.91 403.938 488.91 404.948C488.91 405.672 489.082 406.256 489.431 406.698C489.775 407.146 490.265 407.365 490.89 407.365C491.525 407.365 492.025 407.157 492.39 406.74C492.749 406.323 492.931 405.73 492.931 404.948V402.365Z" fill="white"/>
<path d="M499.529 410.511V391.573H503.342V399.303H507.196V391.573H510.988V410.511H507.196V402.49H503.342V410.511H499.529Z" fill="white"/>
<path d="M521.327 410.511V408.573H521.265C520.765 409.271 520.255 409.803 519.744 410.178C519.229 410.553 518.515 410.74 517.598 410.74C517.15 410.74 516.692 410.667 516.223 410.532C515.765 410.396 515.327 410.136 514.911 409.761C514.479 409.417 514.13 408.917 513.869 408.261C513.619 407.594 513.494 406.74 513.494 405.698C513.494 404.631 513.577 403.693 513.744 402.886C513.921 402.068 514.249 401.386 514.723 400.844C515.166 400.318 515.77 399.928 516.536 399.678C517.312 399.417 518.296 399.282 519.494 399.282H519.911C520.062 399.282 520.202 399.292 520.327 399.303C520.452 399.334 520.598 399.344 520.765 399.344C520.942 399.344 521.13 399.36 521.327 399.386V397.407C521.327 396.756 521.187 396.219 520.911 395.803C520.645 395.376 520.15 395.157 519.432 395.157C518.932 395.157 518.473 395.323 518.057 395.657C517.65 395.98 517.39 396.448 517.265 397.073H513.557C513.666 395.381 514.244 394.011 515.286 392.969C515.786 392.469 516.38 392.084 517.077 391.803C517.77 391.511 518.557 391.365 519.432 391.365C520.223 391.365 520.963 391.49 521.661 391.74C522.354 391.99 522.963 392.36 523.494 392.844C523.994 393.344 524.39 393.969 524.682 394.719C524.984 395.469 525.14 396.339 525.14 397.323V410.511H521.327ZM521.327 402.365C520.911 402.297 520.562 402.261 520.286 402.261C519.463 402.261 518.765 402.459 518.182 402.844C517.598 403.235 517.307 403.938 517.307 404.948C517.307 405.672 517.479 406.256 517.827 406.698C518.171 407.146 518.661 407.365 519.286 407.365C519.921 407.365 520.421 407.157 520.786 406.74C521.145 406.323 521.327 405.73 521.327 404.948V402.365Z" fill="white"/>
<path d="M526.634 406.928C526.894 406.928 527.165 406.855 527.446 406.698C527.738 406.547 528.035 406.292 528.342 405.928C528.592 405.626 528.785 405.193 528.925 404.636C529.076 404.068 529.186 403.485 529.259 402.886C529.342 402.277 529.394 401.693 529.425 401.136C529.451 400.568 529.467 400.131 529.467 399.823V391.573H539.905V410.511H536.113V394.761H533.05V398.261C533.05 399.136 533.019 400.021 532.967 400.907C532.925 401.782 532.842 402.631 532.717 403.448C532.603 404.256 532.457 405.006 532.28 405.698C532.113 406.396 531.894 406.99 531.634 407.49C531.103 408.464 530.415 409.214 529.571 409.74C528.722 410.256 527.764 410.511 526.696 410.511H526.446V406.928H526.634Z" fill="white"/>
<path d="M551.225 410.511V398.49H551.142L546.933 410.511H543.038V391.573H546.621V403.594H546.704L550.892 391.573H554.808V410.511H551.225Z" fill="white"/>
<path d="M568.947 402.49H561.405V405.053C561.405 405.652 561.572 406.115 561.905 406.448C562.239 406.771 562.697 406.928 563.28 406.928C563.989 406.928 564.457 406.719 564.697 406.303C564.947 405.876 565.093 405.448 565.134 405.032H568.947C568.947 406.698 568.431 408.042 567.405 409.053C566.916 409.584 566.322 410.001 565.614 410.303C564.916 410.594 564.14 410.74 563.28 410.74C562.082 410.74 561.062 410.49 560.218 409.99C559.384 409.49 558.744 408.834 558.301 408.011C558.02 407.511 557.832 406.943 557.739 406.303C557.64 405.652 557.593 404.938 557.593 404.157V397.928C557.593 397.167 557.64 396.459 557.739 395.803C557.832 395.152 558.02 394.584 558.301 394.094C558.744 393.261 559.384 392.605 560.218 392.115C561.062 391.615 562.082 391.365 563.28 391.365C564.14 391.365 564.926 391.521 565.634 391.823C566.343 392.115 566.947 392.521 567.447 393.032C568.447 394.157 568.947 395.568 568.947 397.261V402.49ZM561.405 399.49H565.134V397.323C565.134 396.605 564.968 396.063 564.634 395.698C564.301 395.339 563.848 395.157 563.28 395.157C562.697 395.157 562.239 395.339 561.905 395.698C561.572 396.063 561.405 396.605 561.405 397.323V399.49Z" fill="white"/>
<path d="M579.995 410.511V398.49H579.911L575.703 410.511H571.807V391.573H575.39V403.594H575.474L579.661 391.573H583.578V410.511H579.995ZM575.849 384.573C575.875 384.714 575.896 384.896 575.911 385.115C575.922 385.323 575.984 385.532 576.099 385.74C576.208 385.948 576.39 386.131 576.64 386.282C576.89 386.438 577.25 386.511 577.724 386.511C578.193 386.511 578.557 386.438 578.807 386.282C579.057 386.131 579.234 385.948 579.349 385.74C579.458 385.532 579.515 385.323 579.515 385.115C579.526 384.896 579.547 384.714 579.578 384.573H582.765C582.64 385.964 582.182 387.032 581.39 387.782C580.609 388.521 579.39 388.886 577.724 388.886C576.057 388.886 574.828 388.511 574.036 387.761C573.255 387.001 572.807 385.938 572.682 384.573H575.849Z" fill="white"/>
<path d="M586.658 410.511V406.698H590.471V410.511H586.658Z" fill="white"/>
<path d="M600.805 410.511V383.928H611.41V387.511H604.618V410.511H600.805Z" fill="white"/>
<path d="M609.646 397.928C609.646 397.167 609.693 396.459 609.792 395.803C609.886 395.152 610.073 394.584 610.355 394.094C610.797 393.261 611.438 392.605 612.271 392.115C613.115 391.615 614.136 391.365 615.334 391.365C616.526 391.365 617.542 391.615 618.375 392.115C619.209 392.605 619.844 393.261 620.292 394.094C620.568 394.584 620.756 395.152 620.855 395.803C620.948 396.459 621 397.167 621 397.928V404.157C621 404.938 620.948 405.652 620.855 406.303C620.756 406.943 620.568 407.511 620.292 408.011C619.844 408.834 619.209 409.49 618.375 409.99C617.542 410.49 616.526 410.74 615.334 410.74C614.136 410.74 613.115 410.49 612.271 409.99C611.438 409.49 610.797 408.834 610.355 408.011C610.073 407.511 609.886 406.943 609.792 406.303C609.693 405.652 609.646 404.938 609.646 404.157V397.928ZM613.459 404.761C613.459 405.485 613.625 406.027 613.959 406.386C614.292 406.751 614.75 406.928 615.334 406.928C615.901 406.928 616.355 406.751 616.688 406.386C617.021 406.027 617.188 405.485 617.188 404.761V397.323C617.188 396.605 617.021 396.063 616.688 395.698C616.355 395.339 615.901 395.157 615.334 395.157C614.75 395.157 614.292 395.339 613.959 395.698C613.625 396.063 613.459 396.605 613.459 397.323V404.761Z" fill="white"/>
<path d="M623.749 418.157V391.573H627.561V393.303C628.03 392.751 628.519 392.292 629.019 391.928C629.519 391.553 630.238 391.365 631.186 391.365C632.754 391.365 633.858 391.964 634.499 393.157C634.717 393.573 634.879 394.094 634.978 394.719C635.087 395.344 635.144 396.178 635.144 397.219V404.428C635.144 405.818 635.103 406.823 635.019 407.448C634.879 408.698 634.311 409.631 633.311 410.24C632.811 410.573 632.087 410.74 631.144 410.74C630.394 410.74 629.728 410.573 629.144 410.24C628.561 409.896 628.061 409.417 627.644 408.803H627.561V418.157H623.749ZM631.332 397.74C631.332 396.98 631.176 396.36 630.874 395.886C630.582 395.402 630.108 395.157 629.457 395.157C628.884 395.157 628.426 395.381 628.082 395.823C627.733 396.256 627.561 396.818 627.561 397.511V404.865C627.561 405.464 627.738 405.959 628.103 406.344C628.462 406.735 628.915 406.928 629.457 406.928C630.176 406.928 630.67 406.709 630.936 406.261C631.196 405.803 631.332 405.277 631.332 404.678V397.74Z" fill="white"/>
<path d="M645.472 410.511V408.573H645.41C644.91 409.271 644.399 409.803 643.889 410.178C643.373 410.553 642.66 410.74 641.743 410.74C641.295 410.74 640.837 410.667 640.368 410.532C639.91 410.396 639.472 410.136 639.055 409.761C638.623 409.417 638.274 408.917 638.014 408.261C637.764 407.594 637.639 406.74 637.639 405.698C637.639 404.631 637.722 403.693 637.889 402.886C638.066 402.068 638.394 401.386 638.868 400.844C639.311 400.318 639.915 399.928 640.68 399.678C641.456 399.417 642.441 399.282 643.639 399.282H644.055C644.206 399.282 644.347 399.292 644.472 399.303C644.597 399.334 644.743 399.344 644.91 399.344C645.087 399.344 645.274 399.36 645.472 399.386V397.407C645.472 396.756 645.331 396.219 645.055 395.803C644.79 395.376 644.295 395.157 643.576 395.157C643.076 395.157 642.618 395.323 642.201 395.657C641.795 395.98 641.535 396.448 641.41 397.073H637.701C637.811 395.381 638.389 394.011 639.43 392.969C639.93 392.469 640.524 392.084 641.222 391.803C641.915 391.511 642.701 391.365 643.576 391.365C644.368 391.365 645.107 391.49 645.805 391.74C646.498 391.99 647.107 392.36 647.639 392.844C648.139 393.344 648.535 393.969 648.826 394.719C649.128 395.469 649.285 396.339 649.285 397.323V410.511H645.472ZM645.472 402.365C645.055 402.297 644.706 402.261 644.43 402.261C643.607 402.261 642.91 402.459 642.326 402.844C641.743 403.235 641.451 403.938 641.451 404.948C641.451 405.672 641.623 406.256 641.972 406.698C642.316 407.146 642.805 407.365 643.43 407.365C644.066 407.365 644.566 407.157 644.93 406.74C645.29 406.323 645.472 405.73 645.472 404.948V402.365Z" fill="white"/>
<path d="M652.07 410.511V391.573H655.883V407.344H659.653V391.573H663.466V407.344H665.487V414.24H662.258V410.511H652.07Z" fill="white"/>
<path d="M675.37 410.511V398.49H675.286L671.078 410.511H667.182V391.573H670.765V403.594H670.849L675.036 391.573H678.953V410.511H675.37Z" fill="white"/>
<path d="M690.295 410.511V398.49H690.212L686.004 410.511H682.108V391.573H685.691V403.594H685.775L689.962 391.573H693.879V410.511H690.295ZM686.15 384.573C686.176 384.714 686.196 384.896 686.212 385.115C686.222 385.323 686.285 385.532 686.4 385.74C686.509 385.948 686.691 386.131 686.941 386.282C687.191 386.438 687.551 386.511 688.025 386.511C688.493 386.511 688.858 386.438 689.108 386.282C689.358 386.131 689.535 385.948 689.65 385.74C689.759 385.532 689.816 385.323 689.816 385.115C689.827 384.896 689.847 384.714 689.879 384.573H693.066C692.941 385.964 692.483 387.032 691.691 387.782C690.91 388.521 689.691 388.886 688.025 388.886C686.358 388.886 685.129 388.511 684.337 387.761C683.556 387.001 683.108 385.938 682.983 384.573H686.15Z" fill="white"/>
<path d="M703.937 410.511V391.573H715.333V410.511H711.52V394.761H707.749V410.511H703.937Z" fill="white"/>
<path d="M717.932 397.928C717.932 397.167 717.979 396.459 718.078 395.803C718.172 395.152 718.359 394.584 718.64 394.094C719.083 393.261 719.724 392.605 720.557 392.115C721.401 391.615 722.422 391.365 723.62 391.365C724.812 391.365 725.828 391.615 726.661 392.115C727.495 392.605 728.13 393.261 728.578 394.094C728.854 394.584 729.042 395.152 729.14 395.803C729.234 396.459 729.286 397.167 729.286 397.928V404.157C729.286 404.938 729.234 405.652 729.14 406.303C729.042 406.943 728.854 407.511 728.578 408.011C728.13 408.834 727.495 409.49 726.661 409.99C725.828 410.49 724.812 410.74 723.62 410.74C722.422 410.74 721.401 410.49 720.557 409.99C719.724 409.49 719.083 408.834 718.64 408.011C718.359 407.511 718.172 406.943 718.078 406.303C717.979 405.652 717.932 404.938 717.932 404.157V397.928ZM721.745 404.761C721.745 405.485 721.911 406.027 722.245 406.386C722.578 406.751 723.036 406.928 723.62 406.928C724.187 406.928 724.64 406.751 724.974 406.386C725.307 406.027 725.474 405.485 725.474 404.761V397.323C725.474 396.605 725.307 396.063 724.974 395.698C724.64 395.339 724.187 395.157 723.62 395.157C723.036 395.157 722.578 395.339 722.245 395.698C721.911 396.063 721.745 396.605 721.745 397.323V404.761Z" fill="white"/>
<path d="M732.072 410.511V391.573H735.968L739.801 401.74H739.884L743.718 391.573H747.613V410.511H743.947V399.053H743.884L740.822 407.407H738.863L735.801 399.053H735.738V410.511H732.072Z" fill="white"/>
<path d="M751.748 397.781C751.899 397.046 752.086 396.364 752.31 395.739C752.545 395.114 752.842 394.593 753.206 394.176C753.8 393.442 754.56 392.921 755.477 392.614C756.404 392.312 757.456 392.275 758.623 392.51C759.789 392.749 760.732 393.192 761.456 393.843C762.175 394.484 762.67 395.26 762.935 396.176C763.112 396.708 763.185 397.301 763.144 397.968C763.112 398.635 763.024 399.338 762.873 400.072L761.602 406.176C761.446 406.942 761.253 407.629 761.019 408.239C760.795 408.853 760.498 409.374 760.123 409.801C759.524 410.51 758.769 411.02 757.852 411.343C756.935 411.676 755.894 411.723 754.727 411.489C753.56 411.249 752.607 410.801 751.873 410.135C751.149 409.468 750.654 408.692 750.394 407.801C750.227 407.26 750.154 406.666 750.185 406.01C750.227 405.359 750.321 404.65 750.477 403.885L751.748 397.781ZM754.102 405.26C753.946 405.968 753.998 406.531 754.248 406.947C754.508 407.364 754.925 407.635 755.498 407.76C756.05 407.874 756.524 407.791 756.914 407.51C757.315 407.218 757.592 406.718 757.748 406.01L759.248 398.718C759.383 398.01 759.321 397.447 759.06 397.031C758.81 396.603 758.404 396.333 757.852 396.218C757.279 396.093 756.795 396.176 756.394 396.468C756.003 396.76 755.737 397.26 755.602 397.968L754.102 405.26Z" fill="white"/>
<path d="M777.691 400.745L780.732 402.995L776.149 409.204L777.274 410.037C777.732 410.37 778.154 410.448 778.545 410.266C778.946 410.073 779.336 409.803 779.711 409.454L781.128 408.183C781.571 407.782 782.092 407.422 782.691 407.099C783.3 406.782 783.92 406.636 784.545 406.662C785.138 406.693 785.638 406.818 786.045 407.037C786.446 407.261 786.862 407.532 787.295 407.849L787.357 407.891L785.357 410.599L785.316 410.579C785.024 410.36 784.701 410.224 784.357 410.183C784.024 410.131 783.612 410.329 783.128 410.787L781.691 412.162C781.618 412.204 781.503 412.297 781.336 412.454C781.18 412.62 780.982 412.771 780.732 412.912C780.493 413.063 780.237 413.193 779.961 413.308C779.696 413.417 779.425 413.443 779.149 413.391L776.003 423.037L772.899 420.745L775.691 412.829L774.253 411.766L769.482 418.224L766.441 415.974L771.211 409.516L769.774 408.454L763.045 413.454L759.92 411.162L768.232 405.308C768.076 405.058 768.008 404.787 768.024 404.495C768.034 404.193 768.086 403.907 768.17 403.641C768.263 403.381 768.362 403.152 768.461 402.954C768.571 402.745 768.633 402.61 768.649 402.537L769.545 400.745C769.836 400.152 769.909 399.698 769.774 399.391C769.633 399.089 769.409 398.823 769.107 398.599L769.066 398.558L771.066 395.849L771.128 395.912C771.555 396.219 771.93 396.547 772.253 396.891C772.586 397.224 772.862 397.662 773.086 398.204C773.336 398.818 773.383 399.448 773.232 400.099C773.076 400.756 772.883 401.36 772.649 401.912L771.836 403.641C771.628 404.099 771.482 404.547 771.399 404.974C771.326 405.407 771.524 405.787 771.982 406.12L773.107 406.954L777.691 400.745Z" fill="white"/>
<path d="M786.926 429.171L783.134 422.65L780.905 423.942C780.389 424.244 780.077 424.619 779.967 425.067C779.853 425.525 779.946 426.004 780.238 426.504C780.598 427.114 781.014 427.421 781.488 427.421C781.973 427.421 782.41 427.338 782.801 427.171L784.717 430.463C783.285 431.296 781.868 431.525 780.467 431.15C779.769 430.994 779.113 430.692 778.488 430.234C777.874 429.775 777.353 429.176 776.926 428.442C776.327 427.411 776.035 426.405 776.051 425.421C776.061 424.431 776.311 423.546 776.801 422.754C777.092 422.254 777.488 421.806 777.988 421.4C778.499 420.999 779.098 420.598 779.78 420.192L785.155 417.067C785.806 416.681 786.436 416.369 787.051 416.129C787.676 415.879 788.264 415.749 788.821 415.734C789.764 415.708 790.66 415.937 791.509 416.421C792.353 416.895 793.077 417.645 793.676 418.671C794.103 419.411 794.368 420.166 794.467 420.942C794.577 421.708 794.535 422.431 794.342 423.129C793.868 424.546 792.905 425.681 791.446 426.546L786.926 429.171ZM785.717 421.15L787.592 424.379L789.467 423.275C790.092 422.911 790.473 422.494 790.613 422.025C790.764 421.556 790.696 421.077 790.405 420.588C790.113 420.088 789.723 419.786 789.238 419.671C788.764 419.562 788.217 419.687 787.592 420.046L785.717 421.15Z" fill="white"/>
<path d="M780.745 439.28L794.495 432.01L792.745 428.718L795.745 427.135L801.015 437.093L798.015 438.676L796.265 435.385L782.515 442.655L780.745 439.28Z" fill="white"/>
<path d="M783.078 451.07L786.578 452.59L785.057 456.09L781.557 454.57L783.078 451.07Z" fill="white"/>
<path d="M795.875 481.997L789.563 477.559C789.229 477.32 788.677 476.913 787.917 476.33C787.167 475.757 786.344 475.101 785.458 474.351C784.583 473.611 783.74 472.84 782.938 472.038C782.13 471.231 781.526 470.465 781.125 469.747C780.448 468.538 780.073 467.34 780 466.163C779.917 464.981 780.26 463.851 781.021 462.767L781.146 462.601L784.271 464.788C783.865 465.424 783.708 466.028 783.792 466.601C783.875 467.184 784.089 467.757 784.438 468.33C784.714 468.814 785.115 469.33 785.646 469.872C786.188 470.413 786.776 470.955 787.417 471.497C788.068 472.049 788.755 472.59 789.479 473.122C790.198 473.663 790.901 474.168 791.583 474.642L800.667 481.059L794.292 490.101L772.562 474.788L774.75 471.663L793.729 485.038L795.875 481.997Z" fill="white"/>
<path d="M767.449 488.398L773.928 484.543L772.616 482.335C772.314 481.819 771.939 481.507 771.491 481.398C771.033 481.283 770.553 481.382 770.053 481.689C769.444 482.049 769.147 482.471 769.158 482.96C769.158 483.444 769.251 483.877 769.428 484.252L766.158 486.21C765.298 484.778 765.053 483.361 765.428 481.96C765.569 481.252 765.861 480.59 766.303 479.981C766.751 479.382 767.345 478.861 768.095 478.418C769.126 477.804 770.131 477.491 771.116 477.481C772.09 477.481 772.97 477.721 773.762 478.21C774.262 478.486 774.71 478.877 775.116 479.377C775.533 479.887 775.939 480.481 776.345 481.148L779.533 486.502C779.918 487.153 780.241 487.783 780.491 488.398C780.741 489.007 780.871 489.596 780.887 490.168C780.939 491.111 780.73 492.007 780.262 492.856C779.788 493.715 779.038 494.45 778.012 495.064C777.262 495.507 776.501 495.778 775.741 495.877C774.991 495.986 774.267 495.944 773.574 495.752C772.147 495.293 770.991 494.34 770.116 492.898L767.449 488.398ZM775.47 487.127L772.262 489.023L773.366 490.877C773.73 491.502 774.147 491.882 774.616 492.023C775.085 492.158 775.574 492.085 776.074 491.793C776.574 491.486 776.871 491.096 776.97 490.627C777.064 490.153 776.934 489.606 776.574 488.981L775.47 487.127Z" fill="white"/>
<path d="M765.487 493.843C765.638 494.593 765.737 495.291 765.779 495.947C765.831 496.614 765.769 497.208 765.592 497.739C765.326 498.64 764.831 499.416 764.112 500.072C763.394 500.739 762.446 501.197 761.279 501.447C760.112 501.697 759.071 501.661 758.154 501.343C757.237 501.036 756.477 500.531 755.862 499.822C755.503 499.406 755.206 498.885 754.967 498.26C754.732 497.645 754.54 496.968 754.383 496.218L753.071 490.114C752.92 489.364 752.821 488.661 752.779 488.01C752.737 487.353 752.8 486.749 752.967 486.197C753.248 485.307 753.737 484.531 754.446 483.864C755.154 483.197 756.092 482.739 757.258 482.489C758.425 482.239 759.477 482.27 760.404 482.593C761.336 482.911 762.102 483.416 762.696 484.114C763.071 484.557 763.378 485.083 763.612 485.697C763.836 486.307 764.024 486.989 764.175 487.739L765.487 493.843ZM760.321 487.947C760.185 487.239 759.915 486.739 759.508 486.447C759.107 486.166 758.623 486.093 758.05 486.218C757.498 486.343 757.092 486.614 756.842 487.031C756.592 487.458 756.54 488.031 756.675 488.739L758.237 496.01C758.378 496.718 758.649 497.208 759.05 497.489C759.456 497.781 759.935 497.864 760.487 497.739C761.06 497.614 761.467 497.333 761.717 496.906C761.967 496.489 762.024 495.926 761.883 495.218L760.321 487.947Z" fill="white"/>
<path d="M750.269 483.704V502.641H746.456V494.912H742.602V502.641H738.81V483.704H742.602V491.724H746.456V483.704H750.269Z" fill="white"/>
<path d="M728.47 483.704V485.641H728.533C729.033 484.943 729.543 484.412 730.054 484.037C730.569 483.662 731.283 483.474 732.2 483.474C732.648 483.474 733.106 483.547 733.575 483.683C734.033 483.818 734.47 484.079 734.887 484.454C735.319 484.797 735.668 485.297 735.929 485.954C736.179 486.62 736.304 487.474 736.304 488.516C736.304 489.584 736.22 490.521 736.054 491.329C735.877 492.146 735.549 492.829 735.075 493.37C734.632 493.896 734.028 494.287 733.262 494.537C732.486 494.797 731.502 494.933 730.304 494.933H729.887C729.736 494.933 729.595 494.922 729.47 494.912C729.345 494.881 729.2 494.87 729.033 494.87C728.856 494.87 728.668 494.855 728.47 494.829V496.808C728.47 497.459 728.611 497.995 728.887 498.412C729.153 498.839 729.648 499.058 730.366 499.058C730.866 499.058 731.325 498.891 731.741 498.558C732.148 498.235 732.408 497.766 732.533 497.141H736.241C736.132 498.834 735.554 500.204 734.512 501.245C734.012 501.745 733.418 502.131 732.72 502.412C732.028 502.704 731.241 502.849 730.366 502.849C729.575 502.849 728.835 502.724 728.137 502.474C727.444 502.224 726.835 501.855 726.304 501.37C725.804 500.87 725.408 500.245 725.116 499.495C724.814 498.745 724.658 497.875 724.658 496.891V483.704H728.47ZM728.47 491.849C728.887 491.917 729.236 491.954 729.512 491.954C730.335 491.954 731.033 491.756 731.616 491.37C732.2 490.98 732.491 490.277 732.491 489.266C732.491 488.542 732.319 487.959 731.97 487.516C731.627 487.068 731.137 486.849 730.512 486.849C729.877 486.849 729.377 487.058 729.012 487.474C728.653 487.891 728.47 488.485 728.47 489.266V491.849Z" fill="white"/>
<path d="M721.872 476.058V502.641H718.06V500.912C717.591 501.464 717.102 501.922 716.602 502.287C716.102 502.662 715.383 502.849 714.435 502.849C712.867 502.849 711.763 502.251 711.122 501.058C710.904 500.641 710.742 500.12 710.643 499.495C710.534 498.87 710.477 498.037 710.477 496.995V489.787C710.477 488.396 710.518 487.391 710.602 486.766C710.742 485.516 711.31 484.584 712.31 483.974C712.81 483.641 713.534 483.474 714.477 483.474C715.227 483.474 715.893 483.641 716.477 483.974C717.06 484.318 717.56 484.797 717.977 485.412H718.06V476.058H721.872ZM714.289 496.474C714.289 497.235 714.445 497.855 714.747 498.329C715.039 498.813 715.513 499.058 716.164 499.058C716.737 499.058 717.195 498.834 717.539 498.391C717.888 497.959 718.06 497.396 718.06 496.704V489.349C718.06 488.751 717.883 488.256 717.518 487.87C717.159 487.48 716.706 487.287 716.164 487.287C715.445 487.287 714.951 487.506 714.685 487.954C714.424 488.412 714.289 488.938 714.289 489.537V496.474Z" fill="white"/>
<path d="M706.001 483.704V479.974H709.21V486.87H707.501C707.225 487.396 706.98 488.089 706.772 488.954C706.564 489.829 706.397 490.75 706.272 491.724C706.178 492.527 706.116 493.349 706.085 494.183C706.059 495.027 706.043 495.808 706.043 496.516V502.641H695.585V486.87H693.793V479.974H697.001V483.704H706.001ZM702.46 499.454V496.62C702.46 496.297 702.475 495.902 702.501 495.433C702.533 494.974 702.564 494.5 702.605 494.016C702.637 493.542 702.668 493.068 702.71 492.599C702.741 492.141 702.783 491.75 702.835 491.433C702.934 490.777 703.095 490.006 703.314 489.12C703.522 488.245 703.762 487.495 704.022 486.87H699.397V499.454H702.46Z" fill="white"/>
<path d="M692.392 496.287C692.392 497.047 692.345 497.756 692.246 498.412C692.152 499.063 691.965 499.631 691.683 500.12C691.241 500.954 690.6 501.61 689.767 502.099C688.923 502.599 687.902 502.849 686.704 502.849C685.512 502.849 684.496 502.599 683.663 502.099C682.829 501.61 682.194 500.954 681.746 500.12C681.47 499.631 681.282 499.063 681.183 498.412C681.09 497.756 681.038 497.047 681.038 496.287V490.058C681.038 489.277 681.09 488.563 681.183 487.912C681.282 487.271 681.47 486.704 681.746 486.204C682.194 485.381 682.829 484.724 683.663 484.224C684.496 483.724 685.512 483.474 686.704 483.474C687.902 483.474 688.923 483.724 689.767 484.224C690.6 484.724 691.241 485.381 691.683 486.204C691.965 486.704 692.152 487.271 692.246 487.912C692.345 488.563 692.392 489.277 692.392 490.058V496.287ZM688.579 489.454C688.579 488.73 688.413 488.188 688.079 487.829C687.746 487.464 687.288 487.287 686.704 487.287C686.137 487.287 685.683 487.464 685.35 487.829C685.017 488.188 684.85 488.73 684.85 489.454V496.891C684.85 497.61 685.017 498.152 685.35 498.516C685.683 498.875 686.137 499.058 686.704 499.058C687.288 499.058 687.746 498.875 688.079 498.516C688.413 498.152 688.579 497.61 688.579 496.891V489.454Z" fill="white"/>
<path d="M671.312 483.704V502.641H667.499V494.912H663.645V502.641H659.853V483.704H663.645V491.724H667.499V483.704H671.312Z" fill="white"/>
<path d="M649.513 483.704V485.641H649.576C650.076 484.943 650.586 484.412 651.097 484.037C651.612 483.662 652.326 483.474 653.243 483.474C653.691 483.474 654.149 483.547 654.618 483.683C655.076 483.818 655.513 484.079 655.93 484.454C656.362 484.797 656.711 485.297 656.972 485.954C657.222 486.62 657.347 487.474 657.347 488.516C657.347 489.584 657.263 490.521 657.097 491.329C656.92 492.146 656.592 492.829 656.118 493.37C655.675 493.896 655.071 494.287 654.305 494.537C653.529 494.797 652.545 494.933 651.347 494.933H650.93C650.779 494.933 650.638 494.922 650.513 494.912C650.388 494.881 650.243 494.87 650.076 494.87C649.899 494.87 649.711 494.855 649.513 494.829V496.808C649.513 497.459 649.654 497.995 649.93 498.412C650.196 498.839 650.691 499.058 651.409 499.058C651.909 499.058 652.368 498.891 652.784 498.558C653.191 498.235 653.451 497.766 653.576 497.141H657.284C657.175 498.834 656.597 500.204 655.555 501.245C655.055 501.745 654.461 502.131 653.763 502.412C653.071 502.704 652.284 502.849 651.409 502.849C650.618 502.849 649.878 502.724 649.18 502.474C648.487 502.224 647.878 501.855 647.347 501.37C646.847 500.87 646.451 500.245 646.159 499.495C645.857 498.745 645.701 497.875 645.701 496.891V483.704H649.513ZM649.513 491.849C649.93 491.917 650.279 491.954 650.555 491.954C651.378 491.954 652.076 491.756 652.659 491.37C653.243 490.98 653.534 490.277 653.534 489.266C653.534 488.542 653.362 487.959 653.013 487.516C652.67 487.068 652.18 486.849 651.555 486.849C650.92 486.849 650.42 487.058 650.055 487.474C649.696 487.891 649.513 488.485 649.513 489.266V491.849Z" fill="white"/>
<path d="M631.933 489.162C631.933 488.563 631.767 488.099 631.433 487.766C631.1 487.443 630.652 487.287 630.079 487.287C629.36 487.287 628.881 487.495 628.642 487.912C628.407 488.339 628.261 488.766 628.204 489.183H624.392C624.392 487.516 624.907 486.172 625.933 485.162C626.433 484.631 627.032 484.214 627.725 483.912C628.423 483.62 629.204 483.474 630.079 483.474C631.277 483.474 632.287 483.724 633.121 484.224C633.954 484.724 634.595 485.381 635.037 486.204C635.319 486.704 635.506 487.271 635.6 487.912C635.699 488.563 635.746 489.277 635.746 490.058V496.287C635.746 497.047 635.699 497.756 635.6 498.412C635.506 499.063 635.319 499.631 635.037 500.12C634.595 500.954 633.954 501.61 633.121 502.099C632.287 502.599 631.277 502.849 630.079 502.849C629.204 502.849 628.412 502.693 627.704 502.391C626.996 502.099 626.392 501.693 625.892 501.183C624.892 500.058 624.392 498.599 624.392 496.808H628.204C628.204 497.584 628.371 498.152 628.704 498.516C629.037 498.875 629.496 499.058 630.079 499.058C630.652 499.058 631.1 498.875 631.433 498.516C631.767 498.152 631.933 497.61 631.933 496.891V489.162Z" fill="white"/>
<path d="M622.169 483.704V502.641H617.231C616.481 502.641 615.711 502.563 614.919 502.412C614.127 502.256 613.408 501.912 612.752 501.37C612.158 500.87 611.742 500.277 611.502 499.599C611.268 498.933 611.148 498.204 611.148 497.412C611.148 497.131 611.179 496.813 611.231 496.454C611.273 496.089 611.372 495.724 611.523 495.349C611.679 494.974 611.898 494.605 612.19 494.245C612.471 493.881 612.846 493.579 613.315 493.329C612.789 493.131 612.367 492.881 612.044 492.579C611.726 492.287 611.476 491.954 611.294 491.579C611.101 491.204 610.976 490.808 610.919 490.391C610.851 489.985 610.815 489.584 610.815 489.183C610.815 488.391 610.919 487.652 611.127 486.974C611.336 486.308 611.69 485.714 612.19 485.204C612.789 484.579 613.523 484.167 614.398 483.974C615.273 483.792 616.122 483.704 616.94 483.704H622.169ZM618.356 486.87H616.815C616.554 486.87 616.289 486.896 616.023 486.954C615.763 487.021 615.523 487.141 615.315 487.308C615.106 487.485 614.94 487.724 614.815 488.016C614.69 488.318 614.627 488.709 614.627 489.183C614.627 489.959 614.773 490.589 615.065 491.079C615.346 491.563 615.929 491.808 616.815 491.808H618.356V486.87ZM618.356 494.787H616.856C616.096 494.787 615.565 495.021 615.273 495.495C614.971 495.964 614.815 496.605 614.815 497.412C614.815 497.98 614.992 498.459 615.336 498.849C615.684 499.25 616.169 499.454 616.794 499.454H618.356V494.787Z" fill="white"/>
<path d="M601.122 483.704V491.245H602.747L605.143 483.704H609.039L606.185 491.808C606.768 492.058 607.226 492.402 607.56 492.849C607.893 493.292 608.143 493.766 608.31 494.266C608.466 494.766 608.56 495.25 608.601 495.724C608.643 496.193 608.664 496.568 608.664 496.849C608.664 497.641 608.528 498.474 608.247 499.349C607.971 500.224 607.513 500.917 606.872 501.433C606.221 501.985 605.528 502.329 604.789 502.454C604.054 502.579 603.32 502.641 602.58 502.641H597.31V483.704H601.122ZM601.122 499.454H602.976C603.726 499.454 604.226 499.172 604.476 498.62C604.726 498.079 604.851 497.438 604.851 496.704C604.851 495.079 604.153 494.266 602.747 494.266H601.122V499.454Z" fill="white"/>
<path d="M595.037 497.329C594.985 498.079 594.819 498.777 594.537 499.433C594.246 500.099 593.86 500.683 593.371 501.183C592.886 501.693 592.308 502.099 591.641 502.391C590.964 502.693 590.225 502.849 589.433 502.849C588.641 502.849 587.881 502.714 587.141 502.454C586.407 502.204 585.777 501.829 585.246 501.329C584.761 500.855 584.371 500.287 584.079 499.62C583.787 498.964 583.641 498.23 583.641 497.412C583.641 497.131 583.673 496.813 583.725 496.454C583.782 496.089 583.891 495.724 584.058 495.349C584.214 494.974 584.449 494.605 584.766 494.245C585.074 493.881 585.485 493.579 585.996 493.329C585.454 493.131 585.006 492.881 584.641 492.579C584.282 492.287 584.011 491.954 583.829 491.579C583.636 491.204 583.506 490.808 583.433 490.391C583.35 489.985 583.308 489.584 583.308 489.183C583.308 488.417 583.433 487.724 583.683 487.099C583.933 486.474 584.308 485.891 584.808 485.349C585.35 484.75 586.016 484.287 586.808 483.954C587.589 483.636 588.444 483.474 589.371 483.474C591.136 483.474 592.569 484.058 593.662 485.224C594.636 486.277 595.157 487.599 595.225 489.183H591.641C591.589 488.516 591.381 487.995 591.016 487.62C590.657 487.245 590.115 487.058 589.391 487.058C588.756 487.058 588.24 487.25 587.85 487.641C587.464 488.027 587.266 488.599 587.266 489.349C587.266 490.068 587.428 490.646 587.746 491.079C588.053 491.506 588.615 491.724 589.433 491.724H590.621V494.912H589.579C588.845 494.912 588.308 495.089 587.975 495.454C587.631 495.829 587.454 496.438 587.454 497.287C587.454 497.839 587.631 498.308 587.975 498.683C588.324 499.068 588.808 499.266 589.433 499.266C589.933 499.266 590.386 499.12 590.787 498.829C591.178 498.547 591.402 498.047 591.454 497.329H595.037Z" fill="white"/>
<path d="M572.301 483.704V495.724H572.385L576.593 483.704H580.489V502.641H576.906V490.62H576.822L572.635 502.641H568.718V483.704H572.301Z" fill="white"/>
<path d="M565.6 483.704V487.516H561.788V483.704H565.6Z" fill="white"/>
<path d="M543.803 492.995L545.657 502.641H545.74L547.615 492.995H543.803ZM553.199 483.704L547.261 510.287H544.094L538.157 483.704H541.969L543.094 489.412H548.282L549.407 483.704H553.199Z" fill="white"/>
<path d="M537.451 487.287C537.191 487.287 536.92 487.36 536.639 487.516C536.347 487.667 536.05 487.922 535.743 488.287C535.493 488.589 535.3 489.021 535.159 489.579C535.008 490.146 534.899 490.73 534.826 491.329C534.743 491.938 534.691 492.521 534.659 493.079C534.633 493.646 534.618 494.084 534.618 494.391V502.641H524.18V483.704H527.972V499.454H531.034V495.954C531.034 495.079 531.066 494.193 531.118 493.308C531.159 492.433 531.243 491.584 531.368 490.766C531.482 489.959 531.628 489.209 531.805 488.516C531.972 487.818 532.191 487.224 532.451 486.724C532.982 485.75 533.67 485 534.514 484.474C535.362 483.959 536.321 483.704 537.389 483.704H537.639V487.287H537.451Z" fill="white"/>
<path d="M522.339 487.287C522.078 487.287 521.807 487.36 521.526 487.516C521.235 487.667 520.938 487.922 520.63 488.287C520.38 488.589 520.188 489.021 520.047 489.579C519.896 490.146 519.787 490.73 519.714 491.329C519.63 491.938 519.578 492.521 519.547 493.079C519.521 493.646 519.505 494.084 519.505 494.391V502.641H509.068V483.704H512.86V499.454H515.922V495.954C515.922 495.079 515.953 494.193 516.005 493.308C516.047 492.433 516.13 491.584 516.255 490.766C516.37 489.959 516.516 489.209 516.693 488.516C516.86 487.818 517.078 487.224 517.339 486.724C517.87 485.75 518.557 485 519.401 484.474C520.25 483.959 521.208 483.704 522.276 483.704H522.526V487.287H522.339Z" fill="white"/>
<path d="M506.268 496.287C506.268 497.047 506.221 497.756 506.122 498.412C506.029 499.063 505.841 499.631 505.56 500.12C505.117 500.954 504.477 501.61 503.643 502.099C502.799 502.599 501.779 502.849 500.581 502.849C499.388 502.849 498.372 502.599 497.539 502.099C496.706 501.61 496.07 500.954 495.622 500.12C495.346 499.631 495.159 499.063 495.06 498.412C494.966 497.756 494.914 497.047 494.914 496.287V490.058C494.914 489.277 494.966 488.563 495.06 487.912C495.159 487.271 495.346 486.704 495.622 486.204C496.07 485.381 496.706 484.724 497.539 484.224C498.372 483.724 499.388 483.474 500.581 483.474C501.779 483.474 502.799 483.724 503.643 484.224C504.477 484.724 505.117 485.381 505.56 486.204C505.841 486.704 506.029 487.271 506.122 487.912C506.221 488.563 506.268 489.277 506.268 490.058V496.287ZM502.456 489.454C502.456 488.73 502.289 488.188 501.956 487.829C501.622 487.464 501.164 487.287 500.581 487.287C500.013 487.287 499.56 487.464 499.227 487.829C498.893 488.188 498.727 488.73 498.727 489.454V496.891C498.727 497.61 498.893 498.152 499.227 498.516C499.56 498.875 500.013 499.058 500.581 499.058C501.164 499.058 501.622 498.875 501.956 498.516C502.289 498.152 502.456 497.61 502.456 496.891V489.454Z" fill="white"/>
<path d="M492.504 502.641V504.829C492.504 505.605 492.358 506.339 492.066 507.037C491.764 507.73 491.347 508.339 490.816 508.87C490.29 509.37 489.681 509.766 488.983 510.058C488.29 510.36 487.545 510.516 486.754 510.516C485.827 510.516 484.983 510.329 484.233 509.954C483.472 509.579 482.837 509.058 482.337 508.391C482.087 508.027 481.889 507.704 481.733 507.412C481.566 507.131 481.436 506.818 481.337 506.474C481.16 505.849 481.066 504.964 481.066 503.829C481.066 503.172 481.077 502.631 481.087 502.204C481.103 501.771 481.139 501.391 481.191 501.058C481.233 500.735 481.295 500.459 481.379 500.224C481.452 499.985 481.545 499.771 481.67 499.579L484.254 495.162C484.42 494.87 484.566 494.563 484.691 494.245C484.816 493.938 484.879 493.61 484.879 493.266V490.266H488.691V493.745C488.691 494.287 488.608 494.808 488.441 495.308C488.264 495.808 488.035 496.292 487.754 496.766L485.358 500.662C485.165 500.98 485.04 501.329 484.983 501.704C484.915 502.079 484.879 502.454 484.879 502.829V504.787C484.879 505.313 485.061 505.766 485.42 506.141C485.785 506.516 486.228 506.704 486.754 506.704C487.202 506.704 487.639 506.537 488.066 506.204C488.483 505.881 488.691 505.412 488.691 504.787V502.641H492.504ZM488.691 483.704V487.516H484.879V483.704H488.691Z" fill="white"/>
<path d="M459.049 491.287V489.641C459.049 488.818 459.21 488.042 459.528 487.308C459.835 486.568 460.267 485.917 460.819 485.349C461.361 484.777 462.002 484.318 462.736 483.974C463.476 483.641 464.267 483.474 465.111 483.474C465.835 483.474 466.569 483.573 467.319 483.766C468.059 483.974 468.726 484.329 469.319 484.829C469.918 485.329 470.413 485.964 470.799 486.745C471.189 487.521 471.382 488.521 471.382 489.745V504.391C471.382 505.25 471.236 506.058 470.944 506.808C470.642 507.558 470.21 508.204 469.653 508.745C469.111 509.297 468.465 509.73 467.715 510.037C466.955 510.355 466.106 510.516 465.174 510.516C463.382 510.516 461.934 509.922 460.819 508.745C460.267 508.172 459.835 507.495 459.528 506.704C459.21 505.922 459.049 505.079 459.049 504.162V502.662H462.861V503.933C462.861 504.683 463.08 505.329 463.507 505.87C463.924 506.422 464.497 506.704 465.215 506.704C466.163 506.704 466.793 506.412 467.111 505.829C467.418 505.245 467.569 504.5 467.569 503.599V490.016C467.569 489.235 467.403 488.584 467.069 488.058C466.736 487.542 466.132 487.287 465.257 487.287C465.007 487.287 464.747 487.329 464.465 487.412C464.174 487.506 463.903 487.652 463.653 487.849C463.434 488.042 463.247 488.313 463.09 488.662C462.939 489.006 462.861 489.443 462.861 489.974V491.287H459.049Z" fill="white"/>
<path d="M456.158 483.704V502.641H451.22C450.47 502.641 449.7 502.563 448.908 502.412C448.116 502.256 447.397 501.912 446.741 501.37C446.147 500.87 445.731 500.277 445.491 499.599C445.257 498.933 445.137 498.204 445.137 497.412C445.137 497.131 445.168 496.813 445.22 496.454C445.262 496.089 445.361 495.724 445.512 495.349C445.668 494.974 445.887 494.605 446.179 494.245C446.46 493.881 446.835 493.579 447.304 493.329C446.778 493.131 446.356 492.881 446.033 492.579C445.715 492.287 445.465 491.954 445.283 491.579C445.09 491.204 444.965 490.808 444.908 490.391C444.84 489.985 444.804 489.584 444.804 489.183C444.804 488.391 444.908 487.652 445.116 486.974C445.325 486.308 445.679 485.714 446.179 485.204C446.778 484.579 447.512 484.167 448.387 483.974C449.262 483.792 450.111 483.704 450.929 483.704H456.158ZM452.345 486.87H450.804C450.543 486.87 450.278 486.896 450.012 486.954C449.752 487.021 449.512 487.141 449.304 487.308C449.095 487.485 448.929 487.724 448.804 488.016C448.679 488.318 448.616 488.709 448.616 489.183C448.616 489.959 448.762 490.589 449.054 491.079C449.335 491.563 449.918 491.808 450.804 491.808H452.345V486.87ZM452.345 494.787H450.845C450.085 494.787 449.554 495.021 449.262 495.495C448.96 495.964 448.804 496.605 448.804 497.412C448.804 497.98 448.981 498.459 449.325 498.849C449.674 499.25 450.158 499.454 450.783 499.454H452.345V494.787Z" fill="white"/>
<path d="M435.111 483.704V491.245H436.736L439.132 483.704H443.028L440.173 491.808C440.757 492.058 441.215 492.402 441.548 492.849C441.882 493.292 442.132 493.766 442.298 494.266C442.455 494.766 442.548 495.25 442.59 495.724C442.632 496.193 442.653 496.568 442.653 496.849C442.653 497.641 442.517 498.474 442.236 499.349C441.96 500.224 441.501 500.917 440.861 501.433C440.21 501.985 439.517 502.329 438.778 502.454C438.043 502.579 437.309 502.641 436.569 502.641H431.298V483.704H435.111ZM435.111 499.454H436.965C437.715 499.454 438.215 499.172 438.465 498.62C438.715 498.079 438.84 497.438 438.84 496.704C438.84 495.079 438.142 494.266 436.736 494.266H435.111V499.454Z" fill="white"/>
<path d="M421.214 502.641H417.422V494.912H416.026C415.458 494.912 415.078 495.105 414.88 495.495C414.672 495.896 414.521 496.349 414.422 496.849L414.047 498.704C413.922 499.287 413.714 499.881 413.422 500.495C413.12 501.12 412.708 501.605 412.193 501.954C411.693 502.287 411.214 502.48 410.755 502.537C410.297 502.605 409.807 502.641 409.276 502.641H409.193V499.266H409.235C409.61 499.266 409.953 499.183 410.255 499.016C410.547 498.86 410.755 498.459 410.88 497.808L411.214 495.829C411.245 495.756 411.276 495.61 411.318 495.391C411.349 495.167 411.417 494.922 411.526 494.662C411.625 494.396 411.755 494.141 411.922 493.891C412.078 493.641 412.276 493.454 412.526 493.329L409.318 483.704H413.193L415.63 491.724H417.422V483.704H421.214V491.724H423.005L425.443 483.704H429.318L426.11 493.329C426.391 493.454 426.61 493.641 426.776 493.891C426.932 494.141 427.057 494.396 427.151 494.662C427.235 494.922 427.297 495.167 427.339 495.391C427.37 495.61 427.396 495.756 427.422 495.829L427.755 497.808C427.88 498.459 428.099 498.86 428.401 499.016C428.693 499.183 429.026 499.266 429.401 499.266H429.443V502.641H429.36C428.833 502.641 428.339 502.599 427.88 502.516C427.422 502.443 426.943 502.256 426.443 501.954C425.875 501.605 425.458 501.12 425.193 500.495C424.917 499.881 424.714 499.287 424.589 498.704L424.214 496.849C424.12 496.349 423.974 495.896 423.776 495.495C423.568 495.105 423.182 494.912 422.61 494.912H421.214V502.641Z" fill="white"/>
<path d="M399.163 483.704V495.724H399.246L403.455 483.704H407.35V502.641H403.767V490.62H403.684L399.496 502.641H395.58V483.704H399.163Z" fill="white"/>
<path d="M390.296 483.704V499.266H394.025V502.641H382.754V499.266H386.483V483.704H390.296Z" fill="white"/>
<path d="M370.172 491.724H377.714V489.162C377.714 488.563 377.547 488.099 377.214 487.766C376.881 487.443 376.422 487.287 375.839 487.287C375.131 487.287 374.662 487.495 374.422 487.912C374.172 488.339 374.027 488.766 373.985 489.183H370.172C370.172 487.516 370.688 486.172 371.714 485.162C372.204 484.631 372.797 484.214 373.506 483.912C374.204 483.62 374.98 483.474 375.839 483.474C377.037 483.474 378.058 483.724 378.902 484.224C379.735 484.724 380.375 485.381 380.818 486.204C381.099 486.704 381.287 487.271 381.381 487.912C381.48 488.563 381.527 489.277 381.527 490.058V496.287C381.527 497.047 381.48 497.756 381.381 498.412C381.287 499.063 381.099 499.631 380.818 500.12C380.375 500.954 379.735 501.61 378.902 502.099C378.058 502.599 377.037 502.849 375.839 502.849C374.98 502.849 374.193 502.693 373.485 502.391C372.777 502.099 372.172 501.693 371.672 501.183C370.672 500.058 370.172 498.646 370.172 496.954V491.724ZM377.714 494.724H373.985V496.891C373.985 497.61 374.152 498.152 374.485 498.516C374.818 498.875 375.271 499.058 375.839 499.058C376.422 499.058 376.881 498.875 377.214 498.516C377.547 498.152 377.714 497.61 377.714 496.891V494.724Z" fill="white"/>
<path d="M356.405 489.162C356.405 488.563 356.238 488.099 355.905 487.766C355.572 487.443 355.124 487.287 354.551 487.287C353.832 487.287 353.353 487.495 353.113 487.912C352.879 488.339 352.733 488.766 352.676 489.183H348.863C348.863 487.516 349.379 486.172 350.405 485.162C350.905 484.631 351.504 484.214 352.197 483.912C352.895 483.62 353.676 483.474 354.551 483.474C355.749 483.474 356.759 483.724 357.592 484.224C358.426 484.724 359.066 485.381 359.509 486.204C359.79 486.704 359.978 487.271 360.072 487.912C360.171 488.563 360.217 489.277 360.217 490.058V496.287C360.217 497.047 360.171 497.756 360.072 498.412C359.978 499.063 359.79 499.631 359.509 500.12C359.066 500.954 358.426 501.61 357.592 502.099C356.759 502.599 355.749 502.849 354.551 502.849C353.676 502.849 352.884 502.693 352.176 502.391C351.467 502.099 350.863 501.693 350.363 501.183C349.363 500.058 348.863 498.599 348.863 496.808H352.676C352.676 497.584 352.842 498.152 353.176 498.516C353.509 498.875 353.967 499.058 354.551 499.058C355.124 499.058 355.572 498.875 355.905 498.516C356.238 498.152 356.405 497.61 356.405 496.891V489.162Z" fill="white"/>
<path d="M339.7 476.058V502.641H335.887V500.912C335.418 501.464 334.929 501.922 334.429 502.287C333.929 502.662 333.21 502.849 332.262 502.849C330.694 502.849 329.59 502.251 328.95 501.058C328.731 500.641 328.569 500.12 328.47 499.495C328.361 498.87 328.304 498.037 328.304 496.995V489.787C328.304 488.396 328.345 487.391 328.429 486.766C328.569 485.516 329.137 484.584 330.137 483.974C330.637 483.641 331.361 483.474 332.304 483.474C333.054 483.474 333.72 483.641 334.304 483.974C334.887 484.318 335.387 484.797 335.804 485.412H335.887V476.058H339.7ZM332.116 496.474C332.116 497.235 332.272 497.855 332.575 498.329C332.866 498.813 333.34 499.058 333.991 499.058C334.564 499.058 335.022 498.834 335.366 498.391C335.715 497.959 335.887 497.396 335.887 496.704V489.349C335.887 488.751 335.71 488.256 335.345 487.87C334.986 487.48 334.533 487.287 333.991 487.287C333.272 487.287 332.778 487.506 332.512 487.954C332.252 488.412 332.116 488.938 332.116 489.537V496.474Z" fill="white"/>
<path d="M316.997 483.704V495.724H317.08L321.289 483.704H325.184V502.641H321.601V490.62H321.518L317.33 502.641H313.414V483.704H316.997Z" fill="white"/>
<path d="M310.259 483.704V502.641H306.363L302.53 492.474H302.446L298.613 502.641H294.717V483.704H298.384V495.162H298.446L301.509 486.808H303.467L306.53 495.162H306.592V483.704H310.259Z" fill="white"/>
<path d="M287.597 489.162C287.597 488.563 287.431 488.099 287.097 487.766C286.764 487.443 286.316 487.287 285.743 487.287C285.024 487.287 284.545 487.495 284.306 487.912C284.071 488.339 283.925 488.766 283.868 489.183H280.056C280.056 487.516 280.571 486.172 281.597 485.162C282.097 484.631 282.696 484.214 283.389 483.912C284.087 483.62 284.868 483.474 285.743 483.474C286.941 483.474 287.951 483.724 288.785 484.224C289.618 484.724 290.259 485.381 290.701 486.204C290.983 486.704 291.17 487.271 291.264 487.912C291.363 488.563 291.41 489.277 291.41 490.058V496.287C291.41 497.047 291.363 497.756 291.264 498.412C291.17 499.063 290.983 499.631 290.701 500.12C290.259 500.954 289.618 501.61 288.785 502.099C287.951 502.599 286.941 502.849 285.743 502.849C284.868 502.849 284.076 502.693 283.368 502.391C282.66 502.099 282.056 501.693 281.556 501.183C280.556 500.058 280.056 498.599 280.056 496.808H283.868C283.868 497.584 284.035 498.152 284.368 498.516C284.701 498.875 285.16 499.058 285.743 499.058C286.316 499.058 286.764 498.875 287.097 498.516C287.431 498.152 287.597 497.61 287.597 496.891V489.162Z" fill="white"/>
<path d="M277.833 483.704V502.641H274.02V494.912H272.562C271.994 494.912 271.614 495.105 271.416 495.495C271.208 495.896 271.041 496.396 270.916 496.995L270.52 499.162C270.369 499.73 270.177 500.245 269.937 500.704C269.703 501.162 269.385 501.527 268.979 501.808C268.562 502.11 268.078 502.329 267.52 502.454C266.953 502.579 266.307 502.641 265.583 502.641H265.5V499.266H265.625C266.072 499.266 266.447 499.183 266.75 499.016C267.041 498.86 267.25 498.5 267.375 497.933L267.75 495.829C267.781 495.756 267.812 495.61 267.854 495.391C267.885 495.167 267.947 494.922 268.041 494.662C268.14 494.396 268.27 494.141 268.437 493.891C268.604 493.641 268.812 493.454 269.062 493.329L265.25 483.704H269.125L272.145 491.724H274.02V483.704H277.833Z" fill="white"/>
<path d="M263.725 496.287C263.725 497.047 263.678 497.756 263.579 498.412C263.486 499.063 263.298 499.631 263.017 500.12C262.574 500.954 261.934 501.61 261.1 502.099C260.257 502.599 259.236 502.849 258.038 502.849C256.845 502.849 255.829 502.599 254.996 502.099C254.163 501.61 253.527 500.954 253.079 500.12C252.803 499.631 252.616 499.063 252.517 498.412C252.423 497.756 252.371 497.047 252.371 496.287V490.058C252.371 489.277 252.423 488.563 252.517 487.912C252.616 487.271 252.803 486.704 253.079 486.204C253.527 485.381 254.163 484.724 254.996 484.224C255.829 483.724 256.845 483.474 258.038 483.474C259.236 483.474 260.257 483.724 261.1 484.224C261.934 484.724 262.574 485.381 263.017 486.204C263.298 486.704 263.486 487.271 263.579 487.912C263.678 488.563 263.725 489.277 263.725 490.058V496.287ZM259.913 489.454C259.913 488.73 259.746 488.188 259.413 487.829C259.079 487.464 258.621 487.287 258.038 487.287C257.47 487.287 257.017 487.464 256.684 487.829C256.35 488.188 256.184 488.73 256.184 489.454V496.891C256.184 497.61 256.35 498.152 256.684 498.516C257.017 498.875 257.47 499.058 258.038 499.058C258.621 499.058 259.079 498.875 259.413 498.516C259.746 498.152 259.913 497.61 259.913 496.891V489.454Z" fill="white"/>
<path d="M241.398 483.704V495.724H241.482L245.69 483.704H249.586V502.641H246.002V490.62H245.919L241.732 502.641H237.815V483.704H241.398ZM245.544 509.641C245.518 509.5 245.497 509.318 245.482 509.099C245.471 508.891 245.409 508.683 245.294 508.474C245.185 508.266 245.002 508.084 244.752 507.933C244.502 507.777 244.143 507.704 243.669 507.704C243.2 507.704 242.836 507.777 242.586 507.933C242.336 508.084 242.159 508.266 242.044 508.474C241.935 508.683 241.877 508.891 241.877 509.099C241.867 509.318 241.846 509.5 241.815 509.641H238.627C238.752 508.25 239.211 507.183 240.002 506.433C240.784 505.693 242.002 505.329 243.669 505.329C245.336 505.329 246.565 505.704 247.357 506.454C248.138 507.214 248.586 508.277 248.711 509.641H245.544Z" fill="white"/>
<path d="M227.72 483.704V502.641H222.782C222.032 502.641 221.262 502.563 220.47 502.412C219.678 502.256 218.959 501.912 218.303 501.37C217.709 500.87 217.293 500.277 217.053 499.599C216.819 498.933 216.699 498.204 216.699 497.412C216.699 497.131 216.73 496.813 216.782 496.454C216.824 496.089 216.923 495.724 217.074 495.349C217.23 494.974 217.449 494.605 217.741 494.245C218.022 493.881 218.397 493.579 218.866 493.329C218.34 493.131 217.918 492.881 217.595 492.579C217.277 492.287 217.027 491.954 216.845 491.579C216.652 491.204 216.527 490.808 216.47 490.391C216.402 489.985 216.366 489.584 216.366 489.183C216.366 488.391 216.47 487.652 216.678 486.974C216.887 486.308 217.241 485.714 217.741 485.204C218.34 484.579 219.074 484.167 219.949 483.974C220.824 483.792 221.673 483.704 222.491 483.704H227.72ZM223.907 486.87H222.366C222.105 486.87 221.84 486.896 221.574 486.954C221.314 487.021 221.074 487.141 220.866 487.308C220.657 487.485 220.491 487.724 220.366 488.016C220.241 488.318 220.178 488.709 220.178 489.183C220.178 489.959 220.324 490.589 220.616 491.079C220.897 491.563 221.48 491.808 222.366 491.808H223.907V486.87ZM223.907 494.787H222.407C221.647 494.787 221.116 495.021 220.824 495.495C220.522 495.964 220.366 496.605 220.366 497.412C220.366 497.98 220.543 498.459 220.887 498.849C221.236 499.25 221.72 499.454 222.345 499.454H223.907V494.787Z" fill="white"/>
<path d="M206.444 483.704V485.641H206.506C207.006 484.943 207.517 484.412 208.027 484.037C208.543 483.662 209.256 483.474 210.173 483.474C210.621 483.474 211.079 483.547 211.548 483.683C212.006 483.818 212.444 484.079 212.861 484.454C213.293 484.797 213.642 485.297 213.902 485.954C214.152 486.62 214.277 487.474 214.277 488.516C214.277 489.584 214.194 490.521 214.027 491.329C213.85 492.146 213.522 492.829 213.048 493.37C212.605 493.896 212.001 494.287 211.236 494.537C210.459 494.797 209.475 494.933 208.277 494.933H207.861C207.709 494.933 207.569 494.922 207.444 494.912C207.319 494.881 207.173 494.87 207.006 494.87C206.829 494.87 206.642 494.855 206.444 494.829V496.808C206.444 497.459 206.584 497.995 206.861 498.412C207.126 498.839 207.621 499.058 208.34 499.058C208.84 499.058 209.298 498.891 209.715 498.558C210.121 498.235 210.381 497.766 210.506 497.141H214.215C214.105 498.834 213.527 500.204 212.486 501.245C211.986 501.745 211.392 502.131 210.694 502.412C210.001 502.704 209.215 502.849 208.34 502.849C207.548 502.849 206.808 502.724 206.111 502.474C205.418 502.224 204.808 501.855 204.277 501.37C203.777 500.87 203.381 500.245 203.09 499.495C202.788 498.745 202.631 497.875 202.631 496.891V483.704H206.444ZM206.444 491.849C206.861 491.917 207.209 491.954 207.486 491.954C208.308 491.954 209.006 491.756 209.59 491.37C210.173 490.98 210.465 490.277 210.465 489.266C210.465 488.542 210.293 487.959 209.944 487.516C209.6 487.068 209.111 486.849 208.486 486.849C207.85 486.849 207.35 487.058 206.986 487.474C206.626 487.891 206.444 488.485 206.444 489.266V491.849Z" fill="white"/>
<path d="M199.846 483.704V502.641H196.034V494.912H194.575C194.007 494.912 193.627 495.105 193.429 495.495C193.221 495.896 193.054 496.396 192.929 496.995L192.534 499.162C192.382 499.73 192.19 500.245 191.95 500.704C191.716 501.162 191.398 501.527 190.992 501.808C190.575 502.11 190.091 502.329 189.534 502.454C188.966 502.579 188.32 502.641 187.596 502.641H187.513V499.266H187.638C188.086 499.266 188.461 499.183 188.763 499.016C189.054 498.86 189.263 498.5 189.388 497.933L189.763 495.829C189.794 495.756 189.825 495.61 189.867 495.391C189.898 495.167 189.961 494.922 190.054 494.662C190.153 494.396 190.284 494.141 190.45 493.891C190.617 493.641 190.825 493.454 191.075 493.329L187.263 483.704H191.138L194.159 491.724H196.034V483.704H199.846Z" fill="white"/>
<path d="M187.384 483.704L182.718 493.37L187.155 502.641H183.114L180.78 497.245L178.426 502.641H174.384L178.905 493.37L174.155 483.704H178.197L180.78 489.495L183.343 483.704H187.384Z" fill="white"/>
<path d="M165.809 483.704V485.641H165.871C166.371 484.943 166.882 484.412 167.392 484.037C167.908 483.662 168.621 483.474 169.538 483.474C169.986 483.474 170.444 483.547 170.913 483.683C171.371 483.818 171.809 484.079 172.225 484.454C172.658 484.797 173.007 485.297 173.267 485.954C173.517 486.62 173.642 487.474 173.642 488.516C173.642 489.584 173.559 490.521 173.392 491.329C173.215 492.146 172.887 492.829 172.413 493.37C171.97 493.896 171.366 494.287 170.6 494.537C169.824 494.797 168.84 494.933 167.642 494.933H167.225C167.074 494.933 166.934 494.922 166.809 494.912C166.684 494.881 166.538 494.87 166.371 494.87C166.194 494.87 166.007 494.855 165.809 494.829V496.808C165.809 497.459 165.949 497.995 166.225 498.412C166.491 498.839 166.986 499.058 167.704 499.058C168.204 499.058 168.663 498.891 169.079 498.558C169.486 498.235 169.746 497.766 169.871 497.141H173.579C173.47 498.834 172.892 500.204 171.85 501.245C171.35 501.745 170.757 502.131 170.059 502.412C169.366 502.704 168.579 502.849 167.704 502.849C166.913 502.849 166.173 502.724 165.475 502.474C164.783 502.224 164.173 501.855 163.642 501.37C163.142 500.87 162.746 500.245 162.454 499.495C162.152 498.745 161.996 497.875 161.996 496.891V483.704H165.809ZM165.809 491.849C166.225 491.917 166.574 491.954 166.85 491.954C167.673 491.954 168.371 491.756 168.954 491.37C169.538 490.98 169.829 490.277 169.829 489.266C169.829 488.542 169.658 487.959 169.309 487.516C168.965 487.068 168.475 486.849 167.85 486.849C167.215 486.849 166.715 487.058 166.35 487.474C165.991 487.891 165.809 488.485 165.809 489.266V491.849Z" fill="white"/>
<path d="M159.211 483.704V502.641H155.398V494.912H151.544V502.641H147.752V483.704H151.544V491.724H155.398V483.704H159.211Z" fill="white"/>
<path d="M137.413 483.704V485.641H137.475C137.975 484.943 138.486 484.412 138.996 484.037C139.512 483.662 140.225 483.474 141.142 483.474C141.59 483.474 142.048 483.547 142.517 483.683C142.975 483.818 143.413 484.079 143.829 484.454C144.262 484.797 144.611 485.297 144.871 485.954C145.121 486.62 145.246 487.474 145.246 488.516C145.246 489.584 145.163 490.521 144.996 491.329C144.819 492.146 144.491 492.829 144.017 493.37C143.574 493.896 142.97 494.287 142.204 494.537C141.428 494.797 140.444 494.933 139.246 494.933H138.829C138.678 494.933 138.538 494.922 138.413 494.912C138.288 494.881 138.142 494.87 137.975 494.87C137.798 494.87 137.611 494.855 137.413 494.829V496.808C137.413 497.459 137.553 497.995 137.829 498.412C138.095 498.839 138.59 499.058 139.308 499.058C139.808 499.058 140.267 498.891 140.683 498.558C141.09 498.235 141.35 497.766 141.475 497.141H145.183C145.074 498.834 144.496 500.204 143.454 501.245C142.954 501.745 142.361 502.131 141.663 502.412C140.97 502.704 140.183 502.849 139.308 502.849C138.517 502.849 137.777 502.724 137.079 502.474C136.387 502.224 135.777 501.855 135.246 501.37C134.746 500.87 134.35 500.245 134.058 499.495C133.756 498.745 133.6 497.875 133.6 496.891V483.704H137.413ZM137.413 491.849C137.829 491.917 138.178 491.954 138.454 491.954C139.277 491.954 139.975 491.756 140.558 491.37C141.142 490.98 141.433 490.277 141.433 489.266C141.433 488.542 141.262 487.959 140.913 487.516C140.569 487.068 140.079 486.849 139.454 486.849C138.819 486.849 138.319 487.058 137.954 487.474C137.595 487.891 137.413 488.485 137.413 489.266V491.849Z" fill="white"/>
<path d="M132.106 487.287C131.846 487.287 131.575 487.36 131.294 487.516C131.002 487.667 130.705 487.922 130.398 488.287C130.148 488.589 129.955 489.021 129.815 489.579C129.664 490.146 129.554 490.73 129.481 491.329C129.398 491.938 129.346 492.521 129.315 493.079C129.289 493.646 129.273 494.084 129.273 494.391V502.641H118.835V483.704H122.627V499.454H125.69V495.954C125.69 495.079 125.721 494.193 125.773 493.308C125.815 492.433 125.898 491.584 126.023 490.766C126.138 489.959 126.283 489.209 126.46 488.516C126.627 487.818 126.846 487.224 127.106 486.724C127.638 485.75 128.325 485 129.169 484.474C130.018 483.959 130.976 483.704 132.044 483.704H132.294V487.287H132.106Z" fill="white"/>
<path d="M107.515 483.704V495.724H107.598L111.807 483.704H115.702V502.641H112.119V490.62H112.036L107.848 502.641H103.932V483.704H107.515Z" fill="white"/>
<path d="M89.793 491.724H97.3346V489.162C97.3346 488.563 97.168 488.099 96.8346 487.766C96.5013 487.443 96.043 487.287 95.4596 487.287C94.7513 487.287 94.2826 487.495 94.043 487.912C93.793 488.339 93.6471 488.766 93.6055 489.183H89.793C89.793 487.516 90.3086 486.172 91.3346 485.162C91.8242 484.631 92.418 484.214 93.1263 483.912C93.8242 483.62 94.6003 483.474 95.4596 483.474C96.6576 483.474 97.6784 483.724 98.5221 484.224C99.3555 484.724 99.9961 485.381 100.439 486.204C100.72 486.704 100.908 487.271 101.001 487.912C101.1 488.563 101.147 489.277 101.147 490.058V496.287C101.147 497.047 101.1 497.756 101.001 498.412C100.908 499.063 100.72 499.631 100.439 500.12C99.9961 500.954 99.3555 501.61 98.5221 502.099C97.6784 502.599 96.6576 502.849 95.4596 502.849C94.6003 502.849 93.8138 502.693 93.1055 502.391C92.3971 502.099 91.793 501.693 91.293 501.183C90.293 500.058 89.793 498.646 89.793 496.954V491.724ZM97.3346 494.724H93.6055V496.891C93.6055 497.61 93.7721 498.152 94.1055 498.516C94.4388 498.875 94.8919 499.058 95.4596 499.058C96.043 499.058 96.5013 498.875 96.8346 498.516C97.168 498.152 97.3346 497.61 97.3346 496.891V494.724Z" fill="white"/>
<path d="M78.8201 483.704V495.724H78.9035L83.1118 483.704H87.0077V502.641H83.4243V490.62H83.341L79.1535 502.641H75.2368V483.704H78.8201ZM82.966 509.641C82.9399 509.5 82.9191 509.318 82.9035 509.099C82.8931 508.891 82.8306 508.683 82.716 508.474C82.6066 508.266 82.4243 508.084 82.1743 507.933C81.9243 507.777 81.5649 507.704 81.091 507.704C80.6222 507.704 80.2576 507.777 80.0076 507.933C79.7576 508.084 79.5806 508.266 79.466 508.474C79.3566 508.683 79.2993 508.891 79.2993 509.099C79.2889 509.318 79.2681 509.5 79.2368 509.641H76.0493C76.1743 508.25 76.6326 507.183 77.4243 506.433C78.2056 505.693 79.4243 505.329 81.091 505.329C82.7576 505.329 83.9868 505.704 84.7785 506.454C85.5597 507.214 86.0077 508.277 86.1327 509.641H82.966Z" fill="white"/>
<path d="M72.1191 483.704V487.516H68.3066V483.704H72.1191Z" fill="white"/>
<path d="M58.009 483.704V510.287H47.4048V506.704H54.1965V483.704H58.009Z" fill="white"/>
<path d="M49.1686 496.287C49.1686 497.047 49.1217 497.756 49.0228 498.412C48.929 499.063 48.7415 499.631 48.4603 500.12C48.0176 500.954 47.377 501.61 46.5436 502.099C45.6999 502.599 44.679 502.849 43.4811 502.849C42.2884 502.849 41.2728 502.599 40.4395 502.099C39.6061 501.61 38.9707 500.954 38.5228 500.12C38.2467 499.631 38.0592 499.063 37.9603 498.412C37.8665 497.756 37.8145 497.047 37.8145 496.287V490.058C37.8145 489.277 37.8665 488.563 37.9603 487.912C38.0592 487.271 38.2467 486.704 38.5228 486.204C38.9707 485.381 39.6061 484.724 40.4395 484.224C41.2728 483.724 42.2884 483.474 43.4811 483.474C44.679 483.474 45.6999 483.724 46.5436 484.224C47.377 484.724 48.0176 485.381 48.4603 486.204C48.7415 486.704 48.929 487.271 49.0228 487.912C49.1217 488.563 49.1686 489.277 49.1686 490.058V496.287ZM45.3561 489.454C45.3561 488.73 45.1895 488.188 44.8561 487.829C44.5228 487.464 44.0645 487.287 43.4811 487.287C42.9134 487.287 42.4603 487.464 42.127 487.829C41.7936 488.188 41.627 488.73 41.627 489.454V496.891C41.627 497.61 41.7936 498.152 42.127 498.516C42.4603 498.875 42.9134 499.058 43.4811 499.058C44.0645 499.058 44.5228 498.875 44.8561 498.516C45.1895 498.152 45.3561 497.61 45.3561 496.891V489.454Z" fill="white"/>
<path d="M35.0286 476.058V502.641H31.2161V500.912C30.7474 501.464 30.2578 501.922 29.7578 502.287C29.2578 502.662 28.5391 502.849 27.5911 502.849C26.0234 502.849 24.9193 502.251 24.2786 501.058C24.0599 500.641 23.8984 500.12 23.7995 499.495C23.6901 498.87 23.6328 498.037 23.6328 496.995V489.787C23.6328 488.396 23.6745 487.391 23.7578 486.766C23.8984 485.516 24.4661 484.584 25.4661 483.974C25.9661 483.641 26.6901 483.474 27.6328 483.474C28.3828 483.474 29.0495 483.641 29.6328 483.974C30.2161 484.318 30.7161 484.797 31.1328 485.412H31.2161V476.058H35.0286ZM27.4453 496.474C27.4453 497.235 27.6016 497.855 27.9036 498.329C28.1953 498.813 28.6693 499.058 29.3203 499.058C29.8932 499.058 30.3516 498.834 30.6953 498.391C31.0443 497.959 31.2161 497.396 31.2161 496.704V489.349C31.2161 488.751 31.0391 488.256 30.6745 487.87C30.3151 487.48 29.862 487.287 29.3203 487.287C28.6016 487.287 28.1068 487.506 27.8411 487.954C27.5807 488.412 27.4453 488.938 27.4453 489.537V496.474Z" fill="white"/>
<path d="M13.2681 483.704V485.641H13.3306C13.8306 484.943 14.341 484.412 14.8514 484.037C15.367 483.662 16.0806 483.474 16.9972 483.474C17.4452 483.474 17.9035 483.547 18.3722 483.683C18.8306 483.818 19.2681 484.079 19.6847 484.454C20.117 484.797 20.466 485.297 20.7264 485.954C20.9764 486.62 21.1014 487.474 21.1014 488.516C21.1014 489.584 21.0181 490.521 20.8514 491.329C20.6743 492.146 20.3462 492.829 19.8722 493.37C19.4295 493.896 18.8254 494.287 18.0597 494.537C17.2837 494.797 16.2993 494.933 15.1014 494.933H14.6847C14.5337 494.933 14.3931 494.922 14.2681 494.912C14.1431 494.881 13.9972 494.87 13.8306 494.87C13.6535 494.87 13.466 494.855 13.2681 494.829V496.808C13.2681 497.459 13.4087 497.995 13.6847 498.412C13.9504 498.839 14.4452 499.058 15.1639 499.058C15.6639 499.058 16.1222 498.891 16.5389 498.558C16.9452 498.235 17.2056 497.766 17.3306 497.141H21.0389C20.9295 498.834 20.3514 500.204 19.3097 501.245C18.8097 501.745 18.216 502.131 17.5181 502.412C16.8254 502.704 16.0389 502.849 15.1639 502.849C14.3722 502.849 13.6326 502.724 12.9347 502.474C12.242 502.224 11.6326 501.855 11.1014 501.37C10.6014 500.87 10.2056 500.245 9.9139 499.495C9.61182 498.745 9.45557 497.875 9.45557 496.891V483.704H13.2681ZM13.2681 491.849C13.6847 491.917 14.0337 491.954 14.3097 491.954C15.1326 491.954 15.8306 491.756 16.4139 491.37C16.9972 490.98 17.2889 490.277 17.2889 489.266C17.2889 488.542 17.117 487.959 16.7681 487.516C16.4243 487.068 15.9347 486.849 15.3097 486.849C14.6743 486.849 14.1743 487.058 13.8097 487.474C13.4504 487.891 13.2681 488.485 13.2681 489.266V491.849Z" fill="white"/>
</g>
<defs>
<filter id="filter0_i_549_375736" x="0.0629883" y="24.1829" width="822.489" height="502.26" filterUnits="userSpaceOnUse" color-interpolation-filters="sRGB">
<feFlood flood-opacity="0" result="BackgroundImageFix"/>
<feBlend mode="normal" in="SourceGraphic" in2="BackgroundImageFix" result="shape"/>
<feColorMatrix in="SourceAlpha" type="matrix" values="0 0 0 0 0 0 0 0 0 0 0 0 0 0 0 0 0 0 127 0" result="hardAlpha"/>
<feOffset dx="9" dy="13"/>
<feGaussianBlur stdDeviation="3.8"/>
<feComposite in2="hardAlpha" operator="arithmetic" k2="-1" k3="1"/>
<feColorMatrix type="matrix" values="0 0 0 0 0 0 0 0 0 0 0 0 0 0 0 0 0 0 0.25 0"/>
<feBlend mode="normal" in2="shape" result="effect1_innerShadow_549_375736"/>
</filter>
<clipPath id="clip0_549_375736">
<rect width="865.333" height="543.023" fill="white" transform="translate(0.666504)"/>
</clipPath>
</defs>
</svg>
