<svg width="866" height="544" viewBox="0 0 866 544" fill="none" xmlns="http://www.w3.org/2000/svg">
<g clip-path="url(#clip0_549_376064)">
<rect width="865.333" height="543.023" transform="translate(0.333008)" fill="white"/>
<mask id="mask0_549_376064" style="mask-type:luminance" maskUnits="userSpaceOnUse" x="0" y="0" width="866" height="544">
<path d="M0.333008 0H865.666V543.021H0.333008V0Z" fill="white"/>
</mask>
<g mask="url(#mask0_549_376064)">
<path d="M0.333008 543.021H865.666V0H0.333008V543.021Z" fill="#FC6649"/>
<g filter="url(#filter0_i_549_376064)">
<path d="M0.333008 51.9896H746.869C768.932 51.9896 786.812 69.8698 786.812 91.9323V100.198C786.812 122.255 768.932 140.141 746.869 140.141H67.4788C45.4216 140.141 27.5361 158.021 27.5361 180.083C27.5361 202.146 45.4216 220.026 67.4788 220.026H746.869C768.932 220.026 786.812 237.911 786.812 259.969V270.99C786.812 293.052 768.932 310.932 746.869 310.932H67.4788C45.4216 310.932 27.5361 328.818 27.5361 350.875V361.896C27.5361 383.958 45.4216 401.844 67.4788 401.844H746.869C768.932 401.844 786.812 419.724 786.812 441.786V451.089C786.812 473.151 768.932 491.036 746.869 491.036H0.333008" stroke="#0202E0" stroke-width="55.6133" stroke-miterlimit="10"/>
</g>
</g>
<path d="M784.294 467.971L782.877 467.137C782.169 466.705 781.58 466.169 781.107 465.533C780.638 464.892 780.304 464.184 780.107 463.408C779.898 462.658 779.836 461.877 779.919 461.075C780.002 460.267 780.263 459.497 780.69 458.762C781.065 458.148 781.523 457.575 782.065 457.033C782.607 456.502 783.247 456.116 783.982 455.866C784.721 455.601 785.523 455.497 786.398 455.554C787.273 455.606 788.232 455.95 789.273 456.575L801.877 464.054C802.612 464.497 803.221 465.038 803.711 465.679C804.211 466.314 804.544 467.017 804.711 467.783C804.919 468.517 804.966 469.288 804.857 470.096C804.742 470.913 804.45 471.726 803.982 472.533C803.065 474.075 801.804 475.017 800.211 475.366C799.429 475.559 798.627 475.585 797.794 475.45C796.961 475.309 796.148 475.002 795.357 474.533L794.065 473.783L796.023 470.512L797.127 471.158C797.763 471.533 798.424 471.679 799.107 471.596C799.799 471.523 800.336 471.179 800.711 470.554C801.179 469.747 801.242 469.059 800.898 468.491C800.565 467.919 800.008 467.408 799.232 466.95L787.565 460.012C786.883 459.606 786.237 459.413 785.627 459.429C785.013 459.455 784.492 459.846 784.044 460.596C783.909 460.814 783.804 461.064 783.732 461.346C783.664 461.637 783.648 461.939 783.69 462.262C783.747 462.554 783.888 462.851 784.107 463.158C784.33 463.46 784.669 463.752 785.127 464.033L786.252 464.7L784.294 467.971Z" fill="white"/>
<path d="M778.574 467.679L793.116 479.804L789.949 483.596C789.475 484.163 788.928 484.705 788.303 485.221C787.678 485.731 786.939 486.064 786.095 486.221C785.345 486.356 784.626 486.304 783.949 486.054C783.282 485.804 782.642 485.418 782.032 484.908C781.824 484.741 781.595 484.517 781.345 484.241C781.105 483.96 780.892 483.648 780.699 483.304C780.517 482.955 780.376 482.554 780.282 482.096C780.183 481.637 780.189 481.148 780.303 480.637C779.803 480.913 779.34 481.075 778.907 481.116C778.48 481.168 778.064 481.148 777.657 481.054C777.256 480.971 776.876 480.814 776.512 480.596C776.152 480.387 775.819 480.148 775.512 479.887C774.902 479.387 774.407 478.835 774.032 478.241C773.647 477.658 773.407 477.002 773.324 476.283C773.241 475.418 773.407 474.596 773.824 473.804C774.23 473.023 774.694 472.314 775.22 471.679L778.574 467.679ZM778.574 472.616L777.574 473.804C777.407 474.012 777.272 474.231 777.157 474.471C777.032 474.721 776.97 474.976 776.97 475.241C776.97 475.517 777.048 475.804 777.199 476.096C777.34 476.387 777.59 476.679 777.949 476.971C778.548 477.471 779.126 477.762 779.678 477.846C780.23 477.939 780.793 477.648 781.366 476.971L782.366 475.783L778.574 472.616ZM784.657 477.7L783.699 478.846C783.199 479.439 783.032 480.002 783.199 480.533C783.376 481.059 783.772 481.58 784.387 482.096C784.829 482.471 785.314 482.642 785.845 482.616C786.371 482.601 786.834 482.356 787.241 481.887L788.241 480.679L784.657 477.7Z" fill="white"/>
<path d="M765.138 480.088L768.68 486.754L770.118 486.004L768.68 478.213L772.138 476.379L773.43 484.879C774.055 484.822 774.618 484.911 775.118 485.15C775.618 485.385 776.055 485.681 776.43 486.046C776.805 486.405 777.123 486.786 777.388 487.192C777.649 487.609 777.847 487.931 777.972 488.171C778.347 488.879 778.607 489.676 778.763 490.567C778.93 491.468 778.852 492.296 778.534 493.046C778.211 493.848 777.763 494.484 777.18 494.942C776.597 495.4 775.977 495.801 775.326 496.15L770.659 498.609L761.763 481.879L765.138 480.088ZM772.534 494.004L774.18 493.15C774.831 492.786 775.138 492.301 775.097 491.692C775.066 491.093 774.878 490.468 774.534 489.817C773.769 488.385 772.769 488.004 771.534 488.671L770.097 489.421L772.534 494.004Z" fill="white"/>
<path d="M756.166 502.073L752.395 502.469L751.582 494.782L750.207 494.928C749.64 494.98 749.28 495.219 749.124 495.636C748.957 496.053 748.853 496.516 748.812 497.032L748.624 498.907C748.572 499.501 748.426 500.12 748.187 500.761C747.952 501.396 747.598 501.917 747.124 502.323C746.666 502.709 746.218 502.959 745.77 503.073C745.312 503.183 744.822 503.266 744.291 503.323H744.207L743.853 499.969H743.895C744.27 499.928 744.603 499.808 744.895 499.615C745.176 499.417 745.343 498.995 745.395 498.344L745.52 496.344C745.536 496.271 745.551 496.12 745.562 495.886C745.577 495.662 745.624 495.412 745.707 495.136C745.78 494.87 745.885 494.599 746.02 494.323C746.145 494.058 746.327 493.849 746.562 493.698L742.353 484.469L746.207 484.073L749.478 491.803L751.249 491.615L750.416 483.636L754.187 483.24L755.02 491.219L756.812 491.032L758.395 482.803L762.249 482.386L760.062 492.282C760.353 492.376 760.598 492.542 760.791 492.782C760.973 493.016 761.124 493.261 761.249 493.511C761.364 493.761 761.447 493.995 761.499 494.219C761.556 494.438 761.603 494.584 761.645 494.657L762.187 496.573C762.369 497.209 762.614 497.594 762.916 497.719C763.233 497.844 763.582 497.891 763.957 497.865L763.999 497.844L764.353 501.198L764.27 501.219C763.739 501.271 763.249 501.287 762.791 501.261C762.332 501.23 761.832 501.094 761.291 500.844C760.697 500.553 760.228 500.115 759.895 499.532C759.562 498.948 759.301 498.37 759.103 497.803L758.541 496.011C758.39 495.511 758.197 495.073 757.957 494.698C757.723 494.323 757.322 494.167 756.749 494.24L755.353 494.386L756.166 502.073Z" fill="white"/>
<path d="M732.837 483.702V495.723H732.921L737.129 483.702H741.025V502.64H737.442V490.619H737.358L733.171 502.64H729.254V483.702H732.837Z" fill="white"/>
<path d="M723.933 483.702V499.265H727.662V502.64H716.391V499.265H720.12V483.702H723.933Z" fill="white"/>
<path d="M703.847 491.723H711.389V489.161C711.389 488.562 711.222 488.098 710.889 487.765C710.555 487.442 710.097 487.286 709.514 487.286C708.805 487.286 708.337 487.494 708.097 487.911C707.847 488.338 707.701 488.765 707.659 489.182H703.847C703.847 487.515 704.363 486.171 705.389 485.161C705.878 484.629 706.472 484.213 707.18 483.911C707.878 483.619 708.654 483.473 709.514 483.473C710.712 483.473 711.732 483.723 712.576 484.223C713.409 484.723 714.05 485.379 714.493 486.202C714.774 486.702 714.962 487.27 715.055 487.911C715.154 488.562 715.201 489.275 715.201 490.057V496.286C715.201 497.046 715.154 497.754 715.055 498.411C714.962 499.062 714.774 499.629 714.493 500.119C714.05 500.952 713.409 501.609 712.576 502.098C711.732 502.598 710.712 502.848 709.514 502.848C708.654 502.848 707.868 502.692 707.159 502.39C706.451 502.098 705.847 501.692 705.347 501.182C704.347 500.057 703.847 498.645 703.847 496.952V491.723ZM711.389 494.723H707.659V496.89C707.659 497.609 707.826 498.15 708.159 498.515C708.493 498.874 708.946 499.057 709.514 499.057C710.097 499.057 710.555 498.874 710.889 498.515C711.222 498.15 711.389 497.609 711.389 496.89V494.723Z" fill="white"/>
<path d="M690.079 489.161C690.079 488.562 689.913 488.098 689.579 487.765C689.246 487.442 688.798 487.286 688.225 487.286C687.506 487.286 687.027 487.494 686.788 487.911C686.553 488.338 686.407 488.765 686.35 489.182H682.538C682.538 487.515 683.053 486.171 684.079 485.161C684.579 484.629 685.178 484.213 685.871 483.911C686.569 483.619 687.35 483.473 688.225 483.473C689.423 483.473 690.433 483.723 691.267 484.223C692.1 484.723 692.741 485.379 693.183 486.202C693.465 486.702 693.652 487.27 693.746 487.911C693.845 488.562 693.892 489.275 693.892 490.057V496.286C693.892 497.046 693.845 497.754 693.746 498.411C693.652 499.062 693.465 499.629 693.183 500.119C692.741 500.952 692.1 501.609 691.267 502.098C690.433 502.598 689.423 502.848 688.225 502.848C687.35 502.848 686.558 502.692 685.85 502.39C685.142 502.098 684.538 501.692 684.038 501.182C683.038 500.057 682.538 498.598 682.538 496.807H686.35C686.35 497.583 686.517 498.15 686.85 498.515C687.183 498.874 687.642 499.057 688.225 499.057C688.798 499.057 689.246 498.874 689.579 498.515C689.913 498.15 690.079 497.609 690.079 496.89V489.161Z" fill="white"/>
<path d="M673.337 476.057V502.64H669.524V500.911C669.056 501.463 668.566 501.921 668.066 502.286C667.566 502.661 666.847 502.848 665.899 502.848C664.332 502.848 663.228 502.249 662.587 501.057C662.368 500.64 662.207 500.119 662.108 499.494C661.998 498.869 661.941 498.036 661.941 496.994V489.786C661.941 488.395 661.983 487.39 662.066 486.765C662.207 485.515 662.774 484.583 663.774 483.973C664.274 483.64 664.998 483.473 665.941 483.473C666.691 483.473 667.358 483.64 667.941 483.973C668.524 484.317 669.024 484.796 669.441 485.411H669.524V476.057H673.337ZM665.754 496.473C665.754 497.234 665.91 497.853 666.212 498.327C666.504 498.812 666.978 499.057 667.629 499.057C668.202 499.057 668.66 498.833 669.004 498.39C669.353 497.958 669.524 497.395 669.524 496.702V489.348C669.524 488.749 669.347 488.254 668.983 487.869C668.623 487.478 668.17 487.286 667.629 487.286C666.91 487.286 666.415 487.504 666.149 487.952C665.889 488.411 665.754 488.937 665.754 489.536V496.473Z" fill="white"/>
<path d="M650.634 483.702V495.723H650.717L654.926 483.702H658.822V502.64H655.238V490.619H655.155L650.967 502.64H647.051V483.702H650.634Z" fill="white"/>
<path d="M643.933 483.702V502.64H640.037L636.204 492.473H636.121L632.287 502.64H628.392V483.702H632.058V495.161H632.121L635.183 486.807H637.142L640.204 495.161H640.267V483.702H643.933Z" fill="white"/>
<path d="M621.235 489.161C621.235 488.562 621.068 488.098 620.735 487.765C620.401 487.442 619.953 487.286 619.38 487.286C618.662 487.286 618.182 487.494 617.943 487.911C617.708 488.338 617.563 488.765 617.505 489.182H613.693C613.693 487.515 614.208 486.171 615.235 485.161C615.735 484.629 616.333 484.213 617.026 483.911C617.724 483.619 618.505 483.473 619.38 483.473C620.578 483.473 621.589 483.723 622.422 484.223C623.255 484.723 623.896 485.379 624.339 486.202C624.62 486.702 624.807 487.27 624.901 487.911C625 488.562 625.047 489.275 625.047 490.057V496.286C625.047 497.046 625 497.754 624.901 498.411C624.807 499.062 624.62 499.629 624.339 500.119C623.896 500.952 623.255 501.609 622.422 502.098C621.589 502.598 620.578 502.848 619.38 502.848C618.505 502.848 617.714 502.692 617.005 502.39C616.297 502.098 615.693 501.692 615.193 501.182C614.193 500.057 613.693 498.598 613.693 496.807H617.505C617.505 497.583 617.672 498.15 618.005 498.515C618.339 498.874 618.797 499.057 619.38 499.057C619.953 499.057 620.401 498.874 620.735 498.515C621.068 498.15 621.235 497.609 621.235 496.89V489.161Z" fill="white"/>
<path d="M611.47 483.702V502.64H607.657V494.911H606.199C605.631 494.911 605.251 495.103 605.053 495.494C604.845 495.895 604.678 496.395 604.553 496.994L604.157 499.161C604.006 499.728 603.814 500.244 603.574 500.702C603.34 501.161 603.022 501.525 602.616 501.807C602.199 502.109 601.715 502.327 601.157 502.452C600.59 502.577 599.944 502.64 599.22 502.64H599.136V499.265H599.261C599.709 499.265 600.084 499.182 600.386 499.015C600.678 498.859 600.886 498.499 601.011 497.932L601.386 495.827C601.418 495.754 601.449 495.609 601.491 495.39C601.522 495.166 601.584 494.921 601.678 494.661C601.777 494.395 601.907 494.14 602.074 493.89C602.241 493.64 602.449 493.452 602.699 493.327L598.886 483.702H602.761L605.782 491.723H607.657V483.702H611.47Z" fill="white"/>
<path d="M597.363 496.286C597.363 497.046 597.316 497.754 597.217 498.411C597.123 499.062 596.936 499.629 596.654 500.119C596.212 500.952 595.571 501.609 594.738 502.098C593.894 502.598 592.873 502.848 591.675 502.848C590.483 502.848 589.467 502.598 588.634 502.098C587.8 501.609 587.165 500.952 586.717 500.119C586.441 499.629 586.253 499.062 586.154 498.411C586.061 497.754 586.009 497.046 586.009 496.286V490.057C586.009 489.275 586.061 488.562 586.154 487.911C586.253 487.27 586.441 486.702 586.717 486.202C587.165 485.379 587.8 484.723 588.634 484.223C589.467 483.723 590.483 483.473 591.675 483.473C592.873 483.473 593.894 483.723 594.738 484.223C595.571 484.723 596.212 485.379 596.654 486.202C596.936 486.702 597.123 487.27 597.217 487.911C597.316 488.562 597.363 489.275 597.363 490.057V496.286ZM593.55 489.452C593.55 488.728 593.384 488.187 593.05 487.827C592.717 487.463 592.259 487.286 591.675 487.286C591.108 487.286 590.654 487.463 590.321 487.827C589.988 488.187 589.821 488.728 589.821 489.452V496.89C589.821 497.609 589.988 498.15 590.321 498.515C590.654 498.874 591.108 499.057 591.675 499.057C592.259 499.057 592.717 498.874 593.05 498.515C593.384 498.15 593.55 497.609 593.55 496.89V489.452Z" fill="white"/>
<path d="M575.073 483.702V495.723H575.156L579.365 483.702H583.26V502.64H579.677V490.619H579.594L575.406 502.64H571.49V483.702H575.073ZM579.219 509.64C579.193 509.499 579.172 509.317 579.156 509.098C579.146 508.89 579.083 508.682 578.969 508.473C578.859 508.265 578.677 508.083 578.427 507.932C578.177 507.775 577.818 507.702 577.344 507.702C576.875 507.702 576.51 507.775 576.26 507.932C576.01 508.083 575.833 508.265 575.719 508.473C575.609 508.682 575.552 508.89 575.552 509.098C575.542 509.317 575.521 509.499 575.49 509.64H572.302C572.427 508.249 572.885 507.182 573.677 506.432C574.458 505.692 575.677 505.327 577.344 505.327C579.01 505.327 580.24 505.702 581.031 506.452C581.812 507.213 582.26 508.275 582.385 509.64H579.219Z" fill="white"/>
<path d="M561.432 483.702V502.64H556.494C555.744 502.64 554.973 502.562 554.182 502.411C553.39 502.254 552.671 501.911 552.015 501.369C551.421 500.869 551.004 500.275 550.765 499.598C550.531 498.932 550.411 498.202 550.411 497.411C550.411 497.129 550.442 496.812 550.494 496.452C550.536 496.088 550.635 495.723 550.786 495.348C550.942 494.973 551.161 494.603 551.452 494.244C551.734 493.879 552.109 493.577 552.577 493.327C552.051 493.129 551.629 492.879 551.307 492.577C550.989 492.286 550.739 491.952 550.557 491.577C550.364 491.202 550.239 490.807 550.182 490.39C550.114 489.984 550.077 489.583 550.077 489.182C550.077 488.39 550.182 487.65 550.39 486.973C550.598 486.307 550.952 485.713 551.452 485.202C552.051 484.577 552.786 484.166 553.661 483.973C554.536 483.791 555.385 483.702 556.202 483.702H561.432ZM557.619 486.869H556.077C555.817 486.869 555.551 486.895 555.286 486.952C555.025 487.02 554.786 487.14 554.577 487.307C554.369 487.484 554.202 487.723 554.077 488.015C553.952 488.317 553.89 488.708 553.89 489.182C553.89 489.958 554.036 490.588 554.327 491.077C554.609 491.562 555.192 491.807 556.077 491.807H557.619V486.869ZM557.619 494.786H556.119C555.359 494.786 554.827 495.02 554.536 495.494C554.234 495.963 554.077 496.603 554.077 497.411C554.077 497.978 554.254 498.458 554.598 498.848C554.947 499.249 555.432 499.452 556.057 499.452H557.619V494.786Z" fill="white"/>
<path d="M540.156 483.702V485.64H540.218C540.718 484.942 541.229 484.411 541.739 484.036C542.255 483.661 542.968 483.473 543.885 483.473C544.333 483.473 544.791 483.546 545.26 483.682C545.718 483.817 546.156 484.077 546.572 484.452C547.005 484.796 547.354 485.296 547.614 485.952C547.864 486.619 547.989 487.473 547.989 488.515C547.989 489.583 547.906 490.52 547.739 491.327C547.562 492.145 547.234 492.827 546.76 493.369C546.317 493.895 545.713 494.286 544.947 494.536C544.171 494.796 543.187 494.932 541.989 494.932H541.572C541.421 494.932 541.281 494.921 541.156 494.911C541.031 494.879 540.885 494.869 540.718 494.869C540.541 494.869 540.354 494.853 540.156 494.827V496.807C540.156 497.458 540.296 497.994 540.572 498.411C540.838 498.838 541.333 499.057 542.052 499.057C542.552 499.057 543.01 498.89 543.427 498.557C543.833 498.234 544.093 497.765 544.218 497.14H547.927C547.817 498.833 547.239 500.202 546.197 501.244C545.697 501.744 545.104 502.129 544.406 502.411C543.713 502.702 542.927 502.848 542.052 502.848C541.26 502.848 540.52 502.723 539.822 502.473C539.13 502.223 538.52 501.853 537.989 501.369C537.489 500.869 537.093 500.244 536.802 499.494C536.5 498.744 536.343 497.874 536.343 496.89V483.702H540.156ZM540.156 491.848C540.572 491.916 540.921 491.952 541.197 491.952C542.02 491.952 542.718 491.754 543.302 491.369C543.885 490.978 544.177 490.275 544.177 489.265C544.177 488.541 544.005 487.958 543.656 487.515C543.312 487.067 542.822 486.848 542.197 486.848C541.562 486.848 541.062 487.057 540.697 487.473C540.338 487.89 540.156 488.484 540.156 489.265V491.848Z" fill="white"/>
<path d="M533.558 483.702V502.64H529.745V494.911H528.287C527.719 494.911 527.339 495.103 527.141 495.494C526.933 495.895 526.766 496.395 526.641 496.994L526.245 499.161C526.094 499.728 525.901 500.244 525.662 500.702C525.427 501.161 525.11 501.525 524.704 501.807C524.287 502.109 523.802 502.327 523.245 502.452C522.677 502.577 522.032 502.64 521.308 502.64H521.224V499.265H521.349C521.797 499.265 522.172 499.182 522.474 499.015C522.766 498.859 522.974 498.499 523.099 497.932L523.474 495.827C523.506 495.754 523.537 495.609 523.579 495.39C523.61 495.166 523.672 494.921 523.766 494.661C523.865 494.395 523.995 494.14 524.162 493.89C524.329 493.64 524.537 493.452 524.787 493.327L520.974 483.702H524.849L527.87 491.723H529.745V483.702H533.558Z" fill="white"/>
<path d="M521.096 483.702L516.43 493.369L520.867 502.64H516.826L514.492 497.244L512.138 502.64H508.096L512.617 493.369L507.867 483.702H511.909L514.492 489.494L517.055 483.702H521.096Z" fill="white"/>
<path d="M499.521 483.702V485.64H499.583C500.083 484.942 500.593 484.411 501.104 484.036C501.619 483.661 502.333 483.473 503.25 483.473C503.698 483.473 504.156 483.546 504.625 483.682C505.083 483.817 505.521 484.077 505.937 484.452C506.369 484.796 506.718 485.296 506.979 485.952C507.229 486.619 507.354 487.473 507.354 488.515C507.354 489.583 507.271 490.52 507.104 491.327C506.927 492.145 506.599 492.827 506.125 493.369C505.682 493.895 505.078 494.286 504.312 494.536C503.536 494.796 502.552 494.932 501.354 494.932H500.937C500.786 494.932 500.646 494.921 500.521 494.911C500.396 494.879 500.25 494.869 500.083 494.869C499.906 494.869 499.718 494.853 499.521 494.827V496.807C499.521 497.458 499.661 497.994 499.937 498.411C500.203 498.838 500.698 499.057 501.416 499.057C501.916 499.057 502.375 498.89 502.791 498.557C503.198 498.234 503.458 497.765 503.583 497.14H507.291C507.182 498.833 506.604 500.202 505.562 501.244C505.062 501.744 504.468 502.129 503.771 502.411C503.078 502.702 502.291 502.848 501.416 502.848C500.625 502.848 499.885 502.723 499.187 502.473C498.494 502.223 497.885 501.853 497.354 501.369C496.854 500.869 496.458 500.244 496.166 499.494C495.864 498.744 495.708 497.874 495.708 496.89V483.702H499.521ZM499.521 491.848C499.937 491.916 500.286 491.952 500.562 491.952C501.385 491.952 502.083 491.754 502.666 491.369C503.25 490.978 503.541 490.275 503.541 489.265C503.541 488.541 503.369 487.958 503.021 487.515C502.677 487.067 502.187 486.848 501.562 486.848C500.927 486.848 500.427 487.057 500.062 487.473C499.703 487.89 499.521 488.484 499.521 489.265V491.848Z" fill="white"/>
<path d="M492.922 483.702V502.64H489.11V494.911H485.256V502.64H481.464V483.702H485.256V491.723H489.11V483.702H492.922Z" fill="white"/>
<path d="M471.124 483.702V485.64H471.187C471.687 484.942 472.197 484.411 472.708 484.036C473.223 483.661 473.937 483.473 474.853 483.473C475.301 483.473 475.76 483.546 476.228 483.682C476.687 483.817 477.124 484.077 477.541 484.452C477.973 484.796 478.322 485.296 478.583 485.952C478.833 486.619 478.958 487.473 478.958 488.515C478.958 489.583 478.874 490.52 478.708 491.327C478.531 492.145 478.202 492.827 477.728 493.369C477.286 493.895 476.682 494.286 475.916 494.536C475.14 494.796 474.156 494.932 472.958 494.932H472.541C472.39 494.932 472.249 494.921 472.124 494.911C471.999 494.879 471.853 494.869 471.687 494.869C471.51 494.869 471.322 494.853 471.124 494.827V496.807C471.124 497.458 471.265 497.994 471.541 498.411C471.807 498.838 472.301 499.057 473.02 499.057C473.52 499.057 473.978 498.89 474.395 498.557C474.801 498.234 475.062 497.765 475.187 497.14H478.895C478.786 498.833 478.208 500.202 477.166 501.244C476.666 501.744 476.072 502.129 475.374 502.411C474.682 502.702 473.895 502.848 473.02 502.848C472.228 502.848 471.489 502.723 470.791 502.473C470.098 502.223 469.489 501.853 468.958 501.369C468.458 500.869 468.062 500.244 467.77 499.494C467.468 498.744 467.312 497.874 467.312 496.89V483.702H471.124ZM471.124 491.848C471.541 491.916 471.89 491.952 472.166 491.952C472.989 491.952 473.687 491.754 474.27 491.369C474.853 490.978 475.145 490.275 475.145 489.265C475.145 488.541 474.973 487.958 474.624 487.515C474.281 487.067 473.791 486.848 473.166 486.848C472.531 486.848 472.031 487.057 471.666 487.473C471.307 487.89 471.124 488.484 471.124 489.265V491.848Z" fill="white"/>
<path d="M465.818 487.286C465.558 487.286 465.287 487.359 465.005 487.515C464.714 487.666 464.417 487.921 464.11 488.286C463.86 488.588 463.667 489.02 463.526 489.577C463.375 490.145 463.266 490.728 463.193 491.327C463.11 491.937 463.058 492.52 463.026 493.077C463 493.645 462.985 494.083 462.985 494.39V502.64H452.547V483.702H456.339V499.452H459.401V495.952C459.401 495.077 459.433 494.192 459.485 493.307C459.526 492.432 459.61 491.583 459.735 490.765C459.849 489.958 459.995 489.208 460.172 488.515C460.339 487.817 460.558 487.223 460.818 486.723C461.349 485.749 462.037 484.999 462.88 484.473C463.729 483.958 464.688 483.702 465.755 483.702H466.005V487.286H465.818Z" fill="white"/>
<path d="M441.227 483.702V495.723H441.31L445.518 483.702H449.414V502.64H445.831V490.619H445.747L441.56 502.64H437.643V483.702H441.227Z" fill="white"/>
<path d="M423.505 491.723H431.047V489.161C431.047 488.562 430.88 488.098 430.547 487.765C430.213 487.442 429.755 487.286 429.172 487.286C428.463 487.286 427.994 487.494 427.755 487.911C427.505 488.338 427.359 488.765 427.317 489.182H423.505C423.505 487.515 424.021 486.171 425.047 485.161C425.536 484.629 426.13 484.213 426.838 483.911C427.536 483.619 428.312 483.473 429.172 483.473C430.369 483.473 431.39 483.723 432.234 484.223C433.067 484.723 433.708 485.379 434.151 486.202C434.432 486.702 434.619 487.27 434.713 487.911C434.812 488.562 434.859 489.275 434.859 490.057V496.286C434.859 497.046 434.812 497.754 434.713 498.411C434.619 499.062 434.432 499.629 434.151 500.119C433.708 500.952 433.067 501.609 432.234 502.098C431.39 502.598 430.369 502.848 429.172 502.848C428.312 502.848 427.526 502.692 426.817 502.39C426.109 502.098 425.505 501.692 425.005 501.182C424.005 500.057 423.505 498.645 423.505 496.952V491.723ZM431.047 494.723H427.317V496.89C427.317 497.609 427.484 498.15 427.817 498.515C428.151 498.874 428.604 499.057 429.172 499.057C429.755 499.057 430.213 498.874 430.547 498.515C430.88 498.15 431.047 497.609 431.047 496.89V494.723Z" fill="white"/>
<path d="M412.532 483.702V495.723H412.615L416.823 483.702H420.719V502.64H417.136V490.619H417.053L412.865 502.64H408.948V483.702H412.532ZM416.678 509.64C416.652 509.499 416.631 509.317 416.615 509.098C416.605 508.89 416.542 508.682 416.428 508.473C416.318 508.265 416.136 508.083 415.886 507.932C415.636 507.775 415.277 507.702 414.803 507.702C414.334 507.702 413.969 507.775 413.719 507.932C413.469 508.083 413.292 508.265 413.178 508.473C413.068 508.682 413.011 508.89 413.011 509.098C413.001 509.317 412.98 509.499 412.948 509.64H409.761C409.886 508.249 410.344 507.182 411.136 506.432C411.917 505.692 413.136 505.327 414.803 505.327C416.469 505.327 417.698 505.702 418.49 506.452C419.271 507.213 419.719 508.275 419.844 509.64H416.678Z" fill="white"/>
<path d="M405.831 483.702V487.515H402.019V483.702H405.831Z" fill="white"/>
<path d="M391.684 483.702V510.286H381.079V506.702H387.871V483.702H391.684Z" fill="white"/>
<path d="M382.843 496.286C382.843 497.046 382.796 497.754 382.697 498.411C382.603 499.062 382.416 499.629 382.135 500.119C381.692 500.952 381.051 501.609 380.218 502.098C379.374 502.598 378.353 502.848 377.155 502.848C375.963 502.848 374.947 502.598 374.114 502.098C373.28 501.609 372.645 500.952 372.197 500.119C371.921 499.629 371.734 499.062 371.635 498.411C371.541 497.754 371.489 497.046 371.489 496.286V490.057C371.489 489.275 371.541 488.562 371.635 487.911C371.734 487.27 371.921 486.702 372.197 486.202C372.645 485.379 373.28 484.723 374.114 484.223C374.947 483.723 375.963 483.473 377.155 483.473C378.353 483.473 379.374 483.723 380.218 484.223C381.051 484.723 381.692 485.379 382.135 486.202C382.416 486.702 382.603 487.27 382.697 487.911C382.796 488.562 382.843 489.275 382.843 490.057V496.286ZM379.03 489.452C379.03 488.728 378.864 488.187 378.53 487.827C378.197 487.463 377.739 487.286 377.155 487.286C376.588 487.286 376.135 487.463 375.801 487.827C375.468 488.187 375.301 488.728 375.301 489.452V496.89C375.301 497.609 375.468 498.15 375.801 498.515C376.135 498.874 376.588 499.057 377.155 499.057C377.739 499.057 378.197 498.874 378.53 498.515C378.864 498.15 379.03 497.609 379.03 496.89V489.452Z" fill="white"/>
<path d="M368.703 476.057V502.64H364.891V500.911C364.422 501.463 363.932 501.921 363.432 502.286C362.932 502.661 362.214 502.848 361.266 502.848C359.698 502.848 358.594 502.249 357.953 501.057C357.734 500.64 357.573 500.119 357.474 499.494C357.365 498.869 357.307 498.036 357.307 496.994V489.786C357.307 488.395 357.349 487.39 357.432 486.765C357.573 485.515 358.141 484.583 359.141 483.973C359.641 483.64 360.365 483.473 361.307 483.473C362.057 483.473 362.724 483.64 363.307 483.973C363.891 484.317 364.391 484.796 364.807 485.411H364.891V476.057H368.703ZM361.12 496.473C361.12 497.234 361.276 497.853 361.578 498.327C361.87 498.812 362.344 499.057 362.995 499.057C363.568 499.057 364.026 498.833 364.37 498.39C364.719 497.958 364.891 497.395 364.891 496.702V489.348C364.891 488.749 364.714 488.254 364.349 487.869C363.99 487.478 363.537 487.286 362.995 487.286C362.276 487.286 361.781 487.504 361.516 487.952C361.255 488.411 361.12 488.937 361.12 489.536V496.473Z" fill="white"/>
<path d="M346.98 483.702V485.64H347.042C347.542 484.942 348.053 484.411 348.563 484.036C349.079 483.661 349.792 483.473 350.709 483.473C351.157 483.473 351.615 483.546 352.084 483.682C352.542 483.817 352.98 484.077 353.396 484.452C353.829 484.796 354.178 485.296 354.438 485.952C354.688 486.619 354.813 487.473 354.813 488.515C354.813 489.583 354.73 490.52 354.563 491.327C354.386 492.145 354.058 492.827 353.584 493.369C353.141 493.895 352.537 494.286 351.771 494.536C350.995 494.796 350.011 494.932 348.813 494.932H348.396C348.245 494.932 348.105 494.921 347.98 494.911C347.855 494.879 347.709 494.869 347.542 494.869C347.365 494.869 347.178 494.853 346.98 494.827V496.807C346.98 497.458 347.12 497.994 347.396 498.411C347.662 498.838 348.157 499.057 348.876 499.057C349.376 499.057 349.834 498.89 350.251 498.557C350.657 498.234 350.917 497.765 351.042 497.14H354.751C354.641 498.833 354.063 500.202 353.021 501.244C352.521 501.744 351.928 502.129 351.23 502.411C350.537 502.702 349.751 502.848 348.876 502.848C348.084 502.848 347.344 502.723 346.646 502.473C345.954 502.223 345.344 501.853 344.813 501.369C344.313 500.869 343.917 500.244 343.626 499.494C343.323 498.744 343.167 497.874 343.167 496.89V483.702H346.98ZM346.98 491.848C347.396 491.916 347.745 491.952 348.021 491.952C348.844 491.952 349.542 491.754 350.126 491.369C350.709 490.978 351.001 490.275 351.001 489.265C351.001 488.541 350.829 487.958 350.48 487.515C350.136 487.067 349.646 486.848 349.021 486.848C348.386 486.848 347.886 487.057 347.521 487.473C347.162 487.89 346.98 488.484 346.98 489.265V491.848Z" fill="white"/>
<path d="M340.382 483.702V502.64H336.569V486.869H332.798V502.64H328.986V486.869H326.965V479.973H330.194V483.702H340.382Z" fill="white"/>
<path d="M317.045 483.702V495.723H317.128L321.336 483.702H325.232V502.64H321.649V490.619H321.566L317.378 502.64H313.461V483.702H317.045Z" fill="white"/>
<path d="M302.156 483.702V495.723H302.24L306.448 483.702H310.344V502.64H306.76V490.619H306.677L302.49 502.64H298.573V483.702H302.156ZM306.302 509.64C306.276 509.499 306.255 509.317 306.24 509.098C306.229 508.89 306.167 508.682 306.052 508.473C305.943 508.265 305.76 508.083 305.51 507.932C305.26 507.775 304.901 507.702 304.427 507.702C303.958 507.702 303.594 507.775 303.344 507.932C303.094 508.083 302.917 508.265 302.802 508.473C302.693 508.682 302.635 508.89 302.635 509.098C302.625 509.317 302.604 509.499 302.573 509.64H299.385C299.51 508.249 299.969 507.182 300.76 506.432C301.542 505.692 302.76 505.327 304.427 505.327C306.094 505.327 307.323 505.702 308.115 506.452C308.896 507.213 309.344 508.275 309.469 509.64H306.302Z" fill="white"/>
<path d="M288.515 483.702V502.64H277.119V483.702H280.932V499.452H284.702V483.702H288.515Z" fill="white"/>
<path d="M274.482 496.286C274.482 497.046 274.435 497.754 274.337 498.411C274.243 499.062 274.055 499.629 273.774 500.119C273.331 500.952 272.691 501.609 271.857 502.098C271.014 502.598 269.993 502.848 268.795 502.848C267.602 502.848 266.587 502.598 265.753 502.098C264.92 501.609 264.284 500.952 263.837 500.119C263.56 499.629 263.373 499.062 263.274 498.411C263.18 497.754 263.128 497.046 263.128 496.286V490.057C263.128 489.275 263.18 488.562 263.274 487.911C263.373 487.27 263.56 486.702 263.837 486.202C264.284 485.379 264.92 484.723 265.753 484.223C266.587 483.723 267.602 483.473 268.795 483.473C269.993 483.473 271.014 483.723 271.857 484.223C272.691 484.723 273.331 485.379 273.774 486.202C274.055 486.702 274.243 487.27 274.337 487.911C274.435 488.562 274.482 489.275 274.482 490.057V496.286ZM270.67 489.452C270.67 488.728 270.503 488.187 270.17 487.827C269.837 487.463 269.378 487.286 268.795 487.286C268.227 487.286 267.774 487.463 267.441 487.827C267.107 488.187 266.941 488.728 266.941 489.452V496.89C266.941 497.609 267.107 498.15 267.441 498.515C267.774 498.874 268.227 499.057 268.795 499.057C269.378 499.057 269.837 498.874 270.17 498.515C270.503 498.15 270.67 497.609 270.67 496.89V489.452Z" fill="white"/>
<path d="M260.343 483.702V502.64H256.447L252.614 492.473H252.53L248.697 502.64H244.801V483.702H248.468V495.161H248.53L251.593 486.807H253.551L256.614 495.161H256.676V483.702H260.343Z" fill="white"/>
<path d="M242.019 496.286C242.019 497.046 241.972 497.754 241.873 498.411C241.779 499.062 241.592 499.629 241.311 500.119C240.868 500.952 240.227 501.609 239.394 502.098C238.55 502.598 237.529 502.848 236.331 502.848C235.139 502.848 234.123 502.598 233.29 502.098C232.456 501.609 231.821 500.952 231.373 500.119C231.097 499.629 230.91 499.062 230.811 498.411C230.717 497.754 230.665 497.046 230.665 496.286V490.057C230.665 489.275 230.717 488.562 230.811 487.911C230.91 487.27 231.097 486.702 231.373 486.202C231.821 485.379 232.456 484.723 233.29 484.223C234.123 483.723 235.139 483.473 236.331 483.473C237.529 483.473 238.55 483.723 239.394 484.223C240.227 484.723 240.868 485.379 241.311 486.202C241.592 486.702 241.779 487.27 241.873 487.911C241.972 488.562 242.019 489.275 242.019 490.057V496.286ZM238.206 489.452C238.206 488.728 238.04 488.187 237.706 487.827C237.373 487.463 236.915 487.286 236.331 487.286C235.764 487.286 235.311 487.463 234.977 487.827C234.644 488.187 234.477 488.728 234.477 489.452V496.89C234.477 497.609 234.644 498.15 234.977 498.515C235.311 498.874 235.764 499.057 236.331 499.057C236.915 499.057 237.373 498.874 237.706 498.515C238.04 498.15 238.206 497.609 238.206 496.89V489.452Z" fill="white"/>
<path d="M220.921 502.64H217.129V494.911H215.733C215.166 494.911 214.786 495.103 214.588 495.494C214.379 495.895 214.228 496.348 214.129 496.848L213.754 498.702C213.629 499.286 213.421 499.879 213.129 500.494C212.827 501.119 212.416 501.603 211.9 501.952C211.4 502.286 210.921 502.478 210.463 502.536C210.004 502.603 209.515 502.64 208.983 502.64H208.9V499.265H208.942C209.317 499.265 209.661 499.182 209.963 499.015C210.254 498.859 210.463 498.458 210.588 497.807L210.921 495.827C210.952 495.754 210.983 495.609 211.025 495.39C211.056 495.166 211.124 494.921 211.233 494.661C211.332 494.395 211.463 494.14 211.629 493.89C211.786 493.64 211.983 493.452 212.233 493.327L209.025 483.702H212.9L215.338 491.723H217.129V483.702H220.921V491.723H222.713L225.15 483.702H229.025L225.817 493.327C226.098 493.452 226.317 493.64 226.483 493.89C226.64 494.14 226.765 494.395 226.858 494.661C226.942 494.921 227.004 495.166 227.046 495.39C227.077 495.609 227.103 495.754 227.129 495.827L227.463 497.807C227.588 498.458 227.806 498.859 228.108 499.015C228.4 499.182 228.733 499.265 229.108 499.265H229.15V502.64H229.067C228.541 502.64 228.046 502.598 227.588 502.515C227.129 502.442 226.65 502.254 226.15 501.952C225.582 501.603 225.166 501.119 224.9 500.494C224.624 499.879 224.421 499.286 224.296 498.702L223.921 496.848C223.827 496.348 223.681 495.895 223.483 495.494C223.275 495.103 222.89 494.911 222.317 494.911H220.921V502.64Z" fill="white"/>
<path d="M196 491.723H203.541V489.161C203.541 488.562 203.375 488.098 203.041 487.765C202.708 487.442 202.25 487.286 201.666 487.286C200.958 487.286 200.489 487.494 200.25 487.911C200 488.338 199.854 488.765 199.812 489.182H196C196 487.515 196.515 486.171 197.541 485.161C198.031 484.629 198.625 484.213 199.333 483.911C200.031 483.619 200.807 483.473 201.666 483.473C202.864 483.473 203.885 483.723 204.729 484.223C205.562 484.723 206.203 485.379 206.646 486.202C206.927 486.702 207.114 487.27 207.208 487.911C207.307 488.562 207.354 489.275 207.354 490.057V496.286C207.354 497.046 207.307 497.754 207.208 498.411C207.114 499.062 206.927 499.629 206.646 500.119C206.203 500.952 205.562 501.609 204.729 502.098C203.885 502.598 202.864 502.848 201.666 502.848C200.807 502.848 200.021 502.692 199.312 502.39C198.604 502.098 198 501.692 197.5 501.182C196.5 500.057 196 498.645 196 496.952V491.723ZM203.541 494.723H199.812V496.89C199.812 497.609 199.979 498.15 200.312 498.515C200.646 498.874 201.099 499.057 201.666 499.057C202.25 499.057 202.708 498.874 203.041 498.515C203.375 498.15 203.541 497.609 203.541 496.89V494.723Z" fill="white"/>
<path d="M191.048 483.702V499.265H194.777V502.64H183.506V499.265H187.235V483.702H191.048Z" fill="white"/>
<path d="M183.065 483.702V487.515H179.252V483.702H183.065Z" fill="white"/>
<path d="M163.309 506.932V499.202C163.309 498.796 163.325 498.119 163.351 497.161C163.382 496.202 163.444 495.145 163.538 493.994C163.637 492.853 163.788 491.723 163.997 490.598C164.194 489.484 164.465 488.557 164.809 487.807C165.408 486.541 166.174 485.541 167.101 484.807C168.017 484.067 169.137 483.702 170.455 483.702H170.663V487.515C169.929 487.557 169.351 487.775 168.934 488.182C168.507 488.583 168.153 489.083 167.872 489.682C167.653 490.192 167.47 490.827 167.33 491.577C167.194 492.327 167.09 493.124 167.017 493.973C166.934 494.817 166.887 495.687 166.872 496.577C166.845 497.478 166.83 498.338 166.83 499.161V510.286H155.767V483.702H159.58V506.932H163.309Z" fill="white"/>
<path d="M141.409 491.723H148.951V489.161C148.951 488.562 148.784 488.098 148.451 487.765C148.117 487.442 147.659 487.286 147.076 487.286C146.367 487.286 145.899 487.494 145.659 487.911C145.409 488.338 145.263 488.765 145.221 489.182H141.409C141.409 487.515 141.925 486.171 142.951 485.161C143.44 484.629 144.034 484.213 144.742 483.911C145.44 483.619 146.216 483.473 147.076 483.473C148.274 483.473 149.294 483.723 150.138 484.223C150.971 484.723 151.612 485.379 152.055 486.202C152.336 486.702 152.524 487.27 152.617 487.911C152.716 488.562 152.763 489.275 152.763 490.057V496.286C152.763 497.046 152.716 497.754 152.617 498.411C152.524 499.062 152.336 499.629 152.055 500.119C151.612 500.952 150.971 501.609 150.138 502.098C149.294 502.598 148.274 502.848 147.076 502.848C146.216 502.848 145.43 502.692 144.721 502.39C144.013 502.098 143.409 501.692 142.909 501.182C141.909 500.057 141.409 498.645 141.409 496.952V491.723ZM148.951 494.723H145.221V496.89C145.221 497.609 145.388 498.15 145.721 498.515C146.055 498.874 146.508 499.057 147.076 499.057C147.659 499.057 148.117 498.874 148.451 498.515C148.784 498.15 148.951 497.609 148.951 496.89V494.723Z" fill="white"/>
<path d="M138.957 496.286C138.957 497.046 138.91 497.754 138.811 498.411C138.717 499.062 138.53 499.629 138.249 500.119C137.806 500.952 137.165 501.609 136.332 502.098C135.488 502.598 134.467 502.848 133.269 502.848C132.077 502.848 131.061 502.598 130.228 502.098C129.394 501.609 128.759 500.952 128.311 500.119C128.035 499.629 127.848 499.062 127.749 498.411C127.655 497.754 127.603 497.046 127.603 496.286V490.057C127.603 489.275 127.655 488.562 127.749 487.911C127.848 487.27 128.035 486.702 128.311 486.202C128.759 485.379 129.394 484.723 130.228 484.223C131.061 483.723 132.077 483.473 133.269 483.473C134.467 483.473 135.488 483.723 136.332 484.223C137.165 484.723 137.806 485.379 138.249 486.202C138.53 486.702 138.717 487.27 138.811 487.911C138.91 488.562 138.957 489.275 138.957 490.057V496.286ZM135.144 489.452C135.144 488.728 134.978 488.187 134.644 487.827C134.311 487.463 133.853 487.286 133.269 487.286C132.702 487.286 132.249 487.463 131.915 487.827C131.582 488.187 131.415 488.728 131.415 489.452V496.89C131.415 497.609 131.582 498.15 131.915 498.515C132.249 498.874 132.702 499.057 133.269 499.057C133.853 499.057 134.311 498.874 134.644 498.515C134.978 498.15 135.144 497.609 135.144 496.89V489.452Z" fill="white"/>
<path d="M124.817 483.702V502.64H121.005V494.911H117.151V502.64H113.359V483.702H117.151V491.723H121.005V483.702H124.817Z" fill="white"/>
<path d="M103.019 483.702V485.64H103.082C103.582 484.942 104.092 484.411 104.602 484.036C105.118 483.661 105.832 483.473 106.748 483.473C107.196 483.473 107.654 483.546 108.123 483.682C108.582 483.817 109.019 484.077 109.436 484.452C109.868 484.796 110.217 485.296 110.477 485.952C110.727 486.619 110.852 487.473 110.852 488.515C110.852 489.583 110.769 490.52 110.602 491.327C110.425 492.145 110.097 492.827 109.623 493.369C109.181 493.895 108.576 494.286 107.811 494.536C107.035 494.796 106.05 494.932 104.852 494.932H104.436C104.285 494.932 104.144 494.921 104.019 494.911C103.894 494.879 103.748 494.869 103.582 494.869C103.404 494.869 103.217 494.853 103.019 494.827V496.807C103.019 497.458 103.16 497.994 103.436 498.411C103.701 498.838 104.196 499.057 104.915 499.057C105.415 499.057 105.873 498.89 106.29 498.557C106.696 498.234 106.957 497.765 107.082 497.14H110.79C110.681 498.833 110.102 500.202 109.061 501.244C108.561 501.744 107.967 502.129 107.269 502.411C106.576 502.702 105.79 502.848 104.915 502.848C104.123 502.848 103.384 502.723 102.686 502.473C101.993 502.223 101.384 501.853 100.852 501.369C100.352 500.869 99.9565 500.244 99.6649 499.494C99.3628 498.744 99.2065 497.874 99.2065 496.89V483.702H103.019ZM103.019 491.848C103.436 491.916 103.785 491.952 104.061 491.952C104.884 491.952 105.582 491.754 106.165 491.369C106.748 490.978 107.04 490.275 107.04 489.265C107.04 488.541 106.868 487.958 106.519 487.515C106.175 487.067 105.686 486.848 105.061 486.848C104.425 486.848 103.925 487.057 103.561 487.473C103.201 487.89 103.019 488.484 103.019 489.265V491.848Z" fill="white"/>
<path d="M96.421 476.057V502.64H92.6085V500.911C92.1397 501.463 91.6501 501.921 91.1501 502.286C90.6501 502.661 89.9314 502.848 88.9835 502.848C87.4158 502.848 86.3116 502.249 85.671 501.057C85.4522 500.64 85.2908 500.119 85.1918 499.494C85.0824 498.869 85.0251 498.036 85.0251 496.994V489.786C85.0251 488.395 85.0668 487.39 85.1501 486.765C85.2908 485.515 85.8585 484.583 86.8585 483.973C87.3585 483.64 88.0824 483.473 89.0251 483.473C89.7751 483.473 90.4418 483.64 91.0251 483.973C91.6085 484.317 92.1085 484.796 92.5251 485.411H92.6085V476.057H96.421ZM88.8376 496.473C88.8376 497.234 88.9939 497.853 89.296 498.327C89.5876 498.812 90.0616 499.057 90.7126 499.057C91.2856 499.057 91.7439 498.833 92.0876 498.39C92.4366 497.958 92.6085 497.395 92.6085 496.702V489.348C92.6085 488.749 92.4314 488.254 92.0668 487.869C91.7074 487.478 91.2543 487.286 90.7126 487.286C89.9939 487.286 89.4991 487.504 89.2335 487.952C88.9731 488.411 88.8376 488.937 88.8376 489.536V496.473Z" fill="white"/>
<path d="M80.5499 483.702V479.973H83.7582V486.869H82.0499C81.7738 487.395 81.5291 488.088 81.3207 488.952C81.1124 489.827 80.9457 490.749 80.8207 491.723C80.727 492.525 80.6645 493.348 80.6332 494.182C80.6072 495.025 80.5916 495.807 80.5916 496.515V502.64H70.1332V486.869H68.3416V479.973H71.5499V483.702H80.5499ZM77.0082 499.452V496.619C77.0082 496.296 77.0238 495.9 77.0499 495.432C77.0811 494.973 77.1124 494.499 77.1541 494.015C77.1853 493.541 77.2166 493.067 77.2582 492.598C77.2895 492.14 77.3311 491.749 77.3832 491.432C77.4822 490.775 77.6436 490.004 77.8624 489.119C78.0707 488.244 78.3103 487.494 78.5707 486.869H73.9457V499.452H77.0082Z" fill="white"/>
<path d="M66.9777 496.286C66.9777 497.046 66.9308 497.754 66.8319 498.411C66.7381 499.062 66.5506 499.629 66.2694 500.119C65.8267 500.952 65.186 501.609 64.3527 502.098C63.509 502.598 62.4881 502.848 61.2902 502.848C60.0975 502.848 59.0819 502.598 58.2485 502.098C57.4152 501.609 56.7798 500.952 56.3319 500.119C56.0558 499.629 55.8683 499.062 55.7694 498.411C55.6756 497.754 55.6235 497.046 55.6235 496.286V490.057C55.6235 489.275 55.6756 488.562 55.7694 487.911C55.8683 487.27 56.0558 486.702 56.3319 486.202C56.7798 485.379 57.4152 484.723 58.2485 484.223C59.0819 483.723 60.0975 483.473 61.2902 483.473C62.4881 483.473 63.509 483.723 64.3527 484.223C65.186 484.723 65.8267 485.379 66.2694 486.202C66.5506 486.702 66.7381 487.27 66.8319 487.911C66.9308 488.562 66.9777 489.275 66.9777 490.057V496.286ZM63.1652 489.452C63.1652 488.728 62.9985 488.187 62.6652 487.827C62.3319 487.463 61.8735 487.286 61.2902 487.286C60.7225 487.286 60.2694 487.463 59.936 487.827C59.6027 488.187 59.436 488.728 59.436 489.452V496.89C59.436 497.609 59.6027 498.15 59.936 498.515C60.2694 498.874 60.7225 499.057 61.2902 499.057C61.8735 499.057 62.3319 498.874 62.6652 498.515C62.9985 498.15 63.1652 497.609 63.1652 496.89V489.452Z" fill="white"/>
<path d="M45.8975 483.702V502.64H42.085V494.911H38.2309V502.64H34.4392V483.702H38.2309V491.723H42.085V483.702H45.8975Z" fill="white"/>
<path d="M24.1367 483.702V485.64H24.1992C24.6992 484.942 25.2096 484.411 25.7201 484.036C26.2357 483.661 26.9492 483.473 27.8659 483.473C28.3138 483.473 28.7721 483.546 29.2409 483.682C29.6992 483.817 30.1367 484.077 30.5534 484.452C30.9857 484.796 31.3346 485.296 31.5951 485.952C31.8451 486.619 31.9701 487.473 31.9701 488.515C31.9701 489.583 31.8867 490.52 31.7201 491.327C31.543 492.145 31.2148 492.827 30.7409 493.369C30.2982 493.895 29.694 494.286 28.9284 494.536C28.1523 494.796 27.168 494.932 25.9701 494.932H25.5534C25.4023 494.932 25.2617 494.921 25.1367 494.911C25.0117 494.879 24.8659 494.869 24.6992 494.869C24.5221 494.869 24.3346 494.853 24.1367 494.827V496.807C24.1367 497.458 24.2773 497.994 24.5534 498.411C24.819 498.838 25.3138 499.057 26.0326 499.057C26.5326 499.057 26.9909 498.89 27.4076 498.557C27.8138 498.234 28.0742 497.765 28.1992 497.14H31.9076C31.7982 498.833 31.2201 500.202 30.1784 501.244C29.6784 501.744 29.0846 502.129 28.3867 502.411C27.694 502.702 26.9076 502.848 26.0326 502.848C25.2409 502.848 24.5013 502.723 23.8034 502.473C23.1107 502.223 22.5013 501.853 21.9701 501.369C21.4701 500.869 21.0742 500.244 20.7826 499.494C20.4805 498.744 20.3242 497.874 20.3242 496.89V483.702H24.1367ZM24.1367 491.848C24.5534 491.916 24.9023 491.952 25.1784 491.952C26.0013 491.952 26.6992 491.754 27.2826 491.369C27.8659 490.978 28.1576 490.275 28.1576 489.265C28.1576 488.541 27.9857 487.958 27.6367 487.515C27.293 487.067 26.8034 486.848 26.1784 486.848C25.543 486.848 25.043 487.057 24.6784 487.473C24.319 487.89 24.1367 488.484 24.1367 489.265V491.848Z" fill="white"/>
</g>
<defs>
<filter id="filter0_i_549_376064" x="-0.270508" y="24.1829" width="822.489" height="502.26" filterUnits="userSpaceOnUse" color-interpolation-filters="sRGB">
<feFlood flood-opacity="0" result="BackgroundImageFix"/>
<feBlend mode="normal" in="SourceGraphic" in2="BackgroundImageFix" result="shape"/>
<feColorMatrix in="SourceAlpha" type="matrix" values="0 0 0 0 0 0 0 0 0 0 0 0 0 0 0 0 0 0 127 0" result="hardAlpha"/>
<feOffset dx="9" dy="13"/>
<feGaussianBlur stdDeviation="3.8"/>
<feComposite in2="hardAlpha" operator="arithmetic" k2="-1" k3="1"/>
<feColorMatrix type="matrix" values="0 0 0 0 0 0 0 0 0 0 0 0 0 0 0 0 0 0 0.25 0"/>
<feBlend mode="normal" in2="shape" result="effect1_innerShadow_549_376064"/>
</filter>
<clipPath id="clip0_549_376064">
<rect width="865.333" height="543.023" fill="white" transform="translate(0.333008)"/>
</clipPath>
</defs>
</svg>
