<svg width="866" height="544" viewBox="0 0 866 544" fill="none" xmlns="http://www.w3.org/2000/svg">
<g clip-path="url(#clip0_549_375284)">
<rect width="865.333" height="543.023" transform="translate(-0.000488281)" fill="white"/>
<mask id="mask0_549_375284" style="mask-type:luminance" maskUnits="userSpaceOnUse" x="-1" y="0" width="867" height="544">
<path d="M-0.000488281 0H865.333V543.021H-0.000488281V0Z" fill="white"/>
</mask>
<g mask="url(#mask0_549_375284)">
<path d="M-0.000488281 543.021H865.333V0H-0.000488281V543.021Z" fill="#FC6649"/>
<g filter="url(#filter0_i_549_375284)">
<path d="M-0.000488281 51.9896H746.536C768.598 51.9896 786.479 69.8698 786.479 91.9323V100.198C786.479 122.255 768.598 140.141 746.536 140.141H67.1453C45.0881 140.141 27.2026 158.021 27.2026 180.083C27.2026 202.146 45.0881 220.026 67.1453 220.026H746.536C768.598 220.026 786.479 237.911 786.479 259.969V270.99C786.479 293.052 768.598 310.932 746.536 310.932H67.1453C45.0881 310.932 27.2026 328.818 27.2026 350.875V361.896C27.2026 383.958 45.0881 401.844 67.1453 401.844H746.536C768.598 401.844 786.479 419.724 786.479 441.786V451.089C786.479 473.151 768.598 491.036 746.536 491.036H-0.000488281" stroke="#0202E0" stroke-width="55.6133" stroke-miterlimit="10"/>
</g>
</g>
<path d="M152.116 309.852V308.206C152.116 307.383 152.278 306.607 152.595 305.873C152.903 305.133 153.335 304.482 153.887 303.915C154.429 303.342 155.069 302.883 155.804 302.54C156.543 302.206 157.335 302.04 158.179 302.04C158.903 302.04 159.637 302.139 160.387 302.331C161.127 302.54 161.793 302.894 162.387 303.394C162.986 303.894 163.481 304.529 163.866 305.31C164.257 306.087 164.45 307.087 164.45 308.31V322.956C164.45 323.816 164.304 324.623 164.012 325.373C163.71 326.123 163.278 326.769 162.72 327.31C162.179 327.863 161.533 328.295 160.783 328.602C160.022 328.92 159.174 329.081 158.241 329.081C156.45 329.081 155.002 328.488 153.887 327.31C153.335 326.738 152.903 326.06 152.595 325.269C152.278 324.488 152.116 323.644 152.116 322.727V321.227H155.929V322.498C155.929 323.248 156.147 323.894 156.575 324.435C156.991 324.988 157.564 325.269 158.283 325.269C159.231 325.269 159.861 324.977 160.179 324.394C160.486 323.81 160.637 323.066 160.637 322.165V308.581C160.637 307.8 160.47 307.149 160.137 306.623C159.804 306.107 159.2 305.852 158.325 305.852C158.075 305.852 157.814 305.894 157.533 305.977C157.241 306.071 156.97 306.217 156.72 306.415C156.502 306.607 156.314 306.878 156.158 307.227C156.007 307.571 155.929 308.008 155.929 308.54V309.852H152.116Z" fill="white"/>
<path d="M149.262 302.269V321.206H144.325C143.575 321.206 142.804 321.128 142.012 320.977C141.221 320.821 140.502 320.477 139.846 319.935C139.252 319.435 138.835 318.842 138.596 318.165C138.361 317.498 138.242 316.769 138.242 315.977C138.242 315.696 138.273 315.378 138.325 315.019C138.367 314.654 138.465 314.29 138.617 313.915C138.773 313.54 138.992 313.17 139.283 312.81C139.564 312.446 139.939 312.144 140.408 311.894C139.882 311.696 139.46 311.446 139.137 311.144C138.82 310.852 138.57 310.519 138.387 310.144C138.195 309.769 138.07 309.373 138.012 308.956C137.945 308.55 137.908 308.149 137.908 307.748C137.908 306.956 138.012 306.217 138.221 305.54C138.429 304.873 138.783 304.279 139.283 303.769C139.882 303.144 140.617 302.732 141.492 302.54C142.367 302.357 143.215 302.269 144.033 302.269H149.262ZM145.45 305.435H143.908C143.648 305.435 143.382 305.462 143.117 305.519C142.856 305.587 142.617 305.706 142.408 305.873C142.2 306.05 142.033 306.29 141.908 306.581C141.783 306.883 141.721 307.274 141.721 307.748C141.721 308.524 141.867 309.154 142.158 309.644C142.439 310.128 143.023 310.373 143.908 310.373H145.45V305.435ZM145.45 313.352H143.95C143.189 313.352 142.658 313.587 142.367 314.06C142.064 314.529 141.908 315.17 141.908 315.977C141.908 316.545 142.085 317.024 142.429 317.415C142.778 317.816 143.262 318.019 143.887 318.019H145.45V313.352Z" fill="white"/>
<path d="M128.216 302.269V309.81H129.841L132.237 302.269H136.132L133.278 310.373C133.862 310.623 134.32 310.967 134.653 311.415C134.987 311.857 135.237 312.331 135.403 312.831C135.56 313.331 135.653 313.816 135.695 314.29C135.737 314.758 135.757 315.133 135.757 315.415C135.757 316.206 135.622 317.04 135.341 317.915C135.065 318.79 134.606 319.482 133.966 319.998C133.315 320.55 132.622 320.894 131.882 321.019C131.148 321.144 130.414 321.206 129.674 321.206H124.403V302.269H128.216ZM128.216 318.019H130.07C130.82 318.019 131.32 317.738 131.57 317.185C131.82 316.644 131.945 316.003 131.945 315.269C131.945 313.644 131.247 312.831 129.841 312.831H128.216V318.019Z" fill="white"/>
<path d="M114.319 321.206H110.527V313.477H109.131C108.563 313.477 108.183 313.67 107.985 314.06C107.777 314.462 107.626 314.915 107.527 315.415L107.152 317.269C107.027 317.852 106.819 318.446 106.527 319.06C106.225 319.685 105.813 320.17 105.298 320.519C104.798 320.852 104.319 321.045 103.86 321.102C103.402 321.17 102.912 321.206 102.381 321.206H102.298V317.831H102.34C102.715 317.831 103.058 317.748 103.36 317.581C103.652 317.425 103.86 317.024 103.985 316.373L104.319 314.394C104.35 314.321 104.381 314.175 104.423 313.956C104.454 313.732 104.522 313.488 104.631 313.227C104.73 312.962 104.86 312.706 105.027 312.456C105.183 312.206 105.381 312.019 105.631 311.894L102.423 302.269H106.298L108.735 310.29H110.527V302.269H114.319V310.29H116.11L118.548 302.269H122.423L119.215 311.894C119.496 312.019 119.715 312.206 119.881 312.456C120.037 312.706 120.162 312.962 120.256 313.227C120.34 313.488 120.402 313.732 120.444 313.956C120.475 314.175 120.501 314.321 120.527 314.394L120.86 316.373C120.985 317.024 121.204 317.425 121.506 317.581C121.798 317.748 122.131 317.831 122.506 317.831H122.548V321.206H122.465C121.938 321.206 121.444 321.165 120.985 321.081C120.527 321.008 120.048 320.821 119.548 320.519C118.98 320.17 118.563 319.685 118.298 319.06C118.022 318.446 117.819 317.852 117.694 317.269L117.319 315.415C117.225 314.915 117.079 314.462 116.881 314.06C116.673 313.67 116.287 313.477 115.715 313.477H114.319V321.206Z" fill="white"/>
<path d="M92.2679 302.269V314.29H92.3512L96.5596 302.269H100.455V321.206H96.8721V309.185H96.7887L92.6012 321.206H88.6846V302.269H92.2679Z" fill="white"/>
<path d="M83.4006 302.269V317.831H87.1297V321.206H75.8589V317.831H79.5881V302.269H83.4006Z" fill="white"/>
<path d="M63.2397 310.29H70.7814V307.727C70.7814 307.128 70.6147 306.665 70.2814 306.331C69.9481 306.008 69.4897 305.852 68.9064 305.852C68.1981 305.852 67.7293 306.06 67.4897 306.477C67.2397 306.904 67.0939 307.331 67.0522 307.748H63.2397C63.2397 306.081 63.7554 304.738 64.7814 303.727C65.271 303.196 65.8647 302.779 66.5731 302.477C67.271 302.185 68.047 302.04 68.9064 302.04C70.1043 302.04 71.1252 302.29 71.9689 302.79C72.8022 303.29 73.4429 303.946 73.8856 304.769C74.1668 305.269 74.3543 305.837 74.4481 306.477C74.547 307.128 74.5939 307.842 74.5939 308.623V314.852C74.5939 315.613 74.547 316.321 74.4481 316.977C74.3543 317.628 74.1668 318.196 73.8856 318.685C73.4429 319.519 72.8022 320.175 71.9689 320.665C71.1252 321.165 70.1043 321.415 68.9064 321.415C68.047 321.415 67.2606 321.258 66.5522 320.956C65.8439 320.665 65.2397 320.258 64.7397 319.748C63.7397 318.623 63.2397 317.212 63.2397 315.519V310.29ZM70.7814 313.29H67.0522V315.456C67.0522 316.175 67.2189 316.717 67.5522 317.081C67.8856 317.441 68.3387 317.623 68.9064 317.623C69.4897 317.623 69.9481 317.441 70.2814 317.081C70.6147 316.717 70.7814 316.175 70.7814 315.456V313.29Z" fill="white"/>
<path d="M44.1176 314.852C43.7842 314.363 43.3884 314.081 42.9301 313.998C42.4717 313.925 42.0082 314.05 41.5342 314.373C40.9405 314.79 40.6697 315.232 40.7217 315.706C40.7634 316.191 40.8832 316.628 41.0759 317.019L37.9509 319.185C37.0082 317.81 36.6697 316.415 36.9301 314.998C37.029 314.274 37.279 313.592 37.6801 312.956C38.0863 312.316 38.6488 311.748 39.3676 311.248C40.3572 310.566 41.3363 310.191 42.3051 310.123C43.2634 310.066 44.154 310.248 44.9717 310.665C45.503 310.915 45.9822 311.274 46.4301 311.748C46.8728 312.217 47.3155 312.774 47.7634 313.415L51.3259 318.54C51.753 319.165 52.1176 319.769 52.4092 320.352C52.7113 320.946 52.8884 321.524 52.9301 322.081C53.0395 323.024 52.8936 323.935 52.4926 324.81C52.0863 325.696 51.3936 326.482 50.4092 327.165C49.6853 327.665 48.9509 327.988 48.2009 328.144C47.4509 328.295 46.727 328.31 46.0342 328.185C44.5655 327.837 43.3207 326.925 42.3051 325.456L45.4301 323.29C45.8728 323.925 46.3363 324.295 46.8259 324.394C47.3103 324.488 47.7895 324.373 48.2634 324.04C48.7322 323.717 48.9978 323.316 49.0551 322.831C49.1228 322.342 48.9509 321.8 48.5342 321.206L44.1176 314.852Z" fill="white"/>
<path d="M15.6668 332.859L41.9585 336.859L41.3752 340.629L39.6668 340.379C40.1356 340.932 40.5106 341.484 40.7918 342.025C41.0835 342.577 41.1564 343.322 41.021 344.254C40.7814 345.807 40.0262 346.807 38.7502 347.254C38.3022 347.406 37.7606 347.489 37.1252 347.504C36.5002 347.515 35.672 347.442 34.646 347.275L27.521 346.192C26.146 345.984 25.1512 345.786 24.5418 345.609C23.3231 345.286 22.4897 344.588 22.0418 343.504C21.7918 342.947 21.7397 342.202 21.8752 341.275C21.9897 340.536 22.2606 339.906 22.6877 339.379C23.12 338.864 23.6564 338.442 24.3127 338.109L24.3335 338.025L15.0835 336.629L15.6668 332.859ZM34.7085 343.442C35.4585 343.551 36.0887 343.489 36.6043 343.254C37.1304 343.031 37.4429 342.598 37.5418 341.963C37.6252 341.39 37.4689 340.906 37.0835 340.504C36.7085 340.098 36.1772 339.843 35.5002 339.734L28.2293 338.629C27.6304 338.531 27.1095 338.629 26.6668 338.921C26.2345 339.223 25.9793 339.65 25.896 340.192C25.7814 340.9 25.9272 341.421 26.3335 341.754C26.7502 342.088 27.2554 342.296 27.8543 342.379L34.7085 343.442Z" fill="white"/>
<path d="M21.9867 359.954L33.9867 359.37V359.287L21.7783 355.683L21.5908 351.787L40.5075 350.87L40.6742 354.454L28.6742 355.037V355.12L40.8825 358.704L41.07 362.62L22.1533 363.537L21.9867 359.954Z" fill="white"/>
<path d="M23.9336 373.635L40.7878 365.01L42.5586 368.468L35.2669 376.51L35.3086 376.593L46.1003 375.364L47.8711 378.843L31.0169 387.468L29.3503 384.197L39.5586 378.989L39.5169 378.947L30.6836 380.01L29.8086 378.26L35.8503 371.739L35.8086 371.676L25.6003 376.885L23.9336 373.635Z" fill="white"/>
<path d="M43.3275 393.116C42.9212 393.543 42.7285 393.991 42.7441 394.45C42.7546 394.918 42.9733 395.356 43.39 395.762C43.9004 396.247 44.39 396.418 44.8483 396.283C45.3171 396.142 45.7233 395.934 46.0566 395.658L48.8275 398.283C47.6712 399.491 46.3743 400.116 44.9316 400.158C44.2077 400.2 43.4837 400.085 42.765 399.825C42.0566 399.559 41.39 399.127 40.765 398.533C39.89 397.7 39.3171 396.814 39.0566 395.887C38.8066 394.955 38.8066 394.038 39.0566 393.137C39.1921 392.585 39.4421 392.033 39.8066 391.491C40.1816 390.95 40.64 390.403 41.1816 389.846L45.4733 385.325C45.9993 384.773 46.5202 384.293 47.0358 383.887C47.5618 383.486 48.0983 383.21 48.64 383.054C49.5254 382.752 50.4421 382.71 51.39 382.929C52.3327 383.137 53.2441 383.658 54.1191 384.491C54.7441 385.09 55.2077 385.741 55.515 386.45C55.8171 387.148 55.9785 387.856 55.9941 388.575C55.9525 390.064 55.3118 391.46 54.0775 392.762L51.3066 390.137C51.8483 389.569 52.1191 389.043 52.1191 388.554C52.1191 388.069 51.9108 387.632 51.4941 387.241C51.0775 386.84 50.6243 386.653 50.14 386.679C49.6504 386.71 49.1608 386.986 48.6608 387.512L43.3275 393.116Z" fill="white"/>
<path d="M53.8726 407.834L59.0601 389.626L62.7267 390.667L60.6017 398.105L61.9976 398.501C62.5496 398.657 62.9819 398.573 63.2892 398.251C63.5913 397.917 63.883 397.475 64.1642 396.917L65.1434 394.959C65.4351 394.459 65.7528 394.021 66.1017 393.646C66.4611 393.261 66.8778 392.99 67.3517 392.834C67.8361 392.657 68.3621 392.584 68.9351 392.626C69.5184 392.657 70.1538 392.766 70.8517 392.959L70.9351 393.001L69.9976 396.251L69.8726 396.209C69.4403 396.084 69.0601 396.058 68.7267 396.126C68.4038 396.198 68.1069 396.49 67.8309 397.001L66.8934 398.917C66.8517 398.975 66.7788 399.105 66.6851 399.313C66.5861 399.521 66.4559 399.74 66.2892 399.959C66.1226 400.183 65.9194 400.396 65.6851 400.605C65.4611 400.803 65.2111 400.928 64.9351 400.98L65.9767 411.271L62.2476 410.209L61.5392 401.667L59.7267 401.167L57.5392 408.876L53.8726 407.834Z" fill="white"/>
<path d="M72.2461 397.926C72.2461 397.166 72.293 396.458 72.3919 395.801C72.4857 395.15 72.6732 394.583 72.9544 394.093C73.3971 393.26 74.0378 392.603 74.8711 392.114C75.7148 391.614 76.7357 391.364 77.9336 391.364C79.1263 391.364 80.1419 391.614 80.9753 392.114C81.8086 392.603 82.444 393.26 82.8919 394.093C83.168 394.583 83.3555 395.15 83.4544 395.801C83.5482 396.458 83.6003 397.166 83.6003 397.926V404.155C83.6003 404.937 83.5482 405.65 83.4544 406.301C83.3555 406.942 83.168 407.51 82.8919 408.01C82.444 408.833 81.8086 409.489 80.9753 409.989C80.1419 410.489 79.1263 410.739 77.9336 410.739C76.7357 410.739 75.7148 410.489 74.8711 409.989C74.0378 409.489 73.3971 408.833 72.9544 408.01C72.6732 407.51 72.4857 406.942 72.3919 406.301C72.293 405.65 72.2461 404.937 72.2461 404.155V397.926ZM76.0586 404.76C76.0586 405.484 76.2253 406.025 76.5586 406.385C76.8919 406.749 77.3503 406.926 77.9336 406.926C78.5013 406.926 78.9544 406.749 79.2878 406.385C79.6211 406.025 79.7878 405.484 79.7878 404.76V397.322C79.7878 396.603 79.6211 396.062 79.2878 395.697C78.9544 395.338 78.5013 395.155 77.9336 395.155C77.3503 395.155 76.8919 395.338 76.5586 395.697C76.2253 396.062 76.0586 396.603 76.0586 397.322V404.76Z" fill="white"/>
<path d="M94.5732 410.51V398.489H94.4899L90.2816 410.51H86.3857V391.572H89.9691V403.593H90.0524L94.2399 391.572H98.1566V410.51H94.5732ZM90.4274 384.572C90.4535 384.713 90.4743 384.895 90.4899 385.114C90.5003 385.322 90.5628 385.53 90.6774 385.739C90.7868 385.947 90.9691 386.129 91.2191 386.28C91.4691 386.437 91.8285 386.51 92.3024 386.51C92.7712 386.51 93.1357 386.437 93.3857 386.28C93.6357 386.129 93.8128 385.947 93.9274 385.739C94.0368 385.53 94.0941 385.322 94.0941 385.114C94.1045 384.895 94.1253 384.713 94.1566 384.572H97.3441C97.2191 385.963 96.7607 387.03 95.9691 387.78C95.1878 388.52 93.9691 388.885 92.3024 388.885C90.6357 388.885 89.4066 388.51 88.6149 387.76C87.8337 386.999 87.3857 385.937 87.2607 384.572H90.4274Z" fill="white"/>
<path d="M108.215 410.51V391.572H113.152C113.902 391.572 114.673 391.65 115.465 391.801C116.257 391.958 116.975 392.301 117.632 392.843C118.225 393.343 118.642 393.937 118.882 394.614C119.116 395.28 119.236 396.01 119.236 396.801C119.236 397.083 119.204 397.4 119.152 397.76C119.111 398.124 119.012 398.489 118.861 398.864C118.704 399.239 118.486 399.609 118.194 399.968C117.913 400.333 117.538 400.635 117.069 400.885C117.595 401.083 118.017 401.333 118.34 401.635C118.658 401.926 118.908 402.26 119.09 402.635C119.283 403.01 119.408 403.405 119.465 403.822C119.533 404.228 119.569 404.629 119.569 405.03C119.569 405.822 119.465 406.562 119.257 407.239C119.048 407.905 118.694 408.499 118.194 409.01C117.595 409.635 116.861 410.046 115.986 410.239C115.111 410.421 114.262 410.51 113.444 410.51H108.215ZM112.027 407.343H113.569C113.829 407.343 114.095 407.317 114.361 407.26C114.621 407.192 114.861 407.072 115.069 406.905C115.277 406.728 115.444 406.489 115.569 406.197C115.694 405.895 115.757 405.504 115.757 405.03C115.757 404.254 115.611 403.624 115.319 403.135C115.038 402.65 114.454 402.405 113.569 402.405H112.027V407.343ZM112.027 399.426H113.527C114.288 399.426 114.819 399.192 115.111 398.718C115.413 398.249 115.569 397.609 115.569 396.801C115.569 396.234 115.392 395.754 115.048 395.364C114.699 394.963 114.215 394.76 113.59 394.76H112.027V399.426Z" fill="white"/>
<path d="M129.491 410.51V408.572H129.428C128.928 409.27 128.418 409.801 127.907 410.176C127.392 410.551 126.678 410.739 125.761 410.739C125.313 410.739 124.855 410.666 124.386 410.53C123.928 410.395 123.491 410.135 123.074 409.76C122.642 409.416 122.293 408.916 122.032 408.26C121.782 407.593 121.657 406.739 121.657 405.697C121.657 404.629 121.741 403.692 121.907 402.885C122.084 402.067 122.412 401.385 122.886 400.843C123.329 400.317 123.933 399.926 124.699 399.676C125.475 399.416 126.459 399.28 127.657 399.28H128.074C128.225 399.28 128.366 399.291 128.491 399.301C128.616 399.333 128.761 399.343 128.928 399.343C129.105 399.343 129.293 399.359 129.491 399.385V397.405C129.491 396.754 129.35 396.218 129.074 395.801C128.808 395.374 128.313 395.155 127.595 395.155C127.095 395.155 126.636 395.322 126.22 395.655C125.813 395.978 125.553 396.447 125.428 397.072H121.72C121.829 395.379 122.407 394.01 123.449 392.968C123.949 392.468 124.543 392.083 125.241 391.801C125.933 391.51 126.72 391.364 127.595 391.364C128.386 391.364 129.126 391.489 129.824 391.739C130.517 391.989 131.126 392.359 131.657 392.843C132.157 393.343 132.553 393.968 132.845 394.718C133.147 395.468 133.303 396.338 133.303 397.322V410.51H129.491ZM129.491 402.364C129.074 402.296 128.725 402.26 128.449 402.26C127.626 402.26 126.928 402.458 126.345 402.843C125.761 403.234 125.47 403.937 125.47 404.947C125.47 405.671 125.642 406.254 125.991 406.697C126.334 407.145 126.824 407.364 127.449 407.364C128.084 407.364 128.584 407.155 128.949 406.739C129.308 406.322 129.491 405.728 129.491 404.947V402.364Z" fill="white"/>
<path d="M136.088 410.51V391.572H139.901V399.301H141.359C141.927 399.301 142.307 399.109 142.505 398.718C142.713 398.317 142.88 397.817 143.005 397.218L143.401 395.051C143.552 394.484 143.745 393.968 143.984 393.51C144.219 393.051 144.536 392.687 144.943 392.405C145.359 392.103 145.844 391.885 146.401 391.76C146.969 391.635 147.614 391.572 148.338 391.572H148.422V394.947H148.297C147.849 394.947 147.474 395.03 147.172 395.197C146.88 395.353 146.672 395.713 146.547 396.28L146.172 398.385C146.14 398.458 146.109 398.603 146.068 398.822C146.036 399.046 145.974 399.291 145.88 399.551C145.781 399.817 145.651 400.072 145.484 400.322C145.318 400.572 145.109 400.76 144.859 400.885L148.672 410.51H144.797L141.776 402.489H139.901V410.51H136.088Z" fill="white"/>
<path d="M148.55 410.51L153.216 400.843L148.779 391.572H152.821L155.154 396.968L157.508 391.572H161.55L157.029 400.843L161.779 410.51H157.737L155.154 404.718L152.591 410.51H148.55Z" fill="white"/>
<path d="M170.126 410.51V408.572H170.063C169.563 409.27 169.053 409.801 168.542 410.176C168.027 410.551 167.313 410.739 166.397 410.739C165.949 410.739 165.49 410.666 165.022 410.53C164.563 410.395 164.126 410.135 163.709 409.76C163.277 409.416 162.928 408.916 162.667 408.26C162.417 407.593 162.292 406.739 162.292 405.697C162.292 404.629 162.376 403.692 162.542 402.885C162.72 402.067 163.048 401.385 163.522 400.843C163.964 400.317 164.569 399.926 165.334 399.676C166.11 399.416 167.095 399.28 168.292 399.28H168.709C168.86 399.28 169.001 399.291 169.126 399.301C169.251 399.333 169.397 399.343 169.563 399.343C169.74 399.343 169.928 399.359 170.126 399.385V397.405C170.126 396.754 169.985 396.218 169.709 395.801C169.444 395.374 168.949 395.155 168.23 395.155C167.73 395.155 167.272 395.322 166.855 395.655C166.449 395.978 166.188 396.447 166.063 397.072H162.355C162.464 395.379 163.042 394.01 164.084 392.968C164.584 392.468 165.178 392.083 165.876 391.801C166.569 391.51 167.355 391.364 168.23 391.364C169.022 391.364 169.761 391.489 170.459 391.739C171.152 391.989 171.761 392.359 172.292 392.843C172.792 393.343 173.188 393.968 173.48 394.718C173.782 395.468 173.938 396.338 173.938 397.322V410.51H170.126ZM170.126 402.364C169.709 402.296 169.36 402.26 169.084 402.26C168.261 402.26 167.563 402.458 166.98 402.843C166.397 403.234 166.105 403.937 166.105 404.947C166.105 405.671 166.277 406.254 166.626 406.697C166.97 407.145 167.459 407.364 168.084 407.364C168.72 407.364 169.22 407.155 169.584 406.739C169.944 406.322 170.126 405.728 170.126 404.947V402.364Z" fill="white"/>
<path d="M176.761 410.51V391.572H180.574V399.301H184.428V391.572H188.22V410.51H184.428V402.489H180.574V410.51H176.761Z" fill="white"/>
<path d="M198.559 410.51V408.572H198.497C197.997 409.27 197.486 409.801 196.976 410.176C196.46 410.551 195.747 410.739 194.83 410.739C194.382 410.739 193.924 410.666 193.455 410.53C192.997 410.395 192.559 410.135 192.143 409.76C191.71 409.416 191.361 408.916 191.101 408.26C190.851 407.593 190.726 406.739 190.726 405.697C190.726 404.629 190.809 403.692 190.976 402.885C191.153 402.067 191.481 401.385 191.955 400.843C192.398 400.317 193.002 399.926 193.768 399.676C194.544 399.416 195.528 399.28 196.726 399.28H197.143C197.294 399.28 197.434 399.291 197.559 399.301C197.684 399.333 197.83 399.343 197.997 399.343C198.174 399.343 198.361 399.359 198.559 399.385V397.405C198.559 396.754 198.419 396.218 198.143 395.801C197.877 395.374 197.382 395.155 196.664 395.155C196.164 395.155 195.705 395.322 195.289 395.655C194.882 395.978 194.622 396.447 194.497 397.072H190.789C190.898 395.379 191.476 394.01 192.518 392.968C193.018 392.468 193.611 392.083 194.309 391.801C195.002 391.51 195.789 391.364 196.664 391.364C197.455 391.364 198.195 391.489 198.893 391.739C199.585 391.989 200.195 392.359 200.726 392.843C201.226 393.343 201.622 393.968 201.914 394.718C202.216 395.468 202.372 396.338 202.372 397.322V410.51H198.559ZM198.559 402.364C198.143 402.296 197.794 402.26 197.518 402.26C196.695 402.26 195.997 402.458 195.414 402.843C194.83 403.234 194.539 403.937 194.539 404.947C194.539 405.671 194.71 406.254 195.059 406.697C195.403 407.145 195.893 407.364 196.518 407.364C197.153 407.364 197.653 407.155 198.018 406.739C198.377 406.322 198.559 405.728 198.559 404.947V402.364Z" fill="white"/>
<path d="M203.828 406.926C204.089 406.926 204.359 406.853 204.641 406.697C204.932 406.546 205.229 406.291 205.536 405.926C205.786 405.624 205.979 405.192 206.12 404.635C206.271 404.067 206.38 403.484 206.453 402.885C206.536 402.275 206.589 401.692 206.62 401.135C206.646 400.567 206.661 400.129 206.661 399.822V391.572H217.099V410.51H213.307V394.76H210.245V398.26C210.245 399.135 210.214 400.02 210.161 400.905C210.12 401.78 210.036 402.629 209.911 403.447C209.797 404.254 209.651 405.004 209.474 405.697C209.307 406.395 209.089 406.989 208.828 407.489C208.297 408.463 207.609 409.213 206.766 409.739C205.917 410.254 204.958 410.51 203.891 410.51H203.641V406.926H203.828Z" fill="white"/>
<path d="M228.457 410.51V398.489H228.374L224.165 410.51H220.27V391.572H223.853V403.593H223.936L228.124 391.572H232.04V410.51H228.457Z" fill="white"/>
<path d="M246.179 402.489H238.637V405.051C238.637 405.65 238.804 406.114 239.137 406.447C239.471 406.77 239.929 406.926 240.512 406.926C241.221 406.926 241.689 406.718 241.929 406.301C242.179 405.874 242.325 405.447 242.366 405.03H246.179C246.179 406.697 245.663 408.041 244.637 409.051C244.148 409.583 243.554 409.999 242.846 410.301C242.148 410.593 241.372 410.739 240.512 410.739C239.314 410.739 238.293 410.489 237.45 409.989C236.616 409.489 235.976 408.833 235.533 408.01C235.252 407.51 235.064 406.942 234.971 406.301C234.872 405.65 234.825 404.937 234.825 404.155V397.926C234.825 397.166 234.872 396.458 234.971 395.801C235.064 395.15 235.252 394.583 235.533 394.093C235.976 393.26 236.616 392.603 237.45 392.114C238.293 391.614 239.314 391.364 240.512 391.364C241.372 391.364 242.158 391.52 242.866 391.822C243.575 392.114 244.179 392.52 244.679 393.03C245.679 394.155 246.179 395.567 246.179 397.26V402.489ZM238.637 399.489H242.366V397.322C242.366 396.603 242.2 396.062 241.866 395.697C241.533 395.338 241.08 395.155 240.512 395.155C239.929 395.155 239.471 395.338 239.137 395.697C238.804 396.062 238.637 396.603 238.637 397.322V399.489Z" fill="white"/>
<path d="M257.152 410.51V398.489H257.069L252.86 410.51H248.964V391.572H252.548V403.593H252.631L256.819 391.572H260.735V410.51H257.152ZM253.006 384.572C253.032 384.713 253.053 384.895 253.069 385.114C253.079 385.322 253.141 385.53 253.256 385.739C253.365 385.947 253.548 386.129 253.798 386.28C254.048 386.437 254.407 386.51 254.881 386.51C255.35 386.51 255.714 386.437 255.964 386.28C256.214 386.129 256.391 385.947 256.506 385.739C256.615 385.53 256.673 385.322 256.673 385.114C256.683 384.895 256.704 384.713 256.735 384.572H259.923C259.798 385.963 259.339 387.03 258.548 387.78C257.766 388.52 256.548 388.885 254.881 388.885C253.214 388.885 251.985 388.51 251.194 387.76C250.412 386.999 249.964 385.937 249.839 384.572H253.006Z" fill="white"/>
<path d="M263.853 410.51V406.697H267.665V410.51H263.853Z" fill="white"/>
<path d="M277.962 410.51V383.926H288.567V387.51H281.775V410.51H277.962Z" fill="white"/>
<path d="M286.803 397.926C286.803 397.166 286.85 396.458 286.949 395.801C287.043 395.15 287.23 394.583 287.512 394.093C287.954 393.26 288.595 392.603 289.428 392.114C290.272 391.614 291.293 391.364 292.491 391.364C293.683 391.364 294.699 391.614 295.532 392.114C296.366 392.603 297.001 393.26 297.449 394.093C297.725 394.583 297.913 395.15 298.012 395.801C298.105 396.458 298.157 397.166 298.157 397.926V404.155C298.157 404.937 298.105 405.65 298.012 406.301C297.913 406.942 297.725 407.51 297.449 408.01C297.001 408.833 296.366 409.489 295.532 409.989C294.699 410.489 293.683 410.739 292.491 410.739C291.293 410.739 290.272 410.489 289.428 409.989C288.595 409.489 287.954 408.833 287.512 408.01C287.23 407.51 287.043 406.942 286.949 406.301C286.85 405.65 286.803 404.937 286.803 404.155V397.926ZM290.616 404.76C290.616 405.484 290.782 406.025 291.116 406.385C291.449 406.749 291.907 406.926 292.491 406.926C293.058 406.926 293.512 406.749 293.845 406.385C294.178 406.025 294.345 405.484 294.345 404.76V397.322C294.345 396.603 294.178 396.062 293.845 395.697C293.512 395.338 293.058 395.155 292.491 395.155C291.907 395.155 291.449 395.338 291.116 395.697C290.782 396.062 290.616 396.603 290.616 397.322V404.76Z" fill="white"/>
<path d="M300.943 418.155V391.572H304.755V393.301C305.224 392.749 305.714 392.291 306.214 391.926C306.714 391.551 307.432 391.364 308.38 391.364C309.948 391.364 311.052 391.963 311.693 393.155C311.912 393.572 312.073 394.093 312.172 394.718C312.281 395.343 312.339 396.176 312.339 397.218V404.426C312.339 405.817 312.297 406.822 312.214 407.447C312.073 408.697 311.505 409.629 310.505 410.239C310.005 410.572 309.281 410.739 308.339 410.739C307.589 410.739 306.922 410.572 306.339 410.239C305.755 409.895 305.255 409.416 304.839 408.801H304.755V418.155H300.943ZM308.526 397.739C308.526 396.978 308.37 396.359 308.068 395.885C307.776 395.4 307.302 395.155 306.651 395.155C306.078 395.155 305.62 395.379 305.276 395.822C304.927 396.254 304.755 396.817 304.755 397.51V404.864C304.755 405.463 304.932 405.958 305.297 406.343C305.656 406.734 306.11 406.926 306.651 406.926C307.37 406.926 307.865 406.708 308.13 406.26C308.391 405.801 308.526 405.275 308.526 404.676V397.739Z" fill="white"/>
<path d="M322.666 410.51V408.572H322.604C322.104 409.27 321.593 409.801 321.083 410.176C320.567 410.551 319.854 410.739 318.937 410.739C318.489 410.739 318.031 410.666 317.562 410.53C317.104 410.395 316.666 410.135 316.25 409.76C315.817 409.416 315.468 408.916 315.208 408.26C314.958 407.593 314.833 406.739 314.833 405.697C314.833 404.629 314.916 403.692 315.083 402.885C315.26 402.067 315.588 401.385 316.062 400.843C316.505 400.317 317.109 399.926 317.875 399.676C318.651 399.416 319.635 399.28 320.833 399.28H321.25C321.401 399.28 321.541 399.291 321.666 399.301C321.791 399.333 321.937 399.343 322.104 399.343C322.281 399.343 322.468 399.359 322.666 399.385V397.405C322.666 396.754 322.526 396.218 322.25 395.801C321.984 395.374 321.489 395.155 320.771 395.155C320.271 395.155 319.812 395.322 319.396 395.655C318.989 395.978 318.729 396.447 318.604 397.072H314.896C315.005 395.379 315.583 394.01 316.625 392.968C317.125 392.468 317.718 392.083 318.416 391.801C319.109 391.51 319.896 391.364 320.771 391.364C321.562 391.364 322.302 391.489 323 391.739C323.692 391.989 324.302 392.359 324.833 392.843C325.333 393.343 325.729 393.968 326.021 394.718C326.323 395.468 326.479 396.338 326.479 397.322V410.51H322.666ZM322.666 402.364C322.25 402.296 321.901 402.26 321.625 402.26C320.802 402.26 320.104 402.458 319.521 402.843C318.937 403.234 318.646 403.937 318.646 404.947C318.646 405.671 318.817 406.254 319.166 406.697C319.51 407.145 320 407.364 320.625 407.364C321.26 407.364 321.76 407.155 322.125 406.739C322.484 406.322 322.666 405.728 322.666 404.947V402.364Z" fill="white"/>
<path d="M329.265 410.51V391.572H333.077V407.343H336.848V391.572H340.66V407.343H342.681V414.239H339.452V410.51H329.265Z" fill="white"/>
<path d="M352.564 410.51V398.489H352.481L348.273 410.51H344.377V391.572H347.96V403.593H348.044L352.231 391.572H356.148V410.51H352.564Z" fill="white"/>
<path d="M367.453 410.51V398.489H367.369L363.161 410.51H359.265V391.572H362.848V403.593H362.932L367.119 391.572H371.036V410.51H367.453ZM363.307 384.572C363.333 384.713 363.354 384.895 363.369 385.114C363.38 385.322 363.442 385.53 363.557 385.739C363.666 385.947 363.848 386.129 364.098 386.28C364.348 386.437 364.708 386.51 365.182 386.51C365.651 386.51 366.015 386.437 366.265 386.28C366.515 386.129 366.692 385.947 366.807 385.739C366.916 385.53 366.973 385.322 366.973 385.114C366.984 384.895 367.005 384.713 367.036 384.572H370.223C370.098 385.963 369.64 387.03 368.848 387.78C368.067 388.52 366.848 388.885 365.182 388.885C363.515 388.885 362.286 388.51 361.494 387.76C360.713 386.999 360.265 385.937 360.14 384.572H363.307Z" fill="white"/>
<path d="M381.094 410.51V391.572H392.49V410.51H388.677V394.76H384.906V410.51H381.094Z" fill="white"/>
<path d="M395.126 397.926C395.126 397.166 395.173 396.458 395.272 395.801C395.366 395.15 395.554 394.583 395.835 394.093C396.278 393.26 396.918 392.603 397.751 392.114C398.595 391.614 399.616 391.364 400.814 391.364C402.007 391.364 403.022 391.614 403.856 392.114C404.689 392.603 405.324 393.26 405.772 394.093C406.048 394.583 406.236 395.15 406.335 395.801C406.429 396.458 406.481 397.166 406.481 397.926V404.155C406.481 404.937 406.429 405.65 406.335 406.301C406.236 406.942 406.048 407.51 405.772 408.01C405.324 408.833 404.689 409.489 403.856 409.989C403.022 410.489 402.007 410.739 400.814 410.739C399.616 410.739 398.595 410.489 397.751 409.989C396.918 409.489 396.278 408.833 395.835 408.01C395.554 407.51 395.366 406.942 395.272 406.301C395.173 405.65 395.126 404.937 395.126 404.155V397.926ZM398.939 404.76C398.939 405.484 399.106 406.025 399.439 406.385C399.772 406.749 400.231 406.926 400.814 406.926C401.382 406.926 401.835 406.749 402.168 406.385C402.501 406.025 402.668 405.484 402.668 404.76V397.322C402.668 396.603 402.501 396.062 402.168 395.697C401.835 395.338 401.382 395.155 400.814 395.155C400.231 395.155 399.772 395.338 399.439 395.697C399.106 396.062 398.939 396.603 398.939 397.322V404.76Z" fill="white"/>
<path d="M409.266 410.51V391.572H413.162L416.995 401.739H417.079L420.912 391.572H424.808V410.51H421.141V399.051H421.079L418.016 407.405H416.058L412.995 399.051H412.933V410.51H409.266Z" fill="white"/>
<path d="M427.59 397.926C427.59 397.166 427.637 396.458 427.736 395.801C427.829 395.15 428.017 394.583 428.298 394.093C428.741 393.26 429.382 392.603 430.215 392.114C431.059 391.614 432.079 391.364 433.277 391.364C434.47 391.364 435.486 391.614 436.319 392.114C437.152 392.603 437.788 393.26 438.236 394.093C438.512 394.583 438.699 395.15 438.798 395.801C438.892 396.458 438.944 397.166 438.944 397.926V404.155C438.944 404.937 438.892 405.65 438.798 406.301C438.699 406.942 438.512 407.51 438.236 408.01C437.788 408.833 437.152 409.489 436.319 409.989C435.486 410.489 434.47 410.739 433.277 410.739C432.079 410.739 431.059 410.489 430.215 409.989C429.382 409.489 428.741 408.833 428.298 408.01C428.017 407.51 427.829 406.942 427.736 406.301C427.637 405.65 427.59 404.937 427.59 404.155V397.926ZM431.402 404.76C431.402 405.484 431.569 406.025 431.902 406.385C432.236 406.749 432.694 406.926 433.277 406.926C433.845 406.926 434.298 406.749 434.632 406.385C434.965 406.025 435.132 405.484 435.132 404.76V397.322C435.132 396.603 434.965 396.062 434.632 395.697C434.298 395.338 433.845 395.155 433.277 395.155C432.694 395.155 432.236 395.338 431.902 395.697C431.569 396.062 431.402 396.603 431.402 397.322V404.76Z" fill="white"/>
<path d="M448.688 391.572H452.48V399.301H453.876C454.443 399.301 454.824 399.109 455.021 398.718C455.23 398.317 455.381 397.864 455.48 397.364L455.855 395.51C455.98 394.926 456.188 394.333 456.48 393.718C456.782 393.093 457.193 392.609 457.709 392.26C458.209 391.926 458.688 391.734 459.146 391.676C459.605 391.609 460.094 391.572 460.626 391.572H460.709V394.947H460.667C460.292 394.947 459.949 395.03 459.646 395.197C459.355 395.353 459.146 395.754 459.021 396.405L458.688 398.385C458.657 398.458 458.626 398.603 458.584 398.822C458.553 399.046 458.485 399.291 458.376 399.551C458.277 399.817 458.146 400.072 457.98 400.322C457.824 400.572 457.626 400.76 457.376 400.885L460.584 410.51H456.709L454.271 402.489H452.48V410.51H448.688V402.489H446.896L444.459 410.51H440.584L443.792 400.885C443.511 400.76 443.292 400.572 443.126 400.322C442.969 400.072 442.844 399.817 442.751 399.551C442.667 399.291 442.605 399.046 442.563 398.822C442.532 398.603 442.506 398.458 442.48 398.385L442.146 396.405C442.021 395.754 441.803 395.353 441.501 395.197C441.209 395.03 440.876 394.947 440.501 394.947H440.459V391.572H440.542C441.068 391.572 441.563 391.614 442.021 391.697C442.48 391.77 442.959 391.958 443.459 392.26C444.027 392.609 444.443 393.093 444.709 393.718C444.985 394.333 445.188 394.926 445.313 395.51L445.688 397.364C445.782 397.864 445.928 398.317 446.126 398.718C446.334 399.109 446.719 399.301 447.292 399.301H448.688V391.572Z" fill="white"/>
<path d="M473.572 402.489H466.03V405.051C466.03 405.65 466.197 406.114 466.53 406.447C466.864 406.77 467.322 406.926 467.905 406.926C468.614 406.926 469.082 406.718 469.322 406.301C469.572 405.874 469.718 405.447 469.759 405.03H473.572C473.572 406.697 473.056 408.041 472.03 409.051C471.541 409.583 470.947 409.999 470.239 410.301C469.541 410.593 468.765 410.739 467.905 410.739C466.707 410.739 465.687 410.489 464.843 409.989C464.009 409.489 463.369 408.833 462.926 408.01C462.645 407.51 462.457 406.942 462.364 406.301C462.265 405.65 462.218 404.937 462.218 404.155V397.926C462.218 397.166 462.265 396.458 462.364 395.801C462.457 395.15 462.645 394.583 462.926 394.093C463.369 393.26 464.009 392.603 464.843 392.114C465.687 391.614 466.707 391.364 467.905 391.364C468.765 391.364 469.551 391.52 470.259 391.822C470.968 392.114 471.572 392.52 472.072 393.03C473.072 394.155 473.572 395.567 473.572 397.26V402.489ZM466.03 399.489H469.759V397.322C469.759 396.603 469.593 396.062 469.259 395.697C468.926 395.338 468.473 395.155 467.905 395.155C467.322 395.155 466.864 395.338 466.53 395.697C466.197 396.062 466.03 396.603 466.03 397.322V399.489Z" fill="white"/>
<path d="M478.524 410.51V394.947H474.795V391.572H486.066V394.947H482.337V410.51H478.524Z" fill="white"/>
<path d="M486.507 410.51V406.697H490.319V410.51H486.507Z" fill="white"/>
<path d="M506.263 387.28V395.01C506.263 395.416 506.247 396.093 506.221 397.051C506.19 398.01 506.127 399.067 506.034 400.218C505.935 401.359 505.784 402.489 505.575 403.614C505.377 404.728 505.107 405.655 504.763 406.405C504.164 407.671 503.398 408.671 502.471 409.405C501.555 410.145 500.435 410.51 499.117 410.51H498.909V406.697C499.643 406.655 500.221 406.437 500.638 406.03C501.065 405.629 501.419 405.129 501.7 404.53C501.919 404.02 502.101 403.385 502.242 402.635C502.377 401.885 502.482 401.088 502.555 400.239C502.638 399.395 502.685 398.525 502.7 397.635C502.726 396.734 502.742 395.874 502.742 395.051V383.926H513.805V410.51H509.992V387.28H506.263Z" fill="white"/>
<path d="M528.163 402.489H520.621V405.051C520.621 405.65 520.788 406.114 521.121 406.447C521.454 406.77 521.913 406.926 522.496 406.926C523.204 406.926 523.673 406.718 523.913 406.301C524.163 405.874 524.309 405.447 524.35 405.03H528.163C528.163 406.697 527.647 408.041 526.621 409.051C526.132 409.583 525.538 409.999 524.829 410.301C524.132 410.593 523.355 410.739 522.496 410.739C521.298 410.739 520.277 410.489 519.434 409.989C518.6 409.489 517.96 408.833 517.517 408.01C517.236 407.51 517.048 406.942 516.954 406.301C516.855 405.65 516.809 404.937 516.809 404.155V397.926C516.809 397.166 516.855 396.458 516.954 395.801C517.048 395.15 517.236 394.583 517.517 394.093C517.96 393.26 518.6 392.603 519.434 392.114C520.277 391.614 521.298 391.364 522.496 391.364C523.355 391.364 524.142 391.52 524.85 391.822C525.559 392.114 526.163 392.52 526.663 393.03C527.663 394.155 528.163 395.567 528.163 397.26V402.489ZM520.621 399.489H524.35V397.322C524.35 396.603 524.184 396.062 523.85 395.697C523.517 395.338 523.064 395.155 522.496 395.155C521.913 395.155 521.454 395.338 521.121 395.697C520.788 396.062 520.621 396.603 520.621 397.322V399.489Z" fill="white"/>
<path d="M530.615 397.926C530.615 397.166 530.662 396.458 530.761 395.801C530.854 395.15 531.042 394.583 531.323 394.093C531.766 393.26 532.406 392.603 533.24 392.114C534.083 391.614 535.104 391.364 536.302 391.364C537.495 391.364 538.511 391.614 539.344 392.114C540.177 392.603 540.813 393.26 541.261 394.093C541.537 394.583 541.724 395.15 541.823 395.801C541.917 396.458 541.969 397.166 541.969 397.926V404.155C541.969 404.937 541.917 405.65 541.823 406.301C541.724 406.942 541.537 407.51 541.261 408.01C540.813 408.833 540.177 409.489 539.344 409.989C538.511 410.489 537.495 410.739 536.302 410.739C535.104 410.739 534.083 410.489 533.24 409.989C532.406 409.489 531.766 408.833 531.323 408.01C531.042 407.51 530.854 406.942 530.761 406.301C530.662 405.65 530.615 404.937 530.615 404.155V397.926ZM534.427 404.76C534.427 405.484 534.594 406.025 534.927 406.385C535.261 406.749 535.719 406.926 536.302 406.926C536.87 406.926 537.323 406.749 537.656 406.385C537.99 406.025 538.156 405.484 538.156 404.76V397.322C538.156 396.603 537.99 396.062 537.656 395.697C537.323 395.338 536.87 395.155 536.302 395.155C535.719 395.155 535.261 395.338 534.927 395.697C534.594 396.062 534.427 396.603 534.427 397.322V404.76Z" fill="white"/>
<path d="M544.754 410.51V391.572H548.567V399.301H552.421V391.572H556.213V410.51H552.421V402.489H548.567V410.51H544.754Z" fill="white"/>
<path d="M566.553 410.51V408.572H566.49C565.99 409.27 565.48 409.801 564.969 410.176C564.454 410.551 563.74 410.739 562.823 410.739C562.375 410.739 561.917 410.666 561.448 410.53C560.99 410.395 560.553 410.135 560.136 409.76C559.704 409.416 559.355 408.916 559.094 408.26C558.844 407.593 558.719 406.739 558.719 405.697C558.719 404.629 558.803 403.692 558.969 402.885C559.146 402.067 559.474 401.385 559.948 400.843C560.391 400.317 560.995 399.926 561.761 399.676C562.537 399.416 563.521 399.28 564.719 399.28H565.136C565.287 399.28 565.428 399.291 565.553 399.301C565.678 399.333 565.823 399.343 565.99 399.343C566.167 399.343 566.355 399.359 566.553 399.385V397.405C566.553 396.754 566.412 396.218 566.136 395.801C565.87 395.374 565.375 395.155 564.657 395.155C564.157 395.155 563.698 395.322 563.282 395.655C562.875 395.978 562.615 396.447 562.49 397.072H558.782C558.891 395.379 559.469 394.01 560.511 392.968C561.011 392.468 561.605 392.083 562.303 391.801C562.995 391.51 563.782 391.364 564.657 391.364C565.448 391.364 566.188 391.489 566.886 391.739C567.579 391.989 568.188 392.359 568.719 392.843C569.219 393.343 569.615 393.968 569.907 394.718C570.209 395.468 570.365 396.338 570.365 397.322V410.51H566.553ZM566.553 402.364C566.136 402.296 565.787 402.26 565.511 402.26C564.688 402.26 563.99 402.458 563.407 402.843C562.823 403.234 562.532 403.937 562.532 404.947C562.532 405.671 562.704 406.254 563.053 406.697C563.396 407.145 563.886 407.364 564.511 407.364C565.146 407.364 565.646 407.155 566.011 406.739C566.37 406.322 566.553 405.728 566.553 404.947V402.364Z" fill="white"/>
<path d="M573.15 418.155V391.572H576.963V393.301C577.432 392.749 577.921 392.291 578.421 391.926C578.921 391.551 579.64 391.364 580.588 391.364C582.156 391.364 583.26 391.963 583.9 393.155C584.119 393.572 584.281 394.093 584.38 394.718C584.489 395.343 584.546 396.176 584.546 397.218V404.426C584.546 405.817 584.505 406.822 584.421 407.447C584.281 408.697 583.713 409.629 582.713 410.239C582.213 410.572 581.489 410.739 580.546 410.739C579.796 410.739 579.13 410.572 578.546 410.239C577.963 409.895 577.463 409.416 577.046 408.801H576.963V418.155H573.15ZM580.734 397.739C580.734 396.978 580.577 396.359 580.275 395.885C579.984 395.4 579.51 395.155 578.859 395.155C578.286 395.155 577.827 395.379 577.484 395.822C577.135 396.254 576.963 396.817 576.963 397.51V404.864C576.963 405.463 577.14 405.958 577.505 406.343C577.864 406.734 578.317 406.926 578.859 406.926C579.577 406.926 580.072 406.708 580.338 406.26C580.598 405.801 580.734 405.275 580.734 404.676V397.739Z" fill="white"/>
<path d="M589.022 410.51V414.239H585.813V407.343H587.522C587.798 406.817 588.043 406.124 588.251 405.26C588.459 404.385 588.626 403.463 588.751 402.489C588.845 401.687 588.907 400.864 588.938 400.03C588.965 399.187 588.98 398.405 588.98 397.697V391.572H599.438V407.343H601.23V414.239H598.022V410.51H589.022ZM592.563 394.76V397.593C592.563 397.916 592.548 398.312 592.522 398.78C592.491 399.239 592.459 399.713 592.418 400.197C592.386 400.671 592.355 401.145 592.313 401.614C592.282 402.072 592.241 402.463 592.188 402.78C592.09 403.437 591.928 404.208 591.709 405.093C591.501 405.968 591.261 406.718 591.001 407.343H595.626V394.76H592.563Z" fill="white"/>
<path d="M602.631 397.926C602.631 397.166 602.678 396.458 602.777 395.801C602.871 395.15 603.058 394.583 603.34 394.093C603.782 393.26 604.423 392.603 605.256 392.114C606.1 391.614 607.121 391.364 608.319 391.364C609.512 391.364 610.527 391.614 611.361 392.114C612.194 392.603 612.829 393.26 613.277 394.093C613.553 394.583 613.741 395.15 613.84 395.801C613.933 396.458 613.986 397.166 613.986 397.926V404.155C613.986 404.937 613.933 405.65 613.84 406.301C613.741 406.942 613.553 407.51 613.277 408.01C612.829 408.833 612.194 409.489 611.361 409.989C610.527 410.489 609.512 410.739 608.319 410.739C607.121 410.739 606.1 410.489 605.256 409.989C604.423 409.489 603.782 408.833 603.34 408.01C603.058 407.51 602.871 406.942 602.777 406.301C602.678 405.65 602.631 404.937 602.631 404.155V397.926ZM606.444 404.76C606.444 405.484 606.611 406.025 606.944 406.385C607.277 406.749 607.736 406.926 608.319 406.926C608.887 406.926 609.34 406.749 609.673 406.385C610.006 406.025 610.173 405.484 610.173 404.76V397.322C610.173 396.603 610.006 396.062 609.673 395.697C609.34 395.338 608.887 395.155 608.319 395.155C607.736 395.155 607.277 395.338 606.944 395.697C606.611 396.062 606.444 396.603 606.444 397.322V404.76Z" fill="white"/>
<path d="M623.711 410.51V391.572H627.524V399.301H631.378V391.572H635.17V410.51H631.378V402.489H627.524V410.51H623.711Z" fill="white"/>
<path d="M645.51 410.51V408.572H645.447C644.947 409.27 644.437 409.801 643.926 410.176C643.411 410.551 642.697 410.739 641.78 410.739C641.333 410.739 640.874 410.666 640.405 410.53C639.947 410.395 639.51 410.135 639.093 409.76C638.661 409.416 638.312 408.916 638.051 408.26C637.801 407.593 637.676 406.739 637.676 405.697C637.676 404.629 637.76 403.692 637.926 402.885C638.103 402.067 638.431 401.385 638.905 400.843C639.348 400.317 639.952 399.926 640.718 399.676C641.494 399.416 642.478 399.28 643.676 399.28H644.093C644.244 399.28 644.385 399.291 644.51 399.301C644.635 399.333 644.78 399.343 644.947 399.343C645.124 399.343 645.312 399.359 645.51 399.385V397.405C645.51 396.754 645.369 396.218 645.093 395.801C644.827 395.374 644.333 395.155 643.614 395.155C643.114 395.155 642.655 395.322 642.239 395.655C641.833 395.978 641.572 396.447 641.447 397.072H637.739C637.848 395.379 638.426 394.01 639.468 392.968C639.968 392.468 640.562 392.083 641.26 391.801C641.952 391.51 642.739 391.364 643.614 391.364C644.405 391.364 645.145 391.489 645.843 391.739C646.536 391.989 647.145 392.359 647.676 392.843C648.176 393.343 648.572 393.968 648.864 394.718C649.166 395.468 649.322 396.338 649.322 397.322V410.51H645.51ZM645.51 402.364C645.093 402.296 644.744 402.26 644.468 402.26C643.645 402.26 642.947 402.458 642.364 402.843C641.78 403.234 641.489 403.937 641.489 404.947C641.489 405.671 641.661 406.254 642.01 406.697C642.353 407.145 642.843 407.364 643.468 407.364C644.103 407.364 644.603 407.155 644.968 406.739C645.327 406.322 645.51 405.728 645.51 404.947V402.364Z" fill="white"/>
<path d="M663.052 405.051C663.052 405.65 663.219 406.114 663.552 406.447C663.886 406.77 664.333 406.926 664.906 406.926C665.625 406.926 666.104 406.718 666.344 406.301C666.578 405.874 666.724 405.447 666.781 405.03H670.594C670.594 406.697 670.078 408.041 669.052 409.051C668.552 409.583 667.953 409.999 667.261 410.301C666.563 410.593 665.781 410.739 664.906 410.739C663.708 410.739 662.698 410.489 661.865 409.989C661.031 409.489 660.391 408.833 659.948 408.01C659.667 407.51 659.479 406.942 659.386 406.301C659.287 405.65 659.24 404.937 659.24 404.155V397.926C659.24 397.166 659.287 396.458 659.386 395.801C659.479 395.15 659.667 394.583 659.948 394.093C660.391 393.26 661.031 392.603 661.865 392.114C662.698 391.614 663.708 391.364 664.906 391.364C665.781 391.364 666.573 391.52 667.281 391.822C667.99 392.114 668.594 392.52 669.094 393.03C670.094 394.155 670.594 395.614 670.594 397.405H666.781C666.781 396.629 666.615 396.062 666.281 395.697C665.948 395.338 665.49 395.155 664.906 395.155C664.333 395.155 663.886 395.338 663.552 395.697C663.219 396.062 663.052 396.603 663.052 397.322V405.051Z" fill="white"/>
<path d="M672.817 410.51V391.572H677.754C678.504 391.572 679.275 391.65 680.067 391.801C680.859 391.958 681.577 392.301 682.234 392.843C682.827 393.343 683.244 393.937 683.484 394.614C683.718 395.28 683.838 396.01 683.838 396.801C683.838 397.083 683.806 397.4 683.754 397.76C683.713 398.124 683.614 398.489 683.463 398.864C683.306 399.239 683.088 399.609 682.796 399.968C682.515 400.333 682.14 400.635 681.671 400.885C682.197 401.083 682.619 401.333 682.942 401.635C683.26 401.926 683.51 402.26 683.692 402.635C683.885 403.01 684.01 403.405 684.067 403.822C684.135 404.228 684.171 404.629 684.171 405.03C684.171 405.822 684.067 406.562 683.859 407.239C683.65 407.905 683.296 408.499 682.796 409.01C682.197 409.635 681.463 410.046 680.588 410.239C679.713 410.421 678.864 410.51 678.046 410.51H672.817ZM676.629 407.343H678.171C678.431 407.343 678.697 407.317 678.963 407.26C679.223 407.192 679.463 407.072 679.671 406.905C679.879 406.728 680.046 406.489 680.171 406.197C680.296 405.895 680.359 405.504 680.359 405.03C680.359 404.254 680.213 403.624 679.921 403.135C679.64 402.65 679.056 402.405 678.171 402.405H676.629V407.343ZM676.629 399.426H678.129C678.89 399.426 679.421 399.192 679.713 398.718C680.015 398.249 680.171 397.609 680.171 396.801C680.171 396.234 679.994 395.754 679.65 395.364C679.301 394.963 678.817 394.76 678.192 394.76H676.629V399.426Z" fill="white"/>
<path d="M693.863 410.51V402.968H692.238L689.843 410.51H685.947L688.801 402.405C688.218 402.155 687.759 401.812 687.426 401.364C687.093 400.921 686.843 400.447 686.676 399.947C686.52 399.447 686.426 398.963 686.384 398.489C686.343 398.02 686.322 397.645 686.322 397.364C686.322 396.572 686.457 395.739 686.738 394.864C687.014 393.989 687.473 393.296 688.113 392.78C688.764 392.228 689.457 391.885 690.197 391.76C690.931 391.635 691.666 391.572 692.405 391.572H697.676V410.51H693.863ZM693.863 394.76H692.009C691.259 394.76 690.759 395.041 690.509 395.593C690.259 396.135 690.134 396.775 690.134 397.51C690.134 399.135 690.832 399.947 692.238 399.947H693.863V394.76Z" fill="white"/>
<path d="M699.948 396.885C700 396.135 700.167 395.437 700.448 394.78C700.74 394.114 701.125 393.53 701.615 393.03C702.099 392.52 702.677 392.114 703.344 391.822C704.021 391.52 704.761 391.364 705.552 391.364C706.344 391.364 707.104 391.499 707.844 391.76C708.578 392.01 709.209 392.385 709.74 392.885C710.224 393.359 710.615 393.926 710.907 394.593C711.198 395.249 711.344 395.984 711.344 396.801C711.344 397.083 711.313 397.4 711.261 397.76C711.203 398.124 711.094 398.489 710.927 398.864C710.771 399.239 710.537 399.609 710.219 399.968C709.912 400.333 709.5 400.635 708.99 400.885C709.532 401.083 709.979 401.333 710.344 401.635C710.703 401.926 710.974 402.26 711.157 402.635C711.349 403.01 711.479 403.405 711.552 403.822C711.636 404.228 711.677 404.629 711.677 405.03C711.677 405.796 711.552 406.489 711.302 407.114C711.052 407.739 710.677 408.322 710.177 408.864C709.636 409.463 708.969 409.926 708.177 410.26C707.396 410.577 706.542 410.739 705.615 410.739C703.849 410.739 702.417 410.155 701.323 408.989C700.349 407.937 699.828 406.614 699.761 405.03H703.344C703.396 405.697 703.604 406.218 703.969 406.593C704.328 406.968 704.87 407.155 705.594 407.155C706.229 407.155 706.745 406.963 707.136 406.572C707.521 406.187 707.719 405.614 707.719 404.864C707.719 404.145 707.558 403.567 707.24 403.135C706.933 402.708 706.37 402.489 705.552 402.489H704.365V399.301H705.407C706.141 399.301 706.677 399.124 707.011 398.76C707.354 398.385 707.532 397.775 707.532 396.926C707.532 396.374 707.354 395.905 707.011 395.53C706.662 395.145 706.177 394.947 705.552 394.947C705.052 394.947 704.599 395.093 704.198 395.385C703.808 395.666 703.584 396.166 703.532 396.885H699.948Z" fill="white"/>
<path d="M722.647 410.51V398.489H722.564L718.355 410.51H714.459V391.572H718.043V403.593H718.126L722.314 391.572H726.23V410.51H722.647Z" fill="white"/>
<path d="M729.348 410.51V406.697H733.161V410.51H729.348Z" fill="white"/>
<path d="M751.315 401.42L750.044 391.691L749.96 391.67L747.523 401.191L751.315 401.42ZM741.398 410.128L748.898 383.941L752.065 384.128L756.419 411.024L752.606 410.795L751.815 405.024L746.648 404.711L745.19 410.357L741.398 410.128Z" fill="white"/>
<path d="M756.533 407.389C756.768 407.503 757.044 407.55 757.367 407.534C757.684 407.524 758.059 407.42 758.492 407.222C758.835 407.055 759.189 406.753 759.554 406.305C759.929 405.847 760.273 405.362 760.596 404.847C760.929 404.321 761.226 403.816 761.492 403.326C761.752 402.826 761.95 402.441 762.075 402.159L765.554 394.68L775.012 399.076L767.033 416.243L763.596 414.639L770.242 400.368L767.471 399.076L765.992 402.243C765.617 403.034 765.221 403.821 764.804 404.597C764.398 405.378 763.971 406.112 763.512 406.805C763.064 407.487 762.617 408.112 762.158 408.68C761.71 409.237 761.262 409.691 760.804 410.034C759.929 410.685 758.992 411.066 757.992 411.18C757.002 411.29 756.033 411.123 755.075 410.68L754.846 410.576L756.367 407.326L756.533 407.389Z" fill="white"/>
<path d="M769.405 413.335C769.582 413.533 769.827 413.684 770.134 413.794C770.436 413.892 770.827 413.929 771.301 413.898C771.686 413.872 772.139 413.726 772.655 413.46C773.165 413.184 773.665 412.866 774.155 412.502C774.655 412.142 775.118 411.783 775.551 411.419C775.978 411.059 776.306 410.767 776.53 410.544L782.53 404.898L789.676 412.481L775.884 425.46L773.301 422.71L784.78 411.919L782.676 409.689L780.113 412.085C779.473 412.684 778.811 413.267 778.134 413.835C777.467 414.408 776.801 414.929 776.134 415.398C775.467 415.856 774.811 416.257 774.176 416.606C773.551 416.965 772.967 417.221 772.426 417.377C771.353 417.669 770.342 417.679 769.384 417.419C768.426 417.153 767.577 416.632 766.842 415.856L766.676 415.669L769.28 413.21L769.405 413.335Z" fill="white"/>
<path d="M786.829 421.305C787.522 420.988 788.183 420.738 788.808 420.555C789.444 420.363 790.043 420.284 790.6 420.326C791.543 420.383 792.412 420.691 793.204 421.243C794.006 421.8 794.668 422.618 795.183 423.701C795.683 424.784 795.881 425.805 795.787 426.764C795.704 427.722 795.376 428.576 794.808 429.326C794.485 429.784 794.048 430.191 793.496 430.555C792.954 430.93 792.334 431.274 791.642 431.597L785.996 434.243C785.298 434.576 784.631 434.831 783.996 435.014C783.371 435.191 782.772 435.264 782.204 435.222C781.272 435.165 780.402 434.868 779.6 434.326C778.793 433.795 778.142 432.993 777.642 431.909C777.126 430.826 776.918 429.79 777.017 428.805C777.11 427.831 777.438 426.972 777.996 426.222C778.329 425.764 778.767 425.357 779.308 424.993C779.86 424.633 780.485 424.284 781.183 423.951L786.829 421.305ZM782.246 427.659C781.589 427.961 781.173 428.347 780.996 428.805C780.813 429.264 780.85 429.753 781.1 430.284C781.334 430.795 781.683 431.123 782.142 431.264C782.61 431.415 783.173 431.336 783.829 431.034L790.558 427.889C791.225 427.581 791.647 427.201 791.829 426.743C792.022 426.295 792.001 425.816 791.767 425.305C791.517 424.779 791.152 424.441 790.683 424.284C790.209 424.133 789.642 424.211 788.975 424.514L782.246 427.659Z" fill="white"/>
<path d="M796.876 432.997L798.896 432.163C799.615 431.861 800.355 431.705 801.105 431.705C801.865 431.705 802.589 431.851 803.271 432.142C803.938 432.434 804.542 432.846 805.084 433.372C805.636 433.903 806.068 434.528 806.376 435.247C806.735 436.111 806.886 436.965 806.834 437.809C806.777 438.642 806.542 439.424 806.126 440.163C805.886 440.523 805.667 440.83 805.459 441.08C805.261 441.34 805.021 441.585 804.73 441.809C804.214 442.226 803.438 442.648 802.396 443.08C801.782 443.33 801.277 443.528 800.876 443.684C800.485 443.835 800.126 443.955 799.792 444.038C799.485 444.132 799.209 444.189 798.959 444.205C798.719 444.215 798.485 444.205 798.251 444.163L793.167 443.497C792.844 443.455 792.511 443.434 792.167 443.434C791.834 443.445 791.506 443.517 791.188 443.642L788.417 444.809L786.938 441.288L790.146 439.955C790.646 439.731 791.157 439.606 791.688 439.58C792.23 439.549 792.761 439.57 793.292 439.642L797.834 440.351C798.193 440.403 798.563 440.382 798.938 440.288C799.313 440.205 799.673 440.09 800.021 439.955L801.813 439.205C802.298 438.997 802.646 438.658 802.855 438.184C803.063 437.7 803.063 437.215 802.855 436.726C802.673 436.325 802.355 435.991 801.896 435.726C801.438 435.45 800.917 435.434 800.334 435.684L798.355 436.497L796.876 432.997ZM780.896 443.83L784.417 442.351L785.896 445.872L782.376 447.351L780.896 443.83Z" fill="white"/>
<path d="M778.126 479.141L776.792 478.183C776.126 477.709 775.584 477.131 775.167 476.454C774.751 475.771 774.469 475.037 774.313 474.245C774.178 473.48 774.183 472.693 774.334 471.891C774.49 471.099 774.808 470.36 775.292 469.683C775.709 469.084 776.225 468.537 776.834 468.037C777.433 467.547 778.105 467.209 778.855 467.016C779.605 466.834 780.402 466.813 781.251 466.954C782.11 467.089 783.042 467.516 784.042 468.224L795.938 476.745C796.646 477.245 797.214 477.834 797.646 478.516C798.089 479.193 798.365 479.917 798.48 480.683C798.615 481.443 798.594 482.224 798.417 483.016C798.235 483.818 797.876 484.599 797.334 485.349C796.292 486.808 794.959 487.646 793.334 487.87C792.553 487.995 791.756 487.954 790.938 487.745C790.115 487.537 789.339 487.167 788.605 486.641L787.376 485.766L789.584 482.683L790.626 483.412C791.235 483.855 791.886 484.063 792.584 484.037C793.277 484.006 793.834 483.704 794.251 483.12C794.803 482.339 794.928 481.652 794.626 481.058C794.334 480.474 793.823 479.917 793.105 479.391L782.042 471.474C781.417 471.027 780.792 470.787 780.167 470.745C779.558 470.714 778.995 471.058 778.48 471.766C778.344 471.974 778.225 472.214 778.126 472.495C778.032 472.787 777.99 473.089 778.001 473.412C778.032 473.704 778.141 474.006 778.334 474.329C778.532 474.662 778.844 474.98 779.271 475.287L780.334 476.058L778.126 479.141Z" fill="white"/>
<path d="M772.497 475.589L782.351 491.756L778.143 494.318C777.486 494.704 776.778 495.047 776.018 495.339C775.268 495.631 774.476 495.704 773.643 495.568C772.866 495.454 772.205 495.172 771.663 494.714C771.111 494.266 770.622 493.704 770.205 493.027C770.07 492.787 769.929 492.506 769.788 492.172C769.637 491.839 769.533 491.469 769.476 491.068C769.408 490.662 769.403 490.235 769.455 489.777C769.512 489.329 769.674 488.881 769.934 488.422C769.393 488.532 768.908 488.537 768.476 488.443C768.049 488.36 767.658 488.204 767.309 487.985C766.95 487.761 766.637 487.49 766.372 487.172C766.111 486.849 765.872 486.527 765.663 486.193C765.247 485.511 764.955 484.823 764.788 484.131C764.611 483.448 764.596 482.756 764.747 482.047C764.945 481.214 765.366 480.485 766.018 479.86C766.658 479.245 767.33 478.735 768.038 478.318L772.497 475.589ZM770.893 480.277L769.559 481.089C769.34 481.224 769.137 481.386 768.955 481.568C768.762 481.745 768.622 481.969 768.538 482.235C768.445 482.495 768.424 482.787 768.476 483.11C768.518 483.428 768.663 483.787 768.913 484.193C769.32 484.844 769.768 485.303 770.268 485.568C770.757 485.844 771.372 485.756 772.122 485.297L773.455 484.485L770.893 480.277ZM775.018 487.027L773.726 487.818C773.075 488.204 772.741 488.678 772.726 489.235C772.715 489.803 772.913 490.433 773.33 491.131C773.637 491.615 774.038 491.933 774.538 492.089C775.038 492.256 775.559 492.172 776.101 491.839L777.434 491.027L775.018 487.027Z" fill="white"/>
<path d="M755.268 483.019L756.872 490.394L758.476 490.04L759.205 482.165L763.018 481.331L761.934 489.852C762.559 489.977 763.091 490.217 763.518 490.581C763.934 490.941 764.268 491.352 764.518 491.81C764.778 492.269 764.981 492.717 765.122 493.165C765.257 493.623 765.361 493.988 765.434 494.269C765.601 495.029 765.632 495.873 765.539 496.79C765.455 497.717 765.153 498.498 764.643 499.123C764.127 499.8 763.528 500.279 762.83 500.56C762.122 500.836 761.414 501.05 760.705 501.206L755.539 502.31L751.539 483.81L755.268 483.019ZM758.601 498.415L760.414 498.019C761.153 497.852 761.58 497.477 761.705 496.894C761.83 496.31 761.82 495.654 761.664 494.935C761.32 493.352 760.466 492.706 759.101 492.998L757.497 493.352L758.601 498.415Z" fill="white"/>
<path d="M742.766 502.64H738.975V494.911H737.579C737.011 494.911 736.631 495.103 736.433 495.494C736.225 495.895 736.074 496.348 735.975 496.848L735.6 498.702C735.475 499.286 735.266 499.879 734.975 500.494C734.673 501.119 734.261 501.603 733.746 501.952C733.246 502.286 732.766 502.478 732.308 502.536C731.85 502.603 731.36 502.64 730.829 502.64H730.746V499.265H730.787C731.162 499.265 731.506 499.182 731.808 499.015C732.1 498.859 732.308 498.458 732.433 497.807L732.766 495.827C732.798 495.754 732.829 495.609 732.871 495.39C732.902 495.166 732.97 494.921 733.079 494.661C733.178 494.395 733.308 494.14 733.475 493.89C733.631 493.64 733.829 493.452 734.079 493.327L730.871 483.702H734.746L737.183 491.723H738.975V483.702H742.766V491.723H744.558L746.996 483.702H750.871L747.662 493.327C747.944 493.452 748.162 493.64 748.329 493.89C748.485 494.14 748.61 494.395 748.704 494.661C748.787 494.921 748.85 495.166 748.891 495.39C748.923 495.609 748.949 495.754 748.975 495.827L749.308 497.807C749.433 498.458 749.652 498.859 749.954 499.015C750.246 499.182 750.579 499.265 750.954 499.265H750.996V502.64H750.912C750.386 502.64 749.891 502.598 749.433 502.515C748.975 502.442 748.496 502.254 747.996 501.952C747.428 501.603 747.011 501.119 746.746 500.494C746.47 499.879 746.266 499.286 746.141 498.702L745.766 496.848C745.673 496.348 745.527 495.895 745.329 495.494C745.121 495.103 744.735 494.911 744.162 494.911H742.766V502.64Z" fill="white"/>
<path d="M720.716 483.702V495.723H720.799L725.008 483.702H728.904V502.64H725.32V490.619H725.237L721.049 502.64H717.133V483.702H720.716Z" fill="white"/>
<path d="M711.848 483.702V499.265H715.577V502.64H704.307V499.265H708.036V483.702H711.848Z" fill="white"/>
<path d="M691.725 491.723H699.267V489.161C699.267 488.562 699.1 488.098 698.767 487.765C698.433 487.442 697.975 487.286 697.392 487.286C696.683 487.286 696.215 487.494 695.975 487.911C695.725 488.338 695.579 488.765 695.538 489.182H691.725C691.725 487.515 692.241 486.171 693.267 485.161C693.756 484.629 694.35 484.213 695.058 483.911C695.756 483.619 696.532 483.473 697.392 483.473C698.59 483.473 699.611 483.723 700.454 484.223C701.288 484.723 701.928 485.379 702.371 486.202C702.652 486.702 702.84 487.27 702.933 487.911C703.032 488.562 703.079 489.275 703.079 490.057V496.286C703.079 497.046 703.032 497.754 702.933 498.411C702.84 499.062 702.652 499.629 702.371 500.119C701.928 500.952 701.288 501.609 700.454 502.098C699.611 502.598 698.59 502.848 697.392 502.848C696.532 502.848 695.746 502.692 695.038 502.39C694.329 502.098 693.725 501.692 693.225 501.182C692.225 500.057 691.725 498.645 691.725 496.952V491.723ZM699.267 494.723H695.538V496.89C695.538 497.609 695.704 498.15 696.038 498.515C696.371 498.874 696.824 499.057 697.392 499.057C697.975 499.057 698.433 498.874 698.767 498.515C699.1 498.15 699.267 497.609 699.267 496.89V494.723Z" fill="white"/>
<path d="M677.958 489.161C677.958 488.562 677.791 488.098 677.458 487.765C677.124 487.442 676.676 487.286 676.104 487.286C675.385 487.286 674.906 487.494 674.666 487.911C674.432 488.338 674.286 488.765 674.229 489.182H670.416C670.416 487.515 670.932 486.171 671.958 485.161C672.458 484.629 673.057 484.213 673.749 483.911C674.447 483.619 675.229 483.473 676.104 483.473C677.301 483.473 678.312 483.723 679.145 484.223C679.979 484.723 680.619 485.379 681.062 486.202C681.343 486.702 681.531 487.27 681.624 487.911C681.723 488.562 681.77 489.275 681.77 490.057V496.286C681.77 497.046 681.723 497.754 681.624 498.411C681.531 499.062 681.343 499.629 681.062 500.119C680.619 500.952 679.979 501.609 679.145 502.098C678.312 502.598 677.301 502.848 676.104 502.848C675.229 502.848 674.437 502.692 673.729 502.39C673.02 502.098 672.416 501.692 671.916 501.182C670.916 500.057 670.416 498.598 670.416 496.807H674.229C674.229 497.583 674.395 498.15 674.729 498.515C675.062 498.874 675.52 499.057 676.104 499.057C676.676 499.057 677.124 498.874 677.458 498.515C677.791 498.15 677.958 497.609 677.958 496.89V489.161Z" fill="white"/>
<path d="M661.253 476.057V502.64H657.44V500.911C656.972 501.463 656.482 501.921 655.982 502.286C655.482 502.661 654.763 502.848 653.815 502.848C652.248 502.848 651.143 502.249 650.503 501.057C650.284 500.64 650.123 500.119 650.024 499.494C649.914 498.869 649.857 498.036 649.857 496.994V489.786C649.857 488.395 649.899 487.39 649.982 486.765C650.123 485.515 650.69 484.583 651.69 483.973C652.19 483.64 652.914 483.473 653.857 483.473C654.607 483.473 655.274 483.64 655.857 483.973C656.44 484.317 656.94 484.796 657.357 485.411H657.44V476.057H661.253ZM653.669 496.473C653.669 497.234 653.826 497.853 654.128 498.327C654.419 498.812 654.893 499.057 655.544 499.057C656.117 499.057 656.576 498.833 656.919 498.39C657.268 497.958 657.44 497.395 657.44 496.702V489.348C657.44 488.749 657.263 488.254 656.899 487.869C656.539 487.478 656.086 487.286 655.544 487.286C654.826 487.286 654.331 487.504 654.065 487.952C653.805 488.411 653.669 488.937 653.669 489.536V496.473Z" fill="white"/>
<path d="M638.55 483.702V495.723H638.633L642.842 483.702H646.738V502.64H643.154V490.619H643.071L638.883 502.64H634.967V483.702H638.55Z" fill="white"/>
<path d="M631.849 483.702V502.64H627.953L624.12 492.473H624.036L620.203 502.64H616.307V483.702H619.974V495.161H620.036L623.099 486.807H625.057L628.12 495.161H628.182V483.702H631.849Z" fill="white"/>
<path d="M609.15 489.161C609.15 488.562 608.983 488.098 608.65 487.765C608.317 487.442 607.869 487.286 607.296 487.286C606.577 487.286 606.098 487.494 605.858 487.911C605.624 488.338 605.478 488.765 605.421 489.182H601.608C601.608 487.515 602.124 486.171 603.15 485.161C603.65 484.629 604.249 484.213 604.942 483.911C605.64 483.619 606.421 483.473 607.296 483.473C608.494 483.473 609.504 483.723 610.338 484.223C611.171 484.723 611.812 485.379 612.254 486.202C612.535 486.702 612.723 487.27 612.817 487.911C612.916 488.562 612.963 489.275 612.963 490.057V496.286C612.963 497.046 612.916 497.754 612.817 498.411C612.723 499.062 612.535 499.629 612.254 500.119C611.812 500.952 611.171 501.609 610.338 502.098C609.504 502.598 608.494 502.848 607.296 502.848C606.421 502.848 605.629 502.692 604.921 502.39C604.213 502.098 603.608 501.692 603.108 501.182C602.108 500.057 601.608 498.598 601.608 496.807H605.421C605.421 497.583 605.588 498.15 605.921 498.515C606.254 498.874 606.713 499.057 607.296 499.057C607.869 499.057 608.317 498.874 608.65 498.515C608.983 498.15 609.15 497.609 609.15 496.89V489.161Z" fill="white"/>
<path d="M599.386 483.702V502.64H595.573V494.911H594.115C593.547 494.911 593.167 495.103 592.969 495.494C592.761 495.895 592.594 496.395 592.469 496.994L592.073 499.161C591.922 499.728 591.729 500.244 591.49 500.702C591.255 501.161 590.938 501.525 590.531 501.807C590.115 502.109 589.63 502.327 589.073 502.452C588.505 502.577 587.86 502.64 587.136 502.64H587.052V499.265H587.177C587.625 499.265 588 499.182 588.302 499.015C588.594 498.859 588.802 498.499 588.927 497.932L589.302 495.827C589.333 495.754 589.365 495.609 589.406 495.39C589.438 495.166 589.5 494.921 589.594 494.661C589.693 494.395 589.823 494.14 589.99 493.89C590.156 493.64 590.365 493.452 590.615 493.327L586.802 483.702H590.677L593.698 491.723H595.573V483.702H599.386Z" fill="white"/>
<path d="M585.278 496.286C585.278 497.046 585.232 497.754 585.133 498.411C585.039 499.062 584.851 499.629 584.57 500.119C584.127 500.952 583.487 501.609 582.653 502.098C581.81 502.598 580.789 502.848 579.591 502.848C578.398 502.848 577.383 502.598 576.549 502.098C575.716 501.609 575.081 500.952 574.633 500.119C574.357 499.629 574.169 499.062 574.07 498.411C573.976 497.754 573.924 497.046 573.924 496.286V490.057C573.924 489.275 573.976 488.562 574.07 487.911C574.169 487.27 574.357 486.702 574.633 486.202C575.081 485.379 575.716 484.723 576.549 484.223C577.383 483.723 578.398 483.473 579.591 483.473C580.789 483.473 581.81 483.723 582.653 484.223C583.487 484.723 584.127 485.379 584.57 486.202C584.851 486.702 585.039 487.27 585.133 487.911C585.232 488.562 585.278 489.275 585.278 490.057V496.286ZM581.466 489.452C581.466 488.728 581.299 488.187 580.966 487.827C580.633 487.463 580.174 487.286 579.591 487.286C579.023 487.286 578.57 487.463 578.237 487.827C577.903 488.187 577.737 488.728 577.737 489.452V496.89C577.737 497.609 577.903 498.15 578.237 498.515C578.57 498.874 579.023 499.057 579.591 499.057C580.174 499.057 580.633 498.874 580.966 498.515C581.299 498.15 581.466 497.609 581.466 496.89V489.452Z" fill="white"/>
<path d="M562.951 483.702V495.723H563.034L567.243 483.702H571.139V502.64H567.555V490.619H567.472L563.284 502.64H559.368V483.702H562.951ZM567.097 509.64C567.071 509.499 567.05 509.317 567.034 509.098C567.024 508.89 566.961 508.682 566.847 508.473C566.737 508.265 566.555 508.083 566.305 507.932C566.055 507.775 565.696 507.702 565.222 507.702C564.753 507.702 564.389 507.775 564.139 507.932C563.889 508.083 563.711 508.265 563.597 508.473C563.487 508.682 563.43 508.89 563.43 509.098C563.42 509.317 563.399 509.499 563.368 509.64H560.18C560.305 508.249 560.764 507.182 561.555 506.432C562.336 505.692 563.555 505.327 565.222 505.327C566.889 505.327 568.118 505.702 568.909 506.452C569.691 507.213 570.139 508.275 570.264 509.64H567.097Z" fill="white"/>
<path d="M549.31 483.702V502.64H544.372C543.622 502.64 542.851 502.562 542.06 502.411C541.268 502.254 540.549 501.911 539.893 501.369C539.299 500.869 538.883 500.275 538.643 499.598C538.409 498.932 538.289 498.202 538.289 497.411C538.289 497.129 538.32 496.812 538.372 496.452C538.414 496.088 538.513 495.723 538.664 495.348C538.82 494.973 539.039 494.603 539.331 494.244C539.612 493.879 539.987 493.577 540.456 493.327C539.93 493.129 539.508 492.879 539.185 492.577C538.867 492.286 538.617 491.952 538.435 491.577C538.242 491.202 538.117 490.807 538.06 490.39C537.992 489.984 537.956 489.583 537.956 489.182C537.956 488.39 538.06 487.65 538.268 486.973C538.476 486.307 538.831 485.713 539.331 485.202C539.93 484.577 540.664 484.166 541.539 483.973C542.414 483.791 543.263 483.702 544.081 483.702H549.31ZM545.497 486.869H543.956C543.695 486.869 543.43 486.895 543.164 486.952C542.903 487.02 542.664 487.14 542.456 487.307C542.247 487.484 542.081 487.723 541.956 488.015C541.831 488.317 541.768 488.708 541.768 489.182C541.768 489.958 541.914 490.588 542.206 491.077C542.487 491.562 543.07 491.807 543.956 491.807H545.497V486.869ZM545.497 494.786H543.997C543.237 494.786 542.706 495.02 542.414 495.494C542.112 495.963 541.956 496.603 541.956 497.411C541.956 497.978 542.133 498.458 542.476 498.848C542.825 499.249 543.31 499.452 543.935 499.452H545.497V494.786Z" fill="white"/>
<path d="M528.034 483.702V485.64H528.097C528.597 484.942 529.107 484.411 529.618 484.036C530.133 483.661 530.847 483.473 531.763 483.473C532.211 483.473 532.67 483.546 533.138 483.682C533.597 483.817 534.034 484.077 534.451 484.452C534.883 484.796 535.232 485.296 535.493 485.952C535.743 486.619 535.868 487.473 535.868 488.515C535.868 489.583 535.784 490.52 535.618 491.327C535.44 492.145 535.112 492.827 534.638 493.369C534.196 493.895 533.591 494.286 532.826 494.536C532.05 494.796 531.065 494.932 529.868 494.932H529.451C529.3 494.932 529.159 494.921 529.034 494.911C528.909 494.879 528.763 494.869 528.597 494.869C528.42 494.869 528.232 494.853 528.034 494.827V496.807C528.034 497.458 528.175 497.994 528.451 498.411C528.716 498.838 529.211 499.057 529.93 499.057C530.43 499.057 530.888 498.89 531.305 498.557C531.711 498.234 531.972 497.765 532.097 497.14H535.805C535.696 498.833 535.118 500.202 534.076 501.244C533.576 501.744 532.982 502.129 532.284 502.411C531.591 502.702 530.805 502.848 529.93 502.848C529.138 502.848 528.399 502.723 527.701 502.473C527.008 502.223 526.399 501.853 525.868 501.369C525.368 500.869 524.972 500.244 524.68 499.494C524.378 498.744 524.222 497.874 524.222 496.89V483.702H528.034ZM528.034 491.848C528.451 491.916 528.8 491.952 529.076 491.952C529.899 491.952 530.597 491.754 531.18 491.369C531.763 490.978 532.055 490.275 532.055 489.265C532.055 488.541 531.883 487.958 531.534 487.515C531.19 487.067 530.701 486.848 530.076 486.848C529.44 486.848 528.94 487.057 528.576 487.473C528.216 487.89 528.034 488.484 528.034 489.265V491.848Z" fill="white"/>
<path d="M521.399 483.702V502.64H517.586V494.911H516.128C515.56 494.911 515.18 495.103 514.982 495.494C514.774 495.895 514.607 496.395 514.482 496.994L514.086 499.161C513.935 499.728 513.743 500.244 513.503 500.702C513.269 501.161 512.951 501.525 512.545 501.807C512.128 502.109 511.644 502.327 511.086 502.452C510.519 502.577 509.873 502.64 509.149 502.64H509.065V499.265H509.19C509.638 499.265 510.013 499.182 510.315 499.015C510.607 498.859 510.815 498.499 510.94 497.932L511.315 495.827C511.347 495.754 511.378 495.609 511.42 495.39C511.451 495.166 511.513 494.921 511.607 494.661C511.706 494.395 511.836 494.14 512.003 493.89C512.17 493.64 512.378 493.452 512.628 493.327L508.815 483.702H512.69L515.711 491.723H517.586V483.702H521.399Z" fill="white"/>
<path d="M508.937 483.702L504.271 493.369L508.708 502.64H504.666L502.333 497.244L499.979 502.64H495.937L500.458 493.369L495.708 483.702H499.75L502.333 489.494L504.896 483.702H508.937Z" fill="white"/>
<path d="M487.361 483.702V485.64H487.424C487.924 484.942 488.434 484.411 488.945 484.036C489.46 483.661 490.174 483.473 491.09 483.473C491.538 483.473 491.997 483.546 492.465 483.682C492.924 483.817 493.361 484.077 493.778 484.452C494.21 484.796 494.559 485.296 494.82 485.952C495.07 486.619 495.195 487.473 495.195 488.515C495.195 489.583 495.111 490.52 494.945 491.327C494.768 492.145 494.439 492.827 493.965 493.369C493.523 493.895 492.919 494.286 492.153 494.536C491.377 494.796 490.393 494.932 489.195 494.932H488.778C488.627 494.932 488.486 494.921 488.361 494.911C488.236 494.879 488.09 494.869 487.924 494.869C487.747 494.869 487.559 494.853 487.361 494.827V496.807C487.361 497.458 487.502 497.994 487.778 498.411C488.044 498.838 488.538 499.057 489.257 499.057C489.757 499.057 490.215 498.89 490.632 498.557C491.038 498.234 491.299 497.765 491.424 497.14H495.132C495.023 498.833 494.445 500.202 493.403 501.244C492.903 501.744 492.309 502.129 491.611 502.411C490.919 502.702 490.132 502.848 489.257 502.848C488.465 502.848 487.726 502.723 487.028 502.473C486.335 502.223 485.726 501.853 485.195 501.369C484.695 500.869 484.299 500.244 484.007 499.494C483.705 498.744 483.549 497.874 483.549 496.89V483.702H487.361ZM487.361 491.848C487.778 491.916 488.127 491.952 488.403 491.952C489.226 491.952 489.924 491.754 490.507 491.369C491.09 490.978 491.382 490.275 491.382 489.265C491.382 488.541 491.21 487.958 490.861 487.515C490.518 487.067 490.028 486.848 489.403 486.848C488.768 486.848 488.268 487.057 487.903 487.473C487.544 487.89 487.361 488.484 487.361 489.265V491.848Z" fill="white"/>
<path d="M480.764 483.702V502.64H476.951V494.911H473.097V502.64H469.305V483.702H473.097V491.723H476.951V483.702H480.764Z" fill="white"/>
<path d="M458.965 483.702V485.64H459.028C459.528 484.942 460.038 484.411 460.549 484.036C461.064 483.661 461.778 483.473 462.694 483.473C463.142 483.473 463.601 483.546 464.069 483.682C464.528 483.817 464.965 484.077 465.382 484.452C465.814 484.796 466.163 485.296 466.424 485.952C466.674 486.619 466.799 487.473 466.799 488.515C466.799 489.583 466.715 490.52 466.549 491.327C466.372 492.145 466.043 492.827 465.569 493.369C465.127 493.895 464.523 494.286 463.757 494.536C462.981 494.796 461.997 494.932 460.799 494.932H460.382C460.231 494.932 460.09 494.921 459.965 494.911C459.84 494.879 459.694 494.869 459.528 494.869C459.351 494.869 459.163 494.853 458.965 494.827V496.807C458.965 497.458 459.106 497.994 459.382 498.411C459.648 498.838 460.142 499.057 460.861 499.057C461.361 499.057 461.819 498.89 462.236 498.557C462.642 498.234 462.903 497.765 463.028 497.14H466.736C466.627 498.833 466.049 500.202 465.007 501.244C464.507 501.744 463.913 502.129 463.215 502.411C462.523 502.702 461.736 502.848 460.861 502.848C460.069 502.848 459.33 502.723 458.632 502.473C457.939 502.223 457.33 501.853 456.799 501.369C456.299 500.869 455.903 500.244 455.611 499.494C455.309 498.744 455.153 497.874 455.153 496.89V483.702H458.965ZM458.965 491.848C459.382 491.916 459.731 491.952 460.007 491.952C460.83 491.952 461.528 491.754 462.111 491.369C462.694 490.978 462.986 490.275 462.986 489.265C462.986 488.541 462.814 487.958 462.465 487.515C462.122 487.067 461.632 486.848 461.007 486.848C460.372 486.848 459.872 487.057 459.507 487.473C459.148 487.89 458.965 488.484 458.965 489.265V491.848Z" fill="white"/>
<path d="M453.659 487.286C453.399 487.286 453.128 487.359 452.847 487.515C452.555 487.666 452.258 487.921 451.951 488.286C451.701 488.588 451.508 489.02 451.367 489.577C451.216 490.145 451.107 490.728 451.034 491.327C450.951 491.937 450.899 492.52 450.867 493.077C450.841 493.645 450.826 494.083 450.826 494.39V502.64H440.388V483.702H444.18V499.452H447.242V495.952C447.242 495.077 447.274 494.192 447.326 493.307C447.367 492.432 447.451 491.583 447.576 490.765C447.69 489.958 447.836 489.208 448.013 488.515C448.18 487.817 448.399 487.223 448.659 486.723C449.19 485.749 449.878 484.999 450.722 484.473C451.57 483.958 452.529 483.702 453.597 483.702H453.847V487.286H453.659Z" fill="white"/>
<path d="M429.068 483.702V495.723H429.151L433.359 483.702H437.255V502.64H433.672V490.619H433.589L429.401 502.64H425.484V483.702H429.068Z" fill="white"/>
<path d="M411.346 491.723H418.887V489.161C418.887 488.562 418.721 488.098 418.387 487.765C418.054 487.442 417.596 487.286 417.012 487.286C416.304 487.286 415.835 487.494 415.596 487.911C415.346 488.338 415.2 488.765 415.158 489.182H411.346C411.346 487.515 411.861 486.171 412.887 485.161C413.377 484.629 413.971 484.213 414.679 483.911C415.377 483.619 416.153 483.473 417.012 483.473C418.21 483.473 419.231 483.723 420.075 484.223C420.908 484.723 421.549 485.379 421.992 486.202C422.273 486.702 422.46 487.27 422.554 487.911C422.653 488.562 422.7 489.275 422.7 490.057V496.286C422.7 497.046 422.653 497.754 422.554 498.411C422.46 499.062 422.273 499.629 421.992 500.119C421.549 500.952 420.908 501.609 420.075 502.098C419.231 502.598 418.21 502.848 417.012 502.848C416.153 502.848 415.367 502.692 414.658 502.39C413.95 502.098 413.346 501.692 412.846 501.182C411.846 500.057 411.346 498.645 411.346 496.952V491.723ZM418.887 494.723H415.158V496.89C415.158 497.609 415.325 498.15 415.658 498.515C415.992 498.874 416.445 499.057 417.012 499.057C417.596 499.057 418.054 498.874 418.387 498.515C418.721 498.15 418.887 497.609 418.887 496.89V494.723Z" fill="white"/>
<path d="M400.373 483.702V495.723H400.456L404.665 483.702H408.56V502.64H404.977V490.619H404.894L400.706 502.64H396.79V483.702H400.373ZM404.519 509.64C404.493 509.499 404.472 509.317 404.456 509.098C404.446 508.89 404.383 508.682 404.269 508.473C404.159 508.265 403.977 508.083 403.727 507.932C403.477 507.775 403.118 507.702 402.644 507.702C402.175 507.702 401.81 507.775 401.56 507.932C401.31 508.083 401.133 508.265 401.019 508.473C400.909 508.682 400.852 508.89 400.852 509.098C400.842 509.317 400.821 509.499 400.79 509.64H397.602C397.727 508.249 398.185 507.182 398.977 506.432C399.758 505.692 400.977 505.327 402.644 505.327C404.31 505.327 405.54 505.702 406.331 506.452C407.112 507.213 407.56 508.275 407.685 509.64H404.519Z" fill="white"/>
<path d="M393.672 483.702V487.515H389.859V483.702H393.672Z" fill="white"/>
<path d="M379.562 483.702V510.286H368.958V506.702H375.75V483.702H379.562Z" fill="white"/>
<path d="M370.721 496.286C370.721 497.046 370.674 497.754 370.576 498.411C370.482 499.062 370.294 499.629 370.013 500.119C369.57 500.952 368.93 501.609 368.096 502.098C367.253 502.598 366.232 502.848 365.034 502.848C363.841 502.848 362.826 502.598 361.992 502.098C361.159 501.609 360.523 500.952 360.076 500.119C359.799 499.629 359.612 499.062 359.513 498.411C359.419 497.754 359.367 497.046 359.367 496.286V490.057C359.367 489.275 359.419 488.562 359.513 487.911C359.612 487.27 359.799 486.702 360.076 486.202C360.523 485.379 361.159 484.723 361.992 484.223C362.826 483.723 363.841 483.473 365.034 483.473C366.232 483.473 367.253 483.723 368.096 484.223C368.93 484.723 369.57 485.379 370.013 486.202C370.294 486.702 370.482 487.27 370.576 487.911C370.674 488.562 370.721 489.275 370.721 490.057V496.286ZM366.909 489.452C366.909 488.728 366.742 488.187 366.409 487.827C366.076 487.463 365.617 487.286 365.034 487.286C364.466 487.286 364.013 487.463 363.68 487.827C363.346 488.187 363.18 488.728 363.18 489.452V496.89C363.18 497.609 363.346 498.15 363.68 498.515C364.013 498.874 364.466 499.057 365.034 499.057C365.617 499.057 366.076 498.874 366.409 498.515C366.742 498.15 366.909 497.609 366.909 496.89V489.452Z" fill="white"/>
<path d="M356.581 476.057V502.64H352.769V500.911C352.3 501.463 351.811 501.921 351.311 502.286C350.811 502.661 350.092 502.848 349.144 502.848C347.576 502.848 346.472 502.249 345.831 501.057C345.613 500.64 345.451 500.119 345.352 499.494C345.243 498.869 345.186 498.036 345.186 496.994V489.786C345.186 488.395 345.227 487.39 345.311 486.765C345.451 485.515 346.019 484.583 347.019 483.973C347.519 483.64 348.243 483.473 349.186 483.473C349.936 483.473 350.602 483.64 351.186 483.973C351.769 484.317 352.269 484.796 352.686 485.411H352.769V476.057H356.581ZM348.998 496.473C348.998 497.234 349.154 497.853 349.456 498.327C349.748 498.812 350.222 499.057 350.873 499.057C351.446 499.057 351.904 498.833 352.248 498.39C352.597 497.958 352.769 497.395 352.769 496.702V489.348C352.769 488.749 352.592 488.254 352.227 487.869C351.868 487.478 351.415 487.286 350.873 487.286C350.154 487.286 349.66 487.504 349.394 487.952C349.133 488.411 348.998 488.937 348.998 489.536V496.473Z" fill="white"/>
<path d="M334.858 483.702V485.64H334.92C335.42 484.942 335.931 484.411 336.441 484.036C336.957 483.661 337.67 483.473 338.587 483.473C339.035 483.473 339.493 483.546 339.962 483.682C340.42 483.817 340.858 484.077 341.275 484.452C341.707 484.796 342.056 485.296 342.316 485.952C342.566 486.619 342.691 487.473 342.691 488.515C342.691 489.583 342.608 490.52 342.441 491.327C342.264 492.145 341.936 492.827 341.462 493.369C341.019 493.895 340.415 494.286 339.65 494.536C338.874 494.796 337.889 494.932 336.691 494.932H336.275C336.124 494.932 335.983 494.921 335.858 494.911C335.733 494.879 335.587 494.869 335.42 494.869C335.243 494.869 335.056 494.853 334.858 494.827V496.807C334.858 497.458 334.999 497.994 335.275 498.411C335.54 498.838 336.035 499.057 336.754 499.057C337.254 499.057 337.712 498.89 338.129 498.557C338.535 498.234 338.795 497.765 338.92 497.14H342.629C342.519 498.833 341.941 500.202 340.9 501.244C340.4 501.744 339.806 502.129 339.108 502.411C338.415 502.702 337.629 502.848 336.754 502.848C335.962 502.848 335.222 502.723 334.525 502.473C333.832 502.223 333.222 501.853 332.691 501.369C332.191 500.869 331.795 500.244 331.504 499.494C331.202 498.744 331.045 497.874 331.045 496.89V483.702H334.858ZM334.858 491.848C335.275 491.916 335.624 491.952 335.9 491.952C336.722 491.952 337.42 491.754 338.004 491.369C338.587 490.978 338.879 490.275 338.879 489.265C338.879 488.541 338.707 487.958 338.358 487.515C338.014 487.067 337.525 486.848 336.9 486.848C336.264 486.848 335.764 487.057 335.4 487.473C335.04 487.89 334.858 488.484 334.858 489.265V491.848Z" fill="white"/>
<path d="M328.26 483.702V502.64H324.447V486.869H320.677V502.64H316.864V486.869H314.843V479.973H318.072V483.702H328.26Z" fill="white"/>
<path d="M304.96 483.702V495.723H305.044L309.252 483.702H313.148V502.64H309.564V490.619H309.481L305.294 502.64H301.377V483.702H304.96Z" fill="white"/>
<path d="M290.072 483.702V495.723H290.155L294.364 483.702H298.26V502.64H294.676V490.619H294.593L290.405 502.64H286.489V483.702H290.072ZM294.218 509.64C294.192 509.499 294.171 509.317 294.155 509.098C294.145 508.89 294.083 508.682 293.968 508.473C293.859 508.265 293.676 508.083 293.426 507.932C293.176 507.775 292.817 507.702 292.343 507.702C291.874 507.702 291.51 507.775 291.26 507.932C291.01 508.083 290.833 508.265 290.718 508.473C290.609 508.682 290.551 508.89 290.551 509.098C290.541 509.317 290.52 509.499 290.489 509.64H287.301C287.426 508.249 287.885 507.182 288.676 506.432C289.458 505.692 290.676 505.327 292.343 505.327C294.01 505.327 295.239 505.702 296.03 506.452C296.812 507.213 297.26 508.275 297.385 509.64H294.218Z" fill="white"/>
<path d="M276.393 483.702V502.64H264.998V483.702H268.81V499.452H272.581V483.702H276.393Z" fill="white"/>
<path d="M262.361 496.286C262.361 497.046 262.314 497.754 262.215 498.411C262.121 499.062 261.933 499.629 261.652 500.119C261.209 500.952 260.569 501.609 259.736 502.098C258.892 502.598 257.871 502.848 256.673 502.848C255.48 502.848 254.465 502.598 253.631 502.098C252.798 501.609 252.163 500.952 251.715 500.119C251.439 499.629 251.251 499.062 251.152 498.411C251.058 497.754 251.006 497.046 251.006 496.286V490.057C251.006 489.275 251.058 488.562 251.152 487.911C251.251 487.27 251.439 486.702 251.715 486.202C252.163 485.379 252.798 484.723 253.631 484.223C254.465 483.723 255.48 483.473 256.673 483.473C257.871 483.473 258.892 483.723 259.736 484.223C260.569 484.723 261.209 485.379 261.652 486.202C261.933 486.702 262.121 487.27 262.215 487.911C262.314 488.562 262.361 489.275 262.361 490.057V496.286ZM258.548 489.452C258.548 488.728 258.381 488.187 258.048 487.827C257.715 487.463 257.256 487.286 256.673 487.286C256.105 487.286 255.652 487.463 255.319 487.827C254.986 488.187 254.819 488.728 254.819 489.452V496.89C254.819 497.609 254.986 498.15 255.319 498.515C255.652 498.874 256.105 499.057 256.673 499.057C257.256 499.057 257.715 498.874 258.048 498.515C258.381 498.15 258.548 497.609 258.548 496.89V489.452Z" fill="white"/>
<path d="M248.221 483.702V502.64H244.325L240.492 492.473H240.408L236.575 502.64H232.679V483.702H236.346V495.161H236.408L239.471 486.807H241.429L244.492 495.161H244.554V483.702H248.221Z" fill="white"/>
<path d="M229.897 496.286C229.897 497.046 229.85 497.754 229.751 498.411C229.658 499.062 229.47 499.629 229.189 500.119C228.746 500.952 228.105 501.609 227.272 502.098C226.428 502.598 225.408 502.848 224.21 502.848C223.017 502.848 222.001 502.598 221.168 502.098C220.335 501.609 219.699 500.952 219.251 500.119C218.975 499.629 218.788 499.062 218.689 498.411C218.595 497.754 218.543 497.046 218.543 496.286V490.057C218.543 489.275 218.595 488.562 218.689 487.911C218.788 487.27 218.975 486.702 219.251 486.202C219.699 485.379 220.335 484.723 221.168 484.223C222.001 483.723 223.017 483.473 224.21 483.473C225.408 483.473 226.428 483.723 227.272 484.223C228.105 484.723 228.746 485.379 229.189 486.202C229.47 486.702 229.658 487.27 229.751 487.911C229.85 488.562 229.897 489.275 229.897 490.057V496.286ZM226.085 489.452C226.085 488.728 225.918 488.187 225.585 487.827C225.251 487.463 224.793 487.286 224.21 487.286C223.642 487.286 223.189 487.463 222.855 487.827C222.522 488.187 222.355 488.728 222.355 489.452V496.89C222.355 497.609 222.522 498.15 222.855 498.515C223.189 498.874 223.642 499.057 224.21 499.057C224.793 499.057 225.251 498.874 225.585 498.515C225.918 498.15 226.085 497.609 226.085 496.89V489.452Z" fill="white"/>
<path d="M208.762 502.64H204.97V494.911H203.575C203.007 494.911 202.627 495.103 202.429 495.494C202.22 495.895 202.069 496.348 201.97 496.848L201.595 498.702C201.47 499.286 201.262 499.879 200.97 500.494C200.668 501.119 200.257 501.603 199.741 501.952C199.241 502.286 198.762 502.478 198.304 502.536C197.845 502.603 197.356 502.64 196.825 502.64H196.741V499.265H196.783C197.158 499.265 197.502 499.182 197.804 499.015C198.095 498.859 198.304 498.458 198.429 497.807L198.762 495.827C198.793 495.754 198.825 495.609 198.866 495.39C198.897 495.166 198.965 494.921 199.075 494.661C199.174 494.395 199.304 494.14 199.47 493.89C199.627 493.64 199.825 493.452 200.075 493.327L196.866 483.702H200.741L203.179 491.723H204.97V483.702H208.762V491.723H210.554L212.991 483.702H216.866L213.658 493.327C213.939 493.452 214.158 493.64 214.325 493.89C214.481 494.14 214.606 494.395 214.7 494.661C214.783 494.921 214.845 495.166 214.887 495.39C214.918 495.609 214.944 495.754 214.97 495.827L215.304 497.807C215.429 498.458 215.647 498.859 215.95 499.015C216.241 499.182 216.575 499.265 216.95 499.265H216.991V502.64H216.908C216.382 502.64 215.887 502.598 215.429 502.515C214.97 502.442 214.491 502.254 213.991 501.952C213.424 501.603 213.007 501.119 212.741 500.494C212.465 499.879 212.262 499.286 212.137 498.702L211.762 496.848C211.668 496.348 211.522 495.895 211.325 495.494C211.116 495.103 210.731 494.911 210.158 494.911H208.762V502.64Z" fill="white"/>
<path d="M183.878 491.723H191.42V489.161C191.42 488.562 191.253 488.098 190.92 487.765C190.586 487.442 190.128 487.286 189.545 487.286C188.836 487.286 188.368 487.494 188.128 487.911C187.878 488.338 187.732 488.765 187.69 489.182H183.878C183.878 487.515 184.394 486.171 185.42 485.161C185.909 484.629 186.503 484.213 187.211 483.911C187.909 483.619 188.685 483.473 189.545 483.473C190.743 483.473 191.763 483.723 192.607 484.223C193.44 484.723 194.081 485.379 194.524 486.202C194.805 486.702 194.993 487.27 195.086 487.911C195.185 488.562 195.232 489.275 195.232 490.057V496.286C195.232 497.046 195.185 497.754 195.086 498.411C194.993 499.062 194.805 499.629 194.524 500.119C194.081 500.952 193.44 501.609 192.607 502.098C191.763 502.598 190.743 502.848 189.545 502.848C188.685 502.848 187.899 502.692 187.19 502.39C186.482 502.098 185.878 501.692 185.378 501.182C184.378 500.057 183.878 498.645 183.878 496.952V491.723ZM191.42 494.723H187.69V496.89C187.69 497.609 187.857 498.15 188.19 498.515C188.524 498.874 188.977 499.057 189.545 499.057C190.128 499.057 190.586 498.874 190.92 498.515C191.253 498.15 191.42 497.609 191.42 496.89V494.723Z" fill="white"/>
<path d="M178.926 483.702V499.265H182.655V502.64H171.384V499.265H175.113V483.702H178.926Z" fill="white"/>
<path d="M170.943 483.702V487.515H167.131V483.702H170.943Z" fill="white"/>
<path d="M151.225 506.932V499.202C151.225 498.796 151.24 498.119 151.266 497.161C151.298 496.202 151.36 495.145 151.454 493.994C151.553 492.853 151.704 491.723 151.912 490.598C152.11 489.484 152.381 488.557 152.725 487.807C153.324 486.541 154.089 485.541 155.016 484.807C155.933 484.067 157.053 483.702 158.371 483.702H158.579V487.515C157.845 487.557 157.266 487.775 156.85 488.182C156.423 488.583 156.069 489.083 155.787 489.682C155.569 490.192 155.386 490.827 155.246 491.577C155.11 492.327 155.006 493.124 154.933 493.973C154.85 494.817 154.803 495.687 154.787 496.577C154.761 497.478 154.746 498.338 154.746 499.161V510.286H143.683V483.702H147.496V506.932H151.225Z" fill="white"/>
<path d="M129.325 491.723H136.866V489.161C136.866 488.562 136.7 488.098 136.366 487.765C136.033 487.442 135.575 487.286 134.991 487.286C134.283 487.286 133.814 487.494 133.575 487.911C133.325 488.338 133.179 488.765 133.137 489.182H129.325C129.325 487.515 129.84 486.171 130.866 485.161C131.356 484.629 131.95 484.213 132.658 483.911C133.356 483.619 134.132 483.473 134.991 483.473C136.189 483.473 137.21 483.723 138.054 484.223C138.887 484.723 139.528 485.379 139.971 486.202C140.252 486.702 140.439 487.27 140.533 487.911C140.632 488.562 140.679 489.275 140.679 490.057V496.286C140.679 497.046 140.632 497.754 140.533 498.411C140.439 499.062 140.252 499.629 139.971 500.119C139.528 500.952 138.887 501.609 138.054 502.098C137.21 502.598 136.189 502.848 134.991 502.848C134.132 502.848 133.346 502.692 132.637 502.39C131.929 502.098 131.325 501.692 130.825 501.182C129.825 500.057 129.325 498.645 129.325 496.952V491.723ZM136.866 494.723H133.137V496.89C133.137 497.609 133.304 498.15 133.637 498.515C133.971 498.874 134.424 499.057 134.991 499.057C135.575 499.057 136.033 498.874 136.366 498.515C136.7 498.15 136.866 497.609 136.866 496.89V494.723Z" fill="white"/>
<path d="M126.873 496.286C126.873 497.046 126.826 497.754 126.727 498.411C126.633 499.062 126.446 499.629 126.164 500.119C125.722 500.952 125.081 501.609 124.248 502.098C123.404 502.598 122.383 502.848 121.185 502.848C119.993 502.848 118.977 502.598 118.144 502.098C117.31 501.609 116.675 500.952 116.227 500.119C115.951 499.629 115.763 499.062 115.664 498.411C115.571 497.754 115.519 497.046 115.519 496.286V490.057C115.519 489.275 115.571 488.562 115.664 487.911C115.763 487.27 115.951 486.702 116.227 486.202C116.675 485.379 117.31 484.723 118.144 484.223C118.977 483.723 119.993 483.473 121.185 483.473C122.383 483.473 123.404 483.723 124.248 484.223C125.081 484.723 125.722 485.379 126.164 486.202C126.446 486.702 126.633 487.27 126.727 487.911C126.826 488.562 126.873 489.275 126.873 490.057V496.286ZM123.06 489.452C123.06 488.728 122.894 488.187 122.56 487.827C122.227 487.463 121.769 487.286 121.185 487.286C120.618 487.286 120.164 487.463 119.831 487.827C119.498 488.187 119.331 488.728 119.331 489.452V496.89C119.331 497.609 119.498 498.15 119.831 498.515C120.164 498.874 120.618 499.057 121.185 499.057C121.769 499.057 122.227 498.874 122.56 498.515C122.894 498.15 123.06 497.609 123.06 496.89V489.452Z" fill="white"/>
<path d="M112.733 483.702V502.64H108.92V494.911H105.066V502.64H101.274V483.702H105.066V491.723H108.92V483.702H112.733Z" fill="white"/>
<path d="M90.9346 483.702V485.64H90.9971C91.4971 484.942 92.0075 484.411 92.5179 484.036C93.0335 483.661 93.7471 483.473 94.6637 483.473C95.1117 483.473 95.57 483.546 96.0387 483.682C96.4971 483.817 96.9346 484.077 97.3512 484.452C97.7835 484.796 98.1325 485.296 98.3929 485.952C98.6429 486.619 98.7679 487.473 98.7679 488.515C98.7679 489.583 98.6846 490.52 98.5179 491.327C98.3408 492.145 98.0127 492.827 97.5387 493.369C97.096 493.895 96.4919 494.286 95.7262 494.536C94.9502 494.796 93.9658 494.932 92.7679 494.932H92.3512C92.2002 494.932 92.0596 494.921 91.9346 494.911C91.8096 494.879 91.6637 494.869 91.4971 494.869C91.32 494.869 91.1325 494.853 90.9346 494.827V496.807C90.9346 497.458 91.0752 497.994 91.3512 498.411C91.6169 498.838 92.1117 499.057 92.8304 499.057C93.3304 499.057 93.7887 498.89 94.2054 498.557C94.6117 498.234 94.8721 497.765 94.9971 497.14H98.7054C98.596 498.833 98.0179 500.202 96.9762 501.244C96.4762 501.744 95.8825 502.129 95.1846 502.411C94.4919 502.702 93.7054 502.848 92.8304 502.848C92.0387 502.848 91.2992 502.723 90.6012 502.473C89.9085 502.223 89.2992 501.853 88.7679 501.369C88.2679 500.869 87.8721 500.244 87.5804 499.494C87.2783 498.744 87.1221 497.874 87.1221 496.89V483.702H90.9346ZM90.9346 491.848C91.3512 491.916 91.7002 491.952 91.9762 491.952C92.7992 491.952 93.4971 491.754 94.0804 491.369C94.6637 490.978 94.9554 490.275 94.9554 489.265C94.9554 488.541 94.7835 487.958 94.4346 487.515C94.0908 487.067 93.6012 486.848 92.9762 486.848C92.3408 486.848 91.8408 487.057 91.4762 487.473C91.1169 487.89 90.9346 488.484 90.9346 489.265V491.848Z" fill="white"/>
<path d="M84.2996 476.057V502.64H80.4871V500.911C80.0184 501.463 79.5288 501.921 79.0288 502.286C78.5288 502.661 77.8101 502.848 76.8621 502.848C75.2944 502.848 74.1903 502.249 73.5496 501.057C73.3309 500.64 73.1694 500.119 73.0705 499.494C72.9611 498.869 72.9038 498.036 72.9038 496.994V489.786C72.9038 488.395 72.9455 487.39 73.0288 486.765C73.1694 485.515 73.7371 484.583 74.7371 483.973C75.2371 483.64 75.9611 483.473 76.9038 483.473C77.6538 483.473 78.3205 483.64 78.9038 483.973C79.4871 484.317 79.9871 484.796 80.4038 485.411H80.4871V476.057H84.2996ZM76.7163 496.473C76.7163 497.234 76.8726 497.853 77.1746 498.327C77.4663 498.812 77.9403 499.057 78.5913 499.057C79.1642 499.057 79.6226 498.833 79.9663 498.39C80.3153 497.958 80.4871 497.395 80.4871 496.702V489.348C80.4871 488.749 80.3101 488.254 79.9455 487.869C79.5861 487.478 79.133 487.286 78.5913 487.286C77.8726 487.286 77.3778 487.504 77.1121 487.952C76.8517 488.411 76.7163 488.937 76.7163 489.536V496.473Z" fill="white"/>
<path d="M68.4657 483.702V479.973H71.674V486.869H69.9657C69.6896 487.395 69.4448 488.088 69.2365 488.952C69.0282 489.827 68.8615 490.749 68.7365 491.723C68.6427 492.525 68.5802 493.348 68.549 494.182C68.5229 495.025 68.5073 495.807 68.5073 496.515V502.64H58.049V486.869H56.2573V479.973H59.4657V483.702H68.4657ZM64.924 499.452V496.619C64.924 496.296 64.9396 495.9 64.9657 495.432C64.9969 494.973 65.0282 494.499 65.0698 494.015C65.1011 493.541 65.1323 493.067 65.174 492.598C65.2052 492.14 65.2469 491.749 65.299 491.432C65.3979 490.775 65.5594 490.004 65.7782 489.119C65.9865 488.244 66.2261 487.494 66.4865 486.869H61.8615V499.452H64.924Z" fill="white"/>
<path d="M54.8932 496.286C54.8932 497.046 54.8464 497.754 54.7474 498.411C54.6536 499.062 54.4661 499.629 54.1849 500.119C53.7422 500.952 53.1016 501.609 52.2682 502.098C51.4245 502.598 50.4036 502.848 49.2057 502.848C48.013 502.848 46.9974 502.598 46.1641 502.098C45.3307 501.609 44.6953 500.952 44.2474 500.119C43.9714 499.629 43.7839 499.062 43.6849 498.411C43.5911 497.754 43.5391 497.046 43.5391 496.286V490.057C43.5391 489.275 43.5911 488.562 43.6849 487.911C43.7839 487.27 43.9714 486.702 44.2474 486.202C44.6953 485.379 45.3307 484.723 46.1641 484.223C46.9974 483.723 48.013 483.473 49.2057 483.473C50.4036 483.473 51.4245 483.723 52.2682 484.223C53.1016 484.723 53.7422 485.379 54.1849 486.202C54.4661 486.702 54.6536 487.27 54.7474 487.911C54.8464 488.562 54.8932 489.275 54.8932 490.057V496.286ZM51.0807 489.452C51.0807 488.728 50.9141 488.187 50.5807 487.827C50.2474 487.463 49.7891 487.286 49.2057 487.286C48.638 487.286 48.1849 487.463 47.8516 487.827C47.5182 488.187 47.3516 488.728 47.3516 489.452V496.89C47.3516 497.609 47.5182 498.15 47.8516 498.515C48.1849 498.874 48.638 499.057 49.2057 499.057C49.7891 499.057 50.2474 498.874 50.5807 498.515C50.9141 498.15 51.0807 497.609 51.0807 496.89V489.452Z" fill="white"/>
<path d="M33.8133 483.702V502.64H30.0008V494.911H26.1466V502.64H22.355V483.702H26.1466V491.723H30.0008V483.702H33.8133Z" fill="white"/>
<path d="M12.0151 483.702V485.64H12.0776C12.5776 484.942 13.0881 484.411 13.5985 484.036C14.1141 483.661 14.8276 483.473 15.7443 483.473C16.1922 483.473 16.6506 483.546 17.1193 483.682C17.5776 483.817 18.0151 484.077 18.4318 484.452C18.8641 484.796 19.2131 485.296 19.4735 485.952C19.7235 486.619 19.8485 487.473 19.8485 488.515C19.8485 489.583 19.7651 490.52 19.5985 491.327C19.4214 492.145 19.0933 492.827 18.6193 493.369C18.1766 493.895 17.5724 494.286 16.8068 494.536C16.0308 494.796 15.0464 494.932 13.8485 494.932H13.4318C13.2808 494.932 13.1401 494.921 13.0151 494.911C12.8901 494.879 12.7443 494.869 12.5776 494.869C12.4006 494.869 12.2131 494.853 12.0151 494.827V496.807C12.0151 497.458 12.1558 497.994 12.4318 498.411C12.6974 498.838 13.1922 499.057 13.911 499.057C14.411 499.057 14.8693 498.89 15.286 498.557C15.6922 498.234 15.9526 497.765 16.0776 497.14H19.786C19.6766 498.833 19.0985 500.202 18.0568 501.244C17.5568 501.744 16.9631 502.129 16.2651 502.411C15.5724 502.702 14.786 502.848 13.911 502.848C13.1193 502.848 12.3797 502.723 11.6818 502.473C10.9891 502.223 10.3797 501.853 9.84847 501.369C9.34847 500.869 8.95264 500.244 8.66097 499.494C8.35889 498.744 8.20264 497.874 8.20264 496.89V483.702H12.0151ZM12.0151 491.848C12.4318 491.916 12.7808 491.952 13.0568 491.952C13.8797 491.952 14.5776 491.754 15.161 491.369C15.7443 490.978 16.036 490.275 16.036 489.265C16.036 488.541 15.8641 487.958 15.5151 487.515C15.1714 487.067 14.6818 486.848 14.0568 486.848C13.4214 486.848 12.9214 487.057 12.5568 487.473C12.1974 487.89 12.0151 488.484 12.0151 489.265V491.848Z" fill="white"/>
</g>
<defs>
<filter id="filter0_i_549_375284" x="-0.604004" y="24.1829" width="822.489" height="502.26" filterUnits="userSpaceOnUse" color-interpolation-filters="sRGB">
<feFlood flood-opacity="0" result="BackgroundImageFix"/>
<feBlend mode="normal" in="SourceGraphic" in2="BackgroundImageFix" result="shape"/>
<feColorMatrix in="SourceAlpha" type="matrix" values="0 0 0 0 0 0 0 0 0 0 0 0 0 0 0 0 0 0 127 0" result="hardAlpha"/>
<feOffset dx="9" dy="13"/>
<feGaussianBlur stdDeviation="3.8"/>
<feComposite in2="hardAlpha" operator="arithmetic" k2="-1" k3="1"/>
<feColorMatrix type="matrix" values="0 0 0 0 0 0 0 0 0 0 0 0 0 0 0 0 0 0 0.25 0"/>
<feBlend mode="normal" in2="shape" result="effect1_innerShadow_549_375284"/>
</filter>
<clipPath id="clip0_549_375284">
<rect width="865.333" height="543.023" fill="white" transform="translate(-0.000488281)"/>
</clipPath>
</defs>
</svg>
