<svg width="866" height="544" viewBox="0 0 866 544" fill="none" xmlns="http://www.w3.org/2000/svg">
<g clip-path="url(#clip0_549_375521)">
<rect width="865.333" height="543.023" transform="translate(0.333008)" fill="white"/>
<mask id="mask0_549_375521" style="mask-type:luminance" maskUnits="userSpaceOnUse" x="0" y="0" width="866" height="544">
<path d="M0.333008 0H865.666V543.021H0.333008V0Z" fill="white"/>
</mask>
<g mask="url(#mask0_549_375521)">
<path d="M0.333008 543.021H865.666V0H0.333008V543.021Z" fill="#FC6649"/>
<g filter="url(#filter0_i_549_375521)">
<path d="M0.333008 51.9896H746.869C768.932 51.9896 786.812 69.8698 786.812 91.9323V100.198C786.812 122.255 768.932 140.141 746.869 140.141H67.4788C45.4216 140.141 27.5361 158.021 27.5361 180.083C27.5361 202.146 45.4216 220.026 67.4788 220.026H746.869C768.932 220.026 786.812 237.911 786.812 259.969V270.99C786.812 293.052 768.932 310.932 746.869 310.932H67.4788C45.4216 310.932 27.5361 328.818 27.5361 350.875V361.896C27.5361 383.958 45.4216 401.844 67.4788 401.844H746.869C768.932 401.844 786.812 419.724 786.812 441.786V451.089C786.812 473.151 768.932 491.036 746.869 491.036H0.333008" stroke="#0202E0" stroke-width="55.6133" stroke-miterlimit="10"/>
</g>
</g>
<path d="M40.0271 386.288L38.6312 387.142C37.9229 387.57 37.1729 387.84 36.3812 387.955C35.6 388.08 34.8239 388.059 34.0479 387.892C33.2666 387.726 32.5479 387.418 31.8812 386.976C31.2145 386.528 30.6573 385.945 30.2145 385.226C29.8239 384.611 29.5166 383.939 29.2979 383.205C29.0739 382.465 29.0166 381.71 29.1312 380.934C29.2562 380.153 29.5375 379.398 29.9854 378.663C30.4437 377.929 31.1937 377.241 32.2354 376.601L44.6937 368.892C45.4281 368.45 46.1937 368.158 46.9854 368.017C47.7875 367.866 48.5687 367.887 49.3187 368.08C50.0687 368.262 50.777 368.59 51.4437 369.059C52.1104 369.533 52.6833 370.163 53.1729 370.955C54.1156 372.486 54.3812 374.033 53.9645 375.601C53.7666 376.366 53.4125 377.096 52.902 377.788C52.402 378.465 51.7614 379.043 50.9854 379.517L49.6937 380.309L47.6937 377.059L48.7771 376.392C49.4125 376.007 49.85 375.486 50.0896 374.83C50.3396 374.179 50.2771 373.549 49.9021 372.934C49.4021 372.132 48.8239 371.747 48.1729 371.788C47.5166 371.83 46.8083 372.09 46.0479 372.559L34.4854 379.705C33.8187 380.106 33.3448 380.585 33.0687 381.142C32.8031 381.695 32.902 382.351 33.3604 383.101C33.4854 383.309 33.6573 383.507 33.8812 383.705C34.1156 383.898 34.3812 384.049 34.6729 384.163C34.9645 384.247 35.2979 384.257 35.6729 384.205C36.0479 384.163 36.4541 384.002 36.902 383.726L38.027 383.038L40.0271 386.288Z" fill="white"/>
<path d="M38.835 396.329L51.21 381.995L54.9391 385.225C55.5068 385.714 56.0433 386.266 56.5433 386.891C57.0433 387.516 57.361 388.256 57.5016 389.1C57.6266 389.865 57.5537 390.579 57.2933 391.245C57.0277 391.902 56.637 392.532 56.1266 393.141C55.9443 393.35 55.7152 393.579 55.4391 393.829C55.1735 394.068 54.861 394.277 54.5016 394.454C54.137 394.636 53.7308 394.777 53.2725 394.87C52.8141 394.954 52.335 394.933 51.835 394.808C52.0954 395.308 52.2516 395.771 52.2933 396.204C52.335 396.631 52.3037 397.047 52.21 397.454C52.111 397.87 51.9495 398.251 51.7308 398.6C51.5225 398.959 51.2829 399.292 51.0225 399.6C50.5068 400.193 49.9443 400.672 49.335 401.037C48.736 401.412 48.085 401.631 47.3766 401.704C46.512 401.797 45.6891 401.626 44.8975 401.183C44.1162 400.751 43.4183 400.271 42.7933 399.745L38.835 396.329ZM43.7725 396.412L44.9391 397.433C45.1475 397.6 45.3662 397.745 45.6058 397.87C45.8558 397.995 46.111 398.058 46.3766 398.058C46.637 398.068 46.9183 398.001 47.21 397.85C47.512 397.709 47.8193 397.459 48.1266 397.1C48.6266 396.501 48.9235 395.922 49.0225 395.37C49.1318 394.829 48.8454 394.266 48.1683 393.683L47.0016 392.662L43.7725 396.412ZM48.9391 390.412L50.085 391.391C50.6683 391.891 51.2204 392.068 51.7516 391.912C52.2933 391.745 52.8245 391.36 53.3558 390.745C53.7152 390.318 53.8975 389.839 53.8975 389.308C53.8975 388.782 53.6579 388.308 53.1891 387.891L52.0016 386.87L48.9391 390.412Z" fill="white"/>
<path d="M65.3538 410.461L66.3955 402.982L64.7913 402.774L61.3747 409.92L57.5205 409.378L61.4372 401.753C60.9059 401.42 60.5049 401.014 60.2288 400.524C59.9632 400.04 59.7809 399.54 59.6872 399.024C59.6038 398.498 59.5726 398.003 59.6038 397.545C59.6299 397.076 59.6663 396.701 59.708 396.42C59.8174 395.644 60.0674 394.836 60.458 394.003C60.8434 393.17 61.3955 392.54 62.1038 392.107C62.8226 391.649 63.5518 391.415 64.2913 391.399C65.0413 391.373 65.7809 391.415 66.5205 391.524L71.7288 392.253L69.1247 411.003L65.3538 410.461ZM67.5205 394.857L65.6872 394.607C64.9372 394.514 64.4007 394.722 64.083 395.232C63.7601 395.732 63.5518 396.352 63.458 397.086C63.234 398.701 63.8174 399.602 65.208 399.795L66.8122 400.003L67.5205 394.857Z" fill="white"/>
<path d="M81.548 391.573H85.3397V399.303H86.7355C87.3032 399.303 87.6834 399.11 87.8813 398.719C88.0897 398.318 88.2407 397.865 88.3397 397.365L88.7147 395.511C88.8397 394.928 89.048 394.334 89.3397 393.719C89.6418 393.094 90.0532 392.61 90.5688 392.261C91.0688 391.928 91.548 391.735 92.0063 391.678C92.4647 391.61 92.9543 391.573 93.4855 391.573H93.5688V394.948H93.5272C93.1522 394.948 92.8084 395.032 92.5063 395.198C92.2147 395.355 92.0063 395.756 91.8813 396.407L91.548 398.386C91.5168 398.459 91.4855 398.605 91.4438 398.823C91.4126 399.047 91.3449 399.292 91.2355 399.553C91.1366 399.818 91.0063 400.073 90.8397 400.323C90.6834 400.573 90.4855 400.761 90.2355 400.886L93.4438 410.511H89.5688L87.1313 402.49H85.3397V410.511H81.548V402.49H79.7563L77.3188 410.511H73.4438L76.6522 400.886C76.3709 400.761 76.1522 400.573 75.9855 400.323C75.8293 400.073 75.7043 399.818 75.6105 399.553C75.5272 399.292 75.4647 399.047 75.423 398.823C75.3918 398.605 75.3657 398.459 75.3397 398.386L75.0063 396.407C74.8813 395.756 74.6626 395.355 74.3605 395.198C74.0688 395.032 73.7355 394.948 73.3605 394.948H73.3188V391.573H73.4022C73.9282 391.573 74.423 391.615 74.8813 391.698C75.3397 391.771 75.8188 391.959 76.3188 392.261C76.8866 392.61 77.3032 393.094 77.5688 393.719C77.8449 394.334 78.048 394.928 78.173 395.511L78.548 397.365C78.6418 397.865 78.7876 398.318 78.9855 398.719C79.1938 399.11 79.5793 399.303 80.1522 399.303H81.548V391.573Z" fill="white"/>
<path d="M103.598 410.511V398.49H103.515L99.3065 410.511H95.4106V391.573H98.994V403.594H99.0773L103.265 391.573H107.181V410.511H103.598Z" fill="white"/>
<path d="M112.466 410.511V394.948H108.737V391.573H120.008V394.948H116.278V410.511H112.466Z" fill="white"/>
<path d="M132.589 402.49H125.047V405.053C125.047 405.652 125.214 406.115 125.547 406.448C125.881 406.771 126.339 406.928 126.922 406.928C127.631 406.928 128.099 406.719 128.339 406.303C128.589 405.876 128.735 405.448 128.777 405.032H132.589C132.589 406.698 132.073 408.042 131.047 409.053C130.558 409.584 129.964 410.001 129.256 410.303C128.558 410.594 127.782 410.74 126.922 410.74C125.724 410.74 124.704 410.49 123.86 409.99C123.027 409.49 122.386 408.834 121.943 408.011C121.662 407.511 121.474 406.943 121.381 406.303C121.282 405.652 121.235 404.938 121.235 404.157V397.928C121.235 397.167 121.282 396.459 121.381 395.803C121.474 395.152 121.662 394.584 121.943 394.094C122.386 393.261 123.027 392.605 123.86 392.115C124.704 391.615 125.724 391.365 126.922 391.365C127.782 391.365 128.568 391.521 129.277 391.823C129.985 392.115 130.589 392.521 131.089 393.032C132.089 394.157 132.589 395.568 132.589 397.261V402.49ZM125.047 399.49H128.777V397.323C128.777 396.605 128.61 396.063 128.277 395.698C127.943 395.339 127.49 395.157 126.922 395.157C126.339 395.157 125.881 395.339 125.547 395.698C125.214 396.063 125.047 396.605 125.047 397.323V399.49Z" fill="white"/>
<path d="M146.356 405.053C146.356 405.652 146.523 406.115 146.856 406.448C147.19 406.771 147.638 406.928 148.211 406.928C148.929 406.928 149.409 406.719 149.648 406.303C149.882 405.876 150.028 405.448 150.086 405.032H153.898C153.898 406.698 153.382 408.042 152.356 409.053C151.856 409.584 151.257 410.001 150.565 410.303C149.867 410.594 149.086 410.74 148.211 410.74C147.013 410.74 146.002 410.49 145.169 409.99C144.336 409.49 143.695 408.834 143.252 408.011C142.971 407.511 142.784 406.943 142.69 406.303C142.591 405.652 142.544 404.938 142.544 404.157V397.928C142.544 397.167 142.591 396.459 142.69 395.803C142.784 395.152 142.971 394.584 143.252 394.094C143.695 393.261 144.336 392.605 145.169 392.115C146.002 391.615 147.013 391.365 148.211 391.365C149.086 391.365 149.877 391.521 150.586 391.823C151.294 392.115 151.898 392.521 152.398 393.032C153.398 394.157 153.898 395.615 153.898 397.407H150.086C150.086 396.631 149.919 396.063 149.586 395.698C149.252 395.339 148.794 395.157 148.211 395.157C147.638 395.157 147.19 395.339 146.856 395.698C146.523 396.063 146.356 396.605 146.356 397.323V405.053Z" fill="white"/>
<path d="M163.062 418.157V391.573H166.874V393.303C167.343 392.751 167.832 392.292 168.332 391.928C168.832 391.553 169.551 391.365 170.499 391.365C172.067 391.365 173.171 391.964 173.812 393.157C174.03 393.573 174.192 394.094 174.291 394.719C174.4 395.344 174.457 396.178 174.457 397.219V404.428C174.457 405.818 174.416 406.823 174.332 407.448C174.192 408.698 173.624 409.631 172.624 410.24C172.124 410.573 171.4 410.74 170.457 410.74C169.707 410.74 169.041 410.573 168.457 410.24C167.874 409.896 167.374 409.417 166.957 408.803H166.874V418.157H163.062ZM170.645 397.74C170.645 396.98 170.489 396.36 170.187 395.886C169.895 395.402 169.421 395.157 168.77 395.157C168.197 395.157 167.739 395.381 167.395 395.823C167.046 396.256 166.874 396.818 166.874 397.511V404.865C166.874 405.464 167.051 405.959 167.416 406.344C167.775 406.735 168.228 406.928 168.77 406.928C169.489 406.928 169.983 406.709 170.249 406.261C170.509 405.803 170.645 405.277 170.645 404.678V397.74Z" fill="white"/>
<path d="M185.764 410.511V398.49H185.681L181.472 410.511H177.577V391.573H181.16V403.594H181.243L185.431 391.573H189.347V410.511H185.764Z" fill="white"/>
<path d="M192.465 410.511V391.573H196.361L200.194 401.74H200.278L204.111 391.573H208.007V410.511H204.34V399.053H204.278L201.215 407.407H199.257L196.194 399.053H196.132V410.511H192.465Z" fill="white"/>
<path d="M215.164 405.053C215.164 405.652 215.331 406.115 215.664 406.448C215.997 406.771 216.445 406.928 217.018 406.928C217.737 406.928 218.216 406.719 218.456 406.303C218.69 405.876 218.836 405.448 218.893 405.032H222.706C222.706 406.698 222.19 408.042 221.164 409.053C220.664 409.584 220.065 410.001 219.372 410.303C218.674 410.594 217.893 410.74 217.018 410.74C215.82 410.74 214.81 410.49 213.977 409.99C213.143 409.49 212.503 408.834 212.06 408.011C211.779 407.511 211.591 406.943 211.497 406.303C211.398 405.652 211.352 404.938 211.352 404.157V397.928C211.352 397.167 211.398 396.459 211.497 395.803C211.591 395.152 211.779 394.584 212.06 394.094C212.503 393.261 213.143 392.605 213.977 392.115C214.81 391.615 215.82 391.365 217.018 391.365C217.893 391.365 218.685 391.521 219.393 391.823C220.102 392.115 220.706 392.521 221.206 393.032C222.206 394.157 222.706 395.615 222.706 397.407H218.893C218.893 396.631 218.727 396.063 218.393 395.698C218.06 395.339 217.602 395.157 217.018 395.157C216.445 395.157 215.997 395.339 215.664 395.698C215.331 396.063 215.164 396.605 215.164 397.323V405.053Z" fill="white"/>
<path d="M224.966 410.511V391.573H228.778V399.303H230.237C230.804 399.303 231.185 399.11 231.382 398.719C231.591 398.318 231.757 397.818 231.882 397.219L232.278 395.053C232.429 394.485 232.622 393.969 232.862 393.511C233.096 393.053 233.414 392.688 233.82 392.407C234.237 392.105 234.721 391.886 235.278 391.761C235.846 391.636 236.492 391.573 237.216 391.573H237.299V394.948H237.174C236.726 394.948 236.351 395.032 236.049 395.198C235.757 395.355 235.549 395.714 235.424 396.282L235.049 398.386C235.018 398.459 234.987 398.605 234.945 398.823C234.914 399.047 234.851 399.292 234.757 399.553C234.659 399.818 234.528 400.073 234.362 400.323C234.195 400.573 233.987 400.761 233.737 400.886L237.549 410.511H233.674L230.653 402.49H228.778V410.511H224.966Z" fill="white"/>
<path d="M239.073 397.928C239.073 397.167 239.12 396.459 239.219 395.803C239.313 395.152 239.5 394.584 239.782 394.094C240.224 393.261 240.865 392.605 241.698 392.115C242.542 391.615 243.563 391.365 244.761 391.365C245.953 391.365 246.969 391.615 247.802 392.115C248.636 392.605 249.271 393.261 249.719 394.094C249.995 394.584 250.183 395.152 250.282 395.803C250.375 396.459 250.427 397.167 250.427 397.928V404.157C250.427 404.938 250.375 405.652 250.282 406.303C250.183 406.943 249.995 407.511 249.719 408.011C249.271 408.834 248.636 409.49 247.802 409.99C246.969 410.49 245.953 410.74 244.761 410.74C243.563 410.74 242.542 410.49 241.698 409.99C240.865 409.49 240.224 408.834 239.782 408.011C239.5 407.511 239.313 406.943 239.219 406.303C239.12 405.652 239.073 404.938 239.073 404.157V397.928ZM242.886 404.761C242.886 405.485 243.052 406.027 243.386 406.386C243.719 406.751 244.177 406.928 244.761 406.928C245.328 406.928 245.782 406.751 246.115 406.386C246.448 406.027 246.615 405.485 246.615 404.761V397.323C246.615 396.605 246.448 396.063 246.115 395.698C245.782 395.339 245.328 395.157 244.761 395.157C244.177 395.157 243.719 395.339 243.386 395.698C243.052 396.063 242.886 396.605 242.886 397.323V404.761Z" fill="white"/>
<path d="M261.4 410.511V398.49H261.317L257.109 410.511H253.213V391.573H256.796V403.594H256.88L261.067 391.573H264.984V410.511H261.4ZM257.255 384.573C257.281 384.714 257.301 384.896 257.317 385.115C257.327 385.323 257.39 385.532 257.505 385.74C257.614 385.948 257.796 386.131 258.046 386.282C258.296 386.438 258.656 386.511 259.13 386.511C259.598 386.511 259.963 386.438 260.213 386.282C260.463 386.131 260.64 385.948 260.755 385.74C260.864 385.532 260.921 385.323 260.921 385.115C260.932 384.896 260.952 384.714 260.984 384.573H264.171C264.046 385.964 263.588 387.032 262.796 387.782C262.015 388.521 260.796 388.886 259.13 388.886C257.463 388.886 256.234 388.511 255.442 387.761C254.661 387.001 254.213 385.938 254.088 384.573H257.255Z" fill="white"/>
<path d="M275.042 410.511V391.573H279.979C280.729 391.573 281.5 391.652 282.292 391.803C283.084 391.959 283.802 392.303 284.459 392.844C285.052 393.344 285.469 393.938 285.709 394.615C285.943 395.282 286.063 396.011 286.063 396.803C286.063 397.084 286.032 397.402 285.979 397.761C285.938 398.126 285.839 398.49 285.688 398.865C285.532 399.24 285.313 399.61 285.021 399.969C284.74 400.334 284.365 400.636 283.896 400.886C284.422 401.084 284.844 401.334 285.167 401.636C285.485 401.928 285.735 402.261 285.917 402.636C286.11 403.011 286.235 403.407 286.292 403.823C286.36 404.23 286.396 404.631 286.396 405.032C286.396 405.823 286.292 406.563 286.084 407.24C285.875 407.907 285.521 408.501 285.021 409.011C284.422 409.636 283.688 410.047 282.813 410.24C281.938 410.422 281.089 410.511 280.271 410.511H275.042ZM278.854 407.344H280.396C280.657 407.344 280.922 407.318 281.188 407.261C281.448 407.193 281.688 407.073 281.896 406.907C282.104 406.73 282.271 406.49 282.396 406.198C282.521 405.896 282.584 405.506 282.584 405.032C282.584 404.256 282.438 403.626 282.146 403.136C281.865 402.652 281.282 402.407 280.396 402.407H278.854V407.344ZM278.854 399.428H280.354C281.115 399.428 281.646 399.193 281.938 398.719C282.24 398.251 282.396 397.61 282.396 396.803C282.396 396.235 282.219 395.756 281.875 395.365C281.526 394.964 281.042 394.761 280.417 394.761H278.854V399.428Z" fill="white"/>
<path d="M296.318 410.511V408.573H296.255C295.755 409.271 295.245 409.803 294.734 410.178C294.219 410.553 293.505 410.74 292.589 410.74C292.141 410.74 291.682 410.667 291.214 410.532C290.755 410.396 290.318 410.136 289.901 409.761C289.469 409.417 289.12 408.917 288.859 408.261C288.609 407.594 288.484 406.74 288.484 405.698C288.484 404.631 288.568 403.693 288.734 402.886C288.911 402.068 289.24 401.386 289.714 400.844C290.156 400.318 290.76 399.928 291.526 399.678C292.302 399.417 293.286 399.282 294.484 399.282H294.901C295.052 399.282 295.193 399.292 295.318 399.303C295.443 399.334 295.589 399.344 295.755 399.344C295.932 399.344 296.12 399.36 296.318 399.386V397.407C296.318 396.756 296.177 396.219 295.901 395.803C295.635 395.376 295.141 395.157 294.422 395.157C293.922 395.157 293.464 395.323 293.047 395.657C292.641 395.98 292.38 396.448 292.255 397.073H288.547C288.656 395.381 289.234 394.011 290.276 392.969C290.776 392.469 291.37 392.084 292.068 391.803C292.76 391.511 293.547 391.365 294.422 391.365C295.214 391.365 295.953 391.49 296.651 391.74C297.344 391.99 297.953 392.36 298.484 392.844C298.984 393.344 299.38 393.969 299.672 394.719C299.974 395.469 300.13 396.339 300.13 397.323V410.511H296.318ZM296.318 402.365C295.901 402.297 295.552 402.261 295.276 402.261C294.453 402.261 293.755 402.459 293.172 402.844C292.589 403.235 292.297 403.938 292.297 404.948C292.297 405.672 292.469 406.256 292.818 406.698C293.161 407.146 293.651 407.365 294.276 407.365C294.911 407.365 295.411 407.157 295.776 406.74C296.135 406.323 296.318 405.73 296.318 404.948V402.365Z" fill="white"/>
<path d="M302.916 410.511V391.573H306.728V399.303H308.186C308.754 399.303 309.134 399.11 309.332 398.719C309.541 398.318 309.707 397.818 309.832 397.219L310.228 395.053C310.379 394.485 310.572 393.969 310.811 393.511C311.046 393.053 311.363 392.688 311.77 392.407C312.186 392.105 312.671 391.886 313.228 391.761C313.796 391.636 314.442 391.573 315.166 391.573H315.249V394.948H315.124C314.676 394.948 314.301 395.032 313.999 395.198C313.707 395.355 313.499 395.714 313.374 396.282L312.999 398.386C312.968 398.459 312.936 398.605 312.895 398.823C312.863 399.047 312.801 399.292 312.707 399.553C312.608 399.818 312.478 400.073 312.311 400.323C312.145 400.573 311.936 400.761 311.686 400.886L315.499 410.511H311.624L308.603 402.49H306.728V410.511H302.916Z" fill="white"/>
<path d="M315.377 410.511L320.044 400.844L315.606 391.573H319.648L321.981 396.969L324.335 391.573H328.377L323.856 400.844L328.606 410.511H324.564L321.981 404.719L319.419 410.511H315.377Z" fill="white"/>
<path d="M336.953 410.511V408.573H336.89C336.39 409.271 335.88 409.803 335.37 410.178C334.854 410.553 334.14 410.74 333.224 410.74C332.776 410.74 332.318 410.667 331.849 410.532C331.39 410.396 330.953 410.136 330.536 409.761C330.104 409.417 329.755 408.917 329.495 408.261C329.245 407.594 329.12 406.74 329.12 405.698C329.12 404.631 329.203 403.693 329.37 402.886C329.547 402.068 329.875 401.386 330.349 400.844C330.792 400.318 331.396 399.928 332.161 399.678C332.937 399.417 333.922 399.282 335.12 399.282H335.536C335.687 399.282 335.828 399.292 335.953 399.303C336.078 399.334 336.224 399.344 336.39 399.344C336.568 399.344 336.755 399.36 336.953 399.386V397.407C336.953 396.756 336.812 396.219 336.536 395.803C336.271 395.376 335.776 395.157 335.057 395.157C334.557 395.157 334.099 395.323 333.682 395.657C333.276 395.98 333.015 396.448 332.89 397.073H329.182C329.292 395.381 329.87 394.011 330.911 392.969C331.411 392.469 332.005 392.084 332.703 391.803C333.396 391.511 334.182 391.365 335.057 391.365C335.849 391.365 336.588 391.49 337.286 391.74C337.979 391.99 338.588 392.36 339.12 392.844C339.62 393.344 340.015 393.969 340.307 394.719C340.609 395.469 340.765 396.339 340.765 397.323V410.511H336.953ZM336.953 402.365C336.536 402.297 336.187 402.261 335.911 402.261C335.088 402.261 334.39 402.459 333.807 402.844C333.224 403.235 332.932 403.938 332.932 404.948C332.932 405.672 333.104 406.256 333.453 406.698C333.797 407.146 334.286 407.365 334.911 407.365C335.547 407.365 336.047 407.157 336.411 406.74C336.771 406.323 336.953 405.73 336.953 404.948V402.365Z" fill="white"/>
<path d="M343.551 410.511V391.573H347.363V399.303H351.217V391.573H355.009V410.511H351.217V402.49H347.363V410.511H343.551Z" fill="white"/>
<path d="M365.386 410.511V408.573H365.324C364.824 409.271 364.313 409.803 363.803 410.178C363.287 410.553 362.574 410.74 361.657 410.74C361.209 410.74 360.751 410.667 360.282 410.532C359.824 410.396 359.386 410.136 358.969 409.761C358.537 409.417 358.188 408.917 357.928 408.261C357.678 407.594 357.553 406.74 357.553 405.698C357.553 404.631 357.636 403.693 357.803 402.886C357.98 402.068 358.308 401.386 358.782 400.844C359.225 400.318 359.829 399.928 360.594 399.678C361.37 399.417 362.355 399.282 363.553 399.282H363.969C364.12 399.282 364.261 399.292 364.386 399.303C364.511 399.334 364.657 399.344 364.824 399.344C365.001 399.344 365.188 399.36 365.386 399.386V397.407C365.386 396.756 365.245 396.219 364.969 395.803C364.704 395.376 364.209 395.157 363.49 395.157C362.99 395.157 362.532 395.323 362.115 395.657C361.709 395.98 361.449 396.448 361.324 397.073H357.615C357.725 395.381 358.303 394.011 359.344 392.969C359.844 392.469 360.438 392.084 361.136 391.803C361.829 391.511 362.615 391.365 363.49 391.365C364.282 391.365 365.021 391.49 365.719 391.74C366.412 391.99 367.021 392.36 367.553 392.844C368.053 393.344 368.449 393.969 368.74 394.719C369.042 395.469 369.199 396.339 369.199 397.323V410.511H365.386ZM365.386 402.365C364.969 402.297 364.62 402.261 364.344 402.261C363.521 402.261 362.824 402.459 362.24 402.844C361.657 403.235 361.365 403.938 361.365 404.948C361.365 405.672 361.537 406.256 361.886 406.698C362.23 407.146 362.719 407.365 363.344 407.365C363.98 407.365 364.48 407.157 364.844 406.74C365.204 406.323 365.386 405.73 365.386 404.948V402.365Z" fill="white"/>
<path d="M370.692 406.928C370.953 406.928 371.224 406.855 371.505 406.698C371.797 406.547 372.093 406.292 372.401 405.928C372.651 405.626 372.843 405.193 372.984 404.636C373.135 404.068 373.244 403.485 373.317 402.886C373.401 402.277 373.453 401.693 373.484 401.136C373.51 400.568 373.526 400.131 373.526 399.823V391.573H383.963V410.511H380.172V394.761H377.109V398.261C377.109 399.136 377.078 400.021 377.026 400.907C376.984 401.782 376.901 402.631 376.776 403.448C376.661 404.256 376.515 405.006 376.338 405.698C376.172 406.396 375.953 406.99 375.692 407.49C375.161 408.464 374.474 409.214 373.63 409.74C372.781 410.256 371.823 410.511 370.755 410.511H370.505V406.928H370.692Z" fill="white"/>
<path d="M395.284 410.511V398.49H395.201L390.993 410.511H387.097V391.573H390.68V403.594H390.763L394.951 391.573H398.868V410.511H395.284Z" fill="white"/>
<path d="M413.006 402.49H405.464V405.053C405.464 405.652 405.631 406.115 405.964 406.448C406.297 406.771 406.756 406.928 407.339 406.928C408.047 406.928 408.516 406.719 408.756 406.303C409.006 405.876 409.151 405.448 409.193 405.032H413.006C413.006 406.698 412.49 408.042 411.464 409.053C410.974 409.584 410.381 410.001 409.672 410.303C408.974 410.594 408.198 410.74 407.339 410.74C406.141 410.74 405.12 410.49 404.276 409.99C403.443 409.49 402.802 408.834 402.36 408.011C402.078 407.511 401.891 406.943 401.797 406.303C401.698 405.652 401.651 404.938 401.651 404.157V397.928C401.651 397.167 401.698 396.459 401.797 395.803C401.891 395.152 402.078 394.584 402.36 394.094C402.802 393.261 403.443 392.605 404.276 392.115C405.12 391.615 406.141 391.365 407.339 391.365C408.198 391.365 408.985 391.521 409.693 391.823C410.401 392.115 411.006 392.521 411.506 393.032C412.506 394.157 413.006 395.568 413.006 397.261V402.49ZM405.464 399.49H409.193V397.323C409.193 396.605 409.026 396.063 408.693 395.698C408.36 395.339 407.907 395.157 407.339 395.157C406.756 395.157 406.297 395.339 405.964 395.698C405.631 396.063 405.464 396.605 405.464 397.323V399.49Z" fill="white"/>
<path d="M423.979 410.511V398.49H423.895L419.687 410.511H415.791V391.573H419.374V403.594H419.458L423.645 391.573H427.562V410.511H423.979ZM419.833 384.573C419.859 384.714 419.88 384.896 419.895 385.115C419.906 385.323 419.968 385.532 420.083 385.74C420.192 385.948 420.374 386.131 420.624 386.282C420.874 386.438 421.234 386.511 421.708 386.511C422.176 386.511 422.541 386.438 422.791 386.282C423.041 386.131 423.218 385.948 423.333 385.74C423.442 385.532 423.499 385.323 423.499 385.115C423.51 384.896 423.531 384.714 423.562 384.573H426.749C426.624 385.964 426.166 387.032 425.374 387.782C424.593 388.521 423.374 388.886 421.708 388.886C420.041 388.886 418.812 388.511 418.02 387.761C417.239 387.001 416.791 385.938 416.666 384.573H419.833Z" fill="white"/>
<path d="M430.68 410.511V406.698H434.492V410.511H430.68Z" fill="white"/>
<path d="M444.79 410.511V383.928H455.394V387.511H448.602V410.511H444.79Z" fill="white"/>
<path d="M453.667 397.928C453.667 397.167 453.714 396.459 453.813 395.803C453.907 395.152 454.095 394.584 454.376 394.094C454.819 393.261 455.459 392.605 456.292 392.115C457.136 391.615 458.157 391.365 459.355 391.365C460.548 391.365 461.563 391.615 462.397 392.115C463.23 392.605 463.865 393.261 464.313 394.094C464.589 394.584 464.777 395.152 464.876 395.803C464.97 396.459 465.022 397.167 465.022 397.928V404.157C465.022 404.938 464.97 405.652 464.876 406.303C464.777 406.943 464.589 407.511 464.313 408.011C463.865 408.834 463.23 409.49 462.397 409.99C461.563 410.49 460.548 410.74 459.355 410.74C458.157 410.74 457.136 410.49 456.292 409.99C455.459 409.49 454.819 408.834 454.376 408.011C454.095 407.511 453.907 406.943 453.813 406.303C453.714 405.652 453.667 404.938 453.667 404.157V397.928ZM457.48 404.761C457.48 405.485 457.647 406.027 457.98 406.386C458.313 406.751 458.772 406.928 459.355 406.928C459.923 406.928 460.376 406.751 460.709 406.386C461.042 406.027 461.209 405.485 461.209 404.761V397.323C461.209 396.605 461.042 396.063 460.709 395.698C460.376 395.339 459.923 395.157 459.355 395.157C458.772 395.157 458.313 395.339 457.98 395.698C457.647 396.063 457.48 396.605 457.48 397.323V404.761Z" fill="white"/>
<path d="M467.77 418.157V391.573H471.583V393.303C472.051 392.751 472.541 392.292 473.041 391.928C473.541 391.553 474.26 391.365 475.208 391.365C476.775 391.365 477.879 391.964 478.52 393.157C478.739 393.573 478.9 394.094 478.999 394.719C479.109 395.344 479.166 396.178 479.166 397.219V404.428C479.166 405.818 479.124 406.823 479.041 407.448C478.9 408.698 478.333 409.631 477.333 410.24C476.833 410.573 476.109 410.74 475.166 410.74C474.416 410.74 473.749 410.573 473.166 410.24C472.583 409.896 472.083 409.417 471.666 408.803H471.583V418.157H467.77ZM475.353 397.74C475.353 396.98 475.197 396.36 474.895 395.886C474.603 395.402 474.129 395.157 473.478 395.157C472.905 395.157 472.447 395.381 472.103 395.823C471.754 396.256 471.583 396.818 471.583 397.511V404.865C471.583 405.464 471.76 405.959 472.124 406.344C472.484 406.735 472.937 406.928 473.478 406.928C474.197 406.928 474.692 406.709 474.958 406.261C475.218 405.803 475.353 405.277 475.353 404.678V397.74Z" fill="white"/>
<path d="M489.493 410.511V408.573H489.431C488.931 409.271 488.421 409.803 487.91 410.178C487.395 410.553 486.681 410.74 485.764 410.74C485.316 410.74 484.858 410.667 484.389 410.532C483.931 410.396 483.493 410.136 483.077 409.761C482.645 409.417 482.296 408.917 482.035 408.261C481.785 407.594 481.66 406.74 481.66 405.698C481.66 404.631 481.743 403.693 481.91 402.886C482.087 402.068 482.415 401.386 482.889 400.844C483.332 400.318 483.936 399.928 484.702 399.678C485.478 399.417 486.462 399.282 487.66 399.282H488.077C488.228 399.282 488.368 399.292 488.493 399.303C488.618 399.334 488.764 399.344 488.931 399.344C489.108 399.344 489.296 399.36 489.493 399.386V397.407C489.493 396.756 489.353 396.219 489.077 395.803C488.811 395.376 488.316 395.157 487.598 395.157C487.098 395.157 486.639 395.323 486.223 395.657C485.816 395.98 485.556 396.448 485.431 397.073H481.723C481.832 395.381 482.41 394.011 483.452 392.969C483.952 392.469 484.546 392.084 485.243 391.803C485.936 391.511 486.723 391.365 487.598 391.365C488.389 391.365 489.129 391.49 489.827 391.74C490.52 391.99 491.129 392.36 491.66 392.844C492.16 393.344 492.556 393.969 492.848 394.719C493.15 395.469 493.306 396.339 493.306 397.323V410.511H489.493ZM489.493 402.365C489.077 402.297 488.728 402.261 488.452 402.261C487.629 402.261 486.931 402.459 486.348 402.844C485.764 403.235 485.473 403.938 485.473 404.948C485.473 405.672 485.645 406.256 485.993 406.698C486.337 407.146 486.827 407.365 487.452 407.365C488.087 407.365 488.587 407.157 488.952 406.74C489.311 406.323 489.493 405.73 489.493 404.948V402.365Z" fill="white"/>
<path d="M496.091 410.511V391.573H499.904V407.344H503.675V391.573H507.487V407.344H509.508V414.24H506.279V410.511H496.091Z" fill="white"/>
<path d="M519.391 410.511V398.49H519.308L515.099 410.511H511.204V391.573H514.787V403.594H514.87L519.058 391.573H522.974V410.511H519.391Z" fill="white"/>
<path d="M534.28 410.511V398.49H534.196L529.988 410.511H526.092V391.573H529.676V403.594H529.759L533.946 391.573H537.863V410.511H534.28ZM530.134 384.573C530.16 384.714 530.181 384.896 530.196 385.115C530.207 385.323 530.269 385.532 530.384 385.74C530.493 385.948 530.676 386.131 530.926 386.282C531.176 386.438 531.535 386.511 532.009 386.511C532.478 386.511 532.842 386.438 533.092 386.282C533.342 386.131 533.519 385.948 533.634 385.74C533.743 385.532 533.801 385.323 533.801 385.115C533.811 384.896 533.832 384.714 533.863 384.573H537.051C536.926 385.964 536.467 387.032 535.676 387.782C534.894 388.521 533.676 388.886 532.009 388.886C530.342 388.886 529.113 388.511 528.321 387.761C527.54 387.001 527.092 385.938 526.967 384.573H530.134Z" fill="white"/>
<path d="M547.921 410.511V391.573H559.317V410.511H555.504V394.761H551.733V410.511H547.921Z" fill="white"/>
<path d="M561.954 397.928C561.954 397.167 562 396.459 562.099 395.803C562.193 395.152 562.381 394.584 562.662 394.094C563.105 393.261 563.745 392.605 564.579 392.115C565.422 391.615 566.443 391.365 567.641 391.365C568.834 391.365 569.849 391.615 570.683 392.115C571.516 392.605 572.152 393.261 572.599 394.094C572.875 394.584 573.063 395.152 573.162 395.803C573.256 396.459 573.308 397.167 573.308 397.928V404.157C573.308 404.938 573.256 405.652 573.162 406.303C573.063 406.943 572.875 407.511 572.599 408.011C572.152 408.834 571.516 409.49 570.683 409.99C569.849 410.49 568.834 410.74 567.641 410.74C566.443 410.74 565.422 410.49 564.579 409.99C563.745 409.49 563.105 408.834 562.662 408.011C562.381 407.511 562.193 406.943 562.099 406.303C562 405.652 561.954 404.938 561.954 404.157V397.928ZM565.766 404.761C565.766 405.485 565.933 406.027 566.266 406.386C566.599 406.751 567.058 406.928 567.641 406.928C568.209 406.928 568.662 406.751 568.995 406.386C569.329 406.027 569.495 405.485 569.495 404.761V397.323C569.495 396.605 569.329 396.063 568.995 395.698C568.662 395.339 568.209 395.157 567.641 395.157C567.058 395.157 566.599 395.339 566.266 395.698C565.933 396.063 565.766 396.605 565.766 397.323V404.761Z" fill="white"/>
<path d="M576.093 410.511V391.573H579.989L583.822 401.74H583.906L587.739 391.573H591.635V410.511H587.968V399.053H587.906L584.843 407.407H582.885L579.822 399.053H579.76V410.511H576.093Z" fill="white"/>
<path d="M594.417 397.928C594.417 397.167 594.464 396.459 594.563 395.803C594.657 395.152 594.844 394.584 595.125 394.094C595.568 393.261 596.209 392.605 597.042 392.115C597.886 391.615 598.907 391.365 600.104 391.365C601.297 391.365 602.313 391.615 603.146 392.115C603.979 392.605 604.615 393.261 605.063 394.094C605.339 394.584 605.526 395.152 605.625 395.803C605.719 396.459 605.771 397.167 605.771 397.928V404.157C605.771 404.938 605.719 405.652 605.625 406.303C605.526 406.943 605.339 407.511 605.063 408.011C604.615 408.834 603.979 409.49 603.146 409.99C602.313 410.49 601.297 410.74 600.104 410.74C598.907 410.74 597.886 410.49 597.042 409.99C596.209 409.49 595.568 408.834 595.125 408.011C594.844 407.511 594.657 406.943 594.563 406.303C594.464 405.652 594.417 404.938 594.417 404.157V397.928ZM598.229 404.761C598.229 405.485 598.396 406.027 598.729 406.386C599.063 406.751 599.521 406.928 600.104 406.928C600.672 406.928 601.125 406.751 601.459 406.386C601.792 406.027 601.959 405.485 601.959 404.761V397.323C601.959 396.605 601.792 396.063 601.459 395.698C601.125 395.339 600.672 395.157 600.104 395.157C599.521 395.157 599.063 395.339 598.729 395.698C598.396 396.063 598.229 396.605 598.229 397.323V404.761Z" fill="white"/>
<path d="M615.515 391.573H619.306V399.303H620.702C621.27 399.303 621.65 399.11 621.848 398.719C622.056 398.318 622.208 397.865 622.306 397.365L622.681 395.511C622.806 394.928 623.015 394.334 623.306 393.719C623.609 393.094 624.02 392.61 624.536 392.261C625.036 391.928 625.515 391.735 625.973 391.678C626.431 391.61 626.921 391.573 627.452 391.573H627.536V394.948H627.494C627.119 394.948 626.775 395.032 626.473 395.198C626.181 395.355 625.973 395.756 625.848 396.407L625.515 398.386C625.484 398.459 625.452 398.605 625.411 398.823C625.379 399.047 625.312 399.292 625.202 399.553C625.103 399.818 624.973 400.073 624.806 400.323C624.65 400.573 624.452 400.761 624.202 400.886L627.411 410.511H623.536L621.098 402.49H619.306V410.511H615.515V402.49H613.723L611.286 410.511H607.411L610.619 400.886C610.338 400.761 610.119 400.573 609.952 400.323C609.796 400.073 609.671 399.818 609.577 399.553C609.494 399.292 609.431 399.047 609.39 398.823C609.359 398.605 609.333 398.459 609.306 398.386L608.973 396.407C608.848 395.756 608.629 395.355 608.327 395.198C608.036 395.032 607.702 394.948 607.327 394.948H607.286V391.573H607.369C607.895 391.573 608.39 391.615 608.848 391.698C609.306 391.771 609.786 391.959 610.286 392.261C610.853 392.61 611.27 393.094 611.536 393.719C611.812 394.334 612.015 394.928 612.14 395.511L612.515 397.365C612.609 397.865 612.754 398.318 612.952 398.719C613.161 399.11 613.546 399.303 614.119 399.303H615.515V391.573Z" fill="white"/>
<path d="M640.399 402.49H632.857V405.053C632.857 405.652 633.024 406.115 633.357 406.448C633.691 406.771 634.149 406.928 634.732 406.928C635.441 406.928 635.91 406.719 636.149 406.303C636.399 405.876 636.545 405.448 636.587 405.032H640.399C640.399 406.698 639.883 408.042 638.857 409.053C638.368 409.584 637.774 410.001 637.066 410.303C636.368 410.594 635.592 410.74 634.732 410.74C633.535 410.74 632.514 410.49 631.67 409.99C630.837 409.49 630.196 408.834 629.753 408.011C629.472 407.511 629.285 406.943 629.191 406.303C629.092 405.652 629.045 404.938 629.045 404.157V397.928C629.045 397.167 629.092 396.459 629.191 395.803C629.285 395.152 629.472 394.584 629.753 394.094C630.196 393.261 630.837 392.605 631.67 392.115C632.514 391.615 633.535 391.365 634.732 391.365C635.592 391.365 636.378 391.521 637.087 391.823C637.795 392.115 638.399 392.521 638.899 393.032C639.899 394.157 640.399 395.568 640.399 397.261V402.49ZM632.857 399.49H636.587V397.323C636.587 396.605 636.42 396.063 636.087 395.698C635.753 395.339 635.3 395.157 634.732 395.157C634.149 395.157 633.691 395.339 633.357 395.698C633.024 396.063 632.857 396.605 632.857 397.323V399.49Z" fill="white"/>
<path d="M645.351 410.511V394.948H641.622V391.573H652.892V394.948H649.163V410.511H645.351Z" fill="white"/>
<path d="M653.334 410.511V406.698H657.146V410.511H653.334Z" fill="white"/>
<path d="M673.09 387.282V395.011C673.09 395.417 673.074 396.094 673.048 397.053C673.017 398.011 672.954 399.068 672.86 400.219C672.761 401.36 672.61 402.49 672.402 403.615C672.204 404.73 671.933 405.657 671.59 406.407C670.991 407.672 670.225 408.672 669.298 409.407C668.381 410.146 667.261 410.511 665.944 410.511H665.735V406.698C666.47 406.657 667.048 406.438 667.465 406.032C667.892 405.631 668.246 405.131 668.527 404.532C668.746 404.021 668.928 403.386 669.069 402.636C669.204 401.886 669.308 401.089 669.381 400.24C669.465 399.396 669.511 398.527 669.527 397.636C669.553 396.735 669.569 395.876 669.569 395.053V383.928H680.631V410.511H676.819V387.282H673.09Z" fill="white"/>
<path d="M694.989 402.49H687.448V405.053C687.448 405.652 687.614 406.115 687.948 406.448C688.281 406.771 688.739 406.928 689.323 406.928C690.031 406.928 690.5 406.719 690.739 406.303C690.989 405.876 691.135 405.448 691.177 405.032H694.989C694.989 406.698 694.474 408.042 693.448 409.053C692.958 409.584 692.364 410.001 691.656 410.303C690.958 410.594 690.182 410.74 689.323 410.74C688.125 410.74 687.104 410.49 686.26 409.99C685.427 409.49 684.786 408.834 684.344 408.011C684.062 407.511 683.875 406.943 683.781 406.303C683.682 405.652 683.635 404.938 683.635 404.157V397.928C683.635 397.167 683.682 396.459 683.781 395.803C683.875 395.152 684.062 394.584 684.344 394.094C684.786 393.261 685.427 392.605 686.26 392.115C687.104 391.615 688.125 391.365 689.323 391.365C690.182 391.365 690.969 391.521 691.677 391.823C692.385 392.115 692.989 392.521 693.489 393.032C694.489 394.157 694.989 395.568 694.989 397.261V402.49ZM687.448 399.49H691.177V397.323C691.177 396.605 691.01 396.063 690.677 395.698C690.344 395.339 689.89 395.157 689.323 395.157C688.739 395.157 688.281 395.339 687.948 395.698C687.614 396.063 687.448 396.605 687.448 397.323V399.49Z" fill="white"/>
<path d="M697.479 397.928C697.479 397.167 697.526 396.459 697.625 395.803C697.719 395.152 697.906 394.584 698.187 394.094C698.63 393.261 699.271 392.605 700.104 392.115C700.948 391.615 701.969 391.365 703.167 391.365C704.359 391.365 705.375 391.615 706.208 392.115C707.042 392.605 707.677 393.261 708.125 394.094C708.401 394.584 708.588 395.152 708.687 395.803C708.781 396.459 708.833 397.167 708.833 397.928V404.157C708.833 404.938 708.781 405.652 708.687 406.303C708.588 406.943 708.401 407.511 708.125 408.011C707.677 408.834 707.042 409.49 706.208 409.99C705.375 410.49 704.359 410.74 703.167 410.74C701.969 410.74 700.948 410.49 700.104 409.99C699.271 409.49 698.63 408.834 698.187 408.011C697.906 407.511 697.719 406.943 697.625 406.303C697.526 405.652 697.479 404.938 697.479 404.157V397.928ZM701.292 404.761C701.292 405.485 701.458 406.027 701.792 406.386C702.125 406.751 702.583 406.928 703.167 406.928C703.734 406.928 704.187 406.751 704.521 406.386C704.854 406.027 705.021 405.485 705.021 404.761V397.323C705.021 396.605 704.854 396.063 704.521 395.698C704.187 395.339 703.734 395.157 703.167 395.157C702.583 395.157 702.125 395.339 701.792 395.698C701.458 396.063 701.292 396.605 701.292 397.323V404.761Z" fill="white"/>
<path d="M711.619 410.511V391.573H715.431V399.303H719.285V391.573H723.077V410.511H719.285V402.49H715.431V410.511H711.619Z" fill="white"/>
<path d="M733.417 410.511V408.573H733.354C732.854 409.271 732.344 409.803 731.833 410.178C731.318 410.553 730.604 410.74 729.688 410.74C729.24 410.74 728.781 410.667 728.313 410.532C727.854 410.396 727.417 410.136 727 409.761C726.568 409.417 726.219 408.917 725.958 408.261C725.708 407.594 725.583 406.74 725.583 405.698C725.583 404.631 725.667 403.693 725.833 402.886C726.011 402.068 726.339 401.386 726.813 400.844C727.255 400.318 727.86 399.928 728.625 399.678C729.401 399.417 730.386 399.282 731.583 399.282H732C732.151 399.282 732.292 399.292 732.417 399.303C732.542 399.334 732.688 399.344 732.854 399.344C733.031 399.344 733.219 399.36 733.417 399.386V397.407C733.417 396.756 733.276 396.219 733 395.803C732.735 395.376 732.24 395.157 731.521 395.157C731.021 395.157 730.563 395.323 730.146 395.657C729.74 395.98 729.479 396.448 729.354 397.073H725.646C725.755 395.381 726.333 394.011 727.375 392.969C727.875 392.469 728.469 392.084 729.167 391.803C729.86 391.511 730.646 391.365 731.521 391.365C732.313 391.365 733.052 391.49 733.75 391.74C734.443 391.99 735.052 392.36 735.583 392.844C736.083 393.344 736.479 393.969 736.771 394.719C737.073 395.469 737.229 396.339 737.229 397.323V410.511H733.417ZM733.417 402.365C733 402.297 732.651 402.261 732.375 402.261C731.552 402.261 730.854 402.459 730.271 402.844C729.688 403.235 729.396 403.938 729.396 404.948C729.396 405.672 729.568 406.256 729.917 406.698C730.261 407.146 730.75 407.365 731.375 407.365C732.011 407.365 732.511 407.157 732.875 406.74C733.235 406.323 733.417 405.73 733.417 404.948V402.365Z" fill="white"/>
<path d="M739.94 418.157V391.573H743.753V393.303C744.222 392.751 744.711 392.292 745.211 391.928C745.711 391.553 746.43 391.365 747.378 391.365C748.946 391.365 750.05 391.964 750.69 393.157C750.909 393.573 751.071 394.094 751.17 394.719C751.279 395.344 751.336 396.178 751.336 397.219V404.428C751.336 405.818 751.295 406.823 751.211 407.448C751.071 408.698 750.503 409.631 749.503 410.24C749.003 410.573 748.279 410.74 747.336 410.74C746.586 410.74 745.92 410.573 745.336 410.24C744.753 409.896 744.253 409.417 743.836 408.803H743.753V418.157H739.94ZM747.524 397.74C747.524 396.98 747.368 396.36 747.065 395.886C746.774 395.402 746.3 395.157 745.649 395.157C745.076 395.157 744.618 395.381 744.274 395.823C743.925 396.256 743.753 396.818 743.753 397.511V404.865C743.753 405.464 743.93 405.959 744.295 406.344C744.654 406.735 745.107 406.928 745.649 406.928C746.368 406.928 746.862 406.709 747.128 406.261C747.388 405.803 747.524 405.277 747.524 404.678V397.74Z" fill="white"/>
<path d="M753.906 410.849L752.739 414.391L749.697 413.391L751.843 406.849L753.468 407.391C753.895 406.964 754.343 406.37 754.801 405.62C755.27 404.86 755.718 404.032 756.135 403.141C756.468 402.407 756.781 401.641 757.072 400.849C757.364 400.058 757.619 399.323 757.843 398.641L759.739 392.829L769.697 396.079L764.801 411.079L766.489 411.641L764.343 418.183L761.301 417.183L762.468 413.641L753.906 410.849ZM762.176 396.974L761.281 399.683C761.182 399.974 761.041 400.344 760.864 400.787C760.697 401.219 760.52 401.657 760.343 402.099C760.161 402.547 759.979 402.985 759.801 403.412C759.635 403.829 759.473 404.183 759.322 404.474C759.031 405.073 758.64 405.761 758.156 406.537C757.682 407.303 757.223 407.948 756.781 408.474L761.176 409.891L765.093 397.912L762.176 396.974Z" fill="white"/>
<path d="M772.543 404.787C773.028 404.204 773.512 403.693 774.002 403.245C774.486 402.803 774.991 402.485 775.522 402.287C776.397 401.928 777.314 401.823 778.272 401.974C779.231 402.131 780.173 402.589 781.106 403.349C782.022 404.099 782.647 404.933 782.981 405.849C783.314 406.756 783.382 407.672 783.189 408.599C783.106 409.141 782.887 409.698 782.543 410.266C782.21 410.839 781.798 411.412 781.314 411.995L777.377 416.808C776.877 417.417 776.382 417.938 775.897 418.37C775.408 418.797 774.897 419.126 774.356 419.349C773.507 419.693 772.595 419.797 771.627 419.662C770.668 419.521 769.731 419.079 768.814 418.329C767.882 417.563 767.252 416.714 766.918 415.787C766.595 414.87 766.522 413.954 766.689 413.037C766.783 412.469 767.002 411.907 767.335 411.349C767.679 410.797 768.106 410.214 768.606 409.599L772.543 404.787ZM771.147 412.516C770.689 413.073 770.47 413.594 770.502 414.079C770.528 414.563 770.772 414.995 771.231 415.37C771.658 415.73 772.116 415.876 772.606 415.808C773.09 415.735 773.564 415.422 774.022 414.87L778.752 409.12C779.21 408.568 779.423 408.047 779.397 407.558C779.366 407.058 779.137 406.631 778.71 406.266C778.252 405.891 777.778 405.745 777.293 405.829C776.804 405.902 776.335 406.214 775.877 406.766L771.147 412.516Z" fill="white"/>
<path d="M776.475 428.426L793.517 420.176L795.163 423.593L788.204 426.968L789.892 430.447L796.85 427.072L798.496 430.489L781.454 438.739L779.808 435.322L787.038 431.822L785.35 428.343L778.121 431.843L776.475 428.426Z" fill="white"/>
<path d="M782.756 448.908L784.548 448.2L784.527 448.158C783.704 447.934 783.027 447.648 782.485 447.304C781.944 446.971 781.506 446.377 781.173 445.533C781.006 445.116 780.902 444.663 780.86 444.179C780.819 443.705 780.892 443.205 781.09 442.679C781.256 442.148 781.595 441.642 782.11 441.158C782.636 440.689 783.386 440.257 784.36 439.866C785.345 439.481 786.246 439.215 787.069 439.075C787.886 438.924 788.631 438.971 789.298 439.221C789.965 439.429 790.553 439.846 791.069 440.471C791.595 441.096 792.079 441.96 792.527 443.075C792.569 443.184 792.616 443.309 792.673 443.45C792.725 443.585 792.767 443.726 792.798 443.866C792.824 443.991 792.866 444.127 792.923 444.283C792.991 444.45 793.048 444.622 793.09 444.804L794.944 444.075C795.538 443.835 795.985 443.512 796.277 443.096C796.579 442.689 796.6 442.158 796.34 441.491C796.142 441.017 795.819 440.658 795.36 440.408C794.913 440.148 794.381 440.07 793.756 440.179L792.402 436.741C794.011 436.215 795.491 436.252 796.84 436.846C797.491 437.127 798.074 437.533 798.59 438.075C799.1 438.606 799.527 439.278 799.86 440.096C800.152 440.83 800.303 441.564 800.319 442.304C800.345 443.054 800.225 443.762 799.965 444.429C799.699 445.08 799.267 445.684 798.673 446.241C798.09 446.793 797.34 447.252 796.423 447.616L784.173 452.471L782.756 448.908ZM790.319 445.908C790.235 445.491 790.142 445.158 790.048 444.908C789.741 444.142 789.298 443.559 788.715 443.158C788.142 442.767 787.386 442.762 786.444 443.137C785.777 443.398 785.298 443.767 785.006 444.241C784.715 444.726 784.683 445.262 784.923 445.846C785.157 446.439 785.532 446.83 786.048 447.012C786.574 447.189 787.199 447.142 787.923 446.866L790.319 445.908Z" fill="white"/>
<path d="M780.743 472.846C780.269 472.481 779.806 472.33 779.347 472.387C778.889 472.455 778.488 472.71 778.139 473.158C777.696 473.741 777.571 474.252 777.764 474.7C777.946 475.143 778.191 475.518 778.493 475.825L776.181 478.846C774.863 477.83 774.113 476.606 773.931 475.179C773.806 474.455 773.837 473.726 774.014 472.991C774.196 472.268 774.556 471.554 775.097 470.846C775.821 469.898 776.634 469.247 777.535 468.887C778.441 468.538 779.347 468.434 780.264 468.575C780.832 468.658 781.399 468.851 781.972 469.158C782.556 469.476 783.149 469.872 783.764 470.346L788.722 474.137C789.332 474.596 789.858 475.059 790.306 475.533C790.764 476.002 791.103 476.497 791.326 477.012C791.728 477.887 791.868 478.804 791.743 479.762C791.629 480.721 791.212 481.669 790.493 482.616C789.951 483.325 789.347 483.866 788.681 484.241C788.024 484.627 787.347 484.856 786.639 484.929C785.123 485.038 783.66 484.554 782.243 483.471L784.556 480.45C785.165 480.919 785.712 481.127 786.201 481.075C786.701 481.033 787.129 480.773 787.493 480.304C787.837 479.856 787.962 479.393 787.868 478.908C787.785 478.434 787.457 477.976 786.889 477.533L780.743 472.846Z" fill="white"/>
<path d="M772.508 475.868L782.133 492.18L777.883 494.68C777.242 495.066 776.539 495.394 775.779 495.659C775.029 495.935 774.227 496.003 773.383 495.868C772.607 495.743 771.945 495.451 771.404 494.993C770.862 494.534 770.393 493.961 769.987 493.284C769.852 493.045 769.711 492.753 769.57 492.409C769.435 492.076 769.336 491.706 769.279 491.305C769.211 490.899 769.211 490.472 769.279 490.014C769.336 489.555 769.503 489.102 769.779 488.659C769.237 488.753 768.753 488.753 768.32 488.659C767.893 488.576 767.503 488.415 767.154 488.18C766.794 487.941 766.482 487.665 766.216 487.347C765.956 487.04 765.727 486.711 765.529 486.368C765.128 485.67 764.841 484.982 764.674 484.305C764.508 483.623 764.518 482.93 764.695 482.222C764.893 481.389 765.315 480.665 765.966 480.055C766.622 479.456 767.299 478.951 768.008 478.534L772.508 475.868ZM770.841 480.534L769.508 481.326C769.289 481.451 769.081 481.607 768.883 481.805C768.69 481.998 768.544 482.222 768.445 482.472C768.352 482.722 768.331 483.003 768.383 483.326C768.424 483.644 768.57 484.014 768.82 484.43C769.211 485.097 769.654 485.56 770.154 485.826C770.643 486.102 771.268 486.019 772.029 485.576L773.362 484.784L770.841 480.534ZM774.862 487.347L773.57 488.118C772.904 488.503 772.565 488.977 772.549 489.534C772.539 490.086 772.732 490.711 773.133 491.409C773.424 491.894 773.82 492.222 774.32 492.389C774.82 492.555 775.341 492.477 775.883 492.159L777.237 491.368L774.862 487.347Z" fill="white"/>
<path d="M755.144 483.084L756.665 490.48L758.269 490.167L759.082 482.292L762.915 481.5L761.728 490.021C762.368 490.146 762.894 490.386 763.311 490.75C763.728 491.11 764.061 491.521 764.311 491.98C764.561 492.448 764.754 492.917 764.894 493.375C765.03 493.834 765.129 494.193 765.186 494.459C765.337 495.235 765.363 496.073 765.269 496.98C765.186 497.896 764.879 498.672 764.353 499.313C763.821 499.98 763.217 500.443 762.519 500.709C761.826 500.985 761.118 501.193 760.394 501.334L755.228 502.396L751.415 483.855L755.144 483.084ZM758.311 498.521L760.144 498.167C760.868 498.011 761.3 497.636 761.436 497.042C761.576 496.443 761.571 495.782 761.415 495.063C761.097 493.48 760.248 492.834 758.873 493.125L757.269 493.438L758.311 498.521Z" fill="white"/>
<path d="M750.397 497.329C750.345 498.079 750.178 498.777 749.897 499.433C749.605 500.099 749.22 500.683 748.73 501.183C748.246 501.693 747.667 502.099 747.001 502.391C746.324 502.693 745.584 502.849 744.792 502.849C744.001 502.849 743.24 502.714 742.501 502.454C741.766 502.204 741.136 501.829 740.605 501.329C740.121 500.855 739.73 500.287 739.438 499.62C739.147 498.964 739.001 498.23 739.001 497.412C739.001 497.131 739.032 496.813 739.084 496.454C739.141 496.089 739.251 495.724 739.417 495.349C739.574 494.974 739.808 494.605 740.126 494.245C740.433 493.881 740.845 493.579 741.355 493.329C740.813 493.131 740.365 492.881 740.001 492.579C739.641 492.287 739.371 491.954 739.188 491.579C738.996 491.204 738.865 490.808 738.792 490.391C738.709 489.985 738.667 489.584 738.667 489.183C738.667 488.417 738.792 487.724 739.042 487.099C739.292 486.474 739.667 485.891 740.167 485.349C740.709 484.75 741.376 484.287 742.167 483.954C742.949 483.636 743.803 483.474 744.73 483.474C746.496 483.474 747.928 484.058 749.022 485.224C749.996 486.277 750.516 487.599 750.584 489.183H747.001C746.949 488.516 746.74 487.995 746.376 487.62C746.016 487.245 745.475 487.058 744.751 487.058C744.115 487.058 743.6 487.25 743.209 487.641C742.824 488.027 742.626 488.599 742.626 489.349C742.626 490.068 742.787 490.646 743.105 491.079C743.412 491.506 743.975 491.724 744.792 491.724H745.98V494.912H744.938C744.204 494.912 743.667 495.089 743.334 495.454C742.99 495.829 742.813 496.438 742.813 497.287C742.813 497.839 742.99 498.308 743.334 498.683C743.683 499.068 744.167 499.266 744.792 499.266C745.292 499.266 745.746 499.12 746.147 498.829C746.537 498.547 746.761 498.047 746.813 497.329H750.397Z" fill="white"/>
<path d="M727.698 483.704V495.724H727.781L731.99 483.704H735.886V502.641H732.302V490.62H732.219L728.031 502.641H724.115V483.704H727.698Z" fill="white"/>
<path d="M720.997 483.704V487.516H717.185V483.704H720.997Z" fill="white"/>
<path d="M699.2 492.995L701.054 502.641H701.137L703.012 492.995H699.2ZM708.595 483.704L702.658 510.287H699.491L693.554 483.704H697.366L698.491 489.412H703.679L704.804 483.704H708.595Z" fill="white"/>
<path d="M692.848 487.287C692.588 487.287 692.317 487.36 692.035 487.516C691.744 487.667 691.447 487.922 691.14 488.287C690.89 488.589 690.697 489.021 690.556 489.579C690.405 490.146 690.296 490.73 690.223 491.329C690.14 491.938 690.088 492.521 690.056 493.079C690.03 493.646 690.015 494.084 690.015 494.391V502.641H679.577V483.704H683.369V499.454H686.431V495.954C686.431 495.079 686.463 494.193 686.515 493.308C686.556 492.433 686.64 491.584 686.765 490.766C686.879 489.959 687.025 489.209 687.202 488.516C687.369 487.818 687.588 487.224 687.848 486.724C688.379 485.75 689.067 485 689.91 484.474C690.759 483.959 691.718 483.704 692.785 483.704H693.035V487.287H692.848Z" fill="white"/>
<path d="M677.699 487.287C677.438 487.287 677.167 487.36 676.886 487.516C676.594 487.667 676.298 487.922 675.99 488.287C675.74 488.589 675.548 489.021 675.407 489.579C675.256 490.146 675.146 490.73 675.074 491.329C674.99 491.938 674.938 492.521 674.907 493.079C674.881 493.646 674.865 494.084 674.865 494.391V502.641H664.428V483.704H668.219V499.454H671.282V495.954C671.282 495.079 671.313 494.193 671.365 493.308C671.407 492.433 671.49 491.584 671.615 490.766C671.73 489.959 671.876 489.209 672.053 488.516C672.219 487.818 672.438 487.224 672.699 486.724C673.23 485.75 673.917 485 674.761 484.474C675.61 483.959 676.568 483.704 677.636 483.704H677.886V487.287H677.699Z" fill="white"/>
<path d="M661.628 496.287C661.628 497.047 661.581 497.756 661.482 498.412C661.388 499.063 661.201 499.631 660.919 500.12C660.477 500.954 659.836 501.61 659.003 502.099C658.159 502.599 657.138 502.849 655.94 502.849C654.747 502.849 653.732 502.599 652.898 502.099C652.065 501.61 651.43 500.954 650.982 500.12C650.706 499.631 650.518 499.063 650.419 498.412C650.326 497.756 650.273 497.047 650.273 496.287V490.058C650.273 489.277 650.326 488.563 650.419 487.912C650.518 487.271 650.706 486.704 650.982 486.204C651.43 485.381 652.065 484.724 652.898 484.224C653.732 483.724 654.747 483.474 655.94 483.474C657.138 483.474 658.159 483.724 659.003 484.224C659.836 484.724 660.477 485.381 660.919 486.204C661.201 486.704 661.388 487.271 661.482 487.912C661.581 488.563 661.628 489.277 661.628 490.058V496.287ZM657.815 489.454C657.815 488.73 657.648 488.188 657.315 487.829C656.982 487.464 656.523 487.287 655.94 487.287C655.372 487.287 654.919 487.464 654.586 487.829C654.253 488.188 654.086 488.73 654.086 489.454V496.891C654.086 497.61 654.253 498.152 654.586 498.516C654.919 498.875 655.372 499.058 655.94 499.058C656.523 499.058 656.982 498.875 657.315 498.516C657.648 498.152 657.815 497.61 657.815 496.891V489.454Z" fill="white"/>
<path d="M647.863 502.641V504.829C647.863 505.605 647.717 506.339 647.426 507.037C647.124 507.73 646.707 508.339 646.176 508.87C645.65 509.37 645.04 509.766 644.342 510.058C643.65 510.36 642.905 510.516 642.113 510.516C641.186 510.516 640.342 510.329 639.592 509.954C638.832 509.579 638.197 509.058 637.697 508.391C637.447 508.027 637.249 507.704 637.092 507.412C636.926 507.131 636.796 506.818 636.697 506.474C636.52 505.849 636.426 504.964 636.426 503.829C636.426 503.172 636.436 502.631 636.447 502.204C636.462 501.771 636.499 501.391 636.551 501.058C636.592 500.735 636.655 500.459 636.738 500.224C636.811 499.985 636.905 499.771 637.03 499.579L639.613 495.162C639.78 494.87 639.926 494.563 640.051 494.245C640.176 493.938 640.238 493.61 640.238 493.266V490.266H644.051V493.745C644.051 494.287 643.967 494.808 643.801 495.308C643.624 495.808 643.395 496.292 643.113 496.766L640.717 500.662C640.525 500.98 640.4 501.329 640.342 501.704C640.275 502.079 640.238 502.454 640.238 502.829V504.787C640.238 505.313 640.421 505.766 640.78 506.141C641.145 506.516 641.587 506.704 642.113 506.704C642.561 506.704 642.999 506.537 643.426 506.204C643.842 505.881 644.051 505.412 644.051 504.787V502.641H647.863ZM644.051 483.704V487.516H640.238V483.704H644.051Z" fill="white"/>
<path d="M614.408 491.287V489.641C614.408 488.818 614.57 488.042 614.887 487.308C615.195 486.568 615.627 485.917 616.179 485.349C616.721 484.777 617.361 484.318 618.096 483.974C618.835 483.641 619.627 483.474 620.471 483.474C621.195 483.474 621.929 483.573 622.679 483.766C623.419 483.974 624.085 484.329 624.679 484.829C625.278 485.329 625.773 485.964 626.158 486.745C626.549 487.521 626.742 488.521 626.742 489.745V504.391C626.742 505.25 626.596 506.058 626.304 506.808C626.002 507.558 625.57 508.204 625.012 508.745C624.471 509.297 623.825 509.73 623.075 510.037C622.314 510.355 621.465 510.516 620.533 510.516C618.742 510.516 617.294 509.922 616.179 508.745C615.627 508.172 615.195 507.495 614.887 506.704C614.57 505.922 614.408 505.079 614.408 504.162V502.662H618.221V503.933C618.221 504.683 618.439 505.329 618.867 505.87C619.283 506.422 619.856 506.704 620.575 506.704C621.523 506.704 622.153 506.412 622.471 505.829C622.778 505.245 622.929 504.5 622.929 503.599V490.016C622.929 489.235 622.762 488.584 622.429 488.058C622.096 487.542 621.492 487.287 620.617 487.287C620.367 487.287 620.106 487.329 619.825 487.412C619.533 487.506 619.262 487.652 619.012 487.849C618.794 488.042 618.606 488.313 618.45 488.662C618.299 489.006 618.221 489.443 618.221 489.974V491.287H614.408Z" fill="white"/>
<path d="M611.554 483.704V502.641H606.617C605.867 502.641 605.096 502.563 604.304 502.412C603.513 502.256 602.794 501.912 602.138 501.37C601.544 500.87 601.127 500.277 600.888 499.599C600.653 498.933 600.534 498.204 600.534 497.412C600.534 497.131 600.565 496.813 600.617 496.454C600.659 496.089 600.757 495.724 600.909 495.349C601.065 494.974 601.284 494.605 601.575 494.245C601.856 493.881 602.231 493.579 602.7 493.329C602.174 493.131 601.752 492.881 601.429 492.579C601.112 492.287 600.862 491.954 600.679 491.579C600.487 491.204 600.362 490.808 600.304 490.391C600.237 489.985 600.2 489.584 600.2 489.183C600.2 488.391 600.304 487.652 600.513 486.974C600.721 486.308 601.075 485.714 601.575 485.204C602.174 484.579 602.909 484.167 603.784 483.974C604.659 483.792 605.507 483.704 606.325 483.704H611.554ZM607.742 486.87H606.2C605.94 486.87 605.674 486.896 605.409 486.954C605.148 487.021 604.909 487.141 604.7 487.308C604.492 487.485 604.325 487.724 604.2 488.016C604.075 488.318 604.013 488.709 604.013 489.183C604.013 489.959 604.159 490.589 604.45 491.079C604.731 491.563 605.315 491.808 606.2 491.808H607.742V486.87ZM607.742 494.787H606.242C605.481 494.787 604.95 495.021 604.659 495.495C604.356 495.964 604.2 496.605 604.2 497.412C604.2 497.98 604.377 498.459 604.721 498.849C605.07 499.25 605.554 499.454 606.179 499.454H607.742V494.787Z" fill="white"/>
<path d="M590.508 483.704V491.245H592.133L594.529 483.704H598.424L595.57 491.808C596.154 492.058 596.612 492.402 596.945 492.849C597.279 493.292 597.529 493.766 597.695 494.266C597.852 494.766 597.945 495.25 597.987 495.724C598.029 496.193 598.049 496.568 598.049 496.849C598.049 497.641 597.914 498.474 597.633 499.349C597.357 500.224 596.898 500.917 596.258 501.433C595.607 501.985 594.914 502.329 594.174 502.454C593.44 502.579 592.706 502.641 591.966 502.641H586.695V483.704H590.508ZM590.508 499.454H592.362C593.112 499.454 593.612 499.172 593.862 498.62C594.112 498.079 594.237 497.438 594.237 496.704C594.237 495.079 593.539 494.266 592.133 494.266H590.508V499.454Z" fill="white"/>
<path d="M576.573 502.641H572.781V494.912H571.386C570.818 494.912 570.438 495.105 570.24 495.495C570.031 495.896 569.88 496.349 569.781 496.849L569.406 498.704C569.281 499.287 569.073 499.881 568.781 500.495C568.479 501.12 568.068 501.605 567.552 501.954C567.052 502.287 566.573 502.48 566.115 502.537C565.656 502.605 565.167 502.641 564.636 502.641H564.552V499.266H564.594C564.969 499.266 565.313 499.183 565.615 499.016C565.906 498.86 566.115 498.459 566.24 497.808L566.573 495.829C566.604 495.756 566.636 495.61 566.677 495.391C566.708 495.167 566.776 494.922 566.886 494.662C566.985 494.396 567.115 494.141 567.281 493.891C567.438 493.641 567.636 493.454 567.886 493.329L564.677 483.704H568.552L570.99 491.724H572.781V483.704H576.573V491.724H578.365L580.802 483.704H584.677L581.469 493.329C581.75 493.454 581.969 493.641 582.136 493.891C582.292 494.141 582.417 494.396 582.511 494.662C582.594 494.922 582.656 495.167 582.698 495.391C582.729 495.61 582.755 495.756 582.781 495.829L583.115 497.808C583.24 498.459 583.458 498.86 583.761 499.016C584.052 499.183 584.386 499.266 584.761 499.266H584.802V502.641H584.719C584.193 502.641 583.698 502.599 583.24 502.516C582.781 502.443 582.302 502.256 581.802 501.954C581.235 501.605 580.818 501.12 580.552 500.495C580.276 499.881 580.073 499.287 579.948 498.704L579.573 496.849C579.479 496.349 579.333 495.896 579.136 495.495C578.927 495.105 578.542 494.912 577.969 494.912H576.573V502.641Z" fill="white"/>
<path d="M554.56 483.704V495.724H554.643L558.852 483.704H562.747V502.641H559.164V490.62H559.081L554.893 502.641H550.977V483.704H554.56Z" fill="white"/>
<path d="M545.693 483.704V499.266H549.422V502.641H538.151V499.266H541.88V483.704H545.693Z" fill="white"/>
<path d="M525.569 491.724H533.111V489.162C533.111 488.563 532.944 488.099 532.611 487.766C532.278 487.443 531.819 487.287 531.236 487.287C530.528 487.287 530.059 487.495 529.819 487.912C529.569 488.339 529.424 488.766 529.382 489.183H525.569C525.569 487.516 526.085 486.172 527.111 485.162C527.601 484.631 528.194 484.214 528.903 483.912C529.601 483.62 530.377 483.474 531.236 483.474C532.434 483.474 533.455 483.724 534.299 484.224C535.132 484.724 535.772 485.381 536.215 486.204C536.496 486.704 536.684 487.271 536.778 487.912C536.877 488.563 536.924 489.277 536.924 490.058V496.287C536.924 497.047 536.877 497.756 536.778 498.412C536.684 499.063 536.496 499.631 536.215 500.12C535.772 500.954 535.132 501.61 534.299 502.099C533.455 502.599 532.434 502.849 531.236 502.849C530.377 502.849 529.59 502.693 528.882 502.391C528.174 502.099 527.569 501.693 527.069 501.183C526.069 500.058 525.569 498.646 525.569 496.954V491.724ZM533.111 494.724H529.382V496.891C529.382 497.61 529.549 498.152 529.882 498.516C530.215 498.875 530.668 499.058 531.236 499.058C531.819 499.058 532.278 498.875 532.611 498.516C532.944 498.152 533.111 497.61 533.111 496.891V494.724Z" fill="white"/>
<path d="M511.802 489.162C511.802 488.563 511.635 488.099 511.302 487.766C510.969 487.443 510.521 487.287 509.948 487.287C509.229 487.287 508.75 487.495 508.51 487.912C508.276 488.339 508.13 488.766 508.073 489.183H504.26C504.26 487.516 504.776 486.172 505.802 485.162C506.302 484.631 506.901 484.214 507.594 483.912C508.292 483.62 509.073 483.474 509.948 483.474C511.146 483.474 512.156 483.724 512.989 484.224C513.823 484.724 514.463 485.381 514.906 486.204C515.187 486.704 515.375 487.271 515.469 487.912C515.568 488.563 515.614 489.277 515.614 490.058V496.287C515.614 497.047 515.568 497.756 515.469 498.412C515.375 499.063 515.187 499.631 514.906 500.12C514.463 500.954 513.823 501.61 512.989 502.099C512.156 502.599 511.146 502.849 509.948 502.849C509.073 502.849 508.281 502.693 507.573 502.391C506.864 502.099 506.26 501.693 505.76 501.183C504.76 500.058 504.26 498.599 504.26 496.808H508.073C508.073 497.584 508.239 498.152 508.573 498.516C508.906 498.875 509.364 499.058 509.948 499.058C510.521 499.058 510.969 498.875 511.302 498.516C511.635 498.152 511.802 497.61 511.802 496.891V489.162Z" fill="white"/>
<path d="M495.097 476.058V502.641H491.284V500.912C490.815 501.464 490.326 501.922 489.826 502.287C489.326 502.662 488.607 502.849 487.659 502.849C486.091 502.849 484.987 502.251 484.347 501.058C484.128 500.641 483.966 500.12 483.867 499.495C483.758 498.87 483.701 498.037 483.701 496.995V489.787C483.701 488.396 483.742 487.391 483.826 486.766C483.966 485.516 484.534 484.584 485.534 483.974C486.034 483.641 486.758 483.474 487.701 483.474C488.451 483.474 489.117 483.641 489.701 483.974C490.284 484.318 490.784 484.797 491.201 485.412H491.284V476.058H495.097ZM487.513 496.474C487.513 497.235 487.669 497.855 487.972 498.329C488.263 498.813 488.737 499.058 489.388 499.058C489.961 499.058 490.419 498.834 490.763 498.391C491.112 497.959 491.284 497.396 491.284 496.704V489.349C491.284 488.751 491.107 488.256 490.742 487.87C490.383 487.48 489.93 487.287 489.388 487.287C488.669 487.287 488.175 487.506 487.909 487.954C487.649 488.412 487.513 488.938 487.513 489.537V496.474Z" fill="white"/>
<path d="M472.394 483.704V495.724H472.477L476.686 483.704H480.581V502.641H476.998V490.62H476.915L472.727 502.641H468.811V483.704H472.394Z" fill="white"/>
<path d="M465.693 483.704V502.641H461.797L457.964 492.474H457.881L454.047 502.641H450.151V483.704H453.818V495.162H453.881L456.943 486.808H458.901L461.964 495.162H462.026V483.704H465.693Z" fill="white"/>
<path d="M442.957 489.162C442.957 488.563 442.79 488.099 442.457 487.766C442.123 487.443 441.675 487.287 441.103 487.287C440.384 487.287 439.905 487.495 439.665 487.912C439.431 488.339 439.285 488.766 439.228 489.183H435.415C435.415 487.516 435.931 486.172 436.957 485.162C437.457 484.631 438.056 484.214 438.748 483.912C439.446 483.62 440.228 483.474 441.103 483.474C442.3 483.474 443.311 483.724 444.144 484.224C444.978 484.724 445.618 485.381 446.061 486.204C446.342 486.704 446.53 487.271 446.623 487.912C446.722 488.563 446.769 489.277 446.769 490.058V496.287C446.769 497.047 446.722 497.756 446.623 498.412C446.53 499.063 446.342 499.631 446.061 500.12C445.618 500.954 444.978 501.61 444.144 502.099C443.311 502.599 442.3 502.849 441.103 502.849C440.228 502.849 439.436 502.693 438.728 502.391C438.019 502.099 437.415 501.693 436.915 501.183C435.915 500.058 435.415 498.599 435.415 496.808H439.228C439.228 497.584 439.394 498.152 439.728 498.516C440.061 498.875 440.519 499.058 441.103 499.058C441.675 499.058 442.123 498.875 442.457 498.516C442.79 498.152 442.957 497.61 442.957 496.891V489.162Z" fill="white"/>
<path d="M433.192 483.704V502.641H429.38V494.912H427.921C427.354 494.912 426.973 495.105 426.776 495.495C426.567 495.896 426.401 496.396 426.276 496.995L425.88 499.162C425.729 499.73 425.536 500.245 425.296 500.704C425.062 501.162 424.744 501.527 424.338 501.808C423.921 502.11 423.437 502.329 422.88 502.454C422.312 502.579 421.666 502.641 420.942 502.641H420.859V499.266H420.984C421.432 499.266 421.807 499.183 422.109 499.016C422.401 498.86 422.609 498.5 422.734 497.933L423.109 495.829C423.14 495.756 423.171 495.61 423.213 495.391C423.244 495.167 423.307 494.922 423.401 494.662C423.5 494.396 423.63 494.141 423.796 493.891C423.963 493.641 424.171 493.454 424.421 493.329L420.609 483.704H424.484L427.505 491.724H429.38V483.704H433.192Z" fill="white"/>
<path d="M419.085 496.287C419.085 497.047 419.038 497.756 418.939 498.412C418.846 499.063 418.658 499.631 418.377 500.12C417.934 500.954 417.293 501.61 416.46 502.099C415.616 502.599 414.596 502.849 413.398 502.849C412.205 502.849 411.189 502.599 410.356 502.099C409.523 501.61 408.887 500.954 408.439 500.12C408.163 499.631 407.976 499.063 407.877 498.412C407.783 497.756 407.731 497.047 407.731 496.287V490.058C407.731 489.277 407.783 488.563 407.877 487.912C407.976 487.271 408.163 486.704 408.439 486.204C408.887 485.381 409.523 484.724 410.356 484.224C411.189 483.724 412.205 483.474 413.398 483.474C414.596 483.474 415.616 483.724 416.46 484.224C417.293 484.724 417.934 485.381 418.377 486.204C418.658 486.704 418.846 487.271 418.939 487.912C419.038 488.563 419.085 489.277 419.085 490.058V496.287ZM415.273 489.454C415.273 488.73 415.106 488.188 414.773 487.829C414.439 487.464 413.981 487.287 413.398 487.287C412.83 487.287 412.377 487.464 412.043 487.829C411.71 488.188 411.543 488.73 411.543 489.454V496.891C411.543 497.61 411.71 498.152 412.043 498.516C412.377 498.875 412.83 499.058 413.398 499.058C413.981 499.058 414.439 498.875 414.773 498.516C415.106 498.152 415.273 497.61 415.273 496.891V489.454Z" fill="white"/>
<path d="M396.758 483.704V495.724H396.841L401.05 483.704H404.946V502.641H401.362V490.62H401.279L397.091 502.641H393.175V483.704H396.758ZM400.904 509.641C400.878 509.5 400.857 509.318 400.841 509.099C400.831 508.891 400.769 508.683 400.654 508.474C400.545 508.266 400.362 508.084 400.112 507.933C399.862 507.777 399.503 507.704 399.029 507.704C398.56 507.704 398.196 507.777 397.946 507.933C397.696 508.084 397.519 508.266 397.404 508.474C397.295 508.683 397.237 508.891 397.237 509.099C397.227 509.318 397.206 509.5 397.175 509.641H393.987C394.112 508.25 394.571 507.183 395.362 506.433C396.144 505.693 397.362 505.329 399.029 505.329C400.696 505.329 401.925 505.704 402.716 506.454C403.498 507.214 403.946 508.277 404.071 509.641H400.904Z" fill="white"/>
<path d="M383.154 483.704V502.641H378.216C377.466 502.641 376.696 502.563 375.904 502.412C375.112 502.256 374.394 501.912 373.737 501.37C373.144 500.87 372.727 500.277 372.487 499.599C372.253 498.933 372.133 498.204 372.133 497.412C372.133 497.131 372.164 496.813 372.216 496.454C372.258 496.089 372.357 495.724 372.508 495.349C372.664 494.974 372.883 494.605 373.175 494.245C373.456 493.881 373.831 493.579 374.3 493.329C373.774 493.131 373.352 492.881 373.029 492.579C372.711 492.287 372.461 491.954 372.279 491.579C372.086 491.204 371.961 490.808 371.904 490.391C371.836 489.985 371.8 489.584 371.8 489.183C371.8 488.391 371.904 487.652 372.112 486.974C372.321 486.308 372.675 485.714 373.175 485.204C373.774 484.579 374.508 484.167 375.383 483.974C376.258 483.792 377.107 483.704 377.925 483.704H383.154ZM379.341 486.87H377.8C377.539 486.87 377.274 486.896 377.008 486.954C376.748 487.021 376.508 487.141 376.3 487.308C376.091 487.485 375.925 487.724 375.8 488.016C375.675 488.318 375.612 488.709 375.612 489.183C375.612 489.959 375.758 490.589 376.05 491.079C376.331 491.563 376.914 491.808 377.8 491.808H379.341V486.87ZM379.341 494.787H377.841C377.081 494.787 376.55 495.021 376.258 495.495C375.956 495.964 375.8 496.605 375.8 497.412C375.8 497.98 375.977 498.459 376.321 498.849C376.67 499.25 377.154 499.454 377.779 499.454H379.341V494.787Z" fill="white"/>
<path d="M361.878 483.704V485.641H361.94C362.44 484.943 362.951 484.412 363.461 484.037C363.977 483.662 364.69 483.474 365.607 483.474C366.055 483.474 366.513 483.547 366.982 483.683C367.44 483.818 367.878 484.079 368.295 484.454C368.727 484.797 369.076 485.297 369.336 485.954C369.586 486.62 369.711 487.474 369.711 488.516C369.711 489.584 369.628 490.521 369.461 491.329C369.284 492.146 368.956 492.829 368.482 493.37C368.039 493.896 367.435 494.287 366.67 494.537C365.894 494.797 364.909 494.933 363.711 494.933H363.295C363.144 494.933 363.003 494.922 362.878 494.912C362.753 494.881 362.607 494.87 362.44 494.87C362.263 494.87 362.076 494.855 361.878 494.829V496.808C361.878 497.459 362.019 497.995 362.295 498.412C362.56 498.839 363.055 499.058 363.774 499.058C364.274 499.058 364.732 498.891 365.149 498.558C365.555 498.235 365.815 497.766 365.94 497.141H369.649C369.539 498.834 368.961 500.204 367.92 501.245C367.42 501.745 366.826 502.131 366.128 502.412C365.435 502.704 364.649 502.849 363.774 502.849C362.982 502.849 362.243 502.724 361.545 502.474C360.852 502.224 360.243 501.855 359.711 501.37C359.211 500.87 358.815 500.245 358.524 499.495C358.222 498.745 358.065 497.875 358.065 496.891V483.704H361.878ZM361.878 491.849C362.295 491.917 362.644 491.954 362.92 491.954C363.743 491.954 364.44 491.756 365.024 491.37C365.607 490.98 365.899 490.277 365.899 489.266C365.899 488.542 365.727 487.959 365.378 487.516C365.034 487.068 364.545 486.849 363.92 486.849C363.284 486.849 362.784 487.058 362.42 487.474C362.06 487.891 361.878 488.485 361.878 489.266V491.849Z" fill="white"/>
<path d="M355.28 483.704V502.641H351.468V494.912H350.009C349.442 494.912 349.061 495.105 348.863 495.495C348.655 495.896 348.488 496.396 348.363 496.995L347.968 499.162C347.817 499.73 347.624 500.245 347.384 500.704C347.15 501.162 346.832 501.527 346.426 501.808C346.009 502.11 345.525 502.329 344.968 502.454C344.4 502.579 343.754 502.641 343.03 502.641H342.947V499.266H343.072C343.52 499.266 343.895 499.183 344.197 499.016C344.488 498.86 344.697 498.5 344.822 497.933L345.197 495.829C345.228 495.756 345.259 495.61 345.301 495.391C345.332 495.167 345.395 494.922 345.488 494.662C345.587 494.396 345.718 494.141 345.884 493.891C346.051 493.641 346.259 493.454 346.509 493.329L342.697 483.704H346.572L349.593 491.724H351.468V483.704H355.28Z" fill="white"/>
<path d="M342.819 483.704L338.152 493.37L342.589 502.641H338.548L336.214 497.245L333.86 502.641H329.819L334.339 493.37L329.589 483.704H333.631L336.214 489.495L338.777 483.704H342.819Z" fill="white"/>
<path d="M321.243 483.704V485.641H321.305C321.805 484.943 322.316 484.412 322.826 484.037C323.342 483.662 324.055 483.474 324.972 483.474C325.42 483.474 325.878 483.547 326.347 483.683C326.805 483.818 327.243 484.079 327.659 484.454C328.092 484.797 328.441 485.297 328.701 485.954C328.951 486.62 329.076 487.474 329.076 488.516C329.076 489.584 328.993 490.521 328.826 491.329C328.649 492.146 328.321 492.829 327.847 493.37C327.404 493.896 326.8 494.287 326.034 494.537C325.258 494.797 324.274 494.933 323.076 494.933H322.659C322.508 494.933 322.368 494.922 322.243 494.912C322.118 494.881 321.972 494.87 321.805 494.87C321.628 494.87 321.441 494.855 321.243 494.829V496.808C321.243 497.459 321.383 497.995 321.659 498.412C321.925 498.839 322.42 499.058 323.139 499.058C323.639 499.058 324.097 498.891 324.514 498.558C324.92 498.235 325.18 497.766 325.305 497.141H329.014C328.904 498.834 328.326 500.204 327.284 501.245C326.784 501.745 326.191 502.131 325.493 502.412C324.8 502.704 324.014 502.849 323.139 502.849C322.347 502.849 321.607 502.724 320.909 502.474C320.217 502.224 319.607 501.855 319.076 501.37C318.576 500.87 318.18 500.245 317.889 499.495C317.586 498.745 317.43 497.875 317.43 496.891V483.704H321.243ZM321.243 491.849C321.659 491.917 322.008 491.954 322.284 491.954C323.107 491.954 323.805 491.756 324.389 491.37C324.972 490.98 325.264 490.277 325.264 489.266C325.264 488.542 325.092 487.959 324.743 487.516C324.399 487.068 323.909 486.849 323.284 486.849C322.649 486.849 322.149 487.058 321.784 487.474C321.425 487.891 321.243 488.485 321.243 489.266V491.849Z" fill="white"/>
<path d="M314.645 483.704V502.641H310.832V494.912H306.978V502.641H303.187V483.704H306.978V491.724H310.832V483.704H314.645Z" fill="white"/>
<path d="M292.847 483.704V485.641H292.909C293.409 484.943 293.92 484.412 294.43 484.037C294.946 483.662 295.659 483.474 296.576 483.474C297.024 483.474 297.482 483.547 297.951 483.683C298.409 483.818 298.847 484.079 299.263 484.454C299.696 484.797 300.045 485.297 300.305 485.954C300.555 486.62 300.68 487.474 300.68 488.516C300.68 489.584 300.597 490.521 300.43 491.329C300.253 492.146 299.925 492.829 299.451 493.37C299.008 493.896 298.404 494.287 297.638 494.537C296.862 494.797 295.878 494.933 294.68 494.933H294.263C294.112 494.933 293.972 494.922 293.847 494.912C293.722 494.881 293.576 494.87 293.409 494.87C293.232 494.87 293.045 494.855 292.847 494.829V496.808C292.847 497.459 292.987 497.995 293.263 498.412C293.529 498.839 294.024 499.058 294.743 499.058C295.243 499.058 295.701 498.891 296.118 498.558C296.524 498.235 296.784 497.766 296.909 497.141H300.618C300.508 498.834 299.93 500.204 298.888 501.245C298.388 501.745 297.795 502.131 297.097 502.412C296.404 502.704 295.618 502.849 294.743 502.849C293.951 502.849 293.211 502.724 292.513 502.474C291.821 502.224 291.211 501.855 290.68 501.37C290.18 500.87 289.784 500.245 289.493 499.495C289.19 498.745 289.034 497.875 289.034 496.891V483.704H292.847ZM292.847 491.849C293.263 491.917 293.612 491.954 293.888 491.954C294.711 491.954 295.409 491.756 295.993 491.37C296.576 490.98 296.868 490.277 296.868 489.266C296.868 488.542 296.696 487.959 296.347 487.516C296.003 487.068 295.513 486.849 294.888 486.849C294.253 486.849 293.753 487.058 293.388 487.474C293.029 487.891 292.847 488.485 292.847 489.266V491.849Z" fill="white"/>
<path d="M287.54 487.287C287.28 487.287 287.009 487.36 286.728 487.516C286.436 487.667 286.139 487.922 285.832 488.287C285.582 488.589 285.389 489.021 285.249 489.579C285.098 490.146 284.988 490.73 284.915 491.329C284.832 491.938 284.78 492.521 284.749 493.079C284.723 493.646 284.707 494.084 284.707 494.391V502.641H274.27V483.704H278.061V499.454H281.124V495.954C281.124 495.079 281.155 494.193 281.207 493.308C281.249 492.433 281.332 491.584 281.457 490.766C281.572 489.959 281.717 489.209 281.895 488.516C282.061 487.818 282.28 487.224 282.54 486.724C283.072 485.75 283.759 485 284.603 484.474C285.452 483.959 286.41 483.704 287.478 483.704H287.728V487.287H287.54Z" fill="white"/>
<path d="M262.949 483.704V495.724H263.032L267.241 483.704H271.137V502.641H267.553V490.62H267.47L263.282 502.641H259.366V483.704H262.949Z" fill="white"/>
<path d="M245.19 491.724H252.732V489.162C252.732 488.563 252.565 488.099 252.232 487.766C251.898 487.443 251.44 487.287 250.857 487.287C250.148 487.287 249.68 487.495 249.44 487.912C249.19 488.339 249.044 488.766 249.002 489.183H245.19C245.19 487.516 245.706 486.172 246.732 485.162C247.221 484.631 247.815 484.214 248.523 483.912C249.221 483.62 249.997 483.474 250.857 483.474C252.055 483.474 253.075 483.724 253.919 484.224C254.752 484.724 255.393 485.381 255.836 486.204C256.117 486.704 256.305 487.271 256.398 487.912C256.497 488.563 256.544 489.277 256.544 490.058V496.287C256.544 497.047 256.497 497.756 256.398 498.412C256.305 499.063 256.117 499.631 255.836 500.12C255.393 500.954 254.752 501.61 253.919 502.099C253.075 502.599 252.055 502.849 250.857 502.849C249.997 502.849 249.211 502.693 248.502 502.391C247.794 502.099 247.19 501.693 246.69 501.183C245.69 500.058 245.19 498.646 245.19 496.954V491.724ZM252.732 494.724H249.002V496.891C249.002 497.61 249.169 498.152 249.502 498.516C249.836 498.875 250.289 499.058 250.857 499.058C251.44 499.058 251.898 498.875 252.232 498.516C252.565 498.152 252.732 497.61 252.732 496.891V494.724Z" fill="white"/>
<path d="M234.254 483.704V495.724H234.338L238.546 483.704H242.442V502.641H238.858V490.62H238.775L234.588 502.641H230.671V483.704H234.254ZM238.4 509.641C238.374 509.5 238.353 509.318 238.338 509.099C238.327 508.891 238.265 508.683 238.15 508.474C238.041 508.266 237.858 508.084 237.608 507.933C237.358 507.777 236.999 507.704 236.525 507.704C236.056 507.704 235.692 507.777 235.442 507.933C235.192 508.084 235.015 508.266 234.9 508.474C234.791 508.683 234.733 508.891 234.733 509.099C234.723 509.318 234.702 509.5 234.671 509.641H231.483C231.608 508.25 232.067 507.183 232.858 506.433C233.64 505.693 234.858 505.329 236.525 505.329C238.192 505.329 239.421 505.704 240.213 506.454C240.994 507.214 241.442 508.277 241.567 509.641H238.4Z" fill="white"/>
<path d="M227.553 483.704V487.516H223.741V483.704H227.553Z" fill="white"/>
<path d="M213.444 483.704V510.287H202.839V506.704H209.631V483.704H213.444Z" fill="white"/>
<path d="M204.565 496.287C204.565 497.047 204.518 497.756 204.419 498.412C204.326 499.063 204.138 499.631 203.857 500.12C203.414 500.954 202.773 501.61 201.94 502.099C201.096 502.599 200.076 502.849 198.878 502.849C197.685 502.849 196.669 502.599 195.836 502.099C195.003 501.61 194.367 500.954 193.919 500.12C193.643 499.631 193.456 499.063 193.357 498.412C193.263 497.756 193.211 497.047 193.211 496.287V490.058C193.211 489.277 193.263 488.563 193.357 487.912C193.456 487.271 193.643 486.704 193.919 486.204C194.367 485.381 195.003 484.724 195.836 484.224C196.669 483.724 197.685 483.474 198.878 483.474C200.076 483.474 201.096 483.724 201.94 484.224C202.773 484.724 203.414 485.381 203.857 486.204C204.138 486.704 204.326 487.271 204.419 487.912C204.518 488.563 204.565 489.277 204.565 490.058V496.287ZM200.753 489.454C200.753 488.73 200.586 488.188 200.253 487.829C199.919 487.464 199.461 487.287 198.878 487.287C198.31 487.287 197.857 487.464 197.523 487.829C197.19 488.188 197.023 488.73 197.023 489.454V496.891C197.023 497.61 197.19 498.152 197.523 498.516C197.857 498.875 198.31 499.058 198.878 499.058C199.461 499.058 199.919 498.875 200.253 498.516C200.586 498.152 200.753 497.61 200.753 496.891V489.454Z" fill="white"/>
<path d="M190.426 476.058V502.641H186.613V500.912C186.144 501.464 185.655 501.922 185.155 502.287C184.655 502.662 183.936 502.849 182.988 502.849C181.42 502.849 180.316 502.251 179.676 501.058C179.457 500.641 179.295 500.12 179.196 499.495C179.087 498.87 179.03 498.037 179.03 496.995V489.787C179.03 488.396 179.071 487.391 179.155 486.766C179.295 485.516 179.863 484.584 180.863 483.974C181.363 483.641 182.087 483.474 183.03 483.474C183.78 483.474 184.446 483.641 185.03 483.974C185.613 484.318 186.113 484.797 186.53 485.412H186.613V476.058H190.426ZM182.842 496.474C182.842 497.235 182.999 497.855 183.301 498.329C183.592 498.813 184.066 499.058 184.717 499.058C185.29 499.058 185.749 498.834 186.092 498.391C186.441 497.959 186.613 497.396 186.613 496.704V489.349C186.613 488.751 186.436 488.256 186.071 487.87C185.712 487.48 185.259 487.287 184.717 487.287C183.999 487.287 183.504 487.506 183.238 487.954C182.978 488.412 182.842 488.938 182.842 489.537V496.474Z" fill="white"/>
<path d="M168.702 483.704V485.641H168.765C169.265 484.943 169.775 484.412 170.285 484.037C170.801 483.662 171.515 483.474 172.431 483.474C172.879 483.474 173.338 483.547 173.806 483.683C174.265 483.818 174.702 484.079 175.119 484.454C175.551 484.797 175.9 485.297 176.16 485.954C176.41 486.62 176.535 487.474 176.535 488.516C176.535 489.584 176.452 490.521 176.285 491.329C176.108 492.146 175.78 492.829 175.306 493.37C174.864 493.896 174.259 494.287 173.494 494.537C172.718 494.797 171.733 494.933 170.535 494.933H170.119C169.968 494.933 169.827 494.922 169.702 494.912C169.577 494.881 169.431 494.87 169.265 494.87C169.088 494.87 168.9 494.855 168.702 494.829V496.808C168.702 497.459 168.843 497.995 169.119 498.412C169.384 498.839 169.879 499.058 170.598 499.058C171.098 499.058 171.556 498.891 171.973 498.558C172.379 498.235 172.64 497.766 172.765 497.141H176.473C176.364 498.834 175.785 500.204 174.744 501.245C174.244 501.745 173.65 502.131 172.952 502.412C172.259 502.704 171.473 502.849 170.598 502.849C169.806 502.849 169.067 502.724 168.369 502.474C167.676 502.224 167.067 501.855 166.535 501.37C166.035 500.87 165.64 500.245 165.348 499.495C165.046 498.745 164.89 497.875 164.89 496.891V483.704H168.702ZM168.702 491.849C169.119 491.917 169.468 491.954 169.744 491.954C170.567 491.954 171.265 491.756 171.848 491.37C172.431 490.98 172.723 490.277 172.723 489.266C172.723 488.542 172.551 487.959 172.202 487.516C171.858 487.068 171.369 486.849 170.744 486.849C170.108 486.849 169.608 487.058 169.244 487.474C168.884 487.891 168.702 488.485 168.702 489.266V491.849Z" fill="white"/>
<path d="M162.104 483.704V502.641H158.292V486.87H154.521V502.641H150.708V486.87H148.688V479.974H151.917V483.704H162.104Z" fill="white"/>
<path d="M138.805 483.704V495.724H138.888L143.096 483.704H146.992V502.641H143.409V490.62H143.325L139.138 502.641H135.221V483.704H138.805Z" fill="white"/>
<path d="M123.916 483.704V495.724H123.999L128.208 483.704H132.103V502.641H128.52V490.62H128.437L124.249 502.641H120.333V483.704H123.916ZM128.062 509.641C128.036 509.5 128.015 509.318 127.999 509.099C127.989 508.891 127.926 508.683 127.812 508.474C127.702 508.266 127.52 508.084 127.27 507.933C127.02 507.777 126.661 507.704 126.187 507.704C125.718 507.704 125.353 507.777 125.103 507.933C124.853 508.084 124.676 508.266 124.562 508.474C124.452 508.683 124.395 508.891 124.395 509.099C124.385 509.318 124.364 509.5 124.333 509.641H121.145C121.27 508.25 121.728 507.183 122.52 506.433C123.301 505.693 124.52 505.329 126.187 505.329C127.853 505.329 129.083 505.704 129.874 506.454C130.655 507.214 131.103 508.277 131.228 509.641H128.062Z" fill="white"/>
<path d="M110.275 483.704V502.641H98.8789V483.704H102.691V499.454H106.462V483.704H110.275Z" fill="white"/>
<path d="M96.2419 496.287C96.2419 497.047 96.195 497.756 96.096 498.412C96.0023 499.063 95.8148 499.631 95.5335 500.12C95.0908 500.954 94.4502 501.61 93.6169 502.099C92.7731 502.599 91.7523 502.849 90.5544 502.849C89.3617 502.849 88.346 502.599 87.5127 502.099C86.6794 501.61 86.0439 500.954 85.596 500.12C85.32 499.631 85.1325 499.063 85.0335 498.412C84.9398 497.756 84.8877 497.047 84.8877 496.287V490.058C84.8877 489.277 84.9398 488.563 85.0335 487.912C85.1325 487.271 85.32 486.704 85.596 486.204C86.0439 485.381 86.6794 484.724 87.5127 484.224C88.346 483.724 89.3617 483.474 90.5544 483.474C91.7523 483.474 92.7731 483.724 93.6169 484.224C94.4502 484.724 95.0908 485.381 95.5335 486.204C95.8148 486.704 96.0023 487.271 96.096 487.912C96.195 488.563 96.2419 489.277 96.2419 490.058V496.287ZM92.4294 489.454C92.4294 488.73 92.2627 488.188 91.9294 487.829C91.596 487.464 91.1377 487.287 90.5544 487.287C89.9867 487.287 89.5335 487.464 89.2002 487.829C88.8669 488.188 88.7002 488.73 88.7002 489.454V496.891C88.7002 497.61 88.8669 498.152 89.2002 498.516C89.5335 498.875 89.9867 499.058 90.5544 499.058C91.1377 499.058 91.596 498.875 91.9294 498.516C92.2627 498.152 92.4294 497.61 92.4294 496.891V489.454Z" fill="white"/>
<path d="M82.0651 483.704V502.641H78.1693L74.3359 492.474H74.2526L70.4193 502.641H66.5234V483.704H70.1901V495.162H70.2526L73.3151 486.808H75.2734L78.3359 495.162H78.3984V483.704H82.0651Z" fill="white"/>
<path d="M63.7785 496.287C63.7785 497.047 63.7316 497.756 63.6327 498.412C63.5389 499.063 63.3514 499.631 63.0702 500.12C62.6274 500.954 61.9868 501.61 61.1535 502.099C60.3097 502.599 59.2889 502.849 58.091 502.849C56.8983 502.849 55.8826 502.599 55.0493 502.099C54.216 501.61 53.5806 500.954 53.1326 500.12C52.8566 499.631 52.6691 499.063 52.5701 498.412C52.4764 497.756 52.4243 497.047 52.4243 496.287V490.058C52.4243 489.277 52.4764 488.563 52.5701 487.912C52.6691 487.271 52.8566 486.704 53.1326 486.204C53.5806 485.381 54.216 484.724 55.0493 484.224C55.8826 483.724 56.8983 483.474 58.091 483.474C59.2889 483.474 60.3097 483.724 61.1535 484.224C61.9868 484.724 62.6274 485.381 63.0702 486.204C63.3514 486.704 63.5389 487.271 63.6327 487.912C63.7316 488.563 63.7785 489.277 63.7785 490.058V496.287ZM59.966 489.454C59.966 488.73 59.7993 488.188 59.466 487.829C59.1326 487.464 58.6743 487.287 58.091 487.287C57.5233 487.287 57.0701 487.464 56.7368 487.829C56.4035 488.188 56.2368 488.73 56.2368 489.454V496.891C56.2368 497.61 56.4035 498.152 56.7368 498.516C57.0701 498.875 57.5233 499.058 58.091 499.058C58.6743 499.058 59.1326 498.875 59.466 498.516C59.7993 498.152 59.966 497.61 59.966 496.891V489.454Z" fill="white"/>
<path d="M42.6805 502.641H38.8888V494.912H37.493C36.9253 494.912 36.5451 495.105 36.3472 495.495C36.1388 495.896 35.9878 496.349 35.8888 496.849L35.5138 498.704C35.3888 499.287 35.1805 499.881 34.8888 500.495C34.5868 501.12 34.1753 501.605 33.6597 501.954C33.1597 502.287 32.6805 502.48 32.2222 502.537C31.7638 502.605 31.2743 502.641 30.743 502.641H30.6597V499.266H30.7013C31.0763 499.266 31.4201 499.183 31.7222 499.016C32.0138 498.86 32.2222 498.459 32.3472 497.808L32.6805 495.829C32.7118 495.756 32.743 495.61 32.7847 495.391C32.8159 495.167 32.8836 494.922 32.993 494.662C33.092 494.396 33.2222 494.141 33.3888 493.891C33.5451 493.641 33.743 493.454 33.993 493.329L30.7847 483.704H34.6597L37.0972 491.724H38.8888V483.704H42.6805V491.724H44.4722L46.9097 483.704H50.7847L47.5763 493.329C47.8576 493.454 48.0763 493.641 48.243 493.891C48.3993 494.141 48.5243 494.396 48.618 494.662C48.7013 494.922 48.7638 495.167 48.8055 495.391C48.8368 495.61 48.8628 495.756 48.8888 495.829L49.2222 497.808C49.3472 498.459 49.5659 498.86 49.868 499.016C50.1597 499.183 50.493 499.266 50.868 499.266H50.9097V502.641H50.8263C50.3003 502.641 49.8055 502.599 49.3472 502.516C48.8888 502.443 48.4097 502.256 47.9097 501.954C47.342 501.605 46.9253 501.12 46.6597 500.495C46.3836 499.881 46.1805 499.287 46.0555 498.704L45.6805 496.849C45.5868 496.349 45.4409 495.896 45.243 495.495C45.0347 495.105 44.6493 494.912 44.0763 494.912H42.6805V502.641Z" fill="white"/>
<path d="M17.7969 491.724H25.3385V489.162C25.3385 488.563 25.1719 488.099 24.8385 487.766C24.5052 487.443 24.0469 487.287 23.4635 487.287C22.7552 487.287 22.2865 487.495 22.0469 487.912C21.7969 488.339 21.651 488.766 21.6094 489.183H17.7969C17.7969 487.516 18.3125 486.172 19.3385 485.162C19.8281 484.631 20.4219 484.214 21.1302 483.912C21.8281 483.62 22.6042 483.474 23.4635 483.474C24.6615 483.474 25.6823 483.724 26.526 484.224C27.3594 484.724 28 485.381 28.4427 486.204C28.724 486.704 28.9115 487.271 29.0052 487.912C29.1042 488.563 29.151 489.277 29.151 490.058V496.287C29.151 497.047 29.1042 497.756 29.0052 498.412C28.9115 499.063 28.724 499.631 28.4427 500.12C28 500.954 27.3594 501.61 26.526 502.099C25.6823 502.599 24.6615 502.849 23.4635 502.849C22.6042 502.849 21.8177 502.693 21.1094 502.391C20.401 502.099 19.7969 501.693 19.2969 501.183C18.2969 500.058 17.7969 498.646 17.7969 496.954V491.724ZM25.3385 494.724H21.6094V496.891C21.6094 497.61 21.776 498.152 22.1094 498.516C22.4427 498.875 22.8958 499.058 23.4635 499.058C24.0469 499.058 24.5052 498.875 24.8385 498.516C25.1719 498.152 25.3385 497.61 25.3385 496.891V494.724Z" fill="white"/>
<path d="M12.8444 483.704V499.266H16.5736V502.641H5.30273V499.266H9.0319V483.704H12.8444Z" fill="white"/>
</g>
<defs>
<filter id="filter0_i_549_375521" x="-0.270508" y="24.1829" width="822.489" height="502.26" filterUnits="userSpaceOnUse" color-interpolation-filters="sRGB">
<feFlood flood-opacity="0" result="BackgroundImageFix"/>
<feBlend mode="normal" in="SourceGraphic" in2="BackgroundImageFix" result="shape"/>
<feColorMatrix in="SourceAlpha" type="matrix" values="0 0 0 0 0 0 0 0 0 0 0 0 0 0 0 0 0 0 127 0" result="hardAlpha"/>
<feOffset dx="9" dy="13"/>
<feGaussianBlur stdDeviation="3.8"/>
<feComposite in2="hardAlpha" operator="arithmetic" k2="-1" k3="1"/>
<feColorMatrix type="matrix" values="0 0 0 0 0 0 0 0 0 0 0 0 0 0 0 0 0 0 0.25 0"/>
<feBlend mode="normal" in2="shape" result="effect1_innerShadow_549_375521"/>
</filter>
<clipPath id="clip0_549_375521">
<rect width="865.333" height="543.023" fill="white" transform="translate(0.333008)"/>
</clipPath>
</defs>
</svg>
