<svg width="866" height="544" viewBox="0 0 866 544" fill="none" xmlns="http://www.w3.org/2000/svg">
<g clip-path="url(#clip0_549_376246)">
<rect width="865.333" height="543.023" transform="translate(-0.000427246)" fill="white"/>
<mask id="mask0_549_376246" style="mask-type:luminance" maskUnits="userSpaceOnUse" x="-1" y="0" width="867" height="544">
<path d="M-0.000427246 0H865.333V543.021H-0.000427246V0Z" fill="white"/>
</mask>
<g mask="url(#mask0_549_376246)">
<path d="M-0.000427246 543.021H865.333V0H-0.000427246V543.021Z" fill="#FC6649"/>
<g filter="url(#filter0_i_549_376246)">
<path d="M-0.000427246 51.9896H746.536C768.599 51.9896 786.479 69.8698 786.479 91.9323V100.198C786.479 122.255 768.599 140.141 746.536 140.141H67.1454C45.0881 140.141 27.2027 158.021 27.2027 180.083C27.2027 202.146 45.0881 220.026 67.1454 220.026H746.536C768.599 220.026 786.479 237.911 786.479 259.969V270.99C786.479 293.052 768.599 310.932 746.536 310.932H67.1454C45.0881 310.932 27.2027 328.818 27.2027 350.875V361.896C27.2027 383.958 45.0881 401.844 67.1454 401.844H746.536C768.599 401.844 786.479 419.724 786.479 441.786V451.089C786.479 473.151 768.599 491.036 746.536 491.036H-0.000427246" stroke="#0202E0" stroke-width="55.6133" stroke-miterlimit="10"/>
</g>
</g>
<path d="M208.311 491.287V489.641C208.311 488.818 208.473 488.042 208.791 487.308C209.098 486.568 209.53 485.917 210.082 485.349C210.624 484.777 211.265 484.318 211.999 483.974C212.739 483.641 213.53 483.474 214.374 483.474C215.098 483.474 215.832 483.573 216.582 483.766C217.322 483.974 217.989 484.329 218.582 484.829C219.181 485.329 219.676 485.964 220.061 486.745C220.452 487.521 220.645 488.521 220.645 489.745V504.391C220.645 505.25 220.499 506.058 220.207 506.808C219.905 507.558 219.473 508.204 218.916 508.745C218.374 509.297 217.728 509.73 216.978 510.037C216.218 510.355 215.369 510.516 214.436 510.516C212.645 510.516 211.197 509.922 210.082 508.745C209.53 508.172 209.098 507.495 208.791 506.704C208.473 505.922 208.311 505.079 208.311 504.162V502.662H212.124V503.933C212.124 504.683 212.343 505.329 212.77 505.87C213.186 506.422 213.759 506.704 214.478 506.704C215.426 506.704 216.056 506.412 216.374 505.829C216.681 505.245 216.832 504.5 216.832 503.599V490.016C216.832 489.235 216.666 488.584 216.332 488.058C215.999 487.542 215.395 487.287 214.52 487.287C214.27 487.287 214.009 487.329 213.728 487.412C213.436 487.506 213.166 487.652 212.916 487.849C212.697 488.042 212.509 488.313 212.353 488.662C212.202 489.006 212.124 489.443 212.124 489.974V491.287H208.311Z" fill="white"/>
<path d="M205.458 483.704V502.641H200.52C199.77 502.641 199 502.563 198.208 502.412C197.416 502.256 196.698 501.912 196.041 501.37C195.448 500.87 195.031 500.277 194.791 499.599C194.557 498.933 194.437 498.204 194.437 497.412C194.437 497.131 194.468 496.813 194.52 496.454C194.562 496.089 194.661 495.724 194.812 495.349C194.968 494.974 195.187 494.605 195.479 494.245C195.76 493.881 196.135 493.579 196.604 493.329C196.078 493.131 195.656 492.881 195.333 492.579C195.015 492.287 194.765 491.954 194.583 491.579C194.39 491.204 194.265 490.808 194.208 490.391C194.14 489.985 194.104 489.584 194.104 489.183C194.104 488.391 194.208 487.652 194.416 486.974C194.625 486.308 194.979 485.714 195.479 485.204C196.078 484.579 196.812 484.167 197.687 483.974C198.562 483.792 199.411 483.704 200.229 483.704H205.458ZM201.645 486.87H200.104C199.843 486.87 199.578 486.896 199.312 486.954C199.052 487.021 198.812 487.141 198.604 487.308C198.395 487.485 198.229 487.724 198.104 488.016C197.979 488.318 197.916 488.709 197.916 489.183C197.916 489.959 198.062 490.589 198.354 491.079C198.635 491.563 199.218 491.808 200.104 491.808H201.645V486.87ZM201.645 494.787H200.145C199.385 494.787 198.854 495.021 198.562 495.495C198.26 495.964 198.104 496.605 198.104 497.412C198.104 497.98 198.281 498.459 198.625 498.849C198.974 499.25 199.458 499.454 200.083 499.454H201.645V494.787Z" fill="white"/>
<path d="M184.411 483.704V491.245H186.036L188.432 483.704H192.328L189.474 491.808C190.057 492.058 190.515 492.402 190.849 492.849C191.182 493.292 191.432 493.766 191.599 494.266C191.755 494.766 191.849 495.25 191.89 495.724C191.932 496.193 191.953 496.568 191.953 496.849C191.953 497.641 191.818 498.474 191.536 499.349C191.26 500.224 190.802 500.917 190.161 501.433C189.51 501.985 188.818 502.329 188.078 502.454C187.344 502.579 186.609 502.641 185.87 502.641H180.599V483.704H184.411ZM184.411 499.454H186.265C187.015 499.454 187.515 499.172 187.765 498.62C188.015 498.079 188.14 497.438 188.14 496.704C188.14 495.079 187.443 494.266 186.036 494.266H184.411V499.454Z" fill="white"/>
<path d="M170.514 502.641H166.722V494.912H165.326C164.759 494.912 164.378 495.105 164.181 495.495C163.972 495.896 163.821 496.349 163.722 496.849L163.347 498.704C163.222 499.287 163.014 499.881 162.722 500.495C162.42 501.12 162.009 501.605 161.493 501.954C160.993 502.287 160.514 502.48 160.056 502.537C159.597 502.605 159.108 502.641 158.576 502.641H158.493V499.266H158.535C158.91 499.266 159.253 499.183 159.556 499.016C159.847 498.86 160.056 498.459 160.181 497.808L160.514 495.829C160.545 495.756 160.576 495.61 160.618 495.391C160.649 495.167 160.717 494.922 160.826 494.662C160.925 494.396 161.056 494.141 161.222 493.891C161.378 493.641 161.576 493.454 161.826 493.329L158.618 483.704H162.493L164.931 491.724H166.722V483.704H170.514V491.724H172.306L174.743 483.704H178.618L175.41 493.329C175.691 493.454 175.91 493.641 176.076 493.891C176.233 494.141 176.358 494.396 176.451 494.662C176.535 494.922 176.597 495.167 176.639 495.391C176.67 495.61 176.696 495.756 176.722 495.829L177.056 497.808C177.181 498.459 177.399 498.86 177.701 499.016C177.993 499.183 178.326 499.266 178.701 499.266H178.743V502.641H178.66C178.134 502.641 177.639 502.599 177.181 502.516C176.722 502.443 176.243 502.256 175.743 501.954C175.175 501.605 174.759 501.12 174.493 500.495C174.217 499.881 174.014 499.287 173.889 498.704L173.514 496.849C173.42 496.349 173.274 495.896 173.076 495.495C172.868 495.105 172.483 494.912 171.91 494.912H170.514V502.641Z" fill="white"/>
<path d="M148.463 483.704V495.724H148.547L152.755 483.704H156.651V502.641H153.068V490.62H152.984L148.797 502.641H144.88V483.704H148.463Z" fill="white"/>
<path d="M139.596 483.704V499.266H143.325V502.641H132.054V499.266H135.783V483.704H139.596Z" fill="white"/>
<path d="M119.473 491.724H127.014V489.162C127.014 488.563 126.848 488.099 126.514 487.766C126.181 487.443 125.723 487.287 125.139 487.287C124.431 487.287 123.962 487.495 123.723 487.912C123.473 488.339 123.327 488.766 123.285 489.183H119.473C119.473 487.516 119.988 486.172 121.014 485.162C121.504 484.631 122.098 484.214 122.806 483.912C123.504 483.62 124.28 483.474 125.139 483.474C126.337 483.474 127.358 483.724 128.202 484.224C129.035 484.724 129.676 485.381 130.119 486.204C130.4 486.704 130.587 487.271 130.681 487.912C130.78 488.563 130.827 489.277 130.827 490.058V496.287C130.827 497.047 130.78 497.756 130.681 498.412C130.587 499.063 130.4 499.631 130.119 500.12C129.676 500.954 129.035 501.61 128.202 502.099C127.358 502.599 126.337 502.849 125.139 502.849C124.28 502.849 123.494 502.693 122.785 502.391C122.077 502.099 121.473 501.693 120.973 501.183C119.973 500.058 119.473 498.646 119.473 496.954V491.724ZM127.014 494.724H123.285V496.891C123.285 497.61 123.452 498.152 123.785 498.516C124.119 498.875 124.572 499.058 125.139 499.058C125.723 499.058 126.181 498.875 126.514 498.516C126.848 498.152 127.014 497.61 127.014 496.891V494.724Z" fill="white"/>
<path d="M105.705 489.162C105.705 488.563 105.538 488.099 105.205 487.766C104.872 487.443 104.424 487.287 103.851 487.287C103.132 487.287 102.653 487.495 102.413 487.912C102.179 488.339 102.033 488.766 101.976 489.183H98.1635C98.1635 487.516 98.6791 486.172 99.7051 485.162C100.205 484.631 100.804 484.214 101.497 483.912C102.195 483.62 102.976 483.474 103.851 483.474C105.049 483.474 106.059 483.724 106.893 484.224C107.726 484.724 108.367 485.381 108.809 486.204C109.091 486.704 109.278 487.271 109.372 487.912C109.471 488.563 109.518 489.277 109.518 490.058V496.287C109.518 497.047 109.471 497.756 109.372 498.412C109.278 499.063 109.091 499.631 108.809 500.12C108.367 500.954 107.726 501.61 106.893 502.099C106.059 502.599 105.049 502.849 103.851 502.849C102.976 502.849 102.184 502.693 101.476 502.391C100.768 502.099 100.163 501.693 99.6635 501.183C98.6635 500.058 98.1635 498.599 98.1635 496.808H101.976C101.976 497.584 102.143 498.152 102.476 498.516C102.809 498.875 103.268 499.058 103.851 499.058C104.424 499.058 104.872 498.875 105.205 498.516C105.538 498.152 105.705 497.61 105.705 496.891V489.162Z" fill="white"/>
<path d="M89.0001 476.058V502.641H85.1876V500.912C84.7188 501.464 84.2292 501.922 83.7292 502.287C83.2292 502.662 82.5105 502.849 81.5626 502.849C79.9949 502.849 78.8907 502.251 78.2501 501.058C78.0313 500.641 77.8699 500.12 77.7709 499.495C77.6615 498.87 77.6042 498.037 77.6042 496.995V489.787C77.6042 488.396 77.6459 487.391 77.7292 486.766C77.8699 485.516 78.4376 484.584 79.4376 483.974C79.9376 483.641 80.6615 483.474 81.6042 483.474C82.3542 483.474 83.0209 483.641 83.6042 483.974C84.1876 484.318 84.6876 484.797 85.1042 485.412H85.1876V476.058H89.0001ZM81.4167 496.474C81.4167 497.235 81.573 497.855 81.8751 498.329C82.1667 498.813 82.6407 499.058 83.2917 499.058C83.8647 499.058 84.323 498.834 84.6667 498.391C85.0157 497.959 85.1876 497.396 85.1876 496.704V489.349C85.1876 488.751 85.0105 488.256 84.6459 487.87C84.2865 487.48 83.8334 487.287 83.2917 487.287C82.573 487.287 82.0782 487.506 81.8126 487.954C81.5522 488.412 81.4167 488.938 81.4167 489.537V496.474Z" fill="white"/>
<path d="M66.3346 483.704V495.724H66.4179L70.6263 483.704H74.5221V502.641H70.9388V490.62H70.8554L66.6679 502.641H62.7513V483.704H66.3346Z" fill="white"/>
<path d="M59.6337 483.704V502.641H55.7379L51.9045 492.474H51.8212L47.9879 502.641H44.092V483.704H47.7587V495.162H47.8212L50.8837 486.808H52.842L55.9045 495.162H55.967V483.704H59.6337Z" fill="white"/>
<path d="M36.8976 489.162C36.8976 488.563 36.731 488.099 36.3976 487.766C36.0643 487.443 35.6164 487.287 35.0435 487.287C34.3247 487.287 33.8455 487.495 33.606 487.912C33.3716 488.339 33.2257 488.766 33.1685 489.183H29.356C29.356 487.516 29.8716 486.172 30.8976 485.162C31.3976 484.631 31.9966 484.214 32.6893 483.912C33.3872 483.62 34.1685 483.474 35.0435 483.474C36.2414 483.474 37.2518 483.724 38.0851 484.224C38.9185 484.724 39.5591 485.381 40.0018 486.204C40.283 486.704 40.4705 487.271 40.5643 487.912C40.6632 488.563 40.7101 489.277 40.7101 490.058V496.287C40.7101 497.047 40.6632 497.756 40.5643 498.412C40.4705 499.063 40.283 499.631 40.0018 500.12C39.5591 500.954 38.9185 501.61 38.0851 502.099C37.2518 502.599 36.2414 502.849 35.0435 502.849C34.1685 502.849 33.3768 502.693 32.6685 502.391C31.9601 502.099 31.356 501.693 30.856 501.183C29.856 500.058 29.356 498.599 29.356 496.808H33.1685C33.1685 497.584 33.3351 498.152 33.6685 498.516C34.0018 498.875 34.4601 499.058 35.0435 499.058C35.6164 499.058 36.0643 498.875 36.3976 498.516C36.731 498.152 36.8976 497.61 36.8976 496.891V489.162Z" fill="white"/>
<path d="M27.133 483.704V502.641H23.3205V494.912H21.8622C21.2945 494.912 20.9143 495.105 20.7163 495.495C20.508 495.896 20.3413 496.396 20.2163 496.995L19.8205 499.162C19.6695 499.73 19.4768 500.245 19.2372 500.704C19.0028 501.162 18.6851 501.527 18.2788 501.808C17.8622 502.11 17.3778 502.329 16.8205 502.454C16.2528 502.579 15.607 502.641 14.883 502.641H14.7997V499.266H14.9247C15.3726 499.266 15.7476 499.183 16.0497 499.016C16.3413 498.86 16.5497 498.5 16.6747 497.933L17.0497 495.829C17.0809 495.756 17.1122 495.61 17.1538 495.391C17.1851 495.167 17.2476 494.922 17.3413 494.662C17.4403 494.396 17.5705 494.141 17.7372 493.891C17.9038 493.641 18.1122 493.454 18.3622 493.329L14.5497 483.704H18.4247L21.4455 491.724H23.3205V483.704H27.133Z" fill="white"/>
<path d="M13.0021 496.287C13.0021 497.047 12.9552 497.756 12.8563 498.412C12.7625 499.063 12.575 499.631 12.2938 500.12C11.8511 500.954 11.2104 501.61 10.3771 502.099C9.53337 502.599 8.51253 502.849 7.31462 502.849C6.12191 502.849 5.10628 502.599 4.27295 502.099C3.43962 501.61 2.8042 500.954 2.35628 500.12C2.08024 499.631 1.89274 499.063 1.79378 498.412C1.70003 497.756 1.64795 497.047 1.64795 496.287V490.058C1.64795 489.277 1.70003 488.563 1.79378 487.912C1.89274 487.271 2.08024 486.704 2.35628 486.204C2.8042 485.381 3.43962 484.724 4.27295 484.224C5.10628 483.724 6.12191 483.474 7.31462 483.474C8.51253 483.474 9.53337 483.724 10.3771 484.224C11.2104 484.724 11.8511 485.381 12.2938 486.204C12.575 486.704 12.7625 487.271 12.8563 487.912C12.9552 488.563 13.0021 489.277 13.0021 490.058V496.287ZM9.18962 489.454C9.18962 488.73 9.02295 488.188 8.68962 487.829C8.35628 487.464 7.89795 487.287 7.31462 487.287C6.74691 487.287 6.29378 487.464 5.96045 487.829C5.62712 488.188 5.46045 488.73 5.46045 489.454V496.891C5.46045 497.61 5.62712 498.152 5.96045 498.516C6.29378 498.875 6.74691 499.058 7.31462 499.058C7.89795 499.058 8.35628 498.875 8.68962 498.516C9.02295 498.152 9.18962 497.61 9.18962 496.891V489.454Z" fill="white"/>
</g>
<defs>
<filter id="filter0_i_549_376246" x="-0.603943" y="24.1829" width="822.489" height="502.26" filterUnits="userSpaceOnUse" color-interpolation-filters="sRGB">
<feFlood flood-opacity="0" result="BackgroundImageFix"/>
<feBlend mode="normal" in="SourceGraphic" in2="BackgroundImageFix" result="shape"/>
<feColorMatrix in="SourceAlpha" type="matrix" values="0 0 0 0 0 0 0 0 0 0 0 0 0 0 0 0 0 0 127 0" result="hardAlpha"/>
<feOffset dx="9" dy="13"/>
<feGaussianBlur stdDeviation="3.8"/>
<feComposite in2="hardAlpha" operator="arithmetic" k2="-1" k3="1"/>
<feColorMatrix type="matrix" values="0 0 0 0 0 0 0 0 0 0 0 0 0 0 0 0 0 0 0.25 0"/>
<feBlend mode="normal" in2="shape" result="effect1_innerShadow_549_376246"/>
</filter>
<clipPath id="clip0_549_376246">
<rect width="865.333" height="543.023" fill="white" transform="translate(-0.000427246)"/>
</clipPath>
</defs>
</svg>
