<svg width="866" height="544" viewBox="0 0 866 544" fill="none" xmlns="http://www.w3.org/2000/svg">
<g clip-path="url(#clip0_549_376175)">
<rect width="865.333" height="543.023" transform="translate(0.66626)" fill="white"/>
<mask id="mask0_549_376175" style="mask-type:luminance" maskUnits="userSpaceOnUse" x="0" y="0" width="866" height="544">
<path d="M0.66626 0H866V543.021H0.66626V0Z" fill="white"/>
</mask>
<g mask="url(#mask0_549_376175)">
<path d="M0.66626 543.021H866V0H0.66626V543.021Z" fill="#FC6649"/>
<g filter="url(#filter0_i_549_376175)">
<path d="M0.66626 51.9896H747.203C769.265 51.9896 787.145 69.8698 787.145 91.9323V100.198C787.145 122.255 769.265 140.141 747.203 140.141H67.8121C45.7548 140.141 27.8694 158.021 27.8694 180.083C27.8694 202.146 45.7548 220.026 67.8121 220.026H747.203C769.265 220.026 787.145 237.911 787.145 259.969V270.99C787.145 293.052 769.265 310.932 747.203 310.932H67.8121C45.7548 310.932 27.8694 328.818 27.8694 350.875V361.896C27.8694 383.958 45.7548 401.844 67.8121 401.844H747.203C769.265 401.844 787.145 419.724 787.145 441.786V451.089C787.145 473.151 769.265 491.036 747.203 491.036H0.66626" stroke="#0202E0" stroke-width="55.6133" stroke-miterlimit="10"/>
</g>
</g>
<path d="M475.465 491.286V489.64C475.465 488.817 475.627 488.041 475.944 487.307C476.252 486.567 476.684 485.916 477.236 485.348C477.778 484.775 478.418 484.317 479.153 483.973C479.892 483.64 480.684 483.473 481.528 483.473C482.252 483.473 482.986 483.572 483.736 483.765C484.476 483.973 485.142 484.327 485.736 484.827C486.335 485.327 486.83 485.963 487.215 486.744C487.606 487.52 487.798 488.52 487.798 489.744V504.39C487.798 505.249 487.653 506.057 487.361 506.807C487.059 507.557 486.627 508.202 486.069 508.744C485.528 509.296 484.882 509.728 484.132 510.036C483.371 510.353 482.522 510.515 481.59 510.515C479.798 510.515 478.351 509.921 477.236 508.744C476.684 508.171 476.252 507.494 475.944 506.702C475.627 505.921 475.465 505.077 475.465 504.161V502.661H479.278V503.932C479.278 504.682 479.496 505.327 479.923 505.869C480.34 506.421 480.913 506.702 481.632 506.702C482.58 506.702 483.21 506.411 483.528 505.827C483.835 505.244 483.986 504.499 483.986 503.598V490.015C483.986 489.234 483.819 488.583 483.486 488.057C483.153 487.541 482.548 487.286 481.673 487.286C481.423 487.286 481.163 487.327 480.882 487.411C480.59 487.504 480.319 487.65 480.069 487.848C479.851 488.041 479.663 488.312 479.507 488.661C479.356 489.004 479.278 489.442 479.278 489.973V491.286H475.465Z" fill="white"/>
<path d="M472.611 483.702V502.64H467.674C466.924 502.64 466.153 502.562 465.361 502.411C464.57 502.254 463.851 501.911 463.195 501.369C462.601 500.869 462.184 500.275 461.945 499.598C461.71 498.932 461.591 498.202 461.591 497.411C461.591 497.129 461.622 496.812 461.674 496.452C461.716 496.088 461.815 495.723 461.966 495.348C462.122 494.973 462.341 494.603 462.632 494.244C462.914 493.879 463.289 493.577 463.757 493.327C463.231 493.129 462.809 492.879 462.486 492.577C462.169 492.286 461.919 491.952 461.736 491.577C461.544 491.202 461.419 490.807 461.361 490.39C461.294 489.984 461.257 489.583 461.257 489.182C461.257 488.39 461.361 487.65 461.57 486.973C461.778 486.307 462.132 485.713 462.632 485.202C463.231 484.577 463.966 484.166 464.841 483.973C465.716 483.791 466.565 483.702 467.382 483.702H472.611ZM468.799 486.869H467.257C466.997 486.869 466.731 486.895 466.466 486.952C466.205 487.02 465.966 487.14 465.757 487.307C465.549 487.484 465.382 487.723 465.257 488.015C465.132 488.317 465.07 488.708 465.07 489.182C465.07 489.958 465.216 490.588 465.507 491.077C465.789 491.562 466.372 491.807 467.257 491.807H468.799V486.869ZM468.799 494.786H467.299C466.539 494.786 466.007 495.02 465.716 495.494C465.414 495.963 465.257 496.603 465.257 497.411C465.257 497.978 465.434 498.458 465.778 498.848C466.127 499.249 466.611 499.452 467.236 499.452H468.799V494.786Z" fill="white"/>
<path d="M451.565 483.702V491.244H453.19L455.586 483.702H459.481L456.627 491.807C457.211 492.057 457.669 492.4 458.002 492.848C458.336 493.291 458.586 493.765 458.752 494.265C458.909 494.765 459.002 495.249 459.044 495.723C459.086 496.192 459.106 496.567 459.106 496.848C459.106 497.64 458.971 498.473 458.69 499.348C458.414 500.223 457.955 500.916 457.315 501.432C456.664 501.984 455.971 502.327 455.231 502.452C454.497 502.577 453.763 502.64 453.023 502.64H447.752V483.702H451.565ZM451.565 499.452H453.419C454.169 499.452 454.669 499.171 454.919 498.619C455.169 498.077 455.294 497.437 455.294 496.702C455.294 495.077 454.596 494.265 453.19 494.265H451.565V499.452Z" fill="white"/>
<path d="M437.667 502.64H433.876V494.911H432.48C431.912 494.911 431.532 495.103 431.334 495.494C431.126 495.895 430.975 496.348 430.876 496.848L430.501 498.702C430.376 499.286 430.167 499.879 429.876 500.494C429.574 501.119 429.162 501.603 428.647 501.952C428.147 502.286 427.667 502.478 427.209 502.536C426.751 502.603 426.261 502.64 425.73 502.64H425.647V499.265H425.688C426.063 499.265 426.407 499.182 426.709 499.015C427.001 498.859 427.209 498.458 427.334 497.807L427.667 495.827C427.699 495.754 427.73 495.609 427.772 495.39C427.803 495.166 427.871 494.921 427.98 494.661C428.079 494.395 428.209 494.14 428.376 493.89C428.532 493.64 428.73 493.452 428.98 493.327L425.772 483.702H429.647L432.084 491.723H433.876V483.702H437.667V491.723H439.459L441.897 483.702H445.772L442.563 493.327C442.845 493.452 443.063 493.64 443.23 493.89C443.386 494.14 443.511 494.395 443.605 494.661C443.688 494.921 443.751 495.166 443.792 495.39C443.824 495.609 443.85 495.754 443.876 495.827L444.209 497.807C444.334 498.458 444.553 498.859 444.855 499.015C445.147 499.182 445.48 499.265 445.855 499.265H445.897V502.64H445.813C445.287 502.64 444.792 502.598 444.334 502.515C443.876 502.442 443.397 502.254 442.897 501.952C442.329 501.603 441.912 501.119 441.647 500.494C441.371 499.879 441.167 499.286 441.042 498.702L440.667 496.848C440.574 496.348 440.428 495.895 440.23 495.494C440.022 495.103 439.636 494.911 439.063 494.911H437.667V502.64Z" fill="white"/>
<path d="M415.617 483.702V495.723H415.7L419.909 483.702H423.804V502.64H420.221V490.619H420.138L415.95 502.64H412.034V483.702H415.617Z" fill="white"/>
<path d="M406.749 483.702V499.265H410.479V502.64H399.208V499.265H402.937V483.702H406.749Z" fill="white"/>
<path d="M386.626 491.723H394.168V489.161C394.168 488.562 394.001 488.098 393.668 487.765C393.335 487.442 392.876 487.286 392.293 487.286C391.585 487.286 391.116 487.494 390.876 487.911C390.626 488.338 390.481 488.765 390.439 489.182H386.626C386.626 487.515 387.142 486.171 388.168 485.161C388.658 484.629 389.251 484.213 389.96 483.911C390.658 483.619 391.434 483.473 392.293 483.473C393.491 483.473 394.512 483.723 395.356 484.223C396.189 484.723 396.829 485.379 397.272 486.202C397.553 486.702 397.741 487.27 397.835 487.911C397.934 488.562 397.981 489.275 397.981 490.057V496.286C397.981 497.046 397.934 497.754 397.835 498.411C397.741 499.062 397.553 499.629 397.272 500.119C396.829 500.952 396.189 501.609 395.356 502.098C394.512 502.598 393.491 502.848 392.293 502.848C391.434 502.848 390.647 502.692 389.939 502.39C389.231 502.098 388.626 501.692 388.126 501.182C387.126 500.057 386.626 498.645 386.626 496.952V491.723ZM394.168 494.723H390.439V496.89C390.439 497.609 390.606 498.15 390.939 498.515C391.272 498.874 391.725 499.057 392.293 499.057C392.876 499.057 393.335 498.874 393.668 498.515C394.001 498.15 394.168 497.609 394.168 496.89V494.723Z" fill="white"/>
<path d="M372.859 489.161C372.859 488.562 372.692 488.098 372.359 487.765C372.025 487.442 371.578 487.286 371.005 487.286C370.286 487.286 369.807 487.494 369.567 487.911C369.333 488.338 369.187 488.765 369.13 489.182H365.317C365.317 487.515 365.833 486.171 366.859 485.161C367.359 484.629 367.958 484.213 368.65 483.911C369.348 483.619 370.13 483.473 371.005 483.473C372.203 483.473 373.213 483.723 374.046 484.223C374.88 484.723 375.52 485.379 375.963 486.202C376.244 486.702 376.432 487.27 376.525 487.911C376.624 488.562 376.671 489.275 376.671 490.057V496.286C376.671 497.046 376.624 497.754 376.525 498.411C376.432 499.062 376.244 499.629 375.963 500.119C375.52 500.952 374.88 501.609 374.046 502.098C373.213 502.598 372.203 502.848 371.005 502.848C370.13 502.848 369.338 502.692 368.63 502.39C367.921 502.098 367.317 501.692 366.817 501.182C365.817 500.057 365.317 498.598 365.317 496.807H369.13C369.13 497.583 369.296 498.15 369.63 498.515C369.963 498.874 370.421 499.057 371.005 499.057C371.578 499.057 372.025 498.874 372.359 498.515C372.692 498.15 372.859 497.609 372.859 496.89V489.161Z" fill="white"/>
<path d="M356.154 476.057V502.64H352.341V500.911C351.872 501.463 351.383 501.921 350.883 502.286C350.383 502.661 349.664 502.848 348.716 502.848C347.148 502.848 346.044 502.249 345.404 501.057C345.185 500.64 345.023 500.119 344.924 499.494C344.815 498.869 344.758 498.036 344.758 496.994V489.786C344.758 488.395 344.799 487.39 344.883 486.765C345.023 485.515 345.591 484.583 346.591 483.973C347.091 483.64 347.815 483.473 348.758 483.473C349.508 483.473 350.174 483.64 350.758 483.973C351.341 484.317 351.841 484.796 352.258 485.411H352.341V476.057H356.154ZM348.57 496.473C348.57 497.234 348.727 497.853 349.029 498.327C349.32 498.812 349.794 499.057 350.445 499.057C351.018 499.057 351.477 498.833 351.82 498.39C352.169 497.958 352.341 497.395 352.341 496.702V489.348C352.341 488.749 352.164 488.254 351.799 487.869C351.44 487.478 350.987 487.286 350.445 487.286C349.727 487.286 349.232 487.504 348.966 487.952C348.706 488.411 348.57 488.937 348.57 489.536V496.473Z" fill="white"/>
<path d="M333.451 483.702V495.723H333.534L337.743 483.702H341.638V502.64H338.055V490.619H337.972L333.784 502.64H329.868V483.702H333.451Z" fill="white"/>
<path d="M326.713 483.702V502.64H322.817L318.984 492.473H318.9L315.067 502.64H311.171V483.702H314.838V495.161H314.9L317.963 486.807H319.921L322.984 495.161H323.046V483.702H326.713Z" fill="white"/>
<path d="M304.014 489.161C304.014 488.562 303.847 488.098 303.514 487.765C303.181 487.442 302.733 487.286 302.16 487.286C301.441 487.286 300.962 487.494 300.722 487.911C300.488 488.338 300.342 488.765 300.285 489.182H296.472C296.472 487.515 296.988 486.171 298.014 485.161C298.514 484.629 299.113 484.213 299.806 483.911C300.504 483.619 301.285 483.473 302.16 483.473C303.358 483.473 304.368 483.723 305.201 484.223C306.035 484.723 306.675 485.379 307.118 486.202C307.399 486.702 307.587 487.27 307.681 487.911C307.78 488.562 307.826 489.275 307.826 490.057V496.286C307.826 497.046 307.78 497.754 307.681 498.411C307.587 499.062 307.399 499.629 307.118 500.119C306.675 500.952 306.035 501.609 305.201 502.098C304.368 502.598 303.358 502.848 302.16 502.848C301.285 502.848 300.493 502.692 299.785 502.39C299.076 502.098 298.472 501.692 297.972 501.182C296.972 500.057 296.472 498.598 296.472 496.807H300.285C300.285 497.583 300.451 498.15 300.785 498.515C301.118 498.874 301.576 499.057 302.16 499.057C302.733 499.057 303.181 498.874 303.514 498.515C303.847 498.15 304.014 497.609 304.014 496.89V489.161Z" fill="white"/>
<path d="M294.249 483.702V502.64H290.437V494.911H288.979C288.411 494.911 288.031 495.103 287.833 495.494C287.624 495.895 287.458 496.395 287.333 496.994L286.937 499.161C286.786 499.728 286.593 500.244 286.354 500.702C286.119 501.161 285.801 501.525 285.395 501.807C284.979 502.109 284.494 502.327 283.937 502.452C283.369 502.577 282.723 502.64 281.999 502.64H281.916V499.265H282.041C282.489 499.265 282.864 499.182 283.166 499.015C283.458 498.859 283.666 498.499 283.791 497.932L284.166 495.827C284.197 495.754 284.229 495.609 284.27 495.39C284.301 495.166 284.364 494.921 284.458 494.661C284.557 494.395 284.687 494.14 284.854 493.89C285.02 493.64 285.229 493.452 285.479 493.327L281.666 483.702H285.541L288.562 491.723H290.437V483.702H294.249Z" fill="white"/>
<path d="M280.142 496.286C280.142 497.046 280.095 497.754 279.996 498.411C279.902 499.062 279.715 499.629 279.434 500.119C278.991 500.952 278.35 501.609 277.517 502.098C276.673 502.598 275.652 502.848 274.455 502.848C273.262 502.848 272.246 502.598 271.413 502.098C270.58 501.609 269.944 500.952 269.496 500.119C269.22 499.629 269.033 499.062 268.934 498.411C268.84 497.754 268.788 497.046 268.788 496.286V490.057C268.788 489.275 268.84 488.562 268.934 487.911C269.033 487.27 269.22 486.702 269.496 486.202C269.944 485.379 270.58 484.723 271.413 484.223C272.246 483.723 273.262 483.473 274.455 483.473C275.652 483.473 276.673 483.723 277.517 484.223C278.35 484.723 278.991 485.379 279.434 486.202C279.715 486.702 279.902 487.27 279.996 487.911C280.095 488.562 280.142 489.275 280.142 490.057V496.286ZM276.33 489.452C276.33 488.728 276.163 488.187 275.83 487.827C275.496 487.463 275.038 487.286 274.455 487.286C273.887 487.286 273.434 487.463 273.1 487.827C272.767 488.187 272.6 488.728 272.6 489.452V496.89C272.6 497.609 272.767 498.15 273.1 498.515C273.434 498.874 273.887 499.057 274.455 499.057C275.038 499.057 275.496 498.874 275.83 498.515C276.163 498.15 276.33 497.609 276.33 496.89V489.452Z" fill="white"/>
<path d="M257.815 483.702V495.723H257.898L262.107 483.702H266.002V502.64H262.419V490.619H262.336L258.148 502.64H254.232V483.702H257.815ZM261.961 509.64C261.935 509.499 261.914 509.317 261.898 509.098C261.888 508.89 261.825 508.682 261.711 508.473C261.601 508.265 261.419 508.083 261.169 507.932C260.919 507.775 260.56 507.702 260.086 507.702C259.617 507.702 259.252 507.775 259.002 507.932C258.752 508.083 258.575 508.265 258.461 508.473C258.351 508.682 258.294 508.89 258.294 509.098C258.284 509.317 258.263 509.499 258.232 509.64H255.044C255.169 508.249 255.627 507.182 256.419 506.432C257.2 505.692 258.419 505.327 260.086 505.327C261.752 505.327 262.982 505.702 263.773 506.452C264.554 507.213 265.002 508.275 265.127 509.64H261.961Z" fill="white"/>
<path d="M244.174 483.702V502.64H239.236C238.486 502.64 237.715 502.562 236.924 502.411C236.132 502.254 235.413 501.911 234.757 501.369C234.163 500.869 233.747 500.275 233.507 499.598C233.273 498.932 233.153 498.202 233.153 497.411C233.153 497.129 233.184 496.812 233.236 496.452C233.278 496.088 233.377 495.723 233.528 495.348C233.684 494.973 233.903 494.603 234.194 494.244C234.476 493.879 234.851 493.577 235.319 493.327C234.793 493.129 234.372 492.879 234.049 492.577C233.731 492.286 233.481 491.952 233.299 491.577C233.106 491.202 232.981 490.807 232.924 490.39C232.856 489.984 232.819 489.583 232.819 489.182C232.819 488.39 232.924 487.65 233.132 486.973C233.34 486.307 233.694 485.713 234.194 485.202C234.793 484.577 235.528 484.166 236.403 483.973C237.278 483.791 238.127 483.702 238.944 483.702H244.174ZM240.361 486.869H238.819C238.559 486.869 238.293 486.895 238.028 486.952C237.767 487.02 237.528 487.14 237.319 487.307C237.111 487.484 236.944 487.723 236.819 488.015C236.694 488.317 236.632 488.708 236.632 489.182C236.632 489.958 236.778 490.588 237.069 491.077C237.351 491.562 237.934 491.807 238.819 491.807H240.361V486.869ZM240.361 494.786H238.861C238.101 494.786 237.569 495.02 237.278 495.494C236.976 495.963 236.819 496.603 236.819 497.411C236.819 497.978 236.997 498.458 237.34 498.848C237.689 499.249 238.174 499.452 238.799 499.452H240.361V494.786Z" fill="white"/>
<path d="M222.898 483.702V485.64H222.96C223.46 484.942 223.971 484.411 224.481 484.036C224.997 483.661 225.71 483.473 226.627 483.473C227.075 483.473 227.533 483.546 228.002 483.682C228.46 483.817 228.898 484.077 229.314 484.452C229.747 484.796 230.096 485.296 230.356 485.952C230.606 486.619 230.731 487.473 230.731 488.515C230.731 489.583 230.648 490.52 230.481 491.327C230.304 492.145 229.976 492.827 229.502 493.369C229.059 493.895 228.455 494.286 227.689 494.536C226.913 494.796 225.929 494.932 224.731 494.932H224.314C224.163 494.932 224.023 494.921 223.898 494.911C223.773 494.879 223.627 494.869 223.46 494.869C223.283 494.869 223.096 494.853 222.898 494.827V496.807C222.898 497.458 223.038 497.994 223.314 498.411C223.58 498.838 224.075 499.057 224.794 499.057C225.294 499.057 225.752 498.89 226.169 498.557C226.575 498.234 226.835 497.765 226.96 497.14H230.669C230.559 498.833 229.981 500.202 228.939 501.244C228.439 501.744 227.846 502.129 227.148 502.411C226.455 502.702 225.669 502.848 224.794 502.848C224.002 502.848 223.262 502.723 222.564 502.473C221.872 502.223 221.262 501.853 220.731 501.369C220.231 500.869 219.835 500.244 219.544 499.494C219.241 498.744 219.085 497.874 219.085 496.89V483.702H222.898ZM222.898 491.848C223.314 491.916 223.663 491.952 223.939 491.952C224.762 491.952 225.46 491.754 226.044 491.369C226.627 490.978 226.919 490.275 226.919 489.265C226.919 488.541 226.747 487.958 226.398 487.515C226.054 487.067 225.564 486.848 224.939 486.848C224.304 486.848 223.804 487.057 223.439 487.473C223.08 487.89 222.898 488.484 222.898 489.265V491.848Z" fill="white"/>
<path d="M216.3 483.702V502.64H212.487V494.911H211.029C210.461 494.911 210.081 495.103 209.883 495.494C209.675 495.895 209.508 496.395 209.383 496.994L208.987 499.161C208.836 499.728 208.644 500.244 208.404 500.702C208.17 501.161 207.852 501.525 207.446 501.807C207.029 502.109 206.545 502.327 205.987 502.452C205.42 502.577 204.774 502.64 204.05 502.64H203.967V499.265H204.092C204.539 499.265 204.914 499.182 205.217 499.015C205.508 498.859 205.717 498.499 205.842 497.932L206.217 495.827C206.248 495.754 206.279 495.609 206.321 495.39C206.352 495.166 206.414 494.921 206.508 494.661C206.607 494.395 206.737 494.14 206.904 493.89C207.071 493.64 207.279 493.452 207.529 493.327L203.717 483.702H207.592L210.612 491.723H212.487V483.702H216.3Z" fill="white"/>
<path d="M203.838 483.702L199.172 493.369L203.609 502.64H199.567L197.234 497.244L194.88 502.64H190.838L195.359 493.369L190.609 483.702H194.651L197.234 489.494L199.797 483.702H203.838Z" fill="white"/>
<path d="M182.263 483.702V485.64H182.325C182.825 484.942 183.335 484.411 183.846 484.036C184.362 483.661 185.075 483.473 185.992 483.473C186.44 483.473 186.898 483.546 187.367 483.682C187.825 483.817 188.263 484.077 188.679 484.452C189.112 484.796 189.46 485.296 189.721 485.952C189.971 486.619 190.096 487.473 190.096 488.515C190.096 489.583 190.013 490.52 189.846 491.327C189.669 492.145 189.341 492.827 188.867 493.369C188.424 493.895 187.82 494.286 187.054 494.536C186.278 494.796 185.294 494.932 184.096 494.932H183.679C183.528 494.932 183.388 494.921 183.263 494.911C183.138 494.879 182.992 494.869 182.825 494.869C182.648 494.869 182.46 494.853 182.263 494.827V496.807C182.263 497.458 182.403 497.994 182.679 498.411C182.945 498.838 183.44 499.057 184.158 499.057C184.658 499.057 185.117 498.89 185.533 498.557C185.94 498.234 186.2 497.765 186.325 497.14H190.033C189.924 498.833 189.346 500.202 188.304 501.244C187.804 501.744 187.21 502.129 186.513 502.411C185.82 502.702 185.033 502.848 184.158 502.848C183.367 502.848 182.627 502.723 181.929 502.473C181.237 502.223 180.627 501.853 180.096 501.369C179.596 500.869 179.2 500.244 178.908 499.494C178.606 498.744 178.45 497.874 178.45 496.89V483.702H182.263ZM182.263 491.848C182.679 491.916 183.028 491.952 183.304 491.952C184.127 491.952 184.825 491.754 185.408 491.369C185.992 490.978 186.283 490.275 186.283 489.265C186.283 488.541 186.112 487.958 185.763 487.515C185.419 487.067 184.929 486.848 184.304 486.848C183.669 486.848 183.169 487.057 182.804 487.473C182.445 487.89 182.263 488.484 182.263 489.265V491.848Z" fill="white"/>
<path d="M175.665 483.702V502.64H171.852V494.911H167.998V502.64H164.206V483.702H167.998V491.723H171.852V483.702H175.665Z" fill="white"/>
<path d="M153.866 483.702V485.64H153.929C154.429 484.942 154.939 484.411 155.45 484.036C155.965 483.661 156.679 483.473 157.595 483.473C158.043 483.473 158.502 483.546 158.97 483.682C159.429 483.817 159.866 484.077 160.283 484.452C160.715 484.796 161.064 485.296 161.325 485.952C161.575 486.619 161.7 487.473 161.7 488.515C161.7 489.583 161.616 490.52 161.45 491.327C161.273 492.145 160.944 492.827 160.47 493.369C160.028 493.895 159.424 494.286 158.658 494.536C157.882 494.796 156.898 494.932 155.7 494.932H155.283C155.132 494.932 154.991 494.921 154.866 494.911C154.741 494.879 154.595 494.869 154.429 494.869C154.252 494.869 154.064 494.853 153.866 494.827V496.807C153.866 497.458 154.007 497.994 154.283 498.411C154.549 498.838 155.043 499.057 155.762 499.057C156.262 499.057 156.72 498.89 157.137 498.557C157.543 498.234 157.804 497.765 157.929 497.14H161.637C161.528 498.833 160.95 500.202 159.908 501.244C159.408 501.744 158.814 502.129 158.116 502.411C157.424 502.702 156.637 502.848 155.762 502.848C154.97 502.848 154.231 502.723 153.533 502.473C152.84 502.223 152.231 501.853 151.7 501.369C151.2 500.869 150.804 500.244 150.512 499.494C150.21 498.744 150.054 497.874 150.054 496.89V483.702H153.866ZM153.866 491.848C154.283 491.916 154.632 491.952 154.908 491.952C155.731 491.952 156.429 491.754 157.012 491.369C157.595 490.978 157.887 490.275 157.887 489.265C157.887 488.541 157.715 487.958 157.366 487.515C157.023 487.067 156.533 486.848 155.908 486.848C155.273 486.848 154.773 487.057 154.408 487.473C154.049 487.89 153.866 488.484 153.866 489.265V491.848Z" fill="white"/>
<path d="M148.56 487.286C148.3 487.286 148.029 487.359 147.748 487.515C147.456 487.666 147.159 487.921 146.852 488.286C146.602 488.588 146.409 489.02 146.268 489.577C146.117 490.145 146.008 490.728 145.935 491.327C145.852 491.937 145.8 492.52 145.768 493.077C145.742 493.645 145.727 494.083 145.727 494.39V502.64H135.289V483.702H139.081V499.452H142.143V495.952C142.143 495.077 142.175 494.192 142.227 493.307C142.268 492.432 142.352 491.583 142.477 490.765C142.591 489.958 142.737 489.208 142.914 488.515C143.081 487.817 143.3 487.223 143.56 486.723C144.091 485.749 144.779 484.999 145.623 484.473C146.472 483.958 147.43 483.702 148.498 483.702H148.748V487.286H148.56Z" fill="white"/>
<path d="M123.969 483.702V495.723H124.052L128.26 483.702H132.156V502.64H128.573V490.619H128.489L124.302 502.64H120.385V483.702H123.969Z" fill="white"/>
<path d="M106.247 491.723H113.789V489.161C113.789 488.562 113.622 488.098 113.289 487.765C112.955 487.442 112.497 487.286 111.914 487.286C111.205 487.286 110.737 487.494 110.497 487.911C110.247 488.338 110.101 488.765 110.059 489.182H106.247C106.247 487.515 106.763 486.171 107.789 485.161C108.278 484.629 108.872 484.213 109.58 483.911C110.278 483.619 111.054 483.473 111.914 483.473C113.112 483.473 114.132 483.723 114.976 484.223C115.809 484.723 116.45 485.379 116.893 486.202C117.174 486.702 117.362 487.27 117.455 487.911C117.554 488.562 117.601 489.275 117.601 490.057V496.286C117.601 497.046 117.554 497.754 117.455 498.411C117.362 499.062 117.174 499.629 116.893 500.119C116.45 500.952 115.809 501.609 114.976 502.098C114.132 502.598 113.112 502.848 111.914 502.848C111.054 502.848 110.268 502.692 109.559 502.39C108.851 502.098 108.247 501.692 107.747 501.182C106.747 500.057 106.247 498.645 106.247 496.952V491.723ZM113.789 494.723H110.059V496.89C110.059 497.609 110.226 498.15 110.559 498.515C110.893 498.874 111.346 499.057 111.914 499.057C112.497 499.057 112.955 498.874 113.289 498.515C113.622 498.15 113.789 497.609 113.789 496.89V494.723Z" fill="white"/>
<path d="M95.2367 483.702V495.723H95.32L99.5283 483.702H103.424V502.64H99.8408V490.619H99.7575L95.57 502.64H91.6533V483.702H95.2367ZM99.3825 509.64C99.3564 509.499 99.3356 509.317 99.32 509.098C99.3096 508.89 99.2471 508.682 99.1325 508.473C99.0231 508.265 98.8408 508.083 98.5908 507.932C98.3408 507.775 97.9814 507.702 97.5075 507.702C97.0387 507.702 96.6742 507.775 96.4242 507.932C96.1742 508.083 95.9971 508.265 95.8825 508.473C95.7731 508.682 95.7158 508.89 95.7158 509.098C95.7054 509.317 95.6846 509.499 95.6533 509.64H92.4658C92.5908 508.249 93.0492 507.182 93.8408 506.432C94.6221 505.692 95.8408 505.327 97.5075 505.327C99.1742 505.327 100.403 505.702 101.195 506.452C101.976 507.213 102.424 508.275 102.549 509.64H99.3825Z" fill="white"/>
<path d="M88.5358 483.702V487.515H84.7233V483.702H88.5358Z" fill="white"/>
<path d="M74.4257 483.702V510.286H63.8215V506.702H70.6132V483.702H74.4257Z" fill="white"/>
<path d="M65.585 496.286C65.585 497.046 65.5381 497.754 65.4392 498.411C65.3454 499.062 65.1579 499.629 64.8767 500.119C64.434 500.952 63.7933 501.609 62.96 502.098C62.1163 502.598 61.0954 502.848 59.8975 502.848C58.7048 502.848 57.6892 502.598 56.8558 502.098C56.0225 501.609 55.3871 500.952 54.9392 500.119C54.6631 499.629 54.4756 499.062 54.3767 498.411C54.2829 497.754 54.2308 497.046 54.2308 496.286V490.057C54.2308 489.275 54.2829 488.562 54.3767 487.911C54.4756 487.27 54.6631 486.702 54.9392 486.202C55.3871 485.379 56.0225 484.723 56.8558 484.223C57.6892 483.723 58.7048 483.473 59.8975 483.473C61.0954 483.473 62.1163 483.723 62.96 484.223C63.7933 484.723 64.434 485.379 64.8767 486.202C65.1579 486.702 65.3454 487.27 65.4392 487.911C65.5381 488.562 65.585 489.275 65.585 490.057V496.286ZM61.7725 489.452C61.7725 488.728 61.6058 488.187 61.2725 487.827C60.9392 487.463 60.4808 487.286 59.8975 487.286C59.3298 487.286 58.8767 487.463 58.5433 487.827C58.21 488.187 58.0433 488.728 58.0433 489.452V496.89C58.0433 497.609 58.21 498.15 58.5433 498.515C58.8767 498.874 59.3298 499.057 59.8975 499.057C60.4808 499.057 60.9392 498.874 61.2725 498.515C61.6058 498.15 61.7725 497.609 61.7725 496.89V489.452Z" fill="white"/>
<path d="M51.4454 476.057V502.64H47.6329V500.911C47.1641 501.463 46.6746 501.921 46.1746 502.286C45.6746 502.661 44.9558 502.848 44.0079 502.848C42.4402 502.848 41.336 502.249 40.6954 501.057C40.4766 500.64 40.3152 500.119 40.2162 499.494C40.1069 498.869 40.0496 498.036 40.0496 496.994V489.786C40.0496 488.395 40.0912 487.39 40.1746 486.765C40.3152 485.515 40.8829 484.583 41.8829 483.973C42.3829 483.64 43.1069 483.473 44.0496 483.473C44.7996 483.473 45.4662 483.64 46.0496 483.973C46.6329 484.317 47.1329 484.796 47.5496 485.411H47.6329V476.057H51.4454ZM43.8621 496.473C43.8621 497.234 44.0183 497.853 44.3204 498.327C44.6121 498.812 45.086 499.057 45.7371 499.057C46.31 499.057 46.7683 498.833 47.1121 498.39C47.461 497.958 47.6329 497.395 47.6329 496.702V489.348C47.6329 488.749 47.4558 488.254 47.0912 487.869C46.7319 487.478 46.2787 487.286 45.7371 487.286C45.0183 487.286 44.5235 487.504 44.2579 487.952C43.9975 488.411 43.8621 488.937 43.8621 489.536V496.473Z" fill="white"/>
<path d="M29.7592 483.702V485.64H29.8217C30.3217 484.942 30.8321 484.411 31.3425 484.036C31.8581 483.661 32.5717 483.473 33.4883 483.473C33.9362 483.473 34.3946 483.546 34.8633 483.682C35.3217 483.817 35.7592 484.077 36.1758 484.452C36.6081 484.796 36.9571 485.296 37.2175 485.952C37.4675 486.619 37.5925 487.473 37.5925 488.515C37.5925 489.583 37.5092 490.52 37.3425 491.327C37.1654 492.145 36.8373 492.827 36.3633 493.369C35.9206 493.895 35.3164 494.286 34.5508 494.536C33.7748 494.796 32.7904 494.932 31.5925 494.932H31.1758C31.0248 494.932 30.8842 494.921 30.7592 494.911C30.6342 494.879 30.4883 494.869 30.3217 494.869C30.1446 494.869 29.9571 494.853 29.7592 494.827V496.807C29.7592 497.458 29.8998 497.994 30.1758 498.411C30.4414 498.838 30.9362 499.057 31.655 499.057C32.155 499.057 32.6133 498.89 33.03 498.557C33.4362 498.234 33.6967 497.765 33.8217 497.14H37.53C37.4206 498.833 36.8425 500.202 35.8008 501.244C35.3008 501.744 34.7071 502.129 34.0092 502.411C33.3164 502.702 32.53 502.848 31.655 502.848C30.8633 502.848 30.1237 502.723 29.4258 502.473C28.7331 502.223 28.1237 501.853 27.5925 501.369C27.0925 500.869 26.6967 500.244 26.405 499.494C26.1029 498.744 25.9467 497.874 25.9467 496.89V483.702H29.7592ZM29.7592 491.848C30.1758 491.916 30.5248 491.952 30.8008 491.952C31.6237 491.952 32.3217 491.754 32.905 491.369C33.4883 490.978 33.78 490.275 33.78 489.265C33.78 488.541 33.6081 487.958 33.2592 487.515C32.9154 487.067 32.4258 486.848 31.8008 486.848C31.1654 486.848 30.6654 487.057 30.3008 487.473C29.9414 487.89 29.7592 488.484 29.7592 489.265V491.848Z" fill="white"/>
<path d="M23.1238 483.702V502.64H19.3113V486.869H15.5405V502.64H11.728V486.869H9.70715V479.973H12.9363V483.702H23.1238Z" fill="white"/>
</g>
<defs>
<filter id="filter0_i_549_376175" x="0.0627441" y="24.1829" width="822.489" height="502.26" filterUnits="userSpaceOnUse" color-interpolation-filters="sRGB">
<feFlood flood-opacity="0" result="BackgroundImageFix"/>
<feBlend mode="normal" in="SourceGraphic" in2="BackgroundImageFix" result="shape"/>
<feColorMatrix in="SourceAlpha" type="matrix" values="0 0 0 0 0 0 0 0 0 0 0 0 0 0 0 0 0 0 127 0" result="hardAlpha"/>
<feOffset dx="9" dy="13"/>
<feGaussianBlur stdDeviation="3.8"/>
<feComposite in2="hardAlpha" operator="arithmetic" k2="-1" k3="1"/>
<feColorMatrix type="matrix" values="0 0 0 0 0 0 0 0 0 0 0 0 0 0 0 0 0 0 0.25 0"/>
<feBlend mode="normal" in2="shape" result="effect1_innerShadow_549_376175"/>
</filter>
<clipPath id="clip0_549_376175">
<rect width="865.333" height="543.023" fill="white" transform="translate(0.66626)"/>
</clipPath>
</defs>
</svg>
